%TF.GenerationSoftware,KiCad,Pcbnew,8.0.7*%
%TF.CreationDate,2025-03-12T15:09:51-04:00*%
%TF.ProjectId,skee-ball,736b6565-2d62-4616-9c6c-2e6b69636164,2*%
%TF.SameCoordinates,Original*%
%TF.FileFunction,Legend,Top*%
%TF.FilePolarity,Positive*%
%FSLAX46Y46*%
G04 Gerber Fmt 4.6, Leading zero omitted, Abs format (unit mm)*
G04 Created by KiCad (PCBNEW 8.0.7) date 2025-03-12 15:09:51*
%MOMM*%
%LPD*%
G01*
G04 APERTURE LIST*
%ADD10C,0.187500*%
%ADD11C,0.300000*%
%ADD12C,0.150000*%
%ADD13C,0.250000*%
%ADD14C,0.120000*%
%ADD15C,0.152400*%
%ADD16C,0.127000*%
%ADD17C,0.200000*%
G04 APERTURE END LIST*
D10*
X125599259Y-90609488D02*
X125504021Y-90561869D01*
X125504021Y-90561869D02*
X125361164Y-90561869D01*
X125361164Y-90561869D02*
X125218307Y-90609488D01*
X125218307Y-90609488D02*
X125123069Y-90704726D01*
X125123069Y-90704726D02*
X125075450Y-90799964D01*
X125075450Y-90799964D02*
X125027831Y-90990440D01*
X125027831Y-90990440D02*
X125027831Y-91133297D01*
X125027831Y-91133297D02*
X125075450Y-91323773D01*
X125075450Y-91323773D02*
X125123069Y-91419011D01*
X125123069Y-91419011D02*
X125218307Y-91514250D01*
X125218307Y-91514250D02*
X125361164Y-91561869D01*
X125361164Y-91561869D02*
X125456402Y-91561869D01*
X125456402Y-91561869D02*
X125599259Y-91514250D01*
X125599259Y-91514250D02*
X125646878Y-91466630D01*
X125646878Y-91466630D02*
X125646878Y-91133297D01*
X125646878Y-91133297D02*
X125456402Y-91133297D01*
X126075450Y-91561869D02*
X126075450Y-90561869D01*
X126075450Y-90561869D02*
X126646878Y-91561869D01*
X126646878Y-91561869D02*
X126646878Y-90561869D01*
X127123069Y-91561869D02*
X127123069Y-90561869D01*
X127123069Y-90561869D02*
X127361164Y-90561869D01*
X127361164Y-90561869D02*
X127504021Y-90609488D01*
X127504021Y-90609488D02*
X127599259Y-90704726D01*
X127599259Y-90704726D02*
X127646878Y-90799964D01*
X127646878Y-90799964D02*
X127694497Y-90990440D01*
X127694497Y-90990440D02*
X127694497Y-91133297D01*
X127694497Y-91133297D02*
X127646878Y-91323773D01*
X127646878Y-91323773D02*
X127599259Y-91419011D01*
X127599259Y-91419011D02*
X127504021Y-91514250D01*
X127504021Y-91514250D02*
X127361164Y-91561869D01*
X127361164Y-91561869D02*
X127123069Y-91561869D01*
X165032783Y-95864059D02*
X165175640Y-95911678D01*
X165175640Y-95911678D02*
X165223259Y-95959297D01*
X165223259Y-95959297D02*
X165270878Y-96054535D01*
X165270878Y-96054535D02*
X165270878Y-96197392D01*
X165270878Y-96197392D02*
X165223259Y-96292630D01*
X165223259Y-96292630D02*
X165175640Y-96340250D01*
X165175640Y-96340250D02*
X165080402Y-96387869D01*
X165080402Y-96387869D02*
X164699450Y-96387869D01*
X164699450Y-96387869D02*
X164699450Y-95387869D01*
X164699450Y-95387869D02*
X165032783Y-95387869D01*
X165032783Y-95387869D02*
X165128021Y-95435488D01*
X165128021Y-95435488D02*
X165175640Y-95483107D01*
X165175640Y-95483107D02*
X165223259Y-95578345D01*
X165223259Y-95578345D02*
X165223259Y-95673583D01*
X165223259Y-95673583D02*
X165175640Y-95768821D01*
X165175640Y-95768821D02*
X165128021Y-95816440D01*
X165128021Y-95816440D02*
X165032783Y-95864059D01*
X165032783Y-95864059D02*
X164699450Y-95864059D01*
X165556593Y-95387869D02*
X166128021Y-95387869D01*
X165842307Y-96387869D02*
X165842307Y-95387869D01*
X166461355Y-96387869D02*
X166461355Y-95387869D01*
X166461355Y-95387869D02*
X167032783Y-96387869D01*
X167032783Y-96387869D02*
X167032783Y-95387869D01*
X167508974Y-96006916D02*
X168270879Y-96006916D01*
X167889926Y-96387869D02*
X167889926Y-95625964D01*
D11*
X162310225Y-104472257D02*
X162167368Y-104400828D01*
X162167368Y-104400828D02*
X161953082Y-104400828D01*
X161953082Y-104400828D02*
X161738796Y-104472257D01*
X161738796Y-104472257D02*
X161595939Y-104615114D01*
X161595939Y-104615114D02*
X161524510Y-104757971D01*
X161524510Y-104757971D02*
X161453082Y-105043685D01*
X161453082Y-105043685D02*
X161453082Y-105257971D01*
X161453082Y-105257971D02*
X161524510Y-105543685D01*
X161524510Y-105543685D02*
X161595939Y-105686542D01*
X161595939Y-105686542D02*
X161738796Y-105829400D01*
X161738796Y-105829400D02*
X161953082Y-105900828D01*
X161953082Y-105900828D02*
X162095939Y-105900828D01*
X162095939Y-105900828D02*
X162310225Y-105829400D01*
X162310225Y-105829400D02*
X162381653Y-105757971D01*
X162381653Y-105757971D02*
X162381653Y-105257971D01*
X162381653Y-105257971D02*
X162095939Y-105257971D01*
X163024510Y-105900828D02*
X163024510Y-104400828D01*
X163024510Y-104400828D02*
X163881653Y-105900828D01*
X163881653Y-105900828D02*
X163881653Y-104400828D01*
X164595939Y-105900828D02*
X164595939Y-104400828D01*
X164595939Y-104400828D02*
X164953082Y-104400828D01*
X164953082Y-104400828D02*
X165167368Y-104472257D01*
X165167368Y-104472257D02*
X165310225Y-104615114D01*
X165310225Y-104615114D02*
X165381654Y-104757971D01*
X165381654Y-104757971D02*
X165453082Y-105043685D01*
X165453082Y-105043685D02*
X165453082Y-105257971D01*
X165453082Y-105257971D02*
X165381654Y-105543685D01*
X165381654Y-105543685D02*
X165310225Y-105686542D01*
X165310225Y-105686542D02*
X165167368Y-105829400D01*
X165167368Y-105829400D02*
X164953082Y-105900828D01*
X164953082Y-105900828D02*
X164595939Y-105900828D01*
D10*
X109946593Y-101483869D02*
X110279926Y-102483869D01*
X110279926Y-102483869D02*
X110613259Y-101483869D01*
X110946593Y-102483869D02*
X110946593Y-101483869D01*
X110946593Y-101483869D02*
X111184688Y-101483869D01*
X111184688Y-101483869D02*
X111327545Y-101531488D01*
X111327545Y-101531488D02*
X111422783Y-101626726D01*
X111422783Y-101626726D02*
X111470402Y-101721964D01*
X111470402Y-101721964D02*
X111518021Y-101912440D01*
X111518021Y-101912440D02*
X111518021Y-102055297D01*
X111518021Y-102055297D02*
X111470402Y-102245773D01*
X111470402Y-102245773D02*
X111422783Y-102341011D01*
X111422783Y-102341011D02*
X111327545Y-102436250D01*
X111327545Y-102436250D02*
X111184688Y-102483869D01*
X111184688Y-102483869D02*
X110946593Y-102483869D01*
X111946593Y-102483869D02*
X111946593Y-101483869D01*
X111946593Y-101483869D02*
X112184688Y-101483869D01*
X112184688Y-101483869D02*
X112327545Y-101531488D01*
X112327545Y-101531488D02*
X112422783Y-101626726D01*
X112422783Y-101626726D02*
X112470402Y-101721964D01*
X112470402Y-101721964D02*
X112518021Y-101912440D01*
X112518021Y-101912440D02*
X112518021Y-102055297D01*
X112518021Y-102055297D02*
X112470402Y-102245773D01*
X112470402Y-102245773D02*
X112422783Y-102341011D01*
X112422783Y-102341011D02*
X112327545Y-102436250D01*
X112327545Y-102436250D02*
X112184688Y-102483869D01*
X112184688Y-102483869D02*
X111946593Y-102483869D01*
X112898974Y-102198154D02*
X113375164Y-102198154D01*
X112803736Y-102483869D02*
X113137069Y-101483869D01*
X113137069Y-101483869D02*
X113470402Y-102483869D01*
X126972497Y-44002678D02*
X126972497Y-42502678D01*
X126972497Y-42502678D02*
X127329640Y-42502678D01*
X127329640Y-42502678D02*
X127543926Y-42574107D01*
X127543926Y-42574107D02*
X127686783Y-42716964D01*
X127686783Y-42716964D02*
X127758212Y-42859821D01*
X127758212Y-42859821D02*
X127829640Y-43145535D01*
X127829640Y-43145535D02*
X127829640Y-43359821D01*
X127829640Y-43359821D02*
X127758212Y-43645535D01*
X127758212Y-43645535D02*
X127686783Y-43788392D01*
X127686783Y-43788392D02*
X127543926Y-43931250D01*
X127543926Y-43931250D02*
X127329640Y-44002678D01*
X127329640Y-44002678D02*
X126972497Y-44002678D01*
X128972497Y-43216964D02*
X129186783Y-43288392D01*
X129186783Y-43288392D02*
X129258212Y-43359821D01*
X129258212Y-43359821D02*
X129329640Y-43502678D01*
X129329640Y-43502678D02*
X129329640Y-43716964D01*
X129329640Y-43716964D02*
X129258212Y-43859821D01*
X129258212Y-43859821D02*
X129186783Y-43931250D01*
X129186783Y-43931250D02*
X129043926Y-44002678D01*
X129043926Y-44002678D02*
X128472497Y-44002678D01*
X128472497Y-44002678D02*
X128472497Y-42502678D01*
X128472497Y-42502678D02*
X128972497Y-42502678D01*
X128972497Y-42502678D02*
X129115355Y-42574107D01*
X129115355Y-42574107D02*
X129186783Y-42645535D01*
X129186783Y-42645535D02*
X129258212Y-42788392D01*
X129258212Y-42788392D02*
X129258212Y-42931250D01*
X129258212Y-42931250D02*
X129186783Y-43074107D01*
X129186783Y-43074107D02*
X129115355Y-43145535D01*
X129115355Y-43145535D02*
X128972497Y-43216964D01*
X128972497Y-43216964D02*
X128472497Y-43216964D01*
X130615355Y-42502678D02*
X130329640Y-42502678D01*
X130329640Y-42502678D02*
X130186783Y-42574107D01*
X130186783Y-42574107D02*
X130115355Y-42645535D01*
X130115355Y-42645535D02*
X129972497Y-42859821D01*
X129972497Y-42859821D02*
X129901069Y-43145535D01*
X129901069Y-43145535D02*
X129901069Y-43716964D01*
X129901069Y-43716964D02*
X129972497Y-43859821D01*
X129972497Y-43859821D02*
X130043926Y-43931250D01*
X130043926Y-43931250D02*
X130186783Y-44002678D01*
X130186783Y-44002678D02*
X130472497Y-44002678D01*
X130472497Y-44002678D02*
X130615355Y-43931250D01*
X130615355Y-43931250D02*
X130686783Y-43859821D01*
X130686783Y-43859821D02*
X130758212Y-43716964D01*
X130758212Y-43716964D02*
X130758212Y-43359821D01*
X130758212Y-43359821D02*
X130686783Y-43216964D01*
X130686783Y-43216964D02*
X130615355Y-43145535D01*
X130615355Y-43145535D02*
X130472497Y-43074107D01*
X130472497Y-43074107D02*
X130186783Y-43074107D01*
X130186783Y-43074107D02*
X130043926Y-43145535D01*
X130043926Y-43145535D02*
X129972497Y-43216964D01*
X129972497Y-43216964D02*
X129901069Y-43359821D01*
X134187640Y-95057869D02*
X133711450Y-95057869D01*
X133711450Y-95057869D02*
X133711450Y-94057869D01*
X134520974Y-94534059D02*
X134854307Y-94534059D01*
X134997164Y-95057869D02*
X134520974Y-95057869D01*
X134520974Y-95057869D02*
X134520974Y-94057869D01*
X134520974Y-94057869D02*
X134997164Y-94057869D01*
X135425736Y-95057869D02*
X135425736Y-94057869D01*
X135425736Y-94057869D02*
X135663831Y-94057869D01*
X135663831Y-94057869D02*
X135806688Y-94105488D01*
X135806688Y-94105488D02*
X135901926Y-94200726D01*
X135901926Y-94200726D02*
X135949545Y-94295964D01*
X135949545Y-94295964D02*
X135997164Y-94486440D01*
X135997164Y-94486440D02*
X135997164Y-94629297D01*
X135997164Y-94629297D02*
X135949545Y-94819773D01*
X135949545Y-94819773D02*
X135901926Y-94915011D01*
X135901926Y-94915011D02*
X135806688Y-95010250D01*
X135806688Y-95010250D02*
X135663831Y-95057869D01*
X135663831Y-95057869D02*
X135425736Y-95057869D01*
X136425736Y-94676916D02*
X137187641Y-94676916D01*
X136806688Y-95057869D02*
X136806688Y-94295964D01*
X118233259Y-51747488D02*
X118138021Y-51699869D01*
X118138021Y-51699869D02*
X117995164Y-51699869D01*
X117995164Y-51699869D02*
X117852307Y-51747488D01*
X117852307Y-51747488D02*
X117757069Y-51842726D01*
X117757069Y-51842726D02*
X117709450Y-51937964D01*
X117709450Y-51937964D02*
X117661831Y-52128440D01*
X117661831Y-52128440D02*
X117661831Y-52271297D01*
X117661831Y-52271297D02*
X117709450Y-52461773D01*
X117709450Y-52461773D02*
X117757069Y-52557011D01*
X117757069Y-52557011D02*
X117852307Y-52652250D01*
X117852307Y-52652250D02*
X117995164Y-52699869D01*
X117995164Y-52699869D02*
X118090402Y-52699869D01*
X118090402Y-52699869D02*
X118233259Y-52652250D01*
X118233259Y-52652250D02*
X118280878Y-52604630D01*
X118280878Y-52604630D02*
X118280878Y-52271297D01*
X118280878Y-52271297D02*
X118090402Y-52271297D01*
X118709450Y-52699869D02*
X118709450Y-51699869D01*
X118709450Y-51699869D02*
X119280878Y-52699869D01*
X119280878Y-52699869D02*
X119280878Y-51699869D01*
X119757069Y-52699869D02*
X119757069Y-51699869D01*
X119757069Y-51699869D02*
X119995164Y-51699869D01*
X119995164Y-51699869D02*
X120138021Y-51747488D01*
X120138021Y-51747488D02*
X120233259Y-51842726D01*
X120233259Y-51842726D02*
X120280878Y-51937964D01*
X120280878Y-51937964D02*
X120328497Y-52128440D01*
X120328497Y-52128440D02*
X120328497Y-52271297D01*
X120328497Y-52271297D02*
X120280878Y-52461773D01*
X120280878Y-52461773D02*
X120233259Y-52557011D01*
X120233259Y-52557011D02*
X120138021Y-52652250D01*
X120138021Y-52652250D02*
X119995164Y-52699869D01*
X119995164Y-52699869D02*
X119757069Y-52699869D01*
X126830497Y-49136678D02*
X126830497Y-47636678D01*
X126830497Y-47636678D02*
X127187640Y-47636678D01*
X127187640Y-47636678D02*
X127401926Y-47708107D01*
X127401926Y-47708107D02*
X127544783Y-47850964D01*
X127544783Y-47850964D02*
X127616212Y-47993821D01*
X127616212Y-47993821D02*
X127687640Y-48279535D01*
X127687640Y-48279535D02*
X127687640Y-48493821D01*
X127687640Y-48493821D02*
X127616212Y-48779535D01*
X127616212Y-48779535D02*
X127544783Y-48922392D01*
X127544783Y-48922392D02*
X127401926Y-49065250D01*
X127401926Y-49065250D02*
X127187640Y-49136678D01*
X127187640Y-49136678D02*
X126830497Y-49136678D01*
X128830497Y-48350964D02*
X129044783Y-48422392D01*
X129044783Y-48422392D02*
X129116212Y-48493821D01*
X129116212Y-48493821D02*
X129187640Y-48636678D01*
X129187640Y-48636678D02*
X129187640Y-48850964D01*
X129187640Y-48850964D02*
X129116212Y-48993821D01*
X129116212Y-48993821D02*
X129044783Y-49065250D01*
X129044783Y-49065250D02*
X128901926Y-49136678D01*
X128901926Y-49136678D02*
X128330497Y-49136678D01*
X128330497Y-49136678D02*
X128330497Y-47636678D01*
X128330497Y-47636678D02*
X128830497Y-47636678D01*
X128830497Y-47636678D02*
X128973355Y-47708107D01*
X128973355Y-47708107D02*
X129044783Y-47779535D01*
X129044783Y-47779535D02*
X129116212Y-47922392D01*
X129116212Y-47922392D02*
X129116212Y-48065250D01*
X129116212Y-48065250D02*
X129044783Y-48208107D01*
X129044783Y-48208107D02*
X128973355Y-48279535D01*
X128973355Y-48279535D02*
X128830497Y-48350964D01*
X128830497Y-48350964D02*
X128330497Y-48350964D01*
X130473355Y-48136678D02*
X130473355Y-49136678D01*
X130116212Y-47565250D02*
X129759069Y-48636678D01*
X129759069Y-48636678D02*
X130687640Y-48636678D01*
X137124593Y-92847869D02*
X137457926Y-93847869D01*
X137457926Y-93847869D02*
X137791259Y-92847869D01*
X138124593Y-93847869D02*
X138124593Y-92847869D01*
X138124593Y-92847869D02*
X138362688Y-92847869D01*
X138362688Y-92847869D02*
X138505545Y-92895488D01*
X138505545Y-92895488D02*
X138600783Y-92990726D01*
X138600783Y-92990726D02*
X138648402Y-93085964D01*
X138648402Y-93085964D02*
X138696021Y-93276440D01*
X138696021Y-93276440D02*
X138696021Y-93419297D01*
X138696021Y-93419297D02*
X138648402Y-93609773D01*
X138648402Y-93609773D02*
X138600783Y-93705011D01*
X138600783Y-93705011D02*
X138505545Y-93800250D01*
X138505545Y-93800250D02*
X138362688Y-93847869D01*
X138362688Y-93847869D02*
X138124593Y-93847869D01*
X139124593Y-93847869D02*
X139124593Y-92847869D01*
X139124593Y-92847869D02*
X139362688Y-92847869D01*
X139362688Y-92847869D02*
X139505545Y-92895488D01*
X139505545Y-92895488D02*
X139600783Y-92990726D01*
X139600783Y-92990726D02*
X139648402Y-93085964D01*
X139648402Y-93085964D02*
X139696021Y-93276440D01*
X139696021Y-93276440D02*
X139696021Y-93419297D01*
X139696021Y-93419297D02*
X139648402Y-93609773D01*
X139648402Y-93609773D02*
X139600783Y-93705011D01*
X139600783Y-93705011D02*
X139505545Y-93800250D01*
X139505545Y-93800250D02*
X139362688Y-93847869D01*
X139362688Y-93847869D02*
X139124593Y-93847869D01*
X140076974Y-93562154D02*
X140553164Y-93562154D01*
X139981736Y-93847869D02*
X140315069Y-92847869D01*
X140315069Y-92847869D02*
X140648402Y-93847869D01*
X112089640Y-53223869D02*
X111613450Y-53223869D01*
X111613450Y-53223869D02*
X111565831Y-53700059D01*
X111565831Y-53700059D02*
X111613450Y-53652440D01*
X111613450Y-53652440D02*
X111708688Y-53604821D01*
X111708688Y-53604821D02*
X111946783Y-53604821D01*
X111946783Y-53604821D02*
X112042021Y-53652440D01*
X112042021Y-53652440D02*
X112089640Y-53700059D01*
X112089640Y-53700059D02*
X112137259Y-53795297D01*
X112137259Y-53795297D02*
X112137259Y-54033392D01*
X112137259Y-54033392D02*
X112089640Y-54128630D01*
X112089640Y-54128630D02*
X112042021Y-54176250D01*
X112042021Y-54176250D02*
X111946783Y-54223869D01*
X111946783Y-54223869D02*
X111708688Y-54223869D01*
X111708688Y-54223869D02*
X111613450Y-54176250D01*
X111613450Y-54176250D02*
X111565831Y-54128630D01*
X112422974Y-53223869D02*
X112756307Y-54223869D01*
X112756307Y-54223869D02*
X113089640Y-53223869D01*
X108957640Y-49677869D02*
X108481450Y-49677869D01*
X108481450Y-49677869D02*
X108481450Y-48677869D01*
X109290974Y-49154059D02*
X109624307Y-49154059D01*
X109767164Y-49677869D02*
X109290974Y-49677869D01*
X109290974Y-49677869D02*
X109290974Y-48677869D01*
X109290974Y-48677869D02*
X109767164Y-48677869D01*
X110195736Y-49677869D02*
X110195736Y-48677869D01*
X110195736Y-48677869D02*
X110433831Y-48677869D01*
X110433831Y-48677869D02*
X110576688Y-48725488D01*
X110576688Y-48725488D02*
X110671926Y-48820726D01*
X110671926Y-48820726D02*
X110719545Y-48915964D01*
X110719545Y-48915964D02*
X110767164Y-49106440D01*
X110767164Y-49106440D02*
X110767164Y-49249297D01*
X110767164Y-49249297D02*
X110719545Y-49439773D01*
X110719545Y-49439773D02*
X110671926Y-49535011D01*
X110671926Y-49535011D02*
X110576688Y-49630250D01*
X110576688Y-49630250D02*
X110433831Y-49677869D01*
X110433831Y-49677869D02*
X110195736Y-49677869D01*
X111195736Y-49296916D02*
X111957641Y-49296916D01*
X111576688Y-49677869D02*
X111576688Y-48915964D01*
X166487640Y-40416678D02*
X165987640Y-39702392D01*
X165630497Y-40416678D02*
X165630497Y-38916678D01*
X165630497Y-38916678D02*
X166201926Y-38916678D01*
X166201926Y-38916678D02*
X166344783Y-38988107D01*
X166344783Y-38988107D02*
X166416212Y-39059535D01*
X166416212Y-39059535D02*
X166487640Y-39202392D01*
X166487640Y-39202392D02*
X166487640Y-39416678D01*
X166487640Y-39416678D02*
X166416212Y-39559535D01*
X166416212Y-39559535D02*
X166344783Y-39630964D01*
X166344783Y-39630964D02*
X166201926Y-39702392D01*
X166201926Y-39702392D02*
X165630497Y-39702392D01*
X167059069Y-40345250D02*
X167273355Y-40416678D01*
X167273355Y-40416678D02*
X167630497Y-40416678D01*
X167630497Y-40416678D02*
X167773355Y-40345250D01*
X167773355Y-40345250D02*
X167844783Y-40273821D01*
X167844783Y-40273821D02*
X167916212Y-40130964D01*
X167916212Y-40130964D02*
X167916212Y-39988107D01*
X167916212Y-39988107D02*
X167844783Y-39845250D01*
X167844783Y-39845250D02*
X167773355Y-39773821D01*
X167773355Y-39773821D02*
X167630497Y-39702392D01*
X167630497Y-39702392D02*
X167344783Y-39630964D01*
X167344783Y-39630964D02*
X167201926Y-39559535D01*
X167201926Y-39559535D02*
X167130497Y-39488107D01*
X167130497Y-39488107D02*
X167059069Y-39345250D01*
X167059069Y-39345250D02*
X167059069Y-39202392D01*
X167059069Y-39202392D02*
X167130497Y-39059535D01*
X167130497Y-39059535D02*
X167201926Y-38988107D01*
X167201926Y-38988107D02*
X167344783Y-38916678D01*
X167344783Y-38916678D02*
X167701926Y-38916678D01*
X167701926Y-38916678D02*
X167916212Y-38988107D01*
X165175640Y-79893869D02*
X164699450Y-79893869D01*
X164699450Y-79893869D02*
X164651831Y-80370059D01*
X164651831Y-80370059D02*
X164699450Y-80322440D01*
X164699450Y-80322440D02*
X164794688Y-80274821D01*
X164794688Y-80274821D02*
X165032783Y-80274821D01*
X165032783Y-80274821D02*
X165128021Y-80322440D01*
X165128021Y-80322440D02*
X165175640Y-80370059D01*
X165175640Y-80370059D02*
X165223259Y-80465297D01*
X165223259Y-80465297D02*
X165223259Y-80703392D01*
X165223259Y-80703392D02*
X165175640Y-80798630D01*
X165175640Y-80798630D02*
X165128021Y-80846250D01*
X165128021Y-80846250D02*
X165032783Y-80893869D01*
X165032783Y-80893869D02*
X164794688Y-80893869D01*
X164794688Y-80893869D02*
X164699450Y-80846250D01*
X164699450Y-80846250D02*
X164651831Y-80798630D01*
X165508974Y-79893869D02*
X165842307Y-80893869D01*
X165842307Y-80893869D02*
X166175640Y-79893869D01*
X147695869Y-108096549D02*
X146695869Y-108096549D01*
X146695869Y-108096549D02*
X146695869Y-107715597D01*
X146695869Y-107715597D02*
X146743488Y-107620359D01*
X146743488Y-107620359D02*
X146791107Y-107572740D01*
X146791107Y-107572740D02*
X146886345Y-107525121D01*
X146886345Y-107525121D02*
X147029202Y-107525121D01*
X147029202Y-107525121D02*
X147124440Y-107572740D01*
X147124440Y-107572740D02*
X147172059Y-107620359D01*
X147172059Y-107620359D02*
X147219678Y-107715597D01*
X147219678Y-107715597D02*
X147219678Y-108096549D01*
X146695869Y-107191787D02*
X147695869Y-106953692D01*
X147695869Y-106953692D02*
X146981583Y-106763216D01*
X146981583Y-106763216D02*
X147695869Y-106572740D01*
X147695869Y-106572740D02*
X146695869Y-106334645D01*
X147695869Y-105953692D02*
X146695869Y-105953692D01*
X146695869Y-105953692D02*
X147410154Y-105620359D01*
X147410154Y-105620359D02*
X146695869Y-105287026D01*
X146695869Y-105287026D02*
X147695869Y-105287026D01*
X147791107Y-105048931D02*
X147791107Y-104287026D01*
X147695869Y-104048930D02*
X146695869Y-104048930D01*
X146695869Y-104048930D02*
X146695869Y-103810835D01*
X146695869Y-103810835D02*
X146743488Y-103667978D01*
X146743488Y-103667978D02*
X146838726Y-103572740D01*
X146838726Y-103572740D02*
X146933964Y-103525121D01*
X146933964Y-103525121D02*
X147124440Y-103477502D01*
X147124440Y-103477502D02*
X147267297Y-103477502D01*
X147267297Y-103477502D02*
X147457773Y-103525121D01*
X147457773Y-103525121D02*
X147553011Y-103572740D01*
X147553011Y-103572740D02*
X147648250Y-103667978D01*
X147648250Y-103667978D02*
X147695869Y-103810835D01*
X147695869Y-103810835D02*
X147695869Y-104048930D01*
X147600630Y-102477502D02*
X147648250Y-102525121D01*
X147648250Y-102525121D02*
X147695869Y-102667978D01*
X147695869Y-102667978D02*
X147695869Y-102763216D01*
X147695869Y-102763216D02*
X147648250Y-102906073D01*
X147648250Y-102906073D02*
X147553011Y-103001311D01*
X147553011Y-103001311D02*
X147457773Y-103048930D01*
X147457773Y-103048930D02*
X147267297Y-103096549D01*
X147267297Y-103096549D02*
X147124440Y-103096549D01*
X147124440Y-103096549D02*
X146933964Y-103048930D01*
X146933964Y-103048930D02*
X146838726Y-103001311D01*
X146838726Y-103001311D02*
X146743488Y-102906073D01*
X146743488Y-102906073D02*
X146695869Y-102763216D01*
X146695869Y-102763216D02*
X146695869Y-102667978D01*
X146695869Y-102667978D02*
X146743488Y-102525121D01*
X146743488Y-102525121D02*
X146791107Y-102477502D01*
X124265831Y-81608250D02*
X124408688Y-81655869D01*
X124408688Y-81655869D02*
X124646783Y-81655869D01*
X124646783Y-81655869D02*
X124742021Y-81608250D01*
X124742021Y-81608250D02*
X124789640Y-81560630D01*
X124789640Y-81560630D02*
X124837259Y-81465392D01*
X124837259Y-81465392D02*
X124837259Y-81370154D01*
X124837259Y-81370154D02*
X124789640Y-81274916D01*
X124789640Y-81274916D02*
X124742021Y-81227297D01*
X124742021Y-81227297D02*
X124646783Y-81179678D01*
X124646783Y-81179678D02*
X124456307Y-81132059D01*
X124456307Y-81132059D02*
X124361069Y-81084440D01*
X124361069Y-81084440D02*
X124313450Y-81036821D01*
X124313450Y-81036821D02*
X124265831Y-80941583D01*
X124265831Y-80941583D02*
X124265831Y-80846345D01*
X124265831Y-80846345D02*
X124313450Y-80751107D01*
X124313450Y-80751107D02*
X124361069Y-80703488D01*
X124361069Y-80703488D02*
X124456307Y-80655869D01*
X124456307Y-80655869D02*
X124694402Y-80655869D01*
X124694402Y-80655869D02*
X124837259Y-80703488D01*
X125170593Y-80655869D02*
X125408688Y-81655869D01*
X125408688Y-81655869D02*
X125599164Y-80941583D01*
X125599164Y-80941583D02*
X125789640Y-81655869D01*
X125789640Y-81655869D02*
X126027736Y-80655869D01*
X126408688Y-81655869D02*
X126408688Y-80655869D01*
X126408688Y-80655869D02*
X126646783Y-80655869D01*
X126646783Y-80655869D02*
X126789640Y-80703488D01*
X126789640Y-80703488D02*
X126884878Y-80798726D01*
X126884878Y-80798726D02*
X126932497Y-80893964D01*
X126932497Y-80893964D02*
X126980116Y-81084440D01*
X126980116Y-81084440D02*
X126980116Y-81227297D01*
X126980116Y-81227297D02*
X126932497Y-81417773D01*
X126932497Y-81417773D02*
X126884878Y-81513011D01*
X126884878Y-81513011D02*
X126789640Y-81608250D01*
X126789640Y-81608250D02*
X126646783Y-81655869D01*
X126646783Y-81655869D02*
X126408688Y-81655869D01*
X127408688Y-81655869D02*
X127408688Y-80655869D01*
X128075354Y-80655869D02*
X128265830Y-80655869D01*
X128265830Y-80655869D02*
X128361068Y-80703488D01*
X128361068Y-80703488D02*
X128456306Y-80798726D01*
X128456306Y-80798726D02*
X128503925Y-80989202D01*
X128503925Y-80989202D02*
X128503925Y-81322535D01*
X128503925Y-81322535D02*
X128456306Y-81513011D01*
X128456306Y-81513011D02*
X128361068Y-81608250D01*
X128361068Y-81608250D02*
X128265830Y-81655869D01*
X128265830Y-81655869D02*
X128075354Y-81655869D01*
X128075354Y-81655869D02*
X127980116Y-81608250D01*
X127980116Y-81608250D02*
X127884878Y-81513011D01*
X127884878Y-81513011D02*
X127837259Y-81322535D01*
X127837259Y-81322535D02*
X127837259Y-80989202D01*
X127837259Y-80989202D02*
X127884878Y-80798726D01*
X127884878Y-80798726D02*
X127980116Y-80703488D01*
X127980116Y-80703488D02*
X128075354Y-80655869D01*
X160557869Y-75171406D02*
X161557869Y-74838073D01*
X161557869Y-74838073D02*
X160557869Y-74504740D01*
X161557869Y-74171406D02*
X160557869Y-74171406D01*
X160557869Y-74171406D02*
X160557869Y-73933311D01*
X160557869Y-73933311D02*
X160605488Y-73790454D01*
X160605488Y-73790454D02*
X160700726Y-73695216D01*
X160700726Y-73695216D02*
X160795964Y-73647597D01*
X160795964Y-73647597D02*
X160986440Y-73599978D01*
X160986440Y-73599978D02*
X161129297Y-73599978D01*
X161129297Y-73599978D02*
X161319773Y-73647597D01*
X161319773Y-73647597D02*
X161415011Y-73695216D01*
X161415011Y-73695216D02*
X161510250Y-73790454D01*
X161510250Y-73790454D02*
X161557869Y-73933311D01*
X161557869Y-73933311D02*
X161557869Y-74171406D01*
X161557869Y-73171406D02*
X160557869Y-73171406D01*
X160557869Y-73171406D02*
X160557869Y-72933311D01*
X160557869Y-72933311D02*
X160605488Y-72790454D01*
X160605488Y-72790454D02*
X160700726Y-72695216D01*
X160700726Y-72695216D02*
X160795964Y-72647597D01*
X160795964Y-72647597D02*
X160986440Y-72599978D01*
X160986440Y-72599978D02*
X161129297Y-72599978D01*
X161129297Y-72599978D02*
X161319773Y-72647597D01*
X161319773Y-72647597D02*
X161415011Y-72695216D01*
X161415011Y-72695216D02*
X161510250Y-72790454D01*
X161510250Y-72790454D02*
X161557869Y-72933311D01*
X161557869Y-72933311D02*
X161557869Y-73171406D01*
X165580497Y-45636678D02*
X165580497Y-44136678D01*
X165580497Y-44136678D02*
X165937640Y-44136678D01*
X165937640Y-44136678D02*
X166151926Y-44208107D01*
X166151926Y-44208107D02*
X166294783Y-44350964D01*
X166294783Y-44350964D02*
X166366212Y-44493821D01*
X166366212Y-44493821D02*
X166437640Y-44779535D01*
X166437640Y-44779535D02*
X166437640Y-44993821D01*
X166437640Y-44993821D02*
X166366212Y-45279535D01*
X166366212Y-45279535D02*
X166294783Y-45422392D01*
X166294783Y-45422392D02*
X166151926Y-45565250D01*
X166151926Y-45565250D02*
X165937640Y-45636678D01*
X165937640Y-45636678D02*
X165580497Y-45636678D01*
X167580497Y-44850964D02*
X167794783Y-44922392D01*
X167794783Y-44922392D02*
X167866212Y-44993821D01*
X167866212Y-44993821D02*
X167937640Y-45136678D01*
X167937640Y-45136678D02*
X167937640Y-45350964D01*
X167937640Y-45350964D02*
X167866212Y-45493821D01*
X167866212Y-45493821D02*
X167794783Y-45565250D01*
X167794783Y-45565250D02*
X167651926Y-45636678D01*
X167651926Y-45636678D02*
X167080497Y-45636678D01*
X167080497Y-45636678D02*
X167080497Y-44136678D01*
X167080497Y-44136678D02*
X167580497Y-44136678D01*
X167580497Y-44136678D02*
X167723355Y-44208107D01*
X167723355Y-44208107D02*
X167794783Y-44279535D01*
X167794783Y-44279535D02*
X167866212Y-44422392D01*
X167866212Y-44422392D02*
X167866212Y-44565250D01*
X167866212Y-44565250D02*
X167794783Y-44708107D01*
X167794783Y-44708107D02*
X167723355Y-44779535D01*
X167723355Y-44779535D02*
X167580497Y-44850964D01*
X167580497Y-44850964D02*
X167080497Y-44850964D01*
X169366212Y-45636678D02*
X168509069Y-45636678D01*
X168937640Y-45636678D02*
X168937640Y-44136678D01*
X168937640Y-44136678D02*
X168794783Y-44350964D01*
X168794783Y-44350964D02*
X168651926Y-44493821D01*
X168651926Y-44493821D02*
X168509069Y-44565250D01*
X164556593Y-82433869D02*
X165128021Y-82433869D01*
X164842307Y-83433869D02*
X164842307Y-82433869D01*
X166032783Y-83433869D02*
X165699450Y-82957678D01*
X165461355Y-83433869D02*
X165461355Y-82433869D01*
X165461355Y-82433869D02*
X165842307Y-82433869D01*
X165842307Y-82433869D02*
X165937545Y-82481488D01*
X165937545Y-82481488D02*
X165985164Y-82529107D01*
X165985164Y-82529107D02*
X166032783Y-82624345D01*
X166032783Y-82624345D02*
X166032783Y-82767202D01*
X166032783Y-82767202D02*
X165985164Y-82862440D01*
X165985164Y-82862440D02*
X165937545Y-82910059D01*
X165937545Y-82910059D02*
X165842307Y-82957678D01*
X165842307Y-82957678D02*
X165461355Y-82957678D01*
X166461355Y-83433869D02*
X166461355Y-82433869D01*
X167461354Y-82481488D02*
X167366116Y-82433869D01*
X167366116Y-82433869D02*
X167223259Y-82433869D01*
X167223259Y-82433869D02*
X167080402Y-82481488D01*
X167080402Y-82481488D02*
X166985164Y-82576726D01*
X166985164Y-82576726D02*
X166937545Y-82671964D01*
X166937545Y-82671964D02*
X166889926Y-82862440D01*
X166889926Y-82862440D02*
X166889926Y-83005297D01*
X166889926Y-83005297D02*
X166937545Y-83195773D01*
X166937545Y-83195773D02*
X166985164Y-83291011D01*
X166985164Y-83291011D02*
X167080402Y-83386250D01*
X167080402Y-83386250D02*
X167223259Y-83433869D01*
X167223259Y-83433869D02*
X167318497Y-83433869D01*
X167318497Y-83433869D02*
X167461354Y-83386250D01*
X167461354Y-83386250D02*
X167508973Y-83338630D01*
X167508973Y-83338630D02*
X167508973Y-83005297D01*
X167508973Y-83005297D02*
X167318497Y-83005297D01*
X165610497Y-47440964D02*
X166110497Y-47440964D01*
X166324783Y-48226678D02*
X165610497Y-48226678D01*
X165610497Y-48226678D02*
X165610497Y-46726678D01*
X165610497Y-46726678D02*
X166324783Y-46726678D01*
X166896212Y-46869535D02*
X166967640Y-46798107D01*
X166967640Y-46798107D02*
X167110498Y-46726678D01*
X167110498Y-46726678D02*
X167467640Y-46726678D01*
X167467640Y-46726678D02*
X167610498Y-46798107D01*
X167610498Y-46798107D02*
X167681926Y-46869535D01*
X167681926Y-46869535D02*
X167753355Y-47012392D01*
X167753355Y-47012392D02*
X167753355Y-47155250D01*
X167753355Y-47155250D02*
X167681926Y-47369535D01*
X167681926Y-47369535D02*
X166824783Y-48226678D01*
X166824783Y-48226678D02*
X167753355Y-48226678D01*
X164778783Y-92816059D02*
X164921640Y-92863678D01*
X164921640Y-92863678D02*
X164969259Y-92911297D01*
X164969259Y-92911297D02*
X165016878Y-93006535D01*
X165016878Y-93006535D02*
X165016878Y-93149392D01*
X165016878Y-93149392D02*
X164969259Y-93244630D01*
X164969259Y-93244630D02*
X164921640Y-93292250D01*
X164921640Y-93292250D02*
X164826402Y-93339869D01*
X164826402Y-93339869D02*
X164445450Y-93339869D01*
X164445450Y-93339869D02*
X164445450Y-92339869D01*
X164445450Y-92339869D02*
X164778783Y-92339869D01*
X164778783Y-92339869D02*
X164874021Y-92387488D01*
X164874021Y-92387488D02*
X164921640Y-92435107D01*
X164921640Y-92435107D02*
X164969259Y-92530345D01*
X164969259Y-92530345D02*
X164969259Y-92625583D01*
X164969259Y-92625583D02*
X164921640Y-92720821D01*
X164921640Y-92720821D02*
X164874021Y-92768440D01*
X164874021Y-92768440D02*
X164778783Y-92816059D01*
X164778783Y-92816059D02*
X164445450Y-92816059D01*
X165302593Y-92339869D02*
X165874021Y-92339869D01*
X165588307Y-93339869D02*
X165588307Y-92339869D01*
X166207355Y-93339869D02*
X166207355Y-92339869D01*
X166207355Y-92339869D02*
X166778783Y-93339869D01*
X166778783Y-93339869D02*
X166778783Y-92339869D01*
X167254974Y-92958916D02*
X168016879Y-92958916D01*
D11*
X68290225Y-104372257D02*
X68147368Y-104300828D01*
X68147368Y-104300828D02*
X67933082Y-104300828D01*
X67933082Y-104300828D02*
X67718796Y-104372257D01*
X67718796Y-104372257D02*
X67575939Y-104515114D01*
X67575939Y-104515114D02*
X67504510Y-104657971D01*
X67504510Y-104657971D02*
X67433082Y-104943685D01*
X67433082Y-104943685D02*
X67433082Y-105157971D01*
X67433082Y-105157971D02*
X67504510Y-105443685D01*
X67504510Y-105443685D02*
X67575939Y-105586542D01*
X67575939Y-105586542D02*
X67718796Y-105729400D01*
X67718796Y-105729400D02*
X67933082Y-105800828D01*
X67933082Y-105800828D02*
X68075939Y-105800828D01*
X68075939Y-105800828D02*
X68290225Y-105729400D01*
X68290225Y-105729400D02*
X68361653Y-105657971D01*
X68361653Y-105657971D02*
X68361653Y-105157971D01*
X68361653Y-105157971D02*
X68075939Y-105157971D01*
X69004510Y-105800828D02*
X69004510Y-104300828D01*
X69004510Y-104300828D02*
X69861653Y-105800828D01*
X69861653Y-105800828D02*
X69861653Y-104300828D01*
X70575939Y-105800828D02*
X70575939Y-104300828D01*
X70575939Y-104300828D02*
X70933082Y-104300828D01*
X70933082Y-104300828D02*
X71147368Y-104372257D01*
X71147368Y-104372257D02*
X71290225Y-104515114D01*
X71290225Y-104515114D02*
X71361654Y-104657971D01*
X71361654Y-104657971D02*
X71433082Y-104943685D01*
X71433082Y-104943685D02*
X71433082Y-105157971D01*
X71433082Y-105157971D02*
X71361654Y-105443685D01*
X71361654Y-105443685D02*
X71290225Y-105586542D01*
X71290225Y-105586542D02*
X71147368Y-105729400D01*
X71147368Y-105729400D02*
X70933082Y-105800828D01*
X70933082Y-105800828D02*
X70575939Y-105800828D01*
D10*
X118233259Y-49207488D02*
X118138021Y-49159869D01*
X118138021Y-49159869D02*
X117995164Y-49159869D01*
X117995164Y-49159869D02*
X117852307Y-49207488D01*
X117852307Y-49207488D02*
X117757069Y-49302726D01*
X117757069Y-49302726D02*
X117709450Y-49397964D01*
X117709450Y-49397964D02*
X117661831Y-49588440D01*
X117661831Y-49588440D02*
X117661831Y-49731297D01*
X117661831Y-49731297D02*
X117709450Y-49921773D01*
X117709450Y-49921773D02*
X117757069Y-50017011D01*
X117757069Y-50017011D02*
X117852307Y-50112250D01*
X117852307Y-50112250D02*
X117995164Y-50159869D01*
X117995164Y-50159869D02*
X118090402Y-50159869D01*
X118090402Y-50159869D02*
X118233259Y-50112250D01*
X118233259Y-50112250D02*
X118280878Y-50064630D01*
X118280878Y-50064630D02*
X118280878Y-49731297D01*
X118280878Y-49731297D02*
X118090402Y-49731297D01*
X118709450Y-50159869D02*
X118709450Y-49159869D01*
X118709450Y-49159869D02*
X119280878Y-50159869D01*
X119280878Y-50159869D02*
X119280878Y-49159869D01*
X119757069Y-50159869D02*
X119757069Y-49159869D01*
X119757069Y-49159869D02*
X119995164Y-49159869D01*
X119995164Y-49159869D02*
X120138021Y-49207488D01*
X120138021Y-49207488D02*
X120233259Y-49302726D01*
X120233259Y-49302726D02*
X120280878Y-49397964D01*
X120280878Y-49397964D02*
X120328497Y-49588440D01*
X120328497Y-49588440D02*
X120328497Y-49731297D01*
X120328497Y-49731297D02*
X120280878Y-49921773D01*
X120280878Y-49921773D02*
X120233259Y-50017011D01*
X120233259Y-50017011D02*
X120138021Y-50112250D01*
X120138021Y-50112250D02*
X119995164Y-50159869D01*
X119995164Y-50159869D02*
X119757069Y-50159869D01*
X128195750Y-84133831D02*
X128148130Y-84276688D01*
X128148130Y-84276688D02*
X128148130Y-84514783D01*
X128148130Y-84514783D02*
X128195750Y-84610021D01*
X128195750Y-84610021D02*
X128243369Y-84657640D01*
X128243369Y-84657640D02*
X128338607Y-84705259D01*
X128338607Y-84705259D02*
X128433845Y-84705259D01*
X128433845Y-84705259D02*
X128529083Y-84657640D01*
X128529083Y-84657640D02*
X128576702Y-84610021D01*
X128576702Y-84610021D02*
X128624321Y-84514783D01*
X128624321Y-84514783D02*
X128671940Y-84324307D01*
X128671940Y-84324307D02*
X128719559Y-84229069D01*
X128719559Y-84229069D02*
X128767178Y-84181450D01*
X128767178Y-84181450D02*
X128862416Y-84133831D01*
X128862416Y-84133831D02*
X128957654Y-84133831D01*
X128957654Y-84133831D02*
X129052892Y-84181450D01*
X129052892Y-84181450D02*
X129100511Y-84229069D01*
X129100511Y-84229069D02*
X129148130Y-84324307D01*
X129148130Y-84324307D02*
X129148130Y-84562402D01*
X129148130Y-84562402D02*
X129100511Y-84705259D01*
X129148130Y-85038593D02*
X128148130Y-85276688D01*
X128148130Y-85276688D02*
X128862416Y-85467164D01*
X128862416Y-85467164D02*
X128148130Y-85657640D01*
X128148130Y-85657640D02*
X129148130Y-85895736D01*
X128243369Y-86848116D02*
X128195750Y-86800497D01*
X128195750Y-86800497D02*
X128148130Y-86657640D01*
X128148130Y-86657640D02*
X128148130Y-86562402D01*
X128148130Y-86562402D02*
X128195750Y-86419545D01*
X128195750Y-86419545D02*
X128290988Y-86324307D01*
X128290988Y-86324307D02*
X128386226Y-86276688D01*
X128386226Y-86276688D02*
X128576702Y-86229069D01*
X128576702Y-86229069D02*
X128719559Y-86229069D01*
X128719559Y-86229069D02*
X128910035Y-86276688D01*
X128910035Y-86276688D02*
X129005273Y-86324307D01*
X129005273Y-86324307D02*
X129100511Y-86419545D01*
X129100511Y-86419545D02*
X129148130Y-86562402D01*
X129148130Y-86562402D02*
X129148130Y-86657640D01*
X129148130Y-86657640D02*
X129100511Y-86800497D01*
X129100511Y-86800497D02*
X129052892Y-86848116D01*
X128148130Y-87752878D02*
X128148130Y-87276688D01*
X128148130Y-87276688D02*
X129148130Y-87276688D01*
X128148130Y-88086212D02*
X129148130Y-88086212D01*
X128148130Y-88657640D02*
X128719559Y-88229069D01*
X129148130Y-88657640D02*
X128576702Y-88086212D01*
X165520497Y-43116678D02*
X165520497Y-41616678D01*
X165520497Y-41616678D02*
X165877640Y-41616678D01*
X165877640Y-41616678D02*
X166091926Y-41688107D01*
X166091926Y-41688107D02*
X166234783Y-41830964D01*
X166234783Y-41830964D02*
X166306212Y-41973821D01*
X166306212Y-41973821D02*
X166377640Y-42259535D01*
X166377640Y-42259535D02*
X166377640Y-42473821D01*
X166377640Y-42473821D02*
X166306212Y-42759535D01*
X166306212Y-42759535D02*
X166234783Y-42902392D01*
X166234783Y-42902392D02*
X166091926Y-43045250D01*
X166091926Y-43045250D02*
X165877640Y-43116678D01*
X165877640Y-43116678D02*
X165520497Y-43116678D01*
X167520497Y-42330964D02*
X167734783Y-42402392D01*
X167734783Y-42402392D02*
X167806212Y-42473821D01*
X167806212Y-42473821D02*
X167877640Y-42616678D01*
X167877640Y-42616678D02*
X167877640Y-42830964D01*
X167877640Y-42830964D02*
X167806212Y-42973821D01*
X167806212Y-42973821D02*
X167734783Y-43045250D01*
X167734783Y-43045250D02*
X167591926Y-43116678D01*
X167591926Y-43116678D02*
X167020497Y-43116678D01*
X167020497Y-43116678D02*
X167020497Y-41616678D01*
X167020497Y-41616678D02*
X167520497Y-41616678D01*
X167520497Y-41616678D02*
X167663355Y-41688107D01*
X167663355Y-41688107D02*
X167734783Y-41759535D01*
X167734783Y-41759535D02*
X167806212Y-41902392D01*
X167806212Y-41902392D02*
X167806212Y-42045250D01*
X167806212Y-42045250D02*
X167734783Y-42188107D01*
X167734783Y-42188107D02*
X167663355Y-42259535D01*
X167663355Y-42259535D02*
X167520497Y-42330964D01*
X167520497Y-42330964D02*
X167020497Y-42330964D01*
X168806212Y-41616678D02*
X168949069Y-41616678D01*
X168949069Y-41616678D02*
X169091926Y-41688107D01*
X169091926Y-41688107D02*
X169163355Y-41759535D01*
X169163355Y-41759535D02*
X169234783Y-41902392D01*
X169234783Y-41902392D02*
X169306212Y-42188107D01*
X169306212Y-42188107D02*
X169306212Y-42545250D01*
X169306212Y-42545250D02*
X169234783Y-42830964D01*
X169234783Y-42830964D02*
X169163355Y-42973821D01*
X169163355Y-42973821D02*
X169091926Y-43045250D01*
X169091926Y-43045250D02*
X168949069Y-43116678D01*
X168949069Y-43116678D02*
X168806212Y-43116678D01*
X168806212Y-43116678D02*
X168663355Y-43045250D01*
X168663355Y-43045250D02*
X168591926Y-42973821D01*
X168591926Y-42973821D02*
X168520497Y-42830964D01*
X168520497Y-42830964D02*
X168449069Y-42545250D01*
X168449069Y-42545250D02*
X168449069Y-42188107D01*
X168449069Y-42188107D02*
X168520497Y-41902392D01*
X168520497Y-41902392D02*
X168591926Y-41759535D01*
X168591926Y-41759535D02*
X168663355Y-41688107D01*
X168663355Y-41688107D02*
X168806212Y-41616678D01*
X126740497Y-46546678D02*
X126740497Y-45046678D01*
X126740497Y-45046678D02*
X127097640Y-45046678D01*
X127097640Y-45046678D02*
X127311926Y-45118107D01*
X127311926Y-45118107D02*
X127454783Y-45260964D01*
X127454783Y-45260964D02*
X127526212Y-45403821D01*
X127526212Y-45403821D02*
X127597640Y-45689535D01*
X127597640Y-45689535D02*
X127597640Y-45903821D01*
X127597640Y-45903821D02*
X127526212Y-46189535D01*
X127526212Y-46189535D02*
X127454783Y-46332392D01*
X127454783Y-46332392D02*
X127311926Y-46475250D01*
X127311926Y-46475250D02*
X127097640Y-46546678D01*
X127097640Y-46546678D02*
X126740497Y-46546678D01*
X128740497Y-45760964D02*
X128954783Y-45832392D01*
X128954783Y-45832392D02*
X129026212Y-45903821D01*
X129026212Y-45903821D02*
X129097640Y-46046678D01*
X129097640Y-46046678D02*
X129097640Y-46260964D01*
X129097640Y-46260964D02*
X129026212Y-46403821D01*
X129026212Y-46403821D02*
X128954783Y-46475250D01*
X128954783Y-46475250D02*
X128811926Y-46546678D01*
X128811926Y-46546678D02*
X128240497Y-46546678D01*
X128240497Y-46546678D02*
X128240497Y-45046678D01*
X128240497Y-45046678D02*
X128740497Y-45046678D01*
X128740497Y-45046678D02*
X128883355Y-45118107D01*
X128883355Y-45118107D02*
X128954783Y-45189535D01*
X128954783Y-45189535D02*
X129026212Y-45332392D01*
X129026212Y-45332392D02*
X129026212Y-45475250D01*
X129026212Y-45475250D02*
X128954783Y-45618107D01*
X128954783Y-45618107D02*
X128883355Y-45689535D01*
X128883355Y-45689535D02*
X128740497Y-45760964D01*
X128740497Y-45760964D02*
X128240497Y-45760964D01*
X130454783Y-45046678D02*
X129740497Y-45046678D01*
X129740497Y-45046678D02*
X129669069Y-45760964D01*
X129669069Y-45760964D02*
X129740497Y-45689535D01*
X129740497Y-45689535D02*
X129883355Y-45618107D01*
X129883355Y-45618107D02*
X130240497Y-45618107D01*
X130240497Y-45618107D02*
X130383355Y-45689535D01*
X130383355Y-45689535D02*
X130454783Y-45760964D01*
X130454783Y-45760964D02*
X130526212Y-45903821D01*
X130526212Y-45903821D02*
X130526212Y-46260964D01*
X130526212Y-46260964D02*
X130454783Y-46403821D01*
X130454783Y-46403821D02*
X130383355Y-46475250D01*
X130383355Y-46475250D02*
X130240497Y-46546678D01*
X130240497Y-46546678D02*
X129883355Y-46546678D01*
X129883355Y-46546678D02*
X129740497Y-46475250D01*
X129740497Y-46475250D02*
X129669069Y-46403821D01*
X96737640Y-82947869D02*
X96261450Y-82947869D01*
X96261450Y-82947869D02*
X96261450Y-81947869D01*
X97070974Y-82424059D02*
X97404307Y-82424059D01*
X97547164Y-82947869D02*
X97070974Y-82947869D01*
X97070974Y-82947869D02*
X97070974Y-81947869D01*
X97070974Y-81947869D02*
X97547164Y-81947869D01*
X97975736Y-82947869D02*
X97975736Y-81947869D01*
X97975736Y-81947869D02*
X98213831Y-81947869D01*
X98213831Y-81947869D02*
X98356688Y-81995488D01*
X98356688Y-81995488D02*
X98451926Y-82090726D01*
X98451926Y-82090726D02*
X98499545Y-82185964D01*
X98499545Y-82185964D02*
X98547164Y-82376440D01*
X98547164Y-82376440D02*
X98547164Y-82519297D01*
X98547164Y-82519297D02*
X98499545Y-82709773D01*
X98499545Y-82709773D02*
X98451926Y-82805011D01*
X98451926Y-82805011D02*
X98356688Y-82900250D01*
X98356688Y-82900250D02*
X98213831Y-82947869D01*
X98213831Y-82947869D02*
X97975736Y-82947869D01*
X98975736Y-82566916D02*
X99737641Y-82566916D01*
X99356688Y-82947869D02*
X99356688Y-82185964D01*
D11*
X147000225Y-29092257D02*
X146857368Y-29020828D01*
X146857368Y-29020828D02*
X146643082Y-29020828D01*
X146643082Y-29020828D02*
X146428796Y-29092257D01*
X146428796Y-29092257D02*
X146285939Y-29235114D01*
X146285939Y-29235114D02*
X146214510Y-29377971D01*
X146214510Y-29377971D02*
X146143082Y-29663685D01*
X146143082Y-29663685D02*
X146143082Y-29877971D01*
X146143082Y-29877971D02*
X146214510Y-30163685D01*
X146214510Y-30163685D02*
X146285939Y-30306542D01*
X146285939Y-30306542D02*
X146428796Y-30449400D01*
X146428796Y-30449400D02*
X146643082Y-30520828D01*
X146643082Y-30520828D02*
X146785939Y-30520828D01*
X146785939Y-30520828D02*
X147000225Y-30449400D01*
X147000225Y-30449400D02*
X147071653Y-30377971D01*
X147071653Y-30377971D02*
X147071653Y-29877971D01*
X147071653Y-29877971D02*
X146785939Y-29877971D01*
X147714510Y-30520828D02*
X147714510Y-29020828D01*
X147714510Y-29020828D02*
X148571653Y-30520828D01*
X148571653Y-30520828D02*
X148571653Y-29020828D01*
X149285939Y-30520828D02*
X149285939Y-29020828D01*
X149285939Y-29020828D02*
X149643082Y-29020828D01*
X149643082Y-29020828D02*
X149857368Y-29092257D01*
X149857368Y-29092257D02*
X150000225Y-29235114D01*
X150000225Y-29235114D02*
X150071654Y-29377971D01*
X150071654Y-29377971D02*
X150143082Y-29663685D01*
X150143082Y-29663685D02*
X150143082Y-29877971D01*
X150143082Y-29877971D02*
X150071654Y-30163685D01*
X150071654Y-30163685D02*
X150000225Y-30306542D01*
X150000225Y-30306542D02*
X149857368Y-30449400D01*
X149857368Y-30449400D02*
X149643082Y-30520828D01*
X149643082Y-30520828D02*
X149285939Y-30520828D01*
D10*
X84904511Y-108073259D02*
X84952130Y-107978021D01*
X84952130Y-107978021D02*
X84952130Y-107835164D01*
X84952130Y-107835164D02*
X84904511Y-107692307D01*
X84904511Y-107692307D02*
X84809273Y-107597069D01*
X84809273Y-107597069D02*
X84714035Y-107549450D01*
X84714035Y-107549450D02*
X84523559Y-107501831D01*
X84523559Y-107501831D02*
X84380702Y-107501831D01*
X84380702Y-107501831D02*
X84190226Y-107549450D01*
X84190226Y-107549450D02*
X84094988Y-107597069D01*
X84094988Y-107597069D02*
X83999750Y-107692307D01*
X83999750Y-107692307D02*
X83952130Y-107835164D01*
X83952130Y-107835164D02*
X83952130Y-107930402D01*
X83952130Y-107930402D02*
X83999750Y-108073259D01*
X83999750Y-108073259D02*
X84047369Y-108120878D01*
X84047369Y-108120878D02*
X84380702Y-108120878D01*
X84380702Y-108120878D02*
X84380702Y-107930402D01*
X83952130Y-108549450D02*
X84952130Y-108549450D01*
X84952130Y-108549450D02*
X83952130Y-109120878D01*
X83952130Y-109120878D02*
X84952130Y-109120878D01*
X83952130Y-109597069D02*
X84952130Y-109597069D01*
X84952130Y-109597069D02*
X84952130Y-109835164D01*
X84952130Y-109835164D02*
X84904511Y-109978021D01*
X84904511Y-109978021D02*
X84809273Y-110073259D01*
X84809273Y-110073259D02*
X84714035Y-110120878D01*
X84714035Y-110120878D02*
X84523559Y-110168497D01*
X84523559Y-110168497D02*
X84380702Y-110168497D01*
X84380702Y-110168497D02*
X84190226Y-110120878D01*
X84190226Y-110120878D02*
X84094988Y-110073259D01*
X84094988Y-110073259D02*
X83999750Y-109978021D01*
X83999750Y-109978021D02*
X83952130Y-109835164D01*
X83952130Y-109835164D02*
X83952130Y-109597069D01*
X111121259Y-104579488D02*
X111026021Y-104531869D01*
X111026021Y-104531869D02*
X110883164Y-104531869D01*
X110883164Y-104531869D02*
X110740307Y-104579488D01*
X110740307Y-104579488D02*
X110645069Y-104674726D01*
X110645069Y-104674726D02*
X110597450Y-104769964D01*
X110597450Y-104769964D02*
X110549831Y-104960440D01*
X110549831Y-104960440D02*
X110549831Y-105103297D01*
X110549831Y-105103297D02*
X110597450Y-105293773D01*
X110597450Y-105293773D02*
X110645069Y-105389011D01*
X110645069Y-105389011D02*
X110740307Y-105484250D01*
X110740307Y-105484250D02*
X110883164Y-105531869D01*
X110883164Y-105531869D02*
X110978402Y-105531869D01*
X110978402Y-105531869D02*
X111121259Y-105484250D01*
X111121259Y-105484250D02*
X111168878Y-105436630D01*
X111168878Y-105436630D02*
X111168878Y-105103297D01*
X111168878Y-105103297D02*
X110978402Y-105103297D01*
X111597450Y-105531869D02*
X111597450Y-104531869D01*
X111597450Y-104531869D02*
X112168878Y-105531869D01*
X112168878Y-105531869D02*
X112168878Y-104531869D01*
X112645069Y-105531869D02*
X112645069Y-104531869D01*
X112645069Y-104531869D02*
X112883164Y-104531869D01*
X112883164Y-104531869D02*
X113026021Y-104579488D01*
X113026021Y-104579488D02*
X113121259Y-104674726D01*
X113121259Y-104674726D02*
X113168878Y-104769964D01*
X113168878Y-104769964D02*
X113216497Y-104960440D01*
X113216497Y-104960440D02*
X113216497Y-105103297D01*
X113216497Y-105103297D02*
X113168878Y-105293773D01*
X113168878Y-105293773D02*
X113121259Y-105389011D01*
X113121259Y-105389011D02*
X113026021Y-105484250D01*
X113026021Y-105484250D02*
X112883164Y-105531869D01*
X112883164Y-105531869D02*
X112645069Y-105531869D01*
X165223259Y-87561488D02*
X165128021Y-87513869D01*
X165128021Y-87513869D02*
X164985164Y-87513869D01*
X164985164Y-87513869D02*
X164842307Y-87561488D01*
X164842307Y-87561488D02*
X164747069Y-87656726D01*
X164747069Y-87656726D02*
X164699450Y-87751964D01*
X164699450Y-87751964D02*
X164651831Y-87942440D01*
X164651831Y-87942440D02*
X164651831Y-88085297D01*
X164651831Y-88085297D02*
X164699450Y-88275773D01*
X164699450Y-88275773D02*
X164747069Y-88371011D01*
X164747069Y-88371011D02*
X164842307Y-88466250D01*
X164842307Y-88466250D02*
X164985164Y-88513869D01*
X164985164Y-88513869D02*
X165080402Y-88513869D01*
X165080402Y-88513869D02*
X165223259Y-88466250D01*
X165223259Y-88466250D02*
X165270878Y-88418630D01*
X165270878Y-88418630D02*
X165270878Y-88085297D01*
X165270878Y-88085297D02*
X165080402Y-88085297D01*
X165699450Y-88513869D02*
X165699450Y-87513869D01*
X165699450Y-87513869D02*
X166270878Y-88513869D01*
X166270878Y-88513869D02*
X166270878Y-87513869D01*
X166747069Y-88513869D02*
X166747069Y-87513869D01*
X166747069Y-87513869D02*
X166985164Y-87513869D01*
X166985164Y-87513869D02*
X167128021Y-87561488D01*
X167128021Y-87561488D02*
X167223259Y-87656726D01*
X167223259Y-87656726D02*
X167270878Y-87751964D01*
X167270878Y-87751964D02*
X167318497Y-87942440D01*
X167318497Y-87942440D02*
X167318497Y-88085297D01*
X167318497Y-88085297D02*
X167270878Y-88275773D01*
X167270878Y-88275773D02*
X167223259Y-88371011D01*
X167223259Y-88371011D02*
X167128021Y-88466250D01*
X167128021Y-88466250D02*
X166985164Y-88513869D01*
X166985164Y-88513869D02*
X166747069Y-88513869D01*
X149791488Y-104524740D02*
X149743869Y-104619978D01*
X149743869Y-104619978D02*
X149743869Y-104762835D01*
X149743869Y-104762835D02*
X149791488Y-104905692D01*
X149791488Y-104905692D02*
X149886726Y-105000930D01*
X149886726Y-105000930D02*
X149981964Y-105048549D01*
X149981964Y-105048549D02*
X150172440Y-105096168D01*
X150172440Y-105096168D02*
X150315297Y-105096168D01*
X150315297Y-105096168D02*
X150505773Y-105048549D01*
X150505773Y-105048549D02*
X150601011Y-105000930D01*
X150601011Y-105000930D02*
X150696250Y-104905692D01*
X150696250Y-104905692D02*
X150743869Y-104762835D01*
X150743869Y-104762835D02*
X150743869Y-104667597D01*
X150743869Y-104667597D02*
X150696250Y-104524740D01*
X150696250Y-104524740D02*
X150648630Y-104477121D01*
X150648630Y-104477121D02*
X150315297Y-104477121D01*
X150315297Y-104477121D02*
X150315297Y-104667597D01*
X150743869Y-104048549D02*
X149743869Y-104048549D01*
X149743869Y-104048549D02*
X150743869Y-103477121D01*
X150743869Y-103477121D02*
X149743869Y-103477121D01*
X150743869Y-103000930D02*
X149743869Y-103000930D01*
X149743869Y-103000930D02*
X149743869Y-102762835D01*
X149743869Y-102762835D02*
X149791488Y-102619978D01*
X149791488Y-102619978D02*
X149886726Y-102524740D01*
X149886726Y-102524740D02*
X149981964Y-102477121D01*
X149981964Y-102477121D02*
X150172440Y-102429502D01*
X150172440Y-102429502D02*
X150315297Y-102429502D01*
X150315297Y-102429502D02*
X150505773Y-102477121D01*
X150505773Y-102477121D02*
X150601011Y-102524740D01*
X150601011Y-102524740D02*
X150696250Y-102619978D01*
X150696250Y-102619978D02*
X150743869Y-102762835D01*
X150743869Y-102762835D02*
X150743869Y-103000930D01*
X118609440Y-42986678D02*
X118109440Y-42272392D01*
X117752297Y-42986678D02*
X117752297Y-41486678D01*
X117752297Y-41486678D02*
X118323726Y-41486678D01*
X118323726Y-41486678D02*
X118466583Y-41558107D01*
X118466583Y-41558107D02*
X118538012Y-41629535D01*
X118538012Y-41629535D02*
X118609440Y-41772392D01*
X118609440Y-41772392D02*
X118609440Y-41986678D01*
X118609440Y-41986678D02*
X118538012Y-42129535D01*
X118538012Y-42129535D02*
X118466583Y-42200964D01*
X118466583Y-42200964D02*
X118323726Y-42272392D01*
X118323726Y-42272392D02*
X117752297Y-42272392D01*
X119109440Y-41486678D02*
X119466583Y-42986678D01*
X119466583Y-42986678D02*
X119752297Y-41915250D01*
X119752297Y-41915250D02*
X120038012Y-42986678D01*
X120038012Y-42986678D02*
X120395155Y-41486678D01*
X165550497Y-49930964D02*
X166050497Y-49930964D01*
X166264783Y-50716678D02*
X165550497Y-50716678D01*
X165550497Y-50716678D02*
X165550497Y-49216678D01*
X165550497Y-49216678D02*
X166264783Y-49216678D01*
X167693355Y-50716678D02*
X166836212Y-50716678D01*
X167264783Y-50716678D02*
X167264783Y-49216678D01*
X167264783Y-49216678D02*
X167121926Y-49430964D01*
X167121926Y-49430964D02*
X166979069Y-49573821D01*
X166979069Y-49573821D02*
X166836212Y-49645250D01*
X99342021Y-80147869D02*
X99151545Y-80147869D01*
X99151545Y-80147869D02*
X99056307Y-80195488D01*
X99056307Y-80195488D02*
X99008688Y-80243107D01*
X99008688Y-80243107D02*
X98913450Y-80385964D01*
X98913450Y-80385964D02*
X98865831Y-80576440D01*
X98865831Y-80576440D02*
X98865831Y-80957392D01*
X98865831Y-80957392D02*
X98913450Y-81052630D01*
X98913450Y-81052630D02*
X98961069Y-81100250D01*
X98961069Y-81100250D02*
X99056307Y-81147869D01*
X99056307Y-81147869D02*
X99246783Y-81147869D01*
X99246783Y-81147869D02*
X99342021Y-81100250D01*
X99342021Y-81100250D02*
X99389640Y-81052630D01*
X99389640Y-81052630D02*
X99437259Y-80957392D01*
X99437259Y-80957392D02*
X99437259Y-80719297D01*
X99437259Y-80719297D02*
X99389640Y-80624059D01*
X99389640Y-80624059D02*
X99342021Y-80576440D01*
X99342021Y-80576440D02*
X99246783Y-80528821D01*
X99246783Y-80528821D02*
X99056307Y-80528821D01*
X99056307Y-80528821D02*
X98961069Y-80576440D01*
X98961069Y-80576440D02*
X98913450Y-80624059D01*
X98913450Y-80624059D02*
X98865831Y-80719297D01*
X99722974Y-80147869D02*
X100056307Y-81147869D01*
X100056307Y-81147869D02*
X100389640Y-80147869D01*
X126930497Y-54106678D02*
X126930497Y-52606678D01*
X126930497Y-52606678D02*
X127287640Y-52606678D01*
X127287640Y-52606678D02*
X127501926Y-52678107D01*
X127501926Y-52678107D02*
X127644783Y-52820964D01*
X127644783Y-52820964D02*
X127716212Y-52963821D01*
X127716212Y-52963821D02*
X127787640Y-53249535D01*
X127787640Y-53249535D02*
X127787640Y-53463821D01*
X127787640Y-53463821D02*
X127716212Y-53749535D01*
X127716212Y-53749535D02*
X127644783Y-53892392D01*
X127644783Y-53892392D02*
X127501926Y-54035250D01*
X127501926Y-54035250D02*
X127287640Y-54106678D01*
X127287640Y-54106678D02*
X126930497Y-54106678D01*
X128930497Y-53320964D02*
X129144783Y-53392392D01*
X129144783Y-53392392D02*
X129216212Y-53463821D01*
X129216212Y-53463821D02*
X129287640Y-53606678D01*
X129287640Y-53606678D02*
X129287640Y-53820964D01*
X129287640Y-53820964D02*
X129216212Y-53963821D01*
X129216212Y-53963821D02*
X129144783Y-54035250D01*
X129144783Y-54035250D02*
X129001926Y-54106678D01*
X129001926Y-54106678D02*
X128430497Y-54106678D01*
X128430497Y-54106678D02*
X128430497Y-52606678D01*
X128430497Y-52606678D02*
X128930497Y-52606678D01*
X128930497Y-52606678D02*
X129073355Y-52678107D01*
X129073355Y-52678107D02*
X129144783Y-52749535D01*
X129144783Y-52749535D02*
X129216212Y-52892392D01*
X129216212Y-52892392D02*
X129216212Y-53035250D01*
X129216212Y-53035250D02*
X129144783Y-53178107D01*
X129144783Y-53178107D02*
X129073355Y-53249535D01*
X129073355Y-53249535D02*
X128930497Y-53320964D01*
X128930497Y-53320964D02*
X128430497Y-53320964D01*
X129859069Y-52749535D02*
X129930497Y-52678107D01*
X129930497Y-52678107D02*
X130073355Y-52606678D01*
X130073355Y-52606678D02*
X130430497Y-52606678D01*
X130430497Y-52606678D02*
X130573355Y-52678107D01*
X130573355Y-52678107D02*
X130644783Y-52749535D01*
X130644783Y-52749535D02*
X130716212Y-52892392D01*
X130716212Y-52892392D02*
X130716212Y-53035250D01*
X130716212Y-53035250D02*
X130644783Y-53249535D01*
X130644783Y-53249535D02*
X129787640Y-54106678D01*
X129787640Y-54106678D02*
X130716212Y-54106678D01*
X117169640Y-47619869D02*
X116693450Y-47619869D01*
X116693450Y-47619869D02*
X116693450Y-46619869D01*
X117502974Y-47096059D02*
X117836307Y-47096059D01*
X117979164Y-47619869D02*
X117502974Y-47619869D01*
X117502974Y-47619869D02*
X117502974Y-46619869D01*
X117502974Y-46619869D02*
X117979164Y-46619869D01*
X118407736Y-47619869D02*
X118407736Y-46619869D01*
X118407736Y-46619869D02*
X118645831Y-46619869D01*
X118645831Y-46619869D02*
X118788688Y-46667488D01*
X118788688Y-46667488D02*
X118883926Y-46762726D01*
X118883926Y-46762726D02*
X118931545Y-46857964D01*
X118931545Y-46857964D02*
X118979164Y-47048440D01*
X118979164Y-47048440D02*
X118979164Y-47191297D01*
X118979164Y-47191297D02*
X118931545Y-47381773D01*
X118931545Y-47381773D02*
X118883926Y-47477011D01*
X118883926Y-47477011D02*
X118788688Y-47572250D01*
X118788688Y-47572250D02*
X118645831Y-47619869D01*
X118645831Y-47619869D02*
X118407736Y-47619869D01*
X92572130Y-108025640D02*
X92572130Y-107549450D01*
X92572130Y-107549450D02*
X92095940Y-107501831D01*
X92095940Y-107501831D02*
X92143559Y-107549450D01*
X92143559Y-107549450D02*
X92191178Y-107644688D01*
X92191178Y-107644688D02*
X92191178Y-107882783D01*
X92191178Y-107882783D02*
X92143559Y-107978021D01*
X92143559Y-107978021D02*
X92095940Y-108025640D01*
X92095940Y-108025640D02*
X92000702Y-108073259D01*
X92000702Y-108073259D02*
X91762607Y-108073259D01*
X91762607Y-108073259D02*
X91667369Y-108025640D01*
X91667369Y-108025640D02*
X91619750Y-107978021D01*
X91619750Y-107978021D02*
X91572130Y-107882783D01*
X91572130Y-107882783D02*
X91572130Y-107644688D01*
X91572130Y-107644688D02*
X91619750Y-107549450D01*
X91619750Y-107549450D02*
X91667369Y-107501831D01*
X92572130Y-108358974D02*
X91572130Y-108692307D01*
X91572130Y-108692307D02*
X92572130Y-109025640D01*
D11*
X82920225Y-29092257D02*
X82777368Y-29020828D01*
X82777368Y-29020828D02*
X82563082Y-29020828D01*
X82563082Y-29020828D02*
X82348796Y-29092257D01*
X82348796Y-29092257D02*
X82205939Y-29235114D01*
X82205939Y-29235114D02*
X82134510Y-29377971D01*
X82134510Y-29377971D02*
X82063082Y-29663685D01*
X82063082Y-29663685D02*
X82063082Y-29877971D01*
X82063082Y-29877971D02*
X82134510Y-30163685D01*
X82134510Y-30163685D02*
X82205939Y-30306542D01*
X82205939Y-30306542D02*
X82348796Y-30449400D01*
X82348796Y-30449400D02*
X82563082Y-30520828D01*
X82563082Y-30520828D02*
X82705939Y-30520828D01*
X82705939Y-30520828D02*
X82920225Y-30449400D01*
X82920225Y-30449400D02*
X82991653Y-30377971D01*
X82991653Y-30377971D02*
X82991653Y-29877971D01*
X82991653Y-29877971D02*
X82705939Y-29877971D01*
X83634510Y-30520828D02*
X83634510Y-29020828D01*
X83634510Y-29020828D02*
X84491653Y-30520828D01*
X84491653Y-30520828D02*
X84491653Y-29020828D01*
X85205939Y-30520828D02*
X85205939Y-29020828D01*
X85205939Y-29020828D02*
X85563082Y-29020828D01*
X85563082Y-29020828D02*
X85777368Y-29092257D01*
X85777368Y-29092257D02*
X85920225Y-29235114D01*
X85920225Y-29235114D02*
X85991654Y-29377971D01*
X85991654Y-29377971D02*
X86063082Y-29663685D01*
X86063082Y-29663685D02*
X86063082Y-29877971D01*
X86063082Y-29877971D02*
X85991654Y-30163685D01*
X85991654Y-30163685D02*
X85920225Y-30306542D01*
X85920225Y-30306542D02*
X85777368Y-30449400D01*
X85777368Y-30449400D02*
X85563082Y-30520828D01*
X85563082Y-30520828D02*
X85205939Y-30520828D01*
D10*
X87015940Y-107549450D02*
X87015940Y-107882783D01*
X86492130Y-108025640D02*
X86492130Y-107549450D01*
X86492130Y-107549450D02*
X87492130Y-107549450D01*
X87492130Y-107549450D02*
X87492130Y-108025640D01*
X86587369Y-109025640D02*
X86539750Y-108978021D01*
X86539750Y-108978021D02*
X86492130Y-108835164D01*
X86492130Y-108835164D02*
X86492130Y-108739926D01*
X86492130Y-108739926D02*
X86539750Y-108597069D01*
X86539750Y-108597069D02*
X86634988Y-108501831D01*
X86634988Y-108501831D02*
X86730226Y-108454212D01*
X86730226Y-108454212D02*
X86920702Y-108406593D01*
X86920702Y-108406593D02*
X87063559Y-108406593D01*
X87063559Y-108406593D02*
X87254035Y-108454212D01*
X87254035Y-108454212D02*
X87349273Y-108501831D01*
X87349273Y-108501831D02*
X87444511Y-108597069D01*
X87444511Y-108597069D02*
X87492130Y-108739926D01*
X87492130Y-108739926D02*
X87492130Y-108835164D01*
X87492130Y-108835164D02*
X87444511Y-108978021D01*
X87444511Y-108978021D02*
X87396892Y-109025640D01*
X86492130Y-109454212D02*
X87492130Y-109454212D01*
X87015940Y-109454212D02*
X87015940Y-110025640D01*
X86492130Y-110025640D02*
X87492130Y-110025640D01*
X87492130Y-110692307D02*
X87492130Y-110882783D01*
X87492130Y-110882783D02*
X87444511Y-110978021D01*
X87444511Y-110978021D02*
X87349273Y-111073259D01*
X87349273Y-111073259D02*
X87158797Y-111120878D01*
X87158797Y-111120878D02*
X86825464Y-111120878D01*
X86825464Y-111120878D02*
X86634988Y-111073259D01*
X86634988Y-111073259D02*
X86539750Y-110978021D01*
X86539750Y-110978021D02*
X86492130Y-110882783D01*
X86492130Y-110882783D02*
X86492130Y-110692307D01*
X86492130Y-110692307D02*
X86539750Y-110597069D01*
X86539750Y-110597069D02*
X86634988Y-110501831D01*
X86634988Y-110501831D02*
X86825464Y-110454212D01*
X86825464Y-110454212D02*
X87158797Y-110454212D01*
X87158797Y-110454212D02*
X87349273Y-110501831D01*
X87349273Y-110501831D02*
X87444511Y-110597069D01*
X87444511Y-110597069D02*
X87492130Y-110692307D01*
X126800497Y-51686678D02*
X126800497Y-50186678D01*
X126800497Y-50186678D02*
X127157640Y-50186678D01*
X127157640Y-50186678D02*
X127371926Y-50258107D01*
X127371926Y-50258107D02*
X127514783Y-50400964D01*
X127514783Y-50400964D02*
X127586212Y-50543821D01*
X127586212Y-50543821D02*
X127657640Y-50829535D01*
X127657640Y-50829535D02*
X127657640Y-51043821D01*
X127657640Y-51043821D02*
X127586212Y-51329535D01*
X127586212Y-51329535D02*
X127514783Y-51472392D01*
X127514783Y-51472392D02*
X127371926Y-51615250D01*
X127371926Y-51615250D02*
X127157640Y-51686678D01*
X127157640Y-51686678D02*
X126800497Y-51686678D01*
X128800497Y-50900964D02*
X129014783Y-50972392D01*
X129014783Y-50972392D02*
X129086212Y-51043821D01*
X129086212Y-51043821D02*
X129157640Y-51186678D01*
X129157640Y-51186678D02*
X129157640Y-51400964D01*
X129157640Y-51400964D02*
X129086212Y-51543821D01*
X129086212Y-51543821D02*
X129014783Y-51615250D01*
X129014783Y-51615250D02*
X128871926Y-51686678D01*
X128871926Y-51686678D02*
X128300497Y-51686678D01*
X128300497Y-51686678D02*
X128300497Y-50186678D01*
X128300497Y-50186678D02*
X128800497Y-50186678D01*
X128800497Y-50186678D02*
X128943355Y-50258107D01*
X128943355Y-50258107D02*
X129014783Y-50329535D01*
X129014783Y-50329535D02*
X129086212Y-50472392D01*
X129086212Y-50472392D02*
X129086212Y-50615250D01*
X129086212Y-50615250D02*
X129014783Y-50758107D01*
X129014783Y-50758107D02*
X128943355Y-50829535D01*
X128943355Y-50829535D02*
X128800497Y-50900964D01*
X128800497Y-50900964D02*
X128300497Y-50900964D01*
X129657640Y-50186678D02*
X130586212Y-50186678D01*
X130586212Y-50186678D02*
X130086212Y-50758107D01*
X130086212Y-50758107D02*
X130300497Y-50758107D01*
X130300497Y-50758107D02*
X130443355Y-50829535D01*
X130443355Y-50829535D02*
X130514783Y-50900964D01*
X130514783Y-50900964D02*
X130586212Y-51043821D01*
X130586212Y-51043821D02*
X130586212Y-51400964D01*
X130586212Y-51400964D02*
X130514783Y-51543821D01*
X130514783Y-51543821D02*
X130443355Y-51615250D01*
X130443355Y-51615250D02*
X130300497Y-51686678D01*
X130300497Y-51686678D02*
X129871926Y-51686678D01*
X129871926Y-51686678D02*
X129729069Y-51615250D01*
X129729069Y-51615250D02*
X129657640Y-51543821D01*
X118693640Y-55255869D02*
X118217450Y-55255869D01*
X118217450Y-55255869D02*
X118169831Y-55732059D01*
X118169831Y-55732059D02*
X118217450Y-55684440D01*
X118217450Y-55684440D02*
X118312688Y-55636821D01*
X118312688Y-55636821D02*
X118550783Y-55636821D01*
X118550783Y-55636821D02*
X118646021Y-55684440D01*
X118646021Y-55684440D02*
X118693640Y-55732059D01*
X118693640Y-55732059D02*
X118741259Y-55827297D01*
X118741259Y-55827297D02*
X118741259Y-56065392D01*
X118741259Y-56065392D02*
X118693640Y-56160630D01*
X118693640Y-56160630D02*
X118646021Y-56208250D01*
X118646021Y-56208250D02*
X118550783Y-56255869D01*
X118550783Y-56255869D02*
X118312688Y-56255869D01*
X118312688Y-56255869D02*
X118217450Y-56208250D01*
X118217450Y-56208250D02*
X118169831Y-56160630D01*
X119026974Y-55255869D02*
X119360307Y-56255869D01*
X119360307Y-56255869D02*
X119693640Y-55255869D01*
X126972497Y-41462678D02*
X126972497Y-39962678D01*
X126972497Y-39962678D02*
X127329640Y-39962678D01*
X127329640Y-39962678D02*
X127543926Y-40034107D01*
X127543926Y-40034107D02*
X127686783Y-40176964D01*
X127686783Y-40176964D02*
X127758212Y-40319821D01*
X127758212Y-40319821D02*
X127829640Y-40605535D01*
X127829640Y-40605535D02*
X127829640Y-40819821D01*
X127829640Y-40819821D02*
X127758212Y-41105535D01*
X127758212Y-41105535D02*
X127686783Y-41248392D01*
X127686783Y-41248392D02*
X127543926Y-41391250D01*
X127543926Y-41391250D02*
X127329640Y-41462678D01*
X127329640Y-41462678D02*
X126972497Y-41462678D01*
X128972497Y-40676964D02*
X129186783Y-40748392D01*
X129186783Y-40748392D02*
X129258212Y-40819821D01*
X129258212Y-40819821D02*
X129329640Y-40962678D01*
X129329640Y-40962678D02*
X129329640Y-41176964D01*
X129329640Y-41176964D02*
X129258212Y-41319821D01*
X129258212Y-41319821D02*
X129186783Y-41391250D01*
X129186783Y-41391250D02*
X129043926Y-41462678D01*
X129043926Y-41462678D02*
X128472497Y-41462678D01*
X128472497Y-41462678D02*
X128472497Y-39962678D01*
X128472497Y-39962678D02*
X128972497Y-39962678D01*
X128972497Y-39962678D02*
X129115355Y-40034107D01*
X129115355Y-40034107D02*
X129186783Y-40105535D01*
X129186783Y-40105535D02*
X129258212Y-40248392D01*
X129258212Y-40248392D02*
X129258212Y-40391250D01*
X129258212Y-40391250D02*
X129186783Y-40534107D01*
X129186783Y-40534107D02*
X129115355Y-40605535D01*
X129115355Y-40605535D02*
X128972497Y-40676964D01*
X128972497Y-40676964D02*
X128472497Y-40676964D01*
X129829640Y-39962678D02*
X130829640Y-39962678D01*
X130829640Y-39962678D02*
X130186783Y-41462678D01*
X107705031Y-99708954D02*
X108181221Y-99708954D01*
X107609793Y-99994669D02*
X107943126Y-98994669D01*
X107943126Y-98994669D02*
X108276459Y-99994669D01*
X108609793Y-99994669D02*
X108609793Y-98994669D01*
X108609793Y-98994669D02*
X108847888Y-98994669D01*
X108847888Y-98994669D02*
X108990745Y-99042288D01*
X108990745Y-99042288D02*
X109085983Y-99137526D01*
X109085983Y-99137526D02*
X109133602Y-99232764D01*
X109133602Y-99232764D02*
X109181221Y-99423240D01*
X109181221Y-99423240D02*
X109181221Y-99566097D01*
X109181221Y-99566097D02*
X109133602Y-99756573D01*
X109133602Y-99756573D02*
X109085983Y-99851811D01*
X109085983Y-99851811D02*
X108990745Y-99947050D01*
X108990745Y-99947050D02*
X108847888Y-99994669D01*
X108847888Y-99994669D02*
X108609793Y-99994669D01*
X110181221Y-99899430D02*
X110133602Y-99947050D01*
X110133602Y-99947050D02*
X109990745Y-99994669D01*
X109990745Y-99994669D02*
X109895507Y-99994669D01*
X109895507Y-99994669D02*
X109752650Y-99947050D01*
X109752650Y-99947050D02*
X109657412Y-99851811D01*
X109657412Y-99851811D02*
X109609793Y-99756573D01*
X109609793Y-99756573D02*
X109562174Y-99566097D01*
X109562174Y-99566097D02*
X109562174Y-99423240D01*
X109562174Y-99423240D02*
X109609793Y-99232764D01*
X109609793Y-99232764D02*
X109657412Y-99137526D01*
X109657412Y-99137526D02*
X109752650Y-99042288D01*
X109752650Y-99042288D02*
X109895507Y-98994669D01*
X109895507Y-98994669D02*
X109990745Y-98994669D01*
X109990745Y-98994669D02*
X110133602Y-99042288D01*
X110133602Y-99042288D02*
X110181221Y-99089907D01*
X110371698Y-100089907D02*
X111133602Y-100089907D01*
X111371698Y-99994669D02*
X111371698Y-98994669D01*
X111847888Y-99994669D02*
X111847888Y-98994669D01*
X111847888Y-98994669D02*
X112419316Y-99994669D01*
X112419316Y-99994669D02*
X112419316Y-98994669D01*
X113419316Y-99994669D02*
X112847888Y-99994669D01*
X113133602Y-99994669D02*
X113133602Y-98994669D01*
X113133602Y-98994669D02*
X113038364Y-99137526D01*
X113038364Y-99137526D02*
X112943126Y-99232764D01*
X112943126Y-99232764D02*
X112847888Y-99280383D01*
X90032130Y-107406593D02*
X90032130Y-107978021D01*
X89032130Y-107692307D02*
X90032130Y-107692307D01*
X89032130Y-108882783D02*
X89508321Y-108549450D01*
X89032130Y-108311355D02*
X90032130Y-108311355D01*
X90032130Y-108311355D02*
X90032130Y-108692307D01*
X90032130Y-108692307D02*
X89984511Y-108787545D01*
X89984511Y-108787545D02*
X89936892Y-108835164D01*
X89936892Y-108835164D02*
X89841654Y-108882783D01*
X89841654Y-108882783D02*
X89698797Y-108882783D01*
X89698797Y-108882783D02*
X89603559Y-108835164D01*
X89603559Y-108835164D02*
X89555940Y-108787545D01*
X89555940Y-108787545D02*
X89508321Y-108692307D01*
X89508321Y-108692307D02*
X89508321Y-108311355D01*
X89032130Y-109311355D02*
X90032130Y-109311355D01*
X89984511Y-110311354D02*
X90032130Y-110216116D01*
X90032130Y-110216116D02*
X90032130Y-110073259D01*
X90032130Y-110073259D02*
X89984511Y-109930402D01*
X89984511Y-109930402D02*
X89889273Y-109835164D01*
X89889273Y-109835164D02*
X89794035Y-109787545D01*
X89794035Y-109787545D02*
X89603559Y-109739926D01*
X89603559Y-109739926D02*
X89460702Y-109739926D01*
X89460702Y-109739926D02*
X89270226Y-109787545D01*
X89270226Y-109787545D02*
X89174988Y-109835164D01*
X89174988Y-109835164D02*
X89079750Y-109930402D01*
X89079750Y-109930402D02*
X89032130Y-110073259D01*
X89032130Y-110073259D02*
X89032130Y-110168497D01*
X89032130Y-110168497D02*
X89079750Y-110311354D01*
X89079750Y-110311354D02*
X89127369Y-110358973D01*
X89127369Y-110358973D02*
X89460702Y-110358973D01*
X89460702Y-110358973D02*
X89460702Y-110168497D01*
X164699450Y-85450059D02*
X165032783Y-85450059D01*
X165175640Y-85973869D02*
X164699450Y-85973869D01*
X164699450Y-85973869D02*
X164699450Y-84973869D01*
X164699450Y-84973869D02*
X165175640Y-84973869D01*
X166175640Y-85878630D02*
X166128021Y-85926250D01*
X166128021Y-85926250D02*
X165985164Y-85973869D01*
X165985164Y-85973869D02*
X165889926Y-85973869D01*
X165889926Y-85973869D02*
X165747069Y-85926250D01*
X165747069Y-85926250D02*
X165651831Y-85831011D01*
X165651831Y-85831011D02*
X165604212Y-85735773D01*
X165604212Y-85735773D02*
X165556593Y-85545297D01*
X165556593Y-85545297D02*
X165556593Y-85402440D01*
X165556593Y-85402440D02*
X165604212Y-85211964D01*
X165604212Y-85211964D02*
X165651831Y-85116726D01*
X165651831Y-85116726D02*
X165747069Y-85021488D01*
X165747069Y-85021488D02*
X165889926Y-84973869D01*
X165889926Y-84973869D02*
X165985164Y-84973869D01*
X165985164Y-84973869D02*
X166128021Y-85021488D01*
X166128021Y-85021488D02*
X166175640Y-85069107D01*
X166604212Y-85973869D02*
X166604212Y-84973869D01*
X166604212Y-85450059D02*
X167175640Y-85450059D01*
X167175640Y-85973869D02*
X167175640Y-84973869D01*
X167842307Y-84973869D02*
X168032783Y-84973869D01*
X168032783Y-84973869D02*
X168128021Y-85021488D01*
X168128021Y-85021488D02*
X168223259Y-85116726D01*
X168223259Y-85116726D02*
X168270878Y-85307202D01*
X168270878Y-85307202D02*
X168270878Y-85640535D01*
X168270878Y-85640535D02*
X168223259Y-85831011D01*
X168223259Y-85831011D02*
X168128021Y-85926250D01*
X168128021Y-85926250D02*
X168032783Y-85973869D01*
X168032783Y-85973869D02*
X167842307Y-85973869D01*
X167842307Y-85973869D02*
X167747069Y-85926250D01*
X167747069Y-85926250D02*
X167651831Y-85831011D01*
X167651831Y-85831011D02*
X167604212Y-85640535D01*
X167604212Y-85640535D02*
X167604212Y-85307202D01*
X167604212Y-85307202D02*
X167651831Y-85116726D01*
X167651831Y-85116726D02*
X167747069Y-85021488D01*
X167747069Y-85021488D02*
X167842307Y-84973869D01*
X165327640Y-73427869D02*
X164851450Y-73427869D01*
X164851450Y-73427869D02*
X164851450Y-72427869D01*
X165660974Y-72904059D02*
X165994307Y-72904059D01*
X166137164Y-73427869D02*
X165660974Y-73427869D01*
X165660974Y-73427869D02*
X165660974Y-72427869D01*
X165660974Y-72427869D02*
X166137164Y-72427869D01*
X166565736Y-73427869D02*
X166565736Y-72427869D01*
X166565736Y-72427869D02*
X166803831Y-72427869D01*
X166803831Y-72427869D02*
X166946688Y-72475488D01*
X166946688Y-72475488D02*
X167041926Y-72570726D01*
X167041926Y-72570726D02*
X167089545Y-72665964D01*
X167089545Y-72665964D02*
X167137164Y-72856440D01*
X167137164Y-72856440D02*
X167137164Y-72999297D01*
X167137164Y-72999297D02*
X167089545Y-73189773D01*
X167089545Y-73189773D02*
X167041926Y-73285011D01*
X167041926Y-73285011D02*
X166946688Y-73380250D01*
X166946688Y-73380250D02*
X166803831Y-73427869D01*
X166803831Y-73427869D02*
X166565736Y-73427869D01*
X167565736Y-73046916D02*
X168327641Y-73046916D01*
X167946688Y-73427869D02*
X167946688Y-72665964D01*
X117614212Y-44026678D02*
X118114212Y-45526678D01*
X118114212Y-45526678D02*
X118614212Y-44026678D01*
X119399926Y-44026678D02*
X119542783Y-44026678D01*
X119542783Y-44026678D02*
X119685640Y-44098107D01*
X119685640Y-44098107D02*
X119757069Y-44169535D01*
X119757069Y-44169535D02*
X119828497Y-44312392D01*
X119828497Y-44312392D02*
X119899926Y-44598107D01*
X119899926Y-44598107D02*
X119899926Y-44955250D01*
X119899926Y-44955250D02*
X119828497Y-45240964D01*
X119828497Y-45240964D02*
X119757069Y-45383821D01*
X119757069Y-45383821D02*
X119685640Y-45455250D01*
X119685640Y-45455250D02*
X119542783Y-45526678D01*
X119542783Y-45526678D02*
X119399926Y-45526678D01*
X119399926Y-45526678D02*
X119257069Y-45455250D01*
X119257069Y-45455250D02*
X119185640Y-45383821D01*
X119185640Y-45383821D02*
X119114211Y-45240964D01*
X119114211Y-45240964D02*
X119042783Y-44955250D01*
X119042783Y-44955250D02*
X119042783Y-44598107D01*
X119042783Y-44598107D02*
X119114211Y-44312392D01*
X119114211Y-44312392D02*
X119185640Y-44169535D01*
X119185640Y-44169535D02*
X119257069Y-44098107D01*
X119257069Y-44098107D02*
X119399926Y-44026678D01*
D12*
X148892419Y-70086457D02*
X148416228Y-70419790D01*
X148892419Y-70657885D02*
X147892419Y-70657885D01*
X147892419Y-70657885D02*
X147892419Y-70276933D01*
X147892419Y-70276933D02*
X147940038Y-70181695D01*
X147940038Y-70181695D02*
X147987657Y-70134076D01*
X147987657Y-70134076D02*
X148082895Y-70086457D01*
X148082895Y-70086457D02*
X148225752Y-70086457D01*
X148225752Y-70086457D02*
X148320990Y-70134076D01*
X148320990Y-70134076D02*
X148368609Y-70181695D01*
X148368609Y-70181695D02*
X148416228Y-70276933D01*
X148416228Y-70276933D02*
X148416228Y-70657885D01*
X148892419Y-69134076D02*
X148892419Y-69705504D01*
X148892419Y-69419790D02*
X147892419Y-69419790D01*
X147892419Y-69419790D02*
X148035276Y-69515028D01*
X148035276Y-69515028D02*
X148130514Y-69610266D01*
X148130514Y-69610266D02*
X148178133Y-69705504D01*
X147987657Y-68753123D02*
X147940038Y-68705504D01*
X147940038Y-68705504D02*
X147892419Y-68610266D01*
X147892419Y-68610266D02*
X147892419Y-68372171D01*
X147892419Y-68372171D02*
X147940038Y-68276933D01*
X147940038Y-68276933D02*
X147987657Y-68229314D01*
X147987657Y-68229314D02*
X148082895Y-68181695D01*
X148082895Y-68181695D02*
X148178133Y-68181695D01*
X148178133Y-68181695D02*
X148320990Y-68229314D01*
X148320990Y-68229314D02*
X148892419Y-68800742D01*
X148892419Y-68800742D02*
X148892419Y-68181695D01*
X151668219Y-101139523D02*
X152382504Y-101139523D01*
X152382504Y-101139523D02*
X152525361Y-101187142D01*
X152525361Y-101187142D02*
X152620600Y-101282380D01*
X152620600Y-101282380D02*
X152668219Y-101425237D01*
X152668219Y-101425237D02*
X152668219Y-101520475D01*
X152668219Y-100139523D02*
X152668219Y-100710951D01*
X152668219Y-100425237D02*
X151668219Y-100425237D01*
X151668219Y-100425237D02*
X151811076Y-100520475D01*
X151811076Y-100520475D02*
X151906314Y-100615713D01*
X151906314Y-100615713D02*
X151953933Y-100710951D01*
X152096790Y-99568094D02*
X152049171Y-99663332D01*
X152049171Y-99663332D02*
X152001552Y-99710951D01*
X152001552Y-99710951D02*
X151906314Y-99758570D01*
X151906314Y-99758570D02*
X151858695Y-99758570D01*
X151858695Y-99758570D02*
X151763457Y-99710951D01*
X151763457Y-99710951D02*
X151715838Y-99663332D01*
X151715838Y-99663332D02*
X151668219Y-99568094D01*
X151668219Y-99568094D02*
X151668219Y-99377618D01*
X151668219Y-99377618D02*
X151715838Y-99282380D01*
X151715838Y-99282380D02*
X151763457Y-99234761D01*
X151763457Y-99234761D02*
X151858695Y-99187142D01*
X151858695Y-99187142D02*
X151906314Y-99187142D01*
X151906314Y-99187142D02*
X152001552Y-99234761D01*
X152001552Y-99234761D02*
X152049171Y-99282380D01*
X152049171Y-99282380D02*
X152096790Y-99377618D01*
X152096790Y-99377618D02*
X152096790Y-99568094D01*
X152096790Y-99568094D02*
X152144409Y-99663332D01*
X152144409Y-99663332D02*
X152192028Y-99710951D01*
X152192028Y-99710951D02*
X152287266Y-99758570D01*
X152287266Y-99758570D02*
X152477742Y-99758570D01*
X152477742Y-99758570D02*
X152572980Y-99710951D01*
X152572980Y-99710951D02*
X152620600Y-99663332D01*
X152620600Y-99663332D02*
X152668219Y-99568094D01*
X152668219Y-99568094D02*
X152668219Y-99377618D01*
X152668219Y-99377618D02*
X152620600Y-99282380D01*
X152620600Y-99282380D02*
X152572980Y-99234761D01*
X152572980Y-99234761D02*
X152477742Y-99187142D01*
X152477742Y-99187142D02*
X152287266Y-99187142D01*
X152287266Y-99187142D02*
X152192028Y-99234761D01*
X152192028Y-99234761D02*
X152144409Y-99282380D01*
X152144409Y-99282380D02*
X152096790Y-99377618D01*
X153453067Y-68460400D02*
X153595924Y-68508019D01*
X153595924Y-68508019D02*
X153834019Y-68508019D01*
X153834019Y-68508019D02*
X153929257Y-68460400D01*
X153929257Y-68460400D02*
X153976876Y-68412780D01*
X153976876Y-68412780D02*
X154024495Y-68317542D01*
X154024495Y-68317542D02*
X154024495Y-68222304D01*
X154024495Y-68222304D02*
X153976876Y-68127066D01*
X153976876Y-68127066D02*
X153929257Y-68079447D01*
X153929257Y-68079447D02*
X153834019Y-68031828D01*
X153834019Y-68031828D02*
X153643543Y-67984209D01*
X153643543Y-67984209D02*
X153548305Y-67936590D01*
X153548305Y-67936590D02*
X153500686Y-67888971D01*
X153500686Y-67888971D02*
X153453067Y-67793733D01*
X153453067Y-67793733D02*
X153453067Y-67698495D01*
X153453067Y-67698495D02*
X153500686Y-67603257D01*
X153500686Y-67603257D02*
X153548305Y-67555638D01*
X153548305Y-67555638D02*
X153643543Y-67508019D01*
X153643543Y-67508019D02*
X153881638Y-67508019D01*
X153881638Y-67508019D02*
X154024495Y-67555638D01*
X154357829Y-67508019D02*
X154595924Y-68508019D01*
X154595924Y-68508019D02*
X154786400Y-67793733D01*
X154786400Y-67793733D02*
X154976876Y-68508019D01*
X154976876Y-68508019D02*
X155214972Y-67508019D01*
X156119733Y-68508019D02*
X155548305Y-68508019D01*
X155834019Y-68508019D02*
X155834019Y-67508019D01*
X155834019Y-67508019D02*
X155738781Y-67650876D01*
X155738781Y-67650876D02*
X155643543Y-67746114D01*
X155643543Y-67746114D02*
X155548305Y-67793733D01*
X165011905Y-75554819D02*
X165011905Y-74554819D01*
X165011905Y-74554819D02*
X165250000Y-74554819D01*
X165250000Y-74554819D02*
X165392857Y-74602438D01*
X165392857Y-74602438D02*
X165488095Y-74697676D01*
X165488095Y-74697676D02*
X165535714Y-74792914D01*
X165535714Y-74792914D02*
X165583333Y-74983390D01*
X165583333Y-74983390D02*
X165583333Y-75126247D01*
X165583333Y-75126247D02*
X165535714Y-75316723D01*
X165535714Y-75316723D02*
X165488095Y-75411961D01*
X165488095Y-75411961D02*
X165392857Y-75507200D01*
X165392857Y-75507200D02*
X165250000Y-75554819D01*
X165250000Y-75554819D02*
X165011905Y-75554819D01*
X166059524Y-75554819D02*
X166250000Y-75554819D01*
X166250000Y-75554819D02*
X166345238Y-75507200D01*
X166345238Y-75507200D02*
X166392857Y-75459580D01*
X166392857Y-75459580D02*
X166488095Y-75316723D01*
X166488095Y-75316723D02*
X166535714Y-75126247D01*
X166535714Y-75126247D02*
X166535714Y-74745295D01*
X166535714Y-74745295D02*
X166488095Y-74650057D01*
X166488095Y-74650057D02*
X166440476Y-74602438D01*
X166440476Y-74602438D02*
X166345238Y-74554819D01*
X166345238Y-74554819D02*
X166154762Y-74554819D01*
X166154762Y-74554819D02*
X166059524Y-74602438D01*
X166059524Y-74602438D02*
X166011905Y-74650057D01*
X166011905Y-74650057D02*
X165964286Y-74745295D01*
X165964286Y-74745295D02*
X165964286Y-74983390D01*
X165964286Y-74983390D02*
X166011905Y-75078628D01*
X166011905Y-75078628D02*
X166059524Y-75126247D01*
X166059524Y-75126247D02*
X166154762Y-75173866D01*
X166154762Y-75173866D02*
X166345238Y-75173866D01*
X166345238Y-75173866D02*
X166440476Y-75126247D01*
X166440476Y-75126247D02*
X166488095Y-75078628D01*
X166488095Y-75078628D02*
X166535714Y-74983390D01*
X144227705Y-70828819D02*
X144227705Y-71638342D01*
X144227705Y-71638342D02*
X144275324Y-71733580D01*
X144275324Y-71733580D02*
X144322943Y-71781200D01*
X144322943Y-71781200D02*
X144418181Y-71828819D01*
X144418181Y-71828819D02*
X144608657Y-71828819D01*
X144608657Y-71828819D02*
X144703895Y-71781200D01*
X144703895Y-71781200D02*
X144751514Y-71733580D01*
X144751514Y-71733580D02*
X144799133Y-71638342D01*
X144799133Y-71638342D02*
X144799133Y-70828819D01*
X145799133Y-71828819D02*
X145227705Y-71828819D01*
X145513419Y-71828819D02*
X145513419Y-70828819D01*
X145513419Y-70828819D02*
X145418181Y-70971676D01*
X145418181Y-70971676D02*
X145322943Y-71066914D01*
X145322943Y-71066914D02*
X145227705Y-71114533D01*
X146751514Y-71828819D02*
X146180086Y-71828819D01*
X146465800Y-71828819D02*
X146465800Y-70828819D01*
X146465800Y-70828819D02*
X146370562Y-70971676D01*
X146370562Y-70971676D02*
X146275324Y-71066914D01*
X146275324Y-71066914D02*
X146180086Y-71114533D01*
X80754819Y-46561333D02*
X81469104Y-46561333D01*
X81469104Y-46561333D02*
X81611961Y-46608952D01*
X81611961Y-46608952D02*
X81707200Y-46704190D01*
X81707200Y-46704190D02*
X81754819Y-46847047D01*
X81754819Y-46847047D02*
X81754819Y-46942285D01*
X81088152Y-45656571D02*
X81754819Y-45656571D01*
X80707200Y-45894666D02*
X81421485Y-46132761D01*
X81421485Y-46132761D02*
X81421485Y-45513714D01*
X140566666Y-100621009D02*
X140233333Y-100621009D01*
X140233333Y-101144819D02*
X140233333Y-100144819D01*
X140233333Y-100144819D02*
X140709523Y-100144819D01*
X141423809Y-100621009D02*
X141566666Y-100668628D01*
X141566666Y-100668628D02*
X141614285Y-100716247D01*
X141614285Y-100716247D02*
X141661904Y-100811485D01*
X141661904Y-100811485D02*
X141661904Y-100954342D01*
X141661904Y-100954342D02*
X141614285Y-101049580D01*
X141614285Y-101049580D02*
X141566666Y-101097200D01*
X141566666Y-101097200D02*
X141471428Y-101144819D01*
X141471428Y-101144819D02*
X141090476Y-101144819D01*
X141090476Y-101144819D02*
X141090476Y-100144819D01*
X141090476Y-100144819D02*
X141423809Y-100144819D01*
X141423809Y-100144819D02*
X141519047Y-100192438D01*
X141519047Y-100192438D02*
X141566666Y-100240057D01*
X141566666Y-100240057D02*
X141614285Y-100335295D01*
X141614285Y-100335295D02*
X141614285Y-100430533D01*
X141614285Y-100430533D02*
X141566666Y-100525771D01*
X141566666Y-100525771D02*
X141519047Y-100573390D01*
X141519047Y-100573390D02*
X141423809Y-100621009D01*
X141423809Y-100621009D02*
X141090476Y-100621009D01*
X142614285Y-101144819D02*
X142042857Y-101144819D01*
X142328571Y-101144819D02*
X142328571Y-100144819D01*
X142328571Y-100144819D02*
X142233333Y-100287676D01*
X142233333Y-100287676D02*
X142138095Y-100382914D01*
X142138095Y-100382914D02*
X142042857Y-100430533D01*
X107753619Y-105787723D02*
X108467904Y-105787723D01*
X108467904Y-105787723D02*
X108610761Y-105835342D01*
X108610761Y-105835342D02*
X108706000Y-105930580D01*
X108706000Y-105930580D02*
X108753619Y-106073437D01*
X108753619Y-106073437D02*
X108753619Y-106168675D01*
X107848857Y-105359151D02*
X107801238Y-105311532D01*
X107801238Y-105311532D02*
X107753619Y-105216294D01*
X107753619Y-105216294D02*
X107753619Y-104978199D01*
X107753619Y-104978199D02*
X107801238Y-104882961D01*
X107801238Y-104882961D02*
X107848857Y-104835342D01*
X107848857Y-104835342D02*
X107944095Y-104787723D01*
X107944095Y-104787723D02*
X108039333Y-104787723D01*
X108039333Y-104787723D02*
X108182190Y-104835342D01*
X108182190Y-104835342D02*
X108753619Y-105406770D01*
X108753619Y-105406770D02*
X108753619Y-104787723D01*
X107753619Y-104454389D02*
X107753619Y-103787723D01*
X107753619Y-103787723D02*
X108753619Y-104216294D01*
X150774304Y-48754380D02*
X150774304Y-47944857D01*
X150774304Y-47944857D02*
X150726685Y-47849619D01*
X150726685Y-47849619D02*
X150679066Y-47802000D01*
X150679066Y-47802000D02*
X150583828Y-47754380D01*
X150583828Y-47754380D02*
X150393352Y-47754380D01*
X150393352Y-47754380D02*
X150298114Y-47802000D01*
X150298114Y-47802000D02*
X150250495Y-47849619D01*
X150250495Y-47849619D02*
X150202876Y-47944857D01*
X150202876Y-47944857D02*
X150202876Y-48754380D01*
X149298114Y-48754380D02*
X149488590Y-48754380D01*
X149488590Y-48754380D02*
X149583828Y-48706761D01*
X149583828Y-48706761D02*
X149631447Y-48659142D01*
X149631447Y-48659142D02*
X149726685Y-48516285D01*
X149726685Y-48516285D02*
X149774304Y-48325809D01*
X149774304Y-48325809D02*
X149774304Y-47944857D01*
X149774304Y-47944857D02*
X149726685Y-47849619D01*
X149726685Y-47849619D02*
X149679066Y-47802000D01*
X149679066Y-47802000D02*
X149583828Y-47754380D01*
X149583828Y-47754380D02*
X149393352Y-47754380D01*
X149393352Y-47754380D02*
X149298114Y-47802000D01*
X149298114Y-47802000D02*
X149250495Y-47849619D01*
X149250495Y-47849619D02*
X149202876Y-47944857D01*
X149202876Y-47944857D02*
X149202876Y-48182952D01*
X149202876Y-48182952D02*
X149250495Y-48278190D01*
X149250495Y-48278190D02*
X149298114Y-48325809D01*
X149298114Y-48325809D02*
X149393352Y-48373428D01*
X149393352Y-48373428D02*
X149583828Y-48373428D01*
X149583828Y-48373428D02*
X149679066Y-48325809D01*
X149679066Y-48325809D02*
X149726685Y-48278190D01*
X149726685Y-48278190D02*
X149774304Y-48182952D01*
X135141905Y-96654819D02*
X135141905Y-95654819D01*
X135141905Y-95654819D02*
X135380000Y-95654819D01*
X135380000Y-95654819D02*
X135522857Y-95702438D01*
X135522857Y-95702438D02*
X135618095Y-95797676D01*
X135618095Y-95797676D02*
X135665714Y-95892914D01*
X135665714Y-95892914D02*
X135713333Y-96083390D01*
X135713333Y-96083390D02*
X135713333Y-96226247D01*
X135713333Y-96226247D02*
X135665714Y-96416723D01*
X135665714Y-96416723D02*
X135618095Y-96511961D01*
X135618095Y-96511961D02*
X135522857Y-96607200D01*
X135522857Y-96607200D02*
X135380000Y-96654819D01*
X135380000Y-96654819D02*
X135141905Y-96654819D01*
X136570476Y-95654819D02*
X136380000Y-95654819D01*
X136380000Y-95654819D02*
X136284762Y-95702438D01*
X136284762Y-95702438D02*
X136237143Y-95750057D01*
X136237143Y-95750057D02*
X136141905Y-95892914D01*
X136141905Y-95892914D02*
X136094286Y-96083390D01*
X136094286Y-96083390D02*
X136094286Y-96464342D01*
X136094286Y-96464342D02*
X136141905Y-96559580D01*
X136141905Y-96559580D02*
X136189524Y-96607200D01*
X136189524Y-96607200D02*
X136284762Y-96654819D01*
X136284762Y-96654819D02*
X136475238Y-96654819D01*
X136475238Y-96654819D02*
X136570476Y-96607200D01*
X136570476Y-96607200D02*
X136618095Y-96559580D01*
X136618095Y-96559580D02*
X136665714Y-96464342D01*
X136665714Y-96464342D02*
X136665714Y-96226247D01*
X136665714Y-96226247D02*
X136618095Y-96131009D01*
X136618095Y-96131009D02*
X136570476Y-96083390D01*
X136570476Y-96083390D02*
X136475238Y-96035771D01*
X136475238Y-96035771D02*
X136284762Y-96035771D01*
X136284762Y-96035771D02*
X136189524Y-96083390D01*
X136189524Y-96083390D02*
X136141905Y-96131009D01*
X136141905Y-96131009D02*
X136094286Y-96226247D01*
X71908095Y-23994819D02*
X71908095Y-22994819D01*
X71908095Y-23471009D02*
X72479523Y-23471009D01*
X72479523Y-23994819D02*
X72479523Y-22994819D01*
X73479523Y-23994819D02*
X72908095Y-23994819D01*
X73193809Y-23994819D02*
X73193809Y-22994819D01*
X73193809Y-22994819D02*
X73098571Y-23137676D01*
X73098571Y-23137676D02*
X73003333Y-23232914D01*
X73003333Y-23232914D02*
X72908095Y-23280533D01*
X115363419Y-50949794D02*
X114363419Y-50949794D01*
X114363419Y-50949794D02*
X114363419Y-50711699D01*
X114363419Y-50711699D02*
X114411038Y-50568842D01*
X114411038Y-50568842D02*
X114506276Y-50473604D01*
X114506276Y-50473604D02*
X114601514Y-50425985D01*
X114601514Y-50425985D02*
X114791990Y-50378366D01*
X114791990Y-50378366D02*
X114934847Y-50378366D01*
X114934847Y-50378366D02*
X115125323Y-50425985D01*
X115125323Y-50425985D02*
X115220561Y-50473604D01*
X115220561Y-50473604D02*
X115315800Y-50568842D01*
X115315800Y-50568842D02*
X115363419Y-50711699D01*
X115363419Y-50711699D02*
X115363419Y-50949794D01*
X114363419Y-50045032D02*
X114363419Y-49378366D01*
X114363419Y-49378366D02*
X115363419Y-49806937D01*
X161617066Y-97365019D02*
X161617066Y-98079304D01*
X161617066Y-98079304D02*
X161569447Y-98222161D01*
X161569447Y-98222161D02*
X161474209Y-98317400D01*
X161474209Y-98317400D02*
X161331352Y-98365019D01*
X161331352Y-98365019D02*
X161236114Y-98365019D01*
X162045638Y-97460257D02*
X162093257Y-97412638D01*
X162093257Y-97412638D02*
X162188495Y-97365019D01*
X162188495Y-97365019D02*
X162426590Y-97365019D01*
X162426590Y-97365019D02*
X162521828Y-97412638D01*
X162521828Y-97412638D02*
X162569447Y-97460257D01*
X162569447Y-97460257D02*
X162617066Y-97555495D01*
X162617066Y-97555495D02*
X162617066Y-97650733D01*
X162617066Y-97650733D02*
X162569447Y-97793590D01*
X162569447Y-97793590D02*
X161998019Y-98365019D01*
X161998019Y-98365019D02*
X162617066Y-98365019D01*
X81783019Y-81860923D02*
X82497304Y-81860923D01*
X82497304Y-81860923D02*
X82640161Y-81908542D01*
X82640161Y-81908542D02*
X82735400Y-82003780D01*
X82735400Y-82003780D02*
X82783019Y-82146637D01*
X82783019Y-82146637D02*
X82783019Y-82241875D01*
X81878257Y-81432351D02*
X81830638Y-81384732D01*
X81830638Y-81384732D02*
X81783019Y-81289494D01*
X81783019Y-81289494D02*
X81783019Y-81051399D01*
X81783019Y-81051399D02*
X81830638Y-80956161D01*
X81830638Y-80956161D02*
X81878257Y-80908542D01*
X81878257Y-80908542D02*
X81973495Y-80860923D01*
X81973495Y-80860923D02*
X82068733Y-80860923D01*
X82068733Y-80860923D02*
X82211590Y-80908542D01*
X82211590Y-80908542D02*
X82783019Y-81479970D01*
X82783019Y-81479970D02*
X82783019Y-80860923D01*
X81783019Y-80241875D02*
X81783019Y-80146637D01*
X81783019Y-80146637D02*
X81830638Y-80051399D01*
X81830638Y-80051399D02*
X81878257Y-80003780D01*
X81878257Y-80003780D02*
X81973495Y-79956161D01*
X81973495Y-79956161D02*
X82163971Y-79908542D01*
X82163971Y-79908542D02*
X82402066Y-79908542D01*
X82402066Y-79908542D02*
X82592542Y-79956161D01*
X82592542Y-79956161D02*
X82687780Y-80003780D01*
X82687780Y-80003780D02*
X82735400Y-80051399D01*
X82735400Y-80051399D02*
X82783019Y-80146637D01*
X82783019Y-80146637D02*
X82783019Y-80241875D01*
X82783019Y-80241875D02*
X82735400Y-80337113D01*
X82735400Y-80337113D02*
X82687780Y-80384732D01*
X82687780Y-80384732D02*
X82592542Y-80432351D01*
X82592542Y-80432351D02*
X82402066Y-80479970D01*
X82402066Y-80479970D02*
X82163971Y-80479970D01*
X82163971Y-80479970D02*
X81973495Y-80432351D01*
X81973495Y-80432351D02*
X81878257Y-80384732D01*
X81878257Y-80384732D02*
X81830638Y-80337113D01*
X81830638Y-80337113D02*
X81783019Y-80241875D01*
X95212305Y-79459419D02*
X95212305Y-78459419D01*
X95212305Y-78459419D02*
X95450400Y-78459419D01*
X95450400Y-78459419D02*
X95593257Y-78507038D01*
X95593257Y-78507038D02*
X95688495Y-78602276D01*
X95688495Y-78602276D02*
X95736114Y-78697514D01*
X95736114Y-78697514D02*
X95783733Y-78887990D01*
X95783733Y-78887990D02*
X95783733Y-79030847D01*
X95783733Y-79030847D02*
X95736114Y-79221323D01*
X95736114Y-79221323D02*
X95688495Y-79316561D01*
X95688495Y-79316561D02*
X95593257Y-79411800D01*
X95593257Y-79411800D02*
X95450400Y-79459419D01*
X95450400Y-79459419D02*
X95212305Y-79459419D01*
X96355162Y-78887990D02*
X96259924Y-78840371D01*
X96259924Y-78840371D02*
X96212305Y-78792752D01*
X96212305Y-78792752D02*
X96164686Y-78697514D01*
X96164686Y-78697514D02*
X96164686Y-78649895D01*
X96164686Y-78649895D02*
X96212305Y-78554657D01*
X96212305Y-78554657D02*
X96259924Y-78507038D01*
X96259924Y-78507038D02*
X96355162Y-78459419D01*
X96355162Y-78459419D02*
X96545638Y-78459419D01*
X96545638Y-78459419D02*
X96640876Y-78507038D01*
X96640876Y-78507038D02*
X96688495Y-78554657D01*
X96688495Y-78554657D02*
X96736114Y-78649895D01*
X96736114Y-78649895D02*
X96736114Y-78697514D01*
X96736114Y-78697514D02*
X96688495Y-78792752D01*
X96688495Y-78792752D02*
X96640876Y-78840371D01*
X96640876Y-78840371D02*
X96545638Y-78887990D01*
X96545638Y-78887990D02*
X96355162Y-78887990D01*
X96355162Y-78887990D02*
X96259924Y-78935609D01*
X96259924Y-78935609D02*
X96212305Y-78983228D01*
X96212305Y-78983228D02*
X96164686Y-79078466D01*
X96164686Y-79078466D02*
X96164686Y-79268942D01*
X96164686Y-79268942D02*
X96212305Y-79364180D01*
X96212305Y-79364180D02*
X96259924Y-79411800D01*
X96259924Y-79411800D02*
X96355162Y-79459419D01*
X96355162Y-79459419D02*
X96545638Y-79459419D01*
X96545638Y-79459419D02*
X96640876Y-79411800D01*
X96640876Y-79411800D02*
X96688495Y-79364180D01*
X96688495Y-79364180D02*
X96736114Y-79268942D01*
X96736114Y-79268942D02*
X96736114Y-79078466D01*
X96736114Y-79078466D02*
X96688495Y-78983228D01*
X96688495Y-78983228D02*
X96640876Y-78935609D01*
X96640876Y-78935609D02*
X96545638Y-78887990D01*
X161140876Y-77744419D02*
X161140876Y-78458704D01*
X161140876Y-78458704D02*
X161093257Y-78601561D01*
X161093257Y-78601561D02*
X160998019Y-78696800D01*
X160998019Y-78696800D02*
X160855162Y-78744419D01*
X160855162Y-78744419D02*
X160759924Y-78744419D01*
X161521829Y-77744419D02*
X162140876Y-77744419D01*
X162140876Y-77744419D02*
X161807543Y-78125371D01*
X161807543Y-78125371D02*
X161950400Y-78125371D01*
X161950400Y-78125371D02*
X162045638Y-78172990D01*
X162045638Y-78172990D02*
X162093257Y-78220609D01*
X162093257Y-78220609D02*
X162140876Y-78315847D01*
X162140876Y-78315847D02*
X162140876Y-78553942D01*
X162140876Y-78553942D02*
X162093257Y-78649180D01*
X162093257Y-78649180D02*
X162045638Y-78696800D01*
X162045638Y-78696800D02*
X161950400Y-78744419D01*
X161950400Y-78744419D02*
X161664686Y-78744419D01*
X161664686Y-78744419D02*
X161569448Y-78696800D01*
X161569448Y-78696800D02*
X161521829Y-78649180D01*
X162998019Y-77744419D02*
X162807543Y-77744419D01*
X162807543Y-77744419D02*
X162712305Y-77792038D01*
X162712305Y-77792038D02*
X162664686Y-77839657D01*
X162664686Y-77839657D02*
X162569448Y-77982514D01*
X162569448Y-77982514D02*
X162521829Y-78172990D01*
X162521829Y-78172990D02*
X162521829Y-78553942D01*
X162521829Y-78553942D02*
X162569448Y-78649180D01*
X162569448Y-78649180D02*
X162617067Y-78696800D01*
X162617067Y-78696800D02*
X162712305Y-78744419D01*
X162712305Y-78744419D02*
X162902781Y-78744419D01*
X162902781Y-78744419D02*
X162998019Y-78696800D01*
X162998019Y-78696800D02*
X163045638Y-78649180D01*
X163045638Y-78649180D02*
X163093257Y-78553942D01*
X163093257Y-78553942D02*
X163093257Y-78315847D01*
X163093257Y-78315847D02*
X163045638Y-78220609D01*
X163045638Y-78220609D02*
X162998019Y-78172990D01*
X162998019Y-78172990D02*
X162902781Y-78125371D01*
X162902781Y-78125371D02*
X162712305Y-78125371D01*
X162712305Y-78125371D02*
X162617067Y-78172990D01*
X162617067Y-78172990D02*
X162569448Y-78220609D01*
X162569448Y-78220609D02*
X162521829Y-78315847D01*
X142567819Y-96254866D02*
X142091628Y-96588199D01*
X142567819Y-96826294D02*
X141567819Y-96826294D01*
X141567819Y-96826294D02*
X141567819Y-96445342D01*
X141567819Y-96445342D02*
X141615438Y-96350104D01*
X141615438Y-96350104D02*
X141663057Y-96302485D01*
X141663057Y-96302485D02*
X141758295Y-96254866D01*
X141758295Y-96254866D02*
X141901152Y-96254866D01*
X141901152Y-96254866D02*
X141996390Y-96302485D01*
X141996390Y-96302485D02*
X142044009Y-96350104D01*
X142044009Y-96350104D02*
X142091628Y-96445342D01*
X142091628Y-96445342D02*
X142091628Y-96826294D01*
X141996390Y-95683437D02*
X141948771Y-95778675D01*
X141948771Y-95778675D02*
X141901152Y-95826294D01*
X141901152Y-95826294D02*
X141805914Y-95873913D01*
X141805914Y-95873913D02*
X141758295Y-95873913D01*
X141758295Y-95873913D02*
X141663057Y-95826294D01*
X141663057Y-95826294D02*
X141615438Y-95778675D01*
X141615438Y-95778675D02*
X141567819Y-95683437D01*
X141567819Y-95683437D02*
X141567819Y-95492961D01*
X141567819Y-95492961D02*
X141615438Y-95397723D01*
X141615438Y-95397723D02*
X141663057Y-95350104D01*
X141663057Y-95350104D02*
X141758295Y-95302485D01*
X141758295Y-95302485D02*
X141805914Y-95302485D01*
X141805914Y-95302485D02*
X141901152Y-95350104D01*
X141901152Y-95350104D02*
X141948771Y-95397723D01*
X141948771Y-95397723D02*
X141996390Y-95492961D01*
X141996390Y-95492961D02*
X141996390Y-95683437D01*
X141996390Y-95683437D02*
X142044009Y-95778675D01*
X142044009Y-95778675D02*
X142091628Y-95826294D01*
X142091628Y-95826294D02*
X142186866Y-95873913D01*
X142186866Y-95873913D02*
X142377342Y-95873913D01*
X142377342Y-95873913D02*
X142472580Y-95826294D01*
X142472580Y-95826294D02*
X142520200Y-95778675D01*
X142520200Y-95778675D02*
X142567819Y-95683437D01*
X142567819Y-95683437D02*
X142567819Y-95492961D01*
X142567819Y-95492961D02*
X142520200Y-95397723D01*
X142520200Y-95397723D02*
X142472580Y-95350104D01*
X142472580Y-95350104D02*
X142377342Y-95302485D01*
X142377342Y-95302485D02*
X142186866Y-95302485D01*
X142186866Y-95302485D02*
X142091628Y-95350104D01*
X142091628Y-95350104D02*
X142044009Y-95397723D01*
X142044009Y-95397723D02*
X141996390Y-95492961D01*
X155424142Y-98218419D02*
X155090809Y-97742228D01*
X154852714Y-98218419D02*
X154852714Y-97218419D01*
X154852714Y-97218419D02*
X155233666Y-97218419D01*
X155233666Y-97218419D02*
X155328904Y-97266038D01*
X155328904Y-97266038D02*
X155376523Y-97313657D01*
X155376523Y-97313657D02*
X155424142Y-97408895D01*
X155424142Y-97408895D02*
X155424142Y-97551752D01*
X155424142Y-97551752D02*
X155376523Y-97646990D01*
X155376523Y-97646990D02*
X155328904Y-97694609D01*
X155328904Y-97694609D02*
X155233666Y-97742228D01*
X155233666Y-97742228D02*
X154852714Y-97742228D01*
X156376523Y-98218419D02*
X155805095Y-98218419D01*
X156090809Y-98218419D02*
X156090809Y-97218419D01*
X156090809Y-97218419D02*
X155995571Y-97361276D01*
X155995571Y-97361276D02*
X155900333Y-97456514D01*
X155900333Y-97456514D02*
X155805095Y-97504133D01*
X157281285Y-97218419D02*
X156805095Y-97218419D01*
X156805095Y-97218419D02*
X156757476Y-97694609D01*
X156757476Y-97694609D02*
X156805095Y-97646990D01*
X156805095Y-97646990D02*
X156900333Y-97599371D01*
X156900333Y-97599371D02*
X157138428Y-97599371D01*
X157138428Y-97599371D02*
X157233666Y-97646990D01*
X157233666Y-97646990D02*
X157281285Y-97694609D01*
X157281285Y-97694609D02*
X157328904Y-97789847D01*
X157328904Y-97789847D02*
X157328904Y-98027942D01*
X157328904Y-98027942D02*
X157281285Y-98123180D01*
X157281285Y-98123180D02*
X157233666Y-98170800D01*
X157233666Y-98170800D02*
X157138428Y-98218419D01*
X157138428Y-98218419D02*
X156900333Y-98218419D01*
X156900333Y-98218419D02*
X156805095Y-98170800D01*
X156805095Y-98170800D02*
X156757476Y-98123180D01*
X161778095Y-23994819D02*
X161778095Y-22994819D01*
X161778095Y-23471009D02*
X162349523Y-23471009D01*
X162349523Y-23994819D02*
X162349523Y-22994819D01*
X162778095Y-23090057D02*
X162825714Y-23042438D01*
X162825714Y-23042438D02*
X162920952Y-22994819D01*
X162920952Y-22994819D02*
X163159047Y-22994819D01*
X163159047Y-22994819D02*
X163254285Y-23042438D01*
X163254285Y-23042438D02*
X163301904Y-23090057D01*
X163301904Y-23090057D02*
X163349523Y-23185295D01*
X163349523Y-23185295D02*
X163349523Y-23280533D01*
X163349523Y-23280533D02*
X163301904Y-23423390D01*
X163301904Y-23423390D02*
X162730476Y-23994819D01*
X162730476Y-23994819D02*
X163349523Y-23994819D01*
X150901495Y-77494419D02*
X150901495Y-78303942D01*
X150901495Y-78303942D02*
X150949114Y-78399180D01*
X150949114Y-78399180D02*
X150996733Y-78446800D01*
X150996733Y-78446800D02*
X151091971Y-78494419D01*
X151091971Y-78494419D02*
X151282447Y-78494419D01*
X151282447Y-78494419D02*
X151377685Y-78446800D01*
X151377685Y-78446800D02*
X151425304Y-78399180D01*
X151425304Y-78399180D02*
X151472923Y-78303942D01*
X151472923Y-78303942D02*
X151472923Y-77494419D01*
X151996733Y-78494419D02*
X152187209Y-78494419D01*
X152187209Y-78494419D02*
X152282447Y-78446800D01*
X152282447Y-78446800D02*
X152330066Y-78399180D01*
X152330066Y-78399180D02*
X152425304Y-78256323D01*
X152425304Y-78256323D02*
X152472923Y-78065847D01*
X152472923Y-78065847D02*
X152472923Y-77684895D01*
X152472923Y-77684895D02*
X152425304Y-77589657D01*
X152425304Y-77589657D02*
X152377685Y-77542038D01*
X152377685Y-77542038D02*
X152282447Y-77494419D01*
X152282447Y-77494419D02*
X152091971Y-77494419D01*
X152091971Y-77494419D02*
X151996733Y-77542038D01*
X151996733Y-77542038D02*
X151949114Y-77589657D01*
X151949114Y-77589657D02*
X151901495Y-77684895D01*
X151901495Y-77684895D02*
X151901495Y-77922990D01*
X151901495Y-77922990D02*
X151949114Y-78018228D01*
X151949114Y-78018228D02*
X151996733Y-78065847D01*
X151996733Y-78065847D02*
X152091971Y-78113466D01*
X152091971Y-78113466D02*
X152282447Y-78113466D01*
X152282447Y-78113466D02*
X152377685Y-78065847D01*
X152377685Y-78065847D02*
X152425304Y-78018228D01*
X152425304Y-78018228D02*
X152472923Y-77922990D01*
X136912819Y-99821904D02*
X137722342Y-99821904D01*
X137722342Y-99821904D02*
X137817580Y-99774285D01*
X137817580Y-99774285D02*
X137865200Y-99726666D01*
X137865200Y-99726666D02*
X137912819Y-99631428D01*
X137912819Y-99631428D02*
X137912819Y-99440952D01*
X137912819Y-99440952D02*
X137865200Y-99345714D01*
X137865200Y-99345714D02*
X137817580Y-99298095D01*
X137817580Y-99298095D02*
X137722342Y-99250476D01*
X137722342Y-99250476D02*
X136912819Y-99250476D01*
X137008057Y-98821904D02*
X136960438Y-98774285D01*
X136960438Y-98774285D02*
X136912819Y-98679047D01*
X136912819Y-98679047D02*
X136912819Y-98440952D01*
X136912819Y-98440952D02*
X136960438Y-98345714D01*
X136960438Y-98345714D02*
X137008057Y-98298095D01*
X137008057Y-98298095D02*
X137103295Y-98250476D01*
X137103295Y-98250476D02*
X137198533Y-98250476D01*
X137198533Y-98250476D02*
X137341390Y-98298095D01*
X137341390Y-98298095D02*
X137912819Y-98869523D01*
X137912819Y-98869523D02*
X137912819Y-98250476D01*
X93707419Y-105990923D02*
X94421704Y-105990923D01*
X94421704Y-105990923D02*
X94564561Y-106038542D01*
X94564561Y-106038542D02*
X94659800Y-106133780D01*
X94659800Y-106133780D02*
X94707419Y-106276637D01*
X94707419Y-106276637D02*
X94707419Y-106371875D01*
X93802657Y-105562351D02*
X93755038Y-105514732D01*
X93755038Y-105514732D02*
X93707419Y-105419494D01*
X93707419Y-105419494D02*
X93707419Y-105181399D01*
X93707419Y-105181399D02*
X93755038Y-105086161D01*
X93755038Y-105086161D02*
X93802657Y-105038542D01*
X93802657Y-105038542D02*
X93897895Y-104990923D01*
X93897895Y-104990923D02*
X93993133Y-104990923D01*
X93993133Y-104990923D02*
X94135990Y-105038542D01*
X94135990Y-105038542D02*
X94707419Y-105609970D01*
X94707419Y-105609970D02*
X94707419Y-104990923D01*
X93802657Y-104609970D02*
X93755038Y-104562351D01*
X93755038Y-104562351D02*
X93707419Y-104467113D01*
X93707419Y-104467113D02*
X93707419Y-104229018D01*
X93707419Y-104229018D02*
X93755038Y-104133780D01*
X93755038Y-104133780D02*
X93802657Y-104086161D01*
X93802657Y-104086161D02*
X93897895Y-104038542D01*
X93897895Y-104038542D02*
X93993133Y-104038542D01*
X93993133Y-104038542D02*
X94135990Y-104086161D01*
X94135990Y-104086161D02*
X94707419Y-104657589D01*
X94707419Y-104657589D02*
X94707419Y-104038542D01*
X166972019Y-64382894D02*
X167781542Y-64382894D01*
X167781542Y-64382894D02*
X167876780Y-64335275D01*
X167876780Y-64335275D02*
X167924400Y-64287656D01*
X167924400Y-64287656D02*
X167972019Y-64192418D01*
X167972019Y-64192418D02*
X167972019Y-64001942D01*
X167972019Y-64001942D02*
X167924400Y-63906704D01*
X167924400Y-63906704D02*
X167876780Y-63859085D01*
X167876780Y-63859085D02*
X167781542Y-63811466D01*
X167781542Y-63811466D02*
X166972019Y-63811466D01*
X167972019Y-62811466D02*
X167972019Y-63382894D01*
X167972019Y-63097180D02*
X166972019Y-63097180D01*
X166972019Y-63097180D02*
X167114876Y-63192418D01*
X167114876Y-63192418D02*
X167210114Y-63287656D01*
X167210114Y-63287656D02*
X167257733Y-63382894D01*
X166972019Y-62478132D02*
X166972019Y-61859085D01*
X166972019Y-61859085D02*
X167352971Y-62192418D01*
X167352971Y-62192418D02*
X167352971Y-62049561D01*
X167352971Y-62049561D02*
X167400590Y-61954323D01*
X167400590Y-61954323D02*
X167448209Y-61906704D01*
X167448209Y-61906704D02*
X167543447Y-61859085D01*
X167543447Y-61859085D02*
X167781542Y-61859085D01*
X167781542Y-61859085D02*
X167876780Y-61906704D01*
X167876780Y-61906704D02*
X167924400Y-61954323D01*
X167924400Y-61954323D02*
X167972019Y-62049561D01*
X167972019Y-62049561D02*
X167972019Y-62335275D01*
X167972019Y-62335275D02*
X167924400Y-62430513D01*
X167924400Y-62430513D02*
X167876780Y-62478132D01*
X161778095Y-110974819D02*
X161778095Y-109974819D01*
X161778095Y-110451009D02*
X162349523Y-110451009D01*
X162349523Y-110974819D02*
X162349523Y-109974819D01*
X162730476Y-109974819D02*
X163349523Y-109974819D01*
X163349523Y-109974819D02*
X163016190Y-110355771D01*
X163016190Y-110355771D02*
X163159047Y-110355771D01*
X163159047Y-110355771D02*
X163254285Y-110403390D01*
X163254285Y-110403390D02*
X163301904Y-110451009D01*
X163301904Y-110451009D02*
X163349523Y-110546247D01*
X163349523Y-110546247D02*
X163349523Y-110784342D01*
X163349523Y-110784342D02*
X163301904Y-110879580D01*
X163301904Y-110879580D02*
X163254285Y-110927200D01*
X163254285Y-110927200D02*
X163159047Y-110974819D01*
X163159047Y-110974819D02*
X162873333Y-110974819D01*
X162873333Y-110974819D02*
X162778095Y-110927200D01*
X162778095Y-110927200D02*
X162730476Y-110879580D01*
X134464595Y-79449819D02*
X134464595Y-80259342D01*
X134464595Y-80259342D02*
X134512214Y-80354580D01*
X134512214Y-80354580D02*
X134559833Y-80402200D01*
X134559833Y-80402200D02*
X134655071Y-80449819D01*
X134655071Y-80449819D02*
X134845547Y-80449819D01*
X134845547Y-80449819D02*
X134940785Y-80402200D01*
X134940785Y-80402200D02*
X134988404Y-80354580D01*
X134988404Y-80354580D02*
X135036023Y-80259342D01*
X135036023Y-80259342D02*
X135036023Y-79449819D01*
X135940785Y-79783152D02*
X135940785Y-80449819D01*
X135702690Y-79402200D02*
X135464595Y-80116485D01*
X135464595Y-80116485D02*
X136083642Y-80116485D01*
X135128095Y-47664019D02*
X135128095Y-48473542D01*
X135128095Y-48473542D02*
X135175714Y-48568780D01*
X135175714Y-48568780D02*
X135223333Y-48616400D01*
X135223333Y-48616400D02*
X135318571Y-48664019D01*
X135318571Y-48664019D02*
X135509047Y-48664019D01*
X135509047Y-48664019D02*
X135604285Y-48616400D01*
X135604285Y-48616400D02*
X135651904Y-48568780D01*
X135651904Y-48568780D02*
X135699523Y-48473542D01*
X135699523Y-48473542D02*
X135699523Y-47664019D01*
X136651904Y-47664019D02*
X136175714Y-47664019D01*
X136175714Y-47664019D02*
X136128095Y-48140209D01*
X136128095Y-48140209D02*
X136175714Y-48092590D01*
X136175714Y-48092590D02*
X136270952Y-48044971D01*
X136270952Y-48044971D02*
X136509047Y-48044971D01*
X136509047Y-48044971D02*
X136604285Y-48092590D01*
X136604285Y-48092590D02*
X136651904Y-48140209D01*
X136651904Y-48140209D02*
X136699523Y-48235447D01*
X136699523Y-48235447D02*
X136699523Y-48473542D01*
X136699523Y-48473542D02*
X136651904Y-48568780D01*
X136651904Y-48568780D02*
X136604285Y-48616400D01*
X136604285Y-48616400D02*
X136509047Y-48664019D01*
X136509047Y-48664019D02*
X136270952Y-48664019D01*
X136270952Y-48664019D02*
X136175714Y-48616400D01*
X136175714Y-48616400D02*
X136128095Y-48568780D01*
X105260876Y-95695419D02*
X105260876Y-96409704D01*
X105260876Y-96409704D02*
X105213257Y-96552561D01*
X105213257Y-96552561D02*
X105118019Y-96647800D01*
X105118019Y-96647800D02*
X104975162Y-96695419D01*
X104975162Y-96695419D02*
X104879924Y-96695419D01*
X105689448Y-95790657D02*
X105737067Y-95743038D01*
X105737067Y-95743038D02*
X105832305Y-95695419D01*
X105832305Y-95695419D02*
X106070400Y-95695419D01*
X106070400Y-95695419D02*
X106165638Y-95743038D01*
X106165638Y-95743038D02*
X106213257Y-95790657D01*
X106213257Y-95790657D02*
X106260876Y-95885895D01*
X106260876Y-95885895D02*
X106260876Y-95981133D01*
X106260876Y-95981133D02*
X106213257Y-96123990D01*
X106213257Y-96123990D02*
X105641829Y-96695419D01*
X105641829Y-96695419D02*
X106260876Y-96695419D01*
X107118019Y-95695419D02*
X106927543Y-95695419D01*
X106927543Y-95695419D02*
X106832305Y-95743038D01*
X106832305Y-95743038D02*
X106784686Y-95790657D01*
X106784686Y-95790657D02*
X106689448Y-95933514D01*
X106689448Y-95933514D02*
X106641829Y-96123990D01*
X106641829Y-96123990D02*
X106641829Y-96504942D01*
X106641829Y-96504942D02*
X106689448Y-96600180D01*
X106689448Y-96600180D02*
X106737067Y-96647800D01*
X106737067Y-96647800D02*
X106832305Y-96695419D01*
X106832305Y-96695419D02*
X107022781Y-96695419D01*
X107022781Y-96695419D02*
X107118019Y-96647800D01*
X107118019Y-96647800D02*
X107165638Y-96600180D01*
X107165638Y-96600180D02*
X107213257Y-96504942D01*
X107213257Y-96504942D02*
X107213257Y-96266847D01*
X107213257Y-96266847D02*
X107165638Y-96171609D01*
X107165638Y-96171609D02*
X107118019Y-96123990D01*
X107118019Y-96123990D02*
X107022781Y-96076371D01*
X107022781Y-96076371D02*
X106832305Y-96076371D01*
X106832305Y-96076371D02*
X106737067Y-96123990D01*
X106737067Y-96123990D02*
X106689448Y-96171609D01*
X106689448Y-96171609D02*
X106641829Y-96266847D01*
X93809019Y-99285323D02*
X94523304Y-99285323D01*
X94523304Y-99285323D02*
X94666161Y-99332942D01*
X94666161Y-99332942D02*
X94761400Y-99428180D01*
X94761400Y-99428180D02*
X94809019Y-99571037D01*
X94809019Y-99571037D02*
X94809019Y-99666275D01*
X93904257Y-98856751D02*
X93856638Y-98809132D01*
X93856638Y-98809132D02*
X93809019Y-98713894D01*
X93809019Y-98713894D02*
X93809019Y-98475799D01*
X93809019Y-98475799D02*
X93856638Y-98380561D01*
X93856638Y-98380561D02*
X93904257Y-98332942D01*
X93904257Y-98332942D02*
X93999495Y-98285323D01*
X93999495Y-98285323D02*
X94094733Y-98285323D01*
X94094733Y-98285323D02*
X94237590Y-98332942D01*
X94237590Y-98332942D02*
X94809019Y-98904370D01*
X94809019Y-98904370D02*
X94809019Y-98285323D01*
X94809019Y-97332942D02*
X94809019Y-97904370D01*
X94809019Y-97618656D02*
X93809019Y-97618656D01*
X93809019Y-97618656D02*
X93951876Y-97713894D01*
X93951876Y-97713894D02*
X94047114Y-97809132D01*
X94047114Y-97809132D02*
X94094733Y-97904370D01*
X71908095Y-110914819D02*
X71908095Y-109914819D01*
X71908095Y-110391009D02*
X72479523Y-110391009D01*
X72479523Y-110914819D02*
X72479523Y-109914819D01*
X73384285Y-110248152D02*
X73384285Y-110914819D01*
X73146190Y-109867200D02*
X72908095Y-110581485D01*
X72908095Y-110581485D02*
X73527142Y-110581485D01*
X115393333Y-55964819D02*
X115060000Y-55488628D01*
X114821905Y-55964819D02*
X114821905Y-54964819D01*
X114821905Y-54964819D02*
X115202857Y-54964819D01*
X115202857Y-54964819D02*
X115298095Y-55012438D01*
X115298095Y-55012438D02*
X115345714Y-55060057D01*
X115345714Y-55060057D02*
X115393333Y-55155295D01*
X115393333Y-55155295D02*
X115393333Y-55298152D01*
X115393333Y-55298152D02*
X115345714Y-55393390D01*
X115345714Y-55393390D02*
X115298095Y-55441009D01*
X115298095Y-55441009D02*
X115202857Y-55488628D01*
X115202857Y-55488628D02*
X114821905Y-55488628D01*
X115869524Y-55964819D02*
X116060000Y-55964819D01*
X116060000Y-55964819D02*
X116155238Y-55917200D01*
X116155238Y-55917200D02*
X116202857Y-55869580D01*
X116202857Y-55869580D02*
X116298095Y-55726723D01*
X116298095Y-55726723D02*
X116345714Y-55536247D01*
X116345714Y-55536247D02*
X116345714Y-55155295D01*
X116345714Y-55155295D02*
X116298095Y-55060057D01*
X116298095Y-55060057D02*
X116250476Y-55012438D01*
X116250476Y-55012438D02*
X116155238Y-54964819D01*
X116155238Y-54964819D02*
X115964762Y-54964819D01*
X115964762Y-54964819D02*
X115869524Y-55012438D01*
X115869524Y-55012438D02*
X115821905Y-55060057D01*
X115821905Y-55060057D02*
X115774286Y-55155295D01*
X115774286Y-55155295D02*
X115774286Y-55393390D01*
X115774286Y-55393390D02*
X115821905Y-55488628D01*
X115821905Y-55488628D02*
X115869524Y-55536247D01*
X115869524Y-55536247D02*
X115964762Y-55583866D01*
X115964762Y-55583866D02*
X116155238Y-55583866D01*
X116155238Y-55583866D02*
X116250476Y-55536247D01*
X116250476Y-55536247D02*
X116298095Y-55488628D01*
X116298095Y-55488628D02*
X116345714Y-55393390D01*
X114730476Y-106414819D02*
X114730476Y-107129104D01*
X114730476Y-107129104D02*
X114682857Y-107271961D01*
X114682857Y-107271961D02*
X114587619Y-107367200D01*
X114587619Y-107367200D02*
X114444762Y-107414819D01*
X114444762Y-107414819D02*
X114349524Y-107414819D01*
X115730476Y-107414819D02*
X115159048Y-107414819D01*
X115444762Y-107414819D02*
X115444762Y-106414819D01*
X115444762Y-106414819D02*
X115349524Y-106557676D01*
X115349524Y-106557676D02*
X115254286Y-106652914D01*
X115254286Y-106652914D02*
X115159048Y-106700533D01*
X116206667Y-107414819D02*
X116397143Y-107414819D01*
X116397143Y-107414819D02*
X116492381Y-107367200D01*
X116492381Y-107367200D02*
X116540000Y-107319580D01*
X116540000Y-107319580D02*
X116635238Y-107176723D01*
X116635238Y-107176723D02*
X116682857Y-106986247D01*
X116682857Y-106986247D02*
X116682857Y-106605295D01*
X116682857Y-106605295D02*
X116635238Y-106510057D01*
X116635238Y-106510057D02*
X116587619Y-106462438D01*
X116587619Y-106462438D02*
X116492381Y-106414819D01*
X116492381Y-106414819D02*
X116301905Y-106414819D01*
X116301905Y-106414819D02*
X116206667Y-106462438D01*
X116206667Y-106462438D02*
X116159048Y-106510057D01*
X116159048Y-106510057D02*
X116111429Y-106605295D01*
X116111429Y-106605295D02*
X116111429Y-106843390D01*
X116111429Y-106843390D02*
X116159048Y-106938628D01*
X116159048Y-106938628D02*
X116206667Y-106986247D01*
X116206667Y-106986247D02*
X116301905Y-107033866D01*
X116301905Y-107033866D02*
X116492381Y-107033866D01*
X116492381Y-107033866D02*
X116587619Y-106986247D01*
X116587619Y-106986247D02*
X116635238Y-106938628D01*
X116635238Y-106938628D02*
X116682857Y-106843390D01*
X161642466Y-37049819D02*
X161642466Y-37764104D01*
X161642466Y-37764104D02*
X161594847Y-37906961D01*
X161594847Y-37906961D02*
X161499609Y-38002200D01*
X161499609Y-38002200D02*
X161356752Y-38049819D01*
X161356752Y-38049819D02*
X161261514Y-38049819D01*
X162594847Y-37049819D02*
X162118657Y-37049819D01*
X162118657Y-37049819D02*
X162071038Y-37526009D01*
X162071038Y-37526009D02*
X162118657Y-37478390D01*
X162118657Y-37478390D02*
X162213895Y-37430771D01*
X162213895Y-37430771D02*
X162451990Y-37430771D01*
X162451990Y-37430771D02*
X162547228Y-37478390D01*
X162547228Y-37478390D02*
X162594847Y-37526009D01*
X162594847Y-37526009D02*
X162642466Y-37621247D01*
X162642466Y-37621247D02*
X162642466Y-37859342D01*
X162642466Y-37859342D02*
X162594847Y-37954580D01*
X162594847Y-37954580D02*
X162547228Y-38002200D01*
X162547228Y-38002200D02*
X162451990Y-38049819D01*
X162451990Y-38049819D02*
X162213895Y-38049819D01*
X162213895Y-38049819D02*
X162118657Y-38002200D01*
X162118657Y-38002200D02*
X162071038Y-37954580D01*
D13*
X91346819Y-69926104D02*
X92156342Y-69926104D01*
X92156342Y-69926104D02*
X92251580Y-69878485D01*
X92251580Y-69878485D02*
X92299200Y-69830866D01*
X92299200Y-69830866D02*
X92346819Y-69735628D01*
X92346819Y-69735628D02*
X92346819Y-69545152D01*
X92346819Y-69545152D02*
X92299200Y-69449914D01*
X92299200Y-69449914D02*
X92251580Y-69402295D01*
X92251580Y-69402295D02*
X92156342Y-69354676D01*
X92156342Y-69354676D02*
X91346819Y-69354676D01*
X92346819Y-68354676D02*
X92346819Y-68926104D01*
X92346819Y-68640390D02*
X91346819Y-68640390D01*
X91346819Y-68640390D02*
X91489676Y-68735628D01*
X91489676Y-68735628D02*
X91584914Y-68830866D01*
X91584914Y-68830866D02*
X91632533Y-68926104D01*
D12*
X165104819Y-70912857D02*
X164628628Y-71246190D01*
X165104819Y-71484285D02*
X164104819Y-71484285D01*
X164104819Y-71484285D02*
X164104819Y-71103333D01*
X164104819Y-71103333D02*
X164152438Y-71008095D01*
X164152438Y-71008095D02*
X164200057Y-70960476D01*
X164200057Y-70960476D02*
X164295295Y-70912857D01*
X164295295Y-70912857D02*
X164438152Y-70912857D01*
X164438152Y-70912857D02*
X164533390Y-70960476D01*
X164533390Y-70960476D02*
X164581009Y-71008095D01*
X164581009Y-71008095D02*
X164628628Y-71103333D01*
X164628628Y-71103333D02*
X164628628Y-71484285D01*
X165104819Y-69960476D02*
X165104819Y-70531904D01*
X165104819Y-70246190D02*
X164104819Y-70246190D01*
X164104819Y-70246190D02*
X164247676Y-70341428D01*
X164247676Y-70341428D02*
X164342914Y-70436666D01*
X164342914Y-70436666D02*
X164390533Y-70531904D01*
X165104819Y-69008095D02*
X165104819Y-69579523D01*
X165104819Y-69293809D02*
X164104819Y-69293809D01*
X164104819Y-69293809D02*
X164247676Y-69389047D01*
X164247676Y-69389047D02*
X164342914Y-69484285D01*
X164342914Y-69484285D02*
X164390533Y-69579523D01*
X114331905Y-90684819D02*
X114331905Y-91494342D01*
X114331905Y-91494342D02*
X114379524Y-91589580D01*
X114379524Y-91589580D02*
X114427143Y-91637200D01*
X114427143Y-91637200D02*
X114522381Y-91684819D01*
X114522381Y-91684819D02*
X114712857Y-91684819D01*
X114712857Y-91684819D02*
X114808095Y-91637200D01*
X114808095Y-91637200D02*
X114855714Y-91589580D01*
X114855714Y-91589580D02*
X114903333Y-91494342D01*
X114903333Y-91494342D02*
X114903333Y-90684819D01*
X115903333Y-91684819D02*
X115331905Y-91684819D01*
X115617619Y-91684819D02*
X115617619Y-90684819D01*
X115617619Y-90684819D02*
X115522381Y-90827676D01*
X115522381Y-90827676D02*
X115427143Y-90922914D01*
X115427143Y-90922914D02*
X115331905Y-90970533D01*
X116522381Y-90684819D02*
X116617619Y-90684819D01*
X116617619Y-90684819D02*
X116712857Y-90732438D01*
X116712857Y-90732438D02*
X116760476Y-90780057D01*
X116760476Y-90780057D02*
X116808095Y-90875295D01*
X116808095Y-90875295D02*
X116855714Y-91065771D01*
X116855714Y-91065771D02*
X116855714Y-91303866D01*
X116855714Y-91303866D02*
X116808095Y-91494342D01*
X116808095Y-91494342D02*
X116760476Y-91589580D01*
X116760476Y-91589580D02*
X116712857Y-91637200D01*
X116712857Y-91637200D02*
X116617619Y-91684819D01*
X116617619Y-91684819D02*
X116522381Y-91684819D01*
X116522381Y-91684819D02*
X116427143Y-91637200D01*
X116427143Y-91637200D02*
X116379524Y-91589580D01*
X116379524Y-91589580D02*
X116331905Y-91494342D01*
X116331905Y-91494342D02*
X116284286Y-91303866D01*
X116284286Y-91303866D02*
X116284286Y-91065771D01*
X116284286Y-91065771D02*
X116331905Y-90875295D01*
X116331905Y-90875295D02*
X116379524Y-90780057D01*
X116379524Y-90780057D02*
X116427143Y-90732438D01*
X116427143Y-90732438D02*
X116522381Y-90684819D01*
X116382895Y-72073419D02*
X116382895Y-72882942D01*
X116382895Y-72882942D02*
X116430514Y-72978180D01*
X116430514Y-72978180D02*
X116478133Y-73025800D01*
X116478133Y-73025800D02*
X116573371Y-73073419D01*
X116573371Y-73073419D02*
X116763847Y-73073419D01*
X116763847Y-73073419D02*
X116859085Y-73025800D01*
X116859085Y-73025800D02*
X116906704Y-72978180D01*
X116906704Y-72978180D02*
X116954323Y-72882942D01*
X116954323Y-72882942D02*
X116954323Y-72073419D01*
X117573371Y-72501990D02*
X117478133Y-72454371D01*
X117478133Y-72454371D02*
X117430514Y-72406752D01*
X117430514Y-72406752D02*
X117382895Y-72311514D01*
X117382895Y-72311514D02*
X117382895Y-72263895D01*
X117382895Y-72263895D02*
X117430514Y-72168657D01*
X117430514Y-72168657D02*
X117478133Y-72121038D01*
X117478133Y-72121038D02*
X117573371Y-72073419D01*
X117573371Y-72073419D02*
X117763847Y-72073419D01*
X117763847Y-72073419D02*
X117859085Y-72121038D01*
X117859085Y-72121038D02*
X117906704Y-72168657D01*
X117906704Y-72168657D02*
X117954323Y-72263895D01*
X117954323Y-72263895D02*
X117954323Y-72311514D01*
X117954323Y-72311514D02*
X117906704Y-72406752D01*
X117906704Y-72406752D02*
X117859085Y-72454371D01*
X117859085Y-72454371D02*
X117763847Y-72501990D01*
X117763847Y-72501990D02*
X117573371Y-72501990D01*
X117573371Y-72501990D02*
X117478133Y-72549609D01*
X117478133Y-72549609D02*
X117430514Y-72597228D01*
X117430514Y-72597228D02*
X117382895Y-72692466D01*
X117382895Y-72692466D02*
X117382895Y-72882942D01*
X117382895Y-72882942D02*
X117430514Y-72978180D01*
X117430514Y-72978180D02*
X117478133Y-73025800D01*
X117478133Y-73025800D02*
X117573371Y-73073419D01*
X117573371Y-73073419D02*
X117763847Y-73073419D01*
X117763847Y-73073419D02*
X117859085Y-73025800D01*
X117859085Y-73025800D02*
X117906704Y-72978180D01*
X117906704Y-72978180D02*
X117954323Y-72882942D01*
X117954323Y-72882942D02*
X117954323Y-72692466D01*
X117954323Y-72692466D02*
X117906704Y-72597228D01*
X117906704Y-72597228D02*
X117859085Y-72549609D01*
X117859085Y-72549609D02*
X117763847Y-72501990D01*
X91936219Y-89484104D02*
X92745742Y-89484104D01*
X92745742Y-89484104D02*
X92840980Y-89436485D01*
X92840980Y-89436485D02*
X92888600Y-89388866D01*
X92888600Y-89388866D02*
X92936219Y-89293628D01*
X92936219Y-89293628D02*
X92936219Y-89103152D01*
X92936219Y-89103152D02*
X92888600Y-89007914D01*
X92888600Y-89007914D02*
X92840980Y-88960295D01*
X92840980Y-88960295D02*
X92745742Y-88912676D01*
X92745742Y-88912676D02*
X91936219Y-88912676D01*
X91936219Y-88531723D02*
X91936219Y-87865057D01*
X91936219Y-87865057D02*
X92936219Y-88293628D01*
X122856666Y-39034819D02*
X122856666Y-39749104D01*
X122856666Y-39749104D02*
X122809047Y-39891961D01*
X122809047Y-39891961D02*
X122713809Y-39987200D01*
X122713809Y-39987200D02*
X122570952Y-40034819D01*
X122570952Y-40034819D02*
X122475714Y-40034819D01*
X123237619Y-39034819D02*
X123856666Y-39034819D01*
X123856666Y-39034819D02*
X123523333Y-39415771D01*
X123523333Y-39415771D02*
X123666190Y-39415771D01*
X123666190Y-39415771D02*
X123761428Y-39463390D01*
X123761428Y-39463390D02*
X123809047Y-39511009D01*
X123809047Y-39511009D02*
X123856666Y-39606247D01*
X123856666Y-39606247D02*
X123856666Y-39844342D01*
X123856666Y-39844342D02*
X123809047Y-39939580D01*
X123809047Y-39939580D02*
X123761428Y-39987200D01*
X123761428Y-39987200D02*
X123666190Y-40034819D01*
X123666190Y-40034819D02*
X123380476Y-40034819D01*
X123380476Y-40034819D02*
X123285238Y-39987200D01*
X123285238Y-39987200D02*
X123237619Y-39939580D01*
D13*
X97646019Y-50037904D02*
X98455542Y-50037904D01*
X98455542Y-50037904D02*
X98550780Y-49990285D01*
X98550780Y-49990285D02*
X98598400Y-49942666D01*
X98598400Y-49942666D02*
X98646019Y-49847428D01*
X98646019Y-49847428D02*
X98646019Y-49656952D01*
X98646019Y-49656952D02*
X98598400Y-49561714D01*
X98598400Y-49561714D02*
X98550780Y-49514095D01*
X98550780Y-49514095D02*
X98455542Y-49466476D01*
X98455542Y-49466476D02*
X97646019Y-49466476D01*
X97646019Y-49085523D02*
X97646019Y-48466476D01*
X97646019Y-48466476D02*
X98026971Y-48799809D01*
X98026971Y-48799809D02*
X98026971Y-48656952D01*
X98026971Y-48656952D02*
X98074590Y-48561714D01*
X98074590Y-48561714D02*
X98122209Y-48514095D01*
X98122209Y-48514095D02*
X98217447Y-48466476D01*
X98217447Y-48466476D02*
X98455542Y-48466476D01*
X98455542Y-48466476D02*
X98550780Y-48514095D01*
X98550780Y-48514095D02*
X98598400Y-48561714D01*
X98598400Y-48561714D02*
X98646019Y-48656952D01*
X98646019Y-48656952D02*
X98646019Y-48942666D01*
X98646019Y-48942666D02*
X98598400Y-49037904D01*
X98598400Y-49037904D02*
X98550780Y-49085523D01*
D14*
%TO.C,R12*%
X145718264Y-68937200D02*
X145264136Y-68937200D01*
X145718264Y-70407200D02*
X145264136Y-70407200D01*
%TO.C,J18*%
X146013400Y-99000000D02*
X146013400Y-101660000D01*
X148613400Y-99000000D02*
X146013400Y-99000000D01*
X148613400Y-99000000D02*
X148613400Y-101660000D01*
X148613400Y-101660000D02*
X146013400Y-101660000D01*
X149883400Y-99000000D02*
X151213400Y-99000000D01*
X151213400Y-99000000D02*
X151213400Y-100330000D01*
%TO.C,SW1*%
X151286400Y-71553200D02*
X151286400Y-73053200D01*
X152536400Y-75553200D02*
X157036400Y-75553200D01*
X157036400Y-69053200D02*
X152536400Y-69053200D01*
X158286400Y-73053200D02*
X158286400Y-71553200D01*
%TO.C,D9*%
X162080000Y-73050000D02*
X162080000Y-75910000D01*
X162080000Y-75910000D02*
X164000000Y-75910000D01*
X164000000Y-75910000D02*
X164000000Y-73050000D01*
%TO.C,U11*%
X143830000Y-72535800D02*
X145240000Y-72535800D01*
X143830000Y-74855800D02*
X145240000Y-74855800D01*
X145240000Y-72535800D02*
X145240000Y-73195800D01*
X145240000Y-74195800D02*
X145240000Y-74855800D01*
X143460000Y-72555800D02*
X143220000Y-72225800D01*
X143700000Y-72225800D01*
X143460000Y-72555800D01*
G36*
X143460000Y-72555800D02*
G01*
X143220000Y-72225800D01*
X143700000Y-72225800D01*
X143460000Y-72555800D01*
G37*
%TO.C,J4*%
X66890000Y-41118000D02*
X69950000Y-41118000D01*
X66890000Y-51338000D02*
X66890000Y-41118000D01*
X69950000Y-51338000D02*
X66890000Y-51338000D01*
X74050000Y-41118000D02*
X80110000Y-41118000D01*
X80110000Y-41118000D02*
X80110000Y-43928000D01*
X80110000Y-48528000D02*
X80110000Y-51338000D01*
X80110000Y-51338000D02*
X74050000Y-51338000D01*
X80300000Y-45228000D02*
X80300000Y-47228000D01*
%TO.C,FB1*%
X141661252Y-98275000D02*
X141138748Y-98275000D01*
X141661252Y-99745000D02*
X141138748Y-99745000D01*
%TO.C,J27*%
X97018800Y-103648200D02*
X97018800Y-106308200D01*
X104698800Y-103648200D02*
X97018800Y-103648200D01*
X104698800Y-103648200D02*
X104698800Y-106308200D01*
X104698800Y-106308200D02*
X97018800Y-106308200D01*
X105968800Y-103648200D02*
X107298800Y-103648200D01*
X107298800Y-103648200D02*
X107298800Y-104978200D01*
%TO.C,R4*%
X136660000Y-83460936D02*
X136660000Y-83915064D01*
X138130000Y-83460936D02*
X138130000Y-83915064D01*
D15*
%TO.C,U6*%
X146583400Y-40222583D02*
X146583400Y-40955817D01*
X146583400Y-42762583D02*
X146583400Y-43495817D01*
X146583400Y-45302583D02*
X146583400Y-46035817D01*
X146583400Y-47842583D02*
X146583400Y-48575817D01*
X146583400Y-50382583D02*
X146583400Y-51115817D01*
X146583400Y-52922583D02*
X146583400Y-53655817D01*
X146583400Y-55462583D02*
X146583400Y-56195817D01*
X146583400Y-58115200D02*
X153441400Y-58115200D01*
X153441400Y-38303200D02*
X146583400Y-38303200D01*
X153441400Y-40955817D02*
X153441400Y-40222583D01*
X153441400Y-43495817D02*
X153441400Y-42762583D01*
X153441400Y-46035817D02*
X153441400Y-45302583D01*
X153441400Y-48575817D02*
X153441400Y-47842583D01*
X153441400Y-51115817D02*
X153441400Y-50382583D01*
X153441400Y-53655817D02*
X153441400Y-52922583D01*
X153441400Y-56118760D02*
X153441400Y-55462583D01*
D14*
%TO.C,R3*%
X134760000Y-83444936D02*
X134760000Y-83899064D01*
X136230000Y-83444936D02*
X136230000Y-83899064D01*
%TO.C,D6*%
X137480000Y-95130000D02*
X137480000Y-97990000D01*
X137480000Y-97990000D02*
X139400000Y-97990000D01*
X139400000Y-97990000D02*
X139400000Y-95130000D01*
%TO.C,D7*%
X112298600Y-48351700D02*
X112298600Y-51211700D01*
X114218600Y-48351700D02*
X112298600Y-48351700D01*
X114218600Y-51211700D02*
X114218600Y-48351700D01*
%TO.C,J2*%
X160620400Y-94310200D02*
X160620400Y-91710200D01*
X163280400Y-91710200D02*
X160620400Y-91710200D01*
X163280400Y-94310200D02*
X160620400Y-94310200D01*
X163280400Y-94310200D02*
X163280400Y-91710200D01*
X163280400Y-95580200D02*
X163280400Y-96910200D01*
X163280400Y-96910200D02*
X161950400Y-96910200D01*
%TO.C,J20*%
X83328200Y-82381400D02*
X83328200Y-81051400D01*
X84658200Y-82381400D02*
X83328200Y-82381400D01*
X85928200Y-79721400D02*
X91068200Y-79721400D01*
X85928200Y-82381400D02*
X85928200Y-79721400D01*
X85928200Y-82381400D02*
X91068200Y-82381400D01*
X91068200Y-82381400D02*
X91068200Y-79721400D01*
%TO.C,D8*%
X94090400Y-79694600D02*
X94090400Y-81614600D01*
X94090400Y-81614600D02*
X96950400Y-81614600D01*
X96950400Y-79694600D02*
X94090400Y-79694600D01*
%TO.C,J36*%
X160620400Y-79289600D02*
X161950400Y-79289600D01*
X160620400Y-80619600D02*
X160620400Y-79289600D01*
X160620400Y-81889600D02*
X160620400Y-89569600D01*
X160620400Y-81889600D02*
X163280400Y-81889600D01*
X160620400Y-89569600D02*
X163280400Y-89569600D01*
X163280400Y-81889600D02*
X163280400Y-89569600D01*
%TO.C,R8*%
X139695000Y-96357064D02*
X139695000Y-95902936D01*
X141165000Y-96357064D02*
X141165000Y-95902936D01*
%TO.C,R15*%
X156294064Y-95378600D02*
X155839936Y-95378600D01*
X156294064Y-96848600D02*
X155839936Y-96848600D01*
%TO.C,U9*%
X148428400Y-79039600D02*
X148428400Y-94399600D01*
X148428400Y-94399600D02*
X154898400Y-94399600D01*
X150663400Y-79039600D02*
X148428400Y-79039600D01*
X154898400Y-79039600D02*
X152663400Y-79039600D01*
X154898400Y-94399600D02*
X154898400Y-79039600D01*
X152663400Y-79039600D02*
G75*
G02*
X150663400Y-79039600I-1000000J0D01*
G01*
%TO.C,RV1*%
X117214000Y-44200000D02*
G75*
G02*
X109354000Y-44200000I-3930000J0D01*
G01*
X109354000Y-44200000D02*
G75*
G02*
X117214000Y-44200000I3930000J0D01*
G01*
%TO.C,R6*%
X130910000Y-83460936D02*
X130910000Y-83915064D01*
X132380000Y-83460936D02*
X132380000Y-83915064D01*
%TO.C,D2*%
X136460000Y-86502500D02*
X136460000Y-89362500D01*
X136460000Y-89362500D02*
X138380000Y-89362500D01*
X138380000Y-89362500D02*
X138380000Y-86502500D01*
%TO.C,D1*%
X134560000Y-86502500D02*
X134560000Y-89362500D01*
X134560000Y-89362500D02*
X136480000Y-89362500D01*
X136480000Y-89362500D02*
X136480000Y-86502500D01*
%TO.C,U2*%
X118558000Y-97730000D02*
X118558000Y-100390000D01*
X133858000Y-97730000D02*
X118558000Y-97730000D01*
X133858000Y-97730000D02*
X133858000Y-100390000D01*
X133858000Y-100390000D02*
X118558000Y-100390000D01*
X135128000Y-97730000D02*
X136458000Y-97730000D01*
X136458000Y-97730000D02*
X136458000Y-99060000D01*
%TO.C,J22*%
X82972600Y-103851400D02*
X82972600Y-106511400D01*
X90652600Y-103851400D02*
X82972600Y-103851400D01*
X90652600Y-103851400D02*
X90652600Y-106511400D01*
X90652600Y-106511400D02*
X82972600Y-106511400D01*
X91922600Y-103851400D02*
X93252600Y-103851400D01*
X93252600Y-103851400D02*
X93252600Y-105181400D01*
%TO.C,U13*%
X159607200Y-61294800D02*
X159607200Y-65054800D01*
X159607200Y-65054800D02*
X160867200Y-65054800D01*
X166427200Y-61294800D02*
X166427200Y-65054800D01*
X166427200Y-65054800D02*
X165167200Y-65054800D01*
X166657200Y-60254800D02*
X166327200Y-60014800D01*
X166657200Y-59774800D01*
X166657200Y-60254800D01*
G36*
X166657200Y-60254800D02*
G01*
X166327200Y-60014800D01*
X166657200Y-59774800D01*
X166657200Y-60254800D01*
G37*
%TO.C,U4*%
X130116500Y-67485000D02*
X130116500Y-68435000D01*
X130116500Y-77705000D02*
X130116500Y-76755000D01*
X131066500Y-67485000D02*
X130116500Y-67485000D01*
X131066500Y-77705000D02*
X130116500Y-77705000D01*
X139386500Y-67485000D02*
X140336500Y-67485000D01*
X139386500Y-77705000D02*
X140336500Y-77705000D01*
X140336500Y-67485000D02*
X140336500Y-68435000D01*
X140336500Y-77705000D02*
X140336500Y-76755000D01*
X141291500Y-77225000D02*
X140611500Y-77225000D01*
X140951500Y-76755000D01*
X141291500Y-77225000D01*
G36*
X141291500Y-77225000D02*
G01*
X140611500Y-77225000D01*
X140951500Y-76755000D01*
X141291500Y-77225000D01*
G37*
%TO.C,R5*%
X138585000Y-83462936D02*
X138585000Y-83917064D01*
X140055000Y-83462936D02*
X140055000Y-83917064D01*
D15*
%TO.C,U5*%
X132461000Y-40299640D02*
X132461000Y-40955817D01*
X132461000Y-42762583D02*
X132461000Y-43495817D01*
X132461000Y-45302583D02*
X132461000Y-46035817D01*
X132461000Y-47842583D02*
X132461000Y-48575817D01*
X132461000Y-50382583D02*
X132461000Y-51115817D01*
X132461000Y-52922583D02*
X132461000Y-53655817D01*
X132461000Y-55462583D02*
X132461000Y-56195817D01*
X132461000Y-58115200D02*
X139319000Y-58115200D01*
X139319000Y-38303200D02*
X132461000Y-38303200D01*
X139319000Y-40955817D02*
X139319000Y-40222583D01*
X139319000Y-43495817D02*
X139319000Y-42762583D01*
X139319000Y-46035817D02*
X139319000Y-45302583D01*
X139319000Y-48575817D02*
X139319000Y-47842583D01*
X139319000Y-51115817D02*
X139319000Y-50382583D01*
X139319000Y-53655817D02*
X139319000Y-52922583D01*
X139319000Y-56195817D02*
X139319000Y-55462583D01*
D14*
%TO.C,J26*%
X96942600Y-97222000D02*
X96942600Y-99882000D01*
X104622600Y-97222000D02*
X96942600Y-97222000D01*
X104622600Y-97222000D02*
X104622600Y-99882000D01*
X104622600Y-99882000D02*
X96942600Y-99882000D01*
X105892600Y-97222000D02*
X107222600Y-97222000D01*
X107222600Y-97222000D02*
X107222600Y-98552000D01*
%TO.C,J21*%
X83074200Y-97145800D02*
X83074200Y-99805800D01*
X90754200Y-97145800D02*
X83074200Y-97145800D01*
X90754200Y-97145800D02*
X90754200Y-99805800D01*
X90754200Y-99805800D02*
X83074200Y-99805800D01*
X92024200Y-97145800D02*
X93354200Y-97145800D01*
X93354200Y-97145800D02*
X93354200Y-98475800D01*
%TO.C,R9*%
X115787064Y-53125000D02*
X115332936Y-53125000D01*
X115787064Y-54595000D02*
X115332936Y-54595000D01*
%TO.C,J19*%
X114210000Y-103360000D02*
X114210000Y-98220000D01*
X116870000Y-98220000D02*
X114210000Y-98220000D01*
X116870000Y-103360000D02*
X114210000Y-103360000D01*
X116870000Y-103360000D02*
X116870000Y-98220000D01*
X116870000Y-104630000D02*
X116870000Y-105960000D01*
X116870000Y-105960000D02*
X115540000Y-105960000D01*
%TO.C,J5*%
X160645800Y-38595000D02*
X161975800Y-38595000D01*
X160645800Y-39925000D02*
X160645800Y-38595000D01*
X160645800Y-41195000D02*
X160645800Y-51415000D01*
X160645800Y-41195000D02*
X163305800Y-41195000D01*
X160645800Y-51415000D02*
X163305800Y-51415000D01*
X163305800Y-41195000D02*
X163305800Y-51415000D01*
D16*
%TO.C,U1*%
X82888500Y-60450900D02*
X100688500Y-60450900D01*
X82888500Y-78250900D02*
X82888500Y-60450900D01*
X100688500Y-60450900D02*
X100688500Y-78250900D01*
X100688500Y-78250900D02*
X82888500Y-78250900D01*
D17*
X84238500Y-59950900D02*
G75*
G02*
X84038500Y-59950900I-100000J0D01*
G01*
X84038500Y-59950900D02*
G75*
G02*
X84238500Y-59950900I100000J0D01*
G01*
D14*
%TO.C,R11*%
X162265000Y-70042936D02*
X162265000Y-70497064D01*
X163735000Y-70042936D02*
X163735000Y-70497064D01*
%TO.C,D4*%
X130708200Y-86502500D02*
X130708200Y-89362500D01*
X130708200Y-89362500D02*
X132628200Y-89362500D01*
X132628200Y-89362500D02*
X132628200Y-86502500D01*
%TO.C,R7*%
X132844000Y-83460936D02*
X132844000Y-83915064D01*
X134314000Y-83460936D02*
X134314000Y-83915064D01*
%TO.C,U10*%
X112335000Y-74870000D02*
X112335000Y-90230000D01*
X112335000Y-90230000D02*
X114570000Y-90230000D01*
X116570000Y-90230000D02*
X118805000Y-90230000D01*
X118805000Y-74870000D02*
X112335000Y-74870000D01*
X118805000Y-90230000D02*
X118805000Y-74870000D01*
X114570000Y-90230000D02*
G75*
G02*
X116570000Y-90230000I1000000J0D01*
G01*
%TO.C,U8*%
X112335000Y-58868000D02*
X112335000Y-74228000D01*
X112335000Y-74228000D02*
X114570000Y-74228000D01*
X116570000Y-74228000D02*
X118805000Y-74228000D01*
X118805000Y-58868000D02*
X112335000Y-58868000D01*
X118805000Y-74228000D02*
X118805000Y-58868000D01*
X114570000Y-74228000D02*
G75*
G02*
X116570000Y-74228000I1000000J0D01*
G01*
%TO.C,D5*%
X132660000Y-86502500D02*
X132660000Y-89362500D01*
X132660000Y-89362500D02*
X134580000Y-89362500D01*
X134580000Y-89362500D02*
X134580000Y-86502500D01*
%TO.C,J13*%
X124908000Y-87361000D02*
X124908000Y-82221000D01*
X127568000Y-82221000D02*
X124908000Y-82221000D01*
X127568000Y-87361000D02*
X124908000Y-87361000D01*
X127568000Y-87361000D02*
X127568000Y-82221000D01*
X127568000Y-88631000D02*
X127568000Y-89961000D01*
X127568000Y-89961000D02*
X126238000Y-89961000D01*
D15*
%TO.C,U7*%
X82638900Y-85420200D02*
X82638900Y-92024200D01*
X82638900Y-92024200D02*
X83880960Y-92024200D01*
X84022831Y-85420200D02*
X82638900Y-85420200D01*
X85841840Y-92024200D02*
X86562831Y-92024200D01*
X86562831Y-85420200D02*
X85699969Y-85420200D01*
X88239969Y-92024200D02*
X89102831Y-92024200D01*
X89102831Y-85420200D02*
X88239969Y-85420200D01*
X90779969Y-92024200D02*
X91642831Y-92024200D01*
X91642831Y-85420200D02*
X90779969Y-85420200D01*
X93319969Y-92024200D02*
X94182831Y-92024200D01*
X94182831Y-85420200D02*
X93319969Y-85420200D01*
X95859969Y-92024200D02*
X96722831Y-92024200D01*
X96722831Y-85420200D02*
X95859969Y-85420200D01*
X98399969Y-92024200D02*
X99262831Y-92024200D01*
X99262831Y-85420200D02*
X98399969Y-85420200D01*
X100939969Y-92024200D02*
X102323900Y-92024200D01*
X102323900Y-85420200D02*
X100939969Y-85420200D01*
X102323900Y-92024200D02*
X102323900Y-85420200D01*
X82638900Y-88417400D02*
G75*
G02*
X82638900Y-89027000I0J-304800D01*
G01*
D14*
%TO.C,D3*%
X138385000Y-86502500D02*
X138385000Y-89362500D01*
X138385000Y-89362500D02*
X140305000Y-89362500D01*
X140305000Y-89362500D02*
X140305000Y-86502500D01*
%TO.C,J3*%
X120590000Y-40580000D02*
X121920000Y-40580000D01*
X120590000Y-41910000D02*
X120590000Y-40580000D01*
X120590000Y-43180000D02*
X120590000Y-55940000D01*
X120590000Y-43180000D02*
X123190000Y-43180000D01*
X120590000Y-55940000D02*
X125790000Y-55940000D01*
X123190000Y-40580000D02*
X125790000Y-40580000D01*
X123190000Y-43180000D02*
X123190000Y-40580000D01*
X125790000Y-40580000D02*
X125790000Y-55940000D01*
D16*
%TO.C,U3*%
X89100000Y-40376000D02*
X106900000Y-40376000D01*
X89100000Y-58176000D02*
X89100000Y-40376000D01*
X106900000Y-40376000D02*
X106900000Y-58176000D01*
X106900000Y-58176000D02*
X89100000Y-58176000D01*
D17*
X90450000Y-39876000D02*
G75*
G02*
X90250000Y-39876000I-100000J0D01*
G01*
X90250000Y-39876000D02*
G75*
G02*
X90450000Y-39876000I100000J0D01*
G01*
%TD*%
M02*
