M48
; DRILL file {KiCad 8.0.7} date 2025-03-12T15:10:06-0400
; FORMAT={-:-/ absolute / inch / decimal}
; #@! TF.CreationDate,2025-03-12T15:10:06-04:00
; #@! TF.GenerationSoftware,Kicad,Pcbnew,8.0.7
; #@! TF.FileFunction,Plated,1,2,PTH
FMAT,2
INCH
; #@! TA.AperFunction,Plated,PTH,ViaDrill
T1C0.0118
; #@! TA.AperFunction,Plated,PTH,ViaDrill
T2C0.0276
; #@! TA.AperFunction,Plated,PTH,ComponentDrill
T3C0.0276
; #@! TA.AperFunction,Plated,PTH,ComponentDrill
T4C0.0310
; #@! TA.AperFunction,Plated,PTH,ComponentDrill
T5C0.0315
; #@! TA.AperFunction,Plated,PTH,ComponentDrill
T6C0.0394
; #@! TA.AperFunction,Plated,PTH,ComponentDrill
T7C0.0402
; #@! TA.AperFunction,Plated,PTH,ComponentDrill
T8C0.0433
%
G90
G05
T1
X3.541Y-3.298
X3.5559Y-2.1173
X3.7417Y-3.1197
X3.8205Y-3.1205
X4.328Y-3.618
X4.46Y-4.02
X4.4693Y-1.8984
X4.66Y-4.02
X4.68Y-2.19
X4.8921Y-2.5669
X4.9984Y-3.1799
X5.0075Y-3.0803
X5.02Y-2.748
X5.022Y-2.697
X5.024Y-2.626
X5.0256Y-2.5657
X5.0508Y-2.9961
X5.12Y-3.69
X5.1331Y-2.6268
X5.19Y-3.66
X5.2Y-2.58
X5.2504Y-3.6535
X5.31Y-2.52
X5.3445Y-3.5567
X5.3928Y-3.038
X5.4331Y-2.45
X5.4449Y-2.563
X5.448Y-3.8736
X5.492Y-2.769
X5.495Y-2.81
X5.5Y-3.13
X5.511Y-3.097
X5.52Y-2.407
X5.5201Y-2.6008
X5.5402Y-3.6744
X5.555Y-2.048
X5.5768Y-3.035
X5.593Y-1.948
X5.5949Y-3.5382
X5.5961Y-3.4622
X5.6142Y-3.6319
X5.64Y-2.51
X5.65Y-2.835
X5.67Y-2.36
X5.701Y-1.848
X5.7382Y-3.0528
X5.7457Y-3.8512
X5.758Y-2.873
X5.834Y-2.9352
X5.8724Y-3.852
X5.88Y-2.49
X5.94Y-3.066
X6.07Y-2.61
X6.294Y-3.663
X6.3276Y-2.285
X6.4197Y-3.0087
X6.5213Y-2.2898
X6.5461Y-2.7067
X6.6327Y-3.1752
T2
X2.8453Y-4.1346
X3.4213Y-1.1346
X5.9441Y-1.1346
X6.5469Y-4.1386
T3
X4.46Y-1.6402
X4.46Y-1.8402
X4.56Y-1.7402
T4
X3.341Y-3.343
X3.341Y-3.643
X3.441Y-3.343
X3.441Y-3.643
X3.541Y-3.343
X3.541Y-3.643
X3.641Y-3.343
X3.641Y-3.643
X3.741Y-3.343
X3.741Y-3.643
X3.841Y-3.343
X3.841Y-3.643
X3.941Y-3.343
X3.941Y-3.643
X5.2Y-1.548
X5.2Y-1.648
X5.2Y-1.748
X5.2Y-1.848
X5.2Y-1.948
X5.2Y-2.048
X5.2Y-2.148
X5.2Y-2.248
X5.5Y-1.548
X5.5Y-1.648
X5.5Y-1.748
X5.5Y-1.848
X5.5Y-1.948
X5.5Y-2.048
X5.5Y-2.148
X5.5Y-2.248
X5.756Y-1.548
X5.756Y-1.648
X5.756Y-1.748
X5.756Y-1.848
X5.756Y-1.948
X5.756Y-2.048
X5.756Y-2.148
X5.756Y-2.248
X6.056Y-1.548
X6.056Y-1.648
X6.056Y-1.748
X6.056Y-1.848
X6.056Y-1.948
X6.056Y-2.048
X6.056Y-2.148
X6.056Y-2.248
T5
X4.35Y-2.37
X4.35Y-2.47
X4.35Y-2.57
X4.35Y-2.67
X4.35Y-2.77
X4.35Y-2.87
X4.35Y-3.0
X4.35Y-3.1
X4.35Y-3.2
X4.35Y-3.3
X4.35Y-3.4
X4.35Y-3.5
X4.75Y-2.37
X4.75Y-2.47
X4.75Y-2.57
X4.75Y-2.67
X4.75Y-2.77
X4.75Y-2.87
X4.75Y-3.0
X4.75Y-3.1
X4.75Y-3.2
X4.75Y-3.3
X4.75Y-3.4
X4.75Y-3.5
X5.771Y-3.1642
X5.771Y-3.2642
X5.771Y-3.3642
X5.771Y-3.4642
X5.771Y-3.5642
X5.771Y-3.6642
X6.171Y-3.1642
X6.171Y-3.2642
X6.171Y-3.3642
X6.171Y-3.4642
X6.171Y-3.5642
X6.171Y-3.6642
T6
X3.319Y-4.141
X3.323Y-3.877
X3.333Y-3.191
X3.419Y-4.141
X3.423Y-3.877
X3.433Y-3.191
X3.519Y-4.141
X3.523Y-3.877
X3.533Y-3.191
X3.619Y-4.141
X3.623Y-3.877
X3.869Y-3.88
X3.872Y-4.133
X3.969Y-3.88
X3.972Y-4.133
X4.069Y-3.88
X4.072Y-4.133
X4.169Y-3.88
X4.172Y-4.133
X4.5488Y-3.9193
X4.5488Y-4.0193
X4.5488Y-4.1193
X4.72Y-3.9
X4.8Y-1.65
X4.8Y-1.75
X4.8Y-1.85
X4.8Y-1.95
X4.8Y-2.05
X4.8Y-2.15
X4.82Y-3.9
X4.9Y-1.65
X4.9Y-1.75
X4.9Y-1.85
X4.9Y-1.95
X4.9Y-2.05
X4.9Y-2.15
X4.92Y-3.9
X4.97Y-3.2894
X4.97Y-3.3894
X4.97Y-3.4894
X5.02Y-3.9
X5.12Y-3.9
X5.22Y-3.9
X5.32Y-3.9
X5.8009Y-3.95
X5.9009Y-3.95
X6.376Y-3.174
X6.376Y-3.274
X6.376Y-3.374
X6.376Y-3.474
X6.376Y-3.663
X6.376Y-3.763
X6.377Y-1.5719
X6.377Y-1.6719
X6.377Y-1.7719
X6.377Y-1.8719
X6.377Y-1.9719
T7
X3.3133Y-2.43
X3.3133Y-2.53
X3.3133Y-2.63
X3.3133Y-2.73
X3.3133Y-2.83
X3.5579Y-1.6396
X3.5579Y-1.7396
X3.5579Y-1.8396
X3.5579Y-1.9396
X3.5579Y-2.0396
X3.7342Y-2.43
X3.9787Y-1.6396
T8
X5.966Y-2.758
X5.966Y-2.9352
X6.2219Y-2.758
X6.2219Y-2.9352
T6
G00X2.8642Y-1.6428
M15
G01X2.8051Y-1.6428
M16
G05
G00X2.8642Y-1.9972
M15
G01X2.8051Y-1.9972
M16
G05
G00X2.874Y-1.7944
M15
G01X2.874Y-1.8456
M16
G05
G00X3.1102Y-1.7806
M15
G01X3.1102Y-1.8594
M16
G05
M30
