%TF.GenerationSoftware,KiCad,Pcbnew,9.0.0*%
%TF.CreationDate,2025-03-02T15:10:05-05:00*%
%TF.ProjectId,skee-ball,736b6565-2d62-4616-9c6c-2e6b69636164,rev?*%
%TF.SameCoordinates,Original*%
%TF.FileFunction,Soldermask,Top*%
%TF.FilePolarity,Negative*%
%FSLAX46Y46*%
G04 Gerber Fmt 4.6, Leading zero omitted, Abs format (unit mm)*
G04 Created by KiCad (PCBNEW 9.0.0) date 2025-03-02 15:10:05*
%MOMM*%
%LPD*%
G01*
G04 APERTURE LIST*
G04 Aperture macros list*
%AMRoundRect*
0 Rectangle with rounded corners*
0 $1 Rounding radius*
0 $2 $3 $4 $5 $6 $7 $8 $9 X,Y pos of 4 corners*
0 Add a 4 corners polygon primitive as box body*
4,1,4,$2,$3,$4,$5,$6,$7,$8,$9,$2,$3,0*
0 Add four circle primitives for the rounded corners*
1,1,$1+$1,$2,$3*
1,1,$1+$1,$4,$5*
1,1,$1+$1,$6,$7*
1,1,$1+$1,$8,$9*
0 Add four rect primitives between the rounded corners*
20,1,$1+$1,$2,$3,$4,$5,0*
20,1,$1+$1,$4,$5,$6,$7,0*
20,1,$1+$1,$6,$7,$8,$9,0*
20,1,$1+$1,$8,$9,$2,$3,0*%
G04 Aperture macros list end*
%ADD10RoundRect,0.250000X0.450000X-0.325000X0.450000X0.325000X-0.450000X0.325000X-0.450000X-0.325000X0*%
%ADD11RoundRect,0.250000X0.450000X-0.350000X0.450000X0.350000X-0.450000X0.350000X-0.450000X-0.350000X0*%
%ADD12O,1.700000X1.700000*%
%ADD13R,1.700000X1.700000*%
%ADD14C,3.200000*%
%ADD15C,2.000000*%
%ADD16O,3.500000X2.000000*%
%ADD17O,2.000000X3.300000*%
%ADD18R,2.000000X4.000000*%
%ADD19C,1.600000*%
%ADD20RoundRect,0.250000X0.337500X0.475000X-0.337500X0.475000X-0.337500X-0.475000X0.337500X-0.475000X0*%
%ADD21RoundRect,0.250000X-0.450000X0.350000X-0.450000X-0.350000X0.450000X-0.350000X0.450000X0.350000X0*%
%ADD22R,1.295400X1.295400*%
%ADD23C,1.295400*%
%ADD24RoundRect,0.250000X-0.450000X0.325000X-0.450000X-0.325000X0.450000X-0.325000X0.450000X0.325000X0*%
%ADD25RoundRect,0.250000X-0.325000X-0.450000X0.325000X-0.450000X0.325000X0.450000X-0.325000X0.450000X0*%
%ADD26R,1.600000X1.600000*%
%ADD27O,1.600000X1.600000*%
%ADD28C,1.260000*%
%ADD29RoundRect,0.375000X-0.375000X0.625000X-0.375000X-0.625000X0.375000X-0.625000X0.375000X0.625000X0*%
%ADD30RoundRect,0.500000X-1.400000X0.500000X-1.400000X-0.500000X1.400000X-0.500000X1.400000X0.500000X0*%
%ADD31RoundRect,0.075000X0.700000X0.075000X-0.700000X0.075000X-0.700000X-0.075000X0.700000X-0.075000X0*%
%ADD32RoundRect,0.075000X0.075000X0.700000X-0.075000X0.700000X-0.075000X-0.700000X0.075000X-0.700000X0*%
%ADD33RoundRect,0.250000X0.350000X0.450000X-0.350000X0.450000X-0.350000X-0.450000X0.350000X-0.450000X0*%
%ADD34C,2.180000*%
%ADD35RoundRect,0.102000X-0.765000X0.765000X-0.765000X-0.765000X0.765000X-0.765000X0.765000X0.765000X0*%
%ADD36C,1.734000*%
G04 APERTURE END LIST*
D10*
%TO.C,D6*%
X137591800Y-94853000D03*
X137591800Y-96903000D03*
%TD*%
D11*
%TO.C,R8*%
X139547600Y-94869000D03*
X139547600Y-96869000D03*
%TD*%
D12*
%TO.C,J21*%
X84404200Y-98475800D03*
X86944200Y-98475800D03*
X89484200Y-98475800D03*
D13*
X92024200Y-98475800D03*
%TD*%
D14*
%TO.C,H4*%
X70688200Y-113842800D03*
%TD*%
%TO.C,H3*%
X160731200Y-32715200D03*
%TD*%
%TO.C,H2*%
X70688200Y-32715200D03*
%TD*%
%TO.C,H1*%
X160731200Y-113842800D03*
%TD*%
D13*
%TO.C,J18*%
X149883400Y-100330000D03*
D12*
X147343400Y-100330000D03*
%TD*%
D15*
%TO.C,NRST*%
X151536400Y-70053200D03*
X158036400Y-70053200D03*
X151536400Y-74553200D03*
X158036400Y-74553200D03*
%TD*%
D10*
%TO.C,D9*%
X162966400Y-75320000D03*
X162966400Y-73270000D03*
%TD*%
D16*
%TO.C,J4*%
X70915400Y-50118400D03*
X70915400Y-41118400D03*
D17*
X71915400Y-45618400D03*
D18*
X77915400Y-45618400D03*
D19*
X68915400Y-45618400D03*
%TD*%
D20*
%TO.C,FB1*%
X141478000Y-98907600D03*
X139403000Y-98907600D03*
%TD*%
D13*
%TO.C,J27*%
X105968800Y-104978200D03*
D12*
X103428800Y-104978200D03*
X100888800Y-104978200D03*
X98348800Y-104978200D03*
%TD*%
D21*
%TO.C,R4*%
X137380000Y-82834000D03*
X137380000Y-84834000D03*
%TD*%
D22*
%TO.C,U6*%
X153822400Y-57099200D03*
D23*
X153822400Y-54559200D03*
X153822400Y-52019200D03*
X153822400Y-49479200D03*
X153822400Y-46939200D03*
X153822400Y-44399200D03*
X153822400Y-41859200D03*
X153822400Y-39319200D03*
X146202400Y-39319200D03*
X146202400Y-41859200D03*
X146202400Y-44399200D03*
X146202400Y-46939200D03*
X146202400Y-49479200D03*
X146202400Y-52019200D03*
X146202400Y-54559200D03*
X146202400Y-57099200D03*
%TD*%
D21*
%TO.C,R3*%
X135480000Y-82834000D03*
X135480000Y-84834000D03*
%TD*%
D24*
%TO.C,D7*%
X113258600Y-49461200D03*
X113258600Y-51511200D03*
%TD*%
D13*
%TO.C,J2*%
X161950400Y-95580200D03*
D12*
X161950400Y-93040200D03*
%TD*%
D13*
%TO.C,J20*%
X84658200Y-81051400D03*
D12*
X87198200Y-81051400D03*
X89738200Y-81051400D03*
%TD*%
D25*
%TO.C,D8*%
X93675200Y-81178400D03*
X95725200Y-81178400D03*
%TD*%
D13*
%TO.C,J36*%
X161950400Y-80619600D03*
D12*
X161950400Y-83159600D03*
X161950400Y-85699600D03*
X161950400Y-88239600D03*
%TD*%
D26*
%TO.C,U9*%
X146583400Y-80369600D03*
D27*
X146583400Y-82909600D03*
X146583400Y-85449600D03*
X146583400Y-87989600D03*
X146583400Y-90529600D03*
X146583400Y-93069600D03*
X156743400Y-93069600D03*
X156743400Y-90529600D03*
X156743400Y-87989600D03*
X156743400Y-85449600D03*
X156743400Y-82909600D03*
X156743400Y-80369600D03*
%TD*%
D28*
%TO.C,RV1*%
X113284000Y-41660000D03*
X115824000Y-44200000D03*
X113284000Y-46740000D03*
%TD*%
D21*
%TO.C,R6*%
X131630000Y-82834000D03*
X131630000Y-84834000D03*
%TD*%
D10*
%TO.C,D2*%
X137394000Y-88696800D03*
X137394000Y-86646800D03*
%TD*%
%TO.C,D1*%
X135494000Y-88696800D03*
X135494000Y-86646800D03*
%TD*%
D13*
%TO.C,J22*%
X91922600Y-105181400D03*
D12*
X89382600Y-105181400D03*
X86842600Y-105181400D03*
X84302600Y-105181400D03*
%TD*%
D29*
%TO.C,U13*%
X165317200Y-59994800D03*
X163017200Y-59994800D03*
D30*
X163017200Y-66294800D03*
D29*
X160717200Y-59994800D03*
%TD*%
D13*
%TO.C,U2*%
X136374000Y-99656200D03*
D12*
X133834000Y-99656200D03*
X131294000Y-99656200D03*
X128754000Y-99656200D03*
X126214000Y-99656200D03*
X123674000Y-99656200D03*
X121134000Y-99656200D03*
%TD*%
D31*
%TO.C,U4*%
X140901500Y-76345000D03*
X140901500Y-75845000D03*
X140901500Y-75345000D03*
X140901500Y-74845000D03*
X140901500Y-74345000D03*
X140901500Y-73845000D03*
X140901500Y-73345000D03*
X140901500Y-72845000D03*
X140901500Y-72345000D03*
X140901500Y-71845000D03*
X140901500Y-71345000D03*
X140901500Y-70845000D03*
X140901500Y-70345000D03*
X140901500Y-69845000D03*
X140901500Y-69345000D03*
X140901500Y-68845000D03*
D32*
X138976500Y-66920000D03*
X138476500Y-66920000D03*
X137976500Y-66920000D03*
X137476500Y-66920000D03*
X136976500Y-66920000D03*
X136476500Y-66920000D03*
X135976500Y-66920000D03*
X135476500Y-66920000D03*
X134976500Y-66920000D03*
X134476500Y-66920000D03*
X133976500Y-66920000D03*
X133476500Y-66920000D03*
X132976500Y-66920000D03*
X132476500Y-66920000D03*
X131976500Y-66920000D03*
X131476500Y-66920000D03*
D31*
X129551500Y-68845000D03*
X129551500Y-69345000D03*
X129551500Y-69845000D03*
X129551500Y-70345000D03*
X129551500Y-70845000D03*
X129551500Y-71345000D03*
X129551500Y-71845000D03*
X129551500Y-72345000D03*
X129551500Y-72845000D03*
X129551500Y-73345000D03*
X129551500Y-73845000D03*
X129551500Y-74345000D03*
X129551500Y-74845000D03*
X129551500Y-75345000D03*
X129551500Y-75845000D03*
X129551500Y-76345000D03*
D32*
X131476500Y-78270000D03*
X131976500Y-78270000D03*
X132476500Y-78270000D03*
X132976500Y-78270000D03*
X133476500Y-78270000D03*
X133976500Y-78270000D03*
X134476500Y-78270000D03*
X134976500Y-78270000D03*
X135476500Y-78270000D03*
X135976500Y-78270000D03*
X136476500Y-78270000D03*
X136976500Y-78270000D03*
X137476500Y-78270000D03*
X137976500Y-78270000D03*
X138476500Y-78270000D03*
X138976500Y-78270000D03*
%TD*%
D21*
%TO.C,R5*%
X139305000Y-82834000D03*
X139305000Y-84834000D03*
%TD*%
D22*
%TO.C,U5*%
X132080000Y-39319200D03*
D23*
X132080000Y-41859200D03*
X132080000Y-44399200D03*
X132080000Y-46939200D03*
X132080000Y-49479200D03*
X132080000Y-52019200D03*
X132080000Y-54559200D03*
X132080000Y-57099200D03*
X139700000Y-57099200D03*
X139700000Y-54559200D03*
X139700000Y-52019200D03*
X139700000Y-49479200D03*
X139700000Y-46939200D03*
X139700000Y-44399200D03*
X139700000Y-41859200D03*
X139700000Y-39319200D03*
%TD*%
D13*
%TO.C,J26*%
X105892600Y-98552000D03*
D12*
X103352600Y-98552000D03*
X100812600Y-98552000D03*
X98272600Y-98552000D03*
%TD*%
D33*
%TO.C,R9*%
X116376200Y-53848000D03*
X114376200Y-53848000D03*
%TD*%
D13*
%TO.C,J19*%
X115646200Y-104521000D03*
D12*
X115646200Y-101981000D03*
X115646200Y-99441000D03*
%TD*%
D13*
%TO.C,J5*%
X161975800Y-39925000D03*
D12*
X161975800Y-42465000D03*
X161975800Y-45005000D03*
X161975800Y-47545000D03*
X161975800Y-50085000D03*
%TD*%
D34*
%TO.C,U1*%
X98388500Y-62750900D03*
X85188500Y-75950900D03*
D35*
X84158500Y-61720900D03*
D36*
X84158500Y-64260900D03*
X84158500Y-66800900D03*
X84158500Y-69340900D03*
X84158500Y-71880900D03*
X94848500Y-61720900D03*
%TD*%
D21*
%TO.C,R11*%
X162966400Y-69189600D03*
X162966400Y-71189600D03*
%TD*%
%TO.C,R7*%
X133564000Y-82834000D03*
X133564000Y-84834000D03*
%TD*%
D26*
%TO.C,U10*%
X120650000Y-88900000D03*
D27*
X120650000Y-86360000D03*
X120650000Y-83820000D03*
X120650000Y-81280000D03*
X120650000Y-78740000D03*
X120650000Y-76200000D03*
X110490000Y-76200000D03*
X110490000Y-78740000D03*
X110490000Y-81280000D03*
X110490000Y-83820000D03*
X110490000Y-86360000D03*
X110490000Y-88900000D03*
%TD*%
D26*
%TO.C,U8*%
X120650000Y-72898000D03*
D27*
X120650000Y-70358000D03*
X120650000Y-67818000D03*
X120650000Y-65278000D03*
X120650000Y-62738000D03*
X120650000Y-60198000D03*
X110490000Y-60198000D03*
X110490000Y-62738000D03*
X110490000Y-65278000D03*
X110490000Y-67818000D03*
X110490000Y-70358000D03*
X110490000Y-72898000D03*
%TD*%
D13*
%TO.C,J13*%
X126238000Y-88631000D03*
D12*
X126238000Y-86091000D03*
X126238000Y-83551000D03*
%TD*%
D22*
%TO.C,U7*%
X84861400Y-92532200D03*
D23*
X87401400Y-92532200D03*
X89941400Y-92532200D03*
X92481400Y-92532200D03*
X95021400Y-92532200D03*
X97561400Y-92532200D03*
X100101400Y-92532200D03*
X100101400Y-84912200D03*
X97561400Y-84912200D03*
X95021400Y-84912200D03*
X92481400Y-84912200D03*
X89941400Y-84912200D03*
X87401400Y-84912200D03*
X84861400Y-84912200D03*
%TD*%
D10*
%TO.C,D3*%
X139319000Y-88696800D03*
X139319000Y-86646800D03*
%TD*%
D13*
%TO.C,J3*%
X121920000Y-41910000D03*
D12*
X124460000Y-41910000D03*
X121920000Y-44450000D03*
X124460000Y-44450000D03*
X121920000Y-46990000D03*
X124460000Y-46990000D03*
X121920000Y-49530000D03*
X124460000Y-49530000D03*
X121920000Y-52070000D03*
X124460000Y-52070000D03*
X121920000Y-54610000D03*
X124460000Y-54610000D03*
%TD*%
D34*
%TO.C,U3*%
X105064000Y-42676000D03*
X91864000Y-55876000D03*
D35*
X90834000Y-41646000D03*
D36*
X90834000Y-44186000D03*
X90834000Y-46726000D03*
X90834000Y-49266000D03*
X90834000Y-51806000D03*
X101524000Y-41646000D03*
%TD*%
D10*
%TO.C,D5*%
X133594000Y-88696800D03*
X133594000Y-86646800D03*
%TD*%
%TO.C,D4*%
X131642200Y-88696800D03*
X131642200Y-86646800D03*
%TD*%
M02*
