%TF.GenerationSoftware,KiCad,Pcbnew,9.0.0*%
%TF.CreationDate,2025-03-02T15:10:05-05:00*%
%TF.ProjectId,skee-ball,736b6565-2d62-4616-9c6c-2e6b69636164,rev?*%
%TF.SameCoordinates,Original*%
%TF.FileFunction,Copper,L1,Top*%
%TF.FilePolarity,Positive*%
%FSLAX46Y46*%
G04 Gerber Fmt 4.6, Leading zero omitted, Abs format (unit mm)*
G04 Created by KiCad (PCBNEW 9.0.0) date 2025-03-02 15:10:05*
%MOMM*%
%LPD*%
G01*
G04 APERTURE LIST*
G04 Aperture macros list*
%AMRoundRect*
0 Rectangle with rounded corners*
0 $1 Rounding radius*
0 $2 $3 $4 $5 $6 $7 $8 $9 X,Y pos of 4 corners*
0 Add a 4 corners polygon primitive as box body*
4,1,4,$2,$3,$4,$5,$6,$7,$8,$9,$2,$3,0*
0 Add four circle primitives for the rounded corners*
1,1,$1+$1,$2,$3*
1,1,$1+$1,$4,$5*
1,1,$1+$1,$6,$7*
1,1,$1+$1,$8,$9*
0 Add four rect primitives between the rounded corners*
20,1,$1+$1,$2,$3,$4,$5,0*
20,1,$1+$1,$4,$5,$6,$7,0*
20,1,$1+$1,$6,$7,$8,$9,0*
20,1,$1+$1,$8,$9,$2,$3,0*%
G04 Aperture macros list end*
%TA.AperFunction,SMDPad,CuDef*%
%ADD10RoundRect,0.250000X0.450000X-0.325000X0.450000X0.325000X-0.450000X0.325000X-0.450000X-0.325000X0*%
%TD*%
%TA.AperFunction,SMDPad,CuDef*%
%ADD11RoundRect,0.250000X0.450000X-0.350000X0.450000X0.350000X-0.450000X0.350000X-0.450000X-0.350000X0*%
%TD*%
%TA.AperFunction,ComponentPad*%
%ADD12O,1.700000X1.700000*%
%TD*%
%TA.AperFunction,ComponentPad*%
%ADD13R,1.700000X1.700000*%
%TD*%
%TA.AperFunction,ComponentPad*%
%ADD14C,2.000000*%
%TD*%
%TA.AperFunction,ComponentPad*%
%ADD15O,3.500000X2.000000*%
%TD*%
%TA.AperFunction,ComponentPad*%
%ADD16O,2.000000X3.300000*%
%TD*%
%TA.AperFunction,ComponentPad*%
%ADD17R,2.000000X4.000000*%
%TD*%
%TA.AperFunction,SMDPad,CuDef*%
%ADD18RoundRect,0.250000X0.337500X0.475000X-0.337500X0.475000X-0.337500X-0.475000X0.337500X-0.475000X0*%
%TD*%
%TA.AperFunction,SMDPad,CuDef*%
%ADD19RoundRect,0.250000X-0.450000X0.350000X-0.450000X-0.350000X0.450000X-0.350000X0.450000X0.350000X0*%
%TD*%
%TA.AperFunction,ComponentPad*%
%ADD20R,1.295400X1.295400*%
%TD*%
%TA.AperFunction,ComponentPad*%
%ADD21C,1.295400*%
%TD*%
%TA.AperFunction,SMDPad,CuDef*%
%ADD22RoundRect,0.250000X-0.450000X0.325000X-0.450000X-0.325000X0.450000X-0.325000X0.450000X0.325000X0*%
%TD*%
%TA.AperFunction,SMDPad,CuDef*%
%ADD23RoundRect,0.250000X-0.325000X-0.450000X0.325000X-0.450000X0.325000X0.450000X-0.325000X0.450000X0*%
%TD*%
%TA.AperFunction,ComponentPad*%
%ADD24R,1.600000X1.600000*%
%TD*%
%TA.AperFunction,ComponentPad*%
%ADD25O,1.600000X1.600000*%
%TD*%
%TA.AperFunction,ComponentPad*%
%ADD26C,1.260000*%
%TD*%
%TA.AperFunction,SMDPad,CuDef*%
%ADD27RoundRect,0.375000X-0.375000X0.625000X-0.375000X-0.625000X0.375000X-0.625000X0.375000X0.625000X0*%
%TD*%
%TA.AperFunction,SMDPad,CuDef*%
%ADD28RoundRect,0.500000X-1.400000X0.500000X-1.400000X-0.500000X1.400000X-0.500000X1.400000X0.500000X0*%
%TD*%
%TA.AperFunction,SMDPad,CuDef*%
%ADD29RoundRect,0.075000X0.700000X0.075000X-0.700000X0.075000X-0.700000X-0.075000X0.700000X-0.075000X0*%
%TD*%
%TA.AperFunction,SMDPad,CuDef*%
%ADD30RoundRect,0.075000X0.075000X0.700000X-0.075000X0.700000X-0.075000X-0.700000X0.075000X-0.700000X0*%
%TD*%
%TA.AperFunction,SMDPad,CuDef*%
%ADD31RoundRect,0.250000X0.350000X0.450000X-0.350000X0.450000X-0.350000X-0.450000X0.350000X-0.450000X0*%
%TD*%
%TA.AperFunction,ComponentPad*%
%ADD32R,1.530000X1.530000*%
%TD*%
%TA.AperFunction,ComponentPad*%
%ADD33C,1.530000*%
%TD*%
%TA.AperFunction,ViaPad*%
%ADD34C,0.600000*%
%TD*%
%TA.AperFunction,Conductor*%
%ADD35C,0.200000*%
%TD*%
%TA.AperFunction,Conductor*%
%ADD36C,0.400000*%
%TD*%
G04 APERTURE END LIST*
D10*
%TO.P,D6,2,A*%
%TO.N,Net-(D6-A)*%
X137591800Y-94853000D03*
%TO.P,D6,1,K*%
%TO.N,GND*%
X137591800Y-96903000D03*
%TD*%
D11*
%TO.P,R8,2*%
%TO.N,Net-(D6-A)*%
X139547600Y-94869000D03*
%TO.P,R8,1*%
%TO.N,VDDA*%
X139547600Y-96869000D03*
%TD*%
D12*
%TO.P,J21,4,Pin_4*%
%TO.N,GND*%
X84404200Y-98475800D03*
%TO.P,J21,3,Pin_3*%
%TO.N,US_ECHO0_5*%
X86944200Y-98475800D03*
%TO.P,J21,2,Pin_2*%
%TO.N,US_TRIG0_5*%
X89484200Y-98475800D03*
D13*
%TO.P,J21,1,Pin_1*%
%TO.N,+5V*%
X92024200Y-98475800D03*
%TD*%
%TO.P,J18,1,Pin_1*%
%TO.N,GND*%
X149883400Y-100330000D03*
D12*
%TO.P,J18,2,Pin_2*%
%TO.N,PWM_DC*%
X147343400Y-100330000D03*
%TD*%
D14*
%TO.P,NRST,1,1*%
%TO.N,GND*%
X151536400Y-70053200D03*
X158036400Y-70053200D03*
%TO.P,NRST,2,2*%
%TO.N,NRST*%
X151536400Y-74553200D03*
X158036400Y-74553200D03*
%TD*%
D10*
%TO.P,D9,1,K*%
%TO.N,GND*%
X162966400Y-75320000D03*
%TO.P,D9,2,A*%
%TO.N,Net-(D9-A)*%
X162966400Y-73270000D03*
%TD*%
D15*
%TO.P,J4,MP*%
%TO.N,N/C*%
X70915400Y-50118400D03*
X70915400Y-41118400D03*
D16*
%TO.P,J4,2*%
%TO.N,GND*%
X71915400Y-45618400D03*
D17*
%TO.P,J4,1*%
%TO.N,+24V*%
X77915400Y-45618400D03*
%TD*%
D18*
%TO.P,FB1,1*%
%TO.N,VDD*%
X141478000Y-98907600D03*
%TO.P,FB1,2*%
%TO.N,VDDA*%
X139403000Y-98907600D03*
%TD*%
D13*
%TO.P,J27,1,Pin_1*%
%TO.N,+5V*%
X105968800Y-104978200D03*
D12*
%TO.P,J27,2,Pin_2*%
%TO.N,US_TRIG3_5*%
X103428800Y-104978200D03*
%TO.P,J27,3,Pin_3*%
%TO.N,US_ECHO3_5*%
X100888800Y-104978200D03*
%TO.P,J27,4,Pin_4*%
%TO.N,GND*%
X98348800Y-104978200D03*
%TD*%
D19*
%TO.P,R4,1*%
%TO.N,PB6*%
X137380000Y-82834000D03*
%TO.P,R4,2*%
%TO.N,Net-(D2-A)*%
X137380000Y-84834000D03*
%TD*%
D20*
%TO.P,U6,1,QB*%
%TO.N,NHD_DB0*%
X153822400Y-57099200D03*
D21*
%TO.P,U6,2,QC*%
%TO.N,unconnected-(U6-QC-Pad2)*%
X153822400Y-54559200D03*
%TO.P,U6,3,QD*%
%TO.N,unconnected-(U6-QD-Pad3)*%
X153822400Y-52019200D03*
%TO.P,U6,4,QE*%
%TO.N,unconnected-(U6-QE-Pad4)*%
X153822400Y-49479200D03*
%TO.P,U6,5,QF*%
%TO.N,unconnected-(U6-QF-Pad5)*%
X153822400Y-46939200D03*
%TO.P,U6,6,QG*%
%TO.N,unconnected-(U6-QG-Pad6)*%
X153822400Y-44399200D03*
%TO.P,U6,7,QH*%
%TO.N,unconnected-(U6-QH-Pad7)*%
X153822400Y-41859200D03*
%TO.P,U6,8,GND*%
%TO.N,GND*%
X153822400Y-39319200D03*
%TO.P,U6,9,QH'*%
%TO.N,unconnected-(U6-QH&apos;-Pad9)*%
X146202400Y-39319200D03*
%TO.P,U6,10,~{SRCLR}*%
%TO.N,unconnected-(U6-~{SRCLR}-Pad10)*%
X146202400Y-41859200D03*
%TO.P,U6,11,SRCLK*%
%TO.N,SPI1-SCK*%
X146202400Y-44399200D03*
%TO.P,U6,12,RCLK*%
%TO.N,RCLK*%
X146202400Y-46939200D03*
%TO.P,U6,13,~{OE}*%
%TO.N,unconnected-(U6-~{OE}-Pad13)*%
X146202400Y-49479200D03*
%TO.P,U6,14,SER*%
%TO.N,SER-CHAIN*%
X146202400Y-52019200D03*
%TO.P,U6,15,QA*%
%TO.N,NHD_DB1*%
X146202400Y-54559200D03*
%TO.P,U6,16,VCC*%
%TO.N,+5V*%
X146202400Y-57099200D03*
%TD*%
D19*
%TO.P,R3,1*%
%TO.N,PB5*%
X135480000Y-82834000D03*
%TO.P,R3,2*%
%TO.N,Net-(D1-A)*%
X135480000Y-84834000D03*
%TD*%
D22*
%TO.P,D7,1,K*%
%TO.N,GND*%
X113258600Y-49461200D03*
%TO.P,D7,2,A*%
%TO.N,Net-(D7-A)*%
X113258600Y-51511200D03*
%TD*%
D13*
%TO.P,J2,1,Pin_1*%
%TO.N,VDD*%
X161950400Y-95580200D03*
D12*
%TO.P,J2,2,Pin_2*%
%TO.N,BUTTON_IN*%
X161950400Y-93040200D03*
%TD*%
D13*
%TO.P,J20,1,Pin_1*%
%TO.N,+6V*%
X84658200Y-81051400D03*
D12*
%TO.P,J20,2,Pin_2*%
%TO.N,PWM_SERVO_6*%
X87198200Y-81051400D03*
%TO.P,J20,3,Pin_3*%
%TO.N,GND*%
X89738200Y-81051400D03*
%TD*%
D23*
%TO.P,D8,1,K*%
%TO.N,GND*%
X93675200Y-81178400D03*
%TO.P,D8,2,A*%
%TO.N,Net-(D8-A)*%
X95725200Y-81178400D03*
%TD*%
D13*
%TO.P,J36,1,Pin_1*%
%TO.N,+5V*%
X161950400Y-80619600D03*
D12*
%TO.P,J36,2,Pin_2*%
%TO.N,US_TRIG4_5*%
X161950400Y-83159600D03*
%TO.P,J36,3,Pin_3*%
%TO.N,US_ECHO4_5*%
X161950400Y-85699600D03*
%TO.P,J36,4,Pin_4*%
%TO.N,GND*%
X161950400Y-88239600D03*
%TD*%
D24*
%TO.P,U9,1,LV4*%
%TO.N,US_TRIG4_3.3*%
X146583400Y-80369600D03*
D25*
%TO.P,U9,2,LV3*%
%TO.N,US_ECHO4_3.3*%
X146583400Y-82909600D03*
%TO.P,U9,3,GND*%
%TO.N,GND*%
X146583400Y-85449600D03*
%TO.P,U9,4,LV*%
%TO.N,VDD*%
X146583400Y-87989600D03*
%TO.P,U9,5,LV2*%
%TO.N,unconnected-(U9-LV2-Pad5)*%
X146583400Y-90529600D03*
%TO.P,U9,6,LV1*%
%TO.N,unconnected-(U9-LV1-Pad6)*%
X146583400Y-93069600D03*
%TO.P,U9,7,HV1*%
%TO.N,unconnected-(U9-HV1-Pad7)*%
X156743400Y-93069600D03*
%TO.P,U9,8,HV2*%
%TO.N,unconnected-(U9-HV2-Pad8)*%
X156743400Y-90529600D03*
%TO.P,U9,9,HV*%
%TO.N,+5V*%
X156743400Y-87989600D03*
%TO.P,U9,10,GND*%
%TO.N,GND*%
X156743400Y-85449600D03*
%TO.P,U9,11,HV3*%
%TO.N,US_ECHO4_5*%
X156743400Y-82909600D03*
%TO.P,U9,12,HV4*%
%TO.N,US_TRIG4_5*%
X156743400Y-80369600D03*
%TD*%
D26*
%TO.P,RV1,1,1*%
%TO.N,+5V*%
X113284000Y-41660000D03*
%TO.P,RV1,2,2*%
%TO.N,NHD_V0*%
X115824000Y-44200000D03*
%TO.P,RV1,3,3*%
%TO.N,GND*%
X113284000Y-46740000D03*
%TD*%
D19*
%TO.P,R6,1*%
%TO.N,PB3*%
X131630000Y-82834000D03*
%TO.P,R6,2*%
%TO.N,Net-(D4-A)*%
X131630000Y-84834000D03*
%TD*%
D10*
%TO.P,D2,1,K*%
%TO.N,GND*%
X137394000Y-88696800D03*
%TO.P,D2,2,A*%
%TO.N,Net-(D2-A)*%
X137394000Y-86646800D03*
%TD*%
%TO.P,D1,1,K*%
%TO.N,GND*%
X135494000Y-88696800D03*
%TO.P,D1,2,A*%
%TO.N,Net-(D1-A)*%
X135494000Y-86646800D03*
%TD*%
D13*
%TO.P,J22,1,Pin_1*%
%TO.N,+5V*%
X91922600Y-105181400D03*
D12*
%TO.P,J22,2,Pin_2*%
%TO.N,US_TRIG1_5*%
X89382600Y-105181400D03*
%TO.P,J22,3,Pin_3*%
%TO.N,US_ECHO1_5*%
X86842600Y-105181400D03*
%TO.P,J22,4,Pin_4*%
%TO.N,GND*%
X84302600Y-105181400D03*
%TD*%
D27*
%TO.P,U13,1,GND*%
%TO.N,GND*%
X165317200Y-59994800D03*
%TO.P,U13,2,VO*%
%TO.N,VDD*%
X163017200Y-59994800D03*
D28*
X163017200Y-66294800D03*
D27*
%TO.P,U13,3,VI*%
%TO.N,+5V*%
X160717200Y-59994800D03*
%TD*%
D13*
%TO.P,U2,1,LRCLK*%
%TO.N,SPI2-NSS(I2S_WS)*%
X136374000Y-99656200D03*
D12*
%TO.P,U2,2,BCLK*%
%TO.N,SPI2-SCK(I2S_CK)*%
X133834000Y-99656200D03*
%TO.P,U2,3,DIN*%
%TO.N,SPI2-MOSI(I2S_SD)*%
X131294000Y-99656200D03*
%TO.P,U2,4,GAIN*%
%TO.N,GND*%
X128754000Y-99656200D03*
%TO.P,U2,5,NC*%
%TO.N,unconnected-(U2-NC-Pad5)*%
X126214000Y-99656200D03*
%TO.P,U2,6,GND*%
%TO.N,GND*%
X123674000Y-99656200D03*
%TO.P,U2,7,VDD*%
%TO.N,VDDA*%
X121134000Y-99656200D03*
%TD*%
D29*
%TO.P,U4,1,VBAT*%
%TO.N,VDD*%
X140901500Y-76345000D03*
%TO.P,U4,2,PC13*%
%TO.N,BUTTON_IN*%
X140901500Y-75845000D03*
%TO.P,U4,3,PC14*%
%TO.N,US_ECHO4_3.3*%
X140901500Y-75345000D03*
%TO.P,U4,4,PC15*%
%TO.N,US_TRIG4_3.3*%
X140901500Y-74845000D03*
%TO.P,U4,5,PF0*%
%TO.N,unconnected-(U4-PF0-Pad5)*%
X140901500Y-74345000D03*
%TO.P,U4,6,PF1*%
%TO.N,unconnected-(U4-PF1-Pad6)*%
X140901500Y-73845000D03*
%TO.P,U4,7,NRST*%
%TO.N,NRST*%
X140901500Y-73345000D03*
%TO.P,U4,8,PC0*%
%TO.N,unconnected-(U4-PC0-Pad8)*%
X140901500Y-72845000D03*
%TO.P,U4,9,PC1*%
%TO.N,unconnected-(U4-PC1-Pad9)*%
X140901500Y-72345000D03*
%TO.P,U4,10,PC2*%
%TO.N,unconnected-(U4-PC2-Pad10)*%
X140901500Y-71845000D03*
%TO.P,U4,11,PC3*%
%TO.N,unconnected-(U4-PC3-Pad11)*%
X140901500Y-71345000D03*
%TO.P,U4,12,VSSA*%
%TO.N,GND*%
X140901500Y-70845000D03*
%TO.P,U4,13,VDDA*%
%TO.N,VDDA*%
X140901500Y-70345000D03*
%TO.P,U4,14,PA0*%
%TO.N,unconnected-(U4-PA0-Pad14)*%
X140901500Y-69845000D03*
%TO.P,U4,15,PA1*%
%TO.N,ADC_IN1*%
X140901500Y-69345000D03*
%TO.P,U4,16,PA2*%
%TO.N,NHD_E1*%
X140901500Y-68845000D03*
D30*
%TO.P,U4,17,PA3*%
%TO.N,NHD_E2*%
X138976500Y-66920000D03*
%TO.P,U4,18,VSS*%
%TO.N,GND*%
X138476500Y-66920000D03*
%TO.P,U4,19,VDD*%
%TO.N,VDD*%
X137976500Y-66920000D03*
%TO.P,U4,20,PA4*%
%TO.N,RCLK*%
X137476500Y-66920000D03*
%TO.P,U4,21,PA5*%
%TO.N,SPI1-SCK*%
X136976500Y-66920000D03*
%TO.P,U4,22,PA6*%
%TO.N,unconnected-(U4-PA6-Pad22)*%
X136476500Y-66920000D03*
%TO.P,U4,23,PA7*%
%TO.N,SPI1-MOSI*%
X135976500Y-66920000D03*
%TO.P,U4,24,PC4*%
%TO.N,unconnected-(U4-PC4-Pad24)*%
X135476500Y-66920000D03*
%TO.P,U4,25,PC5*%
%TO.N,unconnected-(U4-PC5-Pad25)*%
X134976500Y-66920000D03*
%TO.P,U4,26,PB0*%
%TO.N,unconnected-(U4-PB0-Pad26)*%
X134476500Y-66920000D03*
%TO.P,U4,27,PB1*%
%TO.N,unconnected-(U4-PB1-Pad27)*%
X133976500Y-66920000D03*
%TO.P,U4,28,PB2*%
%TO.N,unconnected-(U4-PB2-Pad28)*%
X133476500Y-66920000D03*
%TO.P,U4,29,PB10*%
%TO.N,unconnected-(U4-PB10-Pad29)*%
X132976500Y-66920000D03*
%TO.P,U4,30,PB11*%
%TO.N,unconnected-(U4-PB11-Pad30)*%
X132476500Y-66920000D03*
%TO.P,U4,31,VSS*%
%TO.N,GND*%
X131976500Y-66920000D03*
%TO.P,U4,32,VDD*%
%TO.N,VDD*%
X131476500Y-66920000D03*
D29*
%TO.P,U4,33,PB12*%
%TO.N,SPI2-NSS(I2S_WS)*%
X129551500Y-68845000D03*
%TO.P,U4,34,PB13*%
%TO.N,SPI2-SCK(I2S_CK)*%
X129551500Y-69345000D03*
%TO.P,U4,35,PB14*%
%TO.N,unconnected-(U4-PB14-Pad35)*%
X129551500Y-69845000D03*
%TO.P,U4,36,PB15*%
%TO.N,SPI2-MOSI(I2S_SD)*%
X129551500Y-70345000D03*
%TO.P,U4,37,PC6*%
%TO.N,US_ECHO0_3.3*%
X129551500Y-70845000D03*
%TO.P,U4,38,PC7*%
%TO.N,US_TRIG0_3.3*%
X129551500Y-71345000D03*
%TO.P,U4,39,PC8*%
%TO.N,US_ECHO1_3.3*%
X129551500Y-71845000D03*
%TO.P,U4,40,PC9*%
%TO.N,US_TRIG1_3.3*%
X129551500Y-72345000D03*
%TO.P,U4,41,PA8*%
%TO.N,US_ECHO2_3.3*%
X129551500Y-72845000D03*
%TO.P,U4,42,PA9*%
%TO.N,US_TRIG2_3.3*%
X129551500Y-73345000D03*
%TO.P,U4,43,PA10*%
%TO.N,US_ECHO3_3.3*%
X129551500Y-73845000D03*
%TO.P,U4,44,PA11*%
%TO.N,US_TRIG3_3.3*%
X129551500Y-74345000D03*
%TO.P,U4,45,PA12*%
%TO.N,unconnected-(U4-PA12-Pad45)*%
X129551500Y-74845000D03*
%TO.P,U4,46,PA13*%
%TO.N,SWDIO*%
X129551500Y-75345000D03*
%TO.P,U4,47,VSS*%
%TO.N,GND*%
X129551500Y-75845000D03*
%TO.P,U4,48,VDDIO2*%
%TO.N,VDD*%
X129551500Y-76345000D03*
D30*
%TO.P,U4,49,PA14*%
%TO.N,SWCLK*%
X131476500Y-78270000D03*
%TO.P,U4,50,PA15*%
%TO.N,unconnected-(U4-PA15-Pad50)*%
X131976500Y-78270000D03*
%TO.P,U4,51,PC10*%
%TO.N,unconnected-(U4-PC10-Pad51)*%
X132476500Y-78270000D03*
%TO.P,U4,52,PC11*%
%TO.N,unconnected-(U4-PC11-Pad52)*%
X132976500Y-78270000D03*
%TO.P,U4,53,PC12*%
%TO.N,unconnected-(U4-PC12-Pad53)*%
X133476500Y-78270000D03*
%TO.P,U4,54,PD2*%
%TO.N,unconnected-(U4-PD2-Pad54)*%
X133976500Y-78270000D03*
%TO.P,U4,55,PB3*%
%TO.N,PB3*%
X134476500Y-78270000D03*
%TO.P,U4,56,PB4*%
%TO.N,PB4*%
X134976500Y-78270000D03*
%TO.P,U4,57,PB5*%
%TO.N,PB5*%
X135476500Y-78270000D03*
%TO.P,U4,58,PB6*%
%TO.N,PB6*%
X135976500Y-78270000D03*
%TO.P,U4,59,PB7*%
%TO.N,PB7*%
X136476500Y-78270000D03*
%TO.P,U4,60,PF11*%
%TO.N,GND*%
X136976500Y-78270000D03*
%TO.P,U4,61,PB8*%
%TO.N,PWM_SERVO_3.3*%
X137476500Y-78270000D03*
%TO.P,U4,62,PB9*%
%TO.N,PWM_DC*%
X137976500Y-78270000D03*
%TO.P,U4,63,VSS*%
%TO.N,GND*%
X138476500Y-78270000D03*
%TO.P,U4,64,VDD*%
%TO.N,VDD*%
X138976500Y-78270000D03*
%TD*%
D19*
%TO.P,R5,1*%
%TO.N,PB7*%
X139305000Y-82834000D03*
%TO.P,R5,2*%
%TO.N,Net-(D3-A)*%
X139305000Y-84834000D03*
%TD*%
D20*
%TO.P,U5,1,QB*%
%TO.N,NHD_RW*%
X132080000Y-39319200D03*
D21*
%TO.P,U5,2,QC*%
%TO.N,NHD_DB7*%
X132080000Y-41859200D03*
%TO.P,U5,3,QD*%
%TO.N,NHD_DB6*%
X132080000Y-44399200D03*
%TO.P,U5,4,QE*%
%TO.N,NHD_DB5*%
X132080000Y-46939200D03*
%TO.P,U5,5,QF*%
%TO.N,NHD_DB4*%
X132080000Y-49479200D03*
%TO.P,U5,6,QG*%
%TO.N,NHD_DB3*%
X132080000Y-52019200D03*
%TO.P,U5,7,QH*%
%TO.N,NHD_DB2*%
X132080000Y-54559200D03*
%TO.P,U5,8,GND*%
%TO.N,GND*%
X132080000Y-57099200D03*
%TO.P,U5,9,QH'*%
%TO.N,SER-CHAIN*%
X139700000Y-57099200D03*
%TO.P,U5,10,~{SRCLR}*%
%TO.N,unconnected-(U5-~{SRCLR}-Pad10)*%
X139700000Y-54559200D03*
%TO.P,U5,11,SRCLK*%
%TO.N,SPI1-SCK*%
X139700000Y-52019200D03*
%TO.P,U5,12,RCLK*%
%TO.N,RCLK*%
X139700000Y-49479200D03*
%TO.P,U5,13,~{OE}*%
%TO.N,unconnected-(U5-~{OE}-Pad13)*%
X139700000Y-46939200D03*
%TO.P,U5,14,SER*%
%TO.N,SPI1-MOSI*%
X139700000Y-44399200D03*
%TO.P,U5,15,QA*%
%TO.N,NHD_RS*%
X139700000Y-41859200D03*
%TO.P,U5,16,VCC*%
%TO.N,+5V*%
X139700000Y-39319200D03*
%TD*%
D13*
%TO.P,J26,1,Pin_1*%
%TO.N,+5V*%
X105892600Y-98552000D03*
D12*
%TO.P,J26,2,Pin_2*%
%TO.N,US_TRIG2_5*%
X103352600Y-98552000D03*
%TO.P,J26,3,Pin_3*%
%TO.N,US_ECHO2_5*%
X100812600Y-98552000D03*
%TO.P,J26,4,Pin_4*%
%TO.N,GND*%
X98272600Y-98552000D03*
%TD*%
D31*
%TO.P,R9,1*%
%TO.N,+5V*%
X116376200Y-53848000D03*
%TO.P,R9,2*%
%TO.N,Net-(D7-A)*%
X114376200Y-53848000D03*
%TD*%
D13*
%TO.P,J19,1,Pin_1*%
%TO.N,GND*%
X115646200Y-104521000D03*
D12*
%TO.P,J19,2,Pin_2*%
%TO.N,VDDA*%
X115646200Y-101981000D03*
%TO.P,J19,3,Pin_3*%
%TO.N,ADC_IN1*%
X115646200Y-99441000D03*
%TD*%
D13*
%TO.P,J5,1,Pin_1*%
%TO.N,NHD_RS*%
X161975800Y-39925000D03*
D12*
%TO.P,J5,2,Pin_2*%
%TO.N,NHD_DB0*%
X161975800Y-42465000D03*
%TO.P,J5,3,Pin_3*%
%TO.N,NHD_DB1*%
X161975800Y-45005000D03*
%TO.P,J5,4,Pin_4*%
%TO.N,NHD_E2*%
X161975800Y-47545000D03*
%TO.P,J5,5,Pin_5*%
%TO.N,NHD_E1*%
X161975800Y-50085000D03*
%TD*%
D32*
%TO.P,U1,1,PG*%
%TO.N,unconnected-(U1-PG-Pad1)*%
X84158500Y-61720900D03*
D33*
%TO.P,U1,2,EN*%
%TO.N,unconnected-(U1-EN-Pad2)*%
X84158500Y-64260900D03*
%TO.P,U1,3,VIN*%
%TO.N,+24V*%
X84158500Y-66800900D03*
%TO.P,U1,4,GND*%
%TO.N,GND*%
X84158500Y-69340900D03*
%TO.P,U1,5,VOUT*%
%TO.N,+6V*%
X84158500Y-71880900D03*
%TO.P,U1,6,GND*%
%TO.N,GND*%
X94848500Y-61720900D03*
%TD*%
D19*
%TO.P,R11,1*%
%TO.N,VDD*%
X162966400Y-69189600D03*
%TO.P,R11,2*%
%TO.N,Net-(D9-A)*%
X162966400Y-71189600D03*
%TD*%
%TO.P,R7,1*%
%TO.N,PB4*%
X133564000Y-82834000D03*
%TO.P,R7,2*%
%TO.N,Net-(D5-A)*%
X133564000Y-84834000D03*
%TD*%
D24*
%TO.P,U10,1,LV4*%
%TO.N,US_TRIG3_3.3*%
X120650000Y-88900000D03*
D25*
%TO.P,U10,2,LV3*%
%TO.N,US_ECHO3_3.3*%
X120650000Y-86360000D03*
%TO.P,U10,3,GND*%
%TO.N,GND*%
X120650000Y-83820000D03*
%TO.P,U10,4,LV*%
%TO.N,VDD*%
X120650000Y-81280000D03*
%TO.P,U10,5,LV2*%
%TO.N,US_TRIG2_3.3*%
X120650000Y-78740000D03*
%TO.P,U10,6,LV1*%
%TO.N,US_ECHO2_3.3*%
X120650000Y-76200000D03*
%TO.P,U10,7,HV1*%
%TO.N,US_ECHO2_5*%
X110490000Y-76200000D03*
%TO.P,U10,8,HV2*%
%TO.N,US_TRIG2_5*%
X110490000Y-78740000D03*
%TO.P,U10,9,HV*%
%TO.N,+5V*%
X110490000Y-81280000D03*
%TO.P,U10,10,GND*%
%TO.N,GND*%
X110490000Y-83820000D03*
%TO.P,U10,11,HV3*%
%TO.N,US_ECHO3_5*%
X110490000Y-86360000D03*
%TO.P,U10,12,HV4*%
%TO.N,US_TRIG3_5*%
X110490000Y-88900000D03*
%TD*%
D24*
%TO.P,U8,1,LV4*%
%TO.N,US_TRIG1_3.3*%
X120650000Y-72898000D03*
D25*
%TO.P,U8,2,LV3*%
%TO.N,US_ECHO1_3.3*%
X120650000Y-70358000D03*
%TO.P,U8,3,GND*%
%TO.N,GND*%
X120650000Y-67818000D03*
%TO.P,U8,4,LV*%
%TO.N,VDD*%
X120650000Y-65278000D03*
%TO.P,U8,5,LV2*%
%TO.N,US_TRIG0_3.3*%
X120650000Y-62738000D03*
%TO.P,U8,6,LV1*%
%TO.N,US_ECHO0_3.3*%
X120650000Y-60198000D03*
%TO.P,U8,7,HV1*%
%TO.N,US_ECHO0_5*%
X110490000Y-60198000D03*
%TO.P,U8,8,HV2*%
%TO.N,US_TRIG0_5*%
X110490000Y-62738000D03*
%TO.P,U8,9,HV*%
%TO.N,+5V*%
X110490000Y-65278000D03*
%TO.P,U8,10,GND*%
%TO.N,GND*%
X110490000Y-67818000D03*
%TO.P,U8,11,HV3*%
%TO.N,US_ECHO1_5*%
X110490000Y-70358000D03*
%TO.P,U8,12,HV4*%
%TO.N,US_TRIG1_5*%
X110490000Y-72898000D03*
%TD*%
D13*
%TO.P,J13,1,Pin_1*%
%TO.N,GND*%
X126238000Y-88631000D03*
D12*
%TO.P,J13,2,Pin_2*%
%TO.N,SWCLK*%
X126238000Y-86091000D03*
%TO.P,J13,3,Pin_3*%
%TO.N,SWDIO*%
X126238000Y-83551000D03*
%TD*%
D20*
%TO.P,U7,1*%
%TO.N,GND*%
X84861400Y-92532200D03*
D21*
%TO.P,U7,2*%
X87401400Y-92532200D03*
%TO.P,U7,3*%
%TO.N,unconnected-(U7-Pad3)*%
X89941400Y-92532200D03*
%TO.P,U7,4*%
%TO.N,GND*%
X92481400Y-92532200D03*
%TO.P,U7,5*%
X95021400Y-92532200D03*
%TO.P,U7,6*%
%TO.N,unconnected-(U7-Pad6)*%
X97561400Y-92532200D03*
%TO.P,U7,7,GND*%
%TO.N,GND*%
X100101400Y-92532200D03*
%TO.P,U7,8*%
%TO.N,unconnected-(U7-Pad8)*%
X100101400Y-84912200D03*
%TO.P,U7,9*%
%TO.N,GND*%
X97561400Y-84912200D03*
%TO.P,U7,10*%
X95021400Y-84912200D03*
%TO.P,U7,11*%
%TO.N,PWM_SERVO_6*%
X92481400Y-84912200D03*
%TO.P,U7,12*%
%TO.N,PWM_SERVO_3.3*%
X89941400Y-84912200D03*
%TO.P,U7,13*%
%TO.N,+6V*%
X87401400Y-84912200D03*
%TO.P,U7,14,VCC*%
X84861400Y-84912200D03*
%TD*%
D10*
%TO.P,D3,1,K*%
%TO.N,GND*%
X139319000Y-88696800D03*
%TO.P,D3,2,A*%
%TO.N,Net-(D3-A)*%
X139319000Y-86646800D03*
%TD*%
D13*
%TO.P,J3,1,Pin_1*%
%TO.N,NHD_RW*%
X121920000Y-41910000D03*
D12*
%TO.P,J3,2,Pin_2*%
%TO.N,NHD_DB7*%
X124460000Y-41910000D03*
%TO.P,J3,3,Pin_3*%
%TO.N,NHD_V0*%
X121920000Y-44450000D03*
%TO.P,J3,4,Pin_4*%
%TO.N,NHD_DB6*%
X124460000Y-44450000D03*
%TO.P,J3,5,Pin_5*%
%TO.N,+5V*%
X121920000Y-46990000D03*
%TO.P,J3,6,Pin_6*%
%TO.N,NHD_DB5*%
X124460000Y-46990000D03*
%TO.P,J3,7,Pin_7*%
%TO.N,GND*%
X121920000Y-49530000D03*
%TO.P,J3,8,Pin_8*%
%TO.N,NHD_DB4*%
X124460000Y-49530000D03*
%TO.P,J3,9,Pin_9*%
%TO.N,GND*%
X121920000Y-52070000D03*
%TO.P,J3,10,Pin_10*%
%TO.N,NHD_DB3*%
X124460000Y-52070000D03*
%TO.P,J3,11,Pin_11*%
%TO.N,+5V*%
X121920000Y-54610000D03*
%TO.P,J3,12,Pin_12*%
%TO.N,NHD_DB2*%
X124460000Y-54610000D03*
%TD*%
D32*
%TO.P,U3,1,PG*%
%TO.N,unconnected-(U3-PG-Pad1)*%
X90834000Y-41646000D03*
D33*
%TO.P,U3,2,EN*%
%TO.N,unconnected-(U3-EN-Pad2)*%
X90834000Y-44186000D03*
%TO.P,U3,3,VIN*%
%TO.N,+24V*%
X90834000Y-46726000D03*
%TO.P,U3,4,GND*%
%TO.N,GND*%
X90834000Y-49266000D03*
%TO.P,U3,5,VOUT*%
%TO.N,+5V*%
X90834000Y-51806000D03*
%TO.P,U3,6,GND*%
%TO.N,GND*%
X101524000Y-41646000D03*
%TD*%
D10*
%TO.P,D5,1,K*%
%TO.N,GND*%
X133594000Y-88696800D03*
%TO.P,D5,2,A*%
%TO.N,Net-(D5-A)*%
X133594000Y-86646800D03*
%TD*%
%TO.P,D4,1,K*%
%TO.N,GND*%
X131642200Y-88696800D03*
%TO.P,D4,2,A*%
%TO.N,Net-(D4-A)*%
X131642200Y-86646800D03*
%TD*%
D34*
%TO.N,+5V*%
X84150200Y-101650800D03*
%TO.N,GND*%
X139890500Y-66230500D03*
%TO.N,SPI1-SCK*%
X137922000Y-62280800D03*
%TO.N,VDD*%
X145973800Y-97840800D03*
%TO.N,+5V*%
X93751400Y-53797200D03*
X73126600Y-53670200D03*
%TO.N,SPI2-NSS(I2S_WS)*%
X127609600Y-66700400D03*
X133553200Y-92405200D03*
%TO.N,VDD*%
X135000000Y-64500000D03*
X143052800Y-63677800D03*
X130251200Y-66649600D03*
X149500000Y-63000000D03*
X150876000Y-77876400D03*
X128000000Y-65000000D03*
X139979400Y-78663800D03*
X138709400Y-65176400D03*
X148500000Y-97815400D03*
X142000000Y-77000000D03*
X125000000Y-65000000D03*
X153000000Y-66500000D03*
X166000000Y-68500000D03*
X141782800Y-89916000D03*
X127000000Y-78500000D03*
X142500000Y-88000000D03*
X142189200Y-92506800D03*
X145500000Y-78000000D03*
%TO.N,GND*%
X165760400Y-57683400D03*
X131978400Y-65582800D03*
X135494000Y-90612200D03*
X139827000Y-79603600D03*
X137617200Y-98120200D03*
X93522800Y-79603600D03*
X142290800Y-71272400D03*
X162991800Y-76784200D03*
X128143000Y-76047600D03*
X113182400Y-48260000D03*
X123621800Y-101168200D03*
X136982200Y-80746600D03*
%TO.N,SPI2-SCK(I2S_CK)*%
X127558800Y-68503800D03*
X132054600Y-92456000D03*
%TO.N,SPI2-MOSI(I2S_SD)*%
X131419600Y-94284800D03*
X127508000Y-69799200D03*
%TO.N,NRST*%
X148183600Y-74553200D03*
%TO.N,SPI1-SCK*%
X141097000Y-52019200D03*
%TO.N,SPI1-MOSI*%
X141122400Y-44399200D03*
X140208000Y-61137800D03*
%TO.N,BUTTON_IN*%
X159867600Y-93040200D03*
%TO.N,RCLK*%
X143535400Y-60147200D03*
X144805400Y-46939200D03*
X142062200Y-49479200D03*
%TO.N,PWM_SERVO_3.3*%
X109931200Y-91897200D03*
X89941400Y-83769200D03*
%TO.N,+5V*%
X160717200Y-57785000D03*
X168021000Y-80441800D03*
X118643400Y-55473600D03*
%TO.N,Net-(D8-A)*%
X95732600Y-79756000D03*
%TO.N,ADC_IN1*%
X144272000Y-68808600D03*
%TO.N,VDDA*%
X141503400Y-97028000D03*
X142290800Y-70180200D03*
X141554200Y-94462600D03*
X139268200Y-100304600D03*
%TD*%
D35*
%TO.N,+5V*%
X73914000Y-101650800D02*
X84150200Y-101650800D01*
%TO.N,GND*%
X139890500Y-66230500D02*
X139903200Y-66243200D01*
X139437400Y-65777400D02*
X139890500Y-66230500D01*
X138810276Y-65777400D02*
X139437400Y-65777400D01*
%TO.N,SPI1-SCK*%
X137896600Y-62306200D02*
X137896600Y-62280800D01*
X136982200Y-63220600D02*
X137896600Y-62306200D01*
%TO.N,GND*%
X138476500Y-66920000D02*
X138476500Y-66111176D01*
X138476500Y-66111176D02*
X138810276Y-65777400D01*
%TO.N,+6V*%
X84861400Y-84912200D02*
X87401400Y-84912200D01*
%TO.N,SPI2-NSS(I2S_WS)*%
X136374000Y-98197800D02*
X136374000Y-99656200D01*
X127609600Y-66700400D02*
X127609600Y-66903100D01*
X127609600Y-66903100D02*
X129551500Y-68845000D01*
X133553200Y-92405200D02*
X133553200Y-95377000D01*
X133553200Y-95377000D02*
X136374000Y-98197800D01*
%TO.N,VDD*%
X137976500Y-66920000D02*
X137976500Y-65909300D01*
X163017200Y-58293000D02*
X163118800Y-58191400D01*
X142773400Y-98907600D02*
X143738600Y-97942400D01*
X131476500Y-66920000D02*
X130521600Y-66920000D01*
X140901500Y-76345000D02*
X141345000Y-76345000D01*
X130521600Y-66920000D02*
X130251200Y-66649600D01*
X163017200Y-59994800D02*
X163017200Y-58293000D01*
X137976500Y-65909300D02*
X138709400Y-65176400D01*
X141345000Y-76345000D02*
X142000000Y-77000000D01*
X139979400Y-78663800D02*
X139370300Y-78663800D01*
X139370300Y-78663800D02*
X138976500Y-78270000D01*
X127396500Y-78500000D02*
X129551500Y-76345000D01*
X127000000Y-78500000D02*
X127396500Y-78500000D01*
X141478000Y-98907600D02*
X142773400Y-98907600D01*
%TO.N,GND*%
X165317200Y-59994800D02*
X165317200Y-58126600D01*
X128345600Y-75845000D02*
X128143000Y-76047600D01*
X113284000Y-48158400D02*
X113182400Y-48260000D01*
X135494000Y-88696800D02*
X137394000Y-88696800D01*
X136976500Y-78270000D02*
X136976500Y-80740900D01*
X165317200Y-58126600D02*
X165760400Y-57683400D01*
X113258600Y-48336200D02*
X113182400Y-48260000D01*
X123674000Y-99656200D02*
X123674000Y-101116000D01*
X136976500Y-80740900D02*
X136982200Y-80746600D01*
X93522800Y-81026000D02*
X93675200Y-81178400D01*
X162966400Y-75320000D02*
X162966400Y-76758800D01*
X137591800Y-96903000D02*
X137591800Y-98094800D01*
X137394000Y-88696800D02*
X139319000Y-88696800D01*
X138741200Y-79838600D02*
X139592000Y-79838600D01*
X93522800Y-79603600D02*
X93522800Y-81026000D01*
X139592000Y-79838600D02*
X139827000Y-79603600D01*
X138476500Y-79573900D02*
X138741200Y-79838600D01*
X138476500Y-78270000D02*
X138476500Y-79573900D01*
X141863400Y-70845000D02*
X142290800Y-71272400D01*
X162966400Y-76758800D02*
X162991800Y-76784200D01*
X131976500Y-65584700D02*
X131978400Y-65582800D01*
X140901500Y-70845000D02*
X141863400Y-70845000D01*
X131976500Y-66920000D02*
X131976500Y-65584700D01*
X133594000Y-88696800D02*
X135494000Y-88696800D01*
X129551500Y-75845000D02*
X128345600Y-75845000D01*
X113284000Y-46740000D02*
X113284000Y-48158400D01*
X137591800Y-98094800D02*
X137617200Y-98120200D01*
X113258600Y-49461200D02*
X113258600Y-48336200D01*
X135494000Y-88696800D02*
X135494000Y-90612200D01*
X131642200Y-88696800D02*
X133594000Y-88696800D01*
X123674000Y-101116000D02*
X123621800Y-101168200D01*
%TO.N,SPI2-SCK(I2S_CK)*%
X133781800Y-98018600D02*
X133832600Y-98018600D01*
X132765800Y-97002600D02*
X133781800Y-98018600D01*
X128400000Y-69345000D02*
X129551500Y-69345000D01*
X133832600Y-98018600D02*
X133834000Y-98020000D01*
X133834000Y-98020000D02*
X133834000Y-99656200D01*
X132054600Y-92456000D02*
X132765800Y-93167200D01*
X127558800Y-68503800D02*
X128400000Y-69345000D01*
X132765800Y-93167200D02*
X132765800Y-97002600D01*
%TO.N,SPI2-MOSI(I2S_SD)*%
X127508000Y-69799200D02*
X128053800Y-70345000D01*
X131294000Y-94410400D02*
X131294000Y-99656200D01*
X128053800Y-70345000D02*
X129551500Y-70345000D01*
X131419600Y-94284800D02*
X131294000Y-94410400D01*
%TO.N,PWM_SERVO_6*%
X87198200Y-82397600D02*
X87198200Y-81051400D01*
X91973400Y-83134200D02*
X87934800Y-83134200D01*
X87934800Y-83134200D02*
X87198200Y-82397600D01*
X92481400Y-83642200D02*
X91973400Y-83134200D01*
X92481400Y-84912200D02*
X92481400Y-83642200D01*
%TO.N,US_TRIG0_5*%
X91370200Y-94507000D02*
X102876400Y-94507000D01*
X103606600Y-93776800D02*
X103606600Y-64541400D01*
X103606600Y-64541400D02*
X105410000Y-62738000D01*
X102876400Y-94507000D02*
X103606600Y-93776800D01*
X105410000Y-62738000D02*
X110490000Y-62738000D01*
X89484200Y-96393000D02*
X91370200Y-94507000D01*
X89484200Y-98475800D02*
X89484200Y-96393000D01*
%TO.N,NRST*%
X148183600Y-74553200D02*
X143717400Y-74553200D01*
X151536400Y-74553200D02*
X158036400Y-74553200D01*
X143717400Y-74553200D02*
X142494000Y-73329800D01*
X142494000Y-73329800D02*
X142478800Y-73345000D01*
X148183600Y-74553200D02*
X148103200Y-74553200D01*
X148103200Y-74553200D02*
X148082000Y-74574400D01*
X142478800Y-73345000D02*
X140901500Y-73345000D01*
X151536400Y-74553200D02*
X148183600Y-74553200D01*
%TO.N,US_ECHO0_5*%
X103073200Y-62255400D02*
X105130600Y-60198000D01*
X86944200Y-95986600D02*
X88823800Y-94107000D01*
X86944200Y-98475800D02*
X86944200Y-95986600D01*
X102641400Y-94107000D02*
X103073200Y-93675200D01*
X103073200Y-93675200D02*
X103073200Y-62255400D01*
X105130600Y-60198000D02*
X110490000Y-60198000D01*
X88823800Y-94107000D02*
X102641400Y-94107000D01*
%TO.N,PB4*%
X134976500Y-78270000D02*
X134976500Y-81421500D01*
X134976500Y-81421500D02*
X133564000Y-82834000D01*
%TO.N,SPI1-SCK*%
X136976500Y-63226300D02*
X136976500Y-66920000D01*
X144195800Y-44399200D02*
X146202400Y-44399200D01*
X141097000Y-52019200D02*
X143052800Y-50063400D01*
X143052800Y-45542200D02*
X144195800Y-44399200D01*
X143052800Y-50063400D02*
X143052800Y-45542200D01*
X136982200Y-63220600D02*
X136976500Y-63226300D01*
X139700000Y-52019200D02*
X141097000Y-52019200D01*
%TO.N,US_TRIG1_5*%
X89382600Y-103073200D02*
X91059000Y-101396800D01*
X103378000Y-95554800D02*
X104825800Y-94107000D01*
X104825800Y-94107000D02*
X104825800Y-74091800D01*
X104825800Y-74091800D02*
X106019600Y-72898000D01*
X106019600Y-72898000D02*
X110490000Y-72898000D01*
X93954600Y-101396800D02*
X94945200Y-100406200D01*
X94945200Y-97205800D02*
X96596200Y-95554800D01*
X96596200Y-95554800D02*
X103378000Y-95554800D01*
X94945200Y-100406200D02*
X94945200Y-97205800D01*
X89382600Y-105181400D02*
X89382600Y-103073200D01*
X91059000Y-101396800D02*
X93954600Y-101396800D01*
%TO.N,US_ECHO1_5*%
X103073200Y-94996000D02*
X104140000Y-93929200D01*
X105867200Y-70358000D02*
X110490000Y-70358000D01*
X86817200Y-102285800D02*
X88290400Y-100812600D01*
X94386400Y-100253800D02*
X94386400Y-96977200D01*
X86842600Y-102311200D02*
X86817200Y-102285800D01*
X88290400Y-100812600D02*
X93827600Y-100812600D01*
X96367600Y-94996000D02*
X103073200Y-94996000D01*
X93827600Y-100812600D02*
X94386400Y-100253800D01*
X104140000Y-93929200D02*
X104140000Y-72085200D01*
X94386400Y-96977200D02*
X96367600Y-94996000D01*
X86842600Y-105181400D02*
X86842600Y-102311200D01*
X104140000Y-72085200D02*
X105867200Y-70358000D01*
%TO.N,US_TRIG2_5*%
X103352600Y-97231200D02*
X106349800Y-94234000D01*
X106349800Y-94234000D02*
X106349800Y-79629000D01*
X103352600Y-98552000D02*
X103352600Y-97231200D01*
X107238800Y-78740000D02*
X110490000Y-78740000D01*
X106349800Y-79629000D02*
X107238800Y-78740000D01*
%TO.N,PB3*%
X131630000Y-82136400D02*
X131630000Y-82834000D01*
X134476500Y-80940900D02*
X133959600Y-81457800D01*
X134476500Y-78270000D02*
X134476500Y-80940900D01*
X133959600Y-81457800D02*
X132308600Y-81457800D01*
X132308600Y-81457800D02*
X131630000Y-82136400D01*
%TO.N,PB5*%
X135476500Y-78270000D02*
X135476500Y-82830500D01*
X135476500Y-82830500D02*
X135480000Y-82834000D01*
%TO.N,SPI1-MOSI*%
X135976500Y-63108700D02*
X135976500Y-66920000D01*
X139700000Y-44399200D02*
X141122400Y-44399200D01*
X135976500Y-63108700D02*
X137947400Y-61137800D01*
X137947400Y-61137800D02*
X140208000Y-61137800D01*
%TO.N,US_ECHO2_5*%
X107111800Y-76200000D02*
X110490000Y-76200000D01*
X103657400Y-96113600D02*
X105359200Y-94411800D01*
X105359200Y-77952600D02*
X107111800Y-76200000D01*
X105359200Y-94411800D02*
X105359200Y-77952600D01*
X101219000Y-96113600D02*
X103657400Y-96113600D01*
X100812600Y-98552000D02*
X100812600Y-96520000D01*
X100812600Y-96520000D02*
X101219000Y-96113600D01*
%TO.N,SWCLK*%
X129032000Y-81280000D02*
X130048000Y-80264000D01*
X126238000Y-86091000D02*
X126238000Y-85730256D01*
X129032000Y-82936256D02*
X129032000Y-81280000D01*
X131476500Y-79724500D02*
X131476500Y-78270000D01*
X130937000Y-80264000D02*
X131476500Y-79724500D01*
X130048000Y-80264000D02*
X130937000Y-80264000D01*
X126238000Y-85730256D02*
X129032000Y-82936256D01*
%TO.N,US_TRIG3_5*%
X103428800Y-102006400D02*
X103759000Y-101676200D01*
X103428800Y-104978200D02*
X103428800Y-102006400D01*
X109016800Y-100507800D02*
X109016800Y-89052400D01*
X103759000Y-101676200D02*
X107848400Y-101676200D01*
X109016800Y-89052400D02*
X109169200Y-88900000D01*
X107848400Y-101676200D02*
X109016800Y-100507800D01*
X109169200Y-88900000D02*
X110490000Y-88900000D01*
%TO.N,BUTTON_IN*%
X144348200Y-95529400D02*
X144907000Y-96088200D01*
X158724600Y-96088200D02*
X159283400Y-95529400D01*
X159283400Y-93548200D02*
X159791400Y-93040200D01*
X142030514Y-75845000D02*
X142900400Y-76714886D01*
X142900400Y-76714886D02*
X142900400Y-81280000D01*
X159791400Y-93040200D02*
X159867600Y-93040200D01*
X159283400Y-95529400D02*
X159283400Y-93548200D01*
X144907000Y-96088200D02*
X158724600Y-96088200D01*
X159867600Y-93040200D02*
X161950400Y-93040200D01*
X144348200Y-82727800D02*
X144348200Y-95529400D01*
X140901500Y-75845000D02*
X142030514Y-75845000D01*
X142900400Y-81280000D02*
X144348200Y-82727800D01*
%TO.N,US_ECHO3_5*%
X108864400Y-86360000D02*
X110490000Y-86360000D01*
X102387400Y-100838000D02*
X107823000Y-100838000D01*
X107823000Y-100838000D02*
X108305600Y-100355400D01*
X108305600Y-86918800D02*
X108864400Y-86360000D01*
X100888800Y-102336600D02*
X102387400Y-100838000D01*
X100888800Y-104978200D02*
X100888800Y-102336600D01*
X108305600Y-100355400D02*
X108305600Y-86918800D01*
%TO.N,SWDIO*%
X126966000Y-75345000D02*
X129551500Y-75345000D01*
X126238000Y-76073000D02*
X126966000Y-75345000D01*
X126238000Y-83551000D02*
X126238000Y-76073000D01*
%TO.N,US_TRIG4_5*%
X161950400Y-83159600D02*
X159533400Y-83159600D01*
X159533400Y-83159600D02*
X156743400Y-80369600D01*
%TO.N,RCLK*%
X139700000Y-49479200D02*
X141198600Y-49479200D01*
X140131800Y-62661800D02*
X142189200Y-62661800D01*
X142367000Y-62484000D02*
X143535400Y-61315600D01*
X146202400Y-46939200D02*
X144805400Y-46939200D01*
X142189200Y-62661800D02*
X142367000Y-62484000D01*
X137476500Y-65317100D02*
X140131800Y-62661800D01*
X143535400Y-61315600D02*
X143535400Y-61061600D01*
X143535400Y-61061600D02*
X143535400Y-60147200D01*
X137476500Y-66920000D02*
X137476500Y-65317100D01*
X141198600Y-49479200D02*
X142062200Y-49479200D01*
%TO.N,PWM_SERVO_3.3*%
X137476500Y-80123300D02*
X137476500Y-78270000D01*
X138049000Y-80695800D02*
X137476500Y-80123300D01*
X129301072Y-91389200D02*
X142113000Y-91389200D01*
X143541800Y-83115200D02*
X141122400Y-80695800D01*
X109931200Y-91897200D02*
X128793071Y-91897200D01*
X142113000Y-91389200D02*
X143541800Y-89960400D01*
X141122400Y-80695800D02*
X138049000Y-80695800D01*
X128793071Y-91897200D02*
X129301072Y-91389200D01*
X143541800Y-89960400D02*
X143541800Y-83115200D01*
X89941400Y-84912200D02*
X89941400Y-83769200D01*
X89941400Y-83769200D02*
X89941400Y-83693000D01*
%TO.N,+5V*%
X139700000Y-39319200D02*
X139700000Y-37084000D01*
X113284000Y-41660000D02*
X113284000Y-38608000D01*
D36*
X121920000Y-46990000D02*
X119608600Y-46990000D01*
D35*
X160717200Y-57785000D02*
X160717200Y-54014400D01*
X166446200Y-53848000D02*
X167741600Y-53848000D01*
X167741600Y-53848000D02*
X168452800Y-54559200D01*
X160717200Y-54014400D02*
X160731200Y-54000400D01*
X160928200Y-59783800D02*
X160717200Y-59994800D01*
%TO.N,GND*%
X84404200Y-105079800D02*
X84302600Y-105181400D01*
%TO.N,+5V*%
X118313200Y-53848000D02*
X118338600Y-53873400D01*
X121920000Y-54610000D02*
X119557800Y-54610000D01*
X116376200Y-53848000D02*
X118313200Y-53848000D01*
X119557800Y-54610000D02*
X119481600Y-54533800D01*
X113284000Y-38608000D02*
X113309400Y-38582600D01*
X160717200Y-59994800D02*
X160717200Y-57785000D01*
X168452800Y-80010000D02*
X168046400Y-80416400D01*
X168452800Y-54559200D02*
X168452800Y-80010000D01*
%TO.N,US_ECHO0_3.3*%
X126492000Y-70612000D02*
X126492000Y-62357000D01*
X126492000Y-62357000D02*
X126403100Y-62268100D01*
X129551500Y-70845000D02*
X126725000Y-70845000D01*
X124333000Y-60198000D02*
X120650000Y-60198000D01*
X126403100Y-62268100D02*
X124333000Y-60198000D01*
X126725000Y-70845000D02*
X126492000Y-70612000D01*
%TO.N,US_ECHO3_3.3*%
X123037600Y-74218800D02*
X123418600Y-73837800D01*
X123425800Y-73845000D02*
X129551500Y-73845000D01*
X123037600Y-85344000D02*
X123037600Y-74218800D01*
X123418600Y-73837800D02*
X123425800Y-73845000D01*
X122021600Y-86360000D02*
X123037600Y-85344000D01*
X120650000Y-86360000D02*
X122021600Y-86360000D01*
%TO.N,US_ECHO2_3.3*%
X129551500Y-72845000D02*
X122411686Y-72845000D01*
X122047000Y-73209686D02*
X122047000Y-76073000D01*
X122047000Y-76073000D02*
X121920000Y-76200000D01*
X122411686Y-72845000D02*
X122047000Y-73209686D01*
X121920000Y-76200000D02*
X120650000Y-76200000D01*
%TO.N,US_ECHO1_3.3*%
X122174000Y-71628000D02*
X122391000Y-71845000D01*
X122391000Y-71845000D02*
X129551500Y-71845000D01*
X120650000Y-70358000D02*
X121920000Y-70358000D01*
X121920000Y-70358000D02*
X122174000Y-70612000D01*
X122174000Y-70612000D02*
X122174000Y-71628000D01*
%TO.N,US_ECHO4_3.3*%
X146583400Y-82909600D02*
X145215800Y-82909600D01*
X142096200Y-75345000D02*
X140901500Y-75345000D01*
X143357600Y-76606400D02*
X142096200Y-75345000D01*
X145215800Y-82909600D02*
X143357600Y-81051400D01*
X143357600Y-81051400D02*
X143357600Y-76606400D01*
%TO.N,Net-(D1-A)*%
X135480000Y-86632800D02*
X135494000Y-86646800D01*
X135480000Y-84834000D02*
X135480000Y-86632800D01*
%TO.N,Net-(D2-A)*%
X137380000Y-84834000D02*
X137380000Y-86632800D01*
X137380000Y-86632800D02*
X137394000Y-86646800D01*
%TO.N,Net-(D3-A)*%
X139305000Y-84834000D02*
X139305000Y-86632800D01*
X139305000Y-86632800D02*
X139319000Y-86646800D01*
%TO.N,Net-(D4-A)*%
X131630000Y-84834000D02*
X131630000Y-86634600D01*
X131630000Y-86634600D02*
X131642200Y-86646800D01*
%TO.N,Net-(D5-A)*%
X133564000Y-84834000D02*
X133564000Y-86616800D01*
X133564000Y-86616800D02*
X133594000Y-86646800D01*
%TO.N,Net-(D7-A)*%
X114376200Y-53848000D02*
X114376200Y-52628800D01*
X114376200Y-52628800D02*
X113258600Y-51511200D01*
%TO.N,Net-(D8-A)*%
X95649800Y-81103000D02*
X95725200Y-81178400D01*
X95725200Y-81178400D02*
X95725200Y-79712600D01*
%TO.N,Net-(D9-A)*%
X162966400Y-73270000D02*
X162966400Y-71189600D01*
%TO.N,US_ECHO4_5*%
X159533400Y-85699600D02*
X156743400Y-82909600D01*
X161950400Y-85699600D02*
X159533400Y-85699600D01*
%TO.N,+6V*%
X84658200Y-84709000D02*
X84861400Y-84912200D01*
%TO.N,SER-CHAIN*%
X144348200Y-52374800D02*
X144703800Y-52019200D01*
X144348200Y-53746400D02*
X144348200Y-52374800D01*
X140995400Y-57099200D02*
X144348200Y-53746400D01*
X139700000Y-57099200D02*
X140995400Y-57099200D01*
X144703800Y-52019200D02*
X146202400Y-52019200D01*
%TO.N,ADC_IN1*%
X143735600Y-69345000D02*
X140901500Y-69345000D01*
X144272000Y-68808600D02*
X143735600Y-69345000D01*
%TO.N,PB6*%
X135976500Y-81430500D02*
X137380000Y-82834000D01*
X135976500Y-78270000D02*
X135976500Y-81430500D01*
%TO.N,PB7*%
X136381200Y-80497657D02*
X136381200Y-80995543D01*
X136741857Y-81356200D02*
X138938000Y-81356200D01*
X136476500Y-78270000D02*
X136476500Y-80402357D01*
X136476500Y-80402357D02*
X136381200Y-80497657D01*
X136381200Y-80995543D02*
X136741857Y-81356200D01*
X139305000Y-81723200D02*
X139305000Y-82834000D01*
X138938000Y-81356200D02*
X139305000Y-81723200D01*
%TO.N,PWM_DC*%
X138226800Y-80238600D02*
X137976500Y-79988300D01*
X147343400Y-97127600D02*
X146761200Y-96545400D01*
X143941800Y-95732600D02*
X143941800Y-82887086D01*
X143941800Y-82887086D02*
X141293314Y-80238600D01*
X146761200Y-96545400D02*
X144754600Y-96545400D01*
X141293314Y-80238600D02*
X138226800Y-80238600D01*
X137976500Y-79988300D02*
X137976500Y-78270000D01*
X144754600Y-96545400D02*
X143941800Y-95732600D01*
X147343400Y-100330000D02*
X147343400Y-97127600D01*
%TO.N,VDDA*%
X140901500Y-70345000D02*
X142126000Y-70345000D01*
X141503400Y-94513400D02*
X141554200Y-94462600D01*
X138895000Y-99415600D02*
X138353800Y-99415600D01*
X141503400Y-97028000D02*
X141503400Y-94513400D01*
X139547600Y-96869000D02*
X139547600Y-98763000D01*
X142126000Y-70345000D02*
X142290800Y-70180200D01*
X139547600Y-98763000D02*
X139403000Y-98907600D01*
X139403000Y-98907600D02*
X138895000Y-99415600D01*
%TO.N,US_TRIG3_3.3*%
X123825000Y-74726800D02*
X124206800Y-74345000D01*
X124206800Y-74345000D02*
X129551500Y-74345000D01*
X122123200Y-88900000D02*
X123825000Y-87198200D01*
X120650000Y-88900000D02*
X122123200Y-88900000D01*
X123825000Y-87198200D02*
X123825000Y-74726800D01*
%TO.N,US_TRIG4_3.3*%
X146583400Y-80369600D02*
X145012600Y-80369600D01*
X144221200Y-79578200D02*
X144221200Y-76631800D01*
X142443200Y-74853800D02*
X142290800Y-74853800D01*
X144221200Y-76631800D02*
X142443200Y-74853800D01*
X142282000Y-74845000D02*
X140901500Y-74845000D01*
X145012600Y-80369600D02*
X144221200Y-79578200D01*
X142290800Y-74853800D02*
X142282000Y-74845000D01*
%TO.N,US_TRIG2_3.3*%
X122555000Y-73660000D02*
X122870000Y-73345000D01*
X122555000Y-76835000D02*
X122555000Y-73660000D01*
X122870000Y-73345000D02*
X129551500Y-73345000D01*
X120650000Y-78740000D02*
X122555000Y-76835000D01*
%TO.N,US_TRIG0_3.3*%
X126314200Y-71348600D02*
X126441200Y-71348600D01*
X126034800Y-64439800D02*
X126034800Y-71069200D01*
X126034800Y-71069200D02*
X126314200Y-71348600D01*
X126441200Y-71348600D02*
X126444800Y-71345000D01*
X126444800Y-71345000D02*
X129551500Y-71345000D01*
X124333000Y-62738000D02*
X120650000Y-62738000D01*
X124333000Y-62738000D02*
X126034800Y-64439800D01*
%TO.N,US_TRIG1_3.3*%
X120650000Y-72898000D02*
X121793000Y-72898000D01*
X121793000Y-72898000D02*
X122346000Y-72345000D01*
X122346000Y-72345000D02*
X129551500Y-72345000D01*
%TO.N,NHD_DB4*%
X124460000Y-49530000D02*
X132080000Y-49530000D01*
%TO.N,NHD_DB6*%
X124460000Y-44450000D02*
X132080000Y-44450000D01*
%TO.N,NHD_E2*%
X148802200Y-66920000D02*
X138976500Y-66920000D01*
X157607000Y-58115200D02*
X148802200Y-66920000D01*
X158271200Y-47545000D02*
X157607000Y-48209200D01*
X157607000Y-48209200D02*
X157607000Y-58115200D01*
X161975800Y-47545000D02*
X158271200Y-47545000D01*
%TO.N,NHD_RS*%
X161975800Y-39925000D02*
X159490400Y-37439600D01*
X142138400Y-41275000D02*
X141554200Y-41859200D01*
X159490400Y-37439600D02*
X143865600Y-37439600D01*
X142138400Y-39166800D02*
X142138400Y-41275000D01*
X141554200Y-41859200D02*
X139700000Y-41859200D01*
X143865600Y-37439600D02*
X142138400Y-39166800D01*
%TO.N,NHD_RW*%
X121920000Y-40182800D02*
X121920000Y-41910000D01*
X132080000Y-39319200D02*
X122783600Y-39319200D01*
X122783600Y-39319200D02*
X121920000Y-40182800D01*
%TO.N,NHD_DB7*%
X132080000Y-41910000D02*
X124460000Y-41910000D01*
%TO.N,NHD_E1*%
X158343600Y-58420000D02*
X149047200Y-67716400D01*
X158753800Y-50085000D02*
X158343600Y-50495200D01*
X142051200Y-68845000D02*
X140901500Y-68845000D01*
X143179800Y-67716400D02*
X142051200Y-68845000D01*
X158343600Y-50495200D02*
X158343600Y-58420000D01*
X161975800Y-50085000D02*
X158753800Y-50085000D01*
X149047200Y-67716400D02*
X143179800Y-67716400D01*
%TO.N,NHD_DB2*%
X124460000Y-54610000D02*
X132080000Y-54610000D01*
%TO.N,NHD_DB0*%
X158042600Y-42465000D02*
X161975800Y-42465000D01*
X153822400Y-57099200D02*
X155117800Y-57099200D01*
X155422600Y-45085000D02*
X158042600Y-42465000D01*
X155422600Y-56794400D02*
X155422600Y-45085000D01*
X155117800Y-57099200D02*
X155422600Y-56794400D01*
%TO.N,NHD_DB3*%
X132080000Y-52070000D02*
X124460000Y-52070000D01*
%TO.N,NHD_DB1*%
X161975800Y-45005000D02*
X157483800Y-45005000D01*
X145669000Y-60198000D02*
X143586200Y-58115200D01*
X156641800Y-45847000D02*
X156641800Y-57683400D01*
X157483800Y-45005000D02*
X156641800Y-45847000D01*
X143586200Y-55372000D02*
X144399000Y-54559200D01*
X143586200Y-58115200D02*
X143586200Y-55372000D01*
X144399000Y-54559200D02*
X146202400Y-54559200D01*
X156641800Y-57683400D02*
X154127200Y-60198000D01*
X154127200Y-60198000D02*
X145669000Y-60198000D01*
%TO.N,NHD_DB5*%
X132080000Y-46990000D02*
X124460000Y-46990000D01*
%TO.N,Net-(D6-A)*%
X139531600Y-94853000D02*
X139547600Y-94869000D01*
X137591800Y-94853000D02*
X139531600Y-94853000D01*
%TD*%
%TA.AperFunction,Conductor*%
%TO.N,+5V*%
G36*
X167665400Y-54740000D02*
G01*
X167645715Y-54807039D01*
X167592911Y-54852794D01*
X167541400Y-54864000D01*
X165049200Y-54864000D01*
X165100000Y-53340000D01*
X165053364Y-53340000D01*
X165100000Y-36271200D01*
X167665400Y-36195000D01*
X167665400Y-54740000D01*
G37*
%TD.AperFunction*%
%TD*%
%TA.AperFunction,Conductor*%
%TO.N,VDD*%
G36*
X124099942Y-63358185D02*
G01*
X124120584Y-63374819D01*
X125397981Y-64652216D01*
X125431466Y-64713539D01*
X125434300Y-64739897D01*
X125434300Y-67376000D01*
X125414615Y-67443039D01*
X125361811Y-67488794D01*
X125310300Y-67500000D01*
X122124000Y-67500000D01*
X122056961Y-67480315D01*
X122011206Y-67427511D01*
X122000000Y-67376000D01*
X122000000Y-66500000D01*
X122500000Y-66500000D01*
X122500000Y-64000000D01*
X122000000Y-64000000D01*
X122000000Y-63462500D01*
X122019685Y-63395461D01*
X122072489Y-63349706D01*
X122124000Y-63338500D01*
X124032903Y-63338500D01*
X124099942Y-63358185D01*
G37*
%TD.AperFunction*%
%TA.AperFunction,Conductor*%
G36*
X137503641Y-60519685D02*
G01*
X137549396Y-60572489D01*
X137559340Y-60641647D01*
X137530315Y-60705203D01*
X137524283Y-60711681D01*
X135500642Y-62735321D01*
X135500640Y-62735323D01*
X135495980Y-62739984D01*
X135466475Y-62791089D01*
X135465705Y-62792422D01*
X135465695Y-62792439D01*
X135451482Y-62817057D01*
X135416923Y-62876915D01*
X135375999Y-63029643D01*
X135375999Y-63029645D01*
X135375999Y-63197746D01*
X135376000Y-63197759D01*
X135376000Y-65534146D01*
X135375833Y-65534713D01*
X135375995Y-65535283D01*
X135365997Y-65568209D01*
X135356315Y-65601185D01*
X135355868Y-65601572D01*
X135355696Y-65602139D01*
X135329464Y-65624451D01*
X135303511Y-65646940D01*
X135302775Y-65647152D01*
X135302475Y-65647408D01*
X135276273Y-65654802D01*
X135268521Y-65657041D01*
X135268494Y-65657044D01*
X135251264Y-65659313D01*
X135251092Y-65659383D01*
X135243021Y-65660469D01*
X135222977Y-65657399D01*
X135210184Y-65657399D01*
X135209792Y-65660374D01*
X135201737Y-65659313D01*
X135201736Y-65659313D01*
X135167472Y-65654802D01*
X135089227Y-65644500D01*
X135089220Y-65644500D01*
X134863780Y-65644500D01*
X134863772Y-65644500D01*
X134785528Y-65654802D01*
X134751264Y-65659313D01*
X134751262Y-65659313D01*
X134743208Y-65660374D01*
X134742816Y-65657399D01*
X134710184Y-65657399D01*
X134709792Y-65660374D01*
X134701737Y-65659313D01*
X134701736Y-65659313D01*
X134667472Y-65654802D01*
X134589227Y-65644500D01*
X134589220Y-65644500D01*
X134363780Y-65644500D01*
X134363772Y-65644500D01*
X134285528Y-65654802D01*
X134251264Y-65659313D01*
X134251262Y-65659313D01*
X134243208Y-65660374D01*
X134242816Y-65657399D01*
X134210184Y-65657399D01*
X134209792Y-65660374D01*
X134201737Y-65659313D01*
X134201736Y-65659313D01*
X134167472Y-65654802D01*
X134089227Y-65644500D01*
X134089220Y-65644500D01*
X133863780Y-65644500D01*
X133863772Y-65644500D01*
X133785528Y-65654802D01*
X133751264Y-65659313D01*
X133751262Y-65659313D01*
X133743208Y-65660374D01*
X133742816Y-65657399D01*
X133710184Y-65657399D01*
X133709792Y-65660374D01*
X133701737Y-65659313D01*
X133701736Y-65659313D01*
X133667472Y-65654802D01*
X133589227Y-65644500D01*
X133589220Y-65644500D01*
X133363780Y-65644500D01*
X133363772Y-65644500D01*
X133285528Y-65654802D01*
X133251264Y-65659313D01*
X133251262Y-65659313D01*
X133243208Y-65660374D01*
X133242816Y-65657399D01*
X133210184Y-65657399D01*
X133209792Y-65660374D01*
X133201737Y-65659313D01*
X133201736Y-65659313D01*
X133167472Y-65654802D01*
X133089227Y-65644500D01*
X133089220Y-65644500D01*
X132902900Y-65644500D01*
X132835861Y-65624815D01*
X132790106Y-65572011D01*
X132778900Y-65520500D01*
X132778900Y-65503955D01*
X132778899Y-65503953D01*
X132770308Y-65460763D01*
X132748137Y-65349303D01*
X132726423Y-65296880D01*
X132687797Y-65203627D01*
X132687790Y-65203614D01*
X132600189Y-65072511D01*
X132600186Y-65072507D01*
X132488692Y-64961013D01*
X132488688Y-64961010D01*
X132357585Y-64873409D01*
X132357572Y-64873402D01*
X132211901Y-64813064D01*
X132211889Y-64813061D01*
X132057245Y-64782300D01*
X132057242Y-64782300D01*
X131899558Y-64782300D01*
X131899555Y-64782300D01*
X131744910Y-64813061D01*
X131744898Y-64813064D01*
X131599227Y-64873402D01*
X131599214Y-64873409D01*
X131468111Y-64961010D01*
X131468107Y-64961013D01*
X131356613Y-65072507D01*
X131356610Y-65072511D01*
X131269009Y-65203614D01*
X131269002Y-65203627D01*
X131208664Y-65349298D01*
X131208661Y-65349310D01*
X131177900Y-65503953D01*
X131177900Y-65607821D01*
X131158215Y-65674860D01*
X131115905Y-65715205D01*
X131111525Y-65717733D01*
X130991405Y-65809905D01*
X130899236Y-65930021D01*
X130841301Y-66069891D01*
X130841300Y-66069895D01*
X130826500Y-66182302D01*
X130826500Y-66770000D01*
X131202000Y-66770000D01*
X131210685Y-66772550D01*
X131219647Y-66771262D01*
X131243687Y-66782240D01*
X131269039Y-66789685D01*
X131274966Y-66796525D01*
X131283203Y-66800287D01*
X131297492Y-66822521D01*
X131314794Y-66842489D01*
X131317081Y-66853003D01*
X131320977Y-66859065D01*
X131326000Y-66894000D01*
X131326000Y-66946000D01*
X131306315Y-67013039D01*
X131253511Y-67058794D01*
X131202000Y-67070000D01*
X130826500Y-67070000D01*
X130826500Y-67376000D01*
X130806815Y-67443039D01*
X130754011Y-67488794D01*
X130702500Y-67500000D01*
X129107097Y-67500000D01*
X129040058Y-67480315D01*
X129019416Y-67463681D01*
X128444503Y-66888768D01*
X128411018Y-66827445D01*
X128410644Y-66785419D01*
X128409503Y-66785307D01*
X128410100Y-66779244D01*
X128410100Y-66621555D01*
X128410099Y-66621553D01*
X128379338Y-66466910D01*
X128379337Y-66466903D01*
X128379335Y-66466898D01*
X128318997Y-66321227D01*
X128318990Y-66321214D01*
X128231389Y-66190111D01*
X128231386Y-66190107D01*
X128119892Y-66078613D01*
X128119888Y-66078610D01*
X127988785Y-65991009D01*
X127988772Y-65991002D01*
X127843101Y-65930664D01*
X127843089Y-65930661D01*
X127688445Y-65899900D01*
X127688442Y-65899900D01*
X127530758Y-65899900D01*
X127530755Y-65899900D01*
X127376110Y-65930661D01*
X127376098Y-65930664D01*
X127263952Y-65977116D01*
X127194482Y-65984585D01*
X127132003Y-65953309D01*
X127096351Y-65893220D01*
X127092500Y-65862555D01*
X127092500Y-62446060D01*
X127092501Y-62446047D01*
X127092501Y-62277944D01*
X127072140Y-62201958D01*
X127051577Y-62125216D01*
X127016818Y-62065011D01*
X126972524Y-61988290D01*
X126972518Y-61988282D01*
X126853651Y-61869415D01*
X126853644Y-61869409D01*
X125695916Y-60711681D01*
X125662431Y-60650358D01*
X125667415Y-60580666D01*
X125709287Y-60524733D01*
X125774751Y-60500316D01*
X125783597Y-60500000D01*
X137436602Y-60500000D01*
X137503641Y-60519685D01*
G37*
%TD.AperFunction*%
%TA.AperFunction,Conductor*%
G36*
X153919334Y-63796014D02*
G01*
X153975267Y-63837886D01*
X153999684Y-63903350D01*
X154000000Y-63912196D01*
X154000000Y-67500000D01*
X153000000Y-67500000D01*
X150412196Y-67500000D01*
X150345157Y-67480315D01*
X150299402Y-67427511D01*
X150289458Y-67358353D01*
X150318483Y-67294797D01*
X150324515Y-67288319D01*
X153788319Y-63824515D01*
X153849642Y-63791030D01*
X153919334Y-63796014D01*
G37*
%TD.AperFunction*%
%TA.AperFunction,Conductor*%
G36*
X145137442Y-60519685D02*
G01*
X145158084Y-60536319D01*
X145184139Y-60562374D01*
X145184149Y-60562385D01*
X145188479Y-60566715D01*
X145188480Y-60566716D01*
X145300284Y-60678520D01*
X145363643Y-60715100D01*
X145437215Y-60757577D01*
X145589943Y-60798501D01*
X145589946Y-60798501D01*
X145755653Y-60798501D01*
X145755669Y-60798500D01*
X153775102Y-60798500D01*
X153842141Y-60818185D01*
X153887896Y-60870989D01*
X153897840Y-60940147D01*
X153868815Y-61003703D01*
X153862783Y-61010181D01*
X148589784Y-66283181D01*
X148528461Y-66316666D01*
X148502103Y-66319500D01*
X140815000Y-66319500D01*
X140747961Y-66299815D01*
X140702206Y-66247011D01*
X140691000Y-66195500D01*
X140691000Y-66151655D01*
X140690999Y-66151653D01*
X140660238Y-65997010D01*
X140660237Y-65997003D01*
X140645730Y-65961979D01*
X140599897Y-65851327D01*
X140599890Y-65851314D01*
X140512289Y-65720211D01*
X140512286Y-65720207D01*
X140400792Y-65608713D01*
X140400788Y-65608710D01*
X140269685Y-65521109D01*
X140269672Y-65521102D01*
X140124001Y-65460764D01*
X140123991Y-65460761D01*
X139968651Y-65429862D01*
X139906741Y-65397477D01*
X139905162Y-65395926D01*
X139806117Y-65296881D01*
X139806116Y-65296880D01*
X139719304Y-65246760D01*
X139719304Y-65246759D01*
X139719300Y-65246758D01*
X139669185Y-65217823D01*
X139516457Y-65176899D01*
X139358343Y-65176899D01*
X139350747Y-65176899D01*
X139350731Y-65176900D01*
X138896945Y-65176900D01*
X138889337Y-65176899D01*
X138889334Y-65176899D01*
X138765297Y-65176899D01*
X138698258Y-65157214D01*
X138652503Y-65104410D01*
X138643809Y-65043945D01*
X138642560Y-65035252D01*
X138671585Y-64971696D01*
X138677617Y-64965218D01*
X140344216Y-63298619D01*
X140405539Y-63265134D01*
X140431897Y-63262300D01*
X142102531Y-63262300D01*
X142102547Y-63262301D01*
X142110143Y-63262301D01*
X142268254Y-63262301D01*
X142268257Y-63262301D01*
X142420985Y-63221377D01*
X142420987Y-63221375D01*
X142420989Y-63221375D01*
X142420990Y-63221374D01*
X142479215Y-63187758D01*
X142479216Y-63187757D01*
X142557916Y-63142320D01*
X142669720Y-63030516D01*
X142669720Y-63030514D01*
X142679921Y-63020314D01*
X142679924Y-63020309D01*
X142847519Y-62852716D01*
X143893906Y-61806327D01*
X143893911Y-61806324D01*
X143904114Y-61796120D01*
X143904116Y-61796120D01*
X144015920Y-61684316D01*
X144036834Y-61648092D01*
X144081107Y-61571409D01*
X144081108Y-61571407D01*
X144086735Y-61561658D01*
X144094977Y-61547385D01*
X144135900Y-61394657D01*
X144135900Y-61236543D01*
X144135900Y-60982543D01*
X144135900Y-60726965D01*
X144141227Y-60708821D01*
X144141565Y-60689912D01*
X144155065Y-60661694D01*
X144155585Y-60659926D01*
X144156798Y-60658074D01*
X144178086Y-60626214D01*
X144225597Y-60555108D01*
X144279209Y-60510304D01*
X144328699Y-60500000D01*
X145070403Y-60500000D01*
X145137442Y-60519685D01*
G37*
%TD.AperFunction*%
%TD*%
%TA.AperFunction,Conductor*%
%TO.N,VDD*%
G36*
X142242939Y-77019685D02*
G01*
X142288694Y-77072489D01*
X142299900Y-77124000D01*
X142299900Y-78876000D01*
X142280215Y-78943039D01*
X142227411Y-78988794D01*
X142175900Y-79000000D01*
X140624000Y-79000000D01*
X140556961Y-78980315D01*
X140511206Y-78927511D01*
X140500000Y-78876000D01*
X140500000Y-77124000D01*
X140519685Y-77056961D01*
X140572489Y-77011206D01*
X140624000Y-77000000D01*
X142175900Y-77000000D01*
X142242939Y-77019685D01*
G37*
%TD.AperFunction*%
%TA.AperFunction,Conductor*%
G36*
X160780911Y-65019685D02*
G01*
X160826666Y-65072489D01*
X160836610Y-65141647D01*
X160809974Y-65202361D01*
X160777921Y-65241670D01*
X160683757Y-65421938D01*
X160627809Y-65617471D01*
X160627808Y-65617474D01*
X160617200Y-65736799D01*
X160617200Y-66044800D01*
X165417200Y-66044800D01*
X165417200Y-65736802D01*
X165417199Y-65736799D01*
X165406591Y-65617474D01*
X165406590Y-65617471D01*
X165350642Y-65421938D01*
X165256478Y-65241670D01*
X165224426Y-65202361D01*
X165197317Y-65137965D01*
X165209326Y-65069135D01*
X165256641Y-65017725D01*
X165320528Y-65000000D01*
X166637653Y-65000000D01*
X166624000Y-67437000D01*
X167000000Y-67437000D01*
X167000000Y-79000000D01*
X144945700Y-79000000D01*
X144878661Y-78980315D01*
X144832906Y-78927511D01*
X144821700Y-78876000D01*
X144821700Y-77124000D01*
X144841385Y-77056961D01*
X144894189Y-77011206D01*
X144945700Y-77000000D01*
X160000000Y-77000000D01*
X160000000Y-70789583D01*
X161765900Y-70789583D01*
X161765900Y-71589601D01*
X161765901Y-71589619D01*
X161776400Y-71692396D01*
X161776401Y-71692399D01*
X161806321Y-71782689D01*
X161831586Y-71858934D01*
X161923688Y-72008256D01*
X162047744Y-72132312D01*
X162052815Y-72135440D01*
X162054960Y-72136763D01*
X162101683Y-72188712D01*
X162112903Y-72257675D01*
X162085058Y-72321756D01*
X162054960Y-72347837D01*
X162047743Y-72352288D01*
X161923689Y-72476342D01*
X161831587Y-72625663D01*
X161831586Y-72625666D01*
X161776401Y-72792203D01*
X161776401Y-72792204D01*
X161776400Y-72792204D01*
X161765900Y-72894983D01*
X161765900Y-73645001D01*
X161765901Y-73645019D01*
X161776400Y-73747796D01*
X161776401Y-73747799D01*
X161831585Y-73914331D01*
X161831587Y-73914336D01*
X161923689Y-74063657D01*
X162047746Y-74187714D01*
X162050582Y-74189463D01*
X162052117Y-74191170D01*
X162053411Y-74192193D01*
X162053236Y-74192414D01*
X162097305Y-74241411D01*
X162108526Y-74310374D01*
X162080682Y-74374456D01*
X162050582Y-74400537D01*
X162047746Y-74402285D01*
X161923689Y-74526342D01*
X161831587Y-74675663D01*
X161831586Y-74675666D01*
X161776401Y-74842203D01*
X161776401Y-74842204D01*
X161776400Y-74842204D01*
X161765900Y-74944983D01*
X161765900Y-75695001D01*
X161765901Y-75695019D01*
X161776400Y-75797796D01*
X161776401Y-75797799D01*
X161789240Y-75836543D01*
X161831586Y-75964334D01*
X161923688Y-76113656D01*
X162047744Y-76237712D01*
X162193631Y-76327695D01*
X162199978Y-76331610D01*
X162246702Y-76383558D01*
X162257925Y-76452521D01*
X162249443Y-76484600D01*
X162222063Y-76550703D01*
X162222061Y-76550710D01*
X162191300Y-76705353D01*
X162191300Y-76863046D01*
X162222061Y-77017689D01*
X162222064Y-77017701D01*
X162282402Y-77163372D01*
X162282409Y-77163385D01*
X162370010Y-77294488D01*
X162370013Y-77294492D01*
X162481507Y-77405986D01*
X162481511Y-77405989D01*
X162612614Y-77493590D01*
X162612627Y-77493597D01*
X162758298Y-77553935D01*
X162758303Y-77553937D01*
X162912953Y-77584699D01*
X162912956Y-77584700D01*
X162912958Y-77584700D01*
X163070644Y-77584700D01*
X163070645Y-77584699D01*
X163225297Y-77553937D01*
X163370979Y-77493594D01*
X163502089Y-77405989D01*
X163613589Y-77294489D01*
X163701194Y-77163379D01*
X163761537Y-77017697D01*
X163792300Y-76863042D01*
X163792300Y-76705358D01*
X163792300Y-76705355D01*
X163792299Y-76705353D01*
X163761537Y-76550703D01*
X163723818Y-76459642D01*
X163716350Y-76390174D01*
X163747625Y-76327695D01*
X163773278Y-76306656D01*
X163885056Y-76237712D01*
X164009112Y-76113656D01*
X164101214Y-75964334D01*
X164156399Y-75797797D01*
X164166900Y-75695009D01*
X164166899Y-74944992D01*
X164156399Y-74842203D01*
X164101214Y-74675666D01*
X164009112Y-74526344D01*
X163885056Y-74402288D01*
X163882219Y-74400538D01*
X163880683Y-74398830D01*
X163879389Y-74397807D01*
X163879563Y-74397585D01*
X163835496Y-74348594D01*
X163824272Y-74279632D01*
X163852113Y-74215549D01*
X163882217Y-74189462D01*
X163885056Y-74187712D01*
X164009112Y-74063656D01*
X164101214Y-73914334D01*
X164156399Y-73747797D01*
X164166900Y-73645009D01*
X164166899Y-72894992D01*
X164156399Y-72792203D01*
X164101214Y-72625666D01*
X164009112Y-72476344D01*
X163885056Y-72352288D01*
X163885055Y-72352287D01*
X163877843Y-72347839D01*
X163831118Y-72295892D01*
X163819895Y-72226929D01*
X163847738Y-72162847D01*
X163877843Y-72136761D01*
X163877985Y-72136673D01*
X163885056Y-72132312D01*
X164009112Y-72008256D01*
X164101214Y-71858934D01*
X164156399Y-71692397D01*
X164166900Y-71589609D01*
X164166899Y-70789592D01*
X164156399Y-70686803D01*
X164101214Y-70520266D01*
X164009112Y-70370944D01*
X163915095Y-70276927D01*
X163881610Y-70215604D01*
X163886594Y-70145912D01*
X163915095Y-70101564D01*
X164008717Y-70007942D01*
X164100756Y-69858724D01*
X164100758Y-69858719D01*
X164155905Y-69692297D01*
X164155906Y-69692290D01*
X164166399Y-69589586D01*
X164166400Y-69589573D01*
X164166400Y-69439600D01*
X161766401Y-69439600D01*
X161766401Y-69589586D01*
X161776894Y-69692297D01*
X161832041Y-69858719D01*
X161832043Y-69858724D01*
X161924084Y-70007945D01*
X162017704Y-70101565D01*
X162051189Y-70162888D01*
X162046205Y-70232580D01*
X162017705Y-70276927D01*
X161923687Y-70370945D01*
X161831587Y-70520263D01*
X161831585Y-70520268D01*
X161806822Y-70595000D01*
X161776401Y-70686803D01*
X161776401Y-70686804D01*
X161776400Y-70686804D01*
X161765900Y-70789583D01*
X160000000Y-70789583D01*
X160000000Y-68789613D01*
X161766400Y-68789613D01*
X161766400Y-68939600D01*
X162716400Y-68939600D01*
X163216400Y-68939600D01*
X164166399Y-68939600D01*
X164166399Y-68789628D01*
X164166398Y-68789613D01*
X164155905Y-68686902D01*
X164100758Y-68520480D01*
X164100756Y-68520475D01*
X164008715Y-68371254D01*
X163884745Y-68247284D01*
X163735524Y-68155243D01*
X163735519Y-68155241D01*
X163569097Y-68100094D01*
X163569090Y-68100093D01*
X163466386Y-68089600D01*
X163216400Y-68089600D01*
X163216400Y-68939600D01*
X162716400Y-68939600D01*
X162716400Y-68089600D01*
X162466429Y-68089600D01*
X162466412Y-68089601D01*
X162363702Y-68100094D01*
X162197280Y-68155241D01*
X162197275Y-68155243D01*
X162048054Y-68247284D01*
X161924084Y-68371254D01*
X161832043Y-68520475D01*
X161832041Y-68520480D01*
X161776894Y-68686902D01*
X161776893Y-68686909D01*
X161766400Y-68789613D01*
X160000000Y-68789613D01*
X160000000Y-67500000D01*
X160000000Y-66852800D01*
X160617200Y-66852800D01*
X160627808Y-66972125D01*
X160627809Y-66972128D01*
X160683757Y-67167661D01*
X160777921Y-67347929D01*
X160906446Y-67505553D01*
X161064070Y-67634078D01*
X161244338Y-67728242D01*
X161439871Y-67784190D01*
X161439874Y-67784191D01*
X161559199Y-67794799D01*
X161559202Y-67794800D01*
X162767200Y-67794800D01*
X163267200Y-67794800D01*
X164475198Y-67794800D01*
X164475200Y-67794799D01*
X164594525Y-67784191D01*
X164594528Y-67784190D01*
X164790061Y-67728242D01*
X164970329Y-67634078D01*
X165127953Y-67505553D01*
X165256478Y-67347929D01*
X165350642Y-67167661D01*
X165406590Y-66972128D01*
X165406591Y-66972125D01*
X165417199Y-66852800D01*
X165417200Y-66852798D01*
X165417200Y-66544800D01*
X163267200Y-66544800D01*
X163267200Y-67794800D01*
X162767200Y-67794800D01*
X162767200Y-66544800D01*
X160617200Y-66544800D01*
X160617200Y-66852800D01*
X160000000Y-66852800D01*
X160000000Y-65000000D01*
X160713872Y-65000000D01*
X160780911Y-65019685D01*
G37*
%TD.AperFunction*%
%TD*%
%TA.AperFunction,Conductor*%
%TO.N,VDDA*%
G36*
X120322131Y-98368485D02*
G01*
X120367886Y-98421289D01*
X120377830Y-98490447D01*
X120348805Y-98554003D01*
X120327977Y-98573118D01*
X120254540Y-98626472D01*
X120254535Y-98626476D01*
X120104276Y-98776735D01*
X120104272Y-98776740D01*
X119979379Y-98948642D01*
X119882904Y-99137982D01*
X119817242Y-99340070D01*
X119817242Y-99340073D01*
X119806769Y-99406200D01*
X120700988Y-99406200D01*
X120668075Y-99463207D01*
X120634000Y-99590374D01*
X120634000Y-99722026D01*
X120668075Y-99849193D01*
X120700988Y-99906200D01*
X119806769Y-99906200D01*
X119817242Y-99972326D01*
X119817242Y-99972329D01*
X119882904Y-100174417D01*
X119979379Y-100363757D01*
X120104272Y-100535659D01*
X120104276Y-100535664D01*
X120254535Y-100685923D01*
X120254540Y-100685927D01*
X120426442Y-100810820D01*
X120615782Y-100907295D01*
X120817871Y-100972957D01*
X120884000Y-100983431D01*
X120884000Y-100089212D01*
X120941007Y-100122125D01*
X121068174Y-100156200D01*
X121199826Y-100156200D01*
X121326993Y-100122125D01*
X121384000Y-100089212D01*
X121384000Y-100983430D01*
X121450126Y-100972957D01*
X121450129Y-100972957D01*
X121652217Y-100907295D01*
X121841557Y-100810820D01*
X122013459Y-100685927D01*
X122013463Y-100685923D01*
X122067873Y-100631514D01*
X122129196Y-100598028D01*
X122198888Y-100603012D01*
X122254821Y-100644883D01*
X122279219Y-100710293D01*
X122279219Y-101041200D01*
X117910665Y-101041200D01*
X117882762Y-98474146D01*
X117901717Y-98406898D01*
X117954021Y-98360572D01*
X118006755Y-98348800D01*
X120255092Y-98348800D01*
X120322131Y-98368485D01*
G37*
%TD.AperFunction*%
%TD*%
%TA.AperFunction,Conductor*%
%TO.N,+5V*%
G36*
X109117425Y-38125516D02*
G01*
X109118255Y-38125406D01*
X109169205Y-38125910D01*
X109169209Y-38126327D01*
X109144352Y-38126162D01*
X109169752Y-39142162D01*
X109179332Y-39142146D01*
X109232804Y-44507104D01*
X109243215Y-45551617D01*
X109244152Y-45645564D01*
X109225136Y-45712796D01*
X109189479Y-45744320D01*
X109162898Y-45770798D01*
X109164166Y-45438852D01*
X107619800Y-45428463D01*
X107619800Y-45428462D01*
X107619800Y-38249400D01*
X107639485Y-38182361D01*
X107692289Y-38136606D01*
X107743800Y-38125400D01*
X109117027Y-38125400D01*
X109117425Y-38125516D01*
G37*
%TD.AperFunction*%
%TD*%
%TA.AperFunction,Conductor*%
%TO.N,VDD*%
G36*
X167000000Y-97000000D02*
G01*
X160000000Y-97000000D01*
X160000000Y-94618107D01*
X160019685Y-94551068D01*
X160072489Y-94505313D01*
X160117963Y-94494255D01*
X160478624Y-94476691D01*
X160546538Y-94493090D01*
X160594807Y-94543606D01*
X160608103Y-94612199D01*
X160607624Y-94615112D01*
X160607631Y-94615113D01*
X160600400Y-94682355D01*
X160600400Y-95330200D01*
X161517388Y-95330200D01*
X161484475Y-95387207D01*
X161450400Y-95514374D01*
X161450400Y-95646026D01*
X161484475Y-95773193D01*
X161517388Y-95830200D01*
X160600400Y-95830200D01*
X160600400Y-96478044D01*
X160606801Y-96537572D01*
X160606803Y-96537579D01*
X160657045Y-96672286D01*
X160657049Y-96672293D01*
X160743209Y-96787387D01*
X160743212Y-96787390D01*
X160858306Y-96873550D01*
X160858313Y-96873554D01*
X160993020Y-96923796D01*
X160993027Y-96923798D01*
X161052555Y-96930199D01*
X161052572Y-96930200D01*
X161700400Y-96930200D01*
X161700400Y-96013212D01*
X161757407Y-96046125D01*
X161884574Y-96080200D01*
X162016226Y-96080200D01*
X162143393Y-96046125D01*
X162200400Y-96013212D01*
X162200400Y-96930200D01*
X162848228Y-96930200D01*
X162848244Y-96930199D01*
X162907772Y-96923798D01*
X162907779Y-96923796D01*
X163042486Y-96873554D01*
X163042493Y-96873550D01*
X163157587Y-96787390D01*
X163157590Y-96787387D01*
X163243750Y-96672293D01*
X163243754Y-96672286D01*
X163293996Y-96537579D01*
X163293998Y-96537572D01*
X163300399Y-96478044D01*
X163300400Y-96478027D01*
X163300400Y-95830200D01*
X162383412Y-95830200D01*
X162416325Y-95773193D01*
X162450400Y-95646026D01*
X162450400Y-95514374D01*
X162416325Y-95387207D01*
X162383412Y-95330200D01*
X163300400Y-95330200D01*
X163300400Y-94682372D01*
X163300399Y-94682355D01*
X163293998Y-94622827D01*
X163293996Y-94622820D01*
X163249519Y-94503569D01*
X163244535Y-94433877D01*
X163278020Y-94372554D01*
X163339343Y-94339070D01*
X163359657Y-94336384D01*
X164000000Y-94305200D01*
X164000000Y-79000000D01*
X167000000Y-79000000D01*
X167000000Y-97000000D01*
G37*
%TD.AperFunction*%
%TD*%
%TA.AperFunction,Conductor*%
%TO.N,+5V*%
G36*
X119888012Y-39124267D02*
G01*
X119913213Y-56135428D01*
X119893628Y-56202497D01*
X119840892Y-56248330D01*
X119787835Y-56259604D01*
X117750385Y-56236966D01*
X117683569Y-56216538D01*
X117638403Y-56163229D01*
X117627764Y-56112610D01*
X117678122Y-39142162D01*
X117678200Y-39116000D01*
X119888000Y-39116000D01*
X119888012Y-39124267D01*
G37*
%TD.AperFunction*%
%TD*%
%TA.AperFunction,Conductor*%
%TO.N,+5V*%
G36*
X167541462Y-35559938D02*
G01*
X167608492Y-35579656D01*
X167654220Y-35632483D01*
X167665400Y-35683938D01*
X167665400Y-36195000D01*
X165100000Y-36271200D01*
X165099490Y-36457524D01*
X165099489Y-36457525D01*
X157878371Y-36838927D01*
X157871831Y-36839100D01*
X143952270Y-36839100D01*
X143952254Y-36839099D01*
X143944658Y-36839099D01*
X143786543Y-36839099D01*
X143710179Y-36859561D01*
X143633814Y-36880023D01*
X143633809Y-36880026D01*
X143496890Y-36959075D01*
X143496882Y-36959081D01*
X142855421Y-37600542D01*
X142794098Y-37634027D01*
X142774280Y-37636688D01*
X132661385Y-38170827D01*
X132654845Y-38171000D01*
X131384429Y-38171000D01*
X131384423Y-38171001D01*
X131324816Y-38177408D01*
X131189970Y-38227703D01*
X131182186Y-38231954D01*
X131181541Y-38230773D01*
X131124690Y-38251969D01*
X131122401Y-38252111D01*
X124384352Y-38607999D01*
X124384352Y-38608000D01*
X116789200Y-38227000D01*
X116813440Y-35657488D01*
X116833756Y-35590640D01*
X116886989Y-35545386D01*
X116937494Y-35534661D01*
X167541462Y-35559938D01*
G37*
%TD.AperFunction*%
%TD*%
%TA.AperFunction,Conductor*%
%TO.N,+5V*%
G36*
X116789670Y-38177130D02*
G01*
X116789200Y-38227000D01*
X124384351Y-38607999D01*
X124378695Y-38613962D01*
X124364667Y-38661739D01*
X124311863Y-38707494D01*
X124260352Y-38718700D01*
X122870269Y-38718700D01*
X122870253Y-38718699D01*
X122862657Y-38718699D01*
X122704543Y-38718699D01*
X122597187Y-38747465D01*
X122551810Y-38759624D01*
X122551809Y-38759625D01*
X122501696Y-38788559D01*
X122501695Y-38788560D01*
X122458289Y-38813620D01*
X122414885Y-38838679D01*
X122414882Y-38838681D01*
X122303080Y-38950483D01*
X122303080Y-38950484D01*
X122303078Y-38950486D01*
X122240987Y-39012577D01*
X122169276Y-39084287D01*
X122107952Y-39117771D01*
X122081802Y-39120605D01*
X119888012Y-39124267D01*
X119888000Y-39116000D01*
X117678200Y-39116000D01*
X117678164Y-39127956D01*
X117678163Y-39127957D01*
X109179333Y-39142145D01*
X109179332Y-39142146D01*
X109169752Y-39142162D01*
X109144352Y-38126162D01*
X116789670Y-38177130D01*
G37*
%TD.AperFunction*%
%TD*%
%TA.AperFunction,Conductor*%
%TO.N,VDD*%
G36*
X160000000Y-67500000D02*
G01*
X154000000Y-67500000D01*
X154000000Y-65000000D01*
X160000000Y-65000000D01*
X160000000Y-67500000D01*
G37*
%TD.AperFunction*%
%TD*%
%TA.AperFunction,Conductor*%
%TO.N,+5V*%
G36*
X165049200Y-54864000D02*
G01*
X161519017Y-54889397D01*
X161518125Y-54889400D01*
X160114017Y-54889400D01*
X160046978Y-54869715D01*
X160001223Y-54816911D01*
X159990018Y-54765001D01*
X159994203Y-53463601D01*
X160014103Y-53396625D01*
X160067054Y-53351041D01*
X160118202Y-53340000D01*
X165053363Y-53340000D01*
X165053364Y-53340000D01*
X165100000Y-53340000D01*
X165049200Y-54864000D01*
G37*
%TD.AperFunction*%
%TD*%
%TA.AperFunction,Conductor*%
%TO.N,VDDA*%
G36*
X138576239Y-99028885D02*
G01*
X138621994Y-99081689D01*
X138633200Y-99133200D01*
X138633200Y-99796600D01*
X139882783Y-99796600D01*
X139949822Y-99816285D01*
X139995577Y-99869089D01*
X140006778Y-99921664D01*
X139854148Y-117703007D01*
X139833889Y-117769875D01*
X139780694Y-117815175D01*
X139730121Y-117825943D01*
X113483622Y-117819085D01*
X113416587Y-117799383D01*
X113370846Y-117746567D01*
X113359655Y-117695377D01*
X113334800Y-106883200D01*
X113842800Y-106908600D01*
X113842621Y-106882591D01*
X134543800Y-106857800D01*
X134543800Y-102944089D01*
X134563485Y-102877050D01*
X134616289Y-102831295D01*
X134668685Y-102820092D01*
X138099800Y-102844600D01*
X138075227Y-99134021D01*
X138094467Y-99066853D01*
X138146967Y-99020749D01*
X138199224Y-99009200D01*
X138509200Y-99009200D01*
X138576239Y-99028885D01*
G37*
%TD.AperFunction*%
%TD*%
%TA.AperFunction,Conductor*%
%TO.N,VDD*%
G36*
X167766297Y-55908906D02*
G01*
X167824080Y-55948186D01*
X167851453Y-56012471D01*
X167852300Y-56026941D01*
X167852300Y-67313000D01*
X167832615Y-67380039D01*
X167779811Y-67425794D01*
X167728300Y-67437000D01*
X166624000Y-67437000D01*
X166673092Y-58674000D01*
X166267668Y-58674000D01*
X166250602Y-58669003D01*
X166232914Y-58669030D01*
X166210133Y-58657153D01*
X166200787Y-58654417D01*
X166195172Y-58650820D01*
X166166496Y-58627770D01*
X166134100Y-58611703D01*
X166128389Y-58608045D01*
X166109741Y-58586590D01*
X166088862Y-58567294D01*
X166087117Y-58560560D01*
X166082554Y-58555311D01*
X166078464Y-58527173D01*
X166071334Y-58499659D01*
X166073505Y-58493053D01*
X166072505Y-58486168D01*
X166084276Y-58460287D01*
X166093154Y-58433284D01*
X166098891Y-58428158D01*
X166101434Y-58422568D01*
X166114782Y-58413960D01*
X166134578Y-58396274D01*
X166134514Y-58396179D01*
X166135193Y-58395724D01*
X166136830Y-58394263D01*
X166139571Y-58392796D01*
X166139579Y-58392794D01*
X166270689Y-58305189D01*
X166382189Y-58193689D01*
X166469794Y-58062579D01*
X166530137Y-57916897D01*
X166560900Y-57762242D01*
X166560900Y-57604558D01*
X166560900Y-57604555D01*
X166560899Y-57604553D01*
X166530138Y-57449910D01*
X166530138Y-57449908D01*
X166530137Y-57449903D01*
X166479938Y-57328710D01*
X166469797Y-57304227D01*
X166469790Y-57304214D01*
X166382189Y-57173111D01*
X166382186Y-57173107D01*
X166270692Y-57061613D01*
X166270688Y-57061610D01*
X166139585Y-56974009D01*
X166139572Y-56974002D01*
X165993901Y-56913664D01*
X165993889Y-56913661D01*
X165839245Y-56882900D01*
X165839242Y-56882900D01*
X165681558Y-56882900D01*
X165681555Y-56882900D01*
X165526910Y-56913661D01*
X165526898Y-56913664D01*
X165381227Y-56974002D01*
X165381214Y-56974009D01*
X165250111Y-57061610D01*
X165250107Y-57061613D01*
X165138613Y-57173107D01*
X165138610Y-57173111D01*
X165051009Y-57304214D01*
X165051002Y-57304227D01*
X164990664Y-57449898D01*
X164990661Y-57449908D01*
X164959762Y-57605248D01*
X164927377Y-57667159D01*
X164925827Y-57668737D01*
X164836678Y-57757886D01*
X164786561Y-57844694D01*
X164786559Y-57844696D01*
X164757625Y-57894809D01*
X164757624Y-57894810D01*
X164757623Y-57894815D01*
X164716699Y-58047543D01*
X164716699Y-58047545D01*
X164716699Y-58215646D01*
X164716700Y-58215659D01*
X164716700Y-58427884D01*
X164697015Y-58494923D01*
X164644211Y-58540678D01*
X164640093Y-58542372D01*
X164467902Y-58627771D01*
X164444420Y-58646647D01*
X164379836Y-58673306D01*
X164366732Y-58674000D01*
X162379200Y-58674000D01*
X162312161Y-58654315D01*
X162266406Y-58601511D01*
X162255200Y-58550000D01*
X162255200Y-57448549D01*
X162274885Y-57381510D01*
X162327689Y-57335755D01*
X162347346Y-57328710D01*
X167696453Y-55907101D01*
X167766297Y-55908906D01*
G37*
%TD.AperFunction*%
%TD*%
%TA.AperFunction,Conductor*%
%TO.N,VDD*%
G36*
X122500000Y-66500000D02*
G01*
X121561386Y-66500000D01*
X121494347Y-66480315D01*
X121448592Y-66427511D01*
X121438648Y-66358353D01*
X121467673Y-66294797D01*
X121488502Y-66275681D01*
X121496891Y-66269585D01*
X121496895Y-66269582D01*
X121641582Y-66124895D01*
X121641582Y-66124894D01*
X121761859Y-65959349D01*
X121854755Y-65777029D01*
X121917990Y-65582413D01*
X121926609Y-65528000D01*
X120965686Y-65528000D01*
X120970080Y-65523606D01*
X121022741Y-65432394D01*
X121050000Y-65330661D01*
X121050000Y-65225339D01*
X121022741Y-65123606D01*
X120970080Y-65032394D01*
X120965686Y-65028000D01*
X121926609Y-65028000D01*
X121917990Y-64973586D01*
X121854755Y-64778970D01*
X121761859Y-64596650D01*
X121641582Y-64431105D01*
X121641582Y-64431104D01*
X121496895Y-64286417D01*
X121496889Y-64286412D01*
X121411424Y-64224318D01*
X121368758Y-64168988D01*
X121362779Y-64099375D01*
X121395385Y-64037580D01*
X121456223Y-64003223D01*
X121484309Y-64000000D01*
X122000000Y-64000000D01*
X122500000Y-64000000D01*
X122500000Y-66500000D01*
G37*
%TD.AperFunction*%
%TD*%
%TA.AperFunction,Conductor*%
%TO.N,VDDA*%
G36*
X114817814Y-100705285D02*
G01*
X114863569Y-100758089D01*
X114873513Y-100827247D01*
X114844488Y-100890803D01*
X114823660Y-100909918D01*
X114766740Y-100951272D01*
X114766735Y-100951276D01*
X114616476Y-101101535D01*
X114616472Y-101101540D01*
X114491579Y-101273442D01*
X114395104Y-101462782D01*
X114329442Y-101664870D01*
X114329442Y-101664873D01*
X114318969Y-101731000D01*
X115213188Y-101731000D01*
X115180275Y-101788007D01*
X115146200Y-101915174D01*
X115146200Y-102046826D01*
X115180275Y-102173993D01*
X115213188Y-102231000D01*
X114318969Y-102231000D01*
X114329442Y-102297126D01*
X114329442Y-102297129D01*
X114395104Y-102499217D01*
X114491579Y-102688557D01*
X114616472Y-102860459D01*
X114616476Y-102860464D01*
X114730146Y-102974134D01*
X114763631Y-103035457D01*
X114758647Y-103105149D01*
X114755829Y-103108913D01*
X114716776Y-103161082D01*
X114685799Y-103177997D01*
X114662058Y-103186852D01*
X114619579Y-103194667D01*
X113817399Y-103200199D01*
X113842620Y-106882590D01*
X113842620Y-106882589D01*
X113842621Y-106882591D01*
X113842621Y-106882590D01*
X113842800Y-106908600D01*
X113334800Y-106883200D01*
X113334800Y-100809600D01*
X113354485Y-100742561D01*
X113407289Y-100696806D01*
X113458800Y-100685600D01*
X114750775Y-100685600D01*
X114817814Y-100705285D01*
G37*
%TD.AperFunction*%
%TA.AperFunction,Conductor*%
G36*
X117910665Y-101041200D02*
G01*
X122279219Y-101041200D01*
X122279219Y-100710293D01*
X122279239Y-100710347D01*
X122279548Y-100717925D01*
X122279800Y-100742561D01*
X122303011Y-103017264D01*
X122284011Y-103084501D01*
X122231677Y-103130792D01*
X122179872Y-103142526D01*
X116655979Y-103180622D01*
X116588806Y-103161400D01*
X116542688Y-103108913D01*
X116532267Y-103039825D01*
X116560853Y-102976070D01*
X116567443Y-102968943D01*
X116675928Y-102860458D01*
X116800820Y-102688557D01*
X116897295Y-102499217D01*
X116962957Y-102297129D01*
X116962957Y-102297126D01*
X116973431Y-102231000D01*
X116079212Y-102231000D01*
X116112125Y-102173993D01*
X116146200Y-102046826D01*
X116146200Y-101915174D01*
X116112125Y-101788007D01*
X116079212Y-101731000D01*
X116973431Y-101731000D01*
X116962957Y-101664873D01*
X116962957Y-101664870D01*
X116897295Y-101462782D01*
X116800820Y-101273442D01*
X116675927Y-101101540D01*
X116675923Y-101101535D01*
X116525664Y-100951276D01*
X116525659Y-100951272D01*
X116468740Y-100909918D01*
X116426074Y-100854588D01*
X116420095Y-100784975D01*
X116452700Y-100723180D01*
X116513539Y-100688823D01*
X116541625Y-100685600D01*
X117906799Y-100685600D01*
X117906800Y-100685600D01*
X117910665Y-101041200D01*
G37*
%TD.AperFunction*%
%TD*%
%TA.AperFunction,Conductor*%
%TO.N,+6V*%
G36*
X83425113Y-70573373D02*
G01*
X83492030Y-70593451D01*
X83537473Y-70646523D01*
X83547010Y-70715739D01*
X83517612Y-70779123D01*
X83497263Y-70797688D01*
X83457635Y-70826479D01*
X83457635Y-70826481D01*
X84020925Y-71389771D01*
X83961647Y-71405655D01*
X83845353Y-71472798D01*
X83750398Y-71567753D01*
X83683255Y-71684047D01*
X83667371Y-71743325D01*
X83104081Y-71180035D01*
X83104080Y-71180035D01*
X83076577Y-71217890D01*
X82986179Y-71395305D01*
X82924647Y-71584677D01*
X82893500Y-71781336D01*
X82893500Y-71980463D01*
X82924647Y-72177122D01*
X82986179Y-72366494D01*
X83076577Y-72543908D01*
X83104080Y-72581763D01*
X83104081Y-72581764D01*
X83667371Y-72018474D01*
X83683255Y-72077753D01*
X83750398Y-72194047D01*
X83845353Y-72289002D01*
X83961647Y-72356145D01*
X84020925Y-72372028D01*
X83457634Y-72935317D01*
X83459073Y-72953590D01*
X83471531Y-72969746D01*
X83477509Y-73039359D01*
X83444903Y-73101154D01*
X83384064Y-73135511D01*
X83356717Y-73138731D01*
X81940976Y-73147159D01*
X80214064Y-73157438D01*
X80191472Y-79291856D01*
X80191473Y-79291855D01*
X80191473Y-79291857D01*
X85699810Y-79167794D01*
X85767274Y-79185964D01*
X85814206Y-79237725D01*
X85826600Y-79291763D01*
X85826600Y-79607915D01*
X85806915Y-79674954D01*
X85754111Y-79720709D01*
X85684953Y-79730653D01*
X85659268Y-79724097D01*
X85615583Y-79707803D01*
X85615572Y-79707801D01*
X85556044Y-79701400D01*
X84908200Y-79701400D01*
X84908200Y-80618388D01*
X84851193Y-80585475D01*
X84724026Y-80551400D01*
X84592374Y-80551400D01*
X84465207Y-80585475D01*
X84408200Y-80618388D01*
X84408200Y-79701400D01*
X83760355Y-79701400D01*
X83700827Y-79707801D01*
X83700820Y-79707803D01*
X83566113Y-79758045D01*
X83566106Y-79758049D01*
X83451012Y-79844209D01*
X83451009Y-79844212D01*
X83364849Y-79959306D01*
X83364845Y-79959313D01*
X83314603Y-80094020D01*
X83314601Y-80094027D01*
X83308200Y-80153555D01*
X83308200Y-80801400D01*
X84225188Y-80801400D01*
X84192275Y-80858407D01*
X84158200Y-80985574D01*
X84158200Y-81117226D01*
X84192275Y-81244393D01*
X84225188Y-81301400D01*
X83308200Y-81301400D01*
X83308200Y-81949244D01*
X83314601Y-82008772D01*
X83314603Y-82008779D01*
X83364845Y-82143486D01*
X83364849Y-82143493D01*
X83451009Y-82258587D01*
X83451012Y-82258590D01*
X83566106Y-82344750D01*
X83566113Y-82344754D01*
X83700820Y-82394996D01*
X83700827Y-82394998D01*
X83760355Y-82401399D01*
X83760372Y-82401400D01*
X84408200Y-82401400D01*
X84408200Y-81484412D01*
X84465207Y-81517325D01*
X84592374Y-81551400D01*
X84724026Y-81551400D01*
X84851193Y-81517325D01*
X84908200Y-81484412D01*
X84908200Y-82401400D01*
X85556028Y-82401400D01*
X85556044Y-82401399D01*
X85615572Y-82394998D01*
X85615583Y-82394995D01*
X85705050Y-82361626D01*
X85774741Y-82356641D01*
X85836065Y-82390125D01*
X85869550Y-82451448D01*
X85872315Y-82473675D01*
X85877399Y-82626198D01*
X85980946Y-84164599D01*
X85965808Y-84232809D01*
X85916196Y-84282006D01*
X85847861Y-84296572D01*
X85847498Y-84296544D01*
X85831839Y-84295311D01*
X85255100Y-84872051D01*
X85255100Y-84860368D01*
X85228270Y-84760238D01*
X85176438Y-84670463D01*
X85103137Y-84597162D01*
X85013362Y-84545330D01*
X84913232Y-84518500D01*
X84901547Y-84518500D01*
X85478286Y-83941759D01*
X85478286Y-83941758D01*
X85462929Y-83930601D01*
X85301966Y-83848586D01*
X85130150Y-83792759D01*
X84951731Y-83764500D01*
X84771069Y-83764500D01*
X84592649Y-83792759D01*
X84420833Y-83848586D01*
X84259876Y-83930597D01*
X84259872Y-83930600D01*
X84244512Y-83941758D01*
X84244512Y-83941759D01*
X84821254Y-84518500D01*
X84809568Y-84518500D01*
X84709438Y-84545330D01*
X84619663Y-84597162D01*
X84546362Y-84670463D01*
X84494530Y-84760238D01*
X84467700Y-84860368D01*
X84467700Y-84872053D01*
X83890959Y-84295312D01*
X83890958Y-84295312D01*
X83879800Y-84310672D01*
X83879797Y-84310676D01*
X83797786Y-84471633D01*
X83741959Y-84643449D01*
X83713700Y-84821868D01*
X83713700Y-85002531D01*
X83741959Y-85180950D01*
X83797786Y-85352766D01*
X83879801Y-85513729D01*
X83890958Y-85529086D01*
X83890959Y-85529086D01*
X84467700Y-84952345D01*
X84467700Y-84964032D01*
X84494530Y-85064162D01*
X84546362Y-85153937D01*
X84619663Y-85227238D01*
X84709438Y-85279070D01*
X84809568Y-85305900D01*
X84821253Y-85305900D01*
X84244512Y-85882638D01*
X84244512Y-85882639D01*
X84259877Y-85893802D01*
X84315836Y-85922315D01*
X84366632Y-85970290D01*
X84383427Y-86038111D01*
X84360890Y-86104246D01*
X84306174Y-86147697D01*
X84259541Y-86156800D01*
X82514319Y-86156800D01*
X82447280Y-86137115D01*
X82401525Y-86084311D01*
X82390325Y-86031619D01*
X82395130Y-85527124D01*
X82423000Y-82600800D01*
X82423000Y-82600799D01*
X76985095Y-82631277D01*
X76917946Y-82611969D01*
X76871896Y-82559422D01*
X76860400Y-82507279D01*
X76860400Y-73177411D01*
X76859380Y-73147159D01*
X76775650Y-70663166D01*
X76793065Y-70595503D01*
X76844298Y-70547995D01*
X76900305Y-70534992D01*
X83425113Y-70573373D01*
G37*
%TD.AperFunction*%
%TA.AperFunction,Conductor*%
G36*
X85831839Y-85529087D02*
G01*
X85831840Y-85529086D01*
X85842997Y-85513732D01*
X85845544Y-85509576D01*
X85847500Y-85510774D01*
X85888900Y-85466850D01*
X85956704Y-85449984D01*
X86022862Y-85472454D01*
X86066370Y-85527124D01*
X86075241Y-85565549D01*
X86106130Y-86024473D01*
X86090992Y-86092683D01*
X86041380Y-86141880D01*
X85982410Y-86156800D01*
X85463259Y-86156800D01*
X85396220Y-86137115D01*
X85350465Y-86084311D01*
X85340521Y-86015153D01*
X85369546Y-85951597D01*
X85406964Y-85922315D01*
X85462928Y-85893799D01*
X85462932Y-85893797D01*
X85478286Y-85882640D01*
X85478287Y-85882639D01*
X84901548Y-85305900D01*
X84913232Y-85305900D01*
X85013362Y-85279070D01*
X85103137Y-85227238D01*
X85176438Y-85153937D01*
X85228270Y-85064162D01*
X85255100Y-84964032D01*
X85255100Y-84952347D01*
X85831839Y-85529087D01*
G37*
%TD.AperFunction*%
%TA.AperFunction,Conductor*%
G36*
X85212917Y-72581763D02*
G01*
X85266068Y-72577581D01*
X85334445Y-72591946D01*
X85384202Y-72640998D01*
X85399787Y-72702658D01*
X85396232Y-73004786D01*
X85375760Y-73071589D01*
X85322422Y-73116720D01*
X85272979Y-73127325D01*
X84975014Y-73129098D01*
X84907858Y-73109812D01*
X84861790Y-73057282D01*
X84851435Y-72988184D01*
X84856003Y-72978021D01*
X84859363Y-72935317D01*
X84296074Y-72372028D01*
X84355353Y-72356145D01*
X84471647Y-72289002D01*
X84566602Y-72194047D01*
X84633745Y-72077753D01*
X84649628Y-72018474D01*
X85212917Y-72581763D01*
G37*
%TD.AperFunction*%
%TA.AperFunction,Conductor*%
G36*
X85299971Y-70584402D02*
G01*
X85366892Y-70604481D01*
X85412335Y-70657553D01*
X85423231Y-70709859D01*
X85418838Y-71083298D01*
X85398367Y-71150101D01*
X85345028Y-71195231D01*
X85275757Y-71204361D01*
X85226353Y-71181092D01*
X85212917Y-71180034D01*
X84649628Y-71743324D01*
X84633745Y-71684047D01*
X84566602Y-71567753D01*
X84471647Y-71472798D01*
X84355353Y-71405655D01*
X84296074Y-71389771D01*
X84859364Y-70826481D01*
X84831720Y-70806397D01*
X84789054Y-70751067D01*
X84783075Y-70681454D01*
X84815680Y-70619658D01*
X84876519Y-70585301D01*
X84905327Y-70582080D01*
X85299971Y-70584402D01*
G37*
%TD.AperFunction*%
%TD*%
%TA.AperFunction,Conductor*%
%TO.N,+5V*%
G36*
X109164166Y-45438852D02*
G01*
X109162899Y-45770798D01*
X109162898Y-45770800D01*
X109144267Y-50652225D01*
X109124327Y-50719189D01*
X109071349Y-50764742D01*
X109021430Y-50775747D01*
X101015800Y-50850800D01*
X101077632Y-54189746D01*
X101059192Y-54257139D01*
X101007244Y-54303863D01*
X100954030Y-54316041D01*
X92848875Y-54340677D01*
X92781776Y-54321197D01*
X92735861Y-54268532D01*
X92724523Y-54219156D01*
X92723935Y-54189746D01*
X92710031Y-53493979D01*
X92710010Y-53490814D01*
X92711189Y-53311421D01*
X92731314Y-53244514D01*
X92784417Y-53199107D01*
X92834571Y-53188240D01*
X97840800Y-53163457D01*
X97840800Y-45487521D01*
X97860485Y-45420482D01*
X97913289Y-45374727D01*
X97965630Y-45363524D01*
X109164166Y-45438852D01*
G37*
%TD.AperFunction*%
%TD*%
%TA.AperFunction,Conductor*%
%TO.N,VDD*%
G36*
X143260634Y-91193314D02*
G01*
X143316567Y-91235186D01*
X143340984Y-91300650D01*
X143341300Y-91309496D01*
X143341300Y-95645930D01*
X143341299Y-95645948D01*
X143341299Y-95811654D01*
X143341298Y-95811654D01*
X143341299Y-95811657D01*
X143382223Y-95964385D01*
X143408064Y-96009143D01*
X143461280Y-96101316D01*
X143473623Y-96113659D01*
X143481087Y-96125575D01*
X143486889Y-96146219D01*
X143497166Y-96165040D01*
X143500000Y-96191398D01*
X143500000Y-97000000D01*
X144310013Y-97000000D01*
X144377052Y-97019685D01*
X144385498Y-97025623D01*
X144385877Y-97025913D01*
X144385884Y-97025920D01*
X144522815Y-97104977D01*
X144675543Y-97145901D01*
X144675546Y-97145901D01*
X144841254Y-97145901D01*
X144841270Y-97145900D01*
X146461103Y-97145900D01*
X146490543Y-97154544D01*
X146520530Y-97161068D01*
X146525545Y-97164822D01*
X146528142Y-97165585D01*
X146548784Y-97182219D01*
X146706581Y-97340016D01*
X146740066Y-97401339D01*
X146742900Y-97427697D01*
X146742900Y-98376000D01*
X146723215Y-98443039D01*
X146670411Y-98488794D01*
X146618900Y-98500000D01*
X142624000Y-98500000D01*
X142556961Y-98480315D01*
X142511206Y-98427511D01*
X142500000Y-98376000D01*
X142500000Y-97714000D01*
X142239771Y-97714000D01*
X142172732Y-97694315D01*
X142126977Y-97641511D01*
X142117033Y-97572353D01*
X142136669Y-97521109D01*
X142212790Y-97407185D01*
X142212790Y-97407184D01*
X142212794Y-97407179D01*
X142273137Y-97261497D01*
X142303900Y-97106842D01*
X142303900Y-96949158D01*
X142303900Y-96949155D01*
X142303899Y-96949153D01*
X142273138Y-96794510D01*
X142273137Y-96794503D01*
X142229313Y-96688701D01*
X142212797Y-96648827D01*
X142212790Y-96648814D01*
X142124798Y-96517125D01*
X142103920Y-96450447D01*
X142103900Y-96448234D01*
X142103900Y-95096340D01*
X142123585Y-95029301D01*
X142140220Y-95008658D01*
X142175986Y-94972892D01*
X142175989Y-94972889D01*
X142263594Y-94841779D01*
X142323937Y-94696097D01*
X142354700Y-94541442D01*
X142354700Y-94383758D01*
X142354700Y-94383755D01*
X142354699Y-94383753D01*
X142336400Y-94291757D01*
X142323937Y-94229103D01*
X142304380Y-94181887D01*
X142263597Y-94083427D01*
X142263590Y-94083414D01*
X142175989Y-93952311D01*
X142175986Y-93952307D01*
X142064492Y-93840813D01*
X142064488Y-93840810D01*
X141933385Y-93753209D01*
X141933372Y-93753202D01*
X141787701Y-93692864D01*
X141787689Y-93692861D01*
X141633045Y-93662100D01*
X141633042Y-93662100D01*
X141475358Y-93662100D01*
X141475355Y-93662100D01*
X141320710Y-93692861D01*
X141320698Y-93692864D01*
X141171452Y-93754683D01*
X141101982Y-93762152D01*
X141039503Y-93730876D01*
X141003852Y-93670787D01*
X141000000Y-93640122D01*
X141000000Y-92113700D01*
X141019685Y-92046661D01*
X141072489Y-92000906D01*
X141124000Y-91989700D01*
X142026331Y-91989700D01*
X142026347Y-91989701D01*
X142033943Y-91989701D01*
X142192054Y-91989701D01*
X142192057Y-91989701D01*
X142344785Y-91948777D01*
X142394904Y-91919839D01*
X142481716Y-91869720D01*
X142593520Y-91757916D01*
X142593520Y-91757914D01*
X142603728Y-91747707D01*
X142603729Y-91747704D01*
X143129620Y-91221814D01*
X143190942Y-91188330D01*
X143260634Y-91193314D01*
G37*
%TD.AperFunction*%
%TA.AperFunction,Conductor*%
G36*
X167000000Y-98376000D02*
G01*
X166980315Y-98443039D01*
X166927511Y-98488794D01*
X166876000Y-98500000D01*
X148067900Y-98500000D01*
X148000861Y-98480315D01*
X147955106Y-98427511D01*
X147943900Y-98376000D01*
X147943900Y-97124000D01*
X147963585Y-97056961D01*
X148016389Y-97011206D01*
X148067900Y-97000000D01*
X167000000Y-97000000D01*
X167000000Y-98376000D01*
G37*
%TD.AperFunction*%
%TA.AperFunction,Conductor*%
G36*
X142884339Y-87519685D02*
G01*
X142930094Y-87572489D01*
X142941300Y-87624000D01*
X142941300Y-89660303D01*
X142921615Y-89727342D01*
X142904981Y-89747984D01*
X141900584Y-90752381D01*
X141839261Y-90785866D01*
X141812903Y-90788700D01*
X141124000Y-90788700D01*
X141056961Y-90769015D01*
X141011206Y-90716211D01*
X141000000Y-90664700D01*
X141000000Y-87624000D01*
X141019685Y-87556961D01*
X141072489Y-87511206D01*
X141124000Y-87500000D01*
X142817300Y-87500000D01*
X142884339Y-87519685D01*
G37*
%TD.AperFunction*%
%TD*%
%TA.AperFunction,Conductor*%
%TO.N,+5V*%
G36*
X74211495Y-53207953D02*
G01*
X74257854Y-53260227D01*
X74269659Y-53312973D01*
X74294364Y-105518754D01*
X74274711Y-105585803D01*
X74221929Y-105631583D01*
X74171656Y-105642806D01*
X71987234Y-105665560D01*
X71919993Y-105646575D01*
X71873690Y-105594251D01*
X71861943Y-105541077D01*
X72059800Y-55730788D01*
X72059800Y-53335583D01*
X72079485Y-53268544D01*
X72132289Y-53222789D01*
X72182374Y-53211591D01*
X74144237Y-53189040D01*
X74211495Y-53207953D01*
G37*
%TD.AperFunction*%
%TD*%
%TA.AperFunction,Conductor*%
%TO.N,+24V*%
G36*
X86659398Y-65654218D02*
G01*
X86706021Y-65706256D01*
X86718071Y-65757151D01*
X86763856Y-68046431D01*
X86745516Y-68113850D01*
X86693638Y-68160652D01*
X86639207Y-68172908D01*
X84787750Y-68162847D01*
X84720819Y-68142799D01*
X84675351Y-68089747D01*
X84665784Y-68020535D01*
X84695154Y-67957138D01*
X84732129Y-67928364D01*
X84821505Y-67882824D01*
X84859363Y-67855318D01*
X84859363Y-67855317D01*
X84296074Y-67292028D01*
X84355353Y-67276145D01*
X84471647Y-67209002D01*
X84566602Y-67114047D01*
X84633745Y-66997753D01*
X84649628Y-66938474D01*
X85212917Y-67501763D01*
X85212918Y-67501763D01*
X85240424Y-67463905D01*
X85330820Y-67286494D01*
X85392352Y-67097122D01*
X85423500Y-66900463D01*
X85423500Y-66701336D01*
X85392352Y-66504677D01*
X85330820Y-66315305D01*
X85240424Y-66137894D01*
X85212917Y-66100035D01*
X85212917Y-66100034D01*
X84649628Y-66663324D01*
X84633745Y-66604047D01*
X84566602Y-66487753D01*
X84471647Y-66392798D01*
X84355353Y-66325655D01*
X84296074Y-66309771D01*
X84877465Y-65728379D01*
X84877625Y-65727621D01*
X84926676Y-65677864D01*
X84984820Y-65662286D01*
X86592044Y-65635647D01*
X86659398Y-65654218D01*
G37*
%TD.AperFunction*%
%TA.AperFunction,Conductor*%
G36*
X77978000Y-40106600D02*
G01*
X81968383Y-40131231D01*
X82035297Y-40151329D01*
X82080725Y-40204415D01*
X82091609Y-40256416D01*
X82041999Y-45440599D01*
X82042000Y-45440599D01*
X82042000Y-45440600D01*
X90013012Y-45506476D01*
X90079886Y-45526714D01*
X90125203Y-45579894D01*
X90135605Y-45640201D01*
X90133135Y-45671581D01*
X90696425Y-46234871D01*
X90637147Y-46250755D01*
X90520853Y-46317898D01*
X90425898Y-46412853D01*
X90358755Y-46529147D01*
X90342871Y-46588425D01*
X89779581Y-46025135D01*
X89779580Y-46025135D01*
X89752077Y-46062990D01*
X89661679Y-46240405D01*
X89600147Y-46429777D01*
X89569000Y-46626436D01*
X89569000Y-46825563D01*
X89600147Y-47022222D01*
X89661679Y-47211594D01*
X89752077Y-47389008D01*
X89779580Y-47426863D01*
X89779581Y-47426864D01*
X90342871Y-46863574D01*
X90358755Y-46922853D01*
X90425898Y-47039147D01*
X90520853Y-47134102D01*
X90637147Y-47201245D01*
X90696425Y-47217128D01*
X90133134Y-47780417D01*
X90170994Y-47807924D01*
X90322722Y-47885234D01*
X90373518Y-47933209D01*
X90390313Y-48001030D01*
X90367776Y-48067165D01*
X90322723Y-48106203D01*
X90170732Y-48183647D01*
X90028502Y-48286984D01*
X89962696Y-48310464D01*
X89956740Y-48310661D01*
X82057516Y-48382209D01*
X82072161Y-61899659D01*
X82118200Y-65709800D01*
X83373644Y-65688991D01*
X83425299Y-65714314D01*
X83429240Y-65718086D01*
X84020925Y-66309771D01*
X83961647Y-66325655D01*
X83845353Y-66392798D01*
X83750398Y-66487753D01*
X83683255Y-66604047D01*
X83667371Y-66663325D01*
X83104081Y-66100035D01*
X83104080Y-66100035D01*
X83076577Y-66137890D01*
X82986179Y-66315305D01*
X82924647Y-66504677D01*
X82893500Y-66701336D01*
X82893500Y-66900463D01*
X82924647Y-67097122D01*
X82986179Y-67286494D01*
X83076577Y-67463908D01*
X83104080Y-67501763D01*
X83104081Y-67501764D01*
X83667371Y-66938474D01*
X83683255Y-66997753D01*
X83750398Y-67114047D01*
X83845353Y-67209002D01*
X83961647Y-67276145D01*
X84020925Y-67292028D01*
X83457634Y-67855317D01*
X83495497Y-67882826D01*
X83571291Y-67921446D01*
X83622086Y-67969420D01*
X83638881Y-68037241D01*
X83616343Y-68103376D01*
X83561628Y-68146827D01*
X83514321Y-68155928D01*
X82078963Y-68148129D01*
X82078930Y-68148129D01*
X78764126Y-68131880D01*
X76819914Y-68122350D01*
X76752972Y-68102337D01*
X76707476Y-68049309D01*
X76696522Y-67998220D01*
X76715241Y-50720529D01*
X75272611Y-50723542D01*
X75205531Y-50703997D01*
X75159665Y-50651289D01*
X75148356Y-50600567D01*
X75090389Y-43570555D01*
X76415400Y-43570555D01*
X76415400Y-45368400D01*
X77415400Y-45368400D01*
X77415400Y-45868400D01*
X76415400Y-45868400D01*
X76415400Y-47666244D01*
X76421801Y-47725772D01*
X76421803Y-47725779D01*
X76472045Y-47860486D01*
X76472049Y-47860493D01*
X76558209Y-47975587D01*
X76558212Y-47975590D01*
X76673306Y-48061750D01*
X76673313Y-48061754D01*
X76808020Y-48111996D01*
X76808027Y-48111998D01*
X76867555Y-48118399D01*
X76867572Y-48118400D01*
X77665400Y-48118400D01*
X77665400Y-47051412D01*
X77722407Y-47084325D01*
X77849574Y-47118400D01*
X77981226Y-47118400D01*
X78108393Y-47084325D01*
X78165400Y-47051412D01*
X78165400Y-48118400D01*
X78963228Y-48118400D01*
X78963244Y-48118399D01*
X79022772Y-48111998D01*
X79022779Y-48111996D01*
X79157486Y-48061754D01*
X79157493Y-48061750D01*
X79272587Y-47975590D01*
X79272590Y-47975587D01*
X79358750Y-47860493D01*
X79358754Y-47860486D01*
X79408996Y-47725779D01*
X79408998Y-47725772D01*
X79415399Y-47666244D01*
X79415400Y-47666227D01*
X79415400Y-45868400D01*
X78415400Y-45868400D01*
X78415400Y-45368400D01*
X79415400Y-45368400D01*
X79415400Y-43570572D01*
X79415399Y-43570555D01*
X79408998Y-43511027D01*
X79408996Y-43511020D01*
X79358754Y-43376313D01*
X79358750Y-43376306D01*
X79272590Y-43261212D01*
X79272587Y-43261209D01*
X79157493Y-43175049D01*
X79157486Y-43175045D01*
X79022779Y-43124803D01*
X79022772Y-43124801D01*
X78963244Y-43118400D01*
X78165400Y-43118400D01*
X78165400Y-44185388D01*
X78108393Y-44152475D01*
X77981226Y-44118400D01*
X77849574Y-44118400D01*
X77722407Y-44152475D01*
X77665400Y-44185388D01*
X77665400Y-43118400D01*
X76867555Y-43118400D01*
X76808027Y-43124801D01*
X76808020Y-43124803D01*
X76673313Y-43175045D01*
X76673306Y-43175049D01*
X76558212Y-43261209D01*
X76558209Y-43261212D01*
X76472049Y-43376306D01*
X76472045Y-43376313D01*
X76421803Y-43511020D01*
X76421801Y-43511027D01*
X76415400Y-43570555D01*
X75090389Y-43570555D01*
X75062419Y-40178468D01*
X75081550Y-40111272D01*
X75133975Y-40065083D01*
X75188773Y-40053471D01*
X77978000Y-40106600D01*
G37*
%TD.AperFunction*%
%TA.AperFunction,Conductor*%
G36*
X91888417Y-47426863D02*
G01*
X91901775Y-47408478D01*
X91957105Y-47365813D01*
X92026719Y-47359834D01*
X92088514Y-47392440D01*
X92122871Y-47453279D01*
X92125902Y-47474486D01*
X92164036Y-48160907D01*
X92148100Y-48228935D01*
X92097916Y-48277548D01*
X92041350Y-48291780D01*
X91691874Y-48294945D01*
X91624659Y-48275868D01*
X91617875Y-48271275D01*
X91497266Y-48183647D01*
X91345277Y-48106204D01*
X91294481Y-48058229D01*
X91277686Y-47990408D01*
X91300224Y-47924273D01*
X91345277Y-47885234D01*
X91497005Y-47807924D01*
X91534863Y-47780418D01*
X91534863Y-47780417D01*
X90971574Y-47217128D01*
X91030853Y-47201245D01*
X91147147Y-47134102D01*
X91242102Y-47039147D01*
X91309245Y-46922853D01*
X91325128Y-46863574D01*
X91888417Y-47426863D01*
G37*
%TD.AperFunction*%
%TA.AperFunction,Conductor*%
G36*
X91901160Y-45522080D02*
G01*
X91968033Y-45542318D01*
X92013350Y-45595499D01*
X92023943Y-45639198D01*
X92038205Y-45895917D01*
X92022269Y-45963945D01*
X91972085Y-46012558D01*
X91904669Y-46026413D01*
X91888417Y-46025134D01*
X91325128Y-46588424D01*
X91309245Y-46529147D01*
X91242102Y-46412853D01*
X91147147Y-46317898D01*
X91030853Y-46250755D01*
X90971574Y-46234871D01*
X91534863Y-45671581D01*
X91533464Y-45653796D01*
X91536427Y-45639689D01*
X91534494Y-45625406D01*
X91543466Y-45606180D01*
X91547828Y-45585419D01*
X91557946Y-45575154D01*
X91564043Y-45562092D01*
X91581985Y-45550769D01*
X91596879Y-45535662D01*
X91612047Y-45531799D01*
X91623132Y-45524805D01*
X91658100Y-45520071D01*
X91901160Y-45522080D01*
G37*
%TD.AperFunction*%
%TD*%
M02*
