%TF.GenerationSoftware,KiCad,Pcbnew,8.0.7*%
%TF.CreationDate,2025-03-12T15:09:51-04:00*%
%TF.ProjectId,skee-ball,736b6565-2d62-4616-9c6c-2e6b69636164,2*%
%TF.SameCoordinates,Original*%
%TF.FileFunction,Copper,L1,Top*%
%TF.FilePolarity,Positive*%
%FSLAX46Y46*%
G04 Gerber Fmt 4.6, Leading zero omitted, Abs format (unit mm)*
G04 Created by KiCad (PCBNEW 8.0.7) date 2025-03-12 15:09:51*
%MOMM*%
%LPD*%
G01*
G04 APERTURE LIST*
G04 Aperture macros list*
%AMRoundRect*
0 Rectangle with rounded corners*
0 $1 Rounding radius*
0 $2 $3 $4 $5 $6 $7 $8 $9 X,Y pos of 4 corners*
0 Add a 4 corners polygon primitive as box body*
4,1,4,$2,$3,$4,$5,$6,$7,$8,$9,$2,$3,0*
0 Add four circle primitives for the rounded corners*
1,1,$1+$1,$2,$3*
1,1,$1+$1,$4,$5*
1,1,$1+$1,$6,$7*
1,1,$1+$1,$8,$9*
0 Add four rect primitives between the rounded corners*
20,1,$1+$1,$2,$3,$4,$5,0*
20,1,$1+$1,$4,$5,$6,$7,0*
20,1,$1+$1,$6,$7,$8,$9,0*
20,1,$1+$1,$8,$9,$2,$3,0*%
G04 Aperture macros list end*
%TA.AperFunction,SMDPad,CuDef*%
%ADD10RoundRect,0.250000X0.350000X0.450000X-0.350000X0.450000X-0.350000X-0.450000X0.350000X-0.450000X0*%
%TD*%
%TA.AperFunction,ComponentPad*%
%ADD11R,1.700000X1.700000*%
%TD*%
%TA.AperFunction,ComponentPad*%
%ADD12O,1.700000X1.700000*%
%TD*%
%TA.AperFunction,ComponentPad*%
%ADD13C,2.000000*%
%TD*%
%TA.AperFunction,SMDPad,CuDef*%
%ADD14RoundRect,0.250000X0.450000X-0.325000X0.450000X0.325000X-0.450000X0.325000X-0.450000X-0.325000X0*%
%TD*%
%TA.AperFunction,SMDPad,CuDef*%
%ADD15RoundRect,0.112500X-0.237500X0.112500X-0.237500X-0.112500X0.237500X-0.112500X0.237500X0.112500X0*%
%TD*%
%TA.AperFunction,ComponentPad*%
%ADD16R,2.000000X4.000000*%
%TD*%
%TA.AperFunction,ComponentPad*%
%ADD17O,2.000000X3.300000*%
%TD*%
%TA.AperFunction,ComponentPad*%
%ADD18O,3.500000X2.000000*%
%TD*%
%TA.AperFunction,SMDPad,CuDef*%
%ADD19RoundRect,0.250000X0.337500X0.475000X-0.337500X0.475000X-0.337500X-0.475000X0.337500X-0.475000X0*%
%TD*%
%TA.AperFunction,SMDPad,CuDef*%
%ADD20RoundRect,0.250000X-0.450000X0.350000X-0.450000X-0.350000X0.450000X-0.350000X0.450000X0.350000X0*%
%TD*%
%TA.AperFunction,ComponentPad*%
%ADD21R,1.295400X1.295400*%
%TD*%
%TA.AperFunction,ComponentPad*%
%ADD22C,1.295400*%
%TD*%
%TA.AperFunction,SMDPad,CuDef*%
%ADD23RoundRect,0.250000X-0.450000X0.325000X-0.450000X-0.325000X0.450000X-0.325000X0.450000X0.325000X0*%
%TD*%
%TA.AperFunction,SMDPad,CuDef*%
%ADD24RoundRect,0.250000X-0.325000X-0.450000X0.325000X-0.450000X0.325000X0.450000X-0.325000X0.450000X0*%
%TD*%
%TA.AperFunction,SMDPad,CuDef*%
%ADD25RoundRect,0.250000X0.450000X-0.350000X0.450000X0.350000X-0.450000X0.350000X-0.450000X-0.350000X0*%
%TD*%
%TA.AperFunction,ComponentPad*%
%ADD26R,1.600000X1.600000*%
%TD*%
%TA.AperFunction,ComponentPad*%
%ADD27O,1.600000X1.600000*%
%TD*%
%TA.AperFunction,ComponentPad*%
%ADD28C,1.260000*%
%TD*%
%TA.AperFunction,SMDPad,CuDef*%
%ADD29RoundRect,0.375000X-0.375000X0.625000X-0.375000X-0.625000X0.375000X-0.625000X0.375000X0.625000X0*%
%TD*%
%TA.AperFunction,SMDPad,CuDef*%
%ADD30RoundRect,0.500000X-1.400000X0.500000X-1.400000X-0.500000X1.400000X-0.500000X1.400000X0.500000X0*%
%TD*%
%TA.AperFunction,SMDPad,CuDef*%
%ADD31RoundRect,0.075000X0.700000X0.075000X-0.700000X0.075000X-0.700000X-0.075000X0.700000X-0.075000X0*%
%TD*%
%TA.AperFunction,SMDPad,CuDef*%
%ADD32RoundRect,0.075000X0.075000X0.700000X-0.075000X0.700000X-0.075000X-0.700000X0.075000X-0.700000X0*%
%TD*%
%TA.AperFunction,ComponentPad*%
%ADD33R,1.530000X1.530000*%
%TD*%
%TA.AperFunction,ComponentPad*%
%ADD34C,1.530000*%
%TD*%
%TA.AperFunction,ViaPad*%
%ADD35C,0.600000*%
%TD*%
%TA.AperFunction,ViaPad*%
%ADD36C,1.000000*%
%TD*%
%TA.AperFunction,Conductor*%
%ADD37C,0.200000*%
%TD*%
%TA.AperFunction,Conductor*%
%ADD38C,1.200000*%
%TD*%
%TA.AperFunction,Conductor*%
%ADD39C,0.500000*%
%TD*%
%TA.AperFunction,Conductor*%
%ADD40C,0.600000*%
%TD*%
G04 APERTURE END LIST*
D10*
%TO.P,R12,1*%
%TO.N,Net-(C3-Pad2)*%
X146491200Y-69672200D03*
%TO.P,R12,2*%
%TO.N,NRST*%
X144491200Y-69672200D03*
%TD*%
D11*
%TO.P,J18,1,Pin_1*%
%TO.N,GND*%
X149883400Y-100330000D03*
D12*
%TO.P,J18,2,Pin_2*%
%TO.N,PWM_DC*%
X147343400Y-100330000D03*
%TD*%
D13*
%TO.P,SW1,1,1*%
%TO.N,GND*%
X151536400Y-70053200D03*
X158036400Y-70053200D03*
%TO.P,SW1,2,2*%
%TO.N,Net-(C3-Pad2)*%
X151536400Y-74553200D03*
X158036400Y-74553200D03*
%TD*%
D14*
%TO.P,D9,1,K*%
%TO.N,GND*%
X163040000Y-75075000D03*
%TO.P,D9,2,A*%
%TO.N,Net-(D9-A)*%
X163040000Y-73025000D03*
%TD*%
D15*
%TO.P,U11,1,V+*%
%TO.N,VDD*%
X143510000Y-73045800D03*
%TO.P,U11,2,CLOCK*%
%TO.N,EXTERNAL_CLK*%
X143510000Y-74345800D03*
%TO.P,U11,3,GND*%
%TO.N,GND*%
X145510000Y-73695800D03*
%TD*%
D16*
%TO.P,J4,1*%
%TO.N,+24V*%
X79000000Y-46228000D03*
D17*
%TO.P,J4,2*%
%TO.N,GND*%
X73000000Y-46228000D03*
D18*
%TO.P,J4,MP*%
%TO.N,N/C*%
X72000000Y-41728000D03*
X72000000Y-50728000D03*
%TD*%
D19*
%TO.P,FB1,1*%
%TO.N,VDD*%
X142437500Y-99010000D03*
%TO.P,FB1,2*%
%TO.N,VDDA*%
X140362500Y-99010000D03*
%TD*%
D11*
%TO.P,J27,1,Pin_1*%
%TO.N,+5V*%
X105968800Y-104978200D03*
D12*
%TO.P,J27,2,Pin_2*%
%TO.N,US_TRIG3_5*%
X103428800Y-104978200D03*
%TO.P,J27,3,Pin_3*%
%TO.N,US_ECHO3_5*%
X100888800Y-104978200D03*
%TO.P,J27,4,Pin_4*%
%TO.N,GND*%
X98348800Y-104978200D03*
%TD*%
D20*
%TO.P,R4,1*%
%TO.N,PB6*%
X137395000Y-82688000D03*
%TO.P,R4,2*%
%TO.N,Net-(D2-A)*%
X137395000Y-84688000D03*
%TD*%
D21*
%TO.P,U6,1,QB*%
%TO.N,NHD_DB0*%
X153822400Y-57099200D03*
D22*
%TO.P,U6,2,QC*%
%TO.N,unconnected-(U6-QC-Pad2)*%
X153822400Y-54559200D03*
%TO.P,U6,3,QD*%
%TO.N,unconnected-(U6-QD-Pad3)*%
X153822400Y-52019200D03*
%TO.P,U6,4,QE*%
%TO.N,unconnected-(U6-QE-Pad4)*%
X153822400Y-49479200D03*
%TO.P,U6,5,QF*%
%TO.N,unconnected-(U6-QF-Pad5)*%
X153822400Y-46939200D03*
%TO.P,U6,6,QG*%
%TO.N,unconnected-(U6-QG-Pad6)*%
X153822400Y-44399200D03*
%TO.P,U6,7,QH*%
%TO.N,unconnected-(U6-QH-Pad7)*%
X153822400Y-41859200D03*
%TO.P,U6,8,GND*%
%TO.N,GND*%
X153822400Y-39319200D03*
%TO.P,U6,9,QH'*%
%TO.N,unconnected-(U6-QH'-Pad9)*%
X146202400Y-39319200D03*
%TO.P,U6,10,~{SRCLR}*%
%TO.N,unconnected-(U6-~{SRCLR}-Pad10)*%
X146202400Y-41859200D03*
%TO.P,U6,11,SRCLK*%
%TO.N,SPI1-SCK*%
X146202400Y-44399200D03*
%TO.P,U6,12,RCLK*%
%TO.N,RCLK*%
X146202400Y-46939200D03*
%TO.P,U6,13,~{OE}*%
%TO.N,unconnected-(U6-~{OE}-Pad13)*%
X146202400Y-49479200D03*
%TO.P,U6,14,SER*%
%TO.N,SER-CHAIN*%
X146202400Y-52019200D03*
%TO.P,U6,15,QA*%
%TO.N,NHD_DB1*%
X146202400Y-54559200D03*
%TO.P,U6,16,VCC*%
%TO.N,+5V*%
X146202400Y-57099200D03*
%TD*%
D20*
%TO.P,R3,1*%
%TO.N,PB5*%
X135495000Y-82672000D03*
%TO.P,R3,2*%
%TO.N,Net-(D1-A)*%
X135495000Y-84672000D03*
%TD*%
D14*
%TO.P,D6,1,K*%
%TO.N,GND*%
X138440000Y-97155000D03*
%TO.P,D6,2,A*%
%TO.N,Net-(D6-A)*%
X138440000Y-95105000D03*
%TD*%
D23*
%TO.P,D7,1,K*%
%TO.N,GND*%
X113258600Y-49186700D03*
%TO.P,D7,2,A*%
%TO.N,Net-(D7-A)*%
X113258600Y-51236700D03*
%TD*%
D11*
%TO.P,J2,1,Pin_1*%
%TO.N,VDD*%
X161950400Y-95580200D03*
D12*
%TO.P,J2,2,Pin_2*%
%TO.N,Net-(J2-Pin_2)*%
X161950400Y-93040200D03*
%TD*%
D11*
%TO.P,J20,1,Pin_1*%
%TO.N,+6V*%
X84658200Y-81051400D03*
D12*
%TO.P,J20,2,Pin_2*%
%TO.N,PWM_SERVO_6*%
X87198200Y-81051400D03*
%TO.P,J20,3,Pin_3*%
%TO.N,GND*%
X89738200Y-81051400D03*
%TD*%
D24*
%TO.P,D8,1,K*%
%TO.N,GND*%
X94925400Y-80654600D03*
%TO.P,D8,2,A*%
%TO.N,Net-(D8-A)*%
X96975400Y-80654600D03*
%TD*%
D11*
%TO.P,J36,1,Pin_1*%
%TO.N,+5V*%
X161950400Y-80619600D03*
D12*
%TO.P,J36,2,Pin_2*%
%TO.N,US_TRIG4_5*%
X161950400Y-83159600D03*
%TO.P,J36,3,Pin_3*%
%TO.N,US_ECHO4_5*%
X161950400Y-85699600D03*
%TO.P,J36,4,Pin_4*%
%TO.N,GND*%
X161950400Y-88239600D03*
%TD*%
D25*
%TO.P,R8,1*%
%TO.N,VDDA*%
X140430000Y-97130000D03*
%TO.P,R8,2*%
%TO.N,Net-(D6-A)*%
X140430000Y-95130000D03*
%TD*%
D10*
%TO.P,R15,1*%
%TO.N,Net-(J2-Pin_2)*%
X157067000Y-96113600D03*
%TO.P,R15,2*%
%TO.N,BUTTON_IN*%
X155067000Y-96113600D03*
%TD*%
D26*
%TO.P,U9,1,LV4*%
%TO.N,US_TRIG4_3.3*%
X146583400Y-80369600D03*
D27*
%TO.P,U9,2,LV3*%
%TO.N,US_ECHO4_3.3*%
X146583400Y-82909600D03*
%TO.P,U9,3,GND*%
%TO.N,GND*%
X146583400Y-85449600D03*
%TO.P,U9,4,LV*%
%TO.N,VDD*%
X146583400Y-87989600D03*
%TO.P,U9,5,LV2*%
%TO.N,unconnected-(U9-LV2-Pad5)*%
X146583400Y-90529600D03*
%TO.P,U9,6,LV1*%
%TO.N,unconnected-(U9-LV1-Pad6)*%
X146583400Y-93069600D03*
%TO.P,U9,7,HV1*%
%TO.N,unconnected-(U9-HV1-Pad7)*%
X156743400Y-93069600D03*
%TO.P,U9,8,HV2*%
%TO.N,unconnected-(U9-HV2-Pad8)*%
X156743400Y-90529600D03*
%TO.P,U9,9,HV*%
%TO.N,+5V*%
X156743400Y-87989600D03*
%TO.P,U9,10,GND*%
%TO.N,GND*%
X156743400Y-85449600D03*
%TO.P,U9,11,HV3*%
%TO.N,US_ECHO4_5*%
X156743400Y-82909600D03*
%TO.P,U9,12,HV4*%
%TO.N,US_TRIG4_5*%
X156743400Y-80369600D03*
%TD*%
D28*
%TO.P,RV1,1,1*%
%TO.N,+5V*%
X113284000Y-41660000D03*
%TO.P,RV1,2,2*%
%TO.N,Net-(R13-Pad1)*%
X115824000Y-44200000D03*
%TO.P,RV1,3,3*%
%TO.N,GND*%
X113284000Y-46740000D03*
%TD*%
D20*
%TO.P,R6,1*%
%TO.N,PB3*%
X131645000Y-82688000D03*
%TO.P,R6,2*%
%TO.N,Net-(D4-A)*%
X131645000Y-84688000D03*
%TD*%
D14*
%TO.P,D2,1,K*%
%TO.N,GND*%
X137420000Y-88527500D03*
%TO.P,D2,2,A*%
%TO.N,Net-(D2-A)*%
X137420000Y-86477500D03*
%TD*%
%TO.P,D1,1,K*%
%TO.N,GND*%
X135520000Y-88527500D03*
%TO.P,D1,2,A*%
%TO.N,Net-(D1-A)*%
X135520000Y-86477500D03*
%TD*%
D11*
%TO.P,U2,1,LRCLK*%
%TO.N,SPI2-NSS(I2S_WS)*%
X135128000Y-99060000D03*
D12*
%TO.P,U2,2,BCLK*%
%TO.N,SPI2-SCK(I2S_CK)*%
X132588000Y-99060000D03*
%TO.P,U2,3,DIN*%
%TO.N,SPI2-MOSI(I2S_SD)*%
X130048000Y-99060000D03*
%TO.P,U2,4,GAIN_SLOT*%
%TO.N,GND*%
X127508000Y-99060000D03*
%TO.P,U2,5,NC*%
%TO.N,unconnected-(U2-NC-Pad5)*%
X124968000Y-99060000D03*
%TO.P,U2,6,GND*%
%TO.N,GND*%
X122428000Y-99060000D03*
%TO.P,U2,7,VDD*%
%TO.N,VDDA*%
X119888000Y-99060000D03*
%TD*%
D11*
%TO.P,J22,1,Pin_1*%
%TO.N,+5V*%
X91922600Y-105181400D03*
D12*
%TO.P,J22,2,Pin_2*%
%TO.N,US_TRIG1_5*%
X89382600Y-105181400D03*
%TO.P,J22,3,Pin_3*%
%TO.N,US_ECHO1_5*%
X86842600Y-105181400D03*
%TO.P,J22,4,Pin_4*%
%TO.N,GND*%
X84302600Y-105181400D03*
%TD*%
D29*
%TO.P,U13,1,GND*%
%TO.N,GND*%
X165317200Y-59994800D03*
%TO.P,U13,2,VO*%
%TO.N,VDD*%
X163017200Y-59994800D03*
D30*
X163017200Y-66294800D03*
D29*
%TO.P,U13,3,VI*%
%TO.N,+5V*%
X160717200Y-59994800D03*
%TD*%
D31*
%TO.P,U4,1,VBAT*%
%TO.N,VDD*%
X140901500Y-76345000D03*
%TO.P,U4,2,PC13*%
%TO.N,BUTTON_IN*%
X140901500Y-75845000D03*
%TO.P,U4,3,PC14*%
%TO.N,US_ECHO4_3.3*%
X140901500Y-75345000D03*
%TO.P,U4,4,PC15*%
%TO.N,US_TRIG4_3.3*%
X140901500Y-74845000D03*
%TO.P,U4,5,PF0*%
%TO.N,EXTERNAL_CLK*%
X140901500Y-74345000D03*
%TO.P,U4,6,PF1*%
%TO.N,unconnected-(U4-PF1-Pad6)*%
X140901500Y-73845000D03*
%TO.P,U4,7,NRST*%
%TO.N,NRST*%
X140901500Y-73345000D03*
%TO.P,U4,8,PC0*%
%TO.N,unconnected-(U4-PC0-Pad8)*%
X140901500Y-72845000D03*
%TO.P,U4,9,PC1*%
%TO.N,unconnected-(U4-PC1-Pad9)*%
X140901500Y-72345000D03*
%TO.P,U4,10,PC2*%
%TO.N,unconnected-(U4-PC2-Pad10)*%
X140901500Y-71845000D03*
%TO.P,U4,11,PC3*%
%TO.N,unconnected-(U4-PC3-Pad11)*%
X140901500Y-71345000D03*
%TO.P,U4,12,VSSA*%
%TO.N,GND*%
X140901500Y-70845000D03*
%TO.P,U4,13,VDDA*%
%TO.N,VDDA*%
X140901500Y-70345000D03*
%TO.P,U4,14,PA0*%
%TO.N,unconnected-(U4-PA0-Pad14)*%
X140901500Y-69845000D03*
%TO.P,U4,15,PA1*%
%TO.N,ADC_IN1*%
X140901500Y-69345000D03*
%TO.P,U4,16,PA2*%
%TO.N,NHD_E1*%
X140901500Y-68845000D03*
D32*
%TO.P,U4,17,PA3*%
%TO.N,NHD_E2*%
X138976500Y-66920000D03*
%TO.P,U4,18,VSS*%
%TO.N,GND*%
X138476500Y-66920000D03*
%TO.P,U4,19,VDD*%
%TO.N,VDD*%
X137976500Y-66920000D03*
%TO.P,U4,20,PA4*%
%TO.N,RCLK*%
X137476500Y-66920000D03*
%TO.P,U4,21,PA5*%
%TO.N,SPI1-SCK*%
X136976500Y-66920000D03*
%TO.P,U4,22,PA6*%
%TO.N,unconnected-(U4-PA6-Pad22)*%
X136476500Y-66920000D03*
%TO.P,U4,23,PA7*%
%TO.N,SPI1-MOSI*%
X135976500Y-66920000D03*
%TO.P,U4,24,PC4*%
%TO.N,unconnected-(U4-PC4-Pad24)*%
X135476500Y-66920000D03*
%TO.P,U4,25,PC5*%
%TO.N,unconnected-(U4-PC5-Pad25)*%
X134976500Y-66920000D03*
%TO.P,U4,26,PB0*%
%TO.N,unconnected-(U4-PB0-Pad26)*%
X134476500Y-66920000D03*
%TO.P,U4,27,PB1*%
%TO.N,unconnected-(U4-PB1-Pad27)*%
X133976500Y-66920000D03*
%TO.P,U4,28,PB2*%
%TO.N,unconnected-(U4-PB2-Pad28)*%
X133476500Y-66920000D03*
%TO.P,U4,29,PB10*%
%TO.N,unconnected-(U4-PB10-Pad29)*%
X132976500Y-66920000D03*
%TO.P,U4,30,PB11*%
%TO.N,unconnected-(U4-PB11-Pad30)*%
X132476500Y-66920000D03*
%TO.P,U4,31,VSS*%
%TO.N,GND*%
X131976500Y-66920000D03*
%TO.P,U4,32,VDD*%
%TO.N,VDD*%
X131476500Y-66920000D03*
D31*
%TO.P,U4,33,PB12*%
%TO.N,SPI2-NSS(I2S_WS)*%
X129551500Y-68845000D03*
%TO.P,U4,34,PB13*%
%TO.N,SPI2-SCK(I2S_CK)*%
X129551500Y-69345000D03*
%TO.P,U4,35,PB14*%
%TO.N,unconnected-(U4-PB14-Pad35)*%
X129551500Y-69845000D03*
%TO.P,U4,36,PB15*%
%TO.N,SPI2-MOSI(I2S_SD)*%
X129551500Y-70345000D03*
%TO.P,U4,37,PC6*%
%TO.N,US_ECHO0_3.3*%
X129551500Y-70845000D03*
%TO.P,U4,38,PC7*%
%TO.N,US_TRIG0_3.3*%
X129551500Y-71345000D03*
%TO.P,U4,39,PC8*%
%TO.N,US_ECHO1_3.3*%
X129551500Y-71845000D03*
%TO.P,U4,40,PC9*%
%TO.N,US_TRIG1_3.3*%
X129551500Y-72345000D03*
%TO.P,U4,41,PA8*%
%TO.N,US_ECHO2_3.3*%
X129551500Y-72845000D03*
%TO.P,U4,42,PA9*%
%TO.N,US_TRIG2_3.3*%
X129551500Y-73345000D03*
%TO.P,U4,43,PA10*%
%TO.N,US_ECHO3_3.3*%
X129551500Y-73845000D03*
%TO.P,U4,44,PA11*%
%TO.N,US_TRIG3_3.3*%
X129551500Y-74345000D03*
%TO.P,U4,45,PA12*%
%TO.N,unconnected-(U4-PA12-Pad45)*%
X129551500Y-74845000D03*
%TO.P,U4,46,PA13*%
%TO.N,SWDIO*%
X129551500Y-75345000D03*
%TO.P,U4,47,VSS*%
%TO.N,GND*%
X129551500Y-75845000D03*
%TO.P,U4,48,VDDIO2*%
%TO.N,VDD*%
X129551500Y-76345000D03*
D32*
%TO.P,U4,49,PA14*%
%TO.N,SWCLK*%
X131476500Y-78270000D03*
%TO.P,U4,50,PA15*%
%TO.N,unconnected-(U4-PA15-Pad50)*%
X131976500Y-78270000D03*
%TO.P,U4,51,PC10*%
%TO.N,unconnected-(U4-PC10-Pad51)*%
X132476500Y-78270000D03*
%TO.P,U4,52,PC11*%
%TO.N,unconnected-(U4-PC11-Pad52)*%
X132976500Y-78270000D03*
%TO.P,U4,53,PC12*%
%TO.N,unconnected-(U4-PC12-Pad53)*%
X133476500Y-78270000D03*
%TO.P,U4,54,PD2*%
%TO.N,unconnected-(U4-PD2-Pad54)*%
X133976500Y-78270000D03*
%TO.P,U4,55,PB3*%
%TO.N,PB3*%
X134476500Y-78270000D03*
%TO.P,U4,56,PB4*%
%TO.N,PB4*%
X134976500Y-78270000D03*
%TO.P,U4,57,PB5*%
%TO.N,PB5*%
X135476500Y-78270000D03*
%TO.P,U4,58,PB6*%
%TO.N,PB6*%
X135976500Y-78270000D03*
%TO.P,U4,59,PB7*%
%TO.N,PB7*%
X136476500Y-78270000D03*
%TO.P,U4,60,PF11*%
%TO.N,/BOOT0*%
X136976500Y-78270000D03*
%TO.P,U4,61,PB8*%
%TO.N,PWM_SERVO_3.3*%
X137476500Y-78270000D03*
%TO.P,U4,62,PB9*%
%TO.N,PWM_DC*%
X137976500Y-78270000D03*
%TO.P,U4,63,VSS*%
%TO.N,GND*%
X138476500Y-78270000D03*
%TO.P,U4,64,VDD*%
%TO.N,VDD*%
X138976500Y-78270000D03*
%TD*%
D20*
%TO.P,R5,1*%
%TO.N,PB7*%
X139320000Y-82690000D03*
%TO.P,R5,2*%
%TO.N,Net-(D3-A)*%
X139320000Y-84690000D03*
%TD*%
D21*
%TO.P,U5,1,QB*%
%TO.N,NHD_RW*%
X132080000Y-39319200D03*
D22*
%TO.P,U5,2,QC*%
%TO.N,NHD_DB7*%
X132080000Y-41859200D03*
%TO.P,U5,3,QD*%
%TO.N,NHD_DB6*%
X132080000Y-44399200D03*
%TO.P,U5,4,QE*%
%TO.N,NHD_DB5*%
X132080000Y-46939200D03*
%TO.P,U5,5,QF*%
%TO.N,NHD_DB4*%
X132080000Y-49479200D03*
%TO.P,U5,6,QG*%
%TO.N,NHD_DB3*%
X132080000Y-52019200D03*
%TO.P,U5,7,QH*%
%TO.N,NHD_DB2*%
X132080000Y-54559200D03*
%TO.P,U5,8,GND*%
%TO.N,GND*%
X132080000Y-57099200D03*
%TO.P,U5,9,QH'*%
%TO.N,SER-CHAIN*%
X139700000Y-57099200D03*
%TO.P,U5,10,~{SRCLR}*%
%TO.N,unconnected-(U5-~{SRCLR}-Pad10)*%
X139700000Y-54559200D03*
%TO.P,U5,11,SRCLK*%
%TO.N,SPI1-SCK*%
X139700000Y-52019200D03*
%TO.P,U5,12,RCLK*%
%TO.N,RCLK*%
X139700000Y-49479200D03*
%TO.P,U5,13,~{OE}*%
%TO.N,unconnected-(U5-~{OE}-Pad13)*%
X139700000Y-46939200D03*
%TO.P,U5,14,SER*%
%TO.N,SPI1-MOSI*%
X139700000Y-44399200D03*
%TO.P,U5,15,QA*%
%TO.N,NHD_RS*%
X139700000Y-41859200D03*
%TO.P,U5,16,VCC*%
%TO.N,+5V*%
X139700000Y-39319200D03*
%TD*%
D11*
%TO.P,J26,1,Pin_1*%
%TO.N,+5V*%
X105892600Y-98552000D03*
D12*
%TO.P,J26,2,Pin_2*%
%TO.N,US_TRIG2_5*%
X103352600Y-98552000D03*
%TO.P,J26,3,Pin_3*%
%TO.N,US_ECHO2_5*%
X100812600Y-98552000D03*
%TO.P,J26,4,Pin_4*%
%TO.N,GND*%
X98272600Y-98552000D03*
%TD*%
D11*
%TO.P,J21,1,Pin_1*%
%TO.N,+5V*%
X92024200Y-98475800D03*
D12*
%TO.P,J21,2,Pin_2*%
%TO.N,US_TRIG0_5*%
X89484200Y-98475800D03*
%TO.P,J21,3,Pin_3*%
%TO.N,US_ECHO0_5*%
X86944200Y-98475800D03*
%TO.P,J21,4,Pin_4*%
%TO.N,GND*%
X84404200Y-98475800D03*
%TD*%
D10*
%TO.P,R9,1*%
%TO.N,+5V*%
X116560000Y-53860000D03*
%TO.P,R9,2*%
%TO.N,Net-(D7-A)*%
X114560000Y-53860000D03*
%TD*%
D11*
%TO.P,J19,1,Pin_1*%
%TO.N,GND*%
X115540000Y-104630000D03*
D12*
%TO.P,J19,2,Pin_2*%
%TO.N,VDDA*%
X115540000Y-102090000D03*
%TO.P,J19,3,Pin_3*%
%TO.N,Net-(J19-Pin_3)*%
X115540000Y-99550000D03*
%TD*%
D11*
%TO.P,J5,1,Pin_1*%
%TO.N,NHD_RS*%
X161975800Y-39925000D03*
D12*
%TO.P,J5,2,Pin_2*%
%TO.N,NHD_DB0*%
X161975800Y-42465000D03*
%TO.P,J5,3,Pin_3*%
%TO.N,NHD_DB1*%
X161975800Y-45005000D03*
%TO.P,J5,4,Pin_4*%
%TO.N,NHD_E2*%
X161975800Y-47545000D03*
%TO.P,J5,5,Pin_5*%
%TO.N,NHD_E1*%
X161975800Y-50085000D03*
%TD*%
D33*
%TO.P,U1,1,PG*%
%TO.N,unconnected-(U1-PG-Pad1)*%
X84158500Y-61720900D03*
D34*
%TO.P,U1,2,EN*%
%TO.N,unconnected-(U1-EN-Pad2)*%
X84158500Y-64260900D03*
%TO.P,U1,3,VIN*%
%TO.N,+24V*%
X84158500Y-66800900D03*
%TO.P,U1,4,GND*%
%TO.N,GND*%
X84158500Y-69340900D03*
%TO.P,U1,5,VOUT*%
%TO.N,+6V*%
X84158500Y-71880900D03*
%TO.P,U1,6,GND*%
%TO.N,GND*%
X94848500Y-61720900D03*
%TD*%
D20*
%TO.P,R11,1*%
%TO.N,VDD*%
X163000000Y-69270000D03*
%TO.P,R11,2*%
%TO.N,Net-(D9-A)*%
X163000000Y-71270000D03*
%TD*%
D14*
%TO.P,D4,1,K*%
%TO.N,GND*%
X131668200Y-88527500D03*
%TO.P,D4,2,A*%
%TO.N,Net-(D4-A)*%
X131668200Y-86477500D03*
%TD*%
D20*
%TO.P,R7,1*%
%TO.N,PB4*%
X133579000Y-82688000D03*
%TO.P,R7,2*%
%TO.N,Net-(D5-A)*%
X133579000Y-84688000D03*
%TD*%
D26*
%TO.P,U10,1,LV4*%
%TO.N,US_TRIG3_3.3*%
X120650000Y-88900000D03*
D27*
%TO.P,U10,2,LV3*%
%TO.N,US_ECHO3_3.3*%
X120650000Y-86360000D03*
%TO.P,U10,3,GND*%
%TO.N,GND*%
X120650000Y-83820000D03*
%TO.P,U10,4,LV*%
%TO.N,VDD*%
X120650000Y-81280000D03*
%TO.P,U10,5,LV2*%
%TO.N,US_TRIG2_3.3*%
X120650000Y-78740000D03*
%TO.P,U10,6,LV1*%
%TO.N,US_ECHO2_3.3*%
X120650000Y-76200000D03*
%TO.P,U10,7,HV1*%
%TO.N,US_ECHO2_5*%
X110490000Y-76200000D03*
%TO.P,U10,8,HV2*%
%TO.N,US_TRIG2_5*%
X110490000Y-78740000D03*
%TO.P,U10,9,HV*%
%TO.N,+5V*%
X110490000Y-81280000D03*
%TO.P,U10,10,GND*%
%TO.N,GND*%
X110490000Y-83820000D03*
%TO.P,U10,11,HV3*%
%TO.N,US_ECHO3_5*%
X110490000Y-86360000D03*
%TO.P,U10,12,HV4*%
%TO.N,US_TRIG3_5*%
X110490000Y-88900000D03*
%TD*%
D26*
%TO.P,U8,1,LV4*%
%TO.N,US_TRIG1_3.3*%
X120650000Y-72898000D03*
D27*
%TO.P,U8,2,LV3*%
%TO.N,US_ECHO1_3.3*%
X120650000Y-70358000D03*
%TO.P,U8,3,GND*%
%TO.N,GND*%
X120650000Y-67818000D03*
%TO.P,U8,4,LV*%
%TO.N,VDD*%
X120650000Y-65278000D03*
%TO.P,U8,5,LV2*%
%TO.N,US_TRIG0_3.3*%
X120650000Y-62738000D03*
%TO.P,U8,6,LV1*%
%TO.N,US_ECHO0_3.3*%
X120650000Y-60198000D03*
%TO.P,U8,7,HV1*%
%TO.N,US_ECHO0_5*%
X110490000Y-60198000D03*
%TO.P,U8,8,HV2*%
%TO.N,US_TRIG0_5*%
X110490000Y-62738000D03*
%TO.P,U8,9,HV*%
%TO.N,+5V*%
X110490000Y-65278000D03*
%TO.P,U8,10,GND*%
%TO.N,GND*%
X110490000Y-67818000D03*
%TO.P,U8,11,HV3*%
%TO.N,US_ECHO1_5*%
X110490000Y-70358000D03*
%TO.P,U8,12,HV4*%
%TO.N,US_TRIG1_5*%
X110490000Y-72898000D03*
%TD*%
D14*
%TO.P,D5,1,K*%
%TO.N,GND*%
X133620000Y-88527500D03*
%TO.P,D5,2,A*%
%TO.N,Net-(D5-A)*%
X133620000Y-86477500D03*
%TD*%
D11*
%TO.P,J13,1,Pin_1*%
%TO.N,GND*%
X126238000Y-88631000D03*
D12*
%TO.P,J13,2,Pin_2*%
%TO.N,SWCLK*%
X126238000Y-86091000D03*
%TO.P,J13,3,Pin_3*%
%TO.N,SWDIO*%
X126238000Y-83551000D03*
%TD*%
D21*
%TO.P,U7,1*%
%TO.N,GND*%
X84861400Y-92532200D03*
D22*
%TO.P,U7,2*%
X87401400Y-92532200D03*
%TO.P,U7,3*%
%TO.N,unconnected-(U7-Pad3)*%
X89941400Y-92532200D03*
%TO.P,U7,4*%
%TO.N,GND*%
X92481400Y-92532200D03*
%TO.P,U7,5*%
X95021400Y-92532200D03*
%TO.P,U7,6*%
%TO.N,unconnected-(U7-Pad6)*%
X97561400Y-92532200D03*
%TO.P,U7,7,GND*%
%TO.N,GND*%
X100101400Y-92532200D03*
%TO.P,U7,8*%
%TO.N,unconnected-(U7-Pad8)*%
X100101400Y-84912200D03*
%TO.P,U7,9*%
%TO.N,GND*%
X97561400Y-84912200D03*
%TO.P,U7,10*%
X95021400Y-84912200D03*
%TO.P,U7,11*%
%TO.N,PWM_SERVO_6*%
X92481400Y-84912200D03*
%TO.P,U7,12*%
%TO.N,PWM_SERVO_3.3*%
X89941400Y-84912200D03*
%TO.P,U7,13*%
%TO.N,+6V*%
X87401400Y-84912200D03*
%TO.P,U7,14,VCC*%
X84861400Y-84912200D03*
%TD*%
D14*
%TO.P,D3,1,K*%
%TO.N,GND*%
X139345000Y-88527500D03*
%TO.P,D3,2,A*%
%TO.N,Net-(D3-A)*%
X139345000Y-86477500D03*
%TD*%
D11*
%TO.P,J3,1,Pin_1*%
%TO.N,NHD_RW*%
X121920000Y-41910000D03*
D12*
%TO.P,J3,2,Pin_2*%
%TO.N,NHD_DB7*%
X124460000Y-41910000D03*
%TO.P,J3,3,Pin_3*%
%TO.N,NHD_V0*%
X121920000Y-44450000D03*
%TO.P,J3,4,Pin_4*%
%TO.N,NHD_DB6*%
X124460000Y-44450000D03*
%TO.P,J3,5,Pin_5*%
%TO.N,+5V*%
X121920000Y-46990000D03*
%TO.P,J3,6,Pin_6*%
%TO.N,NHD_DB5*%
X124460000Y-46990000D03*
%TO.P,J3,7,Pin_7*%
%TO.N,GND*%
X121920000Y-49530000D03*
%TO.P,J3,8,Pin_8*%
%TO.N,NHD_DB4*%
X124460000Y-49530000D03*
%TO.P,J3,9,Pin_9*%
%TO.N,GND*%
X121920000Y-52070000D03*
%TO.P,J3,10,Pin_10*%
%TO.N,NHD_DB3*%
X124460000Y-52070000D03*
%TO.P,J3,11,Pin_11*%
%TO.N,+5V*%
X121920000Y-54610000D03*
%TO.P,J3,12,Pin_12*%
%TO.N,NHD_DB2*%
X124460000Y-54610000D03*
%TD*%
D33*
%TO.P,U3,1,PG*%
%TO.N,unconnected-(U3-PG-Pad1)*%
X90370000Y-41646000D03*
D34*
%TO.P,U3,2,EN*%
%TO.N,unconnected-(U3-EN-Pad2)*%
X90370000Y-44186000D03*
%TO.P,U3,3,VIN*%
%TO.N,+24V*%
X90370000Y-46726000D03*
%TO.P,U3,4,GND*%
%TO.N,GND*%
X90370000Y-49266000D03*
%TO.P,U3,5,VOUT*%
%TO.N,+5V*%
X90370000Y-51806000D03*
%TO.P,U3,6,GND*%
%TO.N,GND*%
X101060000Y-41646000D03*
%TD*%
D35*
%TO.N,SPI2-NSS(I2S_WS)*%
X127609600Y-66700400D03*
X133360000Y-92800000D03*
%TO.N,VDD*%
X141650000Y-77090000D03*
X145750000Y-77540000D03*
X127190000Y-78240000D03*
X138300000Y-65100000D03*
X150876000Y-77876400D03*
X134874000Y-64008000D03*
X139979400Y-78663800D03*
X154178000Y-66294000D03*
X149352000Y-63246000D03*
X149160000Y-97840000D03*
X143256000Y-63754000D03*
X142110000Y-89870000D03*
X142600000Y-92250000D03*
X145940000Y-97820000D03*
X124260000Y-65200000D03*
X143510000Y-72009000D03*
X127650000Y-65170000D03*
X166270000Y-68750000D03*
X130380000Y-66720000D03*
X142140000Y-87940000D03*
%TO.N,GND*%
X140210000Y-66060000D03*
X132080000Y-65532000D03*
X135750000Y-90340000D03*
D36*
X150980000Y-28820000D03*
X72270000Y-105020000D03*
D35*
X139700000Y-79502000D03*
X113520000Y-48220000D03*
D36*
X86900000Y-28820000D03*
D35*
X95040000Y-79240000D03*
X139573000Y-71374000D03*
X146253200Y-72974200D03*
X128290000Y-76100000D03*
D36*
X166290000Y-105120000D03*
D35*
X138380000Y-98390000D03*
X165640000Y-58160000D03*
X163060000Y-76420000D03*
%TO.N,SPI2-SCK(I2S_CK)*%
X127558800Y-68503800D03*
X131826000Y-92964000D03*
%TO.N,SPI2-MOSI(I2S_SD)*%
X130048000Y-93726000D03*
X127508000Y-69799200D03*
%TO.N,SPI1-SCK*%
X141097000Y-52019200D03*
X138000000Y-62230000D03*
%TO.N,SPI1-MOSI*%
X140208000Y-61137800D03*
%TO.N,RCLK*%
X144805400Y-46939200D03*
X142062200Y-49479200D03*
X144018000Y-59944000D03*
%TO.N,PWM_SERVO_3.3*%
X109931200Y-91897200D03*
X89941400Y-83769200D03*
%TO.N,+5V*%
X90320000Y-53780000D03*
X118872000Y-55626000D03*
X160720000Y-58040000D03*
X168470000Y-80650000D03*
%TO.N,Net-(D8-A)*%
X97040000Y-79260000D03*
%TO.N,ADC_IN1*%
X126960000Y-80770000D03*
%TO.N,VDDA*%
X139496800Y-70332600D03*
X113284000Y-102108000D03*
X140720000Y-93330000D03*
X118364000Y-102108000D03*
%TO.N,Net-(C3-Pad2)*%
X148183600Y-74553200D03*
%TO.N,Net-(J2-Pin_2)*%
X159867600Y-93040200D03*
%TO.N,/BOOT0*%
X136976500Y-77165200D03*
%TD*%
D37*
%TO.N,SPI2-NSS(I2S_WS)*%
X135128000Y-99060000D02*
X135128000Y-94568000D01*
X127609600Y-66700400D02*
X127609600Y-66903100D01*
X127609600Y-66903100D02*
X129551500Y-68845000D01*
X135128000Y-94568000D02*
X133360000Y-92800000D01*
%TO.N,VDD*%
X127190000Y-78240000D02*
X127210000Y-78220000D01*
X140901500Y-76891500D02*
X141100000Y-77090000D01*
X138976500Y-78270000D02*
X139585600Y-78270000D01*
X137976500Y-65343500D02*
X138220000Y-65100000D01*
X131476500Y-66920000D02*
X131286500Y-66730000D01*
X137976500Y-66920000D02*
X137976500Y-65343500D01*
X163000000Y-69270000D02*
X165750000Y-69270000D01*
X142437500Y-99010000D02*
X142530000Y-99010000D01*
X143510000Y-73045800D02*
X143510000Y-72009000D01*
X141100000Y-77090000D02*
X141650000Y-77090000D01*
X163017200Y-59994800D02*
X163017200Y-58322800D01*
X139585600Y-78270000D02*
X139979400Y-78663800D01*
D38*
X142530000Y-99010000D02*
X143740000Y-97800000D01*
D37*
X138300000Y-65100000D02*
X138300000Y-65020000D01*
X129551500Y-76345000D02*
X129551500Y-77658500D01*
X129551500Y-77658500D02*
X128990000Y-78220000D01*
X130380000Y-66720000D02*
X130370000Y-66730000D01*
X163017200Y-58322800D02*
X163030000Y-58310000D01*
X146583400Y-87989600D02*
X147613800Y-89020000D01*
X138300000Y-65020000D02*
X138250000Y-65070000D01*
X138220000Y-65100000D02*
X138300000Y-65100000D01*
X131286500Y-66730000D02*
X130380000Y-66720000D01*
X140901500Y-76345000D02*
X140901500Y-76891500D01*
X165750000Y-69270000D02*
X166270000Y-68750000D01*
X127210000Y-78220000D02*
X127230000Y-78220000D01*
X128990000Y-78220000D02*
X127250000Y-78220000D01*
X127250000Y-78220000D02*
X127190000Y-78240000D01*
X147613800Y-89020000D02*
X148370000Y-89020000D01*
%TO.N,GND*%
X165317200Y-59994800D02*
X165317200Y-58482800D01*
X139573000Y-71366090D02*
X139573000Y-71374000D01*
X163040000Y-76400000D02*
X163060000Y-76420000D01*
X129551500Y-75845000D02*
X128545000Y-75845000D01*
X145531600Y-73695800D02*
X146253200Y-72974200D01*
X139345000Y-88527500D02*
X137420000Y-88527500D01*
X113258600Y-48481400D02*
X113520000Y-48220000D01*
X138440000Y-97155000D02*
X138440000Y-98330000D01*
X131976500Y-66920000D02*
X131976500Y-65635500D01*
X138476500Y-66112590D02*
X138744090Y-65845000D01*
X139995000Y-65845000D02*
X140210000Y-66060000D01*
X137420000Y-88527500D02*
X135520000Y-88527500D01*
X140901500Y-70845000D02*
X140094090Y-70845000D01*
X94925400Y-80654600D02*
X94925400Y-79354600D01*
X94925400Y-79354600D02*
X95040000Y-79240000D01*
X138440000Y-98330000D02*
X138380000Y-98390000D01*
X135520000Y-88527500D02*
X133620000Y-88527500D01*
X135520000Y-90110000D02*
X135750000Y-90340000D01*
X140094090Y-70845000D02*
X139573000Y-71366090D01*
X138476500Y-78270000D02*
X138476500Y-79490814D01*
X138476500Y-79490814D02*
X138824286Y-79838600D01*
X131976500Y-65635500D02*
X132080000Y-65532000D01*
X139363400Y-79838600D02*
X139700000Y-79502000D01*
X138476500Y-66920000D02*
X138476500Y-66112590D01*
X165317200Y-58482800D02*
X165640000Y-58160000D01*
X131976500Y-66920000D02*
X132026500Y-66870000D01*
X128545000Y-75845000D02*
X128290000Y-76100000D01*
X113258600Y-49186700D02*
X113258600Y-48481400D01*
X135520000Y-88527500D02*
X135520000Y-90110000D01*
X145510000Y-73695800D02*
X145531600Y-73695800D01*
X163040000Y-75075000D02*
X163040000Y-76400000D01*
X138744090Y-65845000D02*
X139995000Y-65845000D01*
X131668200Y-88527500D02*
X133620000Y-88527500D01*
X138824286Y-79838600D02*
X139363400Y-79838600D01*
%TO.N,SPI2-SCK(I2S_CK)*%
X128400000Y-69345000D02*
X129551500Y-69345000D01*
X132588000Y-99060000D02*
X132588000Y-93726000D01*
X132588000Y-93726000D02*
X131826000Y-92964000D01*
X127558800Y-68503800D02*
X128400000Y-69345000D01*
%TO.N,SPI2-MOSI(I2S_SD)*%
X127508000Y-69799200D02*
X128053800Y-70345000D01*
X128053800Y-70345000D02*
X129551500Y-70345000D01*
X130048000Y-99060000D02*
X130048000Y-93726000D01*
%TO.N,PWM_SERVO_6*%
X87198200Y-82397600D02*
X87198200Y-81051400D01*
X91973400Y-83134200D02*
X87934800Y-83134200D01*
X87934800Y-83134200D02*
X87198200Y-82397600D01*
X92481400Y-83642200D02*
X91973400Y-83134200D01*
X92481400Y-84912200D02*
X92481400Y-83642200D01*
%TO.N,US_TRIG0_5*%
X91370200Y-94507000D02*
X102876400Y-94507000D01*
X103606600Y-93776800D02*
X103606600Y-64541400D01*
X103606600Y-64541400D02*
X105410000Y-62738000D01*
X102876400Y-94507000D02*
X103606600Y-93776800D01*
X105410000Y-62738000D02*
X110490000Y-62738000D01*
X89484200Y-96393000D02*
X91370200Y-94507000D01*
X89484200Y-98475800D02*
X89484200Y-96393000D01*
%TO.N,NRST*%
X142443200Y-71720200D02*
X142443200Y-73050400D01*
X144491200Y-69672200D02*
X142443200Y-71720200D01*
X142443200Y-73050400D02*
X142148600Y-73345000D01*
X142148600Y-73345000D02*
X140901500Y-73345000D01*
%TO.N,US_ECHO0_5*%
X103073200Y-62255400D02*
X105130600Y-60198000D01*
X86944200Y-95986600D02*
X88823800Y-94107000D01*
X86944200Y-98475800D02*
X86944200Y-95986600D01*
X102641400Y-94107000D02*
X103073200Y-93675200D01*
X103073200Y-93675200D02*
X103073200Y-62255400D01*
X105130600Y-60198000D02*
X110490000Y-60198000D01*
X88823800Y-94107000D02*
X102641400Y-94107000D01*
%TO.N,PB4*%
X134976500Y-78270000D02*
X134976500Y-81290500D01*
X134976500Y-81290500D02*
X133579000Y-82688000D01*
%TO.N,SPI1-SCK*%
X136976500Y-63226300D02*
X136982200Y-63220600D01*
X137013700Y-63226300D02*
X138000000Y-62240000D01*
X144195800Y-44399200D02*
X146202400Y-44399200D01*
X141097000Y-52019200D02*
X143052800Y-50063400D01*
X143052800Y-45542200D02*
X144195800Y-44399200D01*
X143052800Y-50063400D02*
X143052800Y-45542200D01*
X136976500Y-63226300D02*
X137013700Y-63226300D01*
X136976500Y-63226300D02*
X136976500Y-66920000D01*
X138010000Y-62230000D02*
X138010000Y-62230000D01*
X138000000Y-62240000D02*
X138000000Y-62230000D01*
X139700000Y-52019200D02*
X141097000Y-52019200D01*
X138000000Y-62230000D02*
X138010000Y-62230000D01*
%TO.N,US_TRIG1_5*%
X89382600Y-103073200D02*
X91059000Y-101396800D01*
X103378000Y-95554800D02*
X104825800Y-94107000D01*
X104825800Y-94107000D02*
X104825800Y-74091800D01*
X104825800Y-74091800D02*
X106019600Y-72898000D01*
X106019600Y-72898000D02*
X110490000Y-72898000D01*
X93954600Y-101396800D02*
X94945200Y-100406200D01*
X94945200Y-97205800D02*
X96596200Y-95554800D01*
X96596200Y-95554800D02*
X103378000Y-95554800D01*
X94945200Y-100406200D02*
X94945200Y-97205800D01*
X89382600Y-105181400D02*
X89382600Y-103073200D01*
X91059000Y-101396800D02*
X93954600Y-101396800D01*
%TO.N,US_ECHO1_5*%
X103073200Y-94996000D02*
X104140000Y-93929200D01*
X105867200Y-70358000D02*
X110490000Y-70358000D01*
X86817200Y-102285800D02*
X88290400Y-100812600D01*
X94386400Y-100253800D02*
X94386400Y-96977200D01*
X86842600Y-102311200D02*
X86817200Y-102285800D01*
X88290400Y-100812600D02*
X93827600Y-100812600D01*
X96367600Y-94996000D02*
X103073200Y-94996000D01*
X93827600Y-100812600D02*
X94386400Y-100253800D01*
X104140000Y-93929200D02*
X104140000Y-72085200D01*
X94386400Y-96977200D02*
X96367600Y-94996000D01*
X86842600Y-105181400D02*
X86842600Y-102311200D01*
X104140000Y-72085200D02*
X105867200Y-70358000D01*
%TO.N,US_TRIG2_5*%
X103352600Y-97231200D02*
X106349800Y-94234000D01*
X106349800Y-94234000D02*
X106349800Y-79629000D01*
X103352600Y-98552000D02*
X103352600Y-97231200D01*
X107238800Y-78740000D02*
X110490000Y-78740000D01*
X106349800Y-79629000D02*
X107238800Y-78740000D01*
%TO.N,PB3*%
X134476500Y-78270000D02*
X134476500Y-81203500D01*
X134290000Y-81390000D02*
X132943000Y-81390000D01*
X134476500Y-81203500D02*
X134290000Y-81390000D01*
X132943000Y-81390000D02*
X131645000Y-82688000D01*
%TO.N,PB5*%
X135476500Y-82653500D02*
X135495000Y-82672000D01*
X135476500Y-78270000D02*
X135476500Y-82653500D01*
%TO.N,SPI1-MOSI*%
X137947400Y-61137800D02*
X135976500Y-63108700D01*
X140208000Y-61137800D02*
X137947400Y-61137800D01*
X135976500Y-63108700D02*
X135976500Y-66920000D01*
%TO.N,US_ECHO2_5*%
X107111800Y-76200000D02*
X110490000Y-76200000D01*
X103657400Y-96113600D02*
X105359200Y-94411800D01*
X105359200Y-77952600D02*
X107111800Y-76200000D01*
X105359200Y-94411800D02*
X105359200Y-77952600D01*
X101219000Y-96113600D02*
X103657400Y-96113600D01*
X100812600Y-98552000D02*
X100812600Y-96520000D01*
X100812600Y-96520000D02*
X101219000Y-96113600D01*
%TO.N,SWCLK*%
X129032000Y-81280000D02*
X130048000Y-80264000D01*
X126238000Y-86091000D02*
X126238000Y-85730256D01*
X129032000Y-82936256D02*
X129032000Y-81280000D01*
X131476500Y-79724500D02*
X131476500Y-78270000D01*
X130937000Y-80264000D02*
X131476500Y-79724500D01*
X130048000Y-80264000D02*
X130937000Y-80264000D01*
X126238000Y-85730256D02*
X129032000Y-82936256D01*
%TO.N,US_TRIG3_5*%
X103428800Y-102006400D02*
X103759000Y-101676200D01*
X103428800Y-104978200D02*
X103428800Y-102006400D01*
X109016800Y-100507800D02*
X109016800Y-89052400D01*
X103759000Y-101676200D02*
X107848400Y-101676200D01*
X109016800Y-89052400D02*
X109169200Y-88900000D01*
X107848400Y-101676200D02*
X109016800Y-100507800D01*
X109169200Y-88900000D02*
X110490000Y-88900000D01*
%TO.N,BUTTON_IN*%
X144348200Y-82727800D02*
X142900400Y-81280000D01*
X144348200Y-95529400D02*
X144348200Y-82727800D01*
X155067000Y-96113600D02*
X144932400Y-96113600D01*
X142030514Y-75845000D02*
X140901500Y-75845000D01*
X142900400Y-76714886D02*
X142030514Y-75845000D01*
X142900400Y-81280000D02*
X142900400Y-76714886D01*
X144932400Y-96113600D02*
X144348200Y-95529400D01*
%TO.N,US_ECHO3_5*%
X108864400Y-86360000D02*
X110490000Y-86360000D01*
X102387400Y-100838000D02*
X107823000Y-100838000D01*
X107823000Y-100838000D02*
X108305600Y-100355400D01*
X108305600Y-86918800D02*
X108864400Y-86360000D01*
X100888800Y-102336600D02*
X102387400Y-100838000D01*
X100888800Y-104978200D02*
X100888800Y-102336600D01*
X108305600Y-100355400D02*
X108305600Y-86918800D01*
%TO.N,SWDIO*%
X126966000Y-75345000D02*
X129551500Y-75345000D01*
X126238000Y-76073000D02*
X126966000Y-75345000D01*
X126238000Y-83551000D02*
X126238000Y-76073000D01*
%TO.N,US_TRIG4_5*%
X161950400Y-83159600D02*
X159533400Y-83159600D01*
X159533400Y-83159600D02*
X156743400Y-80369600D01*
%TO.N,RCLK*%
X139700000Y-49479200D02*
X141198600Y-49479200D01*
X144018000Y-61214000D02*
X144018000Y-59944000D01*
X142494000Y-62738000D02*
X144018000Y-61214000D01*
X146202400Y-46939200D02*
X144805400Y-46939200D01*
X139813471Y-62738000D02*
X142494000Y-62738000D01*
X137476500Y-66920000D02*
X137476500Y-65074971D01*
X137476500Y-65074971D02*
X139813471Y-62738000D01*
X141198600Y-49479200D02*
X142062200Y-49479200D01*
%TO.N,PWM_SERVO_3.3*%
X141210000Y-80740000D02*
X143280658Y-82810658D01*
X143280658Y-89969342D02*
X141352800Y-91897200D01*
X141352800Y-91897200D02*
X109931200Y-91897200D01*
X137476500Y-78270000D02*
X137476500Y-79672029D01*
X138398000Y-80740000D02*
X141210000Y-80740000D01*
X138176000Y-80371529D02*
X138176000Y-80518000D01*
X89941400Y-84912200D02*
X89941400Y-83769200D01*
X137476500Y-79672029D02*
X138176000Y-80371529D01*
X89941400Y-83769200D02*
X89941400Y-83693000D01*
X143280658Y-82810658D02*
X143280658Y-89969342D01*
X138176000Y-80518000D02*
X138398000Y-80740000D01*
%TO.N,+5V*%
X121920000Y-54610000D02*
X119010000Y-54610000D01*
X116560000Y-53860000D02*
X118210000Y-53860000D01*
D39*
X121920000Y-46990000D02*
X119200000Y-46990000D01*
D37*
X160717200Y-59994800D02*
X160717200Y-58042800D01*
X113284000Y-41660000D02*
X113284000Y-38414000D01*
D40*
X169450000Y-53330000D02*
X168440000Y-52320000D01*
D37*
X113284000Y-38414000D02*
X113280000Y-38410000D01*
X160720000Y-58040000D02*
X160720000Y-54160000D01*
D39*
X121920000Y-46990000D02*
X120440000Y-48470000D01*
D37*
X160717200Y-58042800D02*
X160720000Y-58040000D01*
D40*
X169450000Y-79670000D02*
X169450000Y-53330000D01*
D37*
X119200000Y-46990000D02*
X119150000Y-47040000D01*
D40*
X168440000Y-52320000D02*
X167820000Y-52320000D01*
X168470000Y-80650000D02*
X169450000Y-79670000D01*
D39*
X120440000Y-48470000D02*
X119240000Y-48470000D01*
D37*
X160720000Y-54160000D02*
X160770000Y-54110000D01*
X118210000Y-53860000D02*
X118220000Y-53850000D01*
X139700000Y-39319200D02*
X139700000Y-35560000D01*
%TO.N,US_ECHO0_3.3*%
X126492000Y-70612000D02*
X126492000Y-62357000D01*
X126492000Y-62357000D02*
X126403100Y-62268100D01*
X129551500Y-70845000D02*
X126725000Y-70845000D01*
X124333000Y-60198000D02*
X120650000Y-60198000D01*
X126403100Y-62268100D02*
X124333000Y-60198000D01*
X126725000Y-70845000D02*
X126492000Y-70612000D01*
%TO.N,US_ECHO3_3.3*%
X123037600Y-74218800D02*
X123418600Y-73837800D01*
X123425800Y-73845000D02*
X129551500Y-73845000D01*
X123037600Y-85344000D02*
X123037600Y-74218800D01*
X123418600Y-73837800D02*
X123425800Y-73845000D01*
X122021600Y-86360000D02*
X123037600Y-85344000D01*
X120650000Y-86360000D02*
X122021600Y-86360000D01*
%TO.N,US_ECHO2_3.3*%
X129551500Y-72845000D02*
X122411686Y-72845000D01*
X122047000Y-73209686D02*
X122047000Y-76073000D01*
X122047000Y-76073000D02*
X121920000Y-76200000D01*
X122411686Y-72845000D02*
X122047000Y-73209686D01*
X121920000Y-76200000D02*
X120650000Y-76200000D01*
%TO.N,US_ECHO1_3.3*%
X122174000Y-71628000D02*
X122391000Y-71845000D01*
X122391000Y-71845000D02*
X129551500Y-71845000D01*
X120650000Y-70358000D02*
X121920000Y-70358000D01*
X121920000Y-70358000D02*
X122174000Y-70612000D01*
X122174000Y-70612000D02*
X122174000Y-71628000D01*
%TO.N,US_ECHO4_3.3*%
X146583400Y-82909600D02*
X145215800Y-82909600D01*
X142096200Y-75345000D02*
X140901500Y-75345000D01*
X143357600Y-76606400D02*
X142096200Y-75345000D01*
X145215800Y-82909600D02*
X143357600Y-81051400D01*
X143357600Y-81051400D02*
X143357600Y-76606400D01*
%TO.N,Net-(D1-A)*%
X135495000Y-86452500D02*
X135520000Y-86477500D01*
X135495000Y-84672000D02*
X135495000Y-86452500D01*
%TO.N,Net-(D2-A)*%
X137395000Y-84688000D02*
X137395000Y-86452500D01*
X137395000Y-86452500D02*
X137420000Y-86477500D01*
%TO.N,Net-(D3-A)*%
X139320000Y-86452500D02*
X139345000Y-86477500D01*
X139320000Y-84690000D02*
X139320000Y-86452500D01*
%TO.N,Net-(D4-A)*%
X131645000Y-86454300D02*
X131668200Y-86477500D01*
X131645000Y-84688000D02*
X131645000Y-86454300D01*
%TO.N,Net-(D5-A)*%
X133579000Y-84688000D02*
X133579000Y-86436500D01*
X133579000Y-86436500D02*
X133620000Y-86477500D01*
%TO.N,Net-(D7-A)*%
X113258600Y-51236700D02*
X113258600Y-52558600D01*
X113258600Y-52558600D02*
X114560000Y-53860000D01*
%TO.N,Net-(D8-A)*%
X96975400Y-80654600D02*
X96975400Y-79324600D01*
X96975400Y-79324600D02*
X97040000Y-79260000D01*
%TO.N,Net-(D9-A)*%
X163000000Y-72985000D02*
X163040000Y-73025000D01*
X163000000Y-71270000D02*
X163000000Y-72985000D01*
%TO.N,US_ECHO4_5*%
X159533400Y-85699600D02*
X156743400Y-82909600D01*
X161950400Y-85699600D02*
X159533400Y-85699600D01*
%TO.N,+6V*%
X84658200Y-84709000D02*
X84861400Y-84912200D01*
X84861400Y-84912200D02*
X87401400Y-84912200D01*
%TO.N,SER-CHAIN*%
X144348200Y-52374800D02*
X144703800Y-52019200D01*
X144348200Y-53746400D02*
X144348200Y-52374800D01*
X140995400Y-57099200D02*
X144348200Y-53746400D01*
X139700000Y-57099200D02*
X140995400Y-57099200D01*
X144703800Y-52019200D02*
X146202400Y-52019200D01*
%TO.N,ADC_IN1*%
X129920000Y-78510000D02*
X127660000Y-80770000D01*
X139085000Y-69345000D02*
X129920000Y-78510000D01*
X127660000Y-80770000D02*
X126960000Y-80770000D01*
X139094090Y-69345000D02*
X140901500Y-69345000D01*
X139094090Y-69345000D02*
X139085000Y-69345000D01*
%TO.N,PB6*%
X135976500Y-81269500D02*
X137395000Y-82688000D01*
X135976500Y-78270000D02*
X135976500Y-81269500D01*
%TO.N,PB7*%
X136476500Y-81203814D02*
X136752686Y-81480000D01*
X138110000Y-81480000D02*
X139320000Y-82690000D01*
X136476500Y-78270000D02*
X136476500Y-81203814D01*
X136752686Y-81480000D02*
X138110000Y-81480000D01*
%TO.N,PWM_DC*%
X147343400Y-97127600D02*
X147343400Y-100330000D01*
X137976500Y-78270000D02*
X137976500Y-79556500D01*
X138658600Y-80238600D02*
X141293314Y-80238600D01*
X143941800Y-95732600D02*
X144754600Y-96545400D01*
X143941800Y-82887086D02*
X143941800Y-95732600D01*
X137976500Y-79556500D02*
X138658600Y-80238600D01*
X146761200Y-96545400D02*
X147343400Y-97127600D01*
X144754600Y-96545400D02*
X146761200Y-96545400D01*
X141293314Y-80238600D02*
X143941800Y-82887086D01*
%TO.N,VDDA*%
X140430000Y-97130000D02*
X140430000Y-98942500D01*
X140889100Y-70332600D02*
X140901500Y-70345000D01*
X141500000Y-97130000D02*
X140430000Y-97130000D01*
X140430000Y-98942500D02*
X140362500Y-99010000D01*
D38*
X140362500Y-99010000D02*
X139496000Y-99010000D01*
X139496000Y-99010000D02*
X138938000Y-99568000D01*
D37*
X142240000Y-94850000D02*
X142240000Y-96390000D01*
X139496800Y-70332600D02*
X140889100Y-70332600D01*
X140720000Y-93330000D02*
X140700000Y-93310000D01*
X140720000Y-93330000D02*
X142240000Y-94850000D01*
X142240000Y-96390000D02*
X141500000Y-97130000D01*
%TO.N,US_TRIG3_3.3*%
X123825000Y-74726800D02*
X124206800Y-74345000D01*
X124206800Y-74345000D02*
X129551500Y-74345000D01*
X122123200Y-88900000D02*
X123825000Y-87198200D01*
X120650000Y-88900000D02*
X122123200Y-88900000D01*
X123825000Y-87198200D02*
X123825000Y-74726800D01*
%TO.N,US_TRIG4_3.3*%
X146583400Y-80369600D02*
X145012600Y-80369600D01*
X144221200Y-79578200D02*
X144221200Y-76631800D01*
X142443200Y-74853800D02*
X142290800Y-74853800D01*
X144221200Y-76631800D02*
X142443200Y-74853800D01*
X142282000Y-74845000D02*
X140901500Y-74845000D01*
X145012600Y-80369600D02*
X144221200Y-79578200D01*
X142290800Y-74853800D02*
X142282000Y-74845000D01*
%TO.N,US_TRIG2_3.3*%
X122555000Y-73660000D02*
X122870000Y-73345000D01*
X122555000Y-76835000D02*
X122555000Y-73660000D01*
X122870000Y-73345000D02*
X129551500Y-73345000D01*
X120650000Y-78740000D02*
X122555000Y-76835000D01*
%TO.N,US_TRIG0_3.3*%
X126314200Y-71348600D02*
X126441200Y-71348600D01*
X126034800Y-64439800D02*
X126034800Y-71069200D01*
X126034800Y-71069200D02*
X126314200Y-71348600D01*
X126441200Y-71348600D02*
X126444800Y-71345000D01*
X126444800Y-71345000D02*
X129551500Y-71345000D01*
X124333000Y-62738000D02*
X120650000Y-62738000D01*
X124333000Y-62738000D02*
X126034800Y-64439800D01*
%TO.N,US_TRIG1_3.3*%
X120650000Y-72898000D02*
X121793000Y-72898000D01*
X121793000Y-72898000D02*
X122346000Y-72345000D01*
X122346000Y-72345000D02*
X129551500Y-72345000D01*
%TO.N,NHD_DB4*%
X124460000Y-49530000D02*
X132080000Y-49530000D01*
%TO.N,NHD_DB6*%
X124460000Y-44450000D02*
X132080000Y-44450000D01*
%TO.N,NHD_E2*%
X148802200Y-66920000D02*
X138976500Y-66920000D01*
X157607000Y-58115200D02*
X148802200Y-66920000D01*
X158271200Y-47545000D02*
X157607000Y-48209200D01*
X157607000Y-48209200D02*
X157607000Y-58115200D01*
X161975800Y-47545000D02*
X158271200Y-47545000D01*
%TO.N,NHD_RS*%
X161975800Y-39925000D02*
X159490400Y-37439600D01*
X142138400Y-41275000D02*
X141554200Y-41859200D01*
X159490400Y-37439600D02*
X143865600Y-37439600D01*
X142138400Y-39166800D02*
X142138400Y-41275000D01*
X141554200Y-41859200D02*
X139700000Y-41859200D01*
X143865600Y-37439600D02*
X142138400Y-39166800D01*
%TO.N,NHD_RW*%
X121920000Y-40182800D02*
X121920000Y-41910000D01*
X132080000Y-39319200D02*
X122783600Y-39319200D01*
X122783600Y-39319200D02*
X121920000Y-40182800D01*
%TO.N,NHD_DB7*%
X132080000Y-41910000D02*
X124460000Y-41910000D01*
%TO.N,NHD_E1*%
X158343600Y-58420000D02*
X149047200Y-67716400D01*
X158753800Y-50085000D02*
X158343600Y-50495200D01*
X142051200Y-68845000D02*
X140901500Y-68845000D01*
X143179800Y-67716400D02*
X142051200Y-68845000D01*
X158343600Y-50495200D02*
X158343600Y-58420000D01*
X161975800Y-50085000D02*
X158753800Y-50085000D01*
X149047200Y-67716400D02*
X143179800Y-67716400D01*
%TO.N,NHD_DB2*%
X124460000Y-54610000D02*
X132080000Y-54610000D01*
%TO.N,NHD_DB0*%
X158042600Y-42465000D02*
X161975800Y-42465000D01*
X153822400Y-57099200D02*
X155117800Y-57099200D01*
X155422600Y-45085000D02*
X158042600Y-42465000D01*
X155422600Y-56794400D02*
X155422600Y-45085000D01*
X155117800Y-57099200D02*
X155422600Y-56794400D01*
%TO.N,NHD_DB3*%
X132080000Y-52070000D02*
X124460000Y-52070000D01*
%TO.N,NHD_DB1*%
X161975800Y-45005000D02*
X157483800Y-45005000D01*
X156641800Y-45847000D02*
X156641800Y-57683400D01*
X157483800Y-45005000D02*
X156641800Y-45847000D01*
X154127200Y-60198000D02*
X151841200Y-60198000D01*
X151841200Y-60198000D02*
X146202400Y-54559200D01*
X156641800Y-57683400D02*
X154127200Y-60198000D01*
%TO.N,NHD_DB5*%
X132080000Y-46990000D02*
X124460000Y-46990000D01*
%TO.N,Net-(D6-A)*%
X140405000Y-95105000D02*
X140430000Y-95130000D01*
X138440000Y-95105000D02*
X140405000Y-95105000D01*
%TO.N,Net-(C3-Pad2)*%
X148183600Y-71364600D02*
X148183600Y-74553200D01*
X158036400Y-74553200D02*
X151536400Y-74553200D01*
X148183600Y-74553200D02*
X148103200Y-74553200D01*
X148103200Y-74553200D02*
X148082000Y-74574400D01*
X151536400Y-74553200D02*
X148183600Y-74553200D01*
X148162400Y-74574400D02*
X148183600Y-74553200D01*
X146491200Y-69672200D02*
X148183600Y-71364600D01*
%TO.N,EXTERNAL_CLK*%
X143510000Y-74345800D02*
X140902300Y-74345800D01*
X140902300Y-74345800D02*
X140901500Y-74345000D01*
%TO.N,Net-(J2-Pin_2)*%
X157067000Y-96113600D02*
X158191200Y-96113600D01*
X158191200Y-96113600D02*
X159867600Y-94437200D01*
X159791400Y-93040200D02*
X159867600Y-93040200D01*
X159867600Y-93040200D02*
X161950400Y-93040200D01*
X159867600Y-94437200D02*
X159867600Y-93040200D01*
%TO.N,/BOOT0*%
X136976500Y-78270000D02*
X136976500Y-77165200D01*
X136976500Y-77145500D02*
X136982200Y-77139800D01*
X136976500Y-77165200D02*
X136976500Y-77145500D01*
%TD*%
%TA.AperFunction,Conductor*%
%TO.N,VDD*%
G36*
X124099942Y-63358185D02*
G01*
X124120584Y-63374819D01*
X125397981Y-64652216D01*
X125431466Y-64713539D01*
X125434300Y-64739897D01*
X125434300Y-65408000D01*
X125414615Y-65475039D01*
X125361811Y-65520794D01*
X125310300Y-65532000D01*
X122298000Y-65532000D01*
X122230961Y-65512315D01*
X122185206Y-65459511D01*
X122174000Y-65408000D01*
X122174000Y-63462500D01*
X122193685Y-63395461D01*
X122246489Y-63349706D01*
X122298000Y-63338500D01*
X124032903Y-63338500D01*
X124099942Y-63358185D01*
G37*
%TD.AperFunction*%
%TA.AperFunction,Conductor*%
G36*
X137181677Y-60471685D02*
G01*
X137227432Y-60524489D01*
X137237376Y-60593647D01*
X137208351Y-60657203D01*
X137202319Y-60663681D01*
X135128000Y-62737999D01*
X135128000Y-65408000D01*
X135108315Y-65475039D01*
X135055511Y-65520794D01*
X135004000Y-65532000D01*
X132996378Y-65532000D01*
X132929339Y-65512315D01*
X132883584Y-65459511D01*
X132873158Y-65421883D01*
X132865369Y-65352749D01*
X132865368Y-65352745D01*
X132805788Y-65182476D01*
X132709815Y-65029737D01*
X132582262Y-64902184D01*
X132429523Y-64806211D01*
X132259254Y-64746631D01*
X132259249Y-64746630D01*
X132080004Y-64726435D01*
X132079996Y-64726435D01*
X131900750Y-64746630D01*
X131900745Y-64746631D01*
X131730476Y-64806211D01*
X131577737Y-64902184D01*
X131450184Y-65029737D01*
X131354211Y-65182476D01*
X131294631Y-65352745D01*
X131294630Y-65352749D01*
X131286842Y-65421883D01*
X131259776Y-65486297D01*
X131202182Y-65525852D01*
X131163622Y-65532000D01*
X127216500Y-65532000D01*
X127149461Y-65512315D01*
X127103706Y-65459511D01*
X127092500Y-65408000D01*
X127092500Y-62446060D01*
X127092501Y-62446047D01*
X127092501Y-62277944D01*
X127079654Y-62230000D01*
X127051577Y-62125216D01*
X127008582Y-62050745D01*
X126972524Y-61988290D01*
X126972518Y-61988282D01*
X126853651Y-61869415D01*
X126853644Y-61869409D01*
X125647916Y-60663681D01*
X125614431Y-60602358D01*
X125619415Y-60532666D01*
X125661287Y-60476733D01*
X125726751Y-60452316D01*
X125735597Y-60452000D01*
X137114638Y-60452000D01*
X137181677Y-60471685D01*
G37*
%TD.AperFunction*%
%TD*%
%TA.AperFunction,Conductor*%
%TO.N,+6V*%
G36*
X85853964Y-85551212D02*
G01*
X85866352Y-85573900D01*
X85867543Y-85712993D01*
X85867542Y-85712997D01*
X85868904Y-85872029D01*
X85849795Y-85939235D01*
X85797384Y-85985440D01*
X85742059Y-85997058D01*
X85600023Y-85993793D01*
X85533454Y-85972573D01*
X85488925Y-85918732D01*
X85484573Y-85888926D01*
X84901548Y-85305900D01*
X84913232Y-85305900D01*
X85013362Y-85279070D01*
X85103137Y-85227238D01*
X85176438Y-85153937D01*
X85228270Y-85064162D01*
X85255100Y-84964032D01*
X85255100Y-84952347D01*
X85853964Y-85551212D01*
G37*
%TD.AperFunction*%
%TA.AperFunction,Conductor*%
G36*
X84020925Y-71389771D02*
G01*
X83961647Y-71405655D01*
X83845353Y-71472798D01*
X83750398Y-71567753D01*
X83683255Y-71684047D01*
X83667371Y-71743324D01*
X83104604Y-71180557D01*
X83104603Y-71180558D01*
X83058795Y-71245980D01*
X82965249Y-71446590D01*
X82965245Y-71446599D01*
X82907961Y-71660390D01*
X82907959Y-71660400D01*
X82888668Y-71880899D01*
X82888668Y-71880900D01*
X82907959Y-72101399D01*
X82907961Y-72101409D01*
X82965245Y-72315200D01*
X82965249Y-72315209D01*
X83058793Y-72515816D01*
X83058795Y-72515820D01*
X83104603Y-72581241D01*
X83104604Y-72581241D01*
X83667371Y-72018474D01*
X83683255Y-72077753D01*
X83750398Y-72194047D01*
X83845353Y-72289002D01*
X83961647Y-72356145D01*
X84020925Y-72372028D01*
X83428047Y-72964904D01*
X83391337Y-73002796D01*
X83329491Y-73018916D01*
X79999999Y-72999999D01*
X79999999Y-73000000D01*
X79970000Y-78999999D01*
X79970000Y-79000000D01*
X85686849Y-78990210D01*
X85753920Y-79009780D01*
X85799765Y-79062505D01*
X85811054Y-79113149D01*
X85815243Y-79602620D01*
X85796133Y-79669825D01*
X85743723Y-79716030D01*
X85674652Y-79726565D01*
X85647916Y-79719863D01*
X85615583Y-79707804D01*
X85615572Y-79707801D01*
X85556044Y-79701400D01*
X84908200Y-79701400D01*
X84908200Y-80618388D01*
X84851193Y-80585475D01*
X84724026Y-80551400D01*
X84592374Y-80551400D01*
X84465207Y-80585475D01*
X84408200Y-80618388D01*
X84408200Y-79701400D01*
X83760355Y-79701400D01*
X83700827Y-79707801D01*
X83700820Y-79707803D01*
X83566113Y-79758045D01*
X83566106Y-79758049D01*
X83451012Y-79844209D01*
X83451009Y-79844212D01*
X83364849Y-79959306D01*
X83364845Y-79959313D01*
X83314603Y-80094020D01*
X83314601Y-80094027D01*
X83308200Y-80153555D01*
X83308200Y-80801400D01*
X84225188Y-80801400D01*
X84192275Y-80858407D01*
X84158200Y-80985574D01*
X84158200Y-81117226D01*
X84192275Y-81244393D01*
X84225188Y-81301400D01*
X83308200Y-81301400D01*
X83308200Y-81949244D01*
X83314601Y-82008772D01*
X83314603Y-82008779D01*
X83364845Y-82143486D01*
X83364849Y-82143493D01*
X83451009Y-82258587D01*
X83451012Y-82258590D01*
X83566106Y-82344750D01*
X83566113Y-82344754D01*
X83700820Y-82394996D01*
X83700827Y-82394998D01*
X83760355Y-82401399D01*
X83760372Y-82401400D01*
X84408200Y-82401400D01*
X84408200Y-81484412D01*
X84465207Y-81517325D01*
X84592374Y-81551400D01*
X84724026Y-81551400D01*
X84851193Y-81517325D01*
X84908200Y-81484412D01*
X84908200Y-82401400D01*
X85556028Y-82401400D01*
X85556044Y-82401399D01*
X85615572Y-82394998D01*
X85615576Y-82394997D01*
X85672618Y-82373722D01*
X85742310Y-82368738D01*
X85803633Y-82402222D01*
X85837118Y-82463546D01*
X85839947Y-82488843D01*
X85853715Y-84097574D01*
X85853716Y-84097575D01*
X85855203Y-84271259D01*
X85853965Y-84273186D01*
X85255100Y-84872051D01*
X85255100Y-84860368D01*
X85228270Y-84760238D01*
X85176438Y-84670463D01*
X85103137Y-84597162D01*
X85013362Y-84545330D01*
X84913232Y-84518500D01*
X84901547Y-84518500D01*
X85476736Y-83943310D01*
X85375167Y-83880420D01*
X85375165Y-83880419D01*
X85176836Y-83803586D01*
X85176826Y-83803583D01*
X84967747Y-83764500D01*
X84755053Y-83764500D01*
X84545973Y-83803583D01*
X84545963Y-83803586D01*
X84347636Y-83880418D01*
X84347635Y-83880419D01*
X84246062Y-83943310D01*
X84821254Y-84518500D01*
X84809568Y-84518500D01*
X84709438Y-84545330D01*
X84619663Y-84597162D01*
X84546362Y-84670463D01*
X84494530Y-84760238D01*
X84467700Y-84860368D01*
X84467700Y-84872053D01*
X83889877Y-84294231D01*
X83881424Y-84305424D01*
X83881423Y-84305426D01*
X83786618Y-84495821D01*
X83786618Y-84495823D01*
X83728408Y-84700406D01*
X83708783Y-84912199D01*
X83708783Y-84912200D01*
X83728408Y-85123993D01*
X83786617Y-85328572D01*
X83881425Y-85518975D01*
X83889877Y-85530167D01*
X84467700Y-84952345D01*
X84467700Y-84964032D01*
X84494530Y-85064162D01*
X84546362Y-85153937D01*
X84619663Y-85227238D01*
X84709438Y-85279070D01*
X84809568Y-85305900D01*
X84821253Y-85305900D01*
X84203822Y-85923329D01*
X84142499Y-85956814D01*
X84113291Y-85959615D01*
X82511564Y-85922794D01*
X82444995Y-85901574D01*
X82400466Y-85847733D01*
X82390415Y-85798404D01*
X82400000Y-82990000D01*
X82400000Y-82989999D01*
X76664635Y-83019361D01*
X76597495Y-83000020D01*
X76551471Y-82947451D01*
X76540000Y-82895363D01*
X76540000Y-70973857D01*
X76559685Y-70906818D01*
X76612489Y-70861063D01*
X76663854Y-70849857D01*
X83473184Y-70842030D01*
X84020925Y-71389771D01*
G37*
%TD.AperFunction*%
%TA.AperFunction,Conductor*%
G36*
X85243694Y-72612540D02*
G01*
X85273367Y-72666883D01*
X85274244Y-72714890D01*
X85274243Y-72714912D01*
X85277680Y-72903015D01*
X85259224Y-72970403D01*
X85207264Y-73017115D01*
X85152996Y-73029278D01*
X84985274Y-73028324D01*
X84918347Y-73008258D01*
X84872893Y-72955195D01*
X84871599Y-72947553D01*
X84296074Y-72372028D01*
X84355353Y-72356145D01*
X84471647Y-72289002D01*
X84566602Y-72194047D01*
X84633745Y-72077753D01*
X84649628Y-72018474D01*
X85243694Y-72612540D01*
G37*
%TD.AperFunction*%
%TD*%
%TA.AperFunction,Conductor*%
%TO.N,VDD*%
G36*
X143260634Y-90941114D02*
G01*
X143316567Y-90982986D01*
X143340984Y-91048450D01*
X143341300Y-91057296D01*
X143341300Y-95645930D01*
X143341299Y-95645948D01*
X143341299Y-95811654D01*
X143341298Y-95811654D01*
X143382223Y-95964385D01*
X143408512Y-96009919D01*
X143408514Y-96009921D01*
X143461279Y-96101314D01*
X143461281Y-96101317D01*
X143580149Y-96220185D01*
X143580154Y-96220189D01*
X144385884Y-97025920D01*
X144522815Y-97104977D01*
X144675543Y-97145901D01*
X144675546Y-97145901D01*
X144841254Y-97145901D01*
X144841270Y-97145900D01*
X146461103Y-97145900D01*
X146528142Y-97165585D01*
X146548784Y-97182219D01*
X146706581Y-97340016D01*
X146740066Y-97401339D01*
X146742900Y-97427697D01*
X146742900Y-98426000D01*
X146723215Y-98493039D01*
X146692100Y-98520000D01*
X143648297Y-98520000D01*
X143581258Y-98500315D01*
X143535503Y-98447511D01*
X143527569Y-98424296D01*
X143400000Y-97880000D01*
X141950129Y-97880000D01*
X141883090Y-97860315D01*
X141837335Y-97807511D01*
X141826192Y-97759937D01*
X141824592Y-97709502D01*
X141842140Y-97641878D01*
X141864027Y-97617327D01*
X141862968Y-97616268D01*
X141868716Y-97610520D01*
X141980520Y-97498716D01*
X141980520Y-97498714D01*
X141990728Y-97488507D01*
X141990730Y-97488504D01*
X142598506Y-96880728D01*
X142598511Y-96880724D01*
X142608714Y-96870520D01*
X142608716Y-96870520D01*
X142720520Y-96758716D01*
X142783587Y-96649480D01*
X142799577Y-96621785D01*
X142840501Y-96469057D01*
X142840501Y-96310943D01*
X142840501Y-96303348D01*
X142840500Y-96303330D01*
X142840500Y-94939060D01*
X142840501Y-94939047D01*
X142840501Y-94770944D01*
X142840501Y-94770943D01*
X142799577Y-94618216D01*
X142799573Y-94618209D01*
X142720524Y-94481290D01*
X142720518Y-94481282D01*
X142268736Y-94029500D01*
X141724204Y-93484969D01*
X141690720Y-93423647D01*
X141687949Y-93401232D01*
X141659027Y-92489351D01*
X141676577Y-92421725D01*
X141715585Y-92383337D01*
X141715070Y-92382666D01*
X141720502Y-92378497D01*
X141720976Y-92378031D01*
X141721516Y-92377720D01*
X141833320Y-92265916D01*
X141833320Y-92265914D01*
X141843528Y-92255707D01*
X141843529Y-92255704D01*
X143129620Y-90969613D01*
X143190942Y-90936130D01*
X143260634Y-90941114D01*
G37*
%TD.AperFunction*%
%TA.AperFunction,Conductor*%
G36*
X148520000Y-97240000D02*
G01*
X148520000Y-98520000D01*
X147991923Y-98520000D01*
X147955106Y-98477511D01*
X147943900Y-98426000D01*
X147943900Y-97115361D01*
X148520000Y-97240000D01*
G37*
%TD.AperFunction*%
%TA.AperFunction,Conductor*%
G36*
X142623197Y-87179685D02*
G01*
X142668952Y-87232489D01*
X142680158Y-87284000D01*
X142680158Y-89669244D01*
X142660473Y-89736283D01*
X142643839Y-89756925D01*
X141807842Y-90592922D01*
X141746519Y-90626407D01*
X141676827Y-90621423D01*
X141620894Y-90579551D01*
X141596477Y-90514087D01*
X141596224Y-90509209D01*
X141494057Y-87287929D01*
X141511607Y-87220301D01*
X141562934Y-87172895D01*
X141617995Y-87160000D01*
X142556158Y-87160000D01*
X142623197Y-87179685D01*
G37*
%TD.AperFunction*%
%TD*%
%TA.AperFunction,Conductor*%
%TO.N,VDDA*%
G36*
X114619047Y-100544241D02*
G01*
X114643087Y-100562983D01*
X114668599Y-100588495D01*
X114833648Y-100704064D01*
X114854594Y-100718730D01*
X114898219Y-100773307D01*
X114905413Y-100842805D01*
X114873890Y-100905160D01*
X114854595Y-100921880D01*
X114668922Y-101051890D01*
X114668920Y-101051891D01*
X114501891Y-101218920D01*
X114501886Y-101218926D01*
X114366400Y-101412420D01*
X114366399Y-101412422D01*
X114266570Y-101626507D01*
X114266567Y-101626513D01*
X114209364Y-101839999D01*
X114209364Y-101840000D01*
X115106988Y-101840000D01*
X115074075Y-101897007D01*
X115040000Y-102024174D01*
X115040000Y-102155826D01*
X115074075Y-102282993D01*
X115106988Y-102340000D01*
X114209364Y-102340000D01*
X114266567Y-102553486D01*
X114266570Y-102553492D01*
X114366399Y-102767578D01*
X114501894Y-102961082D01*
X114623946Y-103083134D01*
X114657431Y-103144457D01*
X114652447Y-103214149D01*
X114610575Y-103270082D01*
X114579599Y-103286997D01*
X114507049Y-103314056D01*
X114447669Y-103336204D01*
X114447668Y-103336204D01*
X114439361Y-103339303D01*
X114438413Y-103336761D01*
X114400149Y-103347207D01*
X113538000Y-103377999D01*
X113538000Y-103378000D01*
X113538000Y-109728000D01*
X112776000Y-109728000D01*
X112776000Y-100704064D01*
X112795685Y-100637025D01*
X112848489Y-100591270D01*
X112895997Y-100580129D01*
X114551410Y-100526728D01*
X114619047Y-100544241D01*
G37*
%TD.AperFunction*%
%TA.AperFunction,Conductor*%
G36*
X120589641Y-100351641D02*
G01*
X120637075Y-100402943D01*
X120650000Y-100458064D01*
X120650000Y-103004349D01*
X120630315Y-103071388D01*
X120577511Y-103117143D01*
X120530426Y-103128270D01*
X116573301Y-103269595D01*
X116505601Y-103252316D01*
X116457991Y-103201178D01*
X116445585Y-103132419D01*
X116472324Y-103067868D01*
X116481194Y-103057992D01*
X116578108Y-102961078D01*
X116713600Y-102767578D01*
X116813429Y-102553492D01*
X116813432Y-102553486D01*
X116870636Y-102340000D01*
X115973012Y-102340000D01*
X116005925Y-102282993D01*
X116040000Y-102155826D01*
X116040000Y-102024174D01*
X116005925Y-101897007D01*
X115973012Y-101840000D01*
X116870636Y-101840000D01*
X116870635Y-101839999D01*
X116813432Y-101626513D01*
X116813429Y-101626507D01*
X116713600Y-101412422D01*
X116713599Y-101412420D01*
X116578113Y-101218926D01*
X116578108Y-101218920D01*
X116411078Y-101051890D01*
X116225405Y-100921879D01*
X116181780Y-100867302D01*
X116174588Y-100797804D01*
X116206110Y-100735449D01*
X116225399Y-100718734D01*
X116411401Y-100588495D01*
X116502554Y-100497341D01*
X116563873Y-100463859D01*
X116586231Y-100461089D01*
X120522005Y-100334128D01*
X120589641Y-100351641D01*
G37*
%TD.AperFunction*%
%TD*%
%TA.AperFunction,Conductor*%
%TO.N,VDD*%
G36*
X168592539Y-56179685D02*
G01*
X168638294Y-56232489D01*
X168649500Y-56284000D01*
X168649500Y-56300716D01*
X168649499Y-56301156D01*
X168610432Y-67308277D01*
X168590510Y-67375246D01*
X168537544Y-67420813D01*
X168488291Y-67431823D01*
X167718669Y-67443356D01*
X167720000Y-67270000D01*
X165820000Y-67310000D01*
X165791834Y-67472234D01*
X165791833Y-67472235D01*
X165394960Y-67478183D01*
X165327633Y-67459505D01*
X165281092Y-67407393D01*
X165270113Y-67338391D01*
X165283194Y-67296785D01*
X165350642Y-67167663D01*
X165406590Y-66972128D01*
X165406591Y-66972125D01*
X165417199Y-66852800D01*
X165417200Y-66852798D01*
X165417200Y-66544800D01*
X160617200Y-66544800D01*
X160617200Y-66852800D01*
X160627808Y-66972125D01*
X160627809Y-66972128D01*
X160683757Y-67167661D01*
X160777923Y-67347933D01*
X160781381Y-67353180D01*
X160779951Y-67354122D01*
X160803834Y-67410867D01*
X160791820Y-67479696D01*
X160744501Y-67531103D01*
X160682480Y-67548809D01*
X159737331Y-67562974D01*
X159661575Y-67343259D01*
X158920000Y-67350000D01*
X158946958Y-67574818D01*
X158946958Y-67574819D01*
X150208250Y-67705788D01*
X150140923Y-67687110D01*
X150094382Y-67634998D01*
X150083403Y-67565996D01*
X150111473Y-67502013D01*
X150118688Y-67494145D01*
X151876034Y-65736799D01*
X160617200Y-65736799D01*
X160617200Y-66044800D01*
X162767200Y-66044800D01*
X163267200Y-66044800D01*
X165417200Y-66044800D01*
X165417200Y-65736802D01*
X165417199Y-65736799D01*
X165406591Y-65617474D01*
X165406590Y-65617471D01*
X165350642Y-65421938D01*
X165256478Y-65241670D01*
X165127953Y-65084046D01*
X164970329Y-64955521D01*
X164790061Y-64861357D01*
X164594528Y-64805409D01*
X164594525Y-64805408D01*
X164475200Y-64794800D01*
X163267200Y-64794800D01*
X163267200Y-66044800D01*
X162767200Y-66044800D01*
X162767200Y-64794800D01*
X161559199Y-64794800D01*
X161439874Y-64805408D01*
X161439871Y-64805409D01*
X161244338Y-64861357D01*
X161064070Y-64955521D01*
X160906446Y-65084046D01*
X160777921Y-65241670D01*
X160683757Y-65421938D01*
X160627809Y-65617471D01*
X160627808Y-65617474D01*
X160617200Y-65736799D01*
X151876034Y-65736799D01*
X158702106Y-58910728D01*
X158702111Y-58910724D01*
X158712314Y-58900520D01*
X158712316Y-58900520D01*
X158824120Y-58788716D01*
X158889902Y-58674777D01*
X158903177Y-58651785D01*
X158944101Y-58499057D01*
X158944101Y-58340943D01*
X158944101Y-58333348D01*
X158944100Y-58333330D01*
X158944100Y-58248856D01*
X158963785Y-58181817D01*
X158980352Y-58161241D01*
X159907756Y-57232493D01*
X159969054Y-57198965D01*
X160038749Y-57203899D01*
X160094713Y-57245730D01*
X160119178Y-57311176D01*
X160119500Y-57320112D01*
X160119500Y-57457587D01*
X160099815Y-57524626D01*
X160092450Y-57534896D01*
X160090186Y-57537734D01*
X159994211Y-57690476D01*
X159934631Y-57860745D01*
X159934630Y-57860750D01*
X159914435Y-58039996D01*
X159914435Y-58040003D01*
X159934630Y-58219249D01*
X159934633Y-58219262D01*
X159994208Y-58389517D01*
X160005370Y-58407281D01*
X160024369Y-58474518D01*
X160004000Y-58541353D01*
X159955471Y-58584340D01*
X159867903Y-58627770D01*
X159719478Y-58747077D01*
X159719477Y-58747078D01*
X159600169Y-58895504D01*
X159600167Y-58895507D01*
X159515560Y-59066102D01*
X159469600Y-59250907D01*
X159466700Y-59293679D01*
X159466700Y-60695922D01*
X159466701Y-60695925D01*
X159469599Y-60738686D01*
X159469599Y-60738687D01*
X159515560Y-60923496D01*
X159600167Y-61094092D01*
X159600169Y-61094095D01*
X159719477Y-61242521D01*
X159719478Y-61242522D01*
X159867904Y-61361830D01*
X159867907Y-61361832D01*
X160038502Y-61446439D01*
X160038503Y-61446439D01*
X160038507Y-61446441D01*
X160223311Y-61492400D01*
X160266077Y-61495300D01*
X161168322Y-61495299D01*
X161211089Y-61492400D01*
X161395893Y-61446441D01*
X161566496Y-61361830D01*
X161714922Y-61242522D01*
X161770875Y-61172912D01*
X161828215Y-61132996D01*
X161898037Y-61130416D01*
X161958170Y-61165994D01*
X161964167Y-61172915D01*
X162019832Y-61242166D01*
X162019833Y-61242167D01*
X162168174Y-61361407D01*
X162168177Y-61361409D01*
X162338676Y-61445968D01*
X162523375Y-61491902D01*
X162566103Y-61494800D01*
X162767200Y-61494800D01*
X162767200Y-58494800D01*
X163267200Y-58494800D01*
X163267200Y-61494800D01*
X163468297Y-61494800D01*
X163511024Y-61491902D01*
X163695723Y-61445968D01*
X163866222Y-61361409D01*
X163866225Y-61361407D01*
X164014566Y-61242167D01*
X164014567Y-61242166D01*
X164070233Y-61172915D01*
X164127576Y-61132996D01*
X164197398Y-61130416D01*
X164257531Y-61165994D01*
X164263505Y-61172889D01*
X164319478Y-61242522D01*
X164319480Y-61242524D01*
X164467904Y-61361830D01*
X164467907Y-61361832D01*
X164638502Y-61446439D01*
X164638503Y-61446439D01*
X164638507Y-61446441D01*
X164823311Y-61492400D01*
X164866077Y-61495300D01*
X165768322Y-61495299D01*
X165811089Y-61492400D01*
X165995893Y-61446441D01*
X166166496Y-61361830D01*
X166314922Y-61242522D01*
X166434230Y-61094096D01*
X166518841Y-60923493D01*
X166564800Y-60738689D01*
X166567700Y-60695923D01*
X166567699Y-59293678D01*
X166564800Y-59250911D01*
X166518841Y-59066107D01*
X166516246Y-59060875D01*
X166434232Y-58895507D01*
X166434230Y-58895505D01*
X166434230Y-58895504D01*
X166315041Y-58747226D01*
X166288383Y-58682644D01*
X166300873Y-58613900D01*
X166306696Y-58603569D01*
X166365787Y-58509526D01*
X166365787Y-58509524D01*
X166365789Y-58509522D01*
X166425368Y-58339255D01*
X166435310Y-58251015D01*
X166445565Y-58160003D01*
X166445565Y-58159996D01*
X166425369Y-57980750D01*
X166425368Y-57980745D01*
X166365788Y-57810476D01*
X166290388Y-57690478D01*
X166269816Y-57657738D01*
X166142262Y-57530184D01*
X166107628Y-57508422D01*
X165989523Y-57434211D01*
X165819254Y-57374631D01*
X165819249Y-57374630D01*
X165640004Y-57354435D01*
X165639996Y-57354435D01*
X165460750Y-57374630D01*
X165460745Y-57374631D01*
X165290476Y-57434211D01*
X165137737Y-57530184D01*
X165010184Y-57657737D01*
X164914210Y-57810478D01*
X164854630Y-57980750D01*
X164843214Y-58082073D01*
X164827382Y-58130188D01*
X164790394Y-58194255D01*
X164790393Y-58194256D01*
X164775960Y-58219255D01*
X164757623Y-58251015D01*
X164716699Y-58403743D01*
X164716699Y-58403745D01*
X164716699Y-58427884D01*
X164697014Y-58494923D01*
X164644210Y-58540678D01*
X164640089Y-58542374D01*
X164467907Y-58627767D01*
X164467904Y-58627769D01*
X164319480Y-58747076D01*
X164319478Y-58747078D01*
X164291825Y-58781478D01*
X164263526Y-58816685D01*
X164206182Y-58856603D01*
X164136360Y-58859183D01*
X164076227Y-58823604D01*
X164070231Y-58816684D01*
X164014564Y-58747430D01*
X163866225Y-58628192D01*
X163866222Y-58628190D01*
X163695723Y-58543631D01*
X163511024Y-58497697D01*
X163468297Y-58494800D01*
X163267200Y-58494800D01*
X162767200Y-58494800D01*
X162566103Y-58494800D01*
X162523375Y-58497697D01*
X162338676Y-58543631D01*
X162168177Y-58628190D01*
X162168174Y-58628192D01*
X162019835Y-58747431D01*
X161964167Y-58816685D01*
X161906824Y-58856603D01*
X161837001Y-58859183D01*
X161776869Y-58823604D01*
X161770873Y-58816684D01*
X161714922Y-58747078D01*
X161714921Y-58747077D01*
X161566495Y-58627769D01*
X161483198Y-58586458D01*
X161431886Y-58539037D01*
X161414357Y-58471402D01*
X161433299Y-58409398D01*
X161445789Y-58389522D01*
X161505368Y-58219255D01*
X161508586Y-58190696D01*
X161525565Y-58040003D01*
X161525565Y-58039996D01*
X161505369Y-57860750D01*
X161505368Y-57860745D01*
X161445788Y-57690476D01*
X161376582Y-57580336D01*
X161357582Y-57513100D01*
X161377950Y-57446264D01*
X161431217Y-57401050D01*
X161500474Y-57391812D01*
X161509732Y-57393604D01*
X162100000Y-57531333D01*
X162100000Y-57531332D01*
X162100000Y-56284000D01*
X162119685Y-56216961D01*
X162172489Y-56171206D01*
X162224000Y-56160000D01*
X168525500Y-56160000D01*
X168592539Y-56179685D01*
G37*
%TD.AperFunction*%
%TD*%
%TA.AperFunction,Conductor*%
%TO.N,VDD*%
G36*
X146670411Y-98538794D02*
G01*
X146618900Y-98550000D01*
X145271264Y-98550000D01*
X145204225Y-98530315D01*
X145191407Y-98520000D01*
X146692100Y-98520000D01*
X146670411Y-98538794D01*
G37*
%TD.AperFunction*%
%TA.AperFunction,Conductor*%
G36*
X167718669Y-67443357D02*
G01*
X167718668Y-67443358D01*
X167480944Y-98426951D01*
X167460746Y-98493838D01*
X167407593Y-98539186D01*
X167356948Y-98550000D01*
X148067900Y-98550000D01*
X148000861Y-98530315D01*
X147991923Y-98520000D01*
X148520000Y-98520000D01*
X148520000Y-97240000D01*
X147943900Y-97115361D01*
X147943900Y-97048544D01*
X147943900Y-97048543D01*
X147937838Y-97025920D01*
X147902977Y-96895815D01*
X147902975Y-96895812D01*
X147902975Y-96895810D01*
X147899866Y-96888304D01*
X147902341Y-96887278D01*
X147888978Y-96832204D01*
X147911828Y-96766177D01*
X147966748Y-96722984D01*
X148012838Y-96714100D01*
X153886699Y-96714100D01*
X153953738Y-96733785D01*
X153999493Y-96786589D01*
X154004403Y-96799092D01*
X154032186Y-96882934D01*
X154124288Y-97032256D01*
X154248344Y-97156312D01*
X154397666Y-97248414D01*
X154564203Y-97303599D01*
X154666991Y-97314100D01*
X155467008Y-97314099D01*
X155467016Y-97314098D01*
X155467019Y-97314098D01*
X155523302Y-97308348D01*
X155569797Y-97303599D01*
X155736334Y-97248414D01*
X155885656Y-97156312D01*
X155979319Y-97062649D01*
X156040642Y-97029164D01*
X156110334Y-97034148D01*
X156154681Y-97062649D01*
X156248344Y-97156312D01*
X156397666Y-97248414D01*
X156564203Y-97303599D01*
X156666991Y-97314100D01*
X157467008Y-97314099D01*
X157467016Y-97314098D01*
X157467019Y-97314098D01*
X157523302Y-97308348D01*
X157569797Y-97303599D01*
X157736334Y-97248414D01*
X157885656Y-97156312D01*
X158009712Y-97032256D01*
X158101814Y-96882934D01*
X158129595Y-96799095D01*
X158169368Y-96741652D01*
X158233884Y-96714829D01*
X158247301Y-96714101D01*
X158270254Y-96714101D01*
X158270257Y-96714101D01*
X158422985Y-96673177D01*
X158473104Y-96644239D01*
X158559916Y-96594120D01*
X158671720Y-96482316D01*
X158671720Y-96482314D01*
X158681928Y-96472107D01*
X158681929Y-96472104D01*
X160348120Y-94805916D01*
X160369012Y-94769728D01*
X160419579Y-94721513D01*
X160488186Y-94708289D01*
X160553051Y-94734257D01*
X160593580Y-94791170D01*
X160600400Y-94831728D01*
X160600400Y-95330200D01*
X161517388Y-95330200D01*
X161484475Y-95387207D01*
X161450400Y-95514374D01*
X161450400Y-95646026D01*
X161484475Y-95773193D01*
X161517388Y-95830200D01*
X160600400Y-95830200D01*
X160600400Y-96478044D01*
X160606801Y-96537572D01*
X160606803Y-96537579D01*
X160657045Y-96672286D01*
X160657049Y-96672293D01*
X160743209Y-96787387D01*
X160743212Y-96787390D01*
X160858306Y-96873550D01*
X160858313Y-96873554D01*
X160993020Y-96923796D01*
X160993027Y-96923798D01*
X161052555Y-96930199D01*
X161052572Y-96930200D01*
X161700400Y-96930200D01*
X161700400Y-96013212D01*
X161757407Y-96046125D01*
X161884574Y-96080200D01*
X162016226Y-96080200D01*
X162143393Y-96046125D01*
X162200400Y-96013212D01*
X162200400Y-96930200D01*
X162848228Y-96930200D01*
X162848244Y-96930199D01*
X162907772Y-96923798D01*
X162907779Y-96923796D01*
X163042486Y-96873554D01*
X163042493Y-96873550D01*
X163157587Y-96787390D01*
X163157590Y-96787387D01*
X163243750Y-96672293D01*
X163243754Y-96672286D01*
X163293996Y-96537579D01*
X163293998Y-96537572D01*
X163300399Y-96478044D01*
X163300400Y-96478027D01*
X163300400Y-95830200D01*
X162383412Y-95830200D01*
X162416325Y-95773193D01*
X162450400Y-95646026D01*
X162450400Y-95514374D01*
X162416325Y-95387207D01*
X162383412Y-95330200D01*
X163300400Y-95330200D01*
X163300400Y-94682372D01*
X163300399Y-94682355D01*
X163293998Y-94622827D01*
X163293996Y-94622820D01*
X163243754Y-94488113D01*
X163243750Y-94488106D01*
X163157590Y-94373012D01*
X163157587Y-94373009D01*
X163042493Y-94286849D01*
X163042488Y-94286846D01*
X162910928Y-94237777D01*
X162854995Y-94195905D01*
X162830578Y-94130441D01*
X162845430Y-94062168D01*
X162866575Y-94033920D01*
X162988895Y-93911601D01*
X163124435Y-93718030D01*
X163224303Y-93503863D01*
X163285463Y-93275608D01*
X163306059Y-93040200D01*
X163285463Y-92804792D01*
X163224303Y-92576537D01*
X163124435Y-92362371D01*
X163124434Y-92362369D01*
X162988894Y-92168797D01*
X162821802Y-92001706D01*
X162821795Y-92001701D01*
X162628234Y-91866167D01*
X162628230Y-91866165D01*
X162627469Y-91865810D01*
X162414063Y-91766297D01*
X162414059Y-91766296D01*
X162414055Y-91766294D01*
X162185813Y-91705138D01*
X162185803Y-91705136D01*
X161950401Y-91684541D01*
X161950399Y-91684541D01*
X161714996Y-91705136D01*
X161714986Y-91705138D01*
X161486744Y-91766294D01*
X161486735Y-91766298D01*
X161272571Y-91866164D01*
X161272569Y-91866165D01*
X161078997Y-92001705D01*
X160911906Y-92168796D01*
X160776365Y-92362370D01*
X160776362Y-92362375D01*
X160773689Y-92368109D01*
X160727515Y-92420546D01*
X160661309Y-92439700D01*
X160450012Y-92439700D01*
X160382973Y-92420015D01*
X160372697Y-92412645D01*
X160369863Y-92410385D01*
X160369862Y-92410384D01*
X160293447Y-92362369D01*
X160217123Y-92314411D01*
X160046854Y-92254831D01*
X160046849Y-92254830D01*
X159867604Y-92234635D01*
X159867596Y-92234635D01*
X159688350Y-92254830D01*
X159688345Y-92254831D01*
X159518076Y-92314411D01*
X159365337Y-92410384D01*
X159237784Y-92537937D01*
X159141811Y-92690676D01*
X159082231Y-92860945D01*
X159082230Y-92860950D01*
X159062035Y-93040196D01*
X159062035Y-93040203D01*
X159082230Y-93219449D01*
X159082231Y-93219454D01*
X159141811Y-93389723D01*
X159237785Y-93542463D01*
X159240045Y-93545297D01*
X159240934Y-93547475D01*
X159241489Y-93548358D01*
X159241334Y-93548455D01*
X159266455Y-93609983D01*
X159267100Y-93622612D01*
X159267100Y-94137102D01*
X159247415Y-94204141D01*
X159230781Y-94224783D01*
X158216323Y-95239240D01*
X158155000Y-95272725D01*
X158085308Y-95267741D01*
X158029375Y-95225869D01*
X158023110Y-95216665D01*
X158009712Y-95194944D01*
X157885656Y-95070888D01*
X157736334Y-94978786D01*
X157569797Y-94923601D01*
X157569795Y-94923600D01*
X157467010Y-94913100D01*
X156666998Y-94913100D01*
X156666980Y-94913101D01*
X156564203Y-94923600D01*
X156564200Y-94923601D01*
X156397668Y-94978785D01*
X156397663Y-94978787D01*
X156248342Y-95070889D01*
X156154681Y-95164551D01*
X156093358Y-95198036D01*
X156023666Y-95193052D01*
X155979319Y-95164551D01*
X155885657Y-95070889D01*
X155885656Y-95070888D01*
X155736334Y-94978786D01*
X155569797Y-94923601D01*
X155569795Y-94923600D01*
X155467010Y-94913100D01*
X154666998Y-94913100D01*
X154666980Y-94913101D01*
X154564203Y-94923600D01*
X154564200Y-94923601D01*
X154397668Y-94978785D01*
X154397663Y-94978787D01*
X154248342Y-95070889D01*
X154124289Y-95194942D01*
X154032187Y-95344263D01*
X154032185Y-95344268D01*
X154004405Y-95428104D01*
X153964632Y-95485549D01*
X153900116Y-95512372D01*
X153886699Y-95513100D01*
X145305422Y-95513100D01*
X145238383Y-95493415D01*
X145192628Y-95440611D01*
X145181423Y-95389444D01*
X145176811Y-93690062D01*
X145196313Y-93622976D01*
X145248993Y-93577078D01*
X145318124Y-93566947D01*
X145381758Y-93595799D01*
X145413191Y-93637325D01*
X145452832Y-93722334D01*
X145452833Y-93722335D01*
X145583354Y-93908741D01*
X145744258Y-94069645D01*
X145744261Y-94069647D01*
X145930666Y-94200168D01*
X146136904Y-94296339D01*
X146356708Y-94355235D01*
X146518630Y-94369401D01*
X146583398Y-94375068D01*
X146583400Y-94375068D01*
X146583402Y-94375068D01*
X146640073Y-94370109D01*
X146810092Y-94355235D01*
X147029896Y-94296339D01*
X147236134Y-94200168D01*
X147422539Y-94069647D01*
X147583447Y-93908739D01*
X147713968Y-93722334D01*
X147810139Y-93516096D01*
X147869035Y-93296292D01*
X147888868Y-93069600D01*
X147886295Y-93040196D01*
X147869035Y-92842913D01*
X147869035Y-92842908D01*
X147810139Y-92623104D01*
X147713968Y-92416866D01*
X147583447Y-92230461D01*
X147583445Y-92230458D01*
X147422541Y-92069554D01*
X147236134Y-91939032D01*
X147236128Y-91939029D01*
X147178125Y-91911982D01*
X147125685Y-91865810D01*
X147106533Y-91798617D01*
X147126748Y-91731735D01*
X147178125Y-91687218D01*
X147183866Y-91684541D01*
X147236134Y-91660168D01*
X147422539Y-91529647D01*
X147583447Y-91368739D01*
X147713968Y-91182334D01*
X147810139Y-90976096D01*
X147869035Y-90756292D01*
X147888868Y-90529600D01*
X147869035Y-90302908D01*
X147810139Y-90083104D01*
X147713968Y-89876866D01*
X147583447Y-89690461D01*
X147583445Y-89690458D01*
X147422541Y-89529554D01*
X147236134Y-89399032D01*
X147236132Y-89399031D01*
X147178125Y-89371982D01*
X147177532Y-89371705D01*
X147125094Y-89325534D01*
X147105942Y-89258340D01*
X147126158Y-89191459D01*
X147177534Y-89146941D01*
X147235884Y-89119732D01*
X147422220Y-88989257D01*
X147583057Y-88828420D01*
X147713534Y-88642082D01*
X147809665Y-88435926D01*
X147809669Y-88435917D01*
X147862272Y-88239600D01*
X146899086Y-88239600D01*
X146903480Y-88235206D01*
X146956141Y-88143994D01*
X146983400Y-88042261D01*
X146983400Y-87936939D01*
X146956141Y-87835206D01*
X146903480Y-87743994D01*
X146899086Y-87739600D01*
X147862272Y-87739600D01*
X147862272Y-87739599D01*
X147809669Y-87543282D01*
X147809665Y-87543273D01*
X147713534Y-87337117D01*
X147583057Y-87150779D01*
X147422220Y-86989942D01*
X147235882Y-86859465D01*
X147177533Y-86832257D01*
X147125094Y-86786084D01*
X147105942Y-86718891D01*
X147126158Y-86652010D01*
X147177529Y-86607495D01*
X147236134Y-86580168D01*
X147422539Y-86449647D01*
X147583447Y-86288739D01*
X147713968Y-86102334D01*
X147810139Y-85896096D01*
X147869035Y-85676292D01*
X147888868Y-85449600D01*
X147869035Y-85222908D01*
X147810139Y-85003104D01*
X147713968Y-84796866D01*
X147583447Y-84610461D01*
X147583445Y-84610458D01*
X147422541Y-84449554D01*
X147236134Y-84319032D01*
X147236128Y-84319029D01*
X147178125Y-84291982D01*
X147125685Y-84245810D01*
X147106533Y-84178617D01*
X147126748Y-84111735D01*
X147178125Y-84067218D01*
X147236134Y-84040168D01*
X147422539Y-83909647D01*
X147583447Y-83748739D01*
X147713968Y-83562334D01*
X147810139Y-83356096D01*
X147869035Y-83136292D01*
X147888868Y-82909600D01*
X147869035Y-82682908D01*
X147810139Y-82463104D01*
X147713968Y-82256866D01*
X147583447Y-82070461D01*
X147583445Y-82070458D01*
X147422543Y-81909556D01*
X147397936Y-81892326D01*
X147354312Y-81837749D01*
X147347119Y-81768250D01*
X147378641Y-81705896D01*
X147438871Y-81670482D01*
X147455804Y-81667461D01*
X147490883Y-81663691D01*
X147625731Y-81613396D01*
X147740946Y-81527146D01*
X147827196Y-81411931D01*
X147877491Y-81277083D01*
X147883900Y-81217473D01*
X147883899Y-80369598D01*
X155437932Y-80369598D01*
X155437932Y-80369601D01*
X155457764Y-80596286D01*
X155457766Y-80596297D01*
X155516658Y-80816088D01*
X155516661Y-80816097D01*
X155612831Y-81022332D01*
X155612832Y-81022334D01*
X155743354Y-81208741D01*
X155904258Y-81369645D01*
X155904261Y-81369647D01*
X156090666Y-81500168D01*
X156148675Y-81527218D01*
X156201114Y-81573391D01*
X156220266Y-81640584D01*
X156200050Y-81707465D01*
X156148675Y-81751982D01*
X156090667Y-81779031D01*
X156090665Y-81779032D01*
X155904258Y-81909554D01*
X155743354Y-82070458D01*
X155612832Y-82256865D01*
X155612831Y-82256867D01*
X155516661Y-82463102D01*
X155516658Y-82463111D01*
X155457766Y-82682902D01*
X155457764Y-82682913D01*
X155437932Y-82909598D01*
X155437932Y-82909601D01*
X155457764Y-83136286D01*
X155457766Y-83136297D01*
X155516658Y-83356088D01*
X155516661Y-83356097D01*
X155612831Y-83562332D01*
X155612832Y-83562334D01*
X155743354Y-83748741D01*
X155904258Y-83909645D01*
X155904261Y-83909647D01*
X156090666Y-84040168D01*
X156148675Y-84067218D01*
X156201114Y-84113391D01*
X156220266Y-84180584D01*
X156200050Y-84247465D01*
X156148675Y-84291982D01*
X156090667Y-84319031D01*
X156090665Y-84319032D01*
X155904258Y-84449554D01*
X155743354Y-84610458D01*
X155612832Y-84796865D01*
X155612831Y-84796867D01*
X155516661Y-85003102D01*
X155516658Y-85003111D01*
X155457766Y-85222902D01*
X155457764Y-85222913D01*
X155437932Y-85449598D01*
X155437932Y-85449601D01*
X155457764Y-85676286D01*
X155457766Y-85676297D01*
X155516658Y-85896088D01*
X155516661Y-85896097D01*
X155612831Y-86102332D01*
X155612832Y-86102334D01*
X155743354Y-86288741D01*
X155904258Y-86449645D01*
X155904261Y-86449647D01*
X156090666Y-86580168D01*
X156148675Y-86607218D01*
X156201114Y-86653391D01*
X156220266Y-86720584D01*
X156200050Y-86787465D01*
X156148675Y-86831982D01*
X156090667Y-86859031D01*
X156090665Y-86859032D01*
X155904258Y-86989554D01*
X155743354Y-87150458D01*
X155612832Y-87336865D01*
X155612831Y-87336867D01*
X155516661Y-87543102D01*
X155516658Y-87543111D01*
X155457766Y-87762902D01*
X155457764Y-87762913D01*
X155437932Y-87989598D01*
X155437932Y-87989601D01*
X155457764Y-88216286D01*
X155457766Y-88216297D01*
X155516658Y-88436088D01*
X155516661Y-88436097D01*
X155612831Y-88642332D01*
X155612832Y-88642334D01*
X155743354Y-88828741D01*
X155904258Y-88989645D01*
X155904261Y-88989647D01*
X156090666Y-89120168D01*
X156148081Y-89146941D01*
X156148675Y-89147218D01*
X156201114Y-89193391D01*
X156220266Y-89260584D01*
X156200050Y-89327465D01*
X156148675Y-89371982D01*
X156090667Y-89399031D01*
X156090665Y-89399032D01*
X155904258Y-89529554D01*
X155743354Y-89690458D01*
X155612832Y-89876865D01*
X155612831Y-89876867D01*
X155516661Y-90083102D01*
X155516658Y-90083111D01*
X155457766Y-90302902D01*
X155457764Y-90302913D01*
X155437932Y-90529598D01*
X155437932Y-90529601D01*
X155457764Y-90756286D01*
X155457766Y-90756297D01*
X155516658Y-90976088D01*
X155516661Y-90976097D01*
X155612831Y-91182332D01*
X155612832Y-91182334D01*
X155743354Y-91368741D01*
X155904258Y-91529645D01*
X155904261Y-91529647D01*
X156090666Y-91660168D01*
X156142934Y-91684541D01*
X156148675Y-91687218D01*
X156201114Y-91733391D01*
X156220266Y-91800584D01*
X156200050Y-91867465D01*
X156148675Y-91911982D01*
X156090667Y-91939031D01*
X156090665Y-91939032D01*
X155904258Y-92069554D01*
X155743354Y-92230458D01*
X155612832Y-92416865D01*
X155612831Y-92416867D01*
X155516661Y-92623102D01*
X155516658Y-92623111D01*
X155457766Y-92842902D01*
X155457764Y-92842913D01*
X155437932Y-93069598D01*
X155437932Y-93069601D01*
X155457764Y-93296286D01*
X155457766Y-93296297D01*
X155516658Y-93516088D01*
X155516661Y-93516097D01*
X155612831Y-93722332D01*
X155612832Y-93722334D01*
X155743354Y-93908741D01*
X155904258Y-94069645D01*
X155904261Y-94069647D01*
X156090666Y-94200168D01*
X156296904Y-94296339D01*
X156516708Y-94355235D01*
X156678630Y-94369401D01*
X156743398Y-94375068D01*
X156743400Y-94375068D01*
X156743402Y-94375068D01*
X156800073Y-94370109D01*
X156970092Y-94355235D01*
X157189896Y-94296339D01*
X157396134Y-94200168D01*
X157582539Y-94069647D01*
X157743447Y-93908739D01*
X157873968Y-93722334D01*
X157970139Y-93516096D01*
X158029035Y-93296292D01*
X158048868Y-93069600D01*
X158046295Y-93040196D01*
X158029035Y-92842913D01*
X158029035Y-92842908D01*
X157970139Y-92623104D01*
X157873968Y-92416866D01*
X157743447Y-92230461D01*
X157743445Y-92230458D01*
X157582541Y-92069554D01*
X157396134Y-91939032D01*
X157396128Y-91939029D01*
X157338125Y-91911982D01*
X157285685Y-91865810D01*
X157266533Y-91798617D01*
X157286748Y-91731735D01*
X157338125Y-91687218D01*
X157343866Y-91684541D01*
X157396134Y-91660168D01*
X157582539Y-91529647D01*
X157743447Y-91368739D01*
X157873968Y-91182334D01*
X157970139Y-90976096D01*
X158029035Y-90756292D01*
X158048868Y-90529600D01*
X158029035Y-90302908D01*
X157970139Y-90083104D01*
X157873968Y-89876866D01*
X157743447Y-89690461D01*
X157743445Y-89690458D01*
X157582541Y-89529554D01*
X157396134Y-89399032D01*
X157396128Y-89399029D01*
X157338125Y-89371982D01*
X157285685Y-89325810D01*
X157266533Y-89258617D01*
X157286748Y-89191735D01*
X157338125Y-89147218D01*
X157338719Y-89146941D01*
X157396134Y-89120168D01*
X157582539Y-88989647D01*
X157743447Y-88828739D01*
X157873968Y-88642334D01*
X157970139Y-88436096D01*
X158029035Y-88216292D01*
X158048868Y-87989600D01*
X158029035Y-87762908D01*
X157970139Y-87543104D01*
X157873968Y-87336866D01*
X157743447Y-87150461D01*
X157743445Y-87150458D01*
X157582541Y-86989554D01*
X157396134Y-86859032D01*
X157396128Y-86859029D01*
X157338125Y-86831982D01*
X157285685Y-86785810D01*
X157266533Y-86718617D01*
X157286748Y-86651735D01*
X157338125Y-86607218D01*
X157396134Y-86580168D01*
X157582539Y-86449647D01*
X157743447Y-86288739D01*
X157873968Y-86102334D01*
X157970139Y-85896096D01*
X158029035Y-85676292D01*
X158048868Y-85449600D01*
X158041619Y-85366749D01*
X158055385Y-85298252D01*
X158104000Y-85248069D01*
X158172028Y-85232135D01*
X158237872Y-85255510D01*
X158252828Y-85268263D01*
X159048539Y-86063974D01*
X159048549Y-86063985D01*
X159052879Y-86068315D01*
X159052880Y-86068316D01*
X159164684Y-86180120D01*
X159251495Y-86230239D01*
X159251497Y-86230241D01*
X159289551Y-86252211D01*
X159301615Y-86259177D01*
X159454343Y-86300101D01*
X159454346Y-86300101D01*
X159620053Y-86300101D01*
X159620069Y-86300100D01*
X160661309Y-86300100D01*
X160728348Y-86319785D01*
X160773692Y-86371697D01*
X160776365Y-86377430D01*
X160776366Y-86377431D01*
X160911901Y-86570995D01*
X160911906Y-86571002D01*
X161078997Y-86738093D01*
X161079003Y-86738098D01*
X161264558Y-86868025D01*
X161308183Y-86922602D01*
X161315377Y-86992100D01*
X161283854Y-87054455D01*
X161264558Y-87071175D01*
X161078997Y-87201105D01*
X160911905Y-87368197D01*
X160776365Y-87561769D01*
X160776364Y-87561771D01*
X160676498Y-87775935D01*
X160676494Y-87775944D01*
X160615338Y-88004186D01*
X160615336Y-88004196D01*
X160594741Y-88239599D01*
X160594741Y-88239600D01*
X160615336Y-88475003D01*
X160615338Y-88475013D01*
X160676494Y-88703255D01*
X160676496Y-88703259D01*
X160676497Y-88703263D01*
X160734859Y-88828420D01*
X160776365Y-88917430D01*
X160776367Y-88917434D01*
X160826932Y-88989647D01*
X160911905Y-89111001D01*
X161078999Y-89278095D01*
X161149507Y-89327465D01*
X161272565Y-89413632D01*
X161272567Y-89413633D01*
X161272570Y-89413635D01*
X161486737Y-89513503D01*
X161714992Y-89574663D01*
X161903318Y-89591139D01*
X161950399Y-89595259D01*
X161950400Y-89595259D01*
X161950401Y-89595259D01*
X161989634Y-89591826D01*
X162185808Y-89574663D01*
X162414063Y-89513503D01*
X162628230Y-89413635D01*
X162821801Y-89278095D01*
X162988895Y-89111001D01*
X163124435Y-88917430D01*
X163224303Y-88703263D01*
X163285463Y-88475008D01*
X163306059Y-88239600D01*
X163285463Y-88004192D01*
X163224303Y-87775937D01*
X163124435Y-87561771D01*
X163111370Y-87543111D01*
X162988894Y-87368197D01*
X162821802Y-87201106D01*
X162821796Y-87201101D01*
X162636242Y-87071175D01*
X162592617Y-87016598D01*
X162585423Y-86947100D01*
X162616946Y-86884745D01*
X162636242Y-86868025D01*
X162687324Y-86832257D01*
X162821801Y-86738095D01*
X162988895Y-86571001D01*
X163124435Y-86377430D01*
X163224303Y-86163263D01*
X163285463Y-85935008D01*
X163306059Y-85699600D01*
X163285463Y-85464192D01*
X163224303Y-85235937D01*
X163124435Y-85021771D01*
X163124434Y-85021769D01*
X162988894Y-84828197D01*
X162821802Y-84661106D01*
X162821796Y-84661101D01*
X162636242Y-84531175D01*
X162592617Y-84476598D01*
X162585423Y-84407100D01*
X162616946Y-84344745D01*
X162636242Y-84328025D01*
X162658426Y-84312491D01*
X162821801Y-84198095D01*
X162988895Y-84031001D01*
X163124435Y-83837430D01*
X163224303Y-83623263D01*
X163285463Y-83395008D01*
X163306059Y-83159600D01*
X163285463Y-82924192D01*
X163224303Y-82695937D01*
X163124435Y-82481771D01*
X163124434Y-82481769D01*
X162988896Y-82288200D01*
X162957561Y-82256865D01*
X162866967Y-82166271D01*
X162833484Y-82104951D01*
X162838468Y-82035259D01*
X162880339Y-81979325D01*
X162911315Y-81962410D01*
X163042731Y-81913396D01*
X163157946Y-81827146D01*
X163244196Y-81711931D01*
X163294491Y-81577083D01*
X163300900Y-81517473D01*
X163300899Y-79721728D01*
X163294491Y-79662117D01*
X163292678Y-79657257D01*
X163244197Y-79527271D01*
X163244193Y-79527264D01*
X163157947Y-79412055D01*
X163157944Y-79412052D01*
X163042735Y-79325806D01*
X163042728Y-79325802D01*
X162907882Y-79275508D01*
X162907883Y-79275508D01*
X162848283Y-79269101D01*
X162848281Y-79269100D01*
X162848273Y-79269100D01*
X162848264Y-79269100D01*
X161052529Y-79269100D01*
X161052523Y-79269101D01*
X160992916Y-79275508D01*
X160858071Y-79325802D01*
X160858064Y-79325806D01*
X160742855Y-79412052D01*
X160742852Y-79412055D01*
X160656606Y-79527264D01*
X160656602Y-79527271D01*
X160606308Y-79662117D01*
X160599901Y-79721716D01*
X160599901Y-79721723D01*
X160599900Y-79721735D01*
X160599900Y-81517470D01*
X160599901Y-81517476D01*
X160606308Y-81577083D01*
X160656602Y-81711928D01*
X160656606Y-81711935D01*
X160742852Y-81827144D01*
X160742855Y-81827147D01*
X160858064Y-81913393D01*
X160858071Y-81913397D01*
X160989481Y-81962410D01*
X161045415Y-82004281D01*
X161069832Y-82069745D01*
X161054980Y-82138018D01*
X161033830Y-82166273D01*
X160911903Y-82288200D01*
X160776365Y-82481770D01*
X160776362Y-82481775D01*
X160773689Y-82487509D01*
X160727515Y-82539946D01*
X160661309Y-82559100D01*
X159833497Y-82559100D01*
X159766458Y-82539415D01*
X159745816Y-82522781D01*
X158035341Y-80812306D01*
X158001856Y-80750983D01*
X158003247Y-80692531D01*
X158005886Y-80682684D01*
X158029035Y-80596292D01*
X158048868Y-80369600D01*
X158029035Y-80142908D01*
X157970139Y-79923104D01*
X157873968Y-79716866D01*
X157743447Y-79530461D01*
X157743445Y-79530458D01*
X157582541Y-79369554D01*
X157396134Y-79239032D01*
X157396132Y-79239031D01*
X157189897Y-79142861D01*
X157189888Y-79142858D01*
X156970097Y-79083966D01*
X156970093Y-79083965D01*
X156970092Y-79083965D01*
X156970091Y-79083964D01*
X156970086Y-79083964D01*
X156743402Y-79064132D01*
X156743398Y-79064132D01*
X156516713Y-79083964D01*
X156516702Y-79083966D01*
X156296911Y-79142858D01*
X156296902Y-79142861D01*
X156090667Y-79239031D01*
X156090665Y-79239032D01*
X155904258Y-79369554D01*
X155743354Y-79530458D01*
X155612832Y-79716865D01*
X155612831Y-79716867D01*
X155516661Y-79923102D01*
X155516658Y-79923111D01*
X155457766Y-80142902D01*
X155457764Y-80142913D01*
X155437932Y-80369598D01*
X147883899Y-80369598D01*
X147883899Y-79521728D01*
X147877491Y-79462117D01*
X147842967Y-79369554D01*
X147827197Y-79327271D01*
X147827193Y-79327264D01*
X147740947Y-79212055D01*
X147740944Y-79212052D01*
X147625735Y-79125806D01*
X147625728Y-79125802D01*
X147490882Y-79075508D01*
X147490883Y-79075508D01*
X147431283Y-79069101D01*
X147431281Y-79069100D01*
X147431273Y-79069100D01*
X147431264Y-79069100D01*
X145735529Y-79069100D01*
X145735523Y-79069101D01*
X145675916Y-79075508D01*
X145541071Y-79125802D01*
X145541064Y-79125806D01*
X145425855Y-79212052D01*
X145360823Y-79298923D01*
X145304889Y-79340793D01*
X145235197Y-79345777D01*
X145173874Y-79312291D01*
X145140390Y-79250967D01*
X145137557Y-79224952D01*
X145130337Y-76564334D01*
X145149840Y-76497244D01*
X145202520Y-76451346D01*
X145254337Y-76440000D01*
X160010000Y-76440000D01*
X160010000Y-76439999D01*
X159903614Y-75552799D01*
X159340177Y-70854046D01*
X159351739Y-70785148D01*
X159359488Y-70771466D01*
X159360573Y-70769807D01*
X159460463Y-70542081D01*
X159521508Y-70301021D01*
X159523529Y-70276633D01*
X159542043Y-70053205D01*
X159542043Y-70053194D01*
X159521509Y-69805387D01*
X159521507Y-69805375D01*
X159460463Y-69564318D01*
X159360573Y-69336593D01*
X159224564Y-69128414D01*
X159224562Y-69128412D01*
X159146697Y-69043827D01*
X159115775Y-68981173D01*
X159114814Y-68974643D01*
X158920000Y-67350000D01*
X159661575Y-67343259D01*
X160650000Y-70210000D01*
X161904114Y-70204629D01*
X161971234Y-70224025D01*
X162017215Y-70276633D01*
X162027454Y-70345748D01*
X161998702Y-70409428D01*
X161992324Y-70416307D01*
X161957289Y-70451342D01*
X161865187Y-70600663D01*
X161865186Y-70600666D01*
X161810001Y-70767203D01*
X161810001Y-70767204D01*
X161810000Y-70767204D01*
X161799500Y-70869983D01*
X161799500Y-71670001D01*
X161799501Y-71670019D01*
X161810000Y-71772796D01*
X161810001Y-71772799D01*
X161865185Y-71939331D01*
X161865186Y-71939334D01*
X161944991Y-72068720D01*
X161957289Y-72088657D01*
X161967133Y-72098501D01*
X162000618Y-72159824D01*
X161995634Y-72229516D01*
X161984991Y-72251278D01*
X161905190Y-72380659D01*
X161905186Y-72380666D01*
X161850001Y-72547203D01*
X161850001Y-72547204D01*
X161850000Y-72547204D01*
X161839500Y-72649983D01*
X161839500Y-73400001D01*
X161839501Y-73400019D01*
X161850000Y-73502796D01*
X161850001Y-73502799D01*
X161891627Y-73628415D01*
X161905186Y-73669334D01*
X161960842Y-73759568D01*
X161997289Y-73818657D01*
X162121346Y-73942714D01*
X162124182Y-73944463D01*
X162125717Y-73946170D01*
X162127011Y-73947193D01*
X162126836Y-73947414D01*
X162170905Y-73996411D01*
X162182126Y-74065374D01*
X162154282Y-74129456D01*
X162124182Y-74155537D01*
X162121346Y-74157285D01*
X161997289Y-74281342D01*
X161905187Y-74430663D01*
X161905186Y-74430666D01*
X161850001Y-74597203D01*
X161850001Y-74597204D01*
X161850000Y-74597204D01*
X161839500Y-74699983D01*
X161839500Y-75450001D01*
X161839501Y-75450019D01*
X161850000Y-75552796D01*
X161850001Y-75552799D01*
X161885835Y-75660938D01*
X161905186Y-75719334D01*
X161997288Y-75868656D01*
X162121344Y-75992712D01*
X162233919Y-76062148D01*
X162280644Y-76114096D01*
X162291867Y-76183058D01*
X162285865Y-76208640D01*
X162274631Y-76240745D01*
X162274631Y-76240746D01*
X162254435Y-76419996D01*
X162254435Y-76420003D01*
X162274630Y-76599249D01*
X162274631Y-76599254D01*
X162334211Y-76769523D01*
X162430184Y-76922262D01*
X162557738Y-77049816D01*
X162710478Y-77145789D01*
X162880745Y-77205368D01*
X162880750Y-77205369D01*
X163059996Y-77225565D01*
X163060000Y-77225565D01*
X163060004Y-77225565D01*
X163239249Y-77205369D01*
X163239252Y-77205368D01*
X163239255Y-77205368D01*
X163409522Y-77145789D01*
X163562262Y-77049816D01*
X163689816Y-76922262D01*
X163785789Y-76769522D01*
X163845368Y-76599255D01*
X163856862Y-76497244D01*
X163865565Y-76420003D01*
X163865565Y-76419996D01*
X163845369Y-76240753D01*
X163845368Y-76240746D01*
X163845368Y-76240745D01*
X163827033Y-76188349D01*
X163823472Y-76118571D01*
X163858200Y-76057944D01*
X163878973Y-76041860D01*
X163958656Y-75992712D01*
X164082712Y-75868656D01*
X164174814Y-75719334D01*
X164229999Y-75552797D01*
X164240500Y-75450009D01*
X164240499Y-74699992D01*
X164229999Y-74597203D01*
X164174814Y-74430666D01*
X164082712Y-74281344D01*
X163958656Y-74157288D01*
X163955819Y-74155538D01*
X163954283Y-74153830D01*
X163952989Y-74152807D01*
X163953163Y-74152585D01*
X163909096Y-74103594D01*
X163897872Y-74034632D01*
X163925713Y-73970549D01*
X163955817Y-73944462D01*
X163958656Y-73942712D01*
X164082712Y-73818656D01*
X164174814Y-73669334D01*
X164229999Y-73502797D01*
X164240500Y-73400009D01*
X164240499Y-72649992D01*
X164229999Y-72547203D01*
X164174814Y-72380666D01*
X164082712Y-72231344D01*
X164072866Y-72221498D01*
X164039381Y-72160175D01*
X164044365Y-72090483D01*
X164055005Y-72068724D01*
X164134814Y-71939334D01*
X164189999Y-71772797D01*
X164200500Y-71670009D01*
X164200499Y-70869992D01*
X164189999Y-70767203D01*
X164134814Y-70600666D01*
X164042712Y-70451344D01*
X163998334Y-70406966D01*
X163964849Y-70345643D01*
X163969833Y-70275951D01*
X164011705Y-70220018D01*
X164077169Y-70195601D01*
X164085454Y-70195287D01*
X165320000Y-70190000D01*
X165791834Y-67472236D01*
X165820000Y-67310000D01*
X167720000Y-67270000D01*
X167718669Y-67443357D01*
G37*
%TD.AperFunction*%
%TD*%
%TA.AperFunction,Conductor*%
%TO.N,+24V*%
G36*
X81060118Y-48774190D02*
G01*
X81080000Y-65630000D01*
X83333072Y-65630000D01*
X83400111Y-65649685D01*
X83445866Y-65702489D01*
X83452571Y-65741418D01*
X84020924Y-66309771D01*
X83961647Y-66325655D01*
X83845353Y-66392798D01*
X83750398Y-66487753D01*
X83683255Y-66604047D01*
X83667371Y-66663324D01*
X83104604Y-66100557D01*
X83104603Y-66100558D01*
X83058795Y-66165980D01*
X82965249Y-66366590D01*
X82965245Y-66366599D01*
X82907961Y-66580390D01*
X82907959Y-66580400D01*
X82888668Y-66800899D01*
X82888668Y-66800900D01*
X82907959Y-67021399D01*
X82907961Y-67021409D01*
X82965245Y-67235200D01*
X82965249Y-67235209D01*
X83058793Y-67435816D01*
X83058795Y-67435820D01*
X83104603Y-67501241D01*
X83104604Y-67501241D01*
X83667371Y-66938474D01*
X83683255Y-66997753D01*
X83750398Y-67114047D01*
X83845353Y-67209002D01*
X83961647Y-67276145D01*
X84020923Y-67292027D01*
X83424805Y-67888146D01*
X83363482Y-67921631D01*
X83331636Y-67919353D01*
X83331640Y-67922138D01*
X76623628Y-67929857D01*
X76556566Y-67910250D01*
X76510750Y-67857498D01*
X76499486Y-67806372D01*
X76496221Y-67021010D01*
X76420375Y-48774190D01*
X76420000Y-48684000D01*
X81060000Y-48674000D01*
X81060118Y-48774190D01*
G37*
%TD.AperFunction*%
%TD*%
%TA.AperFunction,Conductor*%
%TO.N,VDDA*%
G36*
X139389039Y-99333685D02*
G01*
X139434794Y-99386489D01*
X139446000Y-99438000D01*
X139446000Y-100076000D01*
X141353884Y-100076000D01*
X141420923Y-100095685D01*
X141466678Y-100148489D01*
X141477884Y-100200116D01*
X141460115Y-119186417D01*
X141440368Y-119253438D01*
X141387521Y-119299144D01*
X141336418Y-119310301D01*
X112900303Y-119379696D01*
X112833215Y-119360175D01*
X112787332Y-119307483D01*
X112776000Y-119255696D01*
X112776000Y-109728000D01*
X113538000Y-109728000D01*
X113538000Y-109474000D01*
X138430000Y-109474000D01*
X138430000Y-99438000D01*
X138449685Y-99370961D01*
X138502489Y-99325206D01*
X138554000Y-99314000D01*
X139322000Y-99314000D01*
X139389039Y-99333685D01*
G37*
%TD.AperFunction*%
%TD*%
%TA.AperFunction,Conductor*%
%TO.N,VDD*%
G36*
X151548855Y-60722612D02*
G01*
X151609413Y-60757575D01*
X151609412Y-60757575D01*
X151609416Y-60757577D01*
X151721219Y-60787534D01*
X151762142Y-60798500D01*
X151762143Y-60798500D01*
X153775102Y-60798500D01*
X153842141Y-60818185D01*
X153887896Y-60870989D01*
X153897840Y-60940147D01*
X153868815Y-61003703D01*
X153862783Y-61010181D01*
X148589784Y-66283181D01*
X148528461Y-66316666D01*
X148502103Y-66319500D01*
X141125083Y-66319500D01*
X141058044Y-66299815D01*
X141012289Y-66247011D01*
X141001863Y-66181617D01*
X141015565Y-66060003D01*
X141015565Y-66059996D01*
X140995369Y-65880750D01*
X140995368Y-65880745D01*
X140935788Y-65710476D01*
X140839815Y-65557737D01*
X140712262Y-65430184D01*
X140559523Y-65334211D01*
X140389254Y-65274631D01*
X140389249Y-65274630D01*
X140210004Y-65254435D01*
X140209996Y-65254435D01*
X140163716Y-65259649D01*
X140117742Y-65256204D01*
X140074058Y-65244499D01*
X140074057Y-65244499D01*
X139915943Y-65244499D01*
X139908347Y-65244499D01*
X139908331Y-65244500D01*
X139570000Y-65244500D01*
X139502961Y-65224815D01*
X139457206Y-65172011D01*
X139446000Y-65120500D01*
X139446000Y-64006068D01*
X139465685Y-63939029D01*
X139482319Y-63918387D01*
X140025887Y-63374819D01*
X140087210Y-63341334D01*
X140113568Y-63338500D01*
X142407331Y-63338500D01*
X142407347Y-63338501D01*
X142414943Y-63338501D01*
X142573054Y-63338501D01*
X142573057Y-63338501D01*
X142725785Y-63297577D01*
X142775904Y-63268639D01*
X142862716Y-63218520D01*
X142974520Y-63106716D01*
X142974520Y-63106714D01*
X142984728Y-63096507D01*
X142984730Y-63096504D01*
X144376506Y-61704728D01*
X144376511Y-61704724D01*
X144386714Y-61694520D01*
X144386716Y-61694520D01*
X144498520Y-61582716D01*
X144577577Y-61445784D01*
X144618500Y-61293057D01*
X144618500Y-60830000D01*
X144638185Y-60762961D01*
X144690989Y-60717206D01*
X144742500Y-60706000D01*
X151486857Y-60706000D01*
X151548855Y-60722612D01*
G37*
%TD.AperFunction*%
%TD*%
%TA.AperFunction,Conductor*%
%TO.N,+5V*%
G36*
X147500186Y-56716769D02*
G01*
X147535412Y-56741447D01*
X148775362Y-57981397D01*
X148808847Y-58042720D01*
X148803863Y-58112412D01*
X148761991Y-58168345D01*
X148696527Y-58192762D01*
X148687581Y-58193078D01*
X146942515Y-58191671D01*
X146875491Y-58171932D01*
X146829779Y-58119092D01*
X146822505Y-58072858D01*
X146242548Y-57492900D01*
X146254232Y-57492900D01*
X146354362Y-57466070D01*
X146444137Y-57414238D01*
X146517438Y-57340937D01*
X146569270Y-57251162D01*
X146596100Y-57151032D01*
X146596100Y-57139346D01*
X147173920Y-57717167D01*
X147182375Y-57705974D01*
X147182376Y-57705972D01*
X147277181Y-57515578D01*
X147277181Y-57515576D01*
X147335391Y-57310993D01*
X147355017Y-57099200D01*
X147355017Y-57099199D01*
X147335392Y-56887409D01*
X147328465Y-56863065D01*
X147329051Y-56793197D01*
X147367316Y-56734738D01*
X147431113Y-56706247D01*
X147500186Y-56716769D01*
G37*
%TD.AperFunction*%
%TA.AperFunction,Conductor*%
G36*
X145222354Y-52639385D02*
G01*
X145254269Y-52668973D01*
X145350236Y-52796052D01*
X145507490Y-52939408D01*
X145507492Y-52939410D01*
X145688407Y-53051428D01*
X145688413Y-53051431D01*
X145730448Y-53067715D01*
X145886834Y-53128299D01*
X146095529Y-53167311D01*
X146157810Y-53198979D01*
X146193083Y-53259292D01*
X146190149Y-53329100D01*
X146149940Y-53386240D01*
X146095529Y-53411088D01*
X145886834Y-53450101D01*
X145886831Y-53450101D01*
X145886831Y-53450102D01*
X145688413Y-53526968D01*
X145688407Y-53526971D01*
X145507492Y-53638989D01*
X145507490Y-53638991D01*
X145350236Y-53782347D01*
X145221996Y-53952162D01*
X145127150Y-54142639D01*
X145127150Y-54142640D01*
X145068914Y-54347315D01*
X145049281Y-54559199D01*
X145049281Y-54559200D01*
X145068914Y-54771084D01*
X145127150Y-54975759D01*
X145127150Y-54975760D01*
X145221996Y-55166237D01*
X145350236Y-55336052D01*
X145507490Y-55479408D01*
X145507492Y-55479410D01*
X145688407Y-55591428D01*
X145688413Y-55591431D01*
X145730448Y-55607715D01*
X145886834Y-55668299D01*
X146096004Y-55707400D01*
X146096007Y-55707400D01*
X146096890Y-55707565D01*
X146159171Y-55739233D01*
X146194444Y-55799546D01*
X146191510Y-55869354D01*
X146151301Y-55926494D01*
X146096890Y-55951343D01*
X145886973Y-55990583D01*
X145886963Y-55990586D01*
X145688636Y-56067418D01*
X145688635Y-56067419D01*
X145587062Y-56130310D01*
X146162253Y-56705500D01*
X146150568Y-56705500D01*
X146050438Y-56732330D01*
X145960663Y-56784162D01*
X145887362Y-56857463D01*
X145835530Y-56947238D01*
X145808700Y-57047368D01*
X145808700Y-57059053D01*
X145230877Y-56481231D01*
X145222424Y-56492424D01*
X145222423Y-56492426D01*
X145127618Y-56682821D01*
X145127618Y-56682823D01*
X145069408Y-56887406D01*
X145049783Y-57099199D01*
X145049783Y-57099200D01*
X145069408Y-57310993D01*
X145127617Y-57515572D01*
X145222425Y-57705975D01*
X145230877Y-57717167D01*
X145808700Y-57139345D01*
X145808700Y-57151032D01*
X145835530Y-57251162D01*
X145887362Y-57340937D01*
X145960663Y-57414238D01*
X146050438Y-57466070D01*
X146150568Y-57492900D01*
X146162253Y-57492900D01*
X145581537Y-58073614D01*
X145573389Y-58121049D01*
X145526209Y-58172584D01*
X145461944Y-58190476D01*
X140531599Y-58186500D01*
X140464575Y-58166761D01*
X140418863Y-58113920D01*
X140408975Y-58044754D01*
X140438052Y-57981222D01*
X140448161Y-57970863D01*
X140552165Y-57876051D01*
X140648131Y-57748973D01*
X140704240Y-57707337D01*
X140747085Y-57699700D01*
X140908731Y-57699700D01*
X140908747Y-57699701D01*
X140916343Y-57699701D01*
X141074454Y-57699701D01*
X141074457Y-57699701D01*
X141227185Y-57658777D01*
X141293106Y-57620717D01*
X141364116Y-57579720D01*
X141475920Y-57467916D01*
X141475920Y-57467914D01*
X141486124Y-57457711D01*
X141486128Y-57457706D01*
X144706706Y-54237128D01*
X144706711Y-54237124D01*
X144716914Y-54226920D01*
X144716916Y-54226920D01*
X144828720Y-54115116D01*
X144889697Y-54009500D01*
X144907777Y-53978185D01*
X144948700Y-53825458D01*
X144948700Y-53667343D01*
X144948700Y-52743700D01*
X144968385Y-52676661D01*
X145021189Y-52630906D01*
X145072700Y-52619700D01*
X145155315Y-52619700D01*
X145222354Y-52639385D01*
G37*
%TD.AperFunction*%
%TA.AperFunction,Conductor*%
G36*
X167856088Y-34989975D02*
G01*
X167923122Y-35009673D01*
X167968866Y-35062486D01*
X167980062Y-35113912D01*
X167989937Y-54695623D01*
X167970286Y-54762673D01*
X167917505Y-54808454D01*
X167865624Y-54819686D01*
X160060000Y-54800000D01*
X159163958Y-55891950D01*
X159106214Y-55931287D01*
X159036369Y-55933161D01*
X158976599Y-55896977D01*
X158945880Y-55834223D01*
X158944100Y-55813290D01*
X158944100Y-50809500D01*
X158963785Y-50742461D01*
X159016589Y-50696706D01*
X159068100Y-50685500D01*
X160686709Y-50685500D01*
X160753748Y-50705185D01*
X160799092Y-50757097D01*
X160801765Y-50762830D01*
X160937305Y-50956401D01*
X161104399Y-51123495D01*
X161196019Y-51187648D01*
X161297965Y-51259032D01*
X161297967Y-51259033D01*
X161297970Y-51259035D01*
X161512137Y-51358903D01*
X161512143Y-51358904D01*
X161512144Y-51358905D01*
X161567085Y-51373626D01*
X161740392Y-51420063D01*
X161910856Y-51434977D01*
X161975799Y-51440659D01*
X161975800Y-51440659D01*
X161975801Y-51440659D01*
X162015034Y-51437226D01*
X162211208Y-51420063D01*
X162439463Y-51358903D01*
X162653630Y-51259035D01*
X162847201Y-51123495D01*
X163014295Y-50956401D01*
X163149835Y-50762830D01*
X163249703Y-50548663D01*
X163310863Y-50320408D01*
X163331459Y-50085000D01*
X163310863Y-49849592D01*
X163249703Y-49621337D01*
X163149835Y-49407171D01*
X163149834Y-49407169D01*
X163014294Y-49213597D01*
X162847202Y-49046506D01*
X162847196Y-49046501D01*
X162661642Y-48916575D01*
X162618017Y-48861998D01*
X162610823Y-48792500D01*
X162642346Y-48730145D01*
X162661642Y-48713425D01*
X162755581Y-48647648D01*
X162847201Y-48583495D01*
X163014295Y-48416401D01*
X163149835Y-48222830D01*
X163249703Y-48008663D01*
X163310863Y-47780408D01*
X163331459Y-47545000D01*
X163310863Y-47309592D01*
X163249703Y-47081337D01*
X163149835Y-46867171D01*
X163149834Y-46867169D01*
X163014294Y-46673597D01*
X162847202Y-46506506D01*
X162847196Y-46506501D01*
X162661642Y-46376575D01*
X162618017Y-46321998D01*
X162610823Y-46252500D01*
X162642346Y-46190145D01*
X162661642Y-46173425D01*
X162739944Y-46118597D01*
X162847201Y-46043495D01*
X163014295Y-45876401D01*
X163149835Y-45682830D01*
X163249703Y-45468663D01*
X163310863Y-45240408D01*
X163331459Y-45005000D01*
X163310863Y-44769592D01*
X163249703Y-44541337D01*
X163149835Y-44327171D01*
X163149834Y-44327169D01*
X163014294Y-44133597D01*
X162847202Y-43966506D01*
X162847196Y-43966501D01*
X162661642Y-43836575D01*
X162618017Y-43781998D01*
X162610823Y-43712500D01*
X162642346Y-43650145D01*
X162661642Y-43633425D01*
X162739944Y-43578597D01*
X162847201Y-43503495D01*
X163014295Y-43336401D01*
X163149835Y-43142830D01*
X163249703Y-42928663D01*
X163310863Y-42700408D01*
X163331459Y-42465000D01*
X163310863Y-42229592D01*
X163249703Y-42001337D01*
X163149835Y-41787171D01*
X163149834Y-41787169D01*
X163014296Y-41593600D01*
X163014295Y-41593599D01*
X162892367Y-41471671D01*
X162858884Y-41410351D01*
X162863868Y-41340659D01*
X162905739Y-41284725D01*
X162936715Y-41267810D01*
X163068131Y-41218796D01*
X163183346Y-41132546D01*
X163269596Y-41017331D01*
X163319891Y-40882483D01*
X163326300Y-40822873D01*
X163326299Y-39027128D01*
X163319891Y-38967517D01*
X163319193Y-38965646D01*
X163269597Y-38832671D01*
X163269593Y-38832664D01*
X163183347Y-38717455D01*
X163183344Y-38717452D01*
X163068135Y-38631206D01*
X163068128Y-38631202D01*
X162933282Y-38580908D01*
X162933283Y-38580908D01*
X162873683Y-38574501D01*
X162873681Y-38574500D01*
X162873673Y-38574500D01*
X162873665Y-38574500D01*
X161525897Y-38574500D01*
X161458858Y-38554815D01*
X161438216Y-38538181D01*
X159977990Y-37077955D01*
X159977988Y-37077952D01*
X159859117Y-36959081D01*
X159859116Y-36959080D01*
X159772304Y-36908960D01*
X159772304Y-36908959D01*
X159772300Y-36908958D01*
X159722185Y-36880023D01*
X159569457Y-36839099D01*
X159411343Y-36839099D01*
X159403747Y-36839099D01*
X159403731Y-36839100D01*
X143952270Y-36839100D01*
X143952254Y-36839099D01*
X143944658Y-36839099D01*
X143786543Y-36839099D01*
X143710179Y-36859561D01*
X143633814Y-36880023D01*
X143633809Y-36880026D01*
X143496890Y-36959075D01*
X143496882Y-36959081D01*
X141657881Y-38798082D01*
X141657877Y-38798087D01*
X141634443Y-38838679D01*
X141634442Y-38838681D01*
X141597515Y-38902640D01*
X141584317Y-38925500D01*
X141578823Y-38935015D01*
X141537899Y-39087743D01*
X141537899Y-39087745D01*
X141537899Y-39255846D01*
X141537900Y-39255859D01*
X141537900Y-40974902D01*
X141518215Y-41041941D01*
X141501585Y-41062578D01*
X141341782Y-41222382D01*
X141280461Y-41255866D01*
X141254103Y-41258700D01*
X140747085Y-41258700D01*
X140680046Y-41239015D01*
X140648131Y-41209427D01*
X140552163Y-41082347D01*
X140394909Y-40938991D01*
X140394907Y-40938989D01*
X140213992Y-40826971D01*
X140213986Y-40826968D01*
X140015569Y-40750102D01*
X140015568Y-40750101D01*
X140015566Y-40750101D01*
X139806396Y-40711000D01*
X139805508Y-40710834D01*
X139743228Y-40679165D01*
X139707955Y-40618853D01*
X139710889Y-40549045D01*
X139751098Y-40491905D01*
X139805510Y-40467056D01*
X140015425Y-40427817D01*
X140015436Y-40427813D01*
X140213756Y-40350983D01*
X140213769Y-40350977D01*
X140315335Y-40288088D01*
X139740148Y-39712900D01*
X139751832Y-39712900D01*
X139851962Y-39686070D01*
X139941737Y-39634238D01*
X140015038Y-39560937D01*
X140066870Y-39471162D01*
X140093700Y-39371032D01*
X140093700Y-39359347D01*
X140671520Y-39937167D01*
X140679975Y-39925974D01*
X140679976Y-39925972D01*
X140774781Y-39735578D01*
X140774781Y-39735576D01*
X140832991Y-39530993D01*
X140852617Y-39319200D01*
X140852617Y-39319199D01*
X140832991Y-39107406D01*
X140774782Y-38902827D01*
X140679974Y-38712424D01*
X140671520Y-38701230D01*
X140093700Y-39279051D01*
X140093700Y-39267368D01*
X140066870Y-39167238D01*
X140015038Y-39077463D01*
X139941737Y-39004162D01*
X139851962Y-38952330D01*
X139751832Y-38925500D01*
X139740147Y-38925500D01*
X140315336Y-38350310D01*
X140213767Y-38287420D01*
X140213765Y-38287419D01*
X140015436Y-38210586D01*
X140015426Y-38210583D01*
X139806347Y-38171500D01*
X139593653Y-38171500D01*
X139384573Y-38210583D01*
X139384563Y-38210586D01*
X139186236Y-38287418D01*
X139186235Y-38287419D01*
X139084662Y-38350310D01*
X139659854Y-38925500D01*
X139648168Y-38925500D01*
X139548038Y-38952330D01*
X139458263Y-39004162D01*
X139384962Y-39077463D01*
X139333130Y-39167238D01*
X139306300Y-39267368D01*
X139306300Y-39279053D01*
X138728477Y-38701231D01*
X138720024Y-38712424D01*
X138720023Y-38712426D01*
X138625218Y-38902821D01*
X138625218Y-38902823D01*
X138567008Y-39107406D01*
X138547383Y-39319199D01*
X138547383Y-39319200D01*
X138567008Y-39530993D01*
X138625217Y-39735572D01*
X138720025Y-39925975D01*
X138728477Y-39937167D01*
X139306300Y-39359345D01*
X139306300Y-39371032D01*
X139333130Y-39471162D01*
X139384962Y-39560937D01*
X139458263Y-39634238D01*
X139548038Y-39686070D01*
X139648168Y-39712900D01*
X139659853Y-39712900D01*
X139084663Y-40288088D01*
X139084663Y-40288089D01*
X139186230Y-40350978D01*
X139186234Y-40350980D01*
X139384563Y-40427813D01*
X139384574Y-40427817D01*
X139594489Y-40467056D01*
X139656770Y-40498724D01*
X139692044Y-40559036D01*
X139689111Y-40628844D01*
X139648902Y-40685984D01*
X139594491Y-40710834D01*
X139581364Y-40713288D01*
X139384434Y-40750101D01*
X139384432Y-40750101D01*
X139384430Y-40750102D01*
X139186013Y-40826968D01*
X139186007Y-40826971D01*
X139005092Y-40938989D01*
X139005090Y-40938991D01*
X138847836Y-41082347D01*
X138719596Y-41252162D01*
X138624750Y-41442639D01*
X138624750Y-41442640D01*
X138566514Y-41647315D01*
X138546881Y-41859199D01*
X138546881Y-41859200D01*
X138566514Y-42071084D01*
X138624750Y-42275759D01*
X138624750Y-42275760D01*
X138719596Y-42466237D01*
X138847836Y-42636052D01*
X139005090Y-42779408D01*
X139005092Y-42779410D01*
X139186007Y-42891428D01*
X139186013Y-42891431D01*
X139228048Y-42907715D01*
X139384434Y-42968299D01*
X139593129Y-43007311D01*
X139655410Y-43038979D01*
X139690683Y-43099292D01*
X139687749Y-43169100D01*
X139647540Y-43226240D01*
X139593129Y-43251088D01*
X139384434Y-43290101D01*
X139384431Y-43290101D01*
X139384431Y-43290102D01*
X139186013Y-43366968D01*
X139186007Y-43366971D01*
X139005092Y-43478989D01*
X139005090Y-43478991D01*
X138847836Y-43622347D01*
X138719596Y-43792162D01*
X138624750Y-43982639D01*
X138624750Y-43982640D01*
X138566514Y-44187315D01*
X138546881Y-44399199D01*
X138546881Y-44399200D01*
X138566514Y-44611084D01*
X138624750Y-44815759D01*
X138624750Y-44815760D01*
X138719596Y-45006237D01*
X138761464Y-45061678D01*
X138845896Y-45173484D01*
X138847836Y-45176052D01*
X139005090Y-45319408D01*
X139005092Y-45319410D01*
X139186007Y-45431428D01*
X139186013Y-45431431D01*
X139228048Y-45447715D01*
X139384434Y-45508299D01*
X139593129Y-45547311D01*
X139655410Y-45578979D01*
X139690683Y-45639292D01*
X139687749Y-45709100D01*
X139647540Y-45766240D01*
X139593129Y-45791088D01*
X139384434Y-45830101D01*
X139384431Y-45830101D01*
X139384431Y-45830102D01*
X139186013Y-45906968D01*
X139186007Y-45906971D01*
X139005092Y-46018989D01*
X139005090Y-46018991D01*
X138847836Y-46162347D01*
X138719596Y-46332162D01*
X138624750Y-46522639D01*
X138624750Y-46522640D01*
X138566514Y-46727315D01*
X138546881Y-46939199D01*
X138546881Y-46939200D01*
X138566514Y-47151084D01*
X138624750Y-47355759D01*
X138624750Y-47355760D01*
X138719596Y-47546237D01*
X138758830Y-47598190D01*
X138809274Y-47664989D01*
X138847836Y-47716052D01*
X139005090Y-47859408D01*
X139005092Y-47859410D01*
X139186007Y-47971428D01*
X139186013Y-47971431D01*
X139228048Y-47987715D01*
X139384434Y-48048299D01*
X139593129Y-48087311D01*
X139655410Y-48118979D01*
X139690683Y-48179292D01*
X139687749Y-48249100D01*
X139647540Y-48306240D01*
X139593129Y-48331088D01*
X139384434Y-48370101D01*
X139384431Y-48370101D01*
X139384431Y-48370102D01*
X139186013Y-48446968D01*
X139186007Y-48446971D01*
X139005092Y-48558989D01*
X139005090Y-48558991D01*
X138847836Y-48702347D01*
X138719596Y-48872162D01*
X138624750Y-49062639D01*
X138624750Y-49062640D01*
X138566514Y-49267315D01*
X138546881Y-49479199D01*
X138546881Y-49479200D01*
X138566514Y-49691084D01*
X138624750Y-49895759D01*
X138624750Y-49895760D01*
X138719596Y-50086237D01*
X138762050Y-50142454D01*
X138809274Y-50204989D01*
X138847836Y-50256052D01*
X139005090Y-50399408D01*
X139005092Y-50399410D01*
X139186007Y-50511428D01*
X139186013Y-50511431D01*
X139228048Y-50527715D01*
X139384434Y-50588299D01*
X139593129Y-50627311D01*
X139655410Y-50658979D01*
X139690683Y-50719292D01*
X139687749Y-50789100D01*
X139647540Y-50846240D01*
X139593129Y-50871088D01*
X139384434Y-50910101D01*
X139384431Y-50910101D01*
X139384431Y-50910102D01*
X139186013Y-50986968D01*
X139186007Y-50986971D01*
X139005092Y-51098989D01*
X139005090Y-51098991D01*
X138847836Y-51242347D01*
X138719596Y-51412162D01*
X138624750Y-51602639D01*
X138624750Y-51602640D01*
X138566514Y-51807315D01*
X138546881Y-52019199D01*
X138546881Y-52019200D01*
X138566514Y-52231084D01*
X138624750Y-52435759D01*
X138624750Y-52435760D01*
X138719596Y-52626237D01*
X138757675Y-52676661D01*
X138809274Y-52744989D01*
X138847836Y-52796052D01*
X139005090Y-52939408D01*
X139005092Y-52939410D01*
X139186007Y-53051428D01*
X139186013Y-53051431D01*
X139228048Y-53067715D01*
X139384434Y-53128299D01*
X139593129Y-53167311D01*
X139655410Y-53198979D01*
X139690683Y-53259292D01*
X139687749Y-53329100D01*
X139647540Y-53386240D01*
X139593129Y-53411088D01*
X139384434Y-53450101D01*
X139384431Y-53450101D01*
X139384431Y-53450102D01*
X139186013Y-53526968D01*
X139186007Y-53526971D01*
X139005092Y-53638989D01*
X139005090Y-53638991D01*
X138847836Y-53782347D01*
X138719596Y-53952162D01*
X138624750Y-54142639D01*
X138624750Y-54142640D01*
X138566514Y-54347315D01*
X138546881Y-54559199D01*
X138546881Y-54559200D01*
X138566514Y-54771084D01*
X138624750Y-54975759D01*
X138624750Y-54975760D01*
X138719596Y-55166237D01*
X138847836Y-55336052D01*
X139005090Y-55479408D01*
X139005092Y-55479410D01*
X139186007Y-55591428D01*
X139186013Y-55591431D01*
X139228048Y-55607715D01*
X139384434Y-55668299D01*
X139593129Y-55707311D01*
X139655410Y-55738979D01*
X139690683Y-55799292D01*
X139687749Y-55869100D01*
X139647540Y-55926240D01*
X139593129Y-55951088D01*
X139384434Y-55990101D01*
X139384431Y-55990101D01*
X139384431Y-55990102D01*
X139186013Y-56066968D01*
X139186007Y-56066971D01*
X139005092Y-56178989D01*
X139005090Y-56178991D01*
X138847836Y-56322347D01*
X138719596Y-56492162D01*
X138624750Y-56682639D01*
X138624750Y-56682640D01*
X138566514Y-56887315D01*
X138546881Y-57099199D01*
X138546881Y-57099200D01*
X138566514Y-57311084D01*
X138624750Y-57515759D01*
X138624750Y-57515760D01*
X138719596Y-57706237D01*
X138798292Y-57810446D01*
X138847833Y-57876049D01*
X138847836Y-57876052D01*
X138950365Y-57969520D01*
X138986647Y-58029231D01*
X138984886Y-58099079D01*
X138945643Y-58156886D01*
X138881376Y-58184301D01*
X138866727Y-58185157D01*
X132918334Y-58180360D01*
X132851310Y-58160621D01*
X132805598Y-58107780D01*
X132795710Y-58038614D01*
X132824787Y-57975082D01*
X132834882Y-57964735D01*
X132932165Y-57876051D01*
X133060402Y-57706239D01*
X133084036Y-57658776D01*
X133155249Y-57515760D01*
X133155249Y-57515759D01*
X133155248Y-57515759D01*
X133155251Y-57515755D01*
X133213485Y-57311085D01*
X133233119Y-57099200D01*
X133213485Y-56887315D01*
X133155251Y-56682645D01*
X133155249Y-56682640D01*
X133155249Y-56682639D01*
X133060403Y-56492162D01*
X132932163Y-56322347D01*
X132774909Y-56178991D01*
X132774907Y-56178989D01*
X132593992Y-56066971D01*
X132593986Y-56066968D01*
X132402409Y-55992752D01*
X132395566Y-55990101D01*
X132186868Y-55951088D01*
X132124589Y-55919421D01*
X132089316Y-55859108D01*
X132092250Y-55789300D01*
X132132459Y-55732160D01*
X132186868Y-55707311D01*
X132395566Y-55668299D01*
X132593989Y-55591430D01*
X132774909Y-55479409D01*
X132932165Y-55336051D01*
X133060402Y-55166239D01*
X133079700Y-55127483D01*
X133155249Y-54975760D01*
X133155249Y-54975759D01*
X133155248Y-54975759D01*
X133155251Y-54975755D01*
X133213485Y-54771085D01*
X133233119Y-54559200D01*
X133213485Y-54347315D01*
X133155251Y-54142645D01*
X133155249Y-54142640D01*
X133155249Y-54142639D01*
X133060403Y-53952162D01*
X133017656Y-53895557D01*
X132932165Y-53782349D01*
X132884171Y-53738597D01*
X132774909Y-53638991D01*
X132774907Y-53638989D01*
X132593992Y-53526971D01*
X132593986Y-53526968D01*
X132437603Y-53466386D01*
X132395566Y-53450101D01*
X132186868Y-53411088D01*
X132124589Y-53379421D01*
X132089316Y-53319108D01*
X132092250Y-53249300D01*
X132132459Y-53192160D01*
X132186868Y-53167311D01*
X132395566Y-53128299D01*
X132593989Y-53051430D01*
X132774909Y-52939409D01*
X132932165Y-52796051D01*
X133060402Y-52626239D01*
X133106503Y-52533655D01*
X133155249Y-52435760D01*
X133155249Y-52435759D01*
X133155248Y-52435759D01*
X133155251Y-52435755D01*
X133213485Y-52231085D01*
X133233119Y-52019200D01*
X133231903Y-52006082D01*
X133213485Y-51807315D01*
X133156301Y-51606337D01*
X133155251Y-51602645D01*
X133155249Y-51602640D01*
X133155249Y-51602639D01*
X133060403Y-51412162D01*
X132974415Y-51298297D01*
X132932165Y-51242349D01*
X132884171Y-51198597D01*
X132774909Y-51098991D01*
X132774907Y-51098989D01*
X132593992Y-50986971D01*
X132593986Y-50986968D01*
X132437603Y-50926386D01*
X132395566Y-50910101D01*
X132186868Y-50871088D01*
X132124589Y-50839421D01*
X132089316Y-50779108D01*
X132092250Y-50709300D01*
X132132459Y-50652160D01*
X132186868Y-50627311D01*
X132395566Y-50588299D01*
X132593989Y-50511430D01*
X132774909Y-50399409D01*
X132932165Y-50256051D01*
X133060402Y-50086239D01*
X133155251Y-49895755D01*
X133213485Y-49691085D01*
X133233119Y-49479200D01*
X133226444Y-49407170D01*
X133213485Y-49267315D01*
X133198201Y-49213597D01*
X133155251Y-49062645D01*
X133155249Y-49062640D01*
X133155249Y-49062639D01*
X133060403Y-48872162D01*
X132981744Y-48768002D01*
X132932165Y-48702349D01*
X132922823Y-48693833D01*
X132774909Y-48558991D01*
X132774907Y-48558989D01*
X132593992Y-48446971D01*
X132593986Y-48446968D01*
X132437603Y-48386386D01*
X132395566Y-48370101D01*
X132186868Y-48331088D01*
X132124589Y-48299421D01*
X132089316Y-48239108D01*
X132092250Y-48169300D01*
X132132459Y-48112160D01*
X132186868Y-48087311D01*
X132395566Y-48048299D01*
X132593989Y-47971430D01*
X132774909Y-47859409D01*
X132932165Y-47716051D01*
X133060402Y-47546239D01*
X133083619Y-47499612D01*
X133155249Y-47355760D01*
X133155249Y-47355759D01*
X133155248Y-47355759D01*
X133155251Y-47355755D01*
X133213485Y-47151085D01*
X133233119Y-46939200D01*
X133226444Y-46867170D01*
X133213485Y-46727315D01*
X133198201Y-46673597D01*
X133155251Y-46522645D01*
X133155249Y-46522640D01*
X133155249Y-46522639D01*
X133060403Y-46332162D01*
X132975451Y-46219669D01*
X132932165Y-46162349D01*
X132915434Y-46147097D01*
X132774909Y-46018991D01*
X132774907Y-46018989D01*
X132593992Y-45906971D01*
X132593986Y-45906968D01*
X132427048Y-45842297D01*
X132395566Y-45830101D01*
X132186868Y-45791088D01*
X132124589Y-45759421D01*
X132089316Y-45699108D01*
X132092250Y-45629300D01*
X132132459Y-45572160D01*
X132186868Y-45547311D01*
X132395566Y-45508299D01*
X132593989Y-45431430D01*
X132774909Y-45319409D01*
X132932165Y-45176051D01*
X133060402Y-45006239D01*
X133155251Y-44815755D01*
X133213485Y-44611085D01*
X133233119Y-44399200D01*
X133226444Y-44327170D01*
X133213485Y-44187315D01*
X133198201Y-44133597D01*
X133155251Y-43982645D01*
X133155249Y-43982640D01*
X133155249Y-43982639D01*
X133060403Y-43792162D01*
X132981744Y-43688002D01*
X132932165Y-43622349D01*
X132884171Y-43578597D01*
X132774909Y-43478991D01*
X132774907Y-43478989D01*
X132593992Y-43366971D01*
X132593986Y-43366968D01*
X132405571Y-43293977D01*
X132395566Y-43290101D01*
X132186868Y-43251088D01*
X132124589Y-43219421D01*
X132089316Y-43159108D01*
X132092250Y-43089300D01*
X132132459Y-43032160D01*
X132186868Y-43007311D01*
X132395566Y-42968299D01*
X132593989Y-42891430D01*
X132774909Y-42779409D01*
X132932165Y-42636051D01*
X133060402Y-42466239D01*
X133106499Y-42373663D01*
X133155249Y-42275760D01*
X133155249Y-42275759D01*
X133155248Y-42275759D01*
X133155251Y-42275755D01*
X133213485Y-42071085D01*
X133233119Y-41859200D01*
X133226444Y-41787170D01*
X133213485Y-41647315D01*
X133173502Y-41506790D01*
X133155251Y-41442645D01*
X133155249Y-41442640D01*
X133155249Y-41442639D01*
X133060403Y-41252162D01*
X132932163Y-41082347D01*
X132774909Y-40938991D01*
X132774907Y-40938989D01*
X132593992Y-40826971D01*
X132593986Y-40826968D01*
X132437603Y-40766386D01*
X132395566Y-40750101D01*
X132198634Y-40713287D01*
X132136354Y-40681619D01*
X132101081Y-40621307D01*
X132104015Y-40551499D01*
X132144224Y-40494359D01*
X132208942Y-40468028D01*
X132221412Y-40467399D01*
X132775572Y-40467399D01*
X132835183Y-40460991D01*
X132970031Y-40410696D01*
X133085246Y-40324446D01*
X133171496Y-40209231D01*
X133221791Y-40074383D01*
X133228200Y-40014773D01*
X133228199Y-38623628D01*
X133221791Y-38564017D01*
X133213709Y-38542349D01*
X133171497Y-38429171D01*
X133171493Y-38429164D01*
X133085247Y-38313955D01*
X133085244Y-38313952D01*
X132970035Y-38227706D01*
X132970028Y-38227702D01*
X132835182Y-38177408D01*
X132835183Y-38177408D01*
X132775583Y-38171001D01*
X132775581Y-38171000D01*
X132775573Y-38171000D01*
X132775564Y-38171000D01*
X131384429Y-38171000D01*
X131384423Y-38171001D01*
X131324816Y-38177408D01*
X131189971Y-38227702D01*
X131189964Y-38227706D01*
X131074755Y-38313952D01*
X131074752Y-38313955D01*
X130988506Y-38429164D01*
X130988502Y-38429171D01*
X130941641Y-38554815D01*
X130938209Y-38564017D01*
X130933484Y-38607958D01*
X130906748Y-38672506D01*
X130849355Y-38712354D01*
X130810196Y-38718700D01*
X122870269Y-38718700D01*
X122870253Y-38718699D01*
X122862657Y-38718699D01*
X122704543Y-38718699D01*
X122597187Y-38747465D01*
X122551810Y-38759624D01*
X122551809Y-38759625D01*
X122501696Y-38788559D01*
X122501695Y-38788560D01*
X122485199Y-38798084D01*
X122414885Y-38838679D01*
X122414882Y-38838681D01*
X121439479Y-39814084D01*
X121413226Y-39859556D01*
X121402130Y-39878777D01*
X121360423Y-39951015D01*
X121319499Y-40103743D01*
X121319499Y-40103745D01*
X121319499Y-40271846D01*
X121319500Y-40271859D01*
X121319500Y-40435500D01*
X121299815Y-40502539D01*
X121247011Y-40548294D01*
X121195501Y-40559500D01*
X121022130Y-40559500D01*
X121022123Y-40559501D01*
X120962516Y-40565908D01*
X120827671Y-40616202D01*
X120827664Y-40616206D01*
X120712455Y-40702452D01*
X120712452Y-40702455D01*
X120626206Y-40817664D01*
X120626202Y-40817671D01*
X120575908Y-40952517D01*
X120569501Y-41012116D01*
X120569500Y-41012135D01*
X120569500Y-42807870D01*
X120569501Y-42807876D01*
X120575908Y-42867483D01*
X120626202Y-43002328D01*
X120626206Y-43002335D01*
X120712452Y-43117544D01*
X120712455Y-43117547D01*
X120827664Y-43203793D01*
X120827671Y-43203797D01*
X120959081Y-43252810D01*
X121015015Y-43294681D01*
X121039432Y-43360145D01*
X121024580Y-43428418D01*
X121003430Y-43456673D01*
X120881503Y-43578600D01*
X120745965Y-43772169D01*
X120745964Y-43772171D01*
X120646098Y-43986335D01*
X120646094Y-43986344D01*
X120584938Y-44214586D01*
X120584936Y-44214596D01*
X120564341Y-44449999D01*
X120564341Y-44450000D01*
X120584936Y-44685403D01*
X120584938Y-44685413D01*
X120646094Y-44913655D01*
X120646096Y-44913659D01*
X120646097Y-44913663D01*
X120715118Y-45061678D01*
X120745965Y-45127830D01*
X120745967Y-45127834D01*
X120824792Y-45240407D01*
X120881505Y-45321401D01*
X121048599Y-45488495D01*
X121215699Y-45605500D01*
X121234594Y-45618730D01*
X121278219Y-45673307D01*
X121285413Y-45742805D01*
X121253890Y-45805160D01*
X121234595Y-45821880D01*
X121048922Y-45951890D01*
X121048920Y-45951891D01*
X120881891Y-46118920D01*
X120881886Y-46118926D01*
X120746400Y-46312420D01*
X120746399Y-46312422D01*
X120646570Y-46526507D01*
X120646567Y-46526513D01*
X120589364Y-46739999D01*
X120589364Y-46740000D01*
X121486988Y-46740000D01*
X121454075Y-46797007D01*
X121420000Y-46924174D01*
X121420000Y-47055826D01*
X121454075Y-47182993D01*
X121486988Y-47240000D01*
X120589364Y-47240000D01*
X120646567Y-47453486D01*
X120646570Y-47453492D01*
X120746399Y-47667578D01*
X120881894Y-47861082D01*
X121048917Y-48028105D01*
X121234595Y-48158119D01*
X121278219Y-48212696D01*
X121285412Y-48282195D01*
X121253890Y-48344549D01*
X121234595Y-48361269D01*
X121048594Y-48491508D01*
X120881505Y-48658597D01*
X120745965Y-48852169D01*
X120745964Y-48852171D01*
X120646098Y-49066335D01*
X120646094Y-49066344D01*
X120584938Y-49294586D01*
X120584936Y-49294596D01*
X120564341Y-49529999D01*
X120564341Y-49530000D01*
X120584936Y-49765403D01*
X120584938Y-49765413D01*
X120646094Y-49993655D01*
X120646096Y-49993659D01*
X120646097Y-49993663D01*
X120715480Y-50142454D01*
X120745965Y-50207830D01*
X120745967Y-50207834D01*
X120833429Y-50332741D01*
X120881501Y-50401396D01*
X120881506Y-50401402D01*
X121048597Y-50568493D01*
X121048603Y-50568498D01*
X121234158Y-50698425D01*
X121277783Y-50753002D01*
X121284977Y-50822500D01*
X121253454Y-50884855D01*
X121234158Y-50901575D01*
X121048597Y-51031505D01*
X120881505Y-51198597D01*
X120745965Y-51392169D01*
X120745964Y-51392171D01*
X120646098Y-51606335D01*
X120646094Y-51606344D01*
X120584938Y-51834586D01*
X120584936Y-51834596D01*
X120564341Y-52069999D01*
X120564341Y-52070000D01*
X120584936Y-52305403D01*
X120584938Y-52305413D01*
X120646094Y-52533655D01*
X120646096Y-52533659D01*
X120646097Y-52533663D01*
X120712778Y-52676661D01*
X120745965Y-52747830D01*
X120745967Y-52747834D01*
X120802332Y-52828331D01*
X120881505Y-52941401D01*
X121048599Y-53108495D01*
X121177823Y-53198979D01*
X121234594Y-53238730D01*
X121278219Y-53293307D01*
X121285413Y-53362805D01*
X121253890Y-53425160D01*
X121234595Y-53441880D01*
X121048922Y-53571890D01*
X121048920Y-53571891D01*
X120881891Y-53738920D01*
X120881886Y-53738926D01*
X120746400Y-53932420D01*
X120746399Y-53932422D01*
X120646570Y-54146507D01*
X120646567Y-54146513D01*
X120589364Y-54359999D01*
X120589364Y-54360000D01*
X121486988Y-54360000D01*
X121454075Y-54417007D01*
X121420000Y-54544174D01*
X121420000Y-54675826D01*
X121454075Y-54802993D01*
X121486988Y-54860000D01*
X120589364Y-54860000D01*
X120646567Y-55073486D01*
X120646570Y-55073492D01*
X120746399Y-55287578D01*
X120881894Y-55481082D01*
X121048917Y-55648105D01*
X121242421Y-55783600D01*
X121456507Y-55883429D01*
X121456516Y-55883433D01*
X121670000Y-55940634D01*
X121670000Y-55043012D01*
X121727007Y-55075925D01*
X121854174Y-55110000D01*
X121985826Y-55110000D01*
X122112993Y-55075925D01*
X122170000Y-55043012D01*
X122170000Y-55940633D01*
X122383483Y-55883433D01*
X122383492Y-55883429D01*
X122597578Y-55783600D01*
X122791082Y-55648105D01*
X122958105Y-55481082D01*
X123088119Y-55295405D01*
X123142696Y-55251781D01*
X123212195Y-55244588D01*
X123274549Y-55276110D01*
X123291269Y-55295405D01*
X123421505Y-55481401D01*
X123588599Y-55648495D01*
X123629410Y-55677071D01*
X123782165Y-55784032D01*
X123782167Y-55784033D01*
X123782170Y-55784035D01*
X123996337Y-55883903D01*
X124224592Y-55945063D01*
X124412918Y-55961539D01*
X124459999Y-55965659D01*
X124460000Y-55965659D01*
X124460001Y-55965659D01*
X124499234Y-55962226D01*
X124695408Y-55945063D01*
X124923663Y-55883903D01*
X125137830Y-55784035D01*
X125331401Y-55648495D01*
X125498495Y-55481401D01*
X125634035Y-55287830D01*
X125636707Y-55282097D01*
X125682878Y-55229658D01*
X125749091Y-55210500D01*
X131071278Y-55210500D01*
X131138317Y-55230185D01*
X131170232Y-55259773D01*
X131227836Y-55336052D01*
X131385090Y-55479408D01*
X131385092Y-55479410D01*
X131566007Y-55591428D01*
X131566013Y-55591431D01*
X131608048Y-55607715D01*
X131764434Y-55668299D01*
X131973129Y-55707311D01*
X132035410Y-55738979D01*
X132070683Y-55799292D01*
X132067749Y-55869100D01*
X132027540Y-55926240D01*
X131973129Y-55951088D01*
X131764434Y-55990101D01*
X131764431Y-55990101D01*
X131764431Y-55990102D01*
X131566013Y-56066968D01*
X131566007Y-56066971D01*
X131385092Y-56178989D01*
X131385090Y-56178991D01*
X131227836Y-56322347D01*
X131099596Y-56492162D01*
X131004750Y-56682639D01*
X131004750Y-56682640D01*
X130946514Y-56887315D01*
X130926881Y-57099199D01*
X130926881Y-57099200D01*
X130946514Y-57311084D01*
X131004750Y-57515759D01*
X131004750Y-57515760D01*
X131099596Y-57706237D01*
X131178292Y-57810446D01*
X131227833Y-57876049D01*
X131227836Y-57876052D01*
X131323619Y-57963370D01*
X131359901Y-58023081D01*
X131358140Y-58092929D01*
X131318897Y-58150736D01*
X131254630Y-58178151D01*
X131239981Y-58179007D01*
X120194533Y-58170100D01*
X120127509Y-58150361D01*
X120081797Y-58097520D01*
X120070635Y-58045467D01*
X120070718Y-58029231D01*
X120089994Y-54251118D01*
X120090025Y-54248934D01*
X120190000Y-50110000D01*
X120100000Y-38080000D01*
X120099999Y-38080000D01*
X120047866Y-38080000D01*
X116820000Y-38080000D01*
X116820000Y-37251133D01*
X116820000Y-35104024D01*
X116839685Y-35036985D01*
X116892489Y-34991230D01*
X116944022Y-34980024D01*
X167856088Y-34989975D01*
G37*
%TD.AperFunction*%
%TD*%
%TA.AperFunction,Conductor*%
%TO.N,+5V*%
G36*
X109150000Y-38050000D02*
G01*
X109150000Y-39050000D01*
X109255255Y-39050000D01*
X109131010Y-54216589D01*
X109110777Y-54283465D01*
X109057600Y-54328786D01*
X109006584Y-54339572D01*
X89063922Y-54270429D01*
X88996951Y-54250512D01*
X88951380Y-54197550D01*
X88940353Y-54146077D01*
X88944017Y-52859894D01*
X88945602Y-52303584D01*
X88965477Y-52236603D01*
X89018411Y-52190998D01*
X89087598Y-52181252D01*
X89151070Y-52210458D01*
X89181983Y-52251534D01*
X89270293Y-52440916D01*
X89270295Y-52440920D01*
X89316103Y-52506341D01*
X89316104Y-52506341D01*
X89878871Y-51943574D01*
X89894755Y-52002853D01*
X89961898Y-52119147D01*
X90056853Y-52214102D01*
X90173147Y-52281245D01*
X90232425Y-52297128D01*
X89669657Y-52859894D01*
X89735084Y-52905706D01*
X89935690Y-52999250D01*
X89935699Y-52999254D01*
X90149490Y-53056538D01*
X90149500Y-53056540D01*
X90369999Y-53075832D01*
X90370001Y-53075832D01*
X90590499Y-53056540D01*
X90590509Y-53056538D01*
X90804300Y-52999254D01*
X90804314Y-52999249D01*
X91004911Y-52905709D01*
X91004919Y-52905705D01*
X91070341Y-52859895D01*
X90507574Y-52297128D01*
X90566853Y-52281245D01*
X90683147Y-52214102D01*
X90778102Y-52119147D01*
X90845245Y-52002853D01*
X90861128Y-51943574D01*
X91423895Y-52506341D01*
X91469705Y-52440919D01*
X91469709Y-52440911D01*
X91563249Y-52240314D01*
X91563254Y-52240300D01*
X91620538Y-52026509D01*
X91620540Y-52026499D01*
X91639832Y-51806000D01*
X91639832Y-51805999D01*
X91620540Y-51585500D01*
X91620538Y-51585490D01*
X91563254Y-51371699D01*
X91563250Y-51371690D01*
X91469706Y-51171084D01*
X91423894Y-51105657D01*
X90861128Y-51668424D01*
X90845245Y-51609147D01*
X90778102Y-51492853D01*
X90683147Y-51397898D01*
X90566853Y-51330755D01*
X90507574Y-51314871D01*
X91068304Y-50754141D01*
X107030000Y-50710000D01*
X107119182Y-37392026D01*
X107139315Y-37325123D01*
X107192424Y-37279722D01*
X107242021Y-37268864D01*
X109120782Y-37251388D01*
X109150000Y-38050000D01*
G37*
%TD.AperFunction*%
%TA.AperFunction,Conductor*%
G36*
X90232425Y-51314871D02*
G01*
X90173147Y-51330755D01*
X90056853Y-51397898D01*
X89961898Y-51492853D01*
X89894755Y-51609147D01*
X89878871Y-51668424D01*
X89316104Y-51105657D01*
X89316103Y-51105658D01*
X89270295Y-51171080D01*
X89184838Y-51354343D01*
X89138666Y-51406782D01*
X89071472Y-51425934D01*
X89004591Y-51405718D01*
X88959256Y-51352553D01*
X88948457Y-51301585D01*
X88949015Y-51105657D01*
X88949648Y-50883302D01*
X88969523Y-50816322D01*
X89022457Y-50770717D01*
X89073299Y-50759659D01*
X89675547Y-50757993D01*
X90232425Y-51314871D01*
G37*
%TD.AperFunction*%
%TD*%
%TA.AperFunction,Conductor*%
%TO.N,+24V*%
G36*
X81430447Y-40903980D02*
G01*
X81497451Y-40923779D01*
X81543117Y-40976660D01*
X81554235Y-41027665D01*
X81565901Y-45618151D01*
X81565901Y-45618152D01*
X81256000Y-45620000D01*
X81256000Y-47860000D01*
X81571594Y-47858432D01*
X81573606Y-48649875D01*
X81554092Y-48716964D01*
X81501404Y-48762853D01*
X81449606Y-48774190D01*
X81060118Y-48774190D01*
X81060000Y-48674000D01*
X80230196Y-48675788D01*
X80242086Y-48671354D01*
X80242093Y-48671350D01*
X80357187Y-48585190D01*
X80357190Y-48585187D01*
X80443350Y-48470093D01*
X80443354Y-48470086D01*
X80493596Y-48335379D01*
X80493598Y-48335372D01*
X80499999Y-48275844D01*
X80500000Y-48275827D01*
X80500000Y-46478000D01*
X79500000Y-46478000D01*
X79500000Y-45978000D01*
X80500000Y-45978000D01*
X80500000Y-44180172D01*
X80499999Y-44180155D01*
X80493598Y-44120627D01*
X80493596Y-44120620D01*
X80443354Y-43985913D01*
X80443350Y-43985906D01*
X80357190Y-43870812D01*
X80357187Y-43870809D01*
X80242093Y-43784649D01*
X80242086Y-43784645D01*
X80107379Y-43734403D01*
X80107372Y-43734401D01*
X80047844Y-43728000D01*
X79250000Y-43728000D01*
X79250000Y-44794988D01*
X79192993Y-44762075D01*
X79065826Y-44728000D01*
X78934174Y-44728000D01*
X78807007Y-44762075D01*
X78750000Y-44794988D01*
X78750000Y-43728000D01*
X77952155Y-43728000D01*
X77892627Y-43734401D01*
X77892620Y-43734403D01*
X77757913Y-43784645D01*
X77757906Y-43784649D01*
X77642812Y-43870809D01*
X77642809Y-43870812D01*
X77556649Y-43985906D01*
X77556645Y-43985913D01*
X77506403Y-44120620D01*
X77506401Y-44120627D01*
X77500000Y-44180155D01*
X77500000Y-45978000D01*
X78500000Y-45978000D01*
X78500000Y-46478000D01*
X77500000Y-46478000D01*
X77500000Y-48275844D01*
X77506401Y-48335372D01*
X77506403Y-48335379D01*
X77556645Y-48470086D01*
X77556649Y-48470093D01*
X77642809Y-48585187D01*
X77642812Y-48585190D01*
X77757906Y-48671350D01*
X77757913Y-48671354D01*
X77783937Y-48681060D01*
X76420000Y-48684000D01*
X76420375Y-48774190D01*
X75787922Y-48774190D01*
X75720883Y-48754505D01*
X75675128Y-48701701D01*
X75663922Y-48650190D01*
X75663922Y-41018400D01*
X75683607Y-40951361D01*
X75736411Y-40905606D01*
X75788128Y-40894400D01*
X81430447Y-40903980D01*
G37*
%TD.AperFunction*%
%TA.AperFunction,Conductor*%
G36*
X79250000Y-48677900D02*
G01*
X78750000Y-48678978D01*
X78750000Y-47661012D01*
X78807007Y-47693925D01*
X78934174Y-47728000D01*
X79065826Y-47728000D01*
X79192993Y-47693925D01*
X79250000Y-47661012D01*
X79250000Y-48677900D01*
G37*
%TD.AperFunction*%
%TD*%
%TA.AperFunction,Conductor*%
%TO.N,+24V*%
G36*
X89609632Y-45589880D02*
G01*
X89655701Y-45642410D01*
X89659046Y-45661493D01*
X90232424Y-46234871D01*
X90173147Y-46250755D01*
X90056853Y-46317898D01*
X89961898Y-46412853D01*
X89894755Y-46529147D01*
X89878871Y-46588424D01*
X89316104Y-46025657D01*
X89316103Y-46025658D01*
X89270295Y-46091080D01*
X89176749Y-46291690D01*
X89176745Y-46291699D01*
X89119461Y-46505490D01*
X89119459Y-46505500D01*
X89100168Y-46725999D01*
X89100168Y-46726000D01*
X89119459Y-46946499D01*
X89119461Y-46946509D01*
X89176745Y-47160300D01*
X89176749Y-47160309D01*
X89270293Y-47360916D01*
X89270295Y-47360920D01*
X89316103Y-47426341D01*
X89316104Y-47426341D01*
X89878871Y-46863574D01*
X89894755Y-46922853D01*
X89961898Y-47039147D01*
X90056853Y-47134102D01*
X90173147Y-47201245D01*
X90232423Y-47217127D01*
X89648490Y-47801061D01*
X89648480Y-47801051D01*
X89648395Y-47801158D01*
X89647936Y-47801616D01*
X89617006Y-47818460D01*
X89490263Y-47819090D01*
X89490260Y-47819089D01*
X81571594Y-47858431D01*
X81571593Y-47858431D01*
X81571593Y-47858432D01*
X81256000Y-47860000D01*
X81256000Y-45620000D01*
X89542484Y-45570597D01*
X89609632Y-45589880D01*
G37*
%TD.AperFunction*%
%TD*%
%TA.AperFunction,Conductor*%
%TO.N,+5V*%
G36*
X116820000Y-37251134D02*
G01*
X116820000Y-38080000D01*
X120047866Y-38080000D01*
X120003459Y-55140889D01*
X120000318Y-56347798D01*
X119980459Y-56414786D01*
X119927536Y-56460403D01*
X119877806Y-56471466D01*
X117625056Y-56498499D01*
X117557785Y-56479620D01*
X117511400Y-56427369D01*
X117499569Y-56374938D01*
X117440000Y-39050000D01*
X109255255Y-39050000D01*
X109150000Y-39050000D01*
X109150000Y-38050000D01*
X109120782Y-37251387D01*
X109134399Y-37251261D01*
X109164922Y-37233674D01*
X109194390Y-37230204D01*
X116820000Y-37251134D01*
G37*
%TD.AperFunction*%
%TD*%
M02*
