%TF.GenerationSoftware,KiCad,Pcbnew,9.0.0*%
%TF.CreationDate,2025-03-02T15:10:05-05:00*%
%TF.ProjectId,skee-ball,736b6565-2d62-4616-9c6c-2e6b69636164,rev?*%
%TF.SameCoordinates,Original*%
%TF.FileFunction,Soldermask,Bot*%
%TF.FilePolarity,Negative*%
%FSLAX46Y46*%
G04 Gerber Fmt 4.6, Leading zero omitted, Abs format (unit mm)*
G04 Created by KiCad (PCBNEW 9.0.0) date 2025-03-02 15:10:05*
%MOMM*%
%LPD*%
G01*
G04 APERTURE LIST*
G04 Aperture macros list*
%AMRoundRect*
0 Rectangle with rounded corners*
0 $1 Rounding radius*
0 $2 $3 $4 $5 $6 $7 $8 $9 X,Y pos of 4 corners*
0 Add a 4 corners polygon primitive as box body*
4,1,4,$2,$3,$4,$5,$6,$7,$8,$9,$2,$3,0*
0 Add four circle primitives for the rounded corners*
1,1,$1+$1,$2,$3*
1,1,$1+$1,$4,$5*
1,1,$1+$1,$6,$7*
1,1,$1+$1,$8,$9*
0 Add four rect primitives between the rounded corners*
20,1,$1+$1,$2,$3,$4,$5,0*
20,1,$1+$1,$4,$5,$6,$7,0*
20,1,$1+$1,$6,$7,$8,$9,0*
20,1,$1+$1,$8,$9,$2,$3,0*%
G04 Aperture macros list end*
%ADD10O,1.700000X1.700000*%
%ADD11R,1.700000X1.700000*%
%ADD12C,3.200000*%
%ADD13C,2.000000*%
%ADD14O,3.500000X2.000000*%
%ADD15O,2.000000X3.300000*%
%ADD16R,2.000000X4.000000*%
%ADD17C,1.600000*%
%ADD18R,1.295400X1.295400*%
%ADD19C,1.295400*%
%ADD20R,1.600000X1.600000*%
%ADD21O,1.600000X1.600000*%
%ADD22C,1.260000*%
%ADD23C,2.180000*%
%ADD24R,1.530000X1.530000*%
%ADD25C,1.530000*%
%ADD26RoundRect,0.250000X0.475000X-0.337500X0.475000X0.337500X-0.475000X0.337500X-0.475000X-0.337500X0*%
%ADD27RoundRect,0.250000X0.450000X-0.350000X0.450000X0.350000X-0.450000X0.350000X-0.450000X-0.350000X0*%
%ADD28RoundRect,0.250000X-0.475000X0.337500X-0.475000X-0.337500X0.475000X-0.337500X0.475000X0.337500X0*%
%ADD29RoundRect,0.250000X-0.350000X-0.450000X0.350000X-0.450000X0.350000X0.450000X-0.350000X0.450000X0*%
%ADD30RoundRect,0.250000X-0.337500X-0.475000X0.337500X-0.475000X0.337500X0.475000X-0.337500X0.475000X0*%
%ADD31RoundRect,0.250000X0.337500X0.475000X-0.337500X0.475000X-0.337500X-0.475000X0.337500X-0.475000X0*%
G04 APERTURE END LIST*
D10*
%TO.C,J21*%
X84404200Y-98475800D03*
X86944200Y-98475800D03*
X89484200Y-98475800D03*
D11*
X92024200Y-98475800D03*
%TD*%
D12*
%TO.C,H4*%
X70688200Y-113842800D03*
%TD*%
%TO.C,H3*%
X160731200Y-32715200D03*
%TD*%
%TO.C,H2*%
X70688200Y-32715200D03*
%TD*%
%TO.C,H1*%
X160731200Y-113842800D03*
%TD*%
D11*
%TO.C,J18*%
X149883400Y-100330000D03*
D10*
X147343400Y-100330000D03*
%TD*%
D13*
%TO.C,NRST*%
X151536400Y-70053200D03*
X158036400Y-70053200D03*
X151536400Y-74553200D03*
X158036400Y-74553200D03*
%TD*%
D14*
%TO.C,J4*%
X70915400Y-50118400D03*
X70915400Y-41118400D03*
D15*
X71915400Y-45618400D03*
D16*
X77915400Y-45618400D03*
D17*
X68915400Y-45618400D03*
%TD*%
D11*
%TO.C,J27*%
X105968800Y-104978200D03*
D10*
X103428800Y-104978200D03*
X100888800Y-104978200D03*
X98348800Y-104978200D03*
%TD*%
D18*
%TO.C,U6*%
X153822400Y-57099200D03*
D19*
X153822400Y-54559200D03*
X153822400Y-52019200D03*
X153822400Y-49479200D03*
X153822400Y-46939200D03*
X153822400Y-44399200D03*
X153822400Y-41859200D03*
X153822400Y-39319200D03*
X146202400Y-39319200D03*
X146202400Y-41859200D03*
X146202400Y-44399200D03*
X146202400Y-46939200D03*
X146202400Y-49479200D03*
X146202400Y-52019200D03*
X146202400Y-54559200D03*
X146202400Y-57099200D03*
%TD*%
D11*
%TO.C,J2*%
X161950400Y-95580200D03*
D10*
X161950400Y-93040200D03*
%TD*%
D11*
%TO.C,J20*%
X84658200Y-81051400D03*
D10*
X87198200Y-81051400D03*
X89738200Y-81051400D03*
%TD*%
D11*
%TO.C,J36*%
X161950400Y-80619600D03*
D10*
X161950400Y-83159600D03*
X161950400Y-85699600D03*
X161950400Y-88239600D03*
%TD*%
D20*
%TO.C,U9*%
X146583400Y-80369600D03*
D21*
X146583400Y-82909600D03*
X146583400Y-85449600D03*
X146583400Y-87989600D03*
X146583400Y-90529600D03*
X146583400Y-93069600D03*
X156743400Y-93069600D03*
X156743400Y-90529600D03*
X156743400Y-87989600D03*
X156743400Y-85449600D03*
X156743400Y-82909600D03*
X156743400Y-80369600D03*
%TD*%
D22*
%TO.C,RV1*%
X113284000Y-41660000D03*
X115824000Y-44200000D03*
X113284000Y-46740000D03*
%TD*%
D11*
%TO.C,J22*%
X91922600Y-105181400D03*
D10*
X89382600Y-105181400D03*
X86842600Y-105181400D03*
X84302600Y-105181400D03*
%TD*%
D11*
%TO.C,U2*%
X136374000Y-99656200D03*
D10*
X133834000Y-99656200D03*
X131294000Y-99656200D03*
X128754000Y-99656200D03*
X126214000Y-99656200D03*
X123674000Y-99656200D03*
X121134000Y-99656200D03*
%TD*%
D18*
%TO.C,U5*%
X132080000Y-39319200D03*
D19*
X132080000Y-41859200D03*
X132080000Y-44399200D03*
X132080000Y-46939200D03*
X132080000Y-49479200D03*
X132080000Y-52019200D03*
X132080000Y-54559200D03*
X132080000Y-57099200D03*
X139700000Y-57099200D03*
X139700000Y-54559200D03*
X139700000Y-52019200D03*
X139700000Y-49479200D03*
X139700000Y-46939200D03*
X139700000Y-44399200D03*
X139700000Y-41859200D03*
X139700000Y-39319200D03*
%TD*%
D11*
%TO.C,J26*%
X105892600Y-98552000D03*
D10*
X103352600Y-98552000D03*
X100812600Y-98552000D03*
X98272600Y-98552000D03*
%TD*%
D11*
%TO.C,J19*%
X115646200Y-104521000D03*
D10*
X115646200Y-101981000D03*
X115646200Y-99441000D03*
%TD*%
D11*
%TO.C,J5*%
X161975800Y-39925000D03*
D10*
X161975800Y-42465000D03*
X161975800Y-45005000D03*
X161975800Y-47545000D03*
X161975800Y-50085000D03*
%TD*%
D23*
%TO.C,U1*%
X98388500Y-62750900D03*
X85188500Y-75950900D03*
D24*
X84158500Y-61720900D03*
D25*
X84158500Y-64260900D03*
X84158500Y-66800900D03*
X84158500Y-69340900D03*
X84158500Y-71880900D03*
X94848500Y-61720900D03*
%TD*%
D20*
%TO.C,U10*%
X120650000Y-88900000D03*
D21*
X120650000Y-86360000D03*
X120650000Y-83820000D03*
X120650000Y-81280000D03*
X120650000Y-78740000D03*
X120650000Y-76200000D03*
X110490000Y-76200000D03*
X110490000Y-78740000D03*
X110490000Y-81280000D03*
X110490000Y-83820000D03*
X110490000Y-86360000D03*
X110490000Y-88900000D03*
%TD*%
D20*
%TO.C,U8*%
X120650000Y-72898000D03*
D21*
X120650000Y-70358000D03*
X120650000Y-67818000D03*
X120650000Y-65278000D03*
X120650000Y-62738000D03*
X120650000Y-60198000D03*
X110490000Y-60198000D03*
X110490000Y-62738000D03*
X110490000Y-65278000D03*
X110490000Y-67818000D03*
X110490000Y-70358000D03*
X110490000Y-72898000D03*
%TD*%
D11*
%TO.C,J13*%
X126238000Y-88631000D03*
D10*
X126238000Y-86091000D03*
X126238000Y-83551000D03*
%TD*%
D18*
%TO.C,U7*%
X84861400Y-92532200D03*
D19*
X87401400Y-92532200D03*
X89941400Y-92532200D03*
X92481400Y-92532200D03*
X95021400Y-92532200D03*
X97561400Y-92532200D03*
X100101400Y-92532200D03*
X100101400Y-84912200D03*
X97561400Y-84912200D03*
X95021400Y-84912200D03*
X92481400Y-84912200D03*
X89941400Y-84912200D03*
X87401400Y-84912200D03*
X84861400Y-84912200D03*
%TD*%
D11*
%TO.C,J3*%
X121920000Y-41910000D03*
D10*
X124460000Y-41910000D03*
X121920000Y-44450000D03*
X124460000Y-44450000D03*
X121920000Y-46990000D03*
X124460000Y-46990000D03*
X121920000Y-49530000D03*
X124460000Y-49530000D03*
X121920000Y-52070000D03*
X124460000Y-52070000D03*
X121920000Y-54610000D03*
X124460000Y-54610000D03*
%TD*%
D23*
%TO.C,U3*%
X105064000Y-42676000D03*
X91864000Y-55876000D03*
D24*
X90834000Y-41646000D03*
D25*
X90834000Y-44186000D03*
X90834000Y-46726000D03*
X90834000Y-49266000D03*
X90834000Y-51806000D03*
X101524000Y-41646000D03*
%TD*%
D26*
%TO.C,C17*%
X124587000Y-77005000D03*
X124587000Y-74930000D03*
%TD*%
D27*
%TO.C,R2*%
X159156400Y-90950800D03*
X159156400Y-88950800D03*
%TD*%
%TO.C,R1*%
X149326600Y-77920600D03*
X149326600Y-75920600D03*
%TD*%
D28*
%TO.C,C3*%
X149326600Y-71504900D03*
X149326600Y-73579900D03*
%TD*%
%TO.C,C14*%
X141071600Y-78718500D03*
X141071600Y-80793500D03*
%TD*%
D29*
%TO.C,R10*%
X93649800Y-77724000D03*
X95649800Y-77724000D03*
%TD*%
D30*
%TO.C,C12*%
X130661500Y-64389000D03*
X132736500Y-64389000D03*
%TD*%
D28*
%TO.C,C10*%
X140360400Y-62771200D03*
X140360400Y-64846200D03*
%TD*%
D31*
%TO.C,C7*%
X163968400Y-68707000D03*
X161893400Y-68707000D03*
%TD*%
D30*
%TO.C,C6*%
X160928200Y-56438800D03*
X163003200Y-56438800D03*
%TD*%
D28*
%TO.C,C1*%
X143471800Y-70209500D03*
X143471800Y-72284500D03*
%TD*%
%TO.C,C2*%
X145465800Y-70209500D03*
X145465800Y-72284500D03*
%TD*%
D30*
%TO.C,C11*%
X130640000Y-61087000D03*
X132715000Y-61087000D03*
%TD*%
D26*
%TO.C,C16*%
X126644400Y-76983500D03*
X126644400Y-74908500D03*
%TD*%
M02*
