M48
; DRILL file {KiCad 9.0.0} date 2025-03-02T15:10:36-0500
; FORMAT={-:-/ absolute / inch / decimal}
; #@! TF.CreationDate,2025-03-02T15:10:36-05:00
; #@! TF.GenerationSoftware,Kicad,Pcbnew,9.0.0
; #@! TF.FileFunction,Plated,1,2,PTH
FMAT,2
INCH
; #@! TA.AperFunction,Plated,PTH,ViaDrill
T1C0.0118
; #@! TA.AperFunction,Plated,PTH,ComponentDrill
T2C0.0276
; #@! TA.AperFunction,Plated,PTH,ComponentDrill
T3C0.0310
; #@! TA.AperFunction,Plated,PTH,ComponentDrill
T4C0.0315
; #@! TA.AperFunction,Plated,PTH,ComponentDrill
T5C0.0394
; #@! TA.AperFunction,Plated,PTH,ComponentDrill
T6C0.0402
; #@! TA.AperFunction,Plated,PTH,ComponentDrill
T7C0.0433
%
G90
G05
T1
X2.879Y-2.113
X3.313Y-4.002
X3.541Y-3.298
X3.682Y-3.134
X3.691Y-2.118
X3.769Y-3.14
X4.328Y-3.618
X4.456Y-1.9
X4.671Y-2.184
X4.867Y-3.983
X4.9213Y-2.5591
X5.0Y-3.0906
X5.02Y-2.748
X5.022Y-2.697
X5.024Y-2.626
X5.0394Y-2.5591
X5.045Y-2.994
X5.128Y-2.624
X5.174Y-3.712
X5.196Y-2.582
X5.199Y-3.64
X5.258Y-3.638
X5.315Y-2.5394
X5.3344Y-3.5674
X5.393Y-3.179
X5.418Y-3.863
X5.43Y-2.452
X5.461Y-2.566
X5.483Y-3.949
X5.505Y-3.134
X5.5075Y-2.6075
X5.511Y-3.097
X5.52Y-2.407
X5.555Y-2.048
X5.556Y-1.748
X5.571Y-3.82
X5.573Y-3.719
X5.582Y-3.54
X5.5906Y-3.0315
X5.593Y-1.948
X5.598Y-3.642
X5.602Y-2.763
X5.602Y-2.806
X5.6102Y-3.4646
X5.632Y-2.507
X5.651Y-2.368
X5.68Y-2.709
X5.701Y-1.848
X5.7283Y-3.0709
X5.747Y-3.852
X5.834Y-2.9352
X5.8465Y-3.851
X5.8858Y-2.4803
X5.94Y-3.066
X6.0236Y-2.6181
X6.294Y-3.663
X6.3274Y-2.275
X6.417Y-3.023
X6.526Y-2.271
X6.5354Y-2.6969
X6.615Y-3.167
T2
X4.46Y-1.6402
X4.46Y-1.8402
X4.56Y-1.7402
T3
X3.341Y-3.343
X3.341Y-3.643
X3.441Y-3.343
X3.441Y-3.643
X3.541Y-3.343
X3.541Y-3.643
X3.641Y-3.343
X3.641Y-3.643
X3.741Y-3.343
X3.741Y-3.643
X3.841Y-3.343
X3.841Y-3.643
X3.941Y-3.343
X3.941Y-3.643
X5.2Y-1.548
X5.2Y-1.648
X5.2Y-1.748
X5.2Y-1.848
X5.2Y-1.948
X5.2Y-2.048
X5.2Y-2.148
X5.2Y-2.248
X5.5Y-1.548
X5.5Y-1.648
X5.5Y-1.748
X5.5Y-1.848
X5.5Y-1.948
X5.5Y-2.048
X5.5Y-2.148
X5.5Y-2.248
X5.756Y-1.548
X5.756Y-1.648
X5.756Y-1.748
X5.756Y-1.848
X5.756Y-1.948
X5.756Y-2.048
X5.756Y-2.148
X5.756Y-2.248
X6.056Y-1.548
X6.056Y-1.648
X6.056Y-1.748
X6.056Y-1.848
X6.056Y-1.948
X6.056Y-2.048
X6.056Y-2.148
X6.056Y-2.248
T4
X4.35Y-2.37
X4.35Y-2.47
X4.35Y-2.57
X4.35Y-2.67
X4.35Y-2.77
X4.35Y-2.87
X4.35Y-3.0
X4.35Y-3.1
X4.35Y-3.2
X4.35Y-3.3
X4.35Y-3.4
X4.35Y-3.5
X4.75Y-2.37
X4.75Y-2.47
X4.75Y-2.57
X4.75Y-2.67
X4.75Y-2.77
X4.75Y-2.87
X4.75Y-3.0
X4.75Y-3.1
X4.75Y-3.2
X4.75Y-3.3
X4.75Y-3.4
X4.75Y-3.5
X5.771Y-3.1642
X5.771Y-3.2642
X5.771Y-3.3642
X5.771Y-3.4642
X5.771Y-3.5642
X5.771Y-3.6642
X6.171Y-3.1642
X6.171Y-3.2642
X6.171Y-3.3642
X6.171Y-3.4642
X6.171Y-3.5642
X6.171Y-3.6642
T5
X3.319Y-4.141
X3.323Y-3.877
X3.333Y-3.191
X3.419Y-4.141
X3.423Y-3.877
X3.433Y-3.191
X3.519Y-4.141
X3.523Y-3.877
X3.533Y-3.191
X3.619Y-4.141
X3.623Y-3.877
X3.869Y-3.88
X3.872Y-4.133
X3.969Y-3.88
X3.972Y-4.133
X4.069Y-3.88
X4.072Y-4.133
X4.169Y-3.88
X4.172Y-4.133
X4.553Y-3.915
X4.553Y-4.015
X4.553Y-4.115
X4.7691Y-3.9235
X4.8Y-1.65
X4.8Y-1.75
X4.8Y-1.85
X4.8Y-1.95
X4.8Y-2.05
X4.8Y-2.15
X4.8691Y-3.9235
X4.9Y-1.65
X4.9Y-1.75
X4.9Y-1.85
X4.9Y-1.95
X4.9Y-2.05
X4.9Y-2.15
X4.9691Y-3.9235
X4.97Y-3.2894
X4.97Y-3.3894
X4.97Y-3.4894
X5.0691Y-3.9235
X5.1691Y-3.9235
X5.2691Y-3.9235
X5.3691Y-3.9235
X5.8009Y-3.95
X5.9009Y-3.95
X6.376Y-3.174
X6.376Y-3.274
X6.376Y-3.374
X6.376Y-3.474
X6.376Y-3.663
X6.376Y-3.763
X6.377Y-1.5719
X6.377Y-1.6719
X6.377Y-1.7719
X6.377Y-1.8719
X6.377Y-1.9719
T6
X3.3133Y-2.43
X3.3133Y-2.53
X3.3133Y-2.63
X3.3133Y-2.73
X3.3133Y-2.83
X3.5761Y-1.6396
X3.5761Y-1.7396
X3.5761Y-1.8396
X3.5761Y-1.9396
X3.5761Y-2.0396
X3.7342Y-2.43
X3.997Y-1.6396
T7
X5.966Y-2.758
X5.966Y-2.9352
X6.2219Y-2.758
X6.2219Y-2.9352
T5
G00X2.8215Y-1.6188
M15
G01X2.7624Y-1.6188
M16
G05
G00X2.8215Y-1.9732
M15
G01X2.7624Y-1.9732
M16
G05
G00X2.8313Y-1.7704
M15
G01X2.8313Y-1.8216
M16
G05
G00X3.0675Y-1.7566
M15
G01X3.0675Y-1.8354
M16
G05
M30
