%TF.GenerationSoftware,KiCad,Pcbnew,9.0.0*%
%TF.CreationDate,2025-03-02T15:10:05-05:00*%
%TF.ProjectId,skee-ball,736b6565-2d62-4616-9c6c-2e6b69636164,rev?*%
%TF.SameCoordinates,Original*%
%TF.FileFunction,Legend,Top*%
%TF.FilePolarity,Positive*%
%FSLAX46Y46*%
G04 Gerber Fmt 4.6, Leading zero omitted, Abs format (unit mm)*
G04 Created by KiCad (PCBNEW 9.0.0) date 2025-03-02 15:10:05*
%MOMM*%
%LPD*%
G01*
G04 APERTURE LIST*
%ADD10C,0.100000*%
%ADD11C,0.150000*%
%ADD12C,0.120263*%
%ADD13C,0.120000*%
%ADD14C,0.152400*%
%ADD15C,0.127000*%
%ADD16C,0.200000*%
G04 APERTURE END LIST*
D10*
X125541693Y-90893438D02*
X125446455Y-90845819D01*
X125446455Y-90845819D02*
X125303598Y-90845819D01*
X125303598Y-90845819D02*
X125160741Y-90893438D01*
X125160741Y-90893438D02*
X125065503Y-90988676D01*
X125065503Y-90988676D02*
X125017884Y-91083914D01*
X125017884Y-91083914D02*
X124970265Y-91274390D01*
X124970265Y-91274390D02*
X124970265Y-91417247D01*
X124970265Y-91417247D02*
X125017884Y-91607723D01*
X125017884Y-91607723D02*
X125065503Y-91702961D01*
X125065503Y-91702961D02*
X125160741Y-91798200D01*
X125160741Y-91798200D02*
X125303598Y-91845819D01*
X125303598Y-91845819D02*
X125398836Y-91845819D01*
X125398836Y-91845819D02*
X125541693Y-91798200D01*
X125541693Y-91798200D02*
X125589312Y-91750580D01*
X125589312Y-91750580D02*
X125589312Y-91417247D01*
X125589312Y-91417247D02*
X125398836Y-91417247D01*
X126017884Y-91845819D02*
X126017884Y-90845819D01*
X126017884Y-90845819D02*
X126589312Y-91845819D01*
X126589312Y-91845819D02*
X126589312Y-90845819D01*
X127065503Y-91845819D02*
X127065503Y-90845819D01*
X127065503Y-90845819D02*
X127303598Y-90845819D01*
X127303598Y-90845819D02*
X127446455Y-90893438D01*
X127446455Y-90893438D02*
X127541693Y-90988676D01*
X127541693Y-90988676D02*
X127589312Y-91083914D01*
X127589312Y-91083914D02*
X127636931Y-91274390D01*
X127636931Y-91274390D02*
X127636931Y-91417247D01*
X127636931Y-91417247D02*
X127589312Y-91607723D01*
X127589312Y-91607723D02*
X127541693Y-91702961D01*
X127541693Y-91702961D02*
X127446455Y-91798200D01*
X127446455Y-91798200D02*
X127303598Y-91845819D01*
X127303598Y-91845819D02*
X127065503Y-91845819D01*
X128673800Y-83796865D02*
X128626180Y-83939722D01*
X128626180Y-83939722D02*
X128626180Y-84177817D01*
X128626180Y-84177817D02*
X128673800Y-84273055D01*
X128673800Y-84273055D02*
X128721419Y-84320674D01*
X128721419Y-84320674D02*
X128816657Y-84368293D01*
X128816657Y-84368293D02*
X128911895Y-84368293D01*
X128911895Y-84368293D02*
X129007133Y-84320674D01*
X129007133Y-84320674D02*
X129054752Y-84273055D01*
X129054752Y-84273055D02*
X129102371Y-84177817D01*
X129102371Y-84177817D02*
X129149990Y-83987341D01*
X129149990Y-83987341D02*
X129197609Y-83892103D01*
X129197609Y-83892103D02*
X129245228Y-83844484D01*
X129245228Y-83844484D02*
X129340466Y-83796865D01*
X129340466Y-83796865D02*
X129435704Y-83796865D01*
X129435704Y-83796865D02*
X129530942Y-83844484D01*
X129530942Y-83844484D02*
X129578561Y-83892103D01*
X129578561Y-83892103D02*
X129626180Y-83987341D01*
X129626180Y-83987341D02*
X129626180Y-84225436D01*
X129626180Y-84225436D02*
X129578561Y-84368293D01*
X129626180Y-84701627D02*
X128626180Y-84939722D01*
X128626180Y-84939722D02*
X129340466Y-85130198D01*
X129340466Y-85130198D02*
X128626180Y-85320674D01*
X128626180Y-85320674D02*
X129626180Y-85558770D01*
X128721419Y-86511150D02*
X128673800Y-86463531D01*
X128673800Y-86463531D02*
X128626180Y-86320674D01*
X128626180Y-86320674D02*
X128626180Y-86225436D01*
X128626180Y-86225436D02*
X128673800Y-86082579D01*
X128673800Y-86082579D02*
X128769038Y-85987341D01*
X128769038Y-85987341D02*
X128864276Y-85939722D01*
X128864276Y-85939722D02*
X129054752Y-85892103D01*
X129054752Y-85892103D02*
X129197609Y-85892103D01*
X129197609Y-85892103D02*
X129388085Y-85939722D01*
X129388085Y-85939722D02*
X129483323Y-85987341D01*
X129483323Y-85987341D02*
X129578561Y-86082579D01*
X129578561Y-86082579D02*
X129626180Y-86225436D01*
X129626180Y-86225436D02*
X129626180Y-86320674D01*
X129626180Y-86320674D02*
X129578561Y-86463531D01*
X129578561Y-86463531D02*
X129530942Y-86511150D01*
X128626180Y-87415912D02*
X128626180Y-86939722D01*
X128626180Y-86939722D02*
X129626180Y-86939722D01*
X128626180Y-87749246D02*
X129626180Y-87749246D01*
X128626180Y-88320674D02*
X129197609Y-87892103D01*
X129626180Y-88320674D02*
X129054752Y-87749246D01*
X124208265Y-81409600D02*
X124351122Y-81457219D01*
X124351122Y-81457219D02*
X124589217Y-81457219D01*
X124589217Y-81457219D02*
X124684455Y-81409600D01*
X124684455Y-81409600D02*
X124732074Y-81361980D01*
X124732074Y-81361980D02*
X124779693Y-81266742D01*
X124779693Y-81266742D02*
X124779693Y-81171504D01*
X124779693Y-81171504D02*
X124732074Y-81076266D01*
X124732074Y-81076266D02*
X124684455Y-81028647D01*
X124684455Y-81028647D02*
X124589217Y-80981028D01*
X124589217Y-80981028D02*
X124398741Y-80933409D01*
X124398741Y-80933409D02*
X124303503Y-80885790D01*
X124303503Y-80885790D02*
X124255884Y-80838171D01*
X124255884Y-80838171D02*
X124208265Y-80742933D01*
X124208265Y-80742933D02*
X124208265Y-80647695D01*
X124208265Y-80647695D02*
X124255884Y-80552457D01*
X124255884Y-80552457D02*
X124303503Y-80504838D01*
X124303503Y-80504838D02*
X124398741Y-80457219D01*
X124398741Y-80457219D02*
X124636836Y-80457219D01*
X124636836Y-80457219D02*
X124779693Y-80504838D01*
X125113027Y-80457219D02*
X125351122Y-81457219D01*
X125351122Y-81457219D02*
X125541598Y-80742933D01*
X125541598Y-80742933D02*
X125732074Y-81457219D01*
X125732074Y-81457219D02*
X125970170Y-80457219D01*
X126351122Y-81457219D02*
X126351122Y-80457219D01*
X126351122Y-80457219D02*
X126589217Y-80457219D01*
X126589217Y-80457219D02*
X126732074Y-80504838D01*
X126732074Y-80504838D02*
X126827312Y-80600076D01*
X126827312Y-80600076D02*
X126874931Y-80695314D01*
X126874931Y-80695314D02*
X126922550Y-80885790D01*
X126922550Y-80885790D02*
X126922550Y-81028647D01*
X126922550Y-81028647D02*
X126874931Y-81219123D01*
X126874931Y-81219123D02*
X126827312Y-81314361D01*
X126827312Y-81314361D02*
X126732074Y-81409600D01*
X126732074Y-81409600D02*
X126589217Y-81457219D01*
X126589217Y-81457219D02*
X126351122Y-81457219D01*
X127351122Y-81457219D02*
X127351122Y-80457219D01*
X128017788Y-80457219D02*
X128208264Y-80457219D01*
X128208264Y-80457219D02*
X128303502Y-80504838D01*
X128303502Y-80504838D02*
X128398740Y-80600076D01*
X128398740Y-80600076D02*
X128446359Y-80790552D01*
X128446359Y-80790552D02*
X128446359Y-81123885D01*
X128446359Y-81123885D02*
X128398740Y-81314361D01*
X128398740Y-81314361D02*
X128303502Y-81409600D01*
X128303502Y-81409600D02*
X128208264Y-81457219D01*
X128208264Y-81457219D02*
X128017788Y-81457219D01*
X128017788Y-81457219D02*
X127922550Y-81409600D01*
X127922550Y-81409600D02*
X127827312Y-81314361D01*
X127827312Y-81314361D02*
X127779693Y-81123885D01*
X127779693Y-81123885D02*
X127779693Y-80790552D01*
X127779693Y-80790552D02*
X127827312Y-80600076D01*
X127827312Y-80600076D02*
X127922550Y-80504838D01*
X127922550Y-80504838D02*
X128017788Y-80457219D01*
X165343493Y-87362838D02*
X165248255Y-87315219D01*
X165248255Y-87315219D02*
X165105398Y-87315219D01*
X165105398Y-87315219D02*
X164962541Y-87362838D01*
X164962541Y-87362838D02*
X164867303Y-87458076D01*
X164867303Y-87458076D02*
X164819684Y-87553314D01*
X164819684Y-87553314D02*
X164772065Y-87743790D01*
X164772065Y-87743790D02*
X164772065Y-87886647D01*
X164772065Y-87886647D02*
X164819684Y-88077123D01*
X164819684Y-88077123D02*
X164867303Y-88172361D01*
X164867303Y-88172361D02*
X164962541Y-88267600D01*
X164962541Y-88267600D02*
X165105398Y-88315219D01*
X165105398Y-88315219D02*
X165200636Y-88315219D01*
X165200636Y-88315219D02*
X165343493Y-88267600D01*
X165343493Y-88267600D02*
X165391112Y-88219980D01*
X165391112Y-88219980D02*
X165391112Y-87886647D01*
X165391112Y-87886647D02*
X165200636Y-87886647D01*
X165819684Y-88315219D02*
X165819684Y-87315219D01*
X165819684Y-87315219D02*
X166391112Y-88315219D01*
X166391112Y-88315219D02*
X166391112Y-87315219D01*
X166867303Y-88315219D02*
X166867303Y-87315219D01*
X166867303Y-87315219D02*
X167105398Y-87315219D01*
X167105398Y-87315219D02*
X167248255Y-87362838D01*
X167248255Y-87362838D02*
X167343493Y-87458076D01*
X167343493Y-87458076D02*
X167391112Y-87553314D01*
X167391112Y-87553314D02*
X167438731Y-87743790D01*
X167438731Y-87743790D02*
X167438731Y-87886647D01*
X167438731Y-87886647D02*
X167391112Y-88077123D01*
X167391112Y-88077123D02*
X167343493Y-88172361D01*
X167343493Y-88172361D02*
X167248255Y-88267600D01*
X167248255Y-88267600D02*
X167105398Y-88315219D01*
X167105398Y-88315219D02*
X166867303Y-88315219D01*
X164692684Y-85276809D02*
X165026017Y-85276809D01*
X165168874Y-85800619D02*
X164692684Y-85800619D01*
X164692684Y-85800619D02*
X164692684Y-84800619D01*
X164692684Y-84800619D02*
X165168874Y-84800619D01*
X166168874Y-85705380D02*
X166121255Y-85753000D01*
X166121255Y-85753000D02*
X165978398Y-85800619D01*
X165978398Y-85800619D02*
X165883160Y-85800619D01*
X165883160Y-85800619D02*
X165740303Y-85753000D01*
X165740303Y-85753000D02*
X165645065Y-85657761D01*
X165645065Y-85657761D02*
X165597446Y-85562523D01*
X165597446Y-85562523D02*
X165549827Y-85372047D01*
X165549827Y-85372047D02*
X165549827Y-85229190D01*
X165549827Y-85229190D02*
X165597446Y-85038714D01*
X165597446Y-85038714D02*
X165645065Y-84943476D01*
X165645065Y-84943476D02*
X165740303Y-84848238D01*
X165740303Y-84848238D02*
X165883160Y-84800619D01*
X165883160Y-84800619D02*
X165978398Y-84800619D01*
X165978398Y-84800619D02*
X166121255Y-84848238D01*
X166121255Y-84848238D02*
X166168874Y-84895857D01*
X166597446Y-85800619D02*
X166597446Y-84800619D01*
X166597446Y-85276809D02*
X167168874Y-85276809D01*
X167168874Y-85800619D02*
X167168874Y-84800619D01*
X167835541Y-84800619D02*
X168026017Y-84800619D01*
X168026017Y-84800619D02*
X168121255Y-84848238D01*
X168121255Y-84848238D02*
X168216493Y-84943476D01*
X168216493Y-84943476D02*
X168264112Y-85133952D01*
X168264112Y-85133952D02*
X168264112Y-85467285D01*
X168264112Y-85467285D02*
X168216493Y-85657761D01*
X168216493Y-85657761D02*
X168121255Y-85753000D01*
X168121255Y-85753000D02*
X168026017Y-85800619D01*
X168026017Y-85800619D02*
X167835541Y-85800619D01*
X167835541Y-85800619D02*
X167740303Y-85753000D01*
X167740303Y-85753000D02*
X167645065Y-85657761D01*
X167645065Y-85657761D02*
X167597446Y-85467285D01*
X167597446Y-85467285D02*
X167597446Y-85133952D01*
X167597446Y-85133952D02*
X167645065Y-84943476D01*
X167645065Y-84943476D02*
X167740303Y-84848238D01*
X167740303Y-84848238D02*
X167835541Y-84800619D01*
X165007027Y-82667019D02*
X165578455Y-82667019D01*
X165292741Y-83667019D02*
X165292741Y-82667019D01*
X166483217Y-83667019D02*
X166149884Y-83190828D01*
X165911789Y-83667019D02*
X165911789Y-82667019D01*
X165911789Y-82667019D02*
X166292741Y-82667019D01*
X166292741Y-82667019D02*
X166387979Y-82714638D01*
X166387979Y-82714638D02*
X166435598Y-82762257D01*
X166435598Y-82762257D02*
X166483217Y-82857495D01*
X166483217Y-82857495D02*
X166483217Y-83000352D01*
X166483217Y-83000352D02*
X166435598Y-83095590D01*
X166435598Y-83095590D02*
X166387979Y-83143209D01*
X166387979Y-83143209D02*
X166292741Y-83190828D01*
X166292741Y-83190828D02*
X165911789Y-83190828D01*
X166911789Y-83667019D02*
X166911789Y-82667019D01*
X167911788Y-82714638D02*
X167816550Y-82667019D01*
X167816550Y-82667019D02*
X167673693Y-82667019D01*
X167673693Y-82667019D02*
X167530836Y-82714638D01*
X167530836Y-82714638D02*
X167435598Y-82809876D01*
X167435598Y-82809876D02*
X167387979Y-82905114D01*
X167387979Y-82905114D02*
X167340360Y-83095590D01*
X167340360Y-83095590D02*
X167340360Y-83238447D01*
X167340360Y-83238447D02*
X167387979Y-83428923D01*
X167387979Y-83428923D02*
X167435598Y-83524161D01*
X167435598Y-83524161D02*
X167530836Y-83619400D01*
X167530836Y-83619400D02*
X167673693Y-83667019D01*
X167673693Y-83667019D02*
X167768931Y-83667019D01*
X167768931Y-83667019D02*
X167911788Y-83619400D01*
X167911788Y-83619400D02*
X167959407Y-83571780D01*
X167959407Y-83571780D02*
X167959407Y-83238447D01*
X167959407Y-83238447D02*
X167768931Y-83238447D01*
X165473674Y-80152419D02*
X164997484Y-80152419D01*
X164997484Y-80152419D02*
X164949865Y-80628609D01*
X164949865Y-80628609D02*
X164997484Y-80580990D01*
X164997484Y-80580990D02*
X165092722Y-80533371D01*
X165092722Y-80533371D02*
X165330817Y-80533371D01*
X165330817Y-80533371D02*
X165426055Y-80580990D01*
X165426055Y-80580990D02*
X165473674Y-80628609D01*
X165473674Y-80628609D02*
X165521293Y-80723847D01*
X165521293Y-80723847D02*
X165521293Y-80961942D01*
X165521293Y-80961942D02*
X165473674Y-81057180D01*
X165473674Y-81057180D02*
X165426055Y-81104800D01*
X165426055Y-81104800D02*
X165330817Y-81152419D01*
X165330817Y-81152419D02*
X165092722Y-81152419D01*
X165092722Y-81152419D02*
X164997484Y-81104800D01*
X164997484Y-81104800D02*
X164949865Y-81057180D01*
X165807008Y-80152419D02*
X166140341Y-81152419D01*
X166140341Y-81152419D02*
X166473674Y-80152419D01*
X149567438Y-104658506D02*
X149519819Y-104753744D01*
X149519819Y-104753744D02*
X149519819Y-104896601D01*
X149519819Y-104896601D02*
X149567438Y-105039458D01*
X149567438Y-105039458D02*
X149662676Y-105134696D01*
X149662676Y-105134696D02*
X149757914Y-105182315D01*
X149757914Y-105182315D02*
X149948390Y-105229934D01*
X149948390Y-105229934D02*
X150091247Y-105229934D01*
X150091247Y-105229934D02*
X150281723Y-105182315D01*
X150281723Y-105182315D02*
X150376961Y-105134696D01*
X150376961Y-105134696D02*
X150472200Y-105039458D01*
X150472200Y-105039458D02*
X150519819Y-104896601D01*
X150519819Y-104896601D02*
X150519819Y-104801363D01*
X150519819Y-104801363D02*
X150472200Y-104658506D01*
X150472200Y-104658506D02*
X150424580Y-104610887D01*
X150424580Y-104610887D02*
X150091247Y-104610887D01*
X150091247Y-104610887D02*
X150091247Y-104801363D01*
X150519819Y-104182315D02*
X149519819Y-104182315D01*
X149519819Y-104182315D02*
X150519819Y-103610887D01*
X150519819Y-103610887D02*
X149519819Y-103610887D01*
X150519819Y-103134696D02*
X149519819Y-103134696D01*
X149519819Y-103134696D02*
X149519819Y-102896601D01*
X149519819Y-102896601D02*
X149567438Y-102753744D01*
X149567438Y-102753744D02*
X149662676Y-102658506D01*
X149662676Y-102658506D02*
X149757914Y-102610887D01*
X149757914Y-102610887D02*
X149948390Y-102563268D01*
X149948390Y-102563268D02*
X150091247Y-102563268D01*
X150091247Y-102563268D02*
X150281723Y-102610887D01*
X150281723Y-102610887D02*
X150376961Y-102658506D01*
X150376961Y-102658506D02*
X150472200Y-102753744D01*
X150472200Y-102753744D02*
X150519819Y-102896601D01*
X150519819Y-102896601D02*
X150519819Y-103134696D01*
X147827419Y-108331915D02*
X146827419Y-108331915D01*
X146827419Y-108331915D02*
X146827419Y-107950963D01*
X146827419Y-107950963D02*
X146875038Y-107855725D01*
X146875038Y-107855725D02*
X146922657Y-107808106D01*
X146922657Y-107808106D02*
X147017895Y-107760487D01*
X147017895Y-107760487D02*
X147160752Y-107760487D01*
X147160752Y-107760487D02*
X147255990Y-107808106D01*
X147255990Y-107808106D02*
X147303609Y-107855725D01*
X147303609Y-107855725D02*
X147351228Y-107950963D01*
X147351228Y-107950963D02*
X147351228Y-108331915D01*
X146827419Y-107427153D02*
X147827419Y-107189058D01*
X147827419Y-107189058D02*
X147113133Y-106998582D01*
X147113133Y-106998582D02*
X147827419Y-106808106D01*
X147827419Y-106808106D02*
X146827419Y-106570011D01*
X147827419Y-106189058D02*
X146827419Y-106189058D01*
X146827419Y-106189058D02*
X147541704Y-105855725D01*
X147541704Y-105855725D02*
X146827419Y-105522392D01*
X146827419Y-105522392D02*
X147827419Y-105522392D01*
X147922657Y-105284297D02*
X147922657Y-104522392D01*
X147827419Y-104284296D02*
X146827419Y-104284296D01*
X146827419Y-104284296D02*
X146827419Y-104046201D01*
X146827419Y-104046201D02*
X146875038Y-103903344D01*
X146875038Y-103903344D02*
X146970276Y-103808106D01*
X146970276Y-103808106D02*
X147065514Y-103760487D01*
X147065514Y-103760487D02*
X147255990Y-103712868D01*
X147255990Y-103712868D02*
X147398847Y-103712868D01*
X147398847Y-103712868D02*
X147589323Y-103760487D01*
X147589323Y-103760487D02*
X147684561Y-103808106D01*
X147684561Y-103808106D02*
X147779800Y-103903344D01*
X147779800Y-103903344D02*
X147827419Y-104046201D01*
X147827419Y-104046201D02*
X147827419Y-104284296D01*
X147732180Y-102712868D02*
X147779800Y-102760487D01*
X147779800Y-102760487D02*
X147827419Y-102903344D01*
X147827419Y-102903344D02*
X147827419Y-102998582D01*
X147827419Y-102998582D02*
X147779800Y-103141439D01*
X147779800Y-103141439D02*
X147684561Y-103236677D01*
X147684561Y-103236677D02*
X147589323Y-103284296D01*
X147589323Y-103284296D02*
X147398847Y-103331915D01*
X147398847Y-103331915D02*
X147255990Y-103331915D01*
X147255990Y-103331915D02*
X147065514Y-103284296D01*
X147065514Y-103284296D02*
X146970276Y-103236677D01*
X146970276Y-103236677D02*
X146875038Y-103141439D01*
X146875038Y-103141439D02*
X146827419Y-102998582D01*
X146827419Y-102998582D02*
X146827419Y-102903344D01*
X146827419Y-102903344D02*
X146875038Y-102760487D01*
X146875038Y-102760487D02*
X146922657Y-102712868D01*
X164600627Y-73523019D02*
X164933960Y-74523019D01*
X164933960Y-74523019D02*
X165267293Y-73523019D01*
X165600627Y-74523019D02*
X165600627Y-73523019D01*
X165600627Y-73523019D02*
X165838722Y-73523019D01*
X165838722Y-73523019D02*
X165981579Y-73570638D01*
X165981579Y-73570638D02*
X166076817Y-73665876D01*
X166076817Y-73665876D02*
X166124436Y-73761114D01*
X166124436Y-73761114D02*
X166172055Y-73951590D01*
X166172055Y-73951590D02*
X166172055Y-74094447D01*
X166172055Y-74094447D02*
X166124436Y-74284923D01*
X166124436Y-74284923D02*
X166076817Y-74380161D01*
X166076817Y-74380161D02*
X165981579Y-74475400D01*
X165981579Y-74475400D02*
X165838722Y-74523019D01*
X165838722Y-74523019D02*
X165600627Y-74523019D01*
X166600627Y-74523019D02*
X166600627Y-73523019D01*
X166600627Y-73523019D02*
X166838722Y-73523019D01*
X166838722Y-73523019D02*
X166981579Y-73570638D01*
X166981579Y-73570638D02*
X167076817Y-73665876D01*
X167076817Y-73665876D02*
X167124436Y-73761114D01*
X167124436Y-73761114D02*
X167172055Y-73951590D01*
X167172055Y-73951590D02*
X167172055Y-74094447D01*
X167172055Y-74094447D02*
X167124436Y-74284923D01*
X167124436Y-74284923D02*
X167076817Y-74380161D01*
X167076817Y-74380161D02*
X166981579Y-74475400D01*
X166981579Y-74475400D02*
X166838722Y-74523019D01*
X166838722Y-74523019D02*
X166600627Y-74523019D01*
X135949427Y-92725419D02*
X136282760Y-93725419D01*
X136282760Y-93725419D02*
X136616093Y-92725419D01*
X136949427Y-93725419D02*
X136949427Y-92725419D01*
X136949427Y-92725419D02*
X137187522Y-92725419D01*
X137187522Y-92725419D02*
X137330379Y-92773038D01*
X137330379Y-92773038D02*
X137425617Y-92868276D01*
X137425617Y-92868276D02*
X137473236Y-92963514D01*
X137473236Y-92963514D02*
X137520855Y-93153990D01*
X137520855Y-93153990D02*
X137520855Y-93296847D01*
X137520855Y-93296847D02*
X137473236Y-93487323D01*
X137473236Y-93487323D02*
X137425617Y-93582561D01*
X137425617Y-93582561D02*
X137330379Y-93677800D01*
X137330379Y-93677800D02*
X137187522Y-93725419D01*
X137187522Y-93725419D02*
X136949427Y-93725419D01*
X137949427Y-93725419D02*
X137949427Y-92725419D01*
X137949427Y-92725419D02*
X138187522Y-92725419D01*
X138187522Y-92725419D02*
X138330379Y-92773038D01*
X138330379Y-92773038D02*
X138425617Y-92868276D01*
X138425617Y-92868276D02*
X138473236Y-92963514D01*
X138473236Y-92963514D02*
X138520855Y-93153990D01*
X138520855Y-93153990D02*
X138520855Y-93296847D01*
X138520855Y-93296847D02*
X138473236Y-93487323D01*
X138473236Y-93487323D02*
X138425617Y-93582561D01*
X138425617Y-93582561D02*
X138330379Y-93677800D01*
X138330379Y-93677800D02*
X138187522Y-93725419D01*
X138187522Y-93725419D02*
X137949427Y-93725419D01*
X138901808Y-93439704D02*
X139377998Y-93439704D01*
X138806570Y-93725419D02*
X139139903Y-92725419D01*
X139139903Y-92725419D02*
X139473236Y-93725419D01*
X112311474Y-53406219D02*
X111835284Y-53406219D01*
X111835284Y-53406219D02*
X111787665Y-53882409D01*
X111787665Y-53882409D02*
X111835284Y-53834790D01*
X111835284Y-53834790D02*
X111930522Y-53787171D01*
X111930522Y-53787171D02*
X112168617Y-53787171D01*
X112168617Y-53787171D02*
X112263855Y-53834790D01*
X112263855Y-53834790D02*
X112311474Y-53882409D01*
X112311474Y-53882409D02*
X112359093Y-53977647D01*
X112359093Y-53977647D02*
X112359093Y-54215742D01*
X112359093Y-54215742D02*
X112311474Y-54310980D01*
X112311474Y-54310980D02*
X112263855Y-54358600D01*
X112263855Y-54358600D02*
X112168617Y-54406219D01*
X112168617Y-54406219D02*
X111930522Y-54406219D01*
X111930522Y-54406219D02*
X111835284Y-54358600D01*
X111835284Y-54358600D02*
X111787665Y-54310980D01*
X112644808Y-53406219D02*
X112978141Y-54406219D01*
X112978141Y-54406219D02*
X113311474Y-53406219D01*
X97354055Y-80685819D02*
X97163579Y-80685819D01*
X97163579Y-80685819D02*
X97068341Y-80733438D01*
X97068341Y-80733438D02*
X97020722Y-80781057D01*
X97020722Y-80781057D02*
X96925484Y-80923914D01*
X96925484Y-80923914D02*
X96877865Y-81114390D01*
X96877865Y-81114390D02*
X96877865Y-81495342D01*
X96877865Y-81495342D02*
X96925484Y-81590580D01*
X96925484Y-81590580D02*
X96973103Y-81638200D01*
X96973103Y-81638200D02*
X97068341Y-81685819D01*
X97068341Y-81685819D02*
X97258817Y-81685819D01*
X97258817Y-81685819D02*
X97354055Y-81638200D01*
X97354055Y-81638200D02*
X97401674Y-81590580D01*
X97401674Y-81590580D02*
X97449293Y-81495342D01*
X97449293Y-81495342D02*
X97449293Y-81257247D01*
X97449293Y-81257247D02*
X97401674Y-81162009D01*
X97401674Y-81162009D02*
X97354055Y-81114390D01*
X97354055Y-81114390D02*
X97258817Y-81066771D01*
X97258817Y-81066771D02*
X97068341Y-81066771D01*
X97068341Y-81066771D02*
X96973103Y-81114390D01*
X96973103Y-81114390D02*
X96925484Y-81162009D01*
X96925484Y-81162009D02*
X96877865Y-81257247D01*
X97735008Y-80685819D02*
X98068341Y-81685819D01*
X98068341Y-81685819D02*
X98401674Y-80685819D01*
X110555693Y-104152238D02*
X110460455Y-104104619D01*
X110460455Y-104104619D02*
X110317598Y-104104619D01*
X110317598Y-104104619D02*
X110174741Y-104152238D01*
X110174741Y-104152238D02*
X110079503Y-104247476D01*
X110079503Y-104247476D02*
X110031884Y-104342714D01*
X110031884Y-104342714D02*
X109984265Y-104533190D01*
X109984265Y-104533190D02*
X109984265Y-104676047D01*
X109984265Y-104676047D02*
X110031884Y-104866523D01*
X110031884Y-104866523D02*
X110079503Y-104961761D01*
X110079503Y-104961761D02*
X110174741Y-105057000D01*
X110174741Y-105057000D02*
X110317598Y-105104619D01*
X110317598Y-105104619D02*
X110412836Y-105104619D01*
X110412836Y-105104619D02*
X110555693Y-105057000D01*
X110555693Y-105057000D02*
X110603312Y-105009380D01*
X110603312Y-105009380D02*
X110603312Y-104676047D01*
X110603312Y-104676047D02*
X110412836Y-104676047D01*
X111031884Y-105104619D02*
X111031884Y-104104619D01*
X111031884Y-104104619D02*
X111603312Y-105104619D01*
X111603312Y-105104619D02*
X111603312Y-104104619D01*
X112079503Y-105104619D02*
X112079503Y-104104619D01*
X112079503Y-104104619D02*
X112317598Y-104104619D01*
X112317598Y-104104619D02*
X112460455Y-104152238D01*
X112460455Y-104152238D02*
X112555693Y-104247476D01*
X112555693Y-104247476D02*
X112603312Y-104342714D01*
X112603312Y-104342714D02*
X112650931Y-104533190D01*
X112650931Y-104533190D02*
X112650931Y-104676047D01*
X112650931Y-104676047D02*
X112603312Y-104866523D01*
X112603312Y-104866523D02*
X112555693Y-104961761D01*
X112555693Y-104961761D02*
X112460455Y-105057000D01*
X112460455Y-105057000D02*
X112317598Y-105104619D01*
X112317598Y-105104619D02*
X112079503Y-105104619D01*
X108155465Y-99662704D02*
X108631655Y-99662704D01*
X108060227Y-99948419D02*
X108393560Y-98948419D01*
X108393560Y-98948419D02*
X108726893Y-99948419D01*
X109060227Y-99948419D02*
X109060227Y-98948419D01*
X109060227Y-98948419D02*
X109298322Y-98948419D01*
X109298322Y-98948419D02*
X109441179Y-98996038D01*
X109441179Y-98996038D02*
X109536417Y-99091276D01*
X109536417Y-99091276D02*
X109584036Y-99186514D01*
X109584036Y-99186514D02*
X109631655Y-99376990D01*
X109631655Y-99376990D02*
X109631655Y-99519847D01*
X109631655Y-99519847D02*
X109584036Y-99710323D01*
X109584036Y-99710323D02*
X109536417Y-99805561D01*
X109536417Y-99805561D02*
X109441179Y-99900800D01*
X109441179Y-99900800D02*
X109298322Y-99948419D01*
X109298322Y-99948419D02*
X109060227Y-99948419D01*
X110631655Y-99853180D02*
X110584036Y-99900800D01*
X110584036Y-99900800D02*
X110441179Y-99948419D01*
X110441179Y-99948419D02*
X110345941Y-99948419D01*
X110345941Y-99948419D02*
X110203084Y-99900800D01*
X110203084Y-99900800D02*
X110107846Y-99805561D01*
X110107846Y-99805561D02*
X110060227Y-99710323D01*
X110060227Y-99710323D02*
X110012608Y-99519847D01*
X110012608Y-99519847D02*
X110012608Y-99376990D01*
X110012608Y-99376990D02*
X110060227Y-99186514D01*
X110060227Y-99186514D02*
X110107846Y-99091276D01*
X110107846Y-99091276D02*
X110203084Y-98996038D01*
X110203084Y-98996038D02*
X110345941Y-98948419D01*
X110345941Y-98948419D02*
X110441179Y-98948419D01*
X110441179Y-98948419D02*
X110584036Y-98996038D01*
X110584036Y-98996038D02*
X110631655Y-99043657D01*
X110822132Y-100043657D02*
X111584036Y-100043657D01*
X111822132Y-99948419D02*
X111822132Y-98948419D01*
X112298322Y-99948419D02*
X112298322Y-98948419D01*
X112298322Y-98948419D02*
X112869750Y-99948419D01*
X112869750Y-99948419D02*
X112869750Y-98948419D01*
X113869750Y-99948419D02*
X113298322Y-99948419D01*
X113584036Y-99948419D02*
X113584036Y-98948419D01*
X113584036Y-98948419D02*
X113488798Y-99091276D01*
X113488798Y-99091276D02*
X113393560Y-99186514D01*
X113393560Y-99186514D02*
X113298322Y-99234133D01*
X109990627Y-101412219D02*
X110323960Y-102412219D01*
X110323960Y-102412219D02*
X110657293Y-101412219D01*
X110990627Y-102412219D02*
X110990627Y-101412219D01*
X110990627Y-101412219D02*
X111228722Y-101412219D01*
X111228722Y-101412219D02*
X111371579Y-101459838D01*
X111371579Y-101459838D02*
X111466817Y-101555076D01*
X111466817Y-101555076D02*
X111514436Y-101650314D01*
X111514436Y-101650314D02*
X111562055Y-101840790D01*
X111562055Y-101840790D02*
X111562055Y-101983647D01*
X111562055Y-101983647D02*
X111514436Y-102174123D01*
X111514436Y-102174123D02*
X111466817Y-102269361D01*
X111466817Y-102269361D02*
X111371579Y-102364600D01*
X111371579Y-102364600D02*
X111228722Y-102412219D01*
X111228722Y-102412219D02*
X110990627Y-102412219D01*
X111990627Y-102412219D02*
X111990627Y-101412219D01*
X111990627Y-101412219D02*
X112228722Y-101412219D01*
X112228722Y-101412219D02*
X112371579Y-101459838D01*
X112371579Y-101459838D02*
X112466817Y-101555076D01*
X112466817Y-101555076D02*
X112514436Y-101650314D01*
X112514436Y-101650314D02*
X112562055Y-101840790D01*
X112562055Y-101840790D02*
X112562055Y-101983647D01*
X112562055Y-101983647D02*
X112514436Y-102174123D01*
X112514436Y-102174123D02*
X112466817Y-102269361D01*
X112466817Y-102269361D02*
X112371579Y-102364600D01*
X112371579Y-102364600D02*
X112228722Y-102412219D01*
X112228722Y-102412219D02*
X111990627Y-102412219D01*
X112943008Y-102126504D02*
X113419198Y-102126504D01*
X112847770Y-102412219D02*
X113181103Y-101412219D01*
X113181103Y-101412219D02*
X113514436Y-102412219D01*
X164086217Y-95817809D02*
X164229074Y-95865428D01*
X164229074Y-95865428D02*
X164276693Y-95913047D01*
X164276693Y-95913047D02*
X164324312Y-96008285D01*
X164324312Y-96008285D02*
X164324312Y-96151142D01*
X164324312Y-96151142D02*
X164276693Y-96246380D01*
X164276693Y-96246380D02*
X164229074Y-96294000D01*
X164229074Y-96294000D02*
X164133836Y-96341619D01*
X164133836Y-96341619D02*
X163752884Y-96341619D01*
X163752884Y-96341619D02*
X163752884Y-95341619D01*
X163752884Y-95341619D02*
X164086217Y-95341619D01*
X164086217Y-95341619D02*
X164181455Y-95389238D01*
X164181455Y-95389238D02*
X164229074Y-95436857D01*
X164229074Y-95436857D02*
X164276693Y-95532095D01*
X164276693Y-95532095D02*
X164276693Y-95627333D01*
X164276693Y-95627333D02*
X164229074Y-95722571D01*
X164229074Y-95722571D02*
X164181455Y-95770190D01*
X164181455Y-95770190D02*
X164086217Y-95817809D01*
X164086217Y-95817809D02*
X163752884Y-95817809D01*
X164752884Y-95341619D02*
X164752884Y-96151142D01*
X164752884Y-96151142D02*
X164800503Y-96246380D01*
X164800503Y-96246380D02*
X164848122Y-96294000D01*
X164848122Y-96294000D02*
X164943360Y-96341619D01*
X164943360Y-96341619D02*
X165133836Y-96341619D01*
X165133836Y-96341619D02*
X165229074Y-96294000D01*
X165229074Y-96294000D02*
X165276693Y-96246380D01*
X165276693Y-96246380D02*
X165324312Y-96151142D01*
X165324312Y-96151142D02*
X165324312Y-95341619D01*
X165657646Y-95341619D02*
X166229074Y-95341619D01*
X165943360Y-96341619D02*
X165943360Y-95341619D01*
X166419551Y-95341619D02*
X166990979Y-95341619D01*
X166705265Y-96341619D02*
X166705265Y-95341619D01*
X167514789Y-95341619D02*
X167705265Y-95341619D01*
X167705265Y-95341619D02*
X167800503Y-95389238D01*
X167800503Y-95389238D02*
X167895741Y-95484476D01*
X167895741Y-95484476D02*
X167943360Y-95674952D01*
X167943360Y-95674952D02*
X167943360Y-96008285D01*
X167943360Y-96008285D02*
X167895741Y-96198761D01*
X167895741Y-96198761D02*
X167800503Y-96294000D01*
X167800503Y-96294000D02*
X167705265Y-96341619D01*
X167705265Y-96341619D02*
X167514789Y-96341619D01*
X167514789Y-96341619D02*
X167419551Y-96294000D01*
X167419551Y-96294000D02*
X167324313Y-96198761D01*
X167324313Y-96198761D02*
X167276694Y-96008285D01*
X167276694Y-96008285D02*
X167276694Y-95674952D01*
X167276694Y-95674952D02*
X167324313Y-95484476D01*
X167324313Y-95484476D02*
X167419551Y-95389238D01*
X167419551Y-95389238D02*
X167514789Y-95341619D01*
X168371932Y-96341619D02*
X168371932Y-95341619D01*
X168371932Y-95341619D02*
X168943360Y-96341619D01*
X168943360Y-96341619D02*
X168943360Y-95341619D01*
X169419551Y-95960666D02*
X170181456Y-95960666D01*
X169800503Y-96341619D02*
X169800503Y-95579714D01*
X164086217Y-92871409D02*
X164229074Y-92919028D01*
X164229074Y-92919028D02*
X164276693Y-92966647D01*
X164276693Y-92966647D02*
X164324312Y-93061885D01*
X164324312Y-93061885D02*
X164324312Y-93204742D01*
X164324312Y-93204742D02*
X164276693Y-93299980D01*
X164276693Y-93299980D02*
X164229074Y-93347600D01*
X164229074Y-93347600D02*
X164133836Y-93395219D01*
X164133836Y-93395219D02*
X163752884Y-93395219D01*
X163752884Y-93395219D02*
X163752884Y-92395219D01*
X163752884Y-92395219D02*
X164086217Y-92395219D01*
X164086217Y-92395219D02*
X164181455Y-92442838D01*
X164181455Y-92442838D02*
X164229074Y-92490457D01*
X164229074Y-92490457D02*
X164276693Y-92585695D01*
X164276693Y-92585695D02*
X164276693Y-92680933D01*
X164276693Y-92680933D02*
X164229074Y-92776171D01*
X164229074Y-92776171D02*
X164181455Y-92823790D01*
X164181455Y-92823790D02*
X164086217Y-92871409D01*
X164086217Y-92871409D02*
X163752884Y-92871409D01*
X164752884Y-92395219D02*
X164752884Y-93204742D01*
X164752884Y-93204742D02*
X164800503Y-93299980D01*
X164800503Y-93299980D02*
X164848122Y-93347600D01*
X164848122Y-93347600D02*
X164943360Y-93395219D01*
X164943360Y-93395219D02*
X165133836Y-93395219D01*
X165133836Y-93395219D02*
X165229074Y-93347600D01*
X165229074Y-93347600D02*
X165276693Y-93299980D01*
X165276693Y-93299980D02*
X165324312Y-93204742D01*
X165324312Y-93204742D02*
X165324312Y-92395219D01*
X165657646Y-92395219D02*
X166229074Y-92395219D01*
X165943360Y-93395219D02*
X165943360Y-92395219D01*
X166419551Y-92395219D02*
X166990979Y-92395219D01*
X166705265Y-93395219D02*
X166705265Y-92395219D01*
X167514789Y-92395219D02*
X167705265Y-92395219D01*
X167705265Y-92395219D02*
X167800503Y-92442838D01*
X167800503Y-92442838D02*
X167895741Y-92538076D01*
X167895741Y-92538076D02*
X167943360Y-92728552D01*
X167943360Y-92728552D02*
X167943360Y-93061885D01*
X167943360Y-93061885D02*
X167895741Y-93252361D01*
X167895741Y-93252361D02*
X167800503Y-93347600D01*
X167800503Y-93347600D02*
X167705265Y-93395219D01*
X167705265Y-93395219D02*
X167514789Y-93395219D01*
X167514789Y-93395219D02*
X167419551Y-93347600D01*
X167419551Y-93347600D02*
X167324313Y-93252361D01*
X167324313Y-93252361D02*
X167276694Y-93061885D01*
X167276694Y-93061885D02*
X167276694Y-92728552D01*
X167276694Y-92728552D02*
X167324313Y-92538076D01*
X167324313Y-92538076D02*
X167419551Y-92442838D01*
X167419551Y-92442838D02*
X167514789Y-92395219D01*
X168371932Y-93395219D02*
X168371932Y-92395219D01*
X168371932Y-92395219D02*
X168943360Y-93395219D01*
X168943360Y-93395219D02*
X168943360Y-92395219D01*
X169419551Y-93014266D02*
X170181456Y-93014266D01*
X84747561Y-107837893D02*
X84795180Y-107742655D01*
X84795180Y-107742655D02*
X84795180Y-107599798D01*
X84795180Y-107599798D02*
X84747561Y-107456941D01*
X84747561Y-107456941D02*
X84652323Y-107361703D01*
X84652323Y-107361703D02*
X84557085Y-107314084D01*
X84557085Y-107314084D02*
X84366609Y-107266465D01*
X84366609Y-107266465D02*
X84223752Y-107266465D01*
X84223752Y-107266465D02*
X84033276Y-107314084D01*
X84033276Y-107314084D02*
X83938038Y-107361703D01*
X83938038Y-107361703D02*
X83842800Y-107456941D01*
X83842800Y-107456941D02*
X83795180Y-107599798D01*
X83795180Y-107599798D02*
X83795180Y-107695036D01*
X83795180Y-107695036D02*
X83842800Y-107837893D01*
X83842800Y-107837893D02*
X83890419Y-107885512D01*
X83890419Y-107885512D02*
X84223752Y-107885512D01*
X84223752Y-107885512D02*
X84223752Y-107695036D01*
X83795180Y-108314084D02*
X84795180Y-108314084D01*
X84795180Y-108314084D02*
X83795180Y-108885512D01*
X83795180Y-108885512D02*
X84795180Y-108885512D01*
X83795180Y-109361703D02*
X84795180Y-109361703D01*
X84795180Y-109361703D02*
X84795180Y-109599798D01*
X84795180Y-109599798D02*
X84747561Y-109742655D01*
X84747561Y-109742655D02*
X84652323Y-109837893D01*
X84652323Y-109837893D02*
X84557085Y-109885512D01*
X84557085Y-109885512D02*
X84366609Y-109933131D01*
X84366609Y-109933131D02*
X84223752Y-109933131D01*
X84223752Y-109933131D02*
X84033276Y-109885512D01*
X84033276Y-109885512D02*
X83938038Y-109837893D01*
X83938038Y-109837893D02*
X83842800Y-109742655D01*
X83842800Y-109742655D02*
X83795180Y-109599798D01*
X83795180Y-109599798D02*
X83795180Y-109361703D01*
X87036790Y-107339484D02*
X87036790Y-107672817D01*
X86512980Y-107815674D02*
X86512980Y-107339484D01*
X86512980Y-107339484D02*
X87512980Y-107339484D01*
X87512980Y-107339484D02*
X87512980Y-107815674D01*
X86608219Y-108815674D02*
X86560600Y-108768055D01*
X86560600Y-108768055D02*
X86512980Y-108625198D01*
X86512980Y-108625198D02*
X86512980Y-108529960D01*
X86512980Y-108529960D02*
X86560600Y-108387103D01*
X86560600Y-108387103D02*
X86655838Y-108291865D01*
X86655838Y-108291865D02*
X86751076Y-108244246D01*
X86751076Y-108244246D02*
X86941552Y-108196627D01*
X86941552Y-108196627D02*
X87084409Y-108196627D01*
X87084409Y-108196627D02*
X87274885Y-108244246D01*
X87274885Y-108244246D02*
X87370123Y-108291865D01*
X87370123Y-108291865D02*
X87465361Y-108387103D01*
X87465361Y-108387103D02*
X87512980Y-108529960D01*
X87512980Y-108529960D02*
X87512980Y-108625198D01*
X87512980Y-108625198D02*
X87465361Y-108768055D01*
X87465361Y-108768055D02*
X87417742Y-108815674D01*
X86512980Y-109244246D02*
X87512980Y-109244246D01*
X87036790Y-109244246D02*
X87036790Y-109815674D01*
X86512980Y-109815674D02*
X87512980Y-109815674D01*
X87512980Y-110482341D02*
X87512980Y-110672817D01*
X87512980Y-110672817D02*
X87465361Y-110768055D01*
X87465361Y-110768055D02*
X87370123Y-110863293D01*
X87370123Y-110863293D02*
X87179647Y-110910912D01*
X87179647Y-110910912D02*
X86846314Y-110910912D01*
X86846314Y-110910912D02*
X86655838Y-110863293D01*
X86655838Y-110863293D02*
X86560600Y-110768055D01*
X86560600Y-110768055D02*
X86512980Y-110672817D01*
X86512980Y-110672817D02*
X86512980Y-110482341D01*
X86512980Y-110482341D02*
X86560600Y-110387103D01*
X86560600Y-110387103D02*
X86655838Y-110291865D01*
X86655838Y-110291865D02*
X86846314Y-110244246D01*
X86846314Y-110244246D02*
X87179647Y-110244246D01*
X87179647Y-110244246D02*
X87370123Y-110291865D01*
X87370123Y-110291865D02*
X87465361Y-110387103D01*
X87465361Y-110387103D02*
X87512980Y-110482341D01*
X90205380Y-107374427D02*
X90205380Y-107945855D01*
X89205380Y-107660141D02*
X90205380Y-107660141D01*
X89205380Y-108850617D02*
X89681571Y-108517284D01*
X89205380Y-108279189D02*
X90205380Y-108279189D01*
X90205380Y-108279189D02*
X90205380Y-108660141D01*
X90205380Y-108660141D02*
X90157761Y-108755379D01*
X90157761Y-108755379D02*
X90110142Y-108802998D01*
X90110142Y-108802998D02*
X90014904Y-108850617D01*
X90014904Y-108850617D02*
X89872047Y-108850617D01*
X89872047Y-108850617D02*
X89776809Y-108802998D01*
X89776809Y-108802998D02*
X89729190Y-108755379D01*
X89729190Y-108755379D02*
X89681571Y-108660141D01*
X89681571Y-108660141D02*
X89681571Y-108279189D01*
X89205380Y-109279189D02*
X90205380Y-109279189D01*
X90157761Y-110279188D02*
X90205380Y-110183950D01*
X90205380Y-110183950D02*
X90205380Y-110041093D01*
X90205380Y-110041093D02*
X90157761Y-109898236D01*
X90157761Y-109898236D02*
X90062523Y-109802998D01*
X90062523Y-109802998D02*
X89967285Y-109755379D01*
X89967285Y-109755379D02*
X89776809Y-109707760D01*
X89776809Y-109707760D02*
X89633952Y-109707760D01*
X89633952Y-109707760D02*
X89443476Y-109755379D01*
X89443476Y-109755379D02*
X89348238Y-109802998D01*
X89348238Y-109802998D02*
X89253000Y-109898236D01*
X89253000Y-109898236D02*
X89205380Y-110041093D01*
X89205380Y-110041093D02*
X89205380Y-110136331D01*
X89205380Y-110136331D02*
X89253000Y-110279188D01*
X89253000Y-110279188D02*
X89300619Y-110326807D01*
X89300619Y-110326807D02*
X89633952Y-110326807D01*
X89633952Y-110326807D02*
X89633952Y-110136331D01*
X92491380Y-107866474D02*
X92491380Y-107390284D01*
X92491380Y-107390284D02*
X92015190Y-107342665D01*
X92015190Y-107342665D02*
X92062809Y-107390284D01*
X92062809Y-107390284D02*
X92110428Y-107485522D01*
X92110428Y-107485522D02*
X92110428Y-107723617D01*
X92110428Y-107723617D02*
X92062809Y-107818855D01*
X92062809Y-107818855D02*
X92015190Y-107866474D01*
X92015190Y-107866474D02*
X91919952Y-107914093D01*
X91919952Y-107914093D02*
X91681857Y-107914093D01*
X91681857Y-107914093D02*
X91586619Y-107866474D01*
X91586619Y-107866474D02*
X91539000Y-107818855D01*
X91539000Y-107818855D02*
X91491380Y-107723617D01*
X91491380Y-107723617D02*
X91491380Y-107485522D01*
X91491380Y-107485522D02*
X91539000Y-107390284D01*
X91539000Y-107390284D02*
X91586619Y-107342665D01*
X92491380Y-108199808D02*
X91491380Y-108533141D01*
X91491380Y-108533141D02*
X92491380Y-108866474D01*
X164845084Y-50504209D02*
X165178417Y-50504209D01*
X165321274Y-51028019D02*
X164845084Y-51028019D01*
X164845084Y-51028019D02*
X164845084Y-50028019D01*
X164845084Y-50028019D02*
X165321274Y-50028019D01*
X166273655Y-51028019D02*
X165702227Y-51028019D01*
X165987941Y-51028019D02*
X165987941Y-50028019D01*
X165987941Y-50028019D02*
X165892703Y-50170876D01*
X165892703Y-50170876D02*
X165797465Y-50266114D01*
X165797465Y-50266114D02*
X165702227Y-50313733D01*
X164819684Y-47761009D02*
X165153017Y-47761009D01*
X165295874Y-48284819D02*
X164819684Y-48284819D01*
X164819684Y-48284819D02*
X164819684Y-47284819D01*
X164819684Y-47284819D02*
X165295874Y-47284819D01*
X165676827Y-47380057D02*
X165724446Y-47332438D01*
X165724446Y-47332438D02*
X165819684Y-47284819D01*
X165819684Y-47284819D02*
X166057779Y-47284819D01*
X166057779Y-47284819D02*
X166153017Y-47332438D01*
X166153017Y-47332438D02*
X166200636Y-47380057D01*
X166200636Y-47380057D02*
X166248255Y-47475295D01*
X166248255Y-47475295D02*
X166248255Y-47570533D01*
X166248255Y-47570533D02*
X166200636Y-47713390D01*
X166200636Y-47713390D02*
X165629208Y-48284819D01*
X165629208Y-48284819D02*
X166248255Y-48284819D01*
X164565684Y-45719419D02*
X164565684Y-44719419D01*
X164565684Y-44719419D02*
X164803779Y-44719419D01*
X164803779Y-44719419D02*
X164946636Y-44767038D01*
X164946636Y-44767038D02*
X165041874Y-44862276D01*
X165041874Y-44862276D02*
X165089493Y-44957514D01*
X165089493Y-44957514D02*
X165137112Y-45147990D01*
X165137112Y-45147990D02*
X165137112Y-45290847D01*
X165137112Y-45290847D02*
X165089493Y-45481323D01*
X165089493Y-45481323D02*
X165041874Y-45576561D01*
X165041874Y-45576561D02*
X164946636Y-45671800D01*
X164946636Y-45671800D02*
X164803779Y-45719419D01*
X164803779Y-45719419D02*
X164565684Y-45719419D01*
X165899017Y-45195609D02*
X166041874Y-45243228D01*
X166041874Y-45243228D02*
X166089493Y-45290847D01*
X166089493Y-45290847D02*
X166137112Y-45386085D01*
X166137112Y-45386085D02*
X166137112Y-45528942D01*
X166137112Y-45528942D02*
X166089493Y-45624180D01*
X166089493Y-45624180D02*
X166041874Y-45671800D01*
X166041874Y-45671800D02*
X165946636Y-45719419D01*
X165946636Y-45719419D02*
X165565684Y-45719419D01*
X165565684Y-45719419D02*
X165565684Y-44719419D01*
X165565684Y-44719419D02*
X165899017Y-44719419D01*
X165899017Y-44719419D02*
X165994255Y-44767038D01*
X165994255Y-44767038D02*
X166041874Y-44814657D01*
X166041874Y-44814657D02*
X166089493Y-44909895D01*
X166089493Y-44909895D02*
X166089493Y-45005133D01*
X166089493Y-45005133D02*
X166041874Y-45100371D01*
X166041874Y-45100371D02*
X165994255Y-45147990D01*
X165994255Y-45147990D02*
X165899017Y-45195609D01*
X165899017Y-45195609D02*
X165565684Y-45195609D01*
X167089493Y-45719419D02*
X166518065Y-45719419D01*
X166803779Y-45719419D02*
X166803779Y-44719419D01*
X166803779Y-44719419D02*
X166708541Y-44862276D01*
X166708541Y-44862276D02*
X166613303Y-44957514D01*
X166613303Y-44957514D02*
X166518065Y-45005133D01*
X164591084Y-42950819D02*
X164591084Y-41950819D01*
X164591084Y-41950819D02*
X164829179Y-41950819D01*
X164829179Y-41950819D02*
X164972036Y-41998438D01*
X164972036Y-41998438D02*
X165067274Y-42093676D01*
X165067274Y-42093676D02*
X165114893Y-42188914D01*
X165114893Y-42188914D02*
X165162512Y-42379390D01*
X165162512Y-42379390D02*
X165162512Y-42522247D01*
X165162512Y-42522247D02*
X165114893Y-42712723D01*
X165114893Y-42712723D02*
X165067274Y-42807961D01*
X165067274Y-42807961D02*
X164972036Y-42903200D01*
X164972036Y-42903200D02*
X164829179Y-42950819D01*
X164829179Y-42950819D02*
X164591084Y-42950819D01*
X165924417Y-42427009D02*
X166067274Y-42474628D01*
X166067274Y-42474628D02*
X166114893Y-42522247D01*
X166114893Y-42522247D02*
X166162512Y-42617485D01*
X166162512Y-42617485D02*
X166162512Y-42760342D01*
X166162512Y-42760342D02*
X166114893Y-42855580D01*
X166114893Y-42855580D02*
X166067274Y-42903200D01*
X166067274Y-42903200D02*
X165972036Y-42950819D01*
X165972036Y-42950819D02*
X165591084Y-42950819D01*
X165591084Y-42950819D02*
X165591084Y-41950819D01*
X165591084Y-41950819D02*
X165924417Y-41950819D01*
X165924417Y-41950819D02*
X166019655Y-41998438D01*
X166019655Y-41998438D02*
X166067274Y-42046057D01*
X166067274Y-42046057D02*
X166114893Y-42141295D01*
X166114893Y-42141295D02*
X166114893Y-42236533D01*
X166114893Y-42236533D02*
X166067274Y-42331771D01*
X166067274Y-42331771D02*
X166019655Y-42379390D01*
X166019655Y-42379390D02*
X165924417Y-42427009D01*
X165924417Y-42427009D02*
X165591084Y-42427009D01*
X166781560Y-41950819D02*
X166876798Y-41950819D01*
X166876798Y-41950819D02*
X166972036Y-41998438D01*
X166972036Y-41998438D02*
X167019655Y-42046057D01*
X167019655Y-42046057D02*
X167067274Y-42141295D01*
X167067274Y-42141295D02*
X167114893Y-42331771D01*
X167114893Y-42331771D02*
X167114893Y-42569866D01*
X167114893Y-42569866D02*
X167067274Y-42760342D01*
X167067274Y-42760342D02*
X167019655Y-42855580D01*
X167019655Y-42855580D02*
X166972036Y-42903200D01*
X166972036Y-42903200D02*
X166876798Y-42950819D01*
X166876798Y-42950819D02*
X166781560Y-42950819D01*
X166781560Y-42950819D02*
X166686322Y-42903200D01*
X166686322Y-42903200D02*
X166638703Y-42855580D01*
X166638703Y-42855580D02*
X166591084Y-42760342D01*
X166591084Y-42760342D02*
X166543465Y-42569866D01*
X166543465Y-42569866D02*
X166543465Y-42331771D01*
X166543465Y-42331771D02*
X166591084Y-42141295D01*
X166591084Y-42141295D02*
X166638703Y-42046057D01*
X166638703Y-42046057D02*
X166686322Y-41998438D01*
X166686322Y-41998438D02*
X166781560Y-41950819D01*
X165187912Y-40106019D02*
X164854579Y-39629828D01*
X164616484Y-40106019D02*
X164616484Y-39106019D01*
X164616484Y-39106019D02*
X164997436Y-39106019D01*
X164997436Y-39106019D02*
X165092674Y-39153638D01*
X165092674Y-39153638D02*
X165140293Y-39201257D01*
X165140293Y-39201257D02*
X165187912Y-39296495D01*
X165187912Y-39296495D02*
X165187912Y-39439352D01*
X165187912Y-39439352D02*
X165140293Y-39534590D01*
X165140293Y-39534590D02*
X165092674Y-39582209D01*
X165092674Y-39582209D02*
X164997436Y-39629828D01*
X164997436Y-39629828D02*
X164616484Y-39629828D01*
X165568865Y-40058400D02*
X165711722Y-40106019D01*
X165711722Y-40106019D02*
X165949817Y-40106019D01*
X165949817Y-40106019D02*
X166045055Y-40058400D01*
X166045055Y-40058400D02*
X166092674Y-40010780D01*
X166092674Y-40010780D02*
X166140293Y-39915542D01*
X166140293Y-39915542D02*
X166140293Y-39820304D01*
X166140293Y-39820304D02*
X166092674Y-39725066D01*
X166092674Y-39725066D02*
X166045055Y-39677447D01*
X166045055Y-39677447D02*
X165949817Y-39629828D01*
X165949817Y-39629828D02*
X165759341Y-39582209D01*
X165759341Y-39582209D02*
X165664103Y-39534590D01*
X165664103Y-39534590D02*
X165616484Y-39486971D01*
X165616484Y-39486971D02*
X165568865Y-39391733D01*
X165568865Y-39391733D02*
X165568865Y-39296495D01*
X165568865Y-39296495D02*
X165616484Y-39201257D01*
X165616484Y-39201257D02*
X165664103Y-39153638D01*
X165664103Y-39153638D02*
X165759341Y-39106019D01*
X165759341Y-39106019D02*
X165997436Y-39106019D01*
X165997436Y-39106019D02*
X166140293Y-39153638D01*
X117896293Y-51447238D02*
X117801055Y-51399619D01*
X117801055Y-51399619D02*
X117658198Y-51399619D01*
X117658198Y-51399619D02*
X117515341Y-51447238D01*
X117515341Y-51447238D02*
X117420103Y-51542476D01*
X117420103Y-51542476D02*
X117372484Y-51637714D01*
X117372484Y-51637714D02*
X117324865Y-51828190D01*
X117324865Y-51828190D02*
X117324865Y-51971047D01*
X117324865Y-51971047D02*
X117372484Y-52161523D01*
X117372484Y-52161523D02*
X117420103Y-52256761D01*
X117420103Y-52256761D02*
X117515341Y-52352000D01*
X117515341Y-52352000D02*
X117658198Y-52399619D01*
X117658198Y-52399619D02*
X117753436Y-52399619D01*
X117753436Y-52399619D02*
X117896293Y-52352000D01*
X117896293Y-52352000D02*
X117943912Y-52304380D01*
X117943912Y-52304380D02*
X117943912Y-51971047D01*
X117943912Y-51971047D02*
X117753436Y-51971047D01*
X118372484Y-52399619D02*
X118372484Y-51399619D01*
X118372484Y-51399619D02*
X118943912Y-52399619D01*
X118943912Y-52399619D02*
X118943912Y-51399619D01*
X119420103Y-52399619D02*
X119420103Y-51399619D01*
X119420103Y-51399619D02*
X119658198Y-51399619D01*
X119658198Y-51399619D02*
X119801055Y-51447238D01*
X119801055Y-51447238D02*
X119896293Y-51542476D01*
X119896293Y-51542476D02*
X119943912Y-51637714D01*
X119943912Y-51637714D02*
X119991531Y-51828190D01*
X119991531Y-51828190D02*
X119991531Y-51971047D01*
X119991531Y-51971047D02*
X119943912Y-52161523D01*
X119943912Y-52161523D02*
X119896293Y-52256761D01*
X119896293Y-52256761D02*
X119801055Y-52352000D01*
X119801055Y-52352000D02*
X119658198Y-52399619D01*
X119658198Y-52399619D02*
X119420103Y-52399619D01*
X118966274Y-54168219D02*
X118490084Y-54168219D01*
X118490084Y-54168219D02*
X118442465Y-54644409D01*
X118442465Y-54644409D02*
X118490084Y-54596790D01*
X118490084Y-54596790D02*
X118585322Y-54549171D01*
X118585322Y-54549171D02*
X118823417Y-54549171D01*
X118823417Y-54549171D02*
X118918655Y-54596790D01*
X118918655Y-54596790D02*
X118966274Y-54644409D01*
X118966274Y-54644409D02*
X119013893Y-54739647D01*
X119013893Y-54739647D02*
X119013893Y-54977742D01*
X119013893Y-54977742D02*
X118966274Y-55072980D01*
X118966274Y-55072980D02*
X118918655Y-55120600D01*
X118918655Y-55120600D02*
X118823417Y-55168219D01*
X118823417Y-55168219D02*
X118585322Y-55168219D01*
X118585322Y-55168219D02*
X118490084Y-55120600D01*
X118490084Y-55120600D02*
X118442465Y-55072980D01*
X119299608Y-54168219D02*
X119632941Y-55168219D01*
X119632941Y-55168219D02*
X119966274Y-54168219D01*
X117845493Y-48831038D02*
X117750255Y-48783419D01*
X117750255Y-48783419D02*
X117607398Y-48783419D01*
X117607398Y-48783419D02*
X117464541Y-48831038D01*
X117464541Y-48831038D02*
X117369303Y-48926276D01*
X117369303Y-48926276D02*
X117321684Y-49021514D01*
X117321684Y-49021514D02*
X117274065Y-49211990D01*
X117274065Y-49211990D02*
X117274065Y-49354847D01*
X117274065Y-49354847D02*
X117321684Y-49545323D01*
X117321684Y-49545323D02*
X117369303Y-49640561D01*
X117369303Y-49640561D02*
X117464541Y-49735800D01*
X117464541Y-49735800D02*
X117607398Y-49783419D01*
X117607398Y-49783419D02*
X117702636Y-49783419D01*
X117702636Y-49783419D02*
X117845493Y-49735800D01*
X117845493Y-49735800D02*
X117893112Y-49688180D01*
X117893112Y-49688180D02*
X117893112Y-49354847D01*
X117893112Y-49354847D02*
X117702636Y-49354847D01*
X118321684Y-49783419D02*
X118321684Y-48783419D01*
X118321684Y-48783419D02*
X118893112Y-49783419D01*
X118893112Y-49783419D02*
X118893112Y-48783419D01*
X119369303Y-49783419D02*
X119369303Y-48783419D01*
X119369303Y-48783419D02*
X119607398Y-48783419D01*
X119607398Y-48783419D02*
X119750255Y-48831038D01*
X119750255Y-48831038D02*
X119845493Y-48926276D01*
X119845493Y-48926276D02*
X119893112Y-49021514D01*
X119893112Y-49021514D02*
X119940731Y-49211990D01*
X119940731Y-49211990D02*
X119940731Y-49354847D01*
X119940731Y-49354847D02*
X119893112Y-49545323D01*
X119893112Y-49545323D02*
X119845493Y-49640561D01*
X119845493Y-49640561D02*
X119750255Y-49735800D01*
X119750255Y-49735800D02*
X119607398Y-49783419D01*
X119607398Y-49783419D02*
X119369303Y-49783419D01*
X117467674Y-47472019D02*
X116991484Y-47472019D01*
X116991484Y-47472019D02*
X116991484Y-46472019D01*
X117801008Y-46948209D02*
X118134341Y-46948209D01*
X118277198Y-47472019D02*
X117801008Y-47472019D01*
X117801008Y-47472019D02*
X117801008Y-46472019D01*
X117801008Y-46472019D02*
X118277198Y-46472019D01*
X118705770Y-47472019D02*
X118705770Y-46472019D01*
X118705770Y-46472019D02*
X118943865Y-46472019D01*
X118943865Y-46472019D02*
X119086722Y-46519638D01*
X119086722Y-46519638D02*
X119181960Y-46614876D01*
X119181960Y-46614876D02*
X119229579Y-46710114D01*
X119229579Y-46710114D02*
X119277198Y-46900590D01*
X119277198Y-46900590D02*
X119277198Y-47043447D01*
X119277198Y-47043447D02*
X119229579Y-47233923D01*
X119229579Y-47233923D02*
X119181960Y-47329161D01*
X119181960Y-47329161D02*
X119086722Y-47424400D01*
X119086722Y-47424400D02*
X118943865Y-47472019D01*
X118943865Y-47472019D02*
X118705770Y-47472019D01*
X119705770Y-47091066D02*
X120467675Y-47091066D01*
X120086722Y-47472019D02*
X120086722Y-46710114D01*
X118296427Y-43932019D02*
X118629760Y-44932019D01*
X118629760Y-44932019D02*
X118963093Y-43932019D01*
X119486903Y-43932019D02*
X119582141Y-43932019D01*
X119582141Y-43932019D02*
X119677379Y-43979638D01*
X119677379Y-43979638D02*
X119724998Y-44027257D01*
X119724998Y-44027257D02*
X119772617Y-44122495D01*
X119772617Y-44122495D02*
X119820236Y-44312971D01*
X119820236Y-44312971D02*
X119820236Y-44551066D01*
X119820236Y-44551066D02*
X119772617Y-44741542D01*
X119772617Y-44741542D02*
X119724998Y-44836780D01*
X119724998Y-44836780D02*
X119677379Y-44884400D01*
X119677379Y-44884400D02*
X119582141Y-44932019D01*
X119582141Y-44932019D02*
X119486903Y-44932019D01*
X119486903Y-44932019D02*
X119391665Y-44884400D01*
X119391665Y-44884400D02*
X119344046Y-44836780D01*
X119344046Y-44836780D02*
X119296427Y-44741542D01*
X119296427Y-44741542D02*
X119248808Y-44551066D01*
X119248808Y-44551066D02*
X119248808Y-44312971D01*
X119248808Y-44312971D02*
X119296427Y-44122495D01*
X119296427Y-44122495D02*
X119344046Y-44027257D01*
X119344046Y-44027257D02*
X119391665Y-43979638D01*
X119391665Y-43979638D02*
X119486903Y-43932019D01*
X118934512Y-42468219D02*
X118601179Y-41992028D01*
X118363084Y-42468219D02*
X118363084Y-41468219D01*
X118363084Y-41468219D02*
X118744036Y-41468219D01*
X118744036Y-41468219D02*
X118839274Y-41515838D01*
X118839274Y-41515838D02*
X118886893Y-41563457D01*
X118886893Y-41563457D02*
X118934512Y-41658695D01*
X118934512Y-41658695D02*
X118934512Y-41801552D01*
X118934512Y-41801552D02*
X118886893Y-41896790D01*
X118886893Y-41896790D02*
X118839274Y-41944409D01*
X118839274Y-41944409D02*
X118744036Y-41992028D01*
X118744036Y-41992028D02*
X118363084Y-41992028D01*
X119267846Y-41468219D02*
X119505941Y-42468219D01*
X119505941Y-42468219D02*
X119696417Y-41753933D01*
X119696417Y-41753933D02*
X119886893Y-42468219D01*
X119886893Y-42468219D02*
X120124989Y-41468219D01*
X127024484Y-54177619D02*
X127024484Y-53177619D01*
X127024484Y-53177619D02*
X127262579Y-53177619D01*
X127262579Y-53177619D02*
X127405436Y-53225238D01*
X127405436Y-53225238D02*
X127500674Y-53320476D01*
X127500674Y-53320476D02*
X127548293Y-53415714D01*
X127548293Y-53415714D02*
X127595912Y-53606190D01*
X127595912Y-53606190D02*
X127595912Y-53749047D01*
X127595912Y-53749047D02*
X127548293Y-53939523D01*
X127548293Y-53939523D02*
X127500674Y-54034761D01*
X127500674Y-54034761D02*
X127405436Y-54130000D01*
X127405436Y-54130000D02*
X127262579Y-54177619D01*
X127262579Y-54177619D02*
X127024484Y-54177619D01*
X128357817Y-53653809D02*
X128500674Y-53701428D01*
X128500674Y-53701428D02*
X128548293Y-53749047D01*
X128548293Y-53749047D02*
X128595912Y-53844285D01*
X128595912Y-53844285D02*
X128595912Y-53987142D01*
X128595912Y-53987142D02*
X128548293Y-54082380D01*
X128548293Y-54082380D02*
X128500674Y-54130000D01*
X128500674Y-54130000D02*
X128405436Y-54177619D01*
X128405436Y-54177619D02*
X128024484Y-54177619D01*
X128024484Y-54177619D02*
X128024484Y-53177619D01*
X128024484Y-53177619D02*
X128357817Y-53177619D01*
X128357817Y-53177619D02*
X128453055Y-53225238D01*
X128453055Y-53225238D02*
X128500674Y-53272857D01*
X128500674Y-53272857D02*
X128548293Y-53368095D01*
X128548293Y-53368095D02*
X128548293Y-53463333D01*
X128548293Y-53463333D02*
X128500674Y-53558571D01*
X128500674Y-53558571D02*
X128453055Y-53606190D01*
X128453055Y-53606190D02*
X128357817Y-53653809D01*
X128357817Y-53653809D02*
X128024484Y-53653809D01*
X128976865Y-53272857D02*
X129024484Y-53225238D01*
X129024484Y-53225238D02*
X129119722Y-53177619D01*
X129119722Y-53177619D02*
X129357817Y-53177619D01*
X129357817Y-53177619D02*
X129453055Y-53225238D01*
X129453055Y-53225238D02*
X129500674Y-53272857D01*
X129500674Y-53272857D02*
X129548293Y-53368095D01*
X129548293Y-53368095D02*
X129548293Y-53463333D01*
X129548293Y-53463333D02*
X129500674Y-53606190D01*
X129500674Y-53606190D02*
X128929246Y-54177619D01*
X128929246Y-54177619D02*
X129548293Y-54177619D01*
X126872084Y-51383619D02*
X126872084Y-50383619D01*
X126872084Y-50383619D02*
X127110179Y-50383619D01*
X127110179Y-50383619D02*
X127253036Y-50431238D01*
X127253036Y-50431238D02*
X127348274Y-50526476D01*
X127348274Y-50526476D02*
X127395893Y-50621714D01*
X127395893Y-50621714D02*
X127443512Y-50812190D01*
X127443512Y-50812190D02*
X127443512Y-50955047D01*
X127443512Y-50955047D02*
X127395893Y-51145523D01*
X127395893Y-51145523D02*
X127348274Y-51240761D01*
X127348274Y-51240761D02*
X127253036Y-51336000D01*
X127253036Y-51336000D02*
X127110179Y-51383619D01*
X127110179Y-51383619D02*
X126872084Y-51383619D01*
X128205417Y-50859809D02*
X128348274Y-50907428D01*
X128348274Y-50907428D02*
X128395893Y-50955047D01*
X128395893Y-50955047D02*
X128443512Y-51050285D01*
X128443512Y-51050285D02*
X128443512Y-51193142D01*
X128443512Y-51193142D02*
X128395893Y-51288380D01*
X128395893Y-51288380D02*
X128348274Y-51336000D01*
X128348274Y-51336000D02*
X128253036Y-51383619D01*
X128253036Y-51383619D02*
X127872084Y-51383619D01*
X127872084Y-51383619D02*
X127872084Y-50383619D01*
X127872084Y-50383619D02*
X128205417Y-50383619D01*
X128205417Y-50383619D02*
X128300655Y-50431238D01*
X128300655Y-50431238D02*
X128348274Y-50478857D01*
X128348274Y-50478857D02*
X128395893Y-50574095D01*
X128395893Y-50574095D02*
X128395893Y-50669333D01*
X128395893Y-50669333D02*
X128348274Y-50764571D01*
X128348274Y-50764571D02*
X128300655Y-50812190D01*
X128300655Y-50812190D02*
X128205417Y-50859809D01*
X128205417Y-50859809D02*
X127872084Y-50859809D01*
X128776846Y-50383619D02*
X129395893Y-50383619D01*
X129395893Y-50383619D02*
X129062560Y-50764571D01*
X129062560Y-50764571D02*
X129205417Y-50764571D01*
X129205417Y-50764571D02*
X129300655Y-50812190D01*
X129300655Y-50812190D02*
X129348274Y-50859809D01*
X129348274Y-50859809D02*
X129395893Y-50955047D01*
X129395893Y-50955047D02*
X129395893Y-51193142D01*
X129395893Y-51193142D02*
X129348274Y-51288380D01*
X129348274Y-51288380D02*
X129300655Y-51336000D01*
X129300655Y-51336000D02*
X129205417Y-51383619D01*
X129205417Y-51383619D02*
X128919703Y-51383619D01*
X128919703Y-51383619D02*
X128824465Y-51336000D01*
X128824465Y-51336000D02*
X128776846Y-51288380D01*
X126846684Y-48970619D02*
X126846684Y-47970619D01*
X126846684Y-47970619D02*
X127084779Y-47970619D01*
X127084779Y-47970619D02*
X127227636Y-48018238D01*
X127227636Y-48018238D02*
X127322874Y-48113476D01*
X127322874Y-48113476D02*
X127370493Y-48208714D01*
X127370493Y-48208714D02*
X127418112Y-48399190D01*
X127418112Y-48399190D02*
X127418112Y-48542047D01*
X127418112Y-48542047D02*
X127370493Y-48732523D01*
X127370493Y-48732523D02*
X127322874Y-48827761D01*
X127322874Y-48827761D02*
X127227636Y-48923000D01*
X127227636Y-48923000D02*
X127084779Y-48970619D01*
X127084779Y-48970619D02*
X126846684Y-48970619D01*
X128180017Y-48446809D02*
X128322874Y-48494428D01*
X128322874Y-48494428D02*
X128370493Y-48542047D01*
X128370493Y-48542047D02*
X128418112Y-48637285D01*
X128418112Y-48637285D02*
X128418112Y-48780142D01*
X128418112Y-48780142D02*
X128370493Y-48875380D01*
X128370493Y-48875380D02*
X128322874Y-48923000D01*
X128322874Y-48923000D02*
X128227636Y-48970619D01*
X128227636Y-48970619D02*
X127846684Y-48970619D01*
X127846684Y-48970619D02*
X127846684Y-47970619D01*
X127846684Y-47970619D02*
X128180017Y-47970619D01*
X128180017Y-47970619D02*
X128275255Y-48018238D01*
X128275255Y-48018238D02*
X128322874Y-48065857D01*
X128322874Y-48065857D02*
X128370493Y-48161095D01*
X128370493Y-48161095D02*
X128370493Y-48256333D01*
X128370493Y-48256333D02*
X128322874Y-48351571D01*
X128322874Y-48351571D02*
X128275255Y-48399190D01*
X128275255Y-48399190D02*
X128180017Y-48446809D01*
X128180017Y-48446809D02*
X127846684Y-48446809D01*
X129275255Y-48303952D02*
X129275255Y-48970619D01*
X129037160Y-47923000D02*
X128799065Y-48637285D01*
X128799065Y-48637285D02*
X129418112Y-48637285D01*
X126872084Y-46405219D02*
X126872084Y-45405219D01*
X126872084Y-45405219D02*
X127110179Y-45405219D01*
X127110179Y-45405219D02*
X127253036Y-45452838D01*
X127253036Y-45452838D02*
X127348274Y-45548076D01*
X127348274Y-45548076D02*
X127395893Y-45643314D01*
X127395893Y-45643314D02*
X127443512Y-45833790D01*
X127443512Y-45833790D02*
X127443512Y-45976647D01*
X127443512Y-45976647D02*
X127395893Y-46167123D01*
X127395893Y-46167123D02*
X127348274Y-46262361D01*
X127348274Y-46262361D02*
X127253036Y-46357600D01*
X127253036Y-46357600D02*
X127110179Y-46405219D01*
X127110179Y-46405219D02*
X126872084Y-46405219D01*
X128205417Y-45881409D02*
X128348274Y-45929028D01*
X128348274Y-45929028D02*
X128395893Y-45976647D01*
X128395893Y-45976647D02*
X128443512Y-46071885D01*
X128443512Y-46071885D02*
X128443512Y-46214742D01*
X128443512Y-46214742D02*
X128395893Y-46309980D01*
X128395893Y-46309980D02*
X128348274Y-46357600D01*
X128348274Y-46357600D02*
X128253036Y-46405219D01*
X128253036Y-46405219D02*
X127872084Y-46405219D01*
X127872084Y-46405219D02*
X127872084Y-45405219D01*
X127872084Y-45405219D02*
X128205417Y-45405219D01*
X128205417Y-45405219D02*
X128300655Y-45452838D01*
X128300655Y-45452838D02*
X128348274Y-45500457D01*
X128348274Y-45500457D02*
X128395893Y-45595695D01*
X128395893Y-45595695D02*
X128395893Y-45690933D01*
X128395893Y-45690933D02*
X128348274Y-45786171D01*
X128348274Y-45786171D02*
X128300655Y-45833790D01*
X128300655Y-45833790D02*
X128205417Y-45881409D01*
X128205417Y-45881409D02*
X127872084Y-45881409D01*
X129348274Y-45405219D02*
X128872084Y-45405219D01*
X128872084Y-45405219D02*
X128824465Y-45881409D01*
X128824465Y-45881409D02*
X128872084Y-45833790D01*
X128872084Y-45833790D02*
X128967322Y-45786171D01*
X128967322Y-45786171D02*
X129205417Y-45786171D01*
X129205417Y-45786171D02*
X129300655Y-45833790D01*
X129300655Y-45833790D02*
X129348274Y-45881409D01*
X129348274Y-45881409D02*
X129395893Y-45976647D01*
X129395893Y-45976647D02*
X129395893Y-46214742D01*
X129395893Y-46214742D02*
X129348274Y-46309980D01*
X129348274Y-46309980D02*
X129300655Y-46357600D01*
X129300655Y-46357600D02*
X129205417Y-46405219D01*
X129205417Y-46405219D02*
X128967322Y-46405219D01*
X128967322Y-46405219D02*
X128872084Y-46357600D01*
X128872084Y-46357600D02*
X128824465Y-46309980D01*
X126922884Y-43992219D02*
X126922884Y-42992219D01*
X126922884Y-42992219D02*
X127160979Y-42992219D01*
X127160979Y-42992219D02*
X127303836Y-43039838D01*
X127303836Y-43039838D02*
X127399074Y-43135076D01*
X127399074Y-43135076D02*
X127446693Y-43230314D01*
X127446693Y-43230314D02*
X127494312Y-43420790D01*
X127494312Y-43420790D02*
X127494312Y-43563647D01*
X127494312Y-43563647D02*
X127446693Y-43754123D01*
X127446693Y-43754123D02*
X127399074Y-43849361D01*
X127399074Y-43849361D02*
X127303836Y-43944600D01*
X127303836Y-43944600D02*
X127160979Y-43992219D01*
X127160979Y-43992219D02*
X126922884Y-43992219D01*
X128256217Y-43468409D02*
X128399074Y-43516028D01*
X128399074Y-43516028D02*
X128446693Y-43563647D01*
X128446693Y-43563647D02*
X128494312Y-43658885D01*
X128494312Y-43658885D02*
X128494312Y-43801742D01*
X128494312Y-43801742D02*
X128446693Y-43896980D01*
X128446693Y-43896980D02*
X128399074Y-43944600D01*
X128399074Y-43944600D02*
X128303836Y-43992219D01*
X128303836Y-43992219D02*
X127922884Y-43992219D01*
X127922884Y-43992219D02*
X127922884Y-42992219D01*
X127922884Y-42992219D02*
X128256217Y-42992219D01*
X128256217Y-42992219D02*
X128351455Y-43039838D01*
X128351455Y-43039838D02*
X128399074Y-43087457D01*
X128399074Y-43087457D02*
X128446693Y-43182695D01*
X128446693Y-43182695D02*
X128446693Y-43277933D01*
X128446693Y-43277933D02*
X128399074Y-43373171D01*
X128399074Y-43373171D02*
X128351455Y-43420790D01*
X128351455Y-43420790D02*
X128256217Y-43468409D01*
X128256217Y-43468409D02*
X127922884Y-43468409D01*
X129351455Y-42992219D02*
X129160979Y-42992219D01*
X129160979Y-42992219D02*
X129065741Y-43039838D01*
X129065741Y-43039838D02*
X129018122Y-43087457D01*
X129018122Y-43087457D02*
X128922884Y-43230314D01*
X128922884Y-43230314D02*
X128875265Y-43420790D01*
X128875265Y-43420790D02*
X128875265Y-43801742D01*
X128875265Y-43801742D02*
X128922884Y-43896980D01*
X128922884Y-43896980D02*
X128970503Y-43944600D01*
X128970503Y-43944600D02*
X129065741Y-43992219D01*
X129065741Y-43992219D02*
X129256217Y-43992219D01*
X129256217Y-43992219D02*
X129351455Y-43944600D01*
X129351455Y-43944600D02*
X129399074Y-43896980D01*
X129399074Y-43896980D02*
X129446693Y-43801742D01*
X129446693Y-43801742D02*
X129446693Y-43563647D01*
X129446693Y-43563647D02*
X129399074Y-43468409D01*
X129399074Y-43468409D02*
X129351455Y-43420790D01*
X129351455Y-43420790D02*
X129256217Y-43373171D01*
X129256217Y-43373171D02*
X129065741Y-43373171D01*
X129065741Y-43373171D02*
X128970503Y-43420790D01*
X128970503Y-43420790D02*
X128922884Y-43468409D01*
X128922884Y-43468409D02*
X128875265Y-43563647D01*
X126846684Y-41325219D02*
X126846684Y-40325219D01*
X126846684Y-40325219D02*
X127084779Y-40325219D01*
X127084779Y-40325219D02*
X127227636Y-40372838D01*
X127227636Y-40372838D02*
X127322874Y-40468076D01*
X127322874Y-40468076D02*
X127370493Y-40563314D01*
X127370493Y-40563314D02*
X127418112Y-40753790D01*
X127418112Y-40753790D02*
X127418112Y-40896647D01*
X127418112Y-40896647D02*
X127370493Y-41087123D01*
X127370493Y-41087123D02*
X127322874Y-41182361D01*
X127322874Y-41182361D02*
X127227636Y-41277600D01*
X127227636Y-41277600D02*
X127084779Y-41325219D01*
X127084779Y-41325219D02*
X126846684Y-41325219D01*
X128180017Y-40801409D02*
X128322874Y-40849028D01*
X128322874Y-40849028D02*
X128370493Y-40896647D01*
X128370493Y-40896647D02*
X128418112Y-40991885D01*
X128418112Y-40991885D02*
X128418112Y-41134742D01*
X128418112Y-41134742D02*
X128370493Y-41229980D01*
X128370493Y-41229980D02*
X128322874Y-41277600D01*
X128322874Y-41277600D02*
X128227636Y-41325219D01*
X128227636Y-41325219D02*
X127846684Y-41325219D01*
X127846684Y-41325219D02*
X127846684Y-40325219D01*
X127846684Y-40325219D02*
X128180017Y-40325219D01*
X128180017Y-40325219D02*
X128275255Y-40372838D01*
X128275255Y-40372838D02*
X128322874Y-40420457D01*
X128322874Y-40420457D02*
X128370493Y-40515695D01*
X128370493Y-40515695D02*
X128370493Y-40610933D01*
X128370493Y-40610933D02*
X128322874Y-40706171D01*
X128322874Y-40706171D02*
X128275255Y-40753790D01*
X128275255Y-40753790D02*
X128180017Y-40801409D01*
X128180017Y-40801409D02*
X127846684Y-40801409D01*
X128751446Y-40325219D02*
X129418112Y-40325219D01*
X129418112Y-40325219D02*
X128989541Y-41325219D01*
D11*
X136396619Y-96616094D02*
X135396619Y-96616094D01*
X135396619Y-96616094D02*
X135396619Y-96377999D01*
X135396619Y-96377999D02*
X135444238Y-96235142D01*
X135444238Y-96235142D02*
X135539476Y-96139904D01*
X135539476Y-96139904D02*
X135634714Y-96092285D01*
X135634714Y-96092285D02*
X135825190Y-96044666D01*
X135825190Y-96044666D02*
X135968047Y-96044666D01*
X135968047Y-96044666D02*
X136158523Y-96092285D01*
X136158523Y-96092285D02*
X136253761Y-96139904D01*
X136253761Y-96139904D02*
X136349000Y-96235142D01*
X136349000Y-96235142D02*
X136396619Y-96377999D01*
X136396619Y-96377999D02*
X136396619Y-96616094D01*
X135396619Y-95187523D02*
X135396619Y-95377999D01*
X135396619Y-95377999D02*
X135444238Y-95473237D01*
X135444238Y-95473237D02*
X135491857Y-95520856D01*
X135491857Y-95520856D02*
X135634714Y-95616094D01*
X135634714Y-95616094D02*
X135825190Y-95663713D01*
X135825190Y-95663713D02*
X136206142Y-95663713D01*
X136206142Y-95663713D02*
X136301380Y-95616094D01*
X136301380Y-95616094D02*
X136349000Y-95568475D01*
X136349000Y-95568475D02*
X136396619Y-95473237D01*
X136396619Y-95473237D02*
X136396619Y-95282761D01*
X136396619Y-95282761D02*
X136349000Y-95187523D01*
X136349000Y-95187523D02*
X136301380Y-95139904D01*
X136301380Y-95139904D02*
X136206142Y-95092285D01*
X136206142Y-95092285D02*
X135968047Y-95092285D01*
X135968047Y-95092285D02*
X135872809Y-95139904D01*
X135872809Y-95139904D02*
X135825190Y-95187523D01*
X135825190Y-95187523D02*
X135777571Y-95282761D01*
X135777571Y-95282761D02*
X135777571Y-95473237D01*
X135777571Y-95473237D02*
X135825190Y-95568475D01*
X135825190Y-95568475D02*
X135872809Y-95616094D01*
X135872809Y-95616094D02*
X135968047Y-95663713D01*
X141958219Y-96035666D02*
X141482028Y-96368999D01*
X141958219Y-96607094D02*
X140958219Y-96607094D01*
X140958219Y-96607094D02*
X140958219Y-96226142D01*
X140958219Y-96226142D02*
X141005838Y-96130904D01*
X141005838Y-96130904D02*
X141053457Y-96083285D01*
X141053457Y-96083285D02*
X141148695Y-96035666D01*
X141148695Y-96035666D02*
X141291552Y-96035666D01*
X141291552Y-96035666D02*
X141386790Y-96083285D01*
X141386790Y-96083285D02*
X141434409Y-96130904D01*
X141434409Y-96130904D02*
X141482028Y-96226142D01*
X141482028Y-96226142D02*
X141482028Y-96607094D01*
X141386790Y-95464237D02*
X141339171Y-95559475D01*
X141339171Y-95559475D02*
X141291552Y-95607094D01*
X141291552Y-95607094D02*
X141196314Y-95654713D01*
X141196314Y-95654713D02*
X141148695Y-95654713D01*
X141148695Y-95654713D02*
X141053457Y-95607094D01*
X141053457Y-95607094D02*
X141005838Y-95559475D01*
X141005838Y-95559475D02*
X140958219Y-95464237D01*
X140958219Y-95464237D02*
X140958219Y-95273761D01*
X140958219Y-95273761D02*
X141005838Y-95178523D01*
X141005838Y-95178523D02*
X141053457Y-95130904D01*
X141053457Y-95130904D02*
X141148695Y-95083285D01*
X141148695Y-95083285D02*
X141196314Y-95083285D01*
X141196314Y-95083285D02*
X141291552Y-95130904D01*
X141291552Y-95130904D02*
X141339171Y-95178523D01*
X141339171Y-95178523D02*
X141386790Y-95273761D01*
X141386790Y-95273761D02*
X141386790Y-95464237D01*
X141386790Y-95464237D02*
X141434409Y-95559475D01*
X141434409Y-95559475D02*
X141482028Y-95607094D01*
X141482028Y-95607094D02*
X141577266Y-95654713D01*
X141577266Y-95654713D02*
X141767742Y-95654713D01*
X141767742Y-95654713D02*
X141862980Y-95607094D01*
X141862980Y-95607094D02*
X141910600Y-95559475D01*
X141910600Y-95559475D02*
X141958219Y-95464237D01*
X141958219Y-95464237D02*
X141958219Y-95273761D01*
X141958219Y-95273761D02*
X141910600Y-95178523D01*
X141910600Y-95178523D02*
X141862980Y-95130904D01*
X141862980Y-95130904D02*
X141767742Y-95083285D01*
X141767742Y-95083285D02*
X141577266Y-95083285D01*
X141577266Y-95083285D02*
X141482028Y-95130904D01*
X141482028Y-95130904D02*
X141434409Y-95178523D01*
X141434409Y-95178523D02*
X141386790Y-95273761D01*
X93809019Y-99285323D02*
X94523304Y-99285323D01*
X94523304Y-99285323D02*
X94666161Y-99332942D01*
X94666161Y-99332942D02*
X94761400Y-99428180D01*
X94761400Y-99428180D02*
X94809019Y-99571037D01*
X94809019Y-99571037D02*
X94809019Y-99666275D01*
X93904257Y-98856751D02*
X93856638Y-98809132D01*
X93856638Y-98809132D02*
X93809019Y-98713894D01*
X93809019Y-98713894D02*
X93809019Y-98475799D01*
X93809019Y-98475799D02*
X93856638Y-98380561D01*
X93856638Y-98380561D02*
X93904257Y-98332942D01*
X93904257Y-98332942D02*
X93999495Y-98285323D01*
X93999495Y-98285323D02*
X94094733Y-98285323D01*
X94094733Y-98285323D02*
X94237590Y-98332942D01*
X94237590Y-98332942D02*
X94809019Y-98904370D01*
X94809019Y-98904370D02*
X94809019Y-98285323D01*
X94809019Y-97332942D02*
X94809019Y-97904370D01*
X94809019Y-97618656D02*
X93809019Y-97618656D01*
X93809019Y-97618656D02*
X93951876Y-97713894D01*
X93951876Y-97713894D02*
X94047114Y-97809132D01*
X94047114Y-97809132D02*
X94094733Y-97904370D01*
X69926295Y-110097619D02*
X69926295Y-109097619D01*
X69926295Y-109573809D02*
X70497723Y-109573809D01*
X70497723Y-110097619D02*
X70497723Y-109097619D01*
X71402485Y-109430952D02*
X71402485Y-110097619D01*
X71164390Y-109050000D02*
X70926295Y-109764285D01*
X70926295Y-109764285D02*
X71545342Y-109764285D01*
X159969295Y-28970019D02*
X159969295Y-27970019D01*
X159969295Y-28446209D02*
X160540723Y-28446209D01*
X160540723Y-28970019D02*
X160540723Y-27970019D01*
X160921676Y-27970019D02*
X161540723Y-27970019D01*
X161540723Y-27970019D02*
X161207390Y-28350971D01*
X161207390Y-28350971D02*
X161350247Y-28350971D01*
X161350247Y-28350971D02*
X161445485Y-28398590D01*
X161445485Y-28398590D02*
X161493104Y-28446209D01*
X161493104Y-28446209D02*
X161540723Y-28541447D01*
X161540723Y-28541447D02*
X161540723Y-28779542D01*
X161540723Y-28779542D02*
X161493104Y-28874780D01*
X161493104Y-28874780D02*
X161445485Y-28922400D01*
X161445485Y-28922400D02*
X161350247Y-28970019D01*
X161350247Y-28970019D02*
X161064533Y-28970019D01*
X161064533Y-28970019D02*
X160969295Y-28922400D01*
X160969295Y-28922400D02*
X160921676Y-28874780D01*
X69926295Y-28970019D02*
X69926295Y-27970019D01*
X69926295Y-28446209D02*
X70497723Y-28446209D01*
X70497723Y-28970019D02*
X70497723Y-27970019D01*
X70926295Y-28065257D02*
X70973914Y-28017638D01*
X70973914Y-28017638D02*
X71069152Y-27970019D01*
X71069152Y-27970019D02*
X71307247Y-27970019D01*
X71307247Y-27970019D02*
X71402485Y-28017638D01*
X71402485Y-28017638D02*
X71450104Y-28065257D01*
X71450104Y-28065257D02*
X71497723Y-28160495D01*
X71497723Y-28160495D02*
X71497723Y-28255733D01*
X71497723Y-28255733D02*
X71450104Y-28398590D01*
X71450104Y-28398590D02*
X70878676Y-28970019D01*
X70878676Y-28970019D02*
X71497723Y-28970019D01*
X159969295Y-110097619D02*
X159969295Y-109097619D01*
X159969295Y-109573809D02*
X160540723Y-109573809D01*
X160540723Y-110097619D02*
X160540723Y-109097619D01*
X161540723Y-110097619D02*
X160969295Y-110097619D01*
X161255009Y-110097619D02*
X161255009Y-109097619D01*
X161255009Y-109097619D02*
X161159771Y-109240476D01*
X161159771Y-109240476D02*
X161064533Y-109335714D01*
X161064533Y-109335714D02*
X160969295Y-109383333D01*
X151668219Y-101139523D02*
X152382504Y-101139523D01*
X152382504Y-101139523D02*
X152525361Y-101187142D01*
X152525361Y-101187142D02*
X152620600Y-101282380D01*
X152620600Y-101282380D02*
X152668219Y-101425237D01*
X152668219Y-101425237D02*
X152668219Y-101520475D01*
X152668219Y-100139523D02*
X152668219Y-100710951D01*
X152668219Y-100425237D02*
X151668219Y-100425237D01*
X151668219Y-100425237D02*
X151811076Y-100520475D01*
X151811076Y-100520475D02*
X151906314Y-100615713D01*
X151906314Y-100615713D02*
X151953933Y-100710951D01*
X152096790Y-99568094D02*
X152049171Y-99663332D01*
X152049171Y-99663332D02*
X152001552Y-99710951D01*
X152001552Y-99710951D02*
X151906314Y-99758570D01*
X151906314Y-99758570D02*
X151858695Y-99758570D01*
X151858695Y-99758570D02*
X151763457Y-99710951D01*
X151763457Y-99710951D02*
X151715838Y-99663332D01*
X151715838Y-99663332D02*
X151668219Y-99568094D01*
X151668219Y-99568094D02*
X151668219Y-99377618D01*
X151668219Y-99377618D02*
X151715838Y-99282380D01*
X151715838Y-99282380D02*
X151763457Y-99234761D01*
X151763457Y-99234761D02*
X151858695Y-99187142D01*
X151858695Y-99187142D02*
X151906314Y-99187142D01*
X151906314Y-99187142D02*
X152001552Y-99234761D01*
X152001552Y-99234761D02*
X152049171Y-99282380D01*
X152049171Y-99282380D02*
X152096790Y-99377618D01*
X152096790Y-99377618D02*
X152096790Y-99568094D01*
X152096790Y-99568094D02*
X152144409Y-99663332D01*
X152144409Y-99663332D02*
X152192028Y-99710951D01*
X152192028Y-99710951D02*
X152287266Y-99758570D01*
X152287266Y-99758570D02*
X152477742Y-99758570D01*
X152477742Y-99758570D02*
X152572980Y-99710951D01*
X152572980Y-99710951D02*
X152620600Y-99663332D01*
X152620600Y-99663332D02*
X152668219Y-99568094D01*
X152668219Y-99568094D02*
X152668219Y-99377618D01*
X152668219Y-99377618D02*
X152620600Y-99282380D01*
X152620600Y-99282380D02*
X152572980Y-99234761D01*
X152572980Y-99234761D02*
X152477742Y-99187142D01*
X152477742Y-99187142D02*
X152287266Y-99187142D01*
X152287266Y-99187142D02*
X152192028Y-99234761D01*
X152192028Y-99234761D02*
X152144409Y-99282380D01*
X152144409Y-99282380D02*
X152096790Y-99377618D01*
X153143543Y-68508019D02*
X153143543Y-67508019D01*
X153143543Y-67508019D02*
X153714971Y-68508019D01*
X153714971Y-68508019D02*
X153714971Y-67508019D01*
X154762590Y-68508019D02*
X154429257Y-68031828D01*
X154191162Y-68508019D02*
X154191162Y-67508019D01*
X154191162Y-67508019D02*
X154572114Y-67508019D01*
X154572114Y-67508019D02*
X154667352Y-67555638D01*
X154667352Y-67555638D02*
X154714971Y-67603257D01*
X154714971Y-67603257D02*
X154762590Y-67698495D01*
X154762590Y-67698495D02*
X154762590Y-67841352D01*
X154762590Y-67841352D02*
X154714971Y-67936590D01*
X154714971Y-67936590D02*
X154667352Y-67984209D01*
X154667352Y-67984209D02*
X154572114Y-68031828D01*
X154572114Y-68031828D02*
X154191162Y-68031828D01*
X155143543Y-68460400D02*
X155286400Y-68508019D01*
X155286400Y-68508019D02*
X155524495Y-68508019D01*
X155524495Y-68508019D02*
X155619733Y-68460400D01*
X155619733Y-68460400D02*
X155667352Y-68412780D01*
X155667352Y-68412780D02*
X155714971Y-68317542D01*
X155714971Y-68317542D02*
X155714971Y-68222304D01*
X155714971Y-68222304D02*
X155667352Y-68127066D01*
X155667352Y-68127066D02*
X155619733Y-68079447D01*
X155619733Y-68079447D02*
X155524495Y-68031828D01*
X155524495Y-68031828D02*
X155334019Y-67984209D01*
X155334019Y-67984209D02*
X155238781Y-67936590D01*
X155238781Y-67936590D02*
X155191162Y-67888971D01*
X155191162Y-67888971D02*
X155143543Y-67793733D01*
X155143543Y-67793733D02*
X155143543Y-67698495D01*
X155143543Y-67698495D02*
X155191162Y-67603257D01*
X155191162Y-67603257D02*
X155238781Y-67555638D01*
X155238781Y-67555638D02*
X155334019Y-67508019D01*
X155334019Y-67508019D02*
X155572114Y-67508019D01*
X155572114Y-67508019D02*
X155714971Y-67555638D01*
X156000686Y-67508019D02*
X156572114Y-67508019D01*
X156286400Y-68508019D02*
X156286400Y-67508019D01*
X161771219Y-75033094D02*
X160771219Y-75033094D01*
X160771219Y-75033094D02*
X160771219Y-74794999D01*
X160771219Y-74794999D02*
X160818838Y-74652142D01*
X160818838Y-74652142D02*
X160914076Y-74556904D01*
X160914076Y-74556904D02*
X161009314Y-74509285D01*
X161009314Y-74509285D02*
X161199790Y-74461666D01*
X161199790Y-74461666D02*
X161342647Y-74461666D01*
X161342647Y-74461666D02*
X161533123Y-74509285D01*
X161533123Y-74509285D02*
X161628361Y-74556904D01*
X161628361Y-74556904D02*
X161723600Y-74652142D01*
X161723600Y-74652142D02*
X161771219Y-74794999D01*
X161771219Y-74794999D02*
X161771219Y-75033094D01*
X161771219Y-73985475D02*
X161771219Y-73794999D01*
X161771219Y-73794999D02*
X161723600Y-73699761D01*
X161723600Y-73699761D02*
X161675980Y-73652142D01*
X161675980Y-73652142D02*
X161533123Y-73556904D01*
X161533123Y-73556904D02*
X161342647Y-73509285D01*
X161342647Y-73509285D02*
X160961695Y-73509285D01*
X160961695Y-73509285D02*
X160866457Y-73556904D01*
X160866457Y-73556904D02*
X160818838Y-73604523D01*
X160818838Y-73604523D02*
X160771219Y-73699761D01*
X160771219Y-73699761D02*
X160771219Y-73890237D01*
X160771219Y-73890237D02*
X160818838Y-73985475D01*
X160818838Y-73985475D02*
X160866457Y-74033094D01*
X160866457Y-74033094D02*
X160961695Y-74080713D01*
X160961695Y-74080713D02*
X161199790Y-74080713D01*
X161199790Y-74080713D02*
X161295028Y-74033094D01*
X161295028Y-74033094D02*
X161342647Y-73985475D01*
X161342647Y-73985475D02*
X161390266Y-73890237D01*
X161390266Y-73890237D02*
X161390266Y-73699761D01*
X161390266Y-73699761D02*
X161342647Y-73604523D01*
X161342647Y-73604523D02*
X161295028Y-73556904D01*
X161295028Y-73556904D02*
X161199790Y-73509285D01*
X79670219Y-45951733D02*
X80384504Y-45951733D01*
X80384504Y-45951733D02*
X80527361Y-45999352D01*
X80527361Y-45999352D02*
X80622600Y-46094590D01*
X80622600Y-46094590D02*
X80670219Y-46237447D01*
X80670219Y-46237447D02*
X80670219Y-46332685D01*
X80003552Y-45046971D02*
X80670219Y-45046971D01*
X79622600Y-45285066D02*
X80336885Y-45523161D01*
X80336885Y-45523161D02*
X80336885Y-44904114D01*
X139607166Y-100518609D02*
X139273833Y-100518609D01*
X139273833Y-101042419D02*
X139273833Y-100042419D01*
X139273833Y-100042419D02*
X139750023Y-100042419D01*
X140464309Y-100518609D02*
X140607166Y-100566228D01*
X140607166Y-100566228D02*
X140654785Y-100613847D01*
X140654785Y-100613847D02*
X140702404Y-100709085D01*
X140702404Y-100709085D02*
X140702404Y-100851942D01*
X140702404Y-100851942D02*
X140654785Y-100947180D01*
X140654785Y-100947180D02*
X140607166Y-100994800D01*
X140607166Y-100994800D02*
X140511928Y-101042419D01*
X140511928Y-101042419D02*
X140130976Y-101042419D01*
X140130976Y-101042419D02*
X140130976Y-100042419D01*
X140130976Y-100042419D02*
X140464309Y-100042419D01*
X140464309Y-100042419D02*
X140559547Y-100090038D01*
X140559547Y-100090038D02*
X140607166Y-100137657D01*
X140607166Y-100137657D02*
X140654785Y-100232895D01*
X140654785Y-100232895D02*
X140654785Y-100328133D01*
X140654785Y-100328133D02*
X140607166Y-100423371D01*
X140607166Y-100423371D02*
X140559547Y-100470990D01*
X140559547Y-100470990D02*
X140464309Y-100518609D01*
X140464309Y-100518609D02*
X140130976Y-100518609D01*
X141654785Y-101042419D02*
X141083357Y-101042419D01*
X141369071Y-101042419D02*
X141369071Y-100042419D01*
X141369071Y-100042419D02*
X141273833Y-100185276D01*
X141273833Y-100185276D02*
X141178595Y-100280514D01*
X141178595Y-100280514D02*
X141083357Y-100328133D01*
X107753619Y-105787723D02*
X108467904Y-105787723D01*
X108467904Y-105787723D02*
X108610761Y-105835342D01*
X108610761Y-105835342D02*
X108706000Y-105930580D01*
X108706000Y-105930580D02*
X108753619Y-106073437D01*
X108753619Y-106073437D02*
X108753619Y-106168675D01*
X107848857Y-105359151D02*
X107801238Y-105311532D01*
X107801238Y-105311532D02*
X107753619Y-105216294D01*
X107753619Y-105216294D02*
X107753619Y-104978199D01*
X107753619Y-104978199D02*
X107801238Y-104882961D01*
X107801238Y-104882961D02*
X107848857Y-104835342D01*
X107848857Y-104835342D02*
X107944095Y-104787723D01*
X107944095Y-104787723D02*
X108039333Y-104787723D01*
X108039333Y-104787723D02*
X108182190Y-104835342D01*
X108182190Y-104835342D02*
X108753619Y-105406770D01*
X108753619Y-105406770D02*
X108753619Y-104787723D01*
X107753619Y-104454389D02*
X107753619Y-103787723D01*
X107753619Y-103787723D02*
X108753619Y-104216294D01*
X150774304Y-48754380D02*
X150774304Y-47944857D01*
X150774304Y-47944857D02*
X150726685Y-47849619D01*
X150726685Y-47849619D02*
X150679066Y-47802000D01*
X150679066Y-47802000D02*
X150583828Y-47754380D01*
X150583828Y-47754380D02*
X150393352Y-47754380D01*
X150393352Y-47754380D02*
X150298114Y-47802000D01*
X150298114Y-47802000D02*
X150250495Y-47849619D01*
X150250495Y-47849619D02*
X150202876Y-47944857D01*
X150202876Y-47944857D02*
X150202876Y-48754380D01*
X149298114Y-48754380D02*
X149488590Y-48754380D01*
X149488590Y-48754380D02*
X149583828Y-48706761D01*
X149583828Y-48706761D02*
X149631447Y-48659142D01*
X149631447Y-48659142D02*
X149726685Y-48516285D01*
X149726685Y-48516285D02*
X149774304Y-48325809D01*
X149774304Y-48325809D02*
X149774304Y-47944857D01*
X149774304Y-47944857D02*
X149726685Y-47849619D01*
X149726685Y-47849619D02*
X149679066Y-47802000D01*
X149679066Y-47802000D02*
X149583828Y-47754380D01*
X149583828Y-47754380D02*
X149393352Y-47754380D01*
X149393352Y-47754380D02*
X149298114Y-47802000D01*
X149298114Y-47802000D02*
X149250495Y-47849619D01*
X149250495Y-47849619D02*
X149202876Y-47944857D01*
X149202876Y-47944857D02*
X149202876Y-48182952D01*
X149202876Y-48182952D02*
X149250495Y-48278190D01*
X149250495Y-48278190D02*
X149298114Y-48325809D01*
X149298114Y-48325809D02*
X149393352Y-48373428D01*
X149393352Y-48373428D02*
X149583828Y-48373428D01*
X149583828Y-48373428D02*
X149679066Y-48325809D01*
X149679066Y-48325809D02*
X149726685Y-48278190D01*
X149726685Y-48278190D02*
X149774304Y-48182952D01*
X153822399Y-59054080D02*
X153822399Y-58815985D01*
X154060494Y-58911223D02*
X153822399Y-58815985D01*
X153822399Y-58815985D02*
X153584304Y-58911223D01*
X153965256Y-58625509D02*
X153822399Y-58815985D01*
X153822399Y-58815985D02*
X153679542Y-58625509D01*
X153822400Y-57963719D02*
X153822400Y-58201814D01*
X153584305Y-58106576D02*
X153822400Y-58201814D01*
X153822400Y-58201814D02*
X154060495Y-58106576D01*
X153679543Y-58392290D02*
X153822400Y-58201814D01*
X153822400Y-58201814D02*
X153965257Y-58392290D01*
X161617066Y-97365019D02*
X161617066Y-98079304D01*
X161617066Y-98079304D02*
X161569447Y-98222161D01*
X161569447Y-98222161D02*
X161474209Y-98317400D01*
X161474209Y-98317400D02*
X161331352Y-98365019D01*
X161331352Y-98365019D02*
X161236114Y-98365019D01*
X162045638Y-97460257D02*
X162093257Y-97412638D01*
X162093257Y-97412638D02*
X162188495Y-97365019D01*
X162188495Y-97365019D02*
X162426590Y-97365019D01*
X162426590Y-97365019D02*
X162521828Y-97412638D01*
X162521828Y-97412638D02*
X162569447Y-97460257D01*
X162569447Y-97460257D02*
X162617066Y-97555495D01*
X162617066Y-97555495D02*
X162617066Y-97650733D01*
X162617066Y-97650733D02*
X162569447Y-97793590D01*
X162569447Y-97793590D02*
X161998019Y-98365019D01*
X161998019Y-98365019D02*
X162617066Y-98365019D01*
X81783019Y-81860923D02*
X82497304Y-81860923D01*
X82497304Y-81860923D02*
X82640161Y-81908542D01*
X82640161Y-81908542D02*
X82735400Y-82003780D01*
X82735400Y-82003780D02*
X82783019Y-82146637D01*
X82783019Y-82146637D02*
X82783019Y-82241875D01*
X81878257Y-81432351D02*
X81830638Y-81384732D01*
X81830638Y-81384732D02*
X81783019Y-81289494D01*
X81783019Y-81289494D02*
X81783019Y-81051399D01*
X81783019Y-81051399D02*
X81830638Y-80956161D01*
X81830638Y-80956161D02*
X81878257Y-80908542D01*
X81878257Y-80908542D02*
X81973495Y-80860923D01*
X81973495Y-80860923D02*
X82068733Y-80860923D01*
X82068733Y-80860923D02*
X82211590Y-80908542D01*
X82211590Y-80908542D02*
X82783019Y-81479970D01*
X82783019Y-81479970D02*
X82783019Y-80860923D01*
X81783019Y-80241875D02*
X81783019Y-80146637D01*
X81783019Y-80146637D02*
X81830638Y-80051399D01*
X81830638Y-80051399D02*
X81878257Y-80003780D01*
X81878257Y-80003780D02*
X81973495Y-79956161D01*
X81973495Y-79956161D02*
X82163971Y-79908542D01*
X82163971Y-79908542D02*
X82402066Y-79908542D01*
X82402066Y-79908542D02*
X82592542Y-79956161D01*
X82592542Y-79956161D02*
X82687780Y-80003780D01*
X82687780Y-80003780D02*
X82735400Y-80051399D01*
X82735400Y-80051399D02*
X82783019Y-80146637D01*
X82783019Y-80146637D02*
X82783019Y-80241875D01*
X82783019Y-80241875D02*
X82735400Y-80337113D01*
X82735400Y-80337113D02*
X82687780Y-80384732D01*
X82687780Y-80384732D02*
X82592542Y-80432351D01*
X82592542Y-80432351D02*
X82402066Y-80479970D01*
X82402066Y-80479970D02*
X82163971Y-80479970D01*
X82163971Y-80479970D02*
X81973495Y-80432351D01*
X81973495Y-80432351D02*
X81878257Y-80384732D01*
X81878257Y-80384732D02*
X81830638Y-80337113D01*
X81830638Y-80337113D02*
X81783019Y-80241875D01*
X93962105Y-79983219D02*
X93962105Y-78983219D01*
X93962105Y-78983219D02*
X94200200Y-78983219D01*
X94200200Y-78983219D02*
X94343057Y-79030838D01*
X94343057Y-79030838D02*
X94438295Y-79126076D01*
X94438295Y-79126076D02*
X94485914Y-79221314D01*
X94485914Y-79221314D02*
X94533533Y-79411790D01*
X94533533Y-79411790D02*
X94533533Y-79554647D01*
X94533533Y-79554647D02*
X94485914Y-79745123D01*
X94485914Y-79745123D02*
X94438295Y-79840361D01*
X94438295Y-79840361D02*
X94343057Y-79935600D01*
X94343057Y-79935600D02*
X94200200Y-79983219D01*
X94200200Y-79983219D02*
X93962105Y-79983219D01*
X95104962Y-79411790D02*
X95009724Y-79364171D01*
X95009724Y-79364171D02*
X94962105Y-79316552D01*
X94962105Y-79316552D02*
X94914486Y-79221314D01*
X94914486Y-79221314D02*
X94914486Y-79173695D01*
X94914486Y-79173695D02*
X94962105Y-79078457D01*
X94962105Y-79078457D02*
X95009724Y-79030838D01*
X95009724Y-79030838D02*
X95104962Y-78983219D01*
X95104962Y-78983219D02*
X95295438Y-78983219D01*
X95295438Y-78983219D02*
X95390676Y-79030838D01*
X95390676Y-79030838D02*
X95438295Y-79078457D01*
X95438295Y-79078457D02*
X95485914Y-79173695D01*
X95485914Y-79173695D02*
X95485914Y-79221314D01*
X95485914Y-79221314D02*
X95438295Y-79316552D01*
X95438295Y-79316552D02*
X95390676Y-79364171D01*
X95390676Y-79364171D02*
X95295438Y-79411790D01*
X95295438Y-79411790D02*
X95104962Y-79411790D01*
X95104962Y-79411790D02*
X95009724Y-79459409D01*
X95009724Y-79459409D02*
X94962105Y-79507028D01*
X94962105Y-79507028D02*
X94914486Y-79602266D01*
X94914486Y-79602266D02*
X94914486Y-79792742D01*
X94914486Y-79792742D02*
X94962105Y-79887980D01*
X94962105Y-79887980D02*
X95009724Y-79935600D01*
X95009724Y-79935600D02*
X95104962Y-79983219D01*
X95104962Y-79983219D02*
X95295438Y-79983219D01*
X95295438Y-79983219D02*
X95390676Y-79935600D01*
X95390676Y-79935600D02*
X95438295Y-79887980D01*
X95438295Y-79887980D02*
X95485914Y-79792742D01*
X95485914Y-79792742D02*
X95485914Y-79602266D01*
X95485914Y-79602266D02*
X95438295Y-79507028D01*
X95438295Y-79507028D02*
X95390676Y-79459409D01*
X95390676Y-79459409D02*
X95295438Y-79411790D01*
X161140876Y-77744419D02*
X161140876Y-78458704D01*
X161140876Y-78458704D02*
X161093257Y-78601561D01*
X161093257Y-78601561D02*
X160998019Y-78696800D01*
X160998019Y-78696800D02*
X160855162Y-78744419D01*
X160855162Y-78744419D02*
X160759924Y-78744419D01*
X161521829Y-77744419D02*
X162140876Y-77744419D01*
X162140876Y-77744419D02*
X161807543Y-78125371D01*
X161807543Y-78125371D02*
X161950400Y-78125371D01*
X161950400Y-78125371D02*
X162045638Y-78172990D01*
X162045638Y-78172990D02*
X162093257Y-78220609D01*
X162093257Y-78220609D02*
X162140876Y-78315847D01*
X162140876Y-78315847D02*
X162140876Y-78553942D01*
X162140876Y-78553942D02*
X162093257Y-78649180D01*
X162093257Y-78649180D02*
X162045638Y-78696800D01*
X162045638Y-78696800D02*
X161950400Y-78744419D01*
X161950400Y-78744419D02*
X161664686Y-78744419D01*
X161664686Y-78744419D02*
X161569448Y-78696800D01*
X161569448Y-78696800D02*
X161521829Y-78649180D01*
X162998019Y-77744419D02*
X162807543Y-77744419D01*
X162807543Y-77744419D02*
X162712305Y-77792038D01*
X162712305Y-77792038D02*
X162664686Y-77839657D01*
X162664686Y-77839657D02*
X162569448Y-77982514D01*
X162569448Y-77982514D02*
X162521829Y-78172990D01*
X162521829Y-78172990D02*
X162521829Y-78553942D01*
X162521829Y-78553942D02*
X162569448Y-78649180D01*
X162569448Y-78649180D02*
X162617067Y-78696800D01*
X162617067Y-78696800D02*
X162712305Y-78744419D01*
X162712305Y-78744419D02*
X162902781Y-78744419D01*
X162902781Y-78744419D02*
X162998019Y-78696800D01*
X162998019Y-78696800D02*
X163045638Y-78649180D01*
X163045638Y-78649180D02*
X163093257Y-78553942D01*
X163093257Y-78553942D02*
X163093257Y-78315847D01*
X163093257Y-78315847D02*
X163045638Y-78220609D01*
X163045638Y-78220609D02*
X162998019Y-78172990D01*
X162998019Y-78172990D02*
X162902781Y-78125371D01*
X162902781Y-78125371D02*
X162712305Y-78125371D01*
X162712305Y-78125371D02*
X162617067Y-78172990D01*
X162617067Y-78172990D02*
X162569448Y-78220609D01*
X162569448Y-78220609D02*
X162521829Y-78315847D01*
X150901495Y-77494419D02*
X150901495Y-78303942D01*
X150901495Y-78303942D02*
X150949114Y-78399180D01*
X150949114Y-78399180D02*
X150996733Y-78446800D01*
X150996733Y-78446800D02*
X151091971Y-78494419D01*
X151091971Y-78494419D02*
X151282447Y-78494419D01*
X151282447Y-78494419D02*
X151377685Y-78446800D01*
X151377685Y-78446800D02*
X151425304Y-78399180D01*
X151425304Y-78399180D02*
X151472923Y-78303942D01*
X151472923Y-78303942D02*
X151472923Y-77494419D01*
X151996733Y-78494419D02*
X152187209Y-78494419D01*
X152187209Y-78494419D02*
X152282447Y-78446800D01*
X152282447Y-78446800D02*
X152330066Y-78399180D01*
X152330066Y-78399180D02*
X152425304Y-78256323D01*
X152425304Y-78256323D02*
X152472923Y-78065847D01*
X152472923Y-78065847D02*
X152472923Y-77684895D01*
X152472923Y-77684895D02*
X152425304Y-77589657D01*
X152425304Y-77589657D02*
X152377685Y-77542038D01*
X152377685Y-77542038D02*
X152282447Y-77494419D01*
X152282447Y-77494419D02*
X152091971Y-77494419D01*
X152091971Y-77494419D02*
X151996733Y-77542038D01*
X151996733Y-77542038D02*
X151949114Y-77589657D01*
X151949114Y-77589657D02*
X151901495Y-77684895D01*
X151901495Y-77684895D02*
X151901495Y-77922990D01*
X151901495Y-77922990D02*
X151949114Y-78018228D01*
X151949114Y-78018228D02*
X151996733Y-78065847D01*
X151996733Y-78065847D02*
X152091971Y-78113466D01*
X152091971Y-78113466D02*
X152282447Y-78113466D01*
X152282447Y-78113466D02*
X152377685Y-78065847D01*
X152377685Y-78065847D02*
X152425304Y-78018228D01*
X152425304Y-78018228D02*
X152472923Y-77922990D01*
X93707419Y-105990923D02*
X94421704Y-105990923D01*
X94421704Y-105990923D02*
X94564561Y-106038542D01*
X94564561Y-106038542D02*
X94659800Y-106133780D01*
X94659800Y-106133780D02*
X94707419Y-106276637D01*
X94707419Y-106276637D02*
X94707419Y-106371875D01*
X93802657Y-105562351D02*
X93755038Y-105514732D01*
X93755038Y-105514732D02*
X93707419Y-105419494D01*
X93707419Y-105419494D02*
X93707419Y-105181399D01*
X93707419Y-105181399D02*
X93755038Y-105086161D01*
X93755038Y-105086161D02*
X93802657Y-105038542D01*
X93802657Y-105038542D02*
X93897895Y-104990923D01*
X93897895Y-104990923D02*
X93993133Y-104990923D01*
X93993133Y-104990923D02*
X94135990Y-105038542D01*
X94135990Y-105038542D02*
X94707419Y-105609970D01*
X94707419Y-105609970D02*
X94707419Y-104990923D01*
X93802657Y-104609970D02*
X93755038Y-104562351D01*
X93755038Y-104562351D02*
X93707419Y-104467113D01*
X93707419Y-104467113D02*
X93707419Y-104229018D01*
X93707419Y-104229018D02*
X93755038Y-104133780D01*
X93755038Y-104133780D02*
X93802657Y-104086161D01*
X93802657Y-104086161D02*
X93897895Y-104038542D01*
X93897895Y-104038542D02*
X93993133Y-104038542D01*
X93993133Y-104038542D02*
X94135990Y-104086161D01*
X94135990Y-104086161D02*
X94707419Y-104657589D01*
X94707419Y-104657589D02*
X94707419Y-104038542D01*
X166972019Y-64382894D02*
X167781542Y-64382894D01*
X167781542Y-64382894D02*
X167876780Y-64335275D01*
X167876780Y-64335275D02*
X167924400Y-64287656D01*
X167924400Y-64287656D02*
X167972019Y-64192418D01*
X167972019Y-64192418D02*
X167972019Y-64001942D01*
X167972019Y-64001942D02*
X167924400Y-63906704D01*
X167924400Y-63906704D02*
X167876780Y-63859085D01*
X167876780Y-63859085D02*
X167781542Y-63811466D01*
X167781542Y-63811466D02*
X166972019Y-63811466D01*
X167972019Y-62811466D02*
X167972019Y-63382894D01*
X167972019Y-63097180D02*
X166972019Y-63097180D01*
X166972019Y-63097180D02*
X167114876Y-63192418D01*
X167114876Y-63192418D02*
X167210114Y-63287656D01*
X167210114Y-63287656D02*
X167257733Y-63382894D01*
X166972019Y-62478132D02*
X166972019Y-61859085D01*
X166972019Y-61859085D02*
X167352971Y-62192418D01*
X167352971Y-62192418D02*
X167352971Y-62049561D01*
X167352971Y-62049561D02*
X167400590Y-61954323D01*
X167400590Y-61954323D02*
X167448209Y-61906704D01*
X167448209Y-61906704D02*
X167543447Y-61859085D01*
X167543447Y-61859085D02*
X167781542Y-61859085D01*
X167781542Y-61859085D02*
X167876780Y-61906704D01*
X167876780Y-61906704D02*
X167924400Y-61954323D01*
X167924400Y-61954323D02*
X167972019Y-62049561D01*
X167972019Y-62049561D02*
X167972019Y-62335275D01*
X167972019Y-62335275D02*
X167924400Y-62430513D01*
X167924400Y-62430513D02*
X167876780Y-62478132D01*
D10*
X119120580Y-99044695D02*
X118311057Y-99044695D01*
X118311057Y-99044695D02*
X118215819Y-99092314D01*
X118215819Y-99092314D02*
X118168200Y-99139933D01*
X118168200Y-99139933D02*
X118120580Y-99235171D01*
X118120580Y-99235171D02*
X118120580Y-99425647D01*
X118120580Y-99425647D02*
X118168200Y-99520885D01*
X118168200Y-99520885D02*
X118215819Y-99568504D01*
X118215819Y-99568504D02*
X118311057Y-99616123D01*
X118311057Y-99616123D02*
X119120580Y-99616123D01*
X119025342Y-100044695D02*
X119072961Y-100092314D01*
X119072961Y-100092314D02*
X119120580Y-100187552D01*
X119120580Y-100187552D02*
X119120580Y-100425647D01*
X119120580Y-100425647D02*
X119072961Y-100520885D01*
X119072961Y-100520885D02*
X119025342Y-100568504D01*
X119025342Y-100568504D02*
X118930104Y-100616123D01*
X118930104Y-100616123D02*
X118834866Y-100616123D01*
X118834866Y-100616123D02*
X118692009Y-100568504D01*
X118692009Y-100568504D02*
X118120580Y-99997076D01*
X118120580Y-99997076D02*
X118120580Y-100616123D01*
D11*
X135128095Y-47664019D02*
X135128095Y-48473542D01*
X135128095Y-48473542D02*
X135175714Y-48568780D01*
X135175714Y-48568780D02*
X135223333Y-48616400D01*
X135223333Y-48616400D02*
X135318571Y-48664019D01*
X135318571Y-48664019D02*
X135509047Y-48664019D01*
X135509047Y-48664019D02*
X135604285Y-48616400D01*
X135604285Y-48616400D02*
X135651904Y-48568780D01*
X135651904Y-48568780D02*
X135699523Y-48473542D01*
X135699523Y-48473542D02*
X135699523Y-47664019D01*
X136651904Y-47664019D02*
X136175714Y-47664019D01*
X136175714Y-47664019D02*
X136128095Y-48140209D01*
X136128095Y-48140209D02*
X136175714Y-48092590D01*
X136175714Y-48092590D02*
X136270952Y-48044971D01*
X136270952Y-48044971D02*
X136509047Y-48044971D01*
X136509047Y-48044971D02*
X136604285Y-48092590D01*
X136604285Y-48092590D02*
X136651904Y-48140209D01*
X136651904Y-48140209D02*
X136699523Y-48235447D01*
X136699523Y-48235447D02*
X136699523Y-48473542D01*
X136699523Y-48473542D02*
X136651904Y-48568780D01*
X136651904Y-48568780D02*
X136604285Y-48616400D01*
X136604285Y-48616400D02*
X136509047Y-48664019D01*
X136509047Y-48664019D02*
X136270952Y-48664019D01*
X136270952Y-48664019D02*
X136175714Y-48616400D01*
X136175714Y-48616400D02*
X136128095Y-48568780D01*
X132080000Y-37364319D02*
X132080000Y-37602414D01*
X131841905Y-37507176D02*
X132080000Y-37602414D01*
X132080000Y-37602414D02*
X132318095Y-37507176D01*
X131937143Y-37792890D02*
X132080000Y-37602414D01*
X132080000Y-37602414D02*
X132222857Y-37792890D01*
X132080000Y-37364319D02*
X132080000Y-37602414D01*
X131841905Y-37507176D02*
X132080000Y-37602414D01*
X132080000Y-37602414D02*
X132318095Y-37507176D01*
X131937143Y-37792890D02*
X132080000Y-37602414D01*
X132080000Y-37602414D02*
X132222857Y-37792890D01*
X107677419Y-99361523D02*
X108391704Y-99361523D01*
X108391704Y-99361523D02*
X108534561Y-99409142D01*
X108534561Y-99409142D02*
X108629800Y-99504380D01*
X108629800Y-99504380D02*
X108677419Y-99647237D01*
X108677419Y-99647237D02*
X108677419Y-99742475D01*
X107772657Y-98932951D02*
X107725038Y-98885332D01*
X107725038Y-98885332D02*
X107677419Y-98790094D01*
X107677419Y-98790094D02*
X107677419Y-98551999D01*
X107677419Y-98551999D02*
X107725038Y-98456761D01*
X107725038Y-98456761D02*
X107772657Y-98409142D01*
X107772657Y-98409142D02*
X107867895Y-98361523D01*
X107867895Y-98361523D02*
X107963133Y-98361523D01*
X107963133Y-98361523D02*
X108105990Y-98409142D01*
X108105990Y-98409142D02*
X108677419Y-98980570D01*
X108677419Y-98980570D02*
X108677419Y-98361523D01*
X107677419Y-97504380D02*
X107677419Y-97694856D01*
X107677419Y-97694856D02*
X107725038Y-97790094D01*
X107725038Y-97790094D02*
X107772657Y-97837713D01*
X107772657Y-97837713D02*
X107915514Y-97932951D01*
X107915514Y-97932951D02*
X108105990Y-97980570D01*
X108105990Y-97980570D02*
X108486942Y-97980570D01*
X108486942Y-97980570D02*
X108582180Y-97932951D01*
X108582180Y-97932951D02*
X108629800Y-97885332D01*
X108629800Y-97885332D02*
X108677419Y-97790094D01*
X108677419Y-97790094D02*
X108677419Y-97599618D01*
X108677419Y-97599618D02*
X108629800Y-97504380D01*
X108629800Y-97504380D02*
X108582180Y-97456761D01*
X108582180Y-97456761D02*
X108486942Y-97409142D01*
X108486942Y-97409142D02*
X108248847Y-97409142D01*
X108248847Y-97409142D02*
X108153609Y-97456761D01*
X108153609Y-97456761D02*
X108105990Y-97504380D01*
X108105990Y-97504380D02*
X108058371Y-97599618D01*
X108058371Y-97599618D02*
X108058371Y-97790094D01*
X108058371Y-97790094D02*
X108105990Y-97885332D01*
X108105990Y-97885332D02*
X108153609Y-97932951D01*
X108153609Y-97932951D02*
X108248847Y-97980570D01*
X114836676Y-106305819D02*
X114836676Y-107020104D01*
X114836676Y-107020104D02*
X114789057Y-107162961D01*
X114789057Y-107162961D02*
X114693819Y-107258200D01*
X114693819Y-107258200D02*
X114550962Y-107305819D01*
X114550962Y-107305819D02*
X114455724Y-107305819D01*
X115836676Y-107305819D02*
X115265248Y-107305819D01*
X115550962Y-107305819D02*
X115550962Y-106305819D01*
X115550962Y-106305819D02*
X115455724Y-106448676D01*
X115455724Y-106448676D02*
X115360486Y-106543914D01*
X115360486Y-106543914D02*
X115265248Y-106591533D01*
X116312867Y-107305819D02*
X116503343Y-107305819D01*
X116503343Y-107305819D02*
X116598581Y-107258200D01*
X116598581Y-107258200D02*
X116646200Y-107210580D01*
X116646200Y-107210580D02*
X116741438Y-107067723D01*
X116741438Y-107067723D02*
X116789057Y-106877247D01*
X116789057Y-106877247D02*
X116789057Y-106496295D01*
X116789057Y-106496295D02*
X116741438Y-106401057D01*
X116741438Y-106401057D02*
X116693819Y-106353438D01*
X116693819Y-106353438D02*
X116598581Y-106305819D01*
X116598581Y-106305819D02*
X116408105Y-106305819D01*
X116408105Y-106305819D02*
X116312867Y-106353438D01*
X116312867Y-106353438D02*
X116265248Y-106401057D01*
X116265248Y-106401057D02*
X116217629Y-106496295D01*
X116217629Y-106496295D02*
X116217629Y-106734390D01*
X116217629Y-106734390D02*
X116265248Y-106829628D01*
X116265248Y-106829628D02*
X116312867Y-106877247D01*
X116312867Y-106877247D02*
X116408105Y-106924866D01*
X116408105Y-106924866D02*
X116598581Y-106924866D01*
X116598581Y-106924866D02*
X116693819Y-106877247D01*
X116693819Y-106877247D02*
X116741438Y-106829628D01*
X116741438Y-106829628D02*
X116789057Y-106734390D01*
X161642466Y-37049819D02*
X161642466Y-37764104D01*
X161642466Y-37764104D02*
X161594847Y-37906961D01*
X161594847Y-37906961D02*
X161499609Y-38002200D01*
X161499609Y-38002200D02*
X161356752Y-38049819D01*
X161356752Y-38049819D02*
X161261514Y-38049819D01*
X162594847Y-37049819D02*
X162118657Y-37049819D01*
X162118657Y-37049819D02*
X162071038Y-37526009D01*
X162071038Y-37526009D02*
X162118657Y-37478390D01*
X162118657Y-37478390D02*
X162213895Y-37430771D01*
X162213895Y-37430771D02*
X162451990Y-37430771D01*
X162451990Y-37430771D02*
X162547228Y-37478390D01*
X162547228Y-37478390D02*
X162594847Y-37526009D01*
X162594847Y-37526009D02*
X162642466Y-37621247D01*
X162642466Y-37621247D02*
X162642466Y-37859342D01*
X162642466Y-37859342D02*
X162594847Y-37954580D01*
X162594847Y-37954580D02*
X162547228Y-38002200D01*
X162547228Y-38002200D02*
X162451990Y-38049819D01*
X162451990Y-38049819D02*
X162213895Y-38049819D01*
X162213895Y-38049819D02*
X162118657Y-38002200D01*
X162118657Y-38002200D02*
X162071038Y-37954580D01*
D12*
X100949146Y-62074715D02*
X101338569Y-62074715D01*
X101338569Y-62074715D02*
X101384383Y-62051808D01*
X101384383Y-62051808D02*
X101407291Y-62028901D01*
X101407291Y-62028901D02*
X101430198Y-61983086D01*
X101430198Y-61983086D02*
X101430198Y-61891457D01*
X101430198Y-61891457D02*
X101407291Y-61845643D01*
X101407291Y-61845643D02*
X101384383Y-61822736D01*
X101384383Y-61822736D02*
X101338569Y-61799828D01*
X101338569Y-61799828D02*
X100949146Y-61799828D01*
X101430198Y-61318777D02*
X101430198Y-61593664D01*
X101430198Y-61456220D02*
X100949146Y-61456220D01*
X100949146Y-61456220D02*
X101017867Y-61502035D01*
X101017867Y-61502035D02*
X101063682Y-61547849D01*
X101063682Y-61547849D02*
X101086589Y-61593664D01*
D11*
X165071219Y-70832457D02*
X164595028Y-71165790D01*
X165071219Y-71403885D02*
X164071219Y-71403885D01*
X164071219Y-71403885D02*
X164071219Y-71022933D01*
X164071219Y-71022933D02*
X164118838Y-70927695D01*
X164118838Y-70927695D02*
X164166457Y-70880076D01*
X164166457Y-70880076D02*
X164261695Y-70832457D01*
X164261695Y-70832457D02*
X164404552Y-70832457D01*
X164404552Y-70832457D02*
X164499790Y-70880076D01*
X164499790Y-70880076D02*
X164547409Y-70927695D01*
X164547409Y-70927695D02*
X164595028Y-71022933D01*
X164595028Y-71022933D02*
X164595028Y-71403885D01*
X165071219Y-69880076D02*
X165071219Y-70451504D01*
X165071219Y-70165790D02*
X164071219Y-70165790D01*
X164071219Y-70165790D02*
X164214076Y-70261028D01*
X164214076Y-70261028D02*
X164309314Y-70356266D01*
X164309314Y-70356266D02*
X164356933Y-70451504D01*
X165071219Y-68927695D02*
X165071219Y-69499123D01*
X165071219Y-69213409D02*
X164071219Y-69213409D01*
X164071219Y-69213409D02*
X164214076Y-69308647D01*
X164214076Y-69308647D02*
X164309314Y-69403885D01*
X164309314Y-69403885D02*
X164356933Y-69499123D01*
X114331905Y-90684819D02*
X114331905Y-91494342D01*
X114331905Y-91494342D02*
X114379524Y-91589580D01*
X114379524Y-91589580D02*
X114427143Y-91637200D01*
X114427143Y-91637200D02*
X114522381Y-91684819D01*
X114522381Y-91684819D02*
X114712857Y-91684819D01*
X114712857Y-91684819D02*
X114808095Y-91637200D01*
X114808095Y-91637200D02*
X114855714Y-91589580D01*
X114855714Y-91589580D02*
X114903333Y-91494342D01*
X114903333Y-91494342D02*
X114903333Y-90684819D01*
X115903333Y-91684819D02*
X115331905Y-91684819D01*
X115617619Y-91684819D02*
X115617619Y-90684819D01*
X115617619Y-90684819D02*
X115522381Y-90827676D01*
X115522381Y-90827676D02*
X115427143Y-90922914D01*
X115427143Y-90922914D02*
X115331905Y-90970533D01*
X116522381Y-90684819D02*
X116617619Y-90684819D01*
X116617619Y-90684819D02*
X116712857Y-90732438D01*
X116712857Y-90732438D02*
X116760476Y-90780057D01*
X116760476Y-90780057D02*
X116808095Y-90875295D01*
X116808095Y-90875295D02*
X116855714Y-91065771D01*
X116855714Y-91065771D02*
X116855714Y-91303866D01*
X116855714Y-91303866D02*
X116808095Y-91494342D01*
X116808095Y-91494342D02*
X116760476Y-91589580D01*
X116760476Y-91589580D02*
X116712857Y-91637200D01*
X116712857Y-91637200D02*
X116617619Y-91684819D01*
X116617619Y-91684819D02*
X116522381Y-91684819D01*
X116522381Y-91684819D02*
X116427143Y-91637200D01*
X116427143Y-91637200D02*
X116379524Y-91589580D01*
X116379524Y-91589580D02*
X116331905Y-91494342D01*
X116331905Y-91494342D02*
X116284286Y-91303866D01*
X116284286Y-91303866D02*
X116284286Y-91065771D01*
X116284286Y-91065771D02*
X116331905Y-90875295D01*
X116331905Y-90875295D02*
X116379524Y-90780057D01*
X116379524Y-90780057D02*
X116427143Y-90732438D01*
X116427143Y-90732438D02*
X116522381Y-90684819D01*
X91936219Y-89484104D02*
X92745742Y-89484104D01*
X92745742Y-89484104D02*
X92840980Y-89436485D01*
X92840980Y-89436485D02*
X92888600Y-89388866D01*
X92888600Y-89388866D02*
X92936219Y-89293628D01*
X92936219Y-89293628D02*
X92936219Y-89103152D01*
X92936219Y-89103152D02*
X92888600Y-89007914D01*
X92888600Y-89007914D02*
X92840980Y-88960295D01*
X92840980Y-88960295D02*
X92745742Y-88912676D01*
X92745742Y-88912676D02*
X91936219Y-88912676D01*
X91936219Y-88531723D02*
X91936219Y-87865057D01*
X91936219Y-87865057D02*
X92936219Y-88293628D01*
X82906519Y-92532199D02*
X83144614Y-92532199D01*
X83049376Y-92770294D02*
X83144614Y-92532199D01*
X83144614Y-92532199D02*
X83049376Y-92294104D01*
X83335090Y-92675056D02*
X83144614Y-92532199D01*
X83144614Y-92532199D02*
X83335090Y-92389342D01*
X82906519Y-92532199D02*
X83144614Y-92532199D01*
X83049376Y-92770294D02*
X83144614Y-92532199D01*
X83144614Y-92532199D02*
X83049376Y-92294104D01*
X83335090Y-92675056D02*
X83144614Y-92532199D01*
X83144614Y-92532199D02*
X83335090Y-92389342D01*
X122856666Y-39034819D02*
X122856666Y-39749104D01*
X122856666Y-39749104D02*
X122809047Y-39891961D01*
X122809047Y-39891961D02*
X122713809Y-39987200D01*
X122713809Y-39987200D02*
X122570952Y-40034819D01*
X122570952Y-40034819D02*
X122475714Y-40034819D01*
X123237619Y-39034819D02*
X123856666Y-39034819D01*
X123856666Y-39034819D02*
X123523333Y-39415771D01*
X123523333Y-39415771D02*
X123666190Y-39415771D01*
X123666190Y-39415771D02*
X123761428Y-39463390D01*
X123761428Y-39463390D02*
X123809047Y-39511009D01*
X123809047Y-39511009D02*
X123856666Y-39606247D01*
X123856666Y-39606247D02*
X123856666Y-39844342D01*
X123856666Y-39844342D02*
X123809047Y-39939580D01*
X123809047Y-39939580D02*
X123761428Y-39987200D01*
X123761428Y-39987200D02*
X123666190Y-40034819D01*
X123666190Y-40034819D02*
X123380476Y-40034819D01*
X123380476Y-40034819D02*
X123285238Y-39987200D01*
X123285238Y-39987200D02*
X123237619Y-39939580D01*
D12*
X107624646Y-41999815D02*
X108014069Y-41999815D01*
X108014069Y-41999815D02*
X108059883Y-41976908D01*
X108059883Y-41976908D02*
X108082791Y-41954001D01*
X108082791Y-41954001D02*
X108105698Y-41908186D01*
X108105698Y-41908186D02*
X108105698Y-41816557D01*
X108105698Y-41816557D02*
X108082791Y-41770743D01*
X108082791Y-41770743D02*
X108059883Y-41747836D01*
X108059883Y-41747836D02*
X108014069Y-41724928D01*
X108014069Y-41724928D02*
X107624646Y-41724928D01*
X107624646Y-41541671D02*
X107624646Y-41243877D01*
X107624646Y-41243877D02*
X107807904Y-41404227D01*
X107807904Y-41404227D02*
X107807904Y-41335506D01*
X107807904Y-41335506D02*
X107830811Y-41289691D01*
X107830811Y-41289691D02*
X107853718Y-41266784D01*
X107853718Y-41266784D02*
X107899533Y-41243877D01*
X107899533Y-41243877D02*
X108014069Y-41243877D01*
X108014069Y-41243877D02*
X108059883Y-41266784D01*
X108059883Y-41266784D02*
X108082791Y-41289691D01*
X108082791Y-41289691D02*
X108105698Y-41335506D01*
X108105698Y-41335506D02*
X108105698Y-41472949D01*
X108105698Y-41472949D02*
X108082791Y-41518764D01*
X108082791Y-41518764D02*
X108059883Y-41541671D01*
D13*
%TO.C,D6*%
X138551800Y-97738000D02*
X138551800Y-94878000D01*
X136631800Y-97738000D02*
X138551800Y-97738000D01*
X136631800Y-94878000D02*
X136631800Y-97738000D01*
%TO.C,R8*%
X140282600Y-96096064D02*
X140282600Y-95641936D01*
X138812600Y-96096064D02*
X138812600Y-95641936D01*
%TO.C,J21*%
X93354200Y-97145800D02*
X93354200Y-98475800D01*
X92024200Y-97145800D02*
X93354200Y-97145800D01*
X90754200Y-99805800D02*
X83074200Y-99805800D01*
X90754200Y-97145800D02*
X90754200Y-99805800D01*
X90754200Y-97145800D02*
X83074200Y-97145800D01*
X83074200Y-97145800D02*
X83074200Y-99805800D01*
%TO.C,J18*%
X146013400Y-99000000D02*
X146013400Y-101660000D01*
X148613400Y-99000000D02*
X146013400Y-99000000D01*
X148613400Y-99000000D02*
X148613400Y-101660000D01*
X148613400Y-101660000D02*
X146013400Y-101660000D01*
X149883400Y-99000000D02*
X151213400Y-99000000D01*
X151213400Y-99000000D02*
X151213400Y-100330000D01*
%TO.C,NRST*%
X151286400Y-71553200D02*
X151286400Y-73053200D01*
X152536400Y-75553200D02*
X157036400Y-75553200D01*
X157036400Y-69053200D02*
X152536400Y-69053200D01*
X158286400Y-73053200D02*
X158286400Y-71553200D01*
%TO.C,D9*%
X162006400Y-73295000D02*
X162006400Y-76155000D01*
X162006400Y-76155000D02*
X163926400Y-76155000D01*
X163926400Y-76155000D02*
X163926400Y-73295000D01*
%TO.C,J4*%
X79215400Y-44618400D02*
X79215400Y-46618400D01*
X79025400Y-50728400D02*
X72965400Y-50728400D01*
X79025400Y-47918400D02*
X79025400Y-50728400D01*
X79025400Y-40508400D02*
X79025400Y-43318400D01*
X72965400Y-40508400D02*
X79025400Y-40508400D01*
X68865400Y-50728400D02*
X65805400Y-50728400D01*
X65805400Y-50728400D02*
X65805400Y-40508400D01*
X65805400Y-40508400D02*
X68865400Y-40508400D01*
%TO.C,FB1*%
X140701752Y-98172600D02*
X140179248Y-98172600D01*
X140701752Y-99642600D02*
X140179248Y-99642600D01*
%TO.C,J27*%
X97018800Y-103648200D02*
X97018800Y-106308200D01*
X104698800Y-103648200D02*
X97018800Y-103648200D01*
X104698800Y-103648200D02*
X104698800Y-106308200D01*
X104698800Y-106308200D02*
X97018800Y-106308200D01*
X105968800Y-103648200D02*
X107298800Y-103648200D01*
X107298800Y-103648200D02*
X107298800Y-104978200D01*
%TO.C,R4*%
X136645000Y-83606936D02*
X136645000Y-84061064D01*
X138115000Y-83606936D02*
X138115000Y-84061064D01*
D14*
%TO.C,U6*%
X146583400Y-40222583D02*
X146583400Y-40955817D01*
X146583400Y-42762583D02*
X146583400Y-43495817D01*
X146583400Y-45302583D02*
X146583400Y-46035817D01*
X146583400Y-47842583D02*
X146583400Y-48575817D01*
X146583400Y-50382583D02*
X146583400Y-51115817D01*
X146583400Y-52922583D02*
X146583400Y-53655817D01*
X146583400Y-55462583D02*
X146583400Y-56195817D01*
X146583400Y-58115200D02*
X153441400Y-58115200D01*
X153441400Y-38303200D02*
X146583400Y-38303200D01*
X153441400Y-40955817D02*
X153441400Y-40222583D01*
X153441400Y-43495817D02*
X153441400Y-42762583D01*
X153441400Y-46035817D02*
X153441400Y-45302583D01*
X153441400Y-48575817D02*
X153441400Y-47842583D01*
X153441400Y-51115817D02*
X153441400Y-50382583D01*
X153441400Y-53655817D02*
X153441400Y-52922583D01*
X153441400Y-56118760D02*
X153441400Y-55462583D01*
D13*
%TO.C,R3*%
X134745000Y-83606936D02*
X134745000Y-84061064D01*
X136215000Y-83606936D02*
X136215000Y-84061064D01*
%TO.C,D7*%
X112298600Y-48626200D02*
X112298600Y-51486200D01*
X114218600Y-48626200D02*
X112298600Y-48626200D01*
X114218600Y-51486200D02*
X114218600Y-48626200D01*
%TO.C,J2*%
X160620400Y-94310200D02*
X160620400Y-91710200D01*
X163280400Y-91710200D02*
X160620400Y-91710200D01*
X163280400Y-94310200D02*
X160620400Y-94310200D01*
X163280400Y-94310200D02*
X163280400Y-91710200D01*
X163280400Y-95580200D02*
X163280400Y-96910200D01*
X163280400Y-96910200D02*
X161950400Y-96910200D01*
%TO.C,J20*%
X83328200Y-82381400D02*
X83328200Y-81051400D01*
X84658200Y-82381400D02*
X83328200Y-82381400D01*
X85928200Y-79721400D02*
X91068200Y-79721400D01*
X85928200Y-82381400D02*
X85928200Y-79721400D01*
X85928200Y-82381400D02*
X91068200Y-82381400D01*
X91068200Y-82381400D02*
X91068200Y-79721400D01*
%TO.C,D8*%
X92840200Y-80218400D02*
X92840200Y-82138400D01*
X92840200Y-82138400D02*
X95700200Y-82138400D01*
X95700200Y-80218400D02*
X92840200Y-80218400D01*
%TO.C,J36*%
X160620400Y-79289600D02*
X161950400Y-79289600D01*
X160620400Y-80619600D02*
X160620400Y-79289600D01*
X160620400Y-81889600D02*
X160620400Y-89569600D01*
X160620400Y-81889600D02*
X163280400Y-81889600D01*
X160620400Y-89569600D02*
X163280400Y-89569600D01*
X163280400Y-81889600D02*
X163280400Y-89569600D01*
%TO.C,U9*%
X148428400Y-79039600D02*
X148428400Y-94399600D01*
X148428400Y-94399600D02*
X154898400Y-94399600D01*
X150663400Y-79039600D02*
X148428400Y-79039600D01*
X154898400Y-79039600D02*
X152663400Y-79039600D01*
X154898400Y-94399600D02*
X154898400Y-79039600D01*
X152663400Y-79039600D02*
G75*
G02*
X150663400Y-79039600I-1000000J0D01*
G01*
%TO.C,RV1*%
X117214000Y-44200000D02*
G75*
G02*
X109354000Y-44200000I-3930000J0D01*
G01*
X109354000Y-44200000D02*
G75*
G02*
X117214000Y-44200000I3930000J0D01*
G01*
%TO.C,R6*%
X130895000Y-83606936D02*
X130895000Y-84061064D01*
X132365000Y-83606936D02*
X132365000Y-84061064D01*
%TO.C,D2*%
X136434000Y-86671800D02*
X136434000Y-89531800D01*
X136434000Y-89531800D02*
X138354000Y-89531800D01*
X138354000Y-89531800D02*
X138354000Y-86671800D01*
%TO.C,D1*%
X134534000Y-86671800D02*
X134534000Y-89531800D01*
X134534000Y-89531800D02*
X136454000Y-89531800D01*
X136454000Y-89531800D02*
X136454000Y-86671800D01*
%TO.C,J22*%
X82972600Y-103851400D02*
X82972600Y-106511400D01*
X90652600Y-103851400D02*
X82972600Y-103851400D01*
X90652600Y-103851400D02*
X90652600Y-106511400D01*
X90652600Y-106511400D02*
X82972600Y-106511400D01*
X91922600Y-103851400D02*
X93252600Y-103851400D01*
X93252600Y-103851400D02*
X93252600Y-105181400D01*
%TO.C,U13*%
X159607200Y-61294800D02*
X159607200Y-65054800D01*
X159607200Y-65054800D02*
X160867200Y-65054800D01*
X166427200Y-61294800D02*
X166427200Y-65054800D01*
X166427200Y-65054800D02*
X165167200Y-65054800D01*
X166657200Y-60254800D02*
X166327200Y-60014800D01*
X166657200Y-59774800D01*
X166657200Y-60254800D01*
G36*
X166657200Y-60254800D02*
G01*
X166327200Y-60014800D01*
X166657200Y-59774800D01*
X166657200Y-60254800D01*
G37*
%TO.C,U2*%
X119804000Y-98326200D02*
X119804000Y-100986200D01*
X135104000Y-98326200D02*
X119804000Y-98326200D01*
X135104000Y-98326200D02*
X135104000Y-100986200D01*
X136374000Y-98326200D02*
X137704000Y-98326200D01*
X137636000Y-117434200D02*
X119856000Y-117434200D01*
X137704000Y-98326200D02*
X137704000Y-99656200D01*
%TO.C,U4*%
X130116500Y-67485000D02*
X130116500Y-68435000D01*
X130116500Y-77705000D02*
X130116500Y-76755000D01*
X131066500Y-67485000D02*
X130116500Y-67485000D01*
X131066500Y-77705000D02*
X130116500Y-77705000D01*
X139386500Y-67485000D02*
X140336500Y-67485000D01*
X139386500Y-77705000D02*
X140336500Y-77705000D01*
X140336500Y-67485000D02*
X140336500Y-68435000D01*
X140336500Y-77705000D02*
X140336500Y-76755000D01*
X141291500Y-77225000D02*
X140611500Y-77225000D01*
X140951500Y-76755000D01*
X141291500Y-77225000D01*
G36*
X141291500Y-77225000D02*
G01*
X140611500Y-77225000D01*
X140951500Y-76755000D01*
X141291500Y-77225000D01*
G37*
%TO.C,R5*%
X138570000Y-83606936D02*
X138570000Y-84061064D01*
X140040000Y-83606936D02*
X140040000Y-84061064D01*
D14*
%TO.C,U5*%
X132461000Y-40299640D02*
X132461000Y-40955817D01*
X132461000Y-42762583D02*
X132461000Y-43495817D01*
X132461000Y-45302583D02*
X132461000Y-46035817D01*
X132461000Y-47842583D02*
X132461000Y-48575817D01*
X132461000Y-50382583D02*
X132461000Y-51115817D01*
X132461000Y-52922583D02*
X132461000Y-53655817D01*
X132461000Y-55462583D02*
X132461000Y-56195817D01*
X132461000Y-58115200D02*
X139319000Y-58115200D01*
X139319000Y-38303200D02*
X132461000Y-38303200D01*
X139319000Y-40955817D02*
X139319000Y-40222583D01*
X139319000Y-43495817D02*
X139319000Y-42762583D01*
X139319000Y-46035817D02*
X139319000Y-45302583D01*
X139319000Y-48575817D02*
X139319000Y-47842583D01*
X139319000Y-51115817D02*
X139319000Y-50382583D01*
X139319000Y-53655817D02*
X139319000Y-52922583D01*
X139319000Y-56195817D02*
X139319000Y-55462583D01*
D13*
%TO.C,J26*%
X96942600Y-97222000D02*
X96942600Y-99882000D01*
X104622600Y-97222000D02*
X96942600Y-97222000D01*
X104622600Y-97222000D02*
X104622600Y-99882000D01*
X104622600Y-99882000D02*
X96942600Y-99882000D01*
X105892600Y-97222000D02*
X107222600Y-97222000D01*
X107222600Y-97222000D02*
X107222600Y-98552000D01*
%TO.C,R9*%
X115603264Y-53113000D02*
X115149136Y-53113000D01*
X115603264Y-54583000D02*
X115149136Y-54583000D01*
%TO.C,J19*%
X114316200Y-103251000D02*
X114316200Y-98111000D01*
X116976200Y-98111000D02*
X114316200Y-98111000D01*
X116976200Y-103251000D02*
X114316200Y-103251000D01*
X116976200Y-103251000D02*
X116976200Y-98111000D01*
X116976200Y-104521000D02*
X116976200Y-105851000D01*
X116976200Y-105851000D02*
X115646200Y-105851000D01*
%TO.C,J5*%
X160645800Y-38595000D02*
X161975800Y-38595000D01*
X160645800Y-39925000D02*
X160645800Y-38595000D01*
X160645800Y-41195000D02*
X160645800Y-51415000D01*
X160645800Y-41195000D02*
X163305800Y-41195000D01*
X160645800Y-51415000D02*
X163305800Y-51415000D01*
X163305800Y-41195000D02*
X163305800Y-51415000D01*
D15*
%TO.C,U1*%
X82888500Y-60450900D02*
X100688500Y-60450900D01*
X82888500Y-78250900D02*
X82888500Y-60450900D01*
X100688500Y-60450900D02*
X100688500Y-78250900D01*
X100688500Y-78250900D02*
X82888500Y-78250900D01*
D16*
X84238500Y-59950900D02*
G75*
G02*
X84038500Y-59950900I-100000J0D01*
G01*
X84038500Y-59950900D02*
G75*
G02*
X84238500Y-59950900I100000J0D01*
G01*
D13*
%TO.C,R11*%
X162231400Y-69962536D02*
X162231400Y-70416664D01*
X163701400Y-69962536D02*
X163701400Y-70416664D01*
%TO.C,R7*%
X132829000Y-83606936D02*
X132829000Y-84061064D01*
X134299000Y-83606936D02*
X134299000Y-84061064D01*
%TO.C,U10*%
X112335000Y-74870000D02*
X112335000Y-90230000D01*
X112335000Y-90230000D02*
X114570000Y-90230000D01*
X116570000Y-90230000D02*
X118805000Y-90230000D01*
X118805000Y-74870000D02*
X112335000Y-74870000D01*
X118805000Y-90230000D02*
X118805000Y-74870000D01*
X114570000Y-90230000D02*
G75*
G02*
X116570000Y-90230000I1000000J0D01*
G01*
%TO.C,U8*%
X112335000Y-58868000D02*
X112335000Y-74228000D01*
X112335000Y-74228000D02*
X114570000Y-74228000D01*
X116570000Y-74228000D02*
X118805000Y-74228000D01*
X118805000Y-58868000D02*
X112335000Y-58868000D01*
X118805000Y-74228000D02*
X118805000Y-58868000D01*
X114570000Y-74228000D02*
G75*
G02*
X116570000Y-74228000I1000000J0D01*
G01*
%TO.C,J13*%
X124908000Y-87361000D02*
X124908000Y-82221000D01*
X127568000Y-82221000D02*
X124908000Y-82221000D01*
X127568000Y-87361000D02*
X124908000Y-87361000D01*
X127568000Y-87361000D02*
X127568000Y-82221000D01*
X127568000Y-88631000D02*
X127568000Y-89961000D01*
X127568000Y-89961000D02*
X126238000Y-89961000D01*
D14*
%TO.C,U7*%
X82638900Y-85420200D02*
X82638900Y-92024200D01*
X82638900Y-92024200D02*
X83880960Y-92024200D01*
X84022831Y-85420200D02*
X82638900Y-85420200D01*
X85841840Y-92024200D02*
X86562831Y-92024200D01*
X86562831Y-85420200D02*
X85699969Y-85420200D01*
X88239969Y-92024200D02*
X89102831Y-92024200D01*
X89102831Y-85420200D02*
X88239969Y-85420200D01*
X90779969Y-92024200D02*
X91642831Y-92024200D01*
X91642831Y-85420200D02*
X90779969Y-85420200D01*
X93319969Y-92024200D02*
X94182831Y-92024200D01*
X94182831Y-85420200D02*
X93319969Y-85420200D01*
X95859969Y-92024200D02*
X96722831Y-92024200D01*
X96722831Y-85420200D02*
X95859969Y-85420200D01*
X98399969Y-92024200D02*
X99262831Y-92024200D01*
X99262831Y-85420200D02*
X98399969Y-85420200D01*
X100939969Y-92024200D02*
X102323900Y-92024200D01*
X102323900Y-85420200D02*
X100939969Y-85420200D01*
X102323900Y-92024200D02*
X102323900Y-85420200D01*
X82638900Y-88417400D02*
G75*
G02*
X82638900Y-89027000I0J-304800D01*
G01*
D13*
%TO.C,D3*%
X138359000Y-86671800D02*
X138359000Y-89531800D01*
X138359000Y-89531800D02*
X140279000Y-89531800D01*
X140279000Y-89531800D02*
X140279000Y-86671800D01*
%TO.C,J3*%
X120590000Y-40580000D02*
X121920000Y-40580000D01*
X120590000Y-41910000D02*
X120590000Y-40580000D01*
X120590000Y-43180000D02*
X120590000Y-55940000D01*
X120590000Y-43180000D02*
X123190000Y-43180000D01*
X120590000Y-55940000D02*
X125790000Y-55940000D01*
X123190000Y-40580000D02*
X125790000Y-40580000D01*
X123190000Y-43180000D02*
X123190000Y-40580000D01*
X125790000Y-40580000D02*
X125790000Y-55940000D01*
D15*
%TO.C,U3*%
X89564000Y-40376000D02*
X107364000Y-40376000D01*
X89564000Y-58176000D02*
X89564000Y-40376000D01*
X107364000Y-40376000D02*
X107364000Y-58176000D01*
X107364000Y-58176000D02*
X89564000Y-58176000D01*
D16*
X90914000Y-39876000D02*
G75*
G02*
X90714000Y-39876000I-100000J0D01*
G01*
X90714000Y-39876000D02*
G75*
G02*
X90914000Y-39876000I100000J0D01*
G01*
D13*
%TO.C,D5*%
X132634000Y-86671800D02*
X132634000Y-89531800D01*
X132634000Y-89531800D02*
X134554000Y-89531800D01*
X134554000Y-89531800D02*
X134554000Y-86671800D01*
%TO.C,D4*%
X130682200Y-86671800D02*
X130682200Y-89531800D01*
X130682200Y-89531800D02*
X132602200Y-89531800D01*
X132602200Y-89531800D02*
X132602200Y-86671800D01*
%TD*%
M02*
