%TF.GenerationSoftware,KiCad,Pcbnew,9.0.0*%
%TF.CreationDate,2025-03-02T15:10:05-05:00*%
%TF.ProjectId,skee-ball,736b6565-2d62-4616-9c6c-2e6b69636164,rev?*%
%TF.SameCoordinates,Original*%
%TF.FileFunction,Legend,Bot*%
%TF.FilePolarity,Positive*%
%FSLAX46Y46*%
G04 Gerber Fmt 4.6, Leading zero omitted, Abs format (unit mm)*
G04 Created by KiCad (PCBNEW 9.0.0) date 2025-03-02 15:10:05*
%MOMM*%
%LPD*%
G01*
G04 APERTURE LIST*
%ADD10C,0.200000*%
%ADD11C,0.150000*%
%ADD12C,0.120000*%
G04 APERTURE END LIST*
D10*
G36*
X107282289Y-111600503D02*
G01*
X107314325Y-111628979D01*
X107354539Y-111693321D01*
X107384461Y-111932698D01*
X107363788Y-111987826D01*
X107346156Y-112007977D01*
X107295079Y-112035219D01*
X107151956Y-112035219D01*
X107120810Y-112020561D01*
X107064744Y-111572031D01*
X107071269Y-111568552D01*
X107214392Y-111568552D01*
X107282289Y-111600503D01*
G37*
G36*
X110197917Y-111583208D02*
G01*
X110253984Y-112031739D01*
X110247460Y-112035219D01*
X110104337Y-112035219D01*
X110036438Y-112003266D01*
X110004400Y-111974787D01*
X109964189Y-111910450D01*
X109934267Y-111671072D01*
X109954940Y-111615942D01*
X109972571Y-111595793D01*
X110023650Y-111568552D01*
X110166773Y-111568552D01*
X110197917Y-111583208D01*
G37*
G36*
X104573955Y-111267170D02*
G01*
X104605991Y-111295646D01*
X104652583Y-111370193D01*
X104716358Y-111540258D01*
X104743109Y-111754266D01*
X104722310Y-111920655D01*
X104697121Y-111987826D01*
X104679490Y-112007976D01*
X104628411Y-112035219D01*
X104580527Y-112035219D01*
X104512628Y-112003266D01*
X104480590Y-111974787D01*
X104434001Y-111900244D01*
X104370226Y-111730177D01*
X104343475Y-111516171D01*
X104364274Y-111349781D01*
X104389463Y-111282610D01*
X104407094Y-111262460D01*
X104458173Y-111235219D01*
X104506058Y-111235219D01*
X104573955Y-111267170D01*
G37*
G36*
X97733014Y-110269893D02*
G01*
X97765251Y-110321472D01*
X97771364Y-110370373D01*
X97757557Y-110407189D01*
X97723648Y-110425275D01*
X97532906Y-110425275D01*
X97501760Y-110410618D01*
X97480973Y-110244322D01*
X97678675Y-110244322D01*
X97733014Y-110269893D01*
G37*
G36*
X98730608Y-110425275D02*
G01*
X98485287Y-110425275D01*
X98417388Y-110393322D01*
X98385350Y-110364843D01*
X98345139Y-110300506D01*
X98333074Y-110203984D01*
X98353747Y-110148855D01*
X98366008Y-110134843D01*
X98461972Y-110101465D01*
X98690131Y-110101465D01*
X98730608Y-110425275D01*
G37*
G36*
X98665131Y-109901465D02*
G01*
X98467430Y-109901465D01*
X98399528Y-109869511D01*
X98367495Y-109841037D01*
X98327281Y-109776695D01*
X98321169Y-109727794D01*
X98341842Y-109672666D01*
X98359473Y-109652516D01*
X98410552Y-109625275D01*
X98630608Y-109625275D01*
X98665131Y-109901465D01*
G37*
G36*
X100316348Y-109984179D02*
G01*
X100348585Y-110035758D01*
X100352534Y-110067352D01*
X100071538Y-110012524D01*
X100084975Y-109976693D01*
X100118886Y-109958608D01*
X100262009Y-109958608D01*
X100316348Y-109984179D01*
G37*
G36*
X101173491Y-109984179D02*
G01*
X101205728Y-110035758D01*
X101209677Y-110067352D01*
X100928681Y-110012524D01*
X100942118Y-109976693D01*
X100976029Y-109958608D01*
X101119152Y-109958608D01*
X101173491Y-109984179D01*
G37*
G36*
X106806097Y-109990559D02*
G01*
X106838133Y-110019035D01*
X106878347Y-110083377D01*
X106908269Y-110322754D01*
X106887596Y-110377882D01*
X106869964Y-110398033D01*
X106818887Y-110425275D01*
X106723383Y-110425275D01*
X106655484Y-110393322D01*
X106623446Y-110364843D01*
X106583235Y-110300506D01*
X106553313Y-110061128D01*
X106573986Y-110005998D01*
X106591617Y-109985849D01*
X106642696Y-109958608D01*
X106738200Y-109958608D01*
X106806097Y-109990559D01*
G37*
G36*
X109744921Y-109984179D02*
G01*
X109777158Y-110035758D01*
X109781107Y-110067352D01*
X109500111Y-110012524D01*
X109513548Y-109976693D01*
X109547459Y-109958608D01*
X109690582Y-109958608D01*
X109744921Y-109984179D01*
G37*
G36*
X97387832Y-108577235D02*
G01*
X97266211Y-108577235D01*
X97186846Y-108348664D01*
X97308467Y-108348664D01*
X97387832Y-108577235D01*
G37*
G36*
X100494920Y-108659949D02*
G01*
X100527157Y-108711528D01*
X100533270Y-108760429D01*
X100519463Y-108797245D01*
X100485554Y-108815331D01*
X100294812Y-108815331D01*
X100263666Y-108800674D01*
X100242879Y-108634378D01*
X100440581Y-108634378D01*
X100494920Y-108659949D01*
G37*
G36*
X101316349Y-108374235D02*
G01*
X101348586Y-108425814D01*
X101352535Y-108457408D01*
X101071539Y-108402580D01*
X101084976Y-108366749D01*
X101118887Y-108348664D01*
X101262010Y-108348664D01*
X101316349Y-108374235D01*
G37*
G36*
X103669193Y-108047282D02*
G01*
X103701229Y-108075758D01*
X103747821Y-108150305D01*
X103811596Y-108320370D01*
X103838347Y-108534378D01*
X103817548Y-108700767D01*
X103792359Y-108767938D01*
X103774728Y-108788088D01*
X103723649Y-108815331D01*
X103675765Y-108815331D01*
X103607866Y-108783378D01*
X103575828Y-108754899D01*
X103529239Y-108680356D01*
X103465464Y-108510289D01*
X103438713Y-108296283D01*
X103459512Y-108129893D01*
X103484701Y-108062722D01*
X103502332Y-108042572D01*
X103553411Y-108015331D01*
X103601296Y-108015331D01*
X103669193Y-108047282D01*
G37*
G36*
X104621574Y-108047282D02*
G01*
X104653610Y-108075758D01*
X104700202Y-108150305D01*
X104763977Y-108320370D01*
X104790728Y-108534378D01*
X104769929Y-108700767D01*
X104744740Y-108767938D01*
X104727109Y-108788088D01*
X104676030Y-108815331D01*
X104628146Y-108815331D01*
X104560247Y-108783378D01*
X104528209Y-108754899D01*
X104481620Y-108680356D01*
X104417845Y-108510289D01*
X104391094Y-108296283D01*
X104411893Y-108129893D01*
X104437082Y-108062722D01*
X104454713Y-108042572D01*
X104505792Y-108015331D01*
X104553677Y-108015331D01*
X104621574Y-108047282D01*
G37*
G36*
X111571900Y-112679663D02*
G01*
X95872792Y-112679663D01*
X95872792Y-111115710D01*
X102239856Y-111115710D01*
X102239856Y-111154728D01*
X102254788Y-111190776D01*
X102282378Y-111218366D01*
X102318426Y-111233298D01*
X102337935Y-111235219D01*
X102734126Y-111235219D01*
X102775029Y-111417010D01*
X102766507Y-111416171D01*
X102528411Y-111416171D01*
X102508902Y-111418092D01*
X102504361Y-111419972D01*
X102499470Y-111420450D01*
X102481352Y-111427936D01*
X102392067Y-111475555D01*
X102379936Y-111483644D01*
X102378161Y-111484522D01*
X102377035Y-111485578D01*
X102375757Y-111486431D01*
X102374503Y-111487955D01*
X102363869Y-111497939D01*
X102322202Y-111545558D01*
X102313867Y-111557214D01*
X102312475Y-111558705D01*
X102311755Y-111560168D01*
X102310800Y-111561505D01*
X102310142Y-111563449D01*
X102303826Y-111576297D01*
X102268112Y-111671535D01*
X102263061Y-111690476D01*
X102263216Y-111695045D01*
X102262004Y-111699454D01*
X102262517Y-111719051D01*
X102292279Y-111957146D01*
X102296605Y-111976266D01*
X102297647Y-111978099D01*
X102297996Y-111980180D01*
X102306707Y-111997741D01*
X102366230Y-112092980D01*
X102370264Y-112098213D01*
X102371288Y-112100324D01*
X102374930Y-112104265D01*
X102378199Y-112108505D01*
X102380104Y-112109863D01*
X102384593Y-112114721D01*
X102438165Y-112162340D01*
X102443596Y-112166287D01*
X102445188Y-112168037D01*
X102449741Y-112170754D01*
X102454023Y-112173866D01*
X102456253Y-112174639D01*
X102462022Y-112178082D01*
X102563212Y-112225701D01*
X102581683Y-112232270D01*
X102584073Y-112232382D01*
X102586283Y-112233298D01*
X102605792Y-112235219D01*
X102843888Y-112235219D01*
X102863397Y-112233298D01*
X102867937Y-112231417D01*
X102872829Y-112230940D01*
X102890947Y-112223454D01*
X102980232Y-112175835D01*
X102992365Y-112167744D01*
X102994139Y-112166867D01*
X102995262Y-112165812D01*
X102996542Y-112164959D01*
X102997795Y-112163434D01*
X103008431Y-112153450D01*
X103050098Y-112105830D01*
X103061499Y-112089883D01*
X103073999Y-112052921D01*
X103071404Y-112013989D01*
X103054107Y-111979014D01*
X103024743Y-111953321D01*
X102987781Y-111940821D01*
X102948850Y-111943416D01*
X102913875Y-111960713D01*
X102899582Y-111974130D01*
X102869965Y-112007977D01*
X102818888Y-112035219D01*
X102628146Y-112035219D01*
X102560247Y-112003266D01*
X102528209Y-111974787D01*
X102487998Y-111910450D01*
X102464028Y-111718689D01*
X102484701Y-111663562D01*
X102502332Y-111643412D01*
X102553411Y-111616171D01*
X102744153Y-111616171D01*
X102812053Y-111648124D01*
X102854833Y-111686151D01*
X102870691Y-111697676D01*
X102878412Y-111700354D01*
X102885319Y-111704724D01*
X102896671Y-111706688D01*
X102907554Y-111710464D01*
X102915711Y-111709984D01*
X102923765Y-111711378D01*
X102935004Y-111708849D01*
X102946505Y-111708173D01*
X102953857Y-111704608D01*
X102961832Y-111702814D01*
X102971249Y-111696175D01*
X102981614Y-111691150D01*
X102987044Y-111685041D01*
X102993723Y-111680333D01*
X102999879Y-111670600D01*
X103007536Y-111661988D01*
X103010215Y-111654264D01*
X103014584Y-111647359D01*
X103016548Y-111636008D01*
X103020324Y-111625125D01*
X103019844Y-111616966D01*
X103021238Y-111608913D01*
X103018830Y-111589458D01*
X102957865Y-111318501D01*
X103166766Y-111318501D01*
X103167279Y-111338098D01*
X103179183Y-111433336D01*
X103181026Y-111441483D01*
X103181122Y-111444064D01*
X103182545Y-111448197D01*
X103183509Y-111452456D01*
X103184784Y-111454698D01*
X103187505Y-111462599D01*
X103252982Y-111605456D01*
X103262857Y-111622391D01*
X103263666Y-111623142D01*
X103264147Y-111624134D01*
X103277452Y-111638531D01*
X103723726Y-112035219D01*
X103367697Y-112035219D01*
X103348188Y-112037140D01*
X103312140Y-112052072D01*
X103284550Y-112079662D01*
X103269618Y-112115710D01*
X103269618Y-112154728D01*
X103284550Y-112190776D01*
X103312140Y-112218366D01*
X103348188Y-112233298D01*
X103367697Y-112235219D01*
X103986745Y-112235219D01*
X104006254Y-112233298D01*
X104009006Y-112232157D01*
X104011980Y-112231983D01*
X104026941Y-112224728D01*
X104042302Y-112218366D01*
X104044408Y-112216259D01*
X104047089Y-112214960D01*
X104058137Y-112202530D01*
X104069892Y-112190776D01*
X104071031Y-112188024D01*
X104073011Y-112185798D01*
X104078460Y-112170090D01*
X104084824Y-112154728D01*
X104084824Y-112151748D01*
X104085800Y-112148935D01*
X104084824Y-112132341D01*
X104084824Y-112115710D01*
X104083683Y-112112957D01*
X104083509Y-112109984D01*
X104076254Y-112095022D01*
X104069892Y-112079662D01*
X104067785Y-112077555D01*
X104066486Y-112074875D01*
X104053181Y-112060478D01*
X103432744Y-111508978D01*
X104142956Y-111508978D01*
X104143144Y-111516171D01*
X104142956Y-111523364D01*
X104143372Y-111524877D01*
X104143469Y-111528575D01*
X104173231Y-111766670D01*
X104173815Y-111769252D01*
X104173775Y-111770437D01*
X104175809Y-111778068D01*
X104177557Y-111785790D01*
X104178144Y-111786822D01*
X104178826Y-111789379D01*
X104250255Y-111979855D01*
X104250357Y-111980063D01*
X104250377Y-111980180D01*
X104254609Y-111988711D01*
X104258904Y-111997447D01*
X104258985Y-111997534D01*
X104259088Y-111997741D01*
X104318611Y-112092980D01*
X104322645Y-112098213D01*
X104323669Y-112100324D01*
X104327311Y-112104265D01*
X104330580Y-112108505D01*
X104332485Y-112109863D01*
X104336974Y-112114721D01*
X104390546Y-112162340D01*
X104395977Y-112166287D01*
X104397569Y-112168037D01*
X104402122Y-112170754D01*
X104406404Y-112173866D01*
X104408634Y-112174639D01*
X104414403Y-112178082D01*
X104515593Y-112225701D01*
X104534064Y-112232270D01*
X104536454Y-112232382D01*
X104538664Y-112233298D01*
X104558173Y-112235219D01*
X104653411Y-112235219D01*
X104672920Y-112233298D01*
X104677460Y-112231417D01*
X104682352Y-112230940D01*
X104700470Y-112223454D01*
X104789756Y-112175835D01*
X104801893Y-112167741D01*
X104803663Y-112166867D01*
X104804783Y-112165815D01*
X104806066Y-112164960D01*
X104807323Y-112163430D01*
X104817955Y-112153450D01*
X104859622Y-112105830D01*
X104867953Y-112094176D01*
X104869348Y-112092684D01*
X104870069Y-112091217D01*
X104871023Y-112089883D01*
X104871679Y-112087941D01*
X104877997Y-112075092D01*
X104913711Y-111979854D01*
X104914392Y-111977299D01*
X104914980Y-111976266D01*
X104916727Y-111968541D01*
X104918762Y-111960913D01*
X104918721Y-111959728D01*
X104919306Y-111957146D01*
X104943116Y-111766670D01*
X104943212Y-111762972D01*
X104943629Y-111761459D01*
X104943440Y-111754266D01*
X104943629Y-111747073D01*
X104943212Y-111745559D01*
X104943116Y-111741863D01*
X104913354Y-111503767D01*
X104912769Y-111501184D01*
X104912810Y-111500000D01*
X104910775Y-111492371D01*
X104909028Y-111484647D01*
X104908440Y-111483613D01*
X104907759Y-111481059D01*
X104846800Y-111318501D01*
X105071528Y-111318501D01*
X105072041Y-111338098D01*
X105083945Y-111433336D01*
X105085788Y-111441483D01*
X105085884Y-111444064D01*
X105087307Y-111448197D01*
X105088271Y-111452456D01*
X105089546Y-111454698D01*
X105092267Y-111462599D01*
X105157744Y-111605456D01*
X105167619Y-111622391D01*
X105168428Y-111623142D01*
X105168909Y-111624134D01*
X105182214Y-111638531D01*
X105628488Y-112035219D01*
X105272459Y-112035219D01*
X105252950Y-112037140D01*
X105216902Y-112052072D01*
X105189312Y-112079662D01*
X105174380Y-112115710D01*
X105174380Y-112154728D01*
X105189312Y-112190776D01*
X105216902Y-112218366D01*
X105252950Y-112233298D01*
X105272459Y-112235219D01*
X105891507Y-112235219D01*
X105911016Y-112233298D01*
X105913768Y-112232157D01*
X105916742Y-112231983D01*
X105931703Y-112224728D01*
X105947064Y-112218366D01*
X105949170Y-112216259D01*
X105951851Y-112214960D01*
X105962899Y-112202530D01*
X105974654Y-112190776D01*
X105975793Y-112188024D01*
X105977773Y-112185798D01*
X105983222Y-112170090D01*
X105989586Y-112154728D01*
X105989586Y-112151748D01*
X105990562Y-112148935D01*
X105989586Y-112132341D01*
X105989586Y-112115710D01*
X105988445Y-112112957D01*
X105988271Y-112109984D01*
X105981016Y-112095022D01*
X105974654Y-112079662D01*
X105972547Y-112077555D01*
X105971248Y-112074875D01*
X105957943Y-112060478D01*
X105330797Y-111503014D01*
X105311705Y-111461359D01*
X106851290Y-111461359D01*
X106851803Y-111480955D01*
X106952993Y-112290480D01*
X106957319Y-112309600D01*
X106958361Y-112311433D01*
X106958710Y-112313514D01*
X106967421Y-112331076D01*
X107026945Y-112426314D01*
X107030981Y-112431549D01*
X107032004Y-112433659D01*
X107035643Y-112437597D01*
X107038914Y-112441839D01*
X107040820Y-112443198D01*
X107045309Y-112448055D01*
X107098881Y-112495675D01*
X107104313Y-112499623D01*
X107105903Y-112501370D01*
X107110452Y-112504084D01*
X107114739Y-112507200D01*
X107116970Y-112507974D01*
X107122737Y-112511415D01*
X107223927Y-112559034D01*
X107242398Y-112565603D01*
X107244788Y-112565715D01*
X107246998Y-112566631D01*
X107266507Y-112568552D01*
X107409364Y-112568552D01*
X107428873Y-112566631D01*
X107433413Y-112564750D01*
X107438305Y-112564273D01*
X107456423Y-112556787D01*
X107545709Y-112509168D01*
X107562019Y-112498293D01*
X107586799Y-112468154D01*
X107598160Y-112430826D01*
X107594371Y-112391992D01*
X107576010Y-112357564D01*
X107545871Y-112332784D01*
X107508543Y-112321423D01*
X107469709Y-112325212D01*
X107451592Y-112332697D01*
X107384364Y-112368552D01*
X107288861Y-112368552D01*
X107220959Y-112336598D01*
X107188926Y-112308124D01*
X107148712Y-112243782D01*
X107147642Y-112235219D01*
X107320079Y-112235219D01*
X107339588Y-112233298D01*
X107344128Y-112231417D01*
X107349020Y-112230940D01*
X107367138Y-112223454D01*
X107456423Y-112175835D01*
X107468556Y-112167744D01*
X107470330Y-112166867D01*
X107471453Y-112165812D01*
X107472733Y-112164959D01*
X107473986Y-112163434D01*
X107484622Y-112153450D01*
X107526289Y-112105830D01*
X107534620Y-112094176D01*
X107536015Y-112092684D01*
X107536736Y-112091217D01*
X107537690Y-112089883D01*
X107538346Y-112087941D01*
X107544664Y-112075092D01*
X107580378Y-111979854D01*
X107585429Y-111960913D01*
X107585273Y-111956343D01*
X107586486Y-111951935D01*
X107585973Y-111932338D01*
X107550259Y-111646625D01*
X107545933Y-111627505D01*
X107544889Y-111625669D01*
X107544541Y-111623589D01*
X107535831Y-111606028D01*
X107534698Y-111604216D01*
X107773909Y-111604216D01*
X107774422Y-111623812D01*
X107839898Y-112147622D01*
X107844224Y-112166742D01*
X107863512Y-112200660D01*
X107894311Y-112224615D01*
X107931933Y-112234960D01*
X107970649Y-112230120D01*
X108004567Y-112210833D01*
X108028522Y-112180034D01*
X108038867Y-112142412D01*
X108038354Y-112122815D01*
X107975933Y-111623452D01*
X107989739Y-111586637D01*
X108023650Y-111568552D01*
X108119154Y-111568552D01*
X108187051Y-111600503D01*
X108201708Y-111613531D01*
X108268470Y-112147622D01*
X108272796Y-112166742D01*
X108292084Y-112200660D01*
X108322883Y-112224615D01*
X108360505Y-112234960D01*
X108399222Y-112230121D01*
X108433139Y-112210833D01*
X108457094Y-112180034D01*
X108467439Y-112142412D01*
X108466926Y-112122815D01*
X108384243Y-111461359D01*
X108660813Y-111461359D01*
X108661326Y-111480956D01*
X108744660Y-112147622D01*
X108748986Y-112166742D01*
X108768274Y-112200660D01*
X108799073Y-112224615D01*
X108836695Y-112234960D01*
X108875412Y-112230121D01*
X108909329Y-112210833D01*
X108933284Y-112180034D01*
X108943629Y-112142412D01*
X108943116Y-112122815D01*
X108859782Y-111456148D01*
X108858174Y-111449043D01*
X108995809Y-111449043D01*
X108995809Y-111488061D01*
X109010741Y-111524109D01*
X109038331Y-111551699D01*
X109074379Y-111566631D01*
X109093888Y-111568552D01*
X109166773Y-111568552D01*
X109234670Y-111600503D01*
X109266706Y-111628979D01*
X109306919Y-111693320D01*
X109363708Y-112147622D01*
X109368034Y-112166742D01*
X109387322Y-112200660D01*
X109418121Y-112224615D01*
X109455743Y-112234960D01*
X109494460Y-112230121D01*
X109528377Y-112210833D01*
X109552332Y-112180034D01*
X109562677Y-112142412D01*
X109562164Y-112122815D01*
X109503291Y-111651835D01*
X109732242Y-111651835D01*
X109732755Y-111671432D01*
X109768470Y-111957146D01*
X109772796Y-111976266D01*
X109773838Y-111978099D01*
X109774187Y-111980180D01*
X109782898Y-111997741D01*
X109842421Y-112092980D01*
X109846455Y-112098213D01*
X109847479Y-112100324D01*
X109851121Y-112104265D01*
X109854390Y-112108505D01*
X109856295Y-112109863D01*
X109860784Y-112114721D01*
X109914356Y-112162340D01*
X109919787Y-112166287D01*
X109921379Y-112168037D01*
X109925932Y-112170754D01*
X109930214Y-112173866D01*
X109932444Y-112174639D01*
X109938213Y-112178082D01*
X110039403Y-112225701D01*
X110057874Y-112232270D01*
X110060264Y-112232382D01*
X110062474Y-112233298D01*
X110081983Y-112235219D01*
X110272460Y-112235219D01*
X110279334Y-112234542D01*
X110310136Y-112480955D01*
X110314462Y-112500075D01*
X110333750Y-112533993D01*
X110364549Y-112557948D01*
X110402171Y-112568293D01*
X110440888Y-112563454D01*
X110474805Y-112544166D01*
X110498760Y-112513367D01*
X110509105Y-112475745D01*
X110508592Y-112456148D01*
X110383592Y-111456149D01*
X110379266Y-111437028D01*
X110359978Y-111403111D01*
X110329179Y-111379156D01*
X110291557Y-111368811D01*
X110252840Y-111373650D01*
X110239017Y-111381510D01*
X110231705Y-111378070D01*
X110213235Y-111371501D01*
X110210844Y-111371388D01*
X110208635Y-111370473D01*
X110189126Y-111368552D01*
X109998650Y-111368552D01*
X109979141Y-111370473D01*
X109974600Y-111372353D01*
X109969709Y-111372831D01*
X109951592Y-111380316D01*
X109862305Y-111427936D01*
X109850167Y-111436029D01*
X109848398Y-111436904D01*
X109847277Y-111437955D01*
X109845995Y-111438811D01*
X109844737Y-111440340D01*
X109834106Y-111450321D01*
X109792440Y-111497940D01*
X109784111Y-111509589D01*
X109782714Y-111511085D01*
X109781991Y-111512555D01*
X109781039Y-111513887D01*
X109780383Y-111515825D01*
X109774065Y-111528677D01*
X109738350Y-111623915D01*
X109733299Y-111642856D01*
X109733454Y-111647426D01*
X109732242Y-111651835D01*
X109503291Y-111651835D01*
X109478830Y-111456148D01*
X109474504Y-111437028D01*
X109455216Y-111403111D01*
X109424417Y-111379156D01*
X109386795Y-111368811D01*
X109348078Y-111373650D01*
X109314161Y-111392938D01*
X109300533Y-111410459D01*
X109231705Y-111378070D01*
X109213235Y-111371501D01*
X109210844Y-111371388D01*
X109208635Y-111370473D01*
X109189126Y-111368552D01*
X109093888Y-111368552D01*
X109074379Y-111370473D01*
X109038331Y-111385405D01*
X109010741Y-111412995D01*
X108995809Y-111449043D01*
X108858174Y-111449043D01*
X108855456Y-111437028D01*
X108836168Y-111403111D01*
X108805369Y-111379156D01*
X108767747Y-111368811D01*
X108729030Y-111373650D01*
X108695113Y-111392938D01*
X108671158Y-111423737D01*
X108660813Y-111461359D01*
X108384243Y-111461359D01*
X108383592Y-111456148D01*
X108379266Y-111437028D01*
X108359978Y-111403111D01*
X108329179Y-111379156D01*
X108291557Y-111368811D01*
X108252840Y-111373650D01*
X108218923Y-111392938D01*
X108218054Y-111394054D01*
X108184086Y-111378070D01*
X108165616Y-111371501D01*
X108163225Y-111371388D01*
X108161016Y-111370473D01*
X108141507Y-111368552D01*
X107998650Y-111368552D01*
X107979141Y-111370473D01*
X107974600Y-111372353D01*
X107969709Y-111372831D01*
X107951592Y-111380316D01*
X107862305Y-111427936D01*
X107853396Y-111433875D01*
X107851018Y-111434957D01*
X107849766Y-111436296D01*
X107845995Y-111438811D01*
X107835569Y-111451491D01*
X107824380Y-111463467D01*
X107822382Y-111467530D01*
X107821215Y-111468950D01*
X107820452Y-111471455D01*
X107815731Y-111481059D01*
X107780017Y-111576297D01*
X107774966Y-111595238D01*
X107775121Y-111599807D01*
X107773909Y-111604216D01*
X107534698Y-111604216D01*
X107476307Y-111510790D01*
X107472271Y-111505555D01*
X107471249Y-111503446D01*
X107467609Y-111499508D01*
X107464338Y-111495264D01*
X107462430Y-111493903D01*
X107457944Y-111489049D01*
X107404373Y-111441430D01*
X107398940Y-111437481D01*
X107397350Y-111435734D01*
X107392798Y-111433018D01*
X107388515Y-111429905D01*
X107386284Y-111429131D01*
X107380516Y-111425689D01*
X107279324Y-111378070D01*
X107260854Y-111371501D01*
X107258463Y-111371388D01*
X107256254Y-111370473D01*
X107236745Y-111368552D01*
X107046269Y-111368552D01*
X107026760Y-111370473D01*
X107022219Y-111372353D01*
X107017328Y-111372831D01*
X106999211Y-111380316D01*
X106998099Y-111380908D01*
X106995846Y-111379156D01*
X106958224Y-111368811D01*
X106919508Y-111373650D01*
X106885590Y-111392938D01*
X106861635Y-111423737D01*
X106851290Y-111461359D01*
X105311705Y-111461359D01*
X105280492Y-111393259D01*
X105273552Y-111337738D01*
X105294225Y-111282610D01*
X105311856Y-111262460D01*
X105362935Y-111235219D01*
X105553677Y-111235219D01*
X105621575Y-111267171D01*
X105664356Y-111305198D01*
X105680213Y-111316723D01*
X105717076Y-111329512D01*
X105756027Y-111327221D01*
X105791136Y-111310199D01*
X105817058Y-111281036D01*
X105829847Y-111244174D01*
X105827556Y-111205223D01*
X105810534Y-111170113D01*
X105810333Y-111169896D01*
X108578062Y-111169896D01*
X108579333Y-111188978D01*
X108580457Y-111208072D01*
X108580630Y-111208429D01*
X108580657Y-111208828D01*
X108589141Y-111225985D01*
X108597479Y-111243182D01*
X108597838Y-111243570D01*
X108597953Y-111243803D01*
X108598475Y-111244259D01*
X108610784Y-111257579D01*
X108664356Y-111305198D01*
X108680213Y-111316723D01*
X108680587Y-111316852D01*
X108680888Y-111317116D01*
X108683664Y-111318054D01*
X108685976Y-111319853D01*
X108701687Y-111324173D01*
X108717076Y-111329512D01*
X108717473Y-111329488D01*
X108717850Y-111329616D01*
X108720772Y-111329421D01*
X108723598Y-111330198D01*
X108739763Y-111328177D01*
X108756027Y-111327221D01*
X108756384Y-111327047D01*
X108756782Y-111327021D01*
X108759408Y-111325722D01*
X108762315Y-111325359D01*
X108776469Y-111317309D01*
X108791136Y-111310199D01*
X108791400Y-111309901D01*
X108791757Y-111309725D01*
X108794752Y-111306912D01*
X108796233Y-111306071D01*
X108797812Y-111304040D01*
X108806049Y-111296308D01*
X108847716Y-111248689D01*
X108858266Y-111233932D01*
X108858725Y-111233417D01*
X108858809Y-111233173D01*
X108859118Y-111232742D01*
X108865250Y-111214607D01*
X108871487Y-111196633D01*
X110578178Y-111196633D01*
X110590996Y-111233485D01*
X110616942Y-111262627D01*
X110652064Y-111279622D01*
X110691017Y-111281882D01*
X110710074Y-111277288D01*
X110831022Y-111235219D01*
X111029868Y-111235219D01*
X111097766Y-111267171D01*
X111129801Y-111295646D01*
X111170015Y-111359988D01*
X111176128Y-111408890D01*
X111155455Y-111464017D01*
X111137825Y-111484166D01*
X111075211Y-111517560D01*
X110902234Y-111562200D01*
X110899545Y-111563183D01*
X110898281Y-111563307D01*
X110891113Y-111566268D01*
X110883824Y-111568935D01*
X110882808Y-111569699D01*
X110880164Y-111570792D01*
X110790877Y-111618412D01*
X110778742Y-111626503D01*
X110776971Y-111627379D01*
X110775849Y-111628431D01*
X110774567Y-111629287D01*
X110773309Y-111630815D01*
X110762679Y-111640796D01*
X110721012Y-111688415D01*
X110712677Y-111700071D01*
X110711285Y-111701562D01*
X110710565Y-111703025D01*
X110709610Y-111704362D01*
X110708952Y-111706306D01*
X110702636Y-111719154D01*
X110666922Y-111814392D01*
X110661871Y-111833333D01*
X110662026Y-111837902D01*
X110660814Y-111842311D01*
X110661327Y-111861908D01*
X110673232Y-111957146D01*
X110677558Y-111976266D01*
X110678600Y-111978099D01*
X110678949Y-111980180D01*
X110687660Y-111997741D01*
X110747183Y-112092980D01*
X110751217Y-112098213D01*
X110752241Y-112100324D01*
X110755883Y-112104265D01*
X110759152Y-112108505D01*
X110761057Y-112109863D01*
X110765546Y-112114721D01*
X110819118Y-112162340D01*
X110824549Y-112166287D01*
X110826141Y-112168037D01*
X110830694Y-112170754D01*
X110834976Y-112173866D01*
X110837206Y-112174639D01*
X110842975Y-112178082D01*
X110944165Y-112225701D01*
X110962636Y-112232270D01*
X110965026Y-112232382D01*
X110967236Y-112233298D01*
X110986745Y-112235219D01*
X111224841Y-112235219D01*
X111236064Y-112234113D01*
X111238636Y-112234263D01*
X111241457Y-112233582D01*
X111244350Y-112233298D01*
X111246731Y-112232311D01*
X111257693Y-112229669D01*
X111394597Y-112182050D01*
X111412392Y-112173826D01*
X111441534Y-112147880D01*
X111458529Y-112112758D01*
X111460789Y-112073805D01*
X111447971Y-112036953D01*
X111422025Y-112007811D01*
X111386903Y-111990816D01*
X111347950Y-111988556D01*
X111328893Y-111993150D01*
X111207945Y-112035219D01*
X111009099Y-112035219D01*
X110941200Y-112003266D01*
X110909162Y-111974787D01*
X110868951Y-111910450D01*
X110862838Y-111861546D01*
X110883511Y-111806419D01*
X110901142Y-111786270D01*
X110963755Y-111752876D01*
X111136733Y-111708237D01*
X111139421Y-111707253D01*
X111140686Y-111707130D01*
X111147848Y-111704170D01*
X111155143Y-111701502D01*
X111156159Y-111700736D01*
X111158804Y-111699644D01*
X111248090Y-111652025D01*
X111260224Y-111643933D01*
X111261996Y-111643058D01*
X111263117Y-111642005D01*
X111264400Y-111641150D01*
X111265657Y-111639621D01*
X111276288Y-111629641D01*
X111317955Y-111582022D01*
X111326289Y-111570365D01*
X111327682Y-111568875D01*
X111328401Y-111567411D01*
X111329357Y-111566075D01*
X111330014Y-111564130D01*
X111336331Y-111551283D01*
X111372045Y-111456045D01*
X111377096Y-111437104D01*
X111376940Y-111432534D01*
X111378153Y-111428126D01*
X111377640Y-111408529D01*
X111365735Y-111313291D01*
X111361409Y-111294171D01*
X111360365Y-111292335D01*
X111360017Y-111290256D01*
X111351307Y-111272695D01*
X111291783Y-111177457D01*
X111287747Y-111172222D01*
X111286725Y-111170113D01*
X111283085Y-111166175D01*
X111279814Y-111161931D01*
X111277906Y-111160570D01*
X111273420Y-111155716D01*
X111219849Y-111108097D01*
X111214416Y-111104148D01*
X111212826Y-111102401D01*
X111208274Y-111099685D01*
X111203991Y-111096572D01*
X111201760Y-111095798D01*
X111195992Y-111092356D01*
X111094802Y-111044737D01*
X111076332Y-111038168D01*
X111073940Y-111038055D01*
X111071731Y-111037140D01*
X111052222Y-111035219D01*
X110814126Y-111035219D01*
X110802902Y-111036324D01*
X110800331Y-111036175D01*
X110797509Y-111036855D01*
X110794617Y-111037140D01*
X110792235Y-111038126D01*
X110781274Y-111040769D01*
X110644370Y-111088388D01*
X110626575Y-111096612D01*
X110597433Y-111122558D01*
X110580438Y-111157680D01*
X110578178Y-111196633D01*
X108871487Y-111196633D01*
X108871514Y-111196555D01*
X108871490Y-111196156D01*
X108871618Y-111195780D01*
X108870345Y-111176693D01*
X108869223Y-111157604D01*
X108869049Y-111157246D01*
X108869023Y-111156848D01*
X108860538Y-111139690D01*
X108852201Y-111122494D01*
X108851841Y-111122105D01*
X108851727Y-111121873D01*
X108851204Y-111121416D01*
X108838896Y-111108097D01*
X108785325Y-111060478D01*
X108769467Y-111048953D01*
X108769092Y-111048823D01*
X108768792Y-111048560D01*
X108766015Y-111047621D01*
X108763704Y-111045823D01*
X108747992Y-111041502D01*
X108732604Y-111036164D01*
X108732206Y-111036187D01*
X108731830Y-111036060D01*
X108728907Y-111036254D01*
X108726082Y-111035478D01*
X108709916Y-111037498D01*
X108693654Y-111038455D01*
X108693296Y-111038628D01*
X108692899Y-111038655D01*
X108690273Y-111039953D01*
X108687365Y-111040317D01*
X108673207Y-111048367D01*
X108658544Y-111055477D01*
X108658279Y-111055774D01*
X108657923Y-111055951D01*
X108654927Y-111058763D01*
X108653447Y-111059605D01*
X108651867Y-111061635D01*
X108643631Y-111069368D01*
X108601964Y-111116987D01*
X108591413Y-111131743D01*
X108590955Y-111132259D01*
X108590870Y-111132502D01*
X108590562Y-111132934D01*
X108584422Y-111151088D01*
X108578166Y-111169122D01*
X108578189Y-111169519D01*
X108578062Y-111169896D01*
X105810333Y-111169896D01*
X105797229Y-111155716D01*
X105743658Y-111108097D01*
X105738225Y-111104148D01*
X105736635Y-111102401D01*
X105732083Y-111099685D01*
X105727800Y-111096572D01*
X105725569Y-111095798D01*
X105719801Y-111092356D01*
X105618611Y-111044737D01*
X105600141Y-111038168D01*
X105597749Y-111038055D01*
X105595540Y-111037140D01*
X105576031Y-111035219D01*
X105337935Y-111035219D01*
X105318426Y-111037140D01*
X105313885Y-111039020D01*
X105308994Y-111039498D01*
X105290876Y-111046984D01*
X105201591Y-111094603D01*
X105189460Y-111102692D01*
X105187685Y-111103570D01*
X105186559Y-111104626D01*
X105185281Y-111105479D01*
X105184027Y-111107003D01*
X105173393Y-111116987D01*
X105131726Y-111164606D01*
X105123391Y-111176262D01*
X105121999Y-111177753D01*
X105121279Y-111179216D01*
X105120324Y-111180553D01*
X105119666Y-111182497D01*
X105113350Y-111195345D01*
X105077636Y-111290583D01*
X105072585Y-111309524D01*
X105072740Y-111314092D01*
X105071528Y-111318501D01*
X104846800Y-111318501D01*
X104836330Y-111290582D01*
X104836226Y-111290370D01*
X104836207Y-111290256D01*
X104831948Y-111281670D01*
X104827681Y-111272990D01*
X104827600Y-111272904D01*
X104827497Y-111272695D01*
X104767973Y-111177457D01*
X104763937Y-111172222D01*
X104762915Y-111170113D01*
X104759275Y-111166175D01*
X104756004Y-111161931D01*
X104754096Y-111160570D01*
X104749610Y-111155716D01*
X104696039Y-111108097D01*
X104690606Y-111104148D01*
X104689016Y-111102401D01*
X104684464Y-111099685D01*
X104680181Y-111096572D01*
X104677950Y-111095798D01*
X104672182Y-111092356D01*
X104570990Y-111044737D01*
X104552520Y-111038168D01*
X104550129Y-111038055D01*
X104547920Y-111037140D01*
X104528411Y-111035219D01*
X104433173Y-111035219D01*
X104413664Y-111037140D01*
X104409123Y-111039020D01*
X104404232Y-111039498D01*
X104386114Y-111046984D01*
X104296829Y-111094603D01*
X104284698Y-111102692D01*
X104282923Y-111103570D01*
X104281797Y-111104626D01*
X104280519Y-111105479D01*
X104279265Y-111107003D01*
X104268631Y-111116987D01*
X104226964Y-111164606D01*
X104218629Y-111176262D01*
X104217237Y-111177753D01*
X104216517Y-111179216D01*
X104215562Y-111180553D01*
X104214904Y-111182497D01*
X104208588Y-111195345D01*
X104172874Y-111290583D01*
X104172192Y-111293139D01*
X104171605Y-111294172D01*
X104169858Y-111301889D01*
X104167823Y-111309524D01*
X104167863Y-111310709D01*
X104167279Y-111313292D01*
X104143469Y-111503767D01*
X104143372Y-111507464D01*
X104142956Y-111508978D01*
X103432744Y-111508978D01*
X103426035Y-111503014D01*
X103375730Y-111393259D01*
X103368790Y-111337738D01*
X103389463Y-111282610D01*
X103407094Y-111262460D01*
X103458173Y-111235219D01*
X103648915Y-111235219D01*
X103716813Y-111267171D01*
X103759594Y-111305198D01*
X103775451Y-111316723D01*
X103812314Y-111329512D01*
X103851265Y-111327221D01*
X103886374Y-111310199D01*
X103912296Y-111281036D01*
X103925085Y-111244174D01*
X103922794Y-111205223D01*
X103905772Y-111170113D01*
X103892467Y-111155716D01*
X103838896Y-111108097D01*
X103833463Y-111104148D01*
X103831873Y-111102401D01*
X103827321Y-111099685D01*
X103823038Y-111096572D01*
X103820807Y-111095798D01*
X103815039Y-111092356D01*
X103713849Y-111044737D01*
X103695379Y-111038168D01*
X103692987Y-111038055D01*
X103690778Y-111037140D01*
X103671269Y-111035219D01*
X103433173Y-111035219D01*
X103413664Y-111037140D01*
X103409123Y-111039020D01*
X103404232Y-111039498D01*
X103386114Y-111046984D01*
X103296829Y-111094603D01*
X103284698Y-111102692D01*
X103282923Y-111103570D01*
X103281797Y-111104626D01*
X103280519Y-111105479D01*
X103279265Y-111107003D01*
X103268631Y-111116987D01*
X103226964Y-111164606D01*
X103218629Y-111176262D01*
X103217237Y-111177753D01*
X103216517Y-111179216D01*
X103215562Y-111180553D01*
X103214904Y-111182497D01*
X103208588Y-111195345D01*
X103172874Y-111290583D01*
X103167823Y-111309524D01*
X103167978Y-111314092D01*
X103166766Y-111318501D01*
X102957865Y-111318501D01*
X102911687Y-111113268D01*
X102905530Y-111094656D01*
X102900568Y-111087616D01*
X102897273Y-111079662D01*
X102889437Y-111071826D01*
X102883050Y-111062765D01*
X102875771Y-111058160D01*
X102869683Y-111052072D01*
X102859441Y-111047829D01*
X102850076Y-111041905D01*
X102841593Y-111040436D01*
X102833635Y-111037140D01*
X102814126Y-111035219D01*
X102337935Y-111035219D01*
X102318426Y-111037140D01*
X102282378Y-111052072D01*
X102254788Y-111079662D01*
X102239856Y-111115710D01*
X95872792Y-111115710D01*
X95872792Y-110515382D01*
X96172948Y-110515382D01*
X96176736Y-110554216D01*
X96195098Y-110588644D01*
X96225237Y-110613424D01*
X96262564Y-110624784D01*
X96301398Y-110620996D01*
X96319516Y-110613510D01*
X96408801Y-110565891D01*
X96417704Y-110559953D01*
X96420087Y-110558871D01*
X96421340Y-110557528D01*
X96425111Y-110555015D01*
X96435525Y-110542347D01*
X96446726Y-110530361D01*
X96448726Y-110526292D01*
X96449891Y-110524876D01*
X96450652Y-110522375D01*
X96454090Y-110515382D01*
X96696758Y-110515382D01*
X96700546Y-110554216D01*
X96718908Y-110588644D01*
X96749047Y-110613424D01*
X96786374Y-110624784D01*
X96825208Y-110620996D01*
X96843326Y-110613510D01*
X96932611Y-110565891D01*
X96941514Y-110559953D01*
X96943897Y-110558871D01*
X96945150Y-110557528D01*
X96948921Y-110555015D01*
X96959335Y-110542347D01*
X96970536Y-110530361D01*
X96972536Y-110526292D01*
X96973701Y-110524876D01*
X96974462Y-110522375D01*
X96979185Y-110512769D01*
X97014900Y-110417530D01*
X97019951Y-110398589D01*
X97019795Y-110394018D01*
X97021008Y-110389610D01*
X97020495Y-110370013D01*
X96973527Y-109994272D01*
X97250097Y-109994272D01*
X97250610Y-110013868D01*
X97316086Y-110537678D01*
X97320412Y-110556798D01*
X97339700Y-110590716D01*
X97370499Y-110614671D01*
X97408121Y-110625016D01*
X97446837Y-110620176D01*
X97460659Y-110612315D01*
X97467972Y-110615757D01*
X97486443Y-110622326D01*
X97488833Y-110622438D01*
X97491043Y-110623354D01*
X97510552Y-110625275D01*
X97748648Y-110625275D01*
X97768157Y-110623354D01*
X97772697Y-110621473D01*
X97777589Y-110620996D01*
X97795707Y-110613510D01*
X97884992Y-110565891D01*
X97893895Y-110559953D01*
X97896278Y-110558871D01*
X97897531Y-110557528D01*
X97901302Y-110555015D01*
X97911716Y-110542347D01*
X97922917Y-110530361D01*
X97924917Y-110526292D01*
X97926082Y-110524876D01*
X97926843Y-110522375D01*
X97931566Y-110512769D01*
X97967281Y-110417530D01*
X97972332Y-110398589D01*
X97972176Y-110394018D01*
X97973389Y-110389610D01*
X97972876Y-110370013D01*
X97960971Y-110274775D01*
X97956645Y-110255655D01*
X97955601Y-110253819D01*
X97955253Y-110251740D01*
X97946543Y-110234179D01*
X97887019Y-110138941D01*
X97875050Y-110123415D01*
X97867704Y-110118176D01*
X97861633Y-110111504D01*
X97844799Y-110101459D01*
X97743609Y-110053840D01*
X97725139Y-110047271D01*
X97722747Y-110047158D01*
X97720538Y-110046243D01*
X97701029Y-110044322D01*
X97485287Y-110044322D01*
X97454141Y-110029665D01*
X97452121Y-110013508D01*
X97465927Y-109976693D01*
X97499838Y-109958608D01*
X97642961Y-109958608D01*
X97723926Y-109996709D01*
X97742396Y-110003278D01*
X97781371Y-110005116D01*
X97818083Y-109991900D01*
X97846942Y-109965641D01*
X97863556Y-109930337D01*
X97865394Y-109891362D01*
X97852178Y-109854650D01*
X97825919Y-109825790D01*
X97809085Y-109815745D01*
X97707893Y-109768126D01*
X97689423Y-109761557D01*
X97687032Y-109761444D01*
X97684823Y-109760529D01*
X97665314Y-109758608D01*
X97474838Y-109758608D01*
X97455329Y-109760529D01*
X97450788Y-109762409D01*
X97445897Y-109762887D01*
X97427780Y-109770372D01*
X97338493Y-109817992D01*
X97329584Y-109823931D01*
X97327206Y-109825013D01*
X97325954Y-109826352D01*
X97322183Y-109828867D01*
X97311757Y-109841547D01*
X97300568Y-109853523D01*
X97298570Y-109857586D01*
X97297403Y-109859006D01*
X97296640Y-109861511D01*
X97291919Y-109871115D01*
X97256205Y-109966353D01*
X97251154Y-109985294D01*
X97251309Y-109989863D01*
X97250097Y-109994272D01*
X96973527Y-109994272D01*
X96937813Y-109708557D01*
X98119145Y-109708557D01*
X98119658Y-109728154D01*
X98131562Y-109823392D01*
X98135888Y-109842512D01*
X98136930Y-109844345D01*
X98137279Y-109846427D01*
X98145990Y-109863989D01*
X98205514Y-109959227D01*
X98209550Y-109964462D01*
X98210573Y-109966572D01*
X98214212Y-109970510D01*
X98217483Y-109974752D01*
X98219389Y-109976111D01*
X98223878Y-109980968D01*
X98230075Y-109986476D01*
X98191247Y-110030853D01*
X98182918Y-110042502D01*
X98181521Y-110043998D01*
X98180798Y-110045468D01*
X98179846Y-110046800D01*
X98179190Y-110048738D01*
X98172872Y-110061590D01*
X98137157Y-110156828D01*
X98132106Y-110175769D01*
X98132261Y-110180339D01*
X98131049Y-110184748D01*
X98131562Y-110204345D01*
X98149420Y-110347202D01*
X98153746Y-110366322D01*
X98154788Y-110368155D01*
X98155137Y-110370236D01*
X98163848Y-110387797D01*
X98223371Y-110483036D01*
X98227405Y-110488269D01*
X98228429Y-110490380D01*
X98232071Y-110494321D01*
X98235340Y-110498561D01*
X98237245Y-110499919D01*
X98241734Y-110504777D01*
X98295306Y-110552396D01*
X98300737Y-110556343D01*
X98302329Y-110558093D01*
X98306882Y-110560810D01*
X98311164Y-110563922D01*
X98313394Y-110564695D01*
X98319163Y-110568138D01*
X98420353Y-110615757D01*
X98438824Y-110622326D01*
X98441214Y-110622438D01*
X98443424Y-110623354D01*
X98462933Y-110625275D01*
X98843886Y-110625275D01*
X98863395Y-110623354D01*
X98869187Y-110620954D01*
X98875410Y-110620177D01*
X98887063Y-110613550D01*
X98899443Y-110608422D01*
X98903876Y-110603988D01*
X98909327Y-110600889D01*
X98917555Y-110590309D01*
X98927033Y-110580832D01*
X98929432Y-110575039D01*
X98933282Y-110570090D01*
X98936835Y-110557168D01*
X98941965Y-110544784D01*
X98941965Y-110538512D01*
X98943627Y-110532468D01*
X98943114Y-110512871D01*
X98878289Y-109994272D01*
X99869145Y-109994272D01*
X99869658Y-110013869D01*
X99881563Y-110109107D01*
X99885889Y-110128227D01*
X99887782Y-110131556D01*
X99888543Y-110135308D01*
X99897365Y-110148407D01*
X99905177Y-110162144D01*
X99908200Y-110164495D01*
X99910339Y-110167671D01*
X99923503Y-110176398D01*
X99935976Y-110186099D01*
X99939668Y-110187114D01*
X99942860Y-110189230D01*
X99961640Y-110194852D01*
X100378642Y-110276218D01*
X100390412Y-110370373D01*
X100376605Y-110407189D01*
X100342696Y-110425275D01*
X100199573Y-110425275D01*
X100118609Y-110387174D01*
X100100139Y-110380605D01*
X100061164Y-110378767D01*
X100024452Y-110391983D01*
X99995592Y-110418242D01*
X99978978Y-110453546D01*
X99977140Y-110492521D01*
X99990356Y-110529233D01*
X100016615Y-110558093D01*
X100033449Y-110568138D01*
X100134639Y-110615757D01*
X100153110Y-110622326D01*
X100155500Y-110622438D01*
X100157710Y-110623354D01*
X100177219Y-110625275D01*
X100367696Y-110625275D01*
X100387205Y-110623354D01*
X100391745Y-110621473D01*
X100396637Y-110620996D01*
X100414755Y-110613510D01*
X100504040Y-110565891D01*
X100512943Y-110559953D01*
X100515326Y-110558871D01*
X100516579Y-110557528D01*
X100520350Y-110555015D01*
X100530764Y-110542347D01*
X100541965Y-110530361D01*
X100543965Y-110526292D01*
X100545130Y-110524876D01*
X100545891Y-110522375D01*
X100550614Y-110512769D01*
X100586329Y-110417530D01*
X100591380Y-110398589D01*
X100591224Y-110394018D01*
X100592437Y-110389610D01*
X100591924Y-110370014D01*
X100544956Y-109994272D01*
X100726288Y-109994272D01*
X100726801Y-110013869D01*
X100738706Y-110109107D01*
X100743032Y-110128227D01*
X100744925Y-110131556D01*
X100745686Y-110135308D01*
X100754508Y-110148407D01*
X100762320Y-110162144D01*
X100765343Y-110164495D01*
X100767482Y-110167671D01*
X100780646Y-110176398D01*
X100793119Y-110186099D01*
X100796811Y-110187114D01*
X100800003Y-110189230D01*
X100818783Y-110194852D01*
X101235785Y-110276218D01*
X101247555Y-110370373D01*
X101233748Y-110407189D01*
X101199839Y-110425275D01*
X101056716Y-110425275D01*
X100975752Y-110387174D01*
X100957282Y-110380605D01*
X100918307Y-110378767D01*
X100881595Y-110391983D01*
X100852735Y-110418242D01*
X100836121Y-110453546D01*
X100834283Y-110492521D01*
X100847499Y-110529233D01*
X100873758Y-110558093D01*
X100890592Y-110568138D01*
X100991782Y-110615757D01*
X101010253Y-110622326D01*
X101012643Y-110622438D01*
X101014853Y-110623354D01*
X101034362Y-110625275D01*
X101224839Y-110625275D01*
X101244348Y-110623354D01*
X101248888Y-110621473D01*
X101253780Y-110620996D01*
X101271898Y-110613510D01*
X101361183Y-110565891D01*
X101370086Y-110559953D01*
X101372469Y-110558871D01*
X101373722Y-110557528D01*
X101377493Y-110555015D01*
X101387907Y-110542347D01*
X101399108Y-110530361D01*
X101401108Y-110526292D01*
X101402273Y-110524876D01*
X101403034Y-110522375D01*
X101407757Y-110512769D01*
X101443472Y-110417530D01*
X101448523Y-110398589D01*
X101448367Y-110394018D01*
X101449580Y-110389610D01*
X101449067Y-110370014D01*
X101401448Y-109989062D01*
X101397122Y-109969941D01*
X101396078Y-109968105D01*
X101395730Y-109966026D01*
X101387020Y-109948465D01*
X101327496Y-109853227D01*
X101321071Y-109844892D01*
X101566260Y-109844892D01*
X101568551Y-109883843D01*
X101585574Y-109918952D01*
X101598879Y-109933349D01*
X101857177Y-110162947D01*
X101663848Y-110472275D01*
X101655137Y-110489837D01*
X101648694Y-110528319D01*
X101657468Y-110566338D01*
X101680123Y-110598106D01*
X101713210Y-110618786D01*
X101751692Y-110625229D01*
X101789711Y-110616455D01*
X101821479Y-110593800D01*
X101833448Y-110578275D01*
X102001781Y-110308942D01*
X102030373Y-110537678D01*
X102034699Y-110556798D01*
X102053987Y-110590716D01*
X102084786Y-110614671D01*
X102122408Y-110625016D01*
X102161125Y-110620177D01*
X102195042Y-110600889D01*
X102218997Y-110570090D01*
X102229342Y-110532468D01*
X102228829Y-110512871D01*
X102113056Y-109586689D01*
X102340081Y-109586689D01*
X102352899Y-109623541D01*
X102378845Y-109652683D01*
X102413967Y-109669678D01*
X102452920Y-109671938D01*
X102471977Y-109667344D01*
X102592925Y-109625275D01*
X102791771Y-109625275D01*
X102859669Y-109657227D01*
X102891704Y-109685702D01*
X102931918Y-109750044D01*
X102938031Y-109798946D01*
X102917358Y-109854073D01*
X102899728Y-109874222D01*
X102837114Y-109907616D01*
X102664137Y-109952256D01*
X102661448Y-109953239D01*
X102660184Y-109953363D01*
X102653016Y-109956324D01*
X102645727Y-109958991D01*
X102644711Y-109959755D01*
X102642067Y-109960848D01*
X102552780Y-110008468D01*
X102540645Y-110016559D01*
X102538874Y-110017435D01*
X102537752Y-110018487D01*
X102536470Y-110019343D01*
X102535212Y-110020871D01*
X102524582Y-110030852D01*
X102482915Y-110078471D01*
X102474580Y-110090127D01*
X102473188Y-110091618D01*
X102472468Y-110093081D01*
X102471513Y-110094418D01*
X102470855Y-110096362D01*
X102464539Y-110109210D01*
X102428825Y-110204448D01*
X102423774Y-110223389D01*
X102423929Y-110227958D01*
X102422717Y-110232367D01*
X102423230Y-110251964D01*
X102435135Y-110347202D01*
X102439461Y-110366322D01*
X102440503Y-110368155D01*
X102440852Y-110370236D01*
X102449563Y-110387797D01*
X102509086Y-110483036D01*
X102513120Y-110488269D01*
X102514144Y-110490380D01*
X102517786Y-110494321D01*
X102521055Y-110498561D01*
X102522960Y-110499919D01*
X102527449Y-110504777D01*
X102581021Y-110552396D01*
X102586452Y-110556343D01*
X102588044Y-110558093D01*
X102592597Y-110560810D01*
X102596879Y-110563922D01*
X102599109Y-110564695D01*
X102604878Y-110568138D01*
X102706068Y-110615757D01*
X102724539Y-110622326D01*
X102726929Y-110622438D01*
X102729139Y-110623354D01*
X102748648Y-110625275D01*
X102986744Y-110625275D01*
X102997967Y-110624169D01*
X103000539Y-110624319D01*
X103003360Y-110623638D01*
X103006253Y-110623354D01*
X103008634Y-110622367D01*
X103019596Y-110619725D01*
X103156500Y-110572106D01*
X103174295Y-110563882D01*
X103203437Y-110537936D01*
X103220432Y-110502814D01*
X103222692Y-110463861D01*
X103209874Y-110427009D01*
X103183928Y-110397867D01*
X103148806Y-110380872D01*
X103109853Y-110378612D01*
X103090796Y-110383206D01*
X102969848Y-110425275D01*
X102771002Y-110425275D01*
X102703103Y-110393322D01*
X102671065Y-110364843D01*
X102630854Y-110300506D01*
X102624741Y-110251602D01*
X102645414Y-110196475D01*
X102663045Y-110176326D01*
X102725658Y-110142932D01*
X102898636Y-110098293D01*
X102901324Y-110097309D01*
X102902589Y-110097186D01*
X102909751Y-110094226D01*
X102917046Y-110091558D01*
X102918062Y-110090792D01*
X102920707Y-110089700D01*
X103009993Y-110042081D01*
X103022127Y-110033989D01*
X103023899Y-110033114D01*
X103025020Y-110032061D01*
X103026303Y-110031206D01*
X103027560Y-110029677D01*
X103038191Y-110019697D01*
X103079858Y-109972078D01*
X103088192Y-109960421D01*
X103089585Y-109958931D01*
X103090304Y-109957467D01*
X103091260Y-109956131D01*
X103091917Y-109954186D01*
X103098234Y-109941339D01*
X103115111Y-109896334D01*
X104095568Y-109896334D01*
X104099356Y-109935168D01*
X104117717Y-109969596D01*
X104147856Y-109994376D01*
X104185184Y-110005736D01*
X104224018Y-110001948D01*
X104242136Y-109994462D01*
X104309363Y-109958608D01*
X104452486Y-109958608D01*
X104520383Y-109990559D01*
X104552419Y-110019035D01*
X104592633Y-110083377D01*
X104622555Y-110322754D01*
X104601882Y-110377882D01*
X104584250Y-110398033D01*
X104533173Y-110425275D01*
X104390050Y-110425275D01*
X104309086Y-110387174D01*
X104290616Y-110380605D01*
X104251641Y-110378767D01*
X104214929Y-110391983D01*
X104186069Y-110418242D01*
X104169455Y-110453546D01*
X104167617Y-110492521D01*
X104180833Y-110529233D01*
X104207092Y-110558093D01*
X104223926Y-110568138D01*
X104325116Y-110615757D01*
X104343587Y-110622326D01*
X104345977Y-110622438D01*
X104348187Y-110623354D01*
X104367696Y-110625275D01*
X104558173Y-110625275D01*
X104577682Y-110623354D01*
X104582222Y-110621473D01*
X104587114Y-110620996D01*
X104605232Y-110613510D01*
X104694517Y-110565891D01*
X104706650Y-110557800D01*
X104708424Y-110556923D01*
X104709547Y-110555868D01*
X104710827Y-110555015D01*
X104712080Y-110553490D01*
X104722716Y-110543506D01*
X104764383Y-110495886D01*
X104772714Y-110484232D01*
X104774109Y-110482740D01*
X104774830Y-110481273D01*
X104775784Y-110479939D01*
X104776440Y-110477997D01*
X104782758Y-110465148D01*
X104818472Y-110369910D01*
X104823523Y-110350969D01*
X104823367Y-110346399D01*
X104824580Y-110341991D01*
X104824067Y-110322394D01*
X104788353Y-110036681D01*
X104784027Y-110017561D01*
X104782983Y-110015725D01*
X104782635Y-110013645D01*
X104773925Y-109996084D01*
X104714401Y-109900846D01*
X104710365Y-109895611D01*
X104709343Y-109893502D01*
X104705703Y-109889564D01*
X104702432Y-109885320D01*
X104700524Y-109883959D01*
X104696038Y-109879105D01*
X104664887Y-109851415D01*
X104994145Y-109851415D01*
X104994658Y-109871012D01*
X105077992Y-110537678D01*
X105082318Y-110556798D01*
X105101606Y-110590716D01*
X105132405Y-110614671D01*
X105170027Y-110625016D01*
X105208744Y-110620177D01*
X105242661Y-110600889D01*
X105266616Y-110570090D01*
X105276961Y-110532468D01*
X105276448Y-110512871D01*
X105211623Y-109994272D01*
X105488193Y-109994272D01*
X105488706Y-110013868D01*
X105554182Y-110537678D01*
X105558508Y-110556798D01*
X105577796Y-110590716D01*
X105608595Y-110614671D01*
X105646217Y-110625016D01*
X105684933Y-110620176D01*
X105718851Y-110600889D01*
X105742806Y-110570090D01*
X105753151Y-110532468D01*
X105752638Y-110512871D01*
X105690217Y-110013508D01*
X105704023Y-109976693D01*
X105737934Y-109958608D01*
X105833438Y-109958608D01*
X105901335Y-109990559D01*
X105915992Y-110003587D01*
X105982754Y-110537678D01*
X105987080Y-110556798D01*
X106006368Y-110590716D01*
X106037167Y-110614671D01*
X106074789Y-110625016D01*
X106113506Y-110620177D01*
X106147423Y-110600889D01*
X106171378Y-110570090D01*
X106181723Y-110532468D01*
X106181210Y-110512871D01*
X106122337Y-110041891D01*
X106351288Y-110041891D01*
X106351801Y-110061488D01*
X106387516Y-110347202D01*
X106391842Y-110366322D01*
X106392884Y-110368155D01*
X106393233Y-110370236D01*
X106401944Y-110387797D01*
X106461467Y-110483036D01*
X106465501Y-110488269D01*
X106466525Y-110490380D01*
X106470167Y-110494321D01*
X106473436Y-110498561D01*
X106475341Y-110499919D01*
X106479830Y-110504777D01*
X106533402Y-110552396D01*
X106538833Y-110556343D01*
X106540425Y-110558093D01*
X106544978Y-110560810D01*
X106549260Y-110563922D01*
X106551490Y-110564695D01*
X106557259Y-110568138D01*
X106658449Y-110615757D01*
X106676920Y-110622326D01*
X106679310Y-110622438D01*
X106681520Y-110623354D01*
X106701029Y-110625275D01*
X106843887Y-110625275D01*
X106863396Y-110623354D01*
X106867936Y-110621473D01*
X106872828Y-110620996D01*
X106890946Y-110613510D01*
X106980231Y-110565891D01*
X106992364Y-110557800D01*
X106994138Y-110556923D01*
X106995261Y-110555868D01*
X106996541Y-110555015D01*
X106997794Y-110553490D01*
X107008430Y-110543506D01*
X107050097Y-110495886D01*
X107058428Y-110484232D01*
X107059823Y-110482740D01*
X107060544Y-110481273D01*
X107061498Y-110479939D01*
X107062154Y-110477997D01*
X107068472Y-110465148D01*
X107104186Y-110369910D01*
X107109237Y-110350969D01*
X107109081Y-110346399D01*
X107110294Y-110341991D01*
X107109781Y-110322394D01*
X107074067Y-110036681D01*
X107069741Y-110017561D01*
X107068697Y-110015725D01*
X107068349Y-110013645D01*
X107059639Y-109996084D01*
X107000115Y-109900846D01*
X106996079Y-109895611D01*
X106995057Y-109893502D01*
X106991417Y-109889564D01*
X106988146Y-109885320D01*
X106986238Y-109883959D01*
X106981752Y-109879105D01*
X106936746Y-109839099D01*
X107138665Y-109839099D01*
X107138665Y-109878117D01*
X107153597Y-109914165D01*
X107181187Y-109941755D01*
X107217235Y-109956687D01*
X107236744Y-109958608D01*
X107309629Y-109958608D01*
X107377526Y-109990559D01*
X107409562Y-110019035D01*
X107449775Y-110083376D01*
X107506564Y-110537678D01*
X107510890Y-110556798D01*
X107530178Y-110590716D01*
X107560977Y-110614671D01*
X107598599Y-110625016D01*
X107637316Y-110620177D01*
X107671233Y-110600889D01*
X107695188Y-110570090D01*
X107705533Y-110532468D01*
X107705020Y-110512871D01*
X107621686Y-109846204D01*
X107620078Y-109839099D01*
X107757713Y-109839099D01*
X107757713Y-109878117D01*
X107772645Y-109914165D01*
X107800235Y-109941755D01*
X107836283Y-109956687D01*
X107855792Y-109958608D01*
X108005609Y-109958608D01*
X108057080Y-110370373D01*
X108043273Y-110407189D01*
X108009364Y-110425275D01*
X107939125Y-110425275D01*
X107919616Y-110427196D01*
X107883568Y-110442128D01*
X107855978Y-110469718D01*
X107841046Y-110505766D01*
X107841046Y-110544784D01*
X107855978Y-110580832D01*
X107883568Y-110608422D01*
X107919616Y-110623354D01*
X107939125Y-110625275D01*
X108034364Y-110625275D01*
X108053873Y-110623354D01*
X108058413Y-110621473D01*
X108063305Y-110620996D01*
X108081423Y-110613510D01*
X108170708Y-110565891D01*
X108179611Y-110559953D01*
X108181994Y-110558871D01*
X108183247Y-110557528D01*
X108187018Y-110555015D01*
X108197432Y-110542347D01*
X108208633Y-110530361D01*
X108210633Y-110526292D01*
X108211798Y-110524876D01*
X108212559Y-110522375D01*
X108217282Y-110512769D01*
X108252997Y-110417530D01*
X108258048Y-110398589D01*
X108257892Y-110394018D01*
X108259105Y-110389610D01*
X108258592Y-110370013D01*
X108207166Y-109958608D01*
X108236744Y-109958608D01*
X108256253Y-109956687D01*
X108292301Y-109941755D01*
X108319891Y-109914165D01*
X108327277Y-109896334D01*
X108428902Y-109896334D01*
X108432690Y-109935168D01*
X108451051Y-109969596D01*
X108481190Y-109994376D01*
X108518518Y-110005736D01*
X108557352Y-110001948D01*
X108575470Y-109994462D01*
X108642697Y-109958608D01*
X108785820Y-109958608D01*
X108853717Y-109990559D01*
X108885753Y-110019035D01*
X108925967Y-110083377D01*
X108955889Y-110322754D01*
X108935216Y-110377882D01*
X108917584Y-110398033D01*
X108866507Y-110425275D01*
X108723384Y-110425275D01*
X108642420Y-110387174D01*
X108623950Y-110380605D01*
X108584975Y-110378767D01*
X108548263Y-110391983D01*
X108519403Y-110418242D01*
X108502789Y-110453546D01*
X108500951Y-110492521D01*
X108514167Y-110529233D01*
X108540426Y-110558093D01*
X108557260Y-110568138D01*
X108658450Y-110615757D01*
X108676921Y-110622326D01*
X108679311Y-110622438D01*
X108681521Y-110623354D01*
X108701030Y-110625275D01*
X108891507Y-110625275D01*
X108911016Y-110623354D01*
X108915556Y-110621473D01*
X108920448Y-110620996D01*
X108938566Y-110613510D01*
X109027851Y-110565891D01*
X109039984Y-110557800D01*
X109041758Y-110556923D01*
X109042881Y-110555868D01*
X109044161Y-110555015D01*
X109045414Y-110553490D01*
X109056050Y-110543506D01*
X109097717Y-110495886D01*
X109106048Y-110484232D01*
X109107443Y-110482740D01*
X109108164Y-110481273D01*
X109109118Y-110479939D01*
X109109774Y-110477997D01*
X109116092Y-110465148D01*
X109151806Y-110369910D01*
X109156857Y-110350969D01*
X109156701Y-110346399D01*
X109157914Y-110341991D01*
X109157401Y-110322394D01*
X109121687Y-110036681D01*
X109117361Y-110017561D01*
X109116317Y-110015725D01*
X109115969Y-110013645D01*
X109107259Y-109996084D01*
X109106126Y-109994272D01*
X109297718Y-109994272D01*
X109298231Y-110013869D01*
X109310136Y-110109107D01*
X109314462Y-110128227D01*
X109316355Y-110131556D01*
X109317116Y-110135308D01*
X109325938Y-110148407D01*
X109333750Y-110162144D01*
X109336773Y-110164495D01*
X109338912Y-110167671D01*
X109352076Y-110176398D01*
X109364549Y-110186099D01*
X109368241Y-110187114D01*
X109371433Y-110189230D01*
X109390213Y-110194852D01*
X109807215Y-110276218D01*
X109818985Y-110370373D01*
X109805178Y-110407189D01*
X109771269Y-110425275D01*
X109628146Y-110425275D01*
X109547182Y-110387174D01*
X109528712Y-110380605D01*
X109489737Y-110378767D01*
X109453025Y-110391983D01*
X109424165Y-110418242D01*
X109407551Y-110453546D01*
X109405713Y-110492521D01*
X109418929Y-110529233D01*
X109445188Y-110558093D01*
X109462022Y-110568138D01*
X109563212Y-110615757D01*
X109581683Y-110622326D01*
X109584073Y-110622438D01*
X109586283Y-110623354D01*
X109605792Y-110625275D01*
X109796269Y-110625275D01*
X109815778Y-110623354D01*
X109820318Y-110621473D01*
X109825210Y-110620996D01*
X109843328Y-110613510D01*
X109932613Y-110565891D01*
X109941516Y-110559953D01*
X109943899Y-110558871D01*
X109945152Y-110557528D01*
X109948923Y-110555015D01*
X109959337Y-110542347D01*
X109970538Y-110530361D01*
X109972538Y-110526292D01*
X109973703Y-110524876D01*
X109974464Y-110522375D01*
X109977902Y-110515382D01*
X110172951Y-110515382D01*
X110176739Y-110554216D01*
X110195101Y-110588644D01*
X110225240Y-110613424D01*
X110262567Y-110624784D01*
X110301401Y-110620996D01*
X110319519Y-110613510D01*
X110408804Y-110565891D01*
X110417707Y-110559953D01*
X110420090Y-110558871D01*
X110421343Y-110557528D01*
X110425114Y-110555015D01*
X110435528Y-110542347D01*
X110446729Y-110530361D01*
X110448729Y-110526292D01*
X110449894Y-110524876D01*
X110450655Y-110522375D01*
X110455378Y-110512769D01*
X110491093Y-110417530D01*
X110496144Y-110398589D01*
X110495988Y-110394018D01*
X110497201Y-110389610D01*
X110496688Y-110370013D01*
X110389545Y-109512871D01*
X110387937Y-109505766D01*
X110620809Y-109505766D01*
X110620809Y-109544784D01*
X110635741Y-109580832D01*
X110663331Y-109608422D01*
X110699379Y-109623354D01*
X110718888Y-109625275D01*
X111106801Y-109625275D01*
X111141324Y-109901465D01*
X110921269Y-109901465D01*
X110901760Y-109903386D01*
X110865712Y-109918318D01*
X110838122Y-109945908D01*
X110823190Y-109981956D01*
X110823190Y-110020974D01*
X110838122Y-110057022D01*
X110865712Y-110084612D01*
X110901760Y-110099544D01*
X110921269Y-110101465D01*
X111166324Y-110101465D01*
X111206801Y-110425275D01*
X110843888Y-110425275D01*
X110824379Y-110427196D01*
X110788331Y-110442128D01*
X110760741Y-110469718D01*
X110745809Y-110505766D01*
X110745809Y-110544784D01*
X110760741Y-110580832D01*
X110788331Y-110608422D01*
X110824379Y-110623354D01*
X110843888Y-110625275D01*
X111320079Y-110625275D01*
X111339588Y-110623354D01*
X111345380Y-110620954D01*
X111351603Y-110620177D01*
X111363256Y-110613550D01*
X111375636Y-110608422D01*
X111380069Y-110603988D01*
X111385520Y-110600889D01*
X111393748Y-110590309D01*
X111403226Y-110580832D01*
X111405625Y-110575039D01*
X111409475Y-110570090D01*
X111413028Y-110557168D01*
X111418158Y-110544784D01*
X111418158Y-110538512D01*
X111419820Y-110532468D01*
X111419307Y-110512871D01*
X111294307Y-109512872D01*
X111293158Y-109507793D01*
X111293158Y-109505766D01*
X111292147Y-109503325D01*
X111289981Y-109493751D01*
X111283354Y-109482097D01*
X111278226Y-109469718D01*
X111273792Y-109465284D01*
X111270693Y-109459834D01*
X111260113Y-109451605D01*
X111250636Y-109442128D01*
X111244843Y-109439728D01*
X111239894Y-109435879D01*
X111226972Y-109432325D01*
X111214588Y-109427196D01*
X111204817Y-109426233D01*
X111202272Y-109425534D01*
X111200261Y-109425785D01*
X111195079Y-109425275D01*
X110718888Y-109425275D01*
X110699379Y-109427196D01*
X110663331Y-109442128D01*
X110635741Y-109469718D01*
X110620809Y-109505766D01*
X110387937Y-109505766D01*
X110385219Y-109493751D01*
X110365931Y-109459834D01*
X110335132Y-109435879D01*
X110297510Y-109425534D01*
X110258793Y-109430373D01*
X110224876Y-109449661D01*
X110200921Y-109480460D01*
X110190576Y-109518082D01*
X110191089Y-109537679D01*
X110295176Y-110370373D01*
X110281369Y-110407189D01*
X110225401Y-110437040D01*
X110209091Y-110447916D01*
X110184311Y-110478055D01*
X110172951Y-110515382D01*
X109977902Y-110515382D01*
X109979187Y-110512769D01*
X110014902Y-110417530D01*
X110019953Y-110398589D01*
X110019797Y-110394018D01*
X110021010Y-110389610D01*
X110020497Y-110370014D01*
X109972878Y-109989062D01*
X109968552Y-109969941D01*
X109967508Y-109968105D01*
X109967160Y-109966026D01*
X109958450Y-109948465D01*
X109898926Y-109853227D01*
X109886957Y-109837701D01*
X109879611Y-109832462D01*
X109873540Y-109825790D01*
X109856706Y-109815745D01*
X109755514Y-109768126D01*
X109737044Y-109761557D01*
X109734653Y-109761444D01*
X109732444Y-109760529D01*
X109712935Y-109758608D01*
X109522459Y-109758608D01*
X109502950Y-109760529D01*
X109498409Y-109762409D01*
X109493518Y-109762887D01*
X109475401Y-109770372D01*
X109386114Y-109817992D01*
X109377205Y-109823931D01*
X109374827Y-109825013D01*
X109373575Y-109826352D01*
X109369804Y-109828867D01*
X109359378Y-109841547D01*
X109348189Y-109853523D01*
X109346191Y-109857586D01*
X109345024Y-109859006D01*
X109344261Y-109861511D01*
X109339540Y-109871115D01*
X109303826Y-109966353D01*
X109298775Y-109985294D01*
X109298930Y-109989863D01*
X109297718Y-109994272D01*
X109106126Y-109994272D01*
X109047735Y-109900846D01*
X109043699Y-109895611D01*
X109042677Y-109893502D01*
X109039037Y-109889564D01*
X109035766Y-109885320D01*
X109033858Y-109883959D01*
X109029372Y-109879105D01*
X108975801Y-109831486D01*
X108970368Y-109827537D01*
X108968778Y-109825790D01*
X108964226Y-109823074D01*
X108959943Y-109819961D01*
X108957712Y-109819187D01*
X108951944Y-109815745D01*
X108850752Y-109768126D01*
X108832282Y-109761557D01*
X108829891Y-109761444D01*
X108827682Y-109760529D01*
X108808173Y-109758608D01*
X108617697Y-109758608D01*
X108598188Y-109760529D01*
X108593647Y-109762409D01*
X108588756Y-109762887D01*
X108570639Y-109770372D01*
X108481352Y-109817992D01*
X108465042Y-109828867D01*
X108440262Y-109859006D01*
X108428902Y-109896334D01*
X108327277Y-109896334D01*
X108334823Y-109878117D01*
X108334823Y-109839099D01*
X108319891Y-109803051D01*
X108292301Y-109775461D01*
X108256253Y-109760529D01*
X108236744Y-109758608D01*
X108182166Y-109758608D01*
X108151449Y-109512871D01*
X108147123Y-109493751D01*
X108127835Y-109459834D01*
X108097036Y-109435879D01*
X108059414Y-109425534D01*
X108020697Y-109430373D01*
X107986780Y-109449661D01*
X107962825Y-109480460D01*
X107952480Y-109518082D01*
X107952993Y-109537679D01*
X107980609Y-109758608D01*
X107855792Y-109758608D01*
X107836283Y-109760529D01*
X107800235Y-109775461D01*
X107772645Y-109803051D01*
X107757713Y-109839099D01*
X107620078Y-109839099D01*
X107617360Y-109827084D01*
X107598072Y-109793167D01*
X107567273Y-109769212D01*
X107529651Y-109758867D01*
X107490934Y-109763706D01*
X107457017Y-109782994D01*
X107443389Y-109800515D01*
X107374561Y-109768126D01*
X107356091Y-109761557D01*
X107353700Y-109761444D01*
X107351491Y-109760529D01*
X107331982Y-109758608D01*
X107236744Y-109758608D01*
X107217235Y-109760529D01*
X107181187Y-109775461D01*
X107153597Y-109803051D01*
X107138665Y-109839099D01*
X106936746Y-109839099D01*
X106928181Y-109831486D01*
X106922748Y-109827537D01*
X106921158Y-109825790D01*
X106916606Y-109823074D01*
X106912323Y-109819961D01*
X106910092Y-109819187D01*
X106904324Y-109815745D01*
X106803132Y-109768126D01*
X106784662Y-109761557D01*
X106782271Y-109761444D01*
X106780062Y-109760529D01*
X106760553Y-109758608D01*
X106617696Y-109758608D01*
X106598187Y-109760529D01*
X106593646Y-109762409D01*
X106588755Y-109762887D01*
X106570638Y-109770372D01*
X106481351Y-109817992D01*
X106469213Y-109826085D01*
X106467444Y-109826960D01*
X106466323Y-109828011D01*
X106465041Y-109828867D01*
X106463783Y-109830396D01*
X106453152Y-109840377D01*
X106411486Y-109887996D01*
X106403157Y-109899645D01*
X106401760Y-109901141D01*
X106401037Y-109902611D01*
X106400085Y-109903943D01*
X106399429Y-109905881D01*
X106393111Y-109918733D01*
X106357396Y-110013971D01*
X106352345Y-110032912D01*
X106352500Y-110037482D01*
X106351288Y-110041891D01*
X106122337Y-110041891D01*
X106097876Y-109846204D01*
X106093550Y-109827084D01*
X106074262Y-109793167D01*
X106043463Y-109769212D01*
X106005841Y-109758867D01*
X105967124Y-109763706D01*
X105933207Y-109782994D01*
X105932338Y-109784110D01*
X105898370Y-109768126D01*
X105879900Y-109761557D01*
X105877509Y-109761444D01*
X105875300Y-109760529D01*
X105855791Y-109758608D01*
X105712934Y-109758608D01*
X105693425Y-109760529D01*
X105688884Y-109762409D01*
X105683993Y-109762887D01*
X105665876Y-109770372D01*
X105576589Y-109817992D01*
X105567680Y-109823931D01*
X105565302Y-109825013D01*
X105564050Y-109826352D01*
X105560279Y-109828867D01*
X105549853Y-109841547D01*
X105538664Y-109853523D01*
X105536666Y-109857586D01*
X105535499Y-109859006D01*
X105534736Y-109861511D01*
X105530015Y-109871115D01*
X105494301Y-109966353D01*
X105489250Y-109985294D01*
X105489405Y-109989863D01*
X105488193Y-109994272D01*
X105211623Y-109994272D01*
X105193114Y-109846204D01*
X105188788Y-109827084D01*
X105169500Y-109793167D01*
X105138701Y-109769212D01*
X105101079Y-109758867D01*
X105062362Y-109763706D01*
X105028445Y-109782994D01*
X105004490Y-109813793D01*
X104994145Y-109851415D01*
X104664887Y-109851415D01*
X104642467Y-109831486D01*
X104637034Y-109827537D01*
X104635444Y-109825790D01*
X104630892Y-109823074D01*
X104626609Y-109819961D01*
X104624378Y-109819187D01*
X104618610Y-109815745D01*
X104517418Y-109768126D01*
X104498948Y-109761557D01*
X104496557Y-109761444D01*
X104494348Y-109760529D01*
X104474839Y-109758608D01*
X104284363Y-109758608D01*
X104264854Y-109760529D01*
X104260313Y-109762409D01*
X104255422Y-109762887D01*
X104237305Y-109770372D01*
X104148018Y-109817992D01*
X104131708Y-109828867D01*
X104106928Y-109859006D01*
X104095568Y-109896334D01*
X103115111Y-109896334D01*
X103133948Y-109846101D01*
X103138999Y-109827160D01*
X103138843Y-109822590D01*
X103140056Y-109818182D01*
X103139543Y-109798585D01*
X103127638Y-109703347D01*
X103123312Y-109684227D01*
X103122268Y-109682391D01*
X103121920Y-109680312D01*
X103113210Y-109662751D01*
X103053686Y-109567513D01*
X103049650Y-109562278D01*
X103048628Y-109560169D01*
X103048427Y-109559952D01*
X104911394Y-109559952D01*
X104912665Y-109579034D01*
X104913789Y-109598128D01*
X104913962Y-109598485D01*
X104913989Y-109598884D01*
X104922473Y-109616041D01*
X104930811Y-109633238D01*
X104931170Y-109633626D01*
X104931285Y-109633859D01*
X104931807Y-109634315D01*
X104944116Y-109647635D01*
X104997688Y-109695254D01*
X105013545Y-109706779D01*
X105013919Y-109706908D01*
X105014220Y-109707172D01*
X105016996Y-109708110D01*
X105019308Y-109709909D01*
X105035019Y-109714229D01*
X105050408Y-109719568D01*
X105050805Y-109719544D01*
X105051182Y-109719672D01*
X105054104Y-109719477D01*
X105056930Y-109720254D01*
X105073095Y-109718233D01*
X105089359Y-109717277D01*
X105089716Y-109717103D01*
X105090114Y-109717077D01*
X105092740Y-109715778D01*
X105095647Y-109715415D01*
X105109801Y-109707365D01*
X105124468Y-109700255D01*
X105124732Y-109699957D01*
X105125089Y-109699781D01*
X105128084Y-109696968D01*
X105129565Y-109696127D01*
X105131144Y-109694096D01*
X105139381Y-109686364D01*
X105181048Y-109638745D01*
X105191598Y-109623988D01*
X105192057Y-109623473D01*
X105192141Y-109623229D01*
X105192450Y-109622798D01*
X105198582Y-109604663D01*
X105204846Y-109586611D01*
X105204822Y-109586212D01*
X105204950Y-109585836D01*
X105203677Y-109566749D01*
X105202555Y-109547660D01*
X105202381Y-109547302D01*
X105202355Y-109546904D01*
X105193870Y-109529746D01*
X105185533Y-109512550D01*
X105185173Y-109512161D01*
X105185059Y-109511929D01*
X105184536Y-109511472D01*
X105172228Y-109498153D01*
X105118657Y-109450534D01*
X105102799Y-109439009D01*
X105102424Y-109438879D01*
X105102124Y-109438616D01*
X105099347Y-109437677D01*
X105097036Y-109435879D01*
X105081324Y-109431558D01*
X105065936Y-109426220D01*
X105065538Y-109426243D01*
X105065162Y-109426116D01*
X105062239Y-109426310D01*
X105059414Y-109425534D01*
X105043248Y-109427554D01*
X105026986Y-109428511D01*
X105026628Y-109428684D01*
X105026231Y-109428711D01*
X105023605Y-109430009D01*
X105020697Y-109430373D01*
X105006539Y-109438423D01*
X104991876Y-109445533D01*
X104991611Y-109445830D01*
X104991255Y-109446007D01*
X104988259Y-109448819D01*
X104986779Y-109449661D01*
X104985199Y-109451691D01*
X104976963Y-109459424D01*
X104935296Y-109507043D01*
X104924745Y-109521799D01*
X104924287Y-109522315D01*
X104924202Y-109522558D01*
X104923894Y-109522990D01*
X104917754Y-109541144D01*
X104911498Y-109559178D01*
X104911521Y-109559575D01*
X104911394Y-109559952D01*
X103048427Y-109559952D01*
X103044988Y-109556231D01*
X103041717Y-109551987D01*
X103039809Y-109550626D01*
X103035323Y-109545772D01*
X102981752Y-109498153D01*
X102976319Y-109494204D01*
X102974729Y-109492457D01*
X102970177Y-109489741D01*
X102965894Y-109486628D01*
X102963663Y-109485854D01*
X102957895Y-109482412D01*
X102856705Y-109434793D01*
X102838235Y-109428224D01*
X102835843Y-109428111D01*
X102833634Y-109427196D01*
X102814125Y-109425275D01*
X102576029Y-109425275D01*
X102564805Y-109426380D01*
X102562234Y-109426231D01*
X102559412Y-109426911D01*
X102556520Y-109427196D01*
X102554138Y-109428182D01*
X102543177Y-109430825D01*
X102406273Y-109478444D01*
X102388478Y-109486668D01*
X102359336Y-109512614D01*
X102342341Y-109547736D01*
X102340081Y-109586689D01*
X102113056Y-109586689D01*
X102103829Y-109512872D01*
X102099503Y-109493751D01*
X102080215Y-109459834D01*
X102049416Y-109435879D01*
X102011794Y-109425534D01*
X101973077Y-109430373D01*
X101939160Y-109449661D01*
X101915205Y-109480460D01*
X101904860Y-109518082D01*
X101905373Y-109537678D01*
X101961696Y-109988262D01*
X101731751Y-109783867D01*
X101715894Y-109772342D01*
X101679031Y-109759553D01*
X101640080Y-109761844D01*
X101604971Y-109778867D01*
X101579049Y-109808029D01*
X101566260Y-109844892D01*
X101321071Y-109844892D01*
X101315527Y-109837701D01*
X101308181Y-109832462D01*
X101302110Y-109825790D01*
X101285276Y-109815745D01*
X101184084Y-109768126D01*
X101165614Y-109761557D01*
X101163223Y-109761444D01*
X101161014Y-109760529D01*
X101141505Y-109758608D01*
X100951029Y-109758608D01*
X100931520Y-109760529D01*
X100926979Y-109762409D01*
X100922088Y-109762887D01*
X100903971Y-109770372D01*
X100814684Y-109817992D01*
X100805775Y-109823931D01*
X100803397Y-109825013D01*
X100802145Y-109826352D01*
X100798374Y-109828867D01*
X100787948Y-109841547D01*
X100776759Y-109853523D01*
X100774761Y-109857586D01*
X100773594Y-109859006D01*
X100772831Y-109861511D01*
X100768110Y-109871115D01*
X100732396Y-109966353D01*
X100727345Y-109985294D01*
X100727500Y-109989863D01*
X100726288Y-109994272D01*
X100544956Y-109994272D01*
X100544305Y-109989062D01*
X100539979Y-109969941D01*
X100538935Y-109968105D01*
X100538587Y-109966026D01*
X100529877Y-109948465D01*
X100470353Y-109853227D01*
X100458384Y-109837701D01*
X100451038Y-109832462D01*
X100444967Y-109825790D01*
X100428133Y-109815745D01*
X100326941Y-109768126D01*
X100308471Y-109761557D01*
X100306080Y-109761444D01*
X100303871Y-109760529D01*
X100284362Y-109758608D01*
X100093886Y-109758608D01*
X100074377Y-109760529D01*
X100069836Y-109762409D01*
X100064945Y-109762887D01*
X100046828Y-109770372D01*
X99957541Y-109817992D01*
X99948632Y-109823931D01*
X99946254Y-109825013D01*
X99945002Y-109826352D01*
X99941231Y-109828867D01*
X99930805Y-109841547D01*
X99919616Y-109853523D01*
X99917618Y-109857586D01*
X99916451Y-109859006D01*
X99915688Y-109861511D01*
X99910967Y-109871115D01*
X99875253Y-109966353D01*
X99870202Y-109985294D01*
X99870357Y-109989863D01*
X99869145Y-109994272D01*
X98878289Y-109994272D01*
X98818114Y-109512872D01*
X98816965Y-109507793D01*
X98816965Y-109505766D01*
X98815954Y-109503325D01*
X98813788Y-109493751D01*
X98807161Y-109482097D01*
X98802033Y-109469718D01*
X98797599Y-109465284D01*
X98794500Y-109459834D01*
X98783920Y-109451605D01*
X98774443Y-109442128D01*
X98768650Y-109439728D01*
X98763701Y-109435879D01*
X98750779Y-109432325D01*
X98738395Y-109427196D01*
X98728624Y-109426233D01*
X98726079Y-109425534D01*
X98724068Y-109425785D01*
X98718886Y-109425275D01*
X98385552Y-109425275D01*
X98366043Y-109427196D01*
X98361502Y-109429076D01*
X98356611Y-109429554D01*
X98338493Y-109437040D01*
X98249208Y-109484659D01*
X98237077Y-109492748D01*
X98235302Y-109493626D01*
X98234176Y-109494682D01*
X98232898Y-109495535D01*
X98231644Y-109497059D01*
X98221010Y-109507043D01*
X98179343Y-109554662D01*
X98171008Y-109566318D01*
X98169616Y-109567809D01*
X98168896Y-109569272D01*
X98167941Y-109570609D01*
X98167283Y-109572553D01*
X98160967Y-109585401D01*
X98125253Y-109680639D01*
X98120202Y-109699580D01*
X98120357Y-109704148D01*
X98119145Y-109708557D01*
X96937813Y-109708557D01*
X96913352Y-109512871D01*
X96909026Y-109493751D01*
X96889738Y-109459834D01*
X96858939Y-109435879D01*
X96821317Y-109425534D01*
X96782600Y-109430373D01*
X96748683Y-109449661D01*
X96724728Y-109480460D01*
X96714383Y-109518082D01*
X96714896Y-109537679D01*
X96818983Y-110370373D01*
X96805176Y-110407189D01*
X96749208Y-110437040D01*
X96732898Y-110447916D01*
X96708118Y-110478055D01*
X96696758Y-110515382D01*
X96454090Y-110515382D01*
X96455375Y-110512769D01*
X96491090Y-110417530D01*
X96496141Y-110398589D01*
X96495985Y-110394018D01*
X96497198Y-110389610D01*
X96496685Y-110370013D01*
X96389542Y-109512871D01*
X96385216Y-109493751D01*
X96365928Y-109459834D01*
X96335129Y-109435879D01*
X96297507Y-109425534D01*
X96258790Y-109430373D01*
X96224873Y-109449661D01*
X96200918Y-109480460D01*
X96190573Y-109518082D01*
X96191086Y-109537679D01*
X96295173Y-110370373D01*
X96281366Y-110407189D01*
X96225398Y-110437040D01*
X96209088Y-110447916D01*
X96184308Y-110478055D01*
X96172948Y-110515382D01*
X95872792Y-110515382D01*
X95872792Y-108895822D01*
X95983903Y-108895822D01*
X95983903Y-108934840D01*
X95998835Y-108970888D01*
X96026425Y-108998478D01*
X96062473Y-109013410D01*
X96081982Y-109015331D01*
X96653411Y-109015331D01*
X96672920Y-109013410D01*
X96708968Y-108998478D01*
X96736558Y-108970888D01*
X96751490Y-108934840D01*
X96751490Y-108895822D01*
X96736558Y-108859774D01*
X96708968Y-108832184D01*
X96672920Y-108817252D01*
X96653411Y-108815331D01*
X96455974Y-108815331D01*
X96380839Y-108214247D01*
X96396498Y-108228167D01*
X96401930Y-108232115D01*
X96403521Y-108233863D01*
X96408072Y-108236578D01*
X96412356Y-108239692D01*
X96414586Y-108240465D01*
X96420355Y-108243908D01*
X96521545Y-108291527D01*
X96540016Y-108298096D01*
X96578990Y-108299934D01*
X96615702Y-108286718D01*
X96644562Y-108260459D01*
X96659294Y-108229155D01*
X96757713Y-108229155D01*
X96757713Y-108268173D01*
X96772645Y-108304221D01*
X96800235Y-108331811D01*
X96836283Y-108346743D01*
X96855792Y-108348664D01*
X96975134Y-108348664D01*
X97054499Y-108577235D01*
X97004601Y-108577235D01*
X96985092Y-108579156D01*
X96949044Y-108594088D01*
X96921454Y-108621678D01*
X96906522Y-108657726D01*
X96906522Y-108696744D01*
X96921454Y-108732792D01*
X96949044Y-108760382D01*
X96985092Y-108775314D01*
X97004601Y-108777235D01*
X97123943Y-108777235D01*
X97249420Y-109138608D01*
X97257634Y-109156408D01*
X97283564Y-109185563D01*
X97318677Y-109202577D01*
X97357628Y-109204859D01*
X97394488Y-109192060D01*
X97423643Y-109166130D01*
X97440657Y-109131017D01*
X97442939Y-109092066D01*
X97438354Y-109073006D01*
X97335656Y-108777235D01*
X97457276Y-108777235D01*
X97582753Y-109138608D01*
X97590967Y-109156408D01*
X97616897Y-109185564D01*
X97652010Y-109202577D01*
X97690961Y-109204859D01*
X97727821Y-109192061D01*
X97756976Y-109166131D01*
X97773990Y-109131017D01*
X97776272Y-109092066D01*
X97771687Y-109073006D01*
X97668989Y-108777235D01*
X97718887Y-108777235D01*
X97738396Y-108775314D01*
X97774444Y-108760382D01*
X97802034Y-108732792D01*
X97816966Y-108696744D01*
X97816966Y-108657726D01*
X97802034Y-108621678D01*
X97774444Y-108594088D01*
X97738396Y-108579156D01*
X97718887Y-108577235D01*
X97599545Y-108577235D01*
X97532563Y-108384328D01*
X98678670Y-108384328D01*
X98679183Y-108403924D01*
X98744659Y-108927734D01*
X98748985Y-108946854D01*
X98768273Y-108980772D01*
X98799072Y-109004727D01*
X98836694Y-109015072D01*
X98875410Y-109010232D01*
X98909328Y-108990945D01*
X98933283Y-108960146D01*
X98943628Y-108922524D01*
X98943115Y-108902927D01*
X98880694Y-108403564D01*
X98894500Y-108366749D01*
X98928411Y-108348664D01*
X99023914Y-108348664D01*
X99078253Y-108374235D01*
X99110490Y-108425814D01*
X99173230Y-108927734D01*
X99177556Y-108946854D01*
X99196844Y-108980772D01*
X99227643Y-109004727D01*
X99265265Y-109015072D01*
X99303981Y-109010232D01*
X99337899Y-108990945D01*
X99361854Y-108960146D01*
X99372199Y-108922524D01*
X99371686Y-108902927D01*
X99309265Y-108403564D01*
X99323071Y-108366749D01*
X99356982Y-108348664D01*
X99452486Y-108348664D01*
X99520383Y-108380615D01*
X99535040Y-108393643D01*
X99601802Y-108927734D01*
X99606128Y-108946854D01*
X99625416Y-108980772D01*
X99656215Y-109004727D01*
X99693837Y-109015072D01*
X99732554Y-109010233D01*
X99766471Y-108990945D01*
X99790426Y-108960146D01*
X99800771Y-108922524D01*
X99800258Y-108902927D01*
X99735433Y-108384328D01*
X100012003Y-108384328D01*
X100012516Y-108403924D01*
X100077992Y-108927734D01*
X100082318Y-108946854D01*
X100101606Y-108980772D01*
X100132405Y-109004727D01*
X100170027Y-109015072D01*
X100208743Y-109010232D01*
X100222565Y-109002371D01*
X100229878Y-109005813D01*
X100248349Y-109012382D01*
X100250739Y-109012494D01*
X100252949Y-109013410D01*
X100272458Y-109015331D01*
X100510554Y-109015331D01*
X100530063Y-109013410D01*
X100534603Y-109011529D01*
X100539495Y-109011052D01*
X100557613Y-109003566D01*
X100646898Y-108955947D01*
X100655801Y-108950009D01*
X100658184Y-108948927D01*
X100659437Y-108947584D01*
X100663208Y-108945071D01*
X100673622Y-108932403D01*
X100684823Y-108920417D01*
X100686823Y-108916348D01*
X100687988Y-108914932D01*
X100688749Y-108912431D01*
X100693472Y-108902825D01*
X100729187Y-108807586D01*
X100734238Y-108788645D01*
X100734082Y-108784074D01*
X100735295Y-108779666D01*
X100734782Y-108760069D01*
X100722877Y-108664831D01*
X100718551Y-108645711D01*
X100717507Y-108643875D01*
X100717159Y-108641796D01*
X100708449Y-108624235D01*
X100648925Y-108528997D01*
X100636956Y-108513471D01*
X100629610Y-108508232D01*
X100623539Y-108501560D01*
X100606705Y-108491515D01*
X100505515Y-108443896D01*
X100487045Y-108437327D01*
X100484653Y-108437214D01*
X100482444Y-108436299D01*
X100462935Y-108434378D01*
X100247193Y-108434378D01*
X100216047Y-108419721D01*
X100214027Y-108403564D01*
X100227833Y-108366749D01*
X100261744Y-108348664D01*
X100404867Y-108348664D01*
X100485832Y-108386765D01*
X100504302Y-108393334D01*
X100543277Y-108395172D01*
X100573400Y-108384328D01*
X100869146Y-108384328D01*
X100869659Y-108403925D01*
X100881564Y-108499163D01*
X100885890Y-108518283D01*
X100887783Y-108521612D01*
X100888544Y-108525364D01*
X100897366Y-108538463D01*
X100905178Y-108552200D01*
X100908201Y-108554551D01*
X100910340Y-108557727D01*
X100923504Y-108566454D01*
X100935977Y-108576155D01*
X100939669Y-108577170D01*
X100942861Y-108579286D01*
X100961641Y-108584908D01*
X101378643Y-108666274D01*
X101390413Y-108760429D01*
X101376606Y-108797245D01*
X101342697Y-108815331D01*
X101199574Y-108815331D01*
X101118610Y-108777230D01*
X101100140Y-108770661D01*
X101061165Y-108768823D01*
X101024453Y-108782039D01*
X100995593Y-108808298D01*
X100978979Y-108843602D01*
X100977141Y-108882577D01*
X100990357Y-108919289D01*
X101016616Y-108948149D01*
X101033450Y-108958194D01*
X101134640Y-109005813D01*
X101153111Y-109012382D01*
X101155501Y-109012494D01*
X101157711Y-109013410D01*
X101177220Y-109015331D01*
X101367697Y-109015331D01*
X101387206Y-109013410D01*
X101391746Y-109011529D01*
X101396638Y-109011052D01*
X101414756Y-109003566D01*
X101504041Y-108955947D01*
X101512944Y-108950009D01*
X101515327Y-108948927D01*
X101516580Y-108947584D01*
X101520351Y-108945071D01*
X101530765Y-108932403D01*
X101541966Y-108920417D01*
X101543966Y-108916348D01*
X101545131Y-108914932D01*
X101545892Y-108912431D01*
X101550615Y-108902825D01*
X101586330Y-108807586D01*
X101591381Y-108788645D01*
X101591225Y-108784074D01*
X101592438Y-108779666D01*
X101591925Y-108760070D01*
X101544306Y-108379118D01*
X101539980Y-108359997D01*
X101538936Y-108358161D01*
X101538588Y-108356082D01*
X101529878Y-108338521D01*
X101470354Y-108243283D01*
X101458385Y-108227757D01*
X101451039Y-108222518D01*
X101444968Y-108215846D01*
X101428134Y-108205801D01*
X101326942Y-108158182D01*
X101308472Y-108151613D01*
X101306081Y-108151500D01*
X101303872Y-108150585D01*
X101284363Y-108148664D01*
X101093887Y-108148664D01*
X101074378Y-108150585D01*
X101069837Y-108152465D01*
X101064946Y-108152943D01*
X101046829Y-108160428D01*
X100957542Y-108208048D01*
X100948633Y-108213987D01*
X100946255Y-108215069D01*
X100945003Y-108216408D01*
X100941232Y-108218923D01*
X100930806Y-108231603D01*
X100919617Y-108243579D01*
X100917619Y-108247642D01*
X100916452Y-108249062D01*
X100915689Y-108251567D01*
X100910968Y-108261171D01*
X100875254Y-108356409D01*
X100870203Y-108375350D01*
X100870358Y-108379919D01*
X100869146Y-108384328D01*
X100573400Y-108384328D01*
X100579989Y-108381956D01*
X100608848Y-108355697D01*
X100625462Y-108320393D01*
X100627300Y-108281418D01*
X100614084Y-108244706D01*
X100587825Y-108215846D01*
X100570991Y-108205801D01*
X100469799Y-108158182D01*
X100451329Y-108151613D01*
X100448938Y-108151500D01*
X100446729Y-108150585D01*
X100427220Y-108148664D01*
X100236744Y-108148664D01*
X100217235Y-108150585D01*
X100212694Y-108152465D01*
X100207803Y-108152943D01*
X100189686Y-108160428D01*
X100100399Y-108208048D01*
X100091490Y-108213987D01*
X100089112Y-108215069D01*
X100087860Y-108216408D01*
X100084089Y-108218923D01*
X100073663Y-108231603D01*
X100062474Y-108243579D01*
X100060476Y-108247642D01*
X100059309Y-108249062D01*
X100058546Y-108251567D01*
X100053825Y-108261171D01*
X100018111Y-108356409D01*
X100013060Y-108375350D01*
X100013215Y-108379919D01*
X100012003Y-108384328D01*
X99735433Y-108384328D01*
X99716924Y-108236260D01*
X99712598Y-108217140D01*
X99693310Y-108183223D01*
X99662511Y-108159268D01*
X99624889Y-108148923D01*
X99586172Y-108153762D01*
X99552255Y-108173050D01*
X99551386Y-108174166D01*
X99517418Y-108158182D01*
X99498948Y-108151613D01*
X99496557Y-108151500D01*
X99494348Y-108150585D01*
X99474839Y-108148664D01*
X99331982Y-108148664D01*
X99312473Y-108150585D01*
X99307932Y-108152465D01*
X99303041Y-108152943D01*
X99284924Y-108160428D01*
X99195637Y-108208048D01*
X99194771Y-108208625D01*
X99190038Y-108205801D01*
X99088848Y-108158182D01*
X99070378Y-108151613D01*
X99067986Y-108151500D01*
X99065777Y-108150585D01*
X99046268Y-108148664D01*
X98903411Y-108148664D01*
X98883902Y-108150585D01*
X98879361Y-108152465D01*
X98874470Y-108152943D01*
X98856353Y-108160428D01*
X98767066Y-108208048D01*
X98758157Y-108213987D01*
X98755779Y-108215069D01*
X98754527Y-108216408D01*
X98750756Y-108218923D01*
X98740330Y-108231603D01*
X98729141Y-108243579D01*
X98727143Y-108247642D01*
X98725976Y-108249062D01*
X98725213Y-108251567D01*
X98720492Y-108261171D01*
X98684778Y-108356409D01*
X98679727Y-108375350D01*
X98679882Y-108379919D01*
X98678670Y-108384328D01*
X97532563Y-108384328D01*
X97520180Y-108348664D01*
X97570077Y-108348664D01*
X97589586Y-108346743D01*
X97625634Y-108331811D01*
X97653224Y-108304221D01*
X97668156Y-108268173D01*
X97668156Y-108229155D01*
X97653224Y-108193107D01*
X97625634Y-108165517D01*
X97589586Y-108150585D01*
X97570077Y-108148664D01*
X97450736Y-108148664D01*
X97362943Y-107895822D01*
X101573189Y-107895822D01*
X101573189Y-107934840D01*
X101588121Y-107970888D01*
X101615711Y-107998478D01*
X101651759Y-108013410D01*
X101671268Y-108015331D01*
X101868705Y-108015331D01*
X101982755Y-108927734D01*
X101987081Y-108946854D01*
X102006369Y-108980772D01*
X102037168Y-109004727D01*
X102074790Y-109015072D01*
X102113507Y-109010233D01*
X102147424Y-108990945D01*
X102171379Y-108960146D01*
X102181724Y-108922524D01*
X102181211Y-108902927D01*
X102104481Y-108289090D01*
X103238194Y-108289090D01*
X103238382Y-108296283D01*
X103238194Y-108303476D01*
X103238610Y-108304989D01*
X103238707Y-108308687D01*
X103268469Y-108546782D01*
X103269053Y-108549364D01*
X103269013Y-108550549D01*
X103271047Y-108558180D01*
X103272795Y-108565902D01*
X103273382Y-108566934D01*
X103274064Y-108569491D01*
X103345493Y-108759967D01*
X103345595Y-108760175D01*
X103345615Y-108760292D01*
X103349847Y-108768823D01*
X103354142Y-108777559D01*
X103354223Y-108777646D01*
X103354326Y-108777853D01*
X103413849Y-108873092D01*
X103417883Y-108878325D01*
X103418907Y-108880436D01*
X103422549Y-108884377D01*
X103425818Y-108888617D01*
X103427723Y-108889975D01*
X103432212Y-108894833D01*
X103485784Y-108942452D01*
X103491215Y-108946399D01*
X103492807Y-108948149D01*
X103497360Y-108950866D01*
X103501642Y-108953978D01*
X103503872Y-108954751D01*
X103509641Y-108958194D01*
X103610831Y-109005813D01*
X103629302Y-109012382D01*
X103631692Y-109012494D01*
X103633902Y-109013410D01*
X103653411Y-109015331D01*
X103748649Y-109015331D01*
X103768158Y-109013410D01*
X103772698Y-109011529D01*
X103777590Y-109011052D01*
X103795708Y-109003566D01*
X103884994Y-108955947D01*
X103897131Y-108947853D01*
X103898901Y-108946979D01*
X103900021Y-108945927D01*
X103901304Y-108945072D01*
X103902561Y-108943542D01*
X103913193Y-108933562D01*
X103954860Y-108885942D01*
X103963191Y-108874288D01*
X103964586Y-108872796D01*
X103965307Y-108871329D01*
X103966261Y-108869995D01*
X103966917Y-108868053D01*
X103973235Y-108855204D01*
X104008949Y-108759966D01*
X104009630Y-108757411D01*
X104010218Y-108756378D01*
X104011965Y-108748653D01*
X104014000Y-108741025D01*
X104013959Y-108739840D01*
X104014544Y-108737258D01*
X104038354Y-108546782D01*
X104038450Y-108543084D01*
X104038867Y-108541571D01*
X104038678Y-108534378D01*
X104038867Y-108527185D01*
X104038450Y-108525671D01*
X104038354Y-108521975D01*
X104009243Y-108289090D01*
X104190575Y-108289090D01*
X104190763Y-108296283D01*
X104190575Y-108303476D01*
X104190991Y-108304989D01*
X104191088Y-108308687D01*
X104220850Y-108546782D01*
X104221434Y-108549364D01*
X104221394Y-108550549D01*
X104223428Y-108558180D01*
X104225176Y-108565902D01*
X104225763Y-108566934D01*
X104226445Y-108569491D01*
X104297874Y-108759967D01*
X104297976Y-108760175D01*
X104297996Y-108760292D01*
X104302228Y-108768823D01*
X104306523Y-108777559D01*
X104306604Y-108777646D01*
X104306707Y-108777853D01*
X104366230Y-108873092D01*
X104370264Y-108878325D01*
X104371288Y-108880436D01*
X104374930Y-108884377D01*
X104378199Y-108888617D01*
X104380104Y-108889975D01*
X104384593Y-108894833D01*
X104438165Y-108942452D01*
X104443596Y-108946399D01*
X104445188Y-108948149D01*
X104449741Y-108950866D01*
X104454023Y-108953978D01*
X104456253Y-108954751D01*
X104462022Y-108958194D01*
X104563212Y-109005813D01*
X104581683Y-109012382D01*
X104584073Y-109012494D01*
X104586283Y-109013410D01*
X104605792Y-109015331D01*
X104701030Y-109015331D01*
X104720539Y-109013410D01*
X104725079Y-109011529D01*
X104729971Y-109011052D01*
X104748089Y-109003566D01*
X104837375Y-108955947D01*
X104849512Y-108947853D01*
X104851282Y-108946979D01*
X104852402Y-108945927D01*
X104853685Y-108945072D01*
X104854942Y-108943542D01*
X104865574Y-108933562D01*
X104907241Y-108885942D01*
X104915572Y-108874288D01*
X104916967Y-108872796D01*
X104917688Y-108871329D01*
X104918642Y-108869995D01*
X104919298Y-108868053D01*
X104925616Y-108855204D01*
X104961330Y-108759966D01*
X104962011Y-108757411D01*
X104962599Y-108756378D01*
X104964346Y-108748653D01*
X104966381Y-108741025D01*
X104966340Y-108739840D01*
X104966925Y-108737258D01*
X104990735Y-108546782D01*
X104990831Y-108543084D01*
X104991248Y-108541571D01*
X104991059Y-108534378D01*
X104991248Y-108527185D01*
X104990831Y-108525671D01*
X104990735Y-108521975D01*
X104960973Y-108283879D01*
X104960388Y-108281296D01*
X104960429Y-108280112D01*
X104958394Y-108272483D01*
X104956647Y-108264759D01*
X104956059Y-108263725D01*
X104955378Y-108261171D01*
X104883949Y-108070694D01*
X104883845Y-108070482D01*
X104883826Y-108070368D01*
X104879567Y-108061782D01*
X104875300Y-108053102D01*
X104875219Y-108053016D01*
X104875116Y-108052807D01*
X104815592Y-107957569D01*
X104811556Y-107952334D01*
X104810534Y-107950225D01*
X104806894Y-107946287D01*
X104803623Y-107942043D01*
X104801715Y-107940682D01*
X104797229Y-107935828D01*
X104764791Y-107906994D01*
X105047807Y-107906994D01*
X105049380Y-107920870D01*
X105049380Y-107934840D01*
X105051560Y-107940103D01*
X105052202Y-107945764D01*
X105059970Y-107963763D01*
X105613542Y-108963763D01*
X105624671Y-108979901D01*
X105655193Y-109004207D01*
X105692694Y-109014983D01*
X105731464Y-109010588D01*
X105765601Y-108991691D01*
X105789907Y-108961169D01*
X105800683Y-108923668D01*
X105796288Y-108884898D01*
X105788520Y-108866899D01*
X105317116Y-108015331D01*
X105814126Y-108015331D01*
X105833635Y-108013410D01*
X105869683Y-107998478D01*
X105897273Y-107970888D01*
X105912205Y-107934840D01*
X105912205Y-107906994D01*
X106000188Y-107906994D01*
X106001761Y-107920870D01*
X106001761Y-107934840D01*
X106003941Y-107940103D01*
X106004583Y-107945764D01*
X106012351Y-107963763D01*
X106565923Y-108963763D01*
X106577052Y-108979901D01*
X106607574Y-109004207D01*
X106645075Y-109014983D01*
X106683845Y-109010588D01*
X106717982Y-108991691D01*
X106742288Y-108961169D01*
X106753064Y-108923668D01*
X106748669Y-108884898D01*
X106740901Y-108866899D01*
X106572388Y-108562488D01*
X107037475Y-108562488D01*
X107037475Y-108601506D01*
X107052407Y-108637554D01*
X107079997Y-108665144D01*
X107116045Y-108680076D01*
X107135554Y-108681997D01*
X107190133Y-108681997D01*
X107220850Y-108927734D01*
X107225176Y-108946854D01*
X107244464Y-108980772D01*
X107275263Y-109004727D01*
X107312885Y-109015072D01*
X107351601Y-109010233D01*
X107385519Y-108990945D01*
X107409474Y-108960146D01*
X107419819Y-108922524D01*
X107419306Y-108902927D01*
X107391690Y-108681997D01*
X107754602Y-108681997D01*
X107774111Y-108680076D01*
X107775852Y-108679354D01*
X107777732Y-108679285D01*
X107793805Y-108671918D01*
X107810159Y-108665144D01*
X107811490Y-108663812D01*
X107813202Y-108663028D01*
X107825236Y-108650066D01*
X107837749Y-108637554D01*
X107838469Y-108635813D01*
X107839750Y-108634435D01*
X107845904Y-108617864D01*
X107852681Y-108601506D01*
X107852681Y-108599621D01*
X107853336Y-108597858D01*
X107852681Y-108580183D01*
X107852681Y-108562488D01*
X107851960Y-108560749D01*
X107851891Y-108558867D01*
X107845508Y-108540331D01*
X107550108Y-107895822D01*
X108716047Y-107895822D01*
X108716047Y-107934840D01*
X108730979Y-107970888D01*
X108758569Y-107998478D01*
X108794617Y-108013410D01*
X108814126Y-108015331D01*
X109202039Y-108015331D01*
X109236562Y-108291521D01*
X109016507Y-108291521D01*
X108996998Y-108293442D01*
X108960950Y-108308374D01*
X108933360Y-108335964D01*
X108918428Y-108372012D01*
X108918428Y-108411030D01*
X108933360Y-108447078D01*
X108960950Y-108474668D01*
X108996998Y-108489600D01*
X109016507Y-108491521D01*
X109261562Y-108491521D01*
X109302039Y-108815331D01*
X108939126Y-108815331D01*
X108919617Y-108817252D01*
X108883569Y-108832184D01*
X108855979Y-108859774D01*
X108841047Y-108895822D01*
X108841047Y-108934840D01*
X108855979Y-108970888D01*
X108883569Y-108998478D01*
X108919617Y-109013410D01*
X108939126Y-109015331D01*
X109415317Y-109015331D01*
X109434826Y-109013410D01*
X109440618Y-109011010D01*
X109446841Y-109010233D01*
X109458494Y-109003606D01*
X109470874Y-108998478D01*
X109475307Y-108994044D01*
X109480758Y-108990945D01*
X109488986Y-108980365D01*
X109498464Y-108970888D01*
X109500863Y-108965095D01*
X109504713Y-108960146D01*
X109508266Y-108947224D01*
X109513396Y-108934840D01*
X109513396Y-108928568D01*
X109515058Y-108922524D01*
X109514545Y-108902927D01*
X109401382Y-107997627D01*
X109631634Y-107997627D01*
X109634229Y-108036559D01*
X109651525Y-108071534D01*
X109680889Y-108097228D01*
X109717851Y-108109728D01*
X109756783Y-108107133D01*
X109791758Y-108089837D01*
X109806050Y-108076420D01*
X109830296Y-108048709D01*
X109926260Y-108015331D01*
X109988994Y-108015331D01*
X110102786Y-108051744D01*
X110183374Y-108123379D01*
X110229966Y-108197925D01*
X110293739Y-108367988D01*
X110308585Y-108486759D01*
X110287787Y-108653146D01*
X110262597Y-108720320D01*
X110208669Y-108781952D01*
X110112706Y-108815331D01*
X110049975Y-108815331D01*
X109936182Y-108778917D01*
X109898420Y-108745351D01*
X109882562Y-108733826D01*
X109845699Y-108721037D01*
X109806749Y-108723328D01*
X109771639Y-108740350D01*
X109745717Y-108769513D01*
X109732928Y-108806376D01*
X109735219Y-108845326D01*
X109752241Y-108880436D01*
X109765546Y-108894833D01*
X109819118Y-108942452D01*
X109834976Y-108953978D01*
X109836140Y-108954381D01*
X109837082Y-108955179D01*
X109855077Y-108962954D01*
X110003886Y-109010573D01*
X110012444Y-109012411D01*
X110014855Y-109013410D01*
X110018987Y-109013816D01*
X110023052Y-109014690D01*
X110025654Y-109014473D01*
X110034364Y-109015331D01*
X110129602Y-109015331D01*
X110140825Y-109014225D01*
X110143397Y-109014375D01*
X110146218Y-109013694D01*
X110149111Y-109013410D01*
X110151492Y-109012423D01*
X110162454Y-109009781D01*
X110299359Y-108962162D01*
X110317154Y-108953938D01*
X110321843Y-108949762D01*
X110327473Y-108946979D01*
X110341765Y-108933562D01*
X110425098Y-108838323D01*
X110433426Y-108826673D01*
X110434824Y-108825178D01*
X110435546Y-108823707D01*
X110436499Y-108822376D01*
X110437154Y-108820437D01*
X110443473Y-108807586D01*
X110479188Y-108712348D01*
X110479870Y-108709789D01*
X110480457Y-108708758D01*
X110482201Y-108701046D01*
X110484239Y-108693407D01*
X110484198Y-108692220D01*
X110484783Y-108689638D01*
X110508592Y-108499162D01*
X110508688Y-108495466D01*
X110509105Y-108493953D01*
X110508916Y-108486759D01*
X110509105Y-108479566D01*
X110508688Y-108478052D01*
X110508592Y-108474356D01*
X110490735Y-108331499D01*
X110490150Y-108328916D01*
X110490191Y-108327731D01*
X110488155Y-108320096D01*
X110486409Y-108312379D01*
X110485821Y-108311346D01*
X110485140Y-108308790D01*
X110413712Y-108118314D01*
X110413608Y-108118103D01*
X110413589Y-108117987D01*
X110409274Y-108109287D01*
X110405063Y-108100722D01*
X110404983Y-108100637D01*
X110404879Y-108100426D01*
X110345355Y-108005188D01*
X110341317Y-107999950D01*
X110340296Y-107997844D01*
X110336662Y-107993912D01*
X110333386Y-107989662D01*
X110331475Y-107988299D01*
X110326991Y-107983447D01*
X110228413Y-107895822D01*
X110620809Y-107895822D01*
X110620809Y-107934840D01*
X110635741Y-107970888D01*
X110663331Y-107998478D01*
X110699379Y-108013410D01*
X110718888Y-108015331D01*
X111106801Y-108015331D01*
X111141324Y-108291521D01*
X110921269Y-108291521D01*
X110901760Y-108293442D01*
X110865712Y-108308374D01*
X110838122Y-108335964D01*
X110823190Y-108372012D01*
X110823190Y-108411030D01*
X110838122Y-108447078D01*
X110865712Y-108474668D01*
X110901760Y-108489600D01*
X110921269Y-108491521D01*
X111166324Y-108491521D01*
X111206801Y-108815331D01*
X110843888Y-108815331D01*
X110824379Y-108817252D01*
X110788331Y-108832184D01*
X110760741Y-108859774D01*
X110745809Y-108895822D01*
X110745809Y-108934840D01*
X110760741Y-108970888D01*
X110788331Y-108998478D01*
X110824379Y-109013410D01*
X110843888Y-109015331D01*
X111320079Y-109015331D01*
X111339588Y-109013410D01*
X111345380Y-109011010D01*
X111351603Y-109010233D01*
X111363256Y-109003606D01*
X111375636Y-108998478D01*
X111380069Y-108994044D01*
X111385520Y-108990945D01*
X111393748Y-108980365D01*
X111403226Y-108970888D01*
X111405625Y-108965095D01*
X111409475Y-108960146D01*
X111413028Y-108947224D01*
X111418158Y-108934840D01*
X111418158Y-108928568D01*
X111419820Y-108922524D01*
X111419307Y-108902927D01*
X111294307Y-107902928D01*
X111293158Y-107897849D01*
X111293158Y-107895822D01*
X111292147Y-107893381D01*
X111289981Y-107883807D01*
X111283354Y-107872153D01*
X111278226Y-107859774D01*
X111273792Y-107855340D01*
X111270693Y-107849890D01*
X111260113Y-107841661D01*
X111250636Y-107832184D01*
X111244843Y-107829784D01*
X111239894Y-107825935D01*
X111226972Y-107822381D01*
X111214588Y-107817252D01*
X111204817Y-107816289D01*
X111202272Y-107815590D01*
X111200261Y-107815841D01*
X111195079Y-107815331D01*
X110718888Y-107815331D01*
X110699379Y-107817252D01*
X110663331Y-107832184D01*
X110635741Y-107859774D01*
X110620809Y-107895822D01*
X110228413Y-107895822D01*
X110219848Y-107888209D01*
X110203991Y-107876684D01*
X110202825Y-107876279D01*
X110201884Y-107875483D01*
X110183889Y-107867707D01*
X110035079Y-107820089D01*
X110026522Y-107818251D01*
X110024111Y-107817252D01*
X110019976Y-107816844D01*
X110015913Y-107815972D01*
X110013310Y-107816188D01*
X110004602Y-107815331D01*
X109909364Y-107815331D01*
X109898140Y-107816436D01*
X109895569Y-107816287D01*
X109892747Y-107816967D01*
X109889855Y-107817252D01*
X109887473Y-107818238D01*
X109876512Y-107820881D01*
X109739608Y-107868500D01*
X109721813Y-107876724D01*
X109717124Y-107880897D01*
X109711495Y-107883682D01*
X109697203Y-107897099D01*
X109655536Y-107944718D01*
X109644134Y-107960665D01*
X109631634Y-107997627D01*
X109401382Y-107997627D01*
X109389545Y-107902928D01*
X109388396Y-107897849D01*
X109388396Y-107895822D01*
X109387385Y-107893381D01*
X109385219Y-107883807D01*
X109378592Y-107872153D01*
X109373464Y-107859774D01*
X109369030Y-107855340D01*
X109365931Y-107849890D01*
X109355351Y-107841661D01*
X109345874Y-107832184D01*
X109340081Y-107829784D01*
X109335132Y-107825935D01*
X109322210Y-107822381D01*
X109309826Y-107817252D01*
X109300055Y-107816289D01*
X109297510Y-107815590D01*
X109295499Y-107815841D01*
X109290317Y-107815331D01*
X108814126Y-107815331D01*
X108794617Y-107817252D01*
X108758569Y-107832184D01*
X108730979Y-107859774D01*
X108716047Y-107895822D01*
X107550108Y-107895822D01*
X107518127Y-107826046D01*
X107508253Y-107809112D01*
X107479659Y-107782563D01*
X107443082Y-107768978D01*
X107404091Y-107770423D01*
X107368621Y-107786680D01*
X107342072Y-107815274D01*
X107328487Y-107851851D01*
X107329932Y-107890842D01*
X107336315Y-107909378D01*
X107598765Y-108481997D01*
X107366690Y-108481997D01*
X107335973Y-108236261D01*
X107331647Y-108217141D01*
X107312359Y-108183223D01*
X107281560Y-108159268D01*
X107243938Y-108148923D01*
X107205222Y-108153762D01*
X107171304Y-108173050D01*
X107147349Y-108203849D01*
X107137004Y-108241471D01*
X107137517Y-108261067D01*
X107165133Y-108481997D01*
X107135554Y-108481997D01*
X107116045Y-108483918D01*
X107079997Y-108498850D01*
X107052407Y-108526440D01*
X107037475Y-108562488D01*
X106572388Y-108562488D01*
X106269497Y-108015331D01*
X106766507Y-108015331D01*
X106786016Y-108013410D01*
X106822064Y-107998478D01*
X106849654Y-107970888D01*
X106864586Y-107934840D01*
X106864586Y-107895822D01*
X106849654Y-107859774D01*
X106822064Y-107832184D01*
X106786016Y-107817252D01*
X106766507Y-107815331D01*
X106099840Y-107815331D01*
X106080331Y-107817252D01*
X106075067Y-107819432D01*
X106069407Y-107820074D01*
X106057184Y-107826839D01*
X106044283Y-107832184D01*
X106040256Y-107836210D01*
X106035270Y-107838971D01*
X106026565Y-107849901D01*
X106016693Y-107859774D01*
X106014513Y-107865035D01*
X106010964Y-107869493D01*
X106007106Y-107882916D01*
X106001761Y-107895822D01*
X106001761Y-107901519D01*
X106000188Y-107906994D01*
X105912205Y-107906994D01*
X105912205Y-107895822D01*
X105897273Y-107859774D01*
X105869683Y-107832184D01*
X105833635Y-107817252D01*
X105814126Y-107815331D01*
X105147459Y-107815331D01*
X105127950Y-107817252D01*
X105122686Y-107819432D01*
X105117026Y-107820074D01*
X105104803Y-107826839D01*
X105091902Y-107832184D01*
X105087875Y-107836210D01*
X105082889Y-107838971D01*
X105074184Y-107849901D01*
X105064312Y-107859774D01*
X105062132Y-107865035D01*
X105058583Y-107869493D01*
X105054725Y-107882916D01*
X105049380Y-107895822D01*
X105049380Y-107901519D01*
X105047807Y-107906994D01*
X104764791Y-107906994D01*
X104743658Y-107888209D01*
X104738225Y-107884260D01*
X104736635Y-107882513D01*
X104732083Y-107879797D01*
X104727800Y-107876684D01*
X104725569Y-107875910D01*
X104719801Y-107872468D01*
X104618609Y-107824849D01*
X104600139Y-107818280D01*
X104597748Y-107818167D01*
X104595539Y-107817252D01*
X104576030Y-107815331D01*
X104480792Y-107815331D01*
X104461283Y-107817252D01*
X104456742Y-107819132D01*
X104451851Y-107819610D01*
X104433733Y-107827096D01*
X104344448Y-107874715D01*
X104332317Y-107882804D01*
X104330542Y-107883682D01*
X104329416Y-107884738D01*
X104328138Y-107885591D01*
X104326884Y-107887115D01*
X104316250Y-107897099D01*
X104274583Y-107944718D01*
X104266248Y-107956374D01*
X104264856Y-107957865D01*
X104264136Y-107959328D01*
X104263181Y-107960665D01*
X104262523Y-107962609D01*
X104256207Y-107975457D01*
X104220493Y-108070695D01*
X104219811Y-108073251D01*
X104219224Y-108074284D01*
X104217477Y-108082001D01*
X104215442Y-108089636D01*
X104215482Y-108090821D01*
X104214898Y-108093404D01*
X104191088Y-108283879D01*
X104190991Y-108287576D01*
X104190575Y-108289090D01*
X104009243Y-108289090D01*
X104008592Y-108283879D01*
X104008007Y-108281296D01*
X104008048Y-108280112D01*
X104006013Y-108272483D01*
X104004266Y-108264759D01*
X104003678Y-108263725D01*
X104002997Y-108261171D01*
X103931568Y-108070694D01*
X103931464Y-108070482D01*
X103931445Y-108070368D01*
X103927186Y-108061782D01*
X103922919Y-108053102D01*
X103922838Y-108053016D01*
X103922735Y-108052807D01*
X103863211Y-107957569D01*
X103859175Y-107952334D01*
X103858153Y-107950225D01*
X103854513Y-107946287D01*
X103851242Y-107942043D01*
X103849334Y-107940682D01*
X103844848Y-107935828D01*
X103791277Y-107888209D01*
X103785844Y-107884260D01*
X103784254Y-107882513D01*
X103779702Y-107879797D01*
X103775419Y-107876684D01*
X103773188Y-107875910D01*
X103767420Y-107872468D01*
X103666228Y-107824849D01*
X103647758Y-107818280D01*
X103645367Y-107818167D01*
X103643158Y-107817252D01*
X103623649Y-107815331D01*
X103528411Y-107815331D01*
X103508902Y-107817252D01*
X103504361Y-107819132D01*
X103499470Y-107819610D01*
X103481352Y-107827096D01*
X103392067Y-107874715D01*
X103379936Y-107882804D01*
X103378161Y-107883682D01*
X103377035Y-107884738D01*
X103375757Y-107885591D01*
X103374503Y-107887115D01*
X103363869Y-107897099D01*
X103322202Y-107944718D01*
X103313867Y-107956374D01*
X103312475Y-107957865D01*
X103311755Y-107959328D01*
X103310800Y-107960665D01*
X103310142Y-107962609D01*
X103303826Y-107975457D01*
X103268112Y-108070695D01*
X103267430Y-108073251D01*
X103266843Y-108074284D01*
X103265096Y-108082001D01*
X103263061Y-108089636D01*
X103263101Y-108090821D01*
X103262517Y-108093404D01*
X103238707Y-108283879D01*
X103238610Y-108287576D01*
X103238194Y-108289090D01*
X102104481Y-108289090D01*
X102070261Y-108015331D01*
X102242697Y-108015331D01*
X102262206Y-108013410D01*
X102298254Y-107998478D01*
X102325844Y-107970888D01*
X102340776Y-107934840D01*
X102340776Y-107895822D01*
X102325844Y-107859774D01*
X102298254Y-107832184D01*
X102262206Y-107817252D01*
X102242697Y-107815331D01*
X101671268Y-107815331D01*
X101651759Y-107817252D01*
X101615711Y-107832184D01*
X101588121Y-107859774D01*
X101573189Y-107895822D01*
X97362943Y-107895822D01*
X97325259Y-107787291D01*
X97317045Y-107769491D01*
X97291115Y-107740336D01*
X97256002Y-107723322D01*
X97217051Y-107721040D01*
X97180191Y-107733839D01*
X97151036Y-107759769D01*
X97134022Y-107794882D01*
X97131740Y-107833833D01*
X97136325Y-107852893D01*
X97239023Y-108148664D01*
X97117402Y-108148664D01*
X96991925Y-107787291D01*
X96983711Y-107769491D01*
X96957781Y-107740336D01*
X96922668Y-107723322D01*
X96883717Y-107721040D01*
X96846857Y-107733839D01*
X96817702Y-107759769D01*
X96800688Y-107794882D01*
X96798406Y-107833833D01*
X96802991Y-107852893D01*
X96905689Y-108148664D01*
X96855792Y-108148664D01*
X96836283Y-108150585D01*
X96800235Y-108165517D01*
X96772645Y-108193107D01*
X96757713Y-108229155D01*
X96659294Y-108229155D01*
X96661176Y-108225155D01*
X96663014Y-108186180D01*
X96649798Y-108149468D01*
X96623539Y-108120608D01*
X96606705Y-108110563D01*
X96518578Y-108069091D01*
X96428767Y-107989259D01*
X96321100Y-107853260D01*
X96318974Y-107851058D01*
X96318310Y-107849890D01*
X96316449Y-107848443D01*
X96307485Y-107839157D01*
X96296991Y-107833308D01*
X96287511Y-107825935D01*
X96280108Y-107823899D01*
X96273402Y-107820162D01*
X96261471Y-107818774D01*
X96249889Y-107815590D01*
X96242268Y-107816542D01*
X96234645Y-107815656D01*
X96223094Y-107818938D01*
X96211172Y-107820429D01*
X96204498Y-107824224D01*
X96197114Y-107826323D01*
X96187694Y-107833780D01*
X96177255Y-107839717D01*
X96172542Y-107845775D01*
X96166522Y-107850542D01*
X96160673Y-107861035D01*
X96153300Y-107870516D01*
X96151264Y-107877918D01*
X96147527Y-107884625D01*
X96146139Y-107896555D01*
X96142955Y-107908138D01*
X96143292Y-107921043D01*
X96143021Y-107923382D01*
X96143387Y-107924672D01*
X96143468Y-107927734D01*
X96254418Y-108815331D01*
X96081982Y-108815331D01*
X96062473Y-108817252D01*
X96026425Y-108832184D01*
X95998835Y-108859774D01*
X95983903Y-108895822D01*
X95872792Y-108895822D01*
X95872792Y-107609929D01*
X111571900Y-107609929D01*
X111571900Y-112679663D01*
G37*
X94212383Y-108492872D02*
X93736193Y-108492872D01*
X94343336Y-108778587D02*
X93885002Y-107778587D01*
X93885002Y-107778587D02*
X93676669Y-108778587D01*
X93260002Y-108111920D02*
X93343336Y-108778587D01*
X93271907Y-108207158D02*
X93218336Y-108159539D01*
X93218336Y-108159539D02*
X93117145Y-108111920D01*
X93117145Y-108111920D02*
X92974288Y-108111920D01*
X92974288Y-108111920D02*
X92885002Y-108159539D01*
X92885002Y-108159539D02*
X92849288Y-108254777D01*
X92849288Y-108254777D02*
X92914764Y-108778587D01*
X92010002Y-108778587D02*
X91885002Y-107778587D01*
X92004050Y-108730968D02*
X92105240Y-108778587D01*
X92105240Y-108778587D02*
X92295717Y-108778587D01*
X92295717Y-108778587D02*
X92385002Y-108730968D01*
X92385002Y-108730968D02*
X92426669Y-108683348D01*
X92426669Y-108683348D02*
X92462383Y-108588110D01*
X92462383Y-108588110D02*
X92426669Y-108302396D01*
X92426669Y-108302396D02*
X92367145Y-108207158D01*
X92367145Y-108207158D02*
X92313574Y-108159539D01*
X92313574Y-108159539D02*
X92212383Y-108111920D01*
X92212383Y-108111920D02*
X92021907Y-108111920D01*
X92021907Y-108111920D02*
X91932621Y-108159539D01*
X91533812Y-108778587D02*
X91450478Y-108111920D01*
X91474288Y-108302396D02*
X91414764Y-108207158D01*
X91414764Y-108207158D02*
X91361193Y-108159539D01*
X91361193Y-108159539D02*
X91260002Y-108111920D01*
X91260002Y-108111920D02*
X91164764Y-108111920D01*
X90527859Y-108730968D02*
X90629049Y-108778587D01*
X90629049Y-108778587D02*
X90819526Y-108778587D01*
X90819526Y-108778587D02*
X90908811Y-108730968D01*
X90908811Y-108730968D02*
X90944526Y-108635729D01*
X90944526Y-108635729D02*
X90896907Y-108254777D01*
X90896907Y-108254777D02*
X90837383Y-108159539D01*
X90837383Y-108159539D02*
X90736192Y-108111920D01*
X90736192Y-108111920D02*
X90545716Y-108111920D01*
X90545716Y-108111920D02*
X90456430Y-108159539D01*
X90456430Y-108159539D02*
X90420716Y-108254777D01*
X90420716Y-108254777D02*
X90432621Y-108350015D01*
X90432621Y-108350015D02*
X90920716Y-108445253D01*
X90069525Y-108111920D02*
X89962383Y-108778587D01*
X89962383Y-108778587D02*
X89712383Y-108302396D01*
X89712383Y-108302396D02*
X89581430Y-108778587D01*
X89581430Y-108778587D02*
X89307621Y-108111920D01*
X87664763Y-108683348D02*
X87718335Y-108730968D01*
X87718335Y-108730968D02*
X87867144Y-108778587D01*
X87867144Y-108778587D02*
X87962382Y-108778587D01*
X87962382Y-108778587D02*
X88099287Y-108730968D01*
X88099287Y-108730968D02*
X88182620Y-108635729D01*
X88182620Y-108635729D02*
X88218335Y-108540491D01*
X88218335Y-108540491D02*
X88242144Y-108350015D01*
X88242144Y-108350015D02*
X88224287Y-108207158D01*
X88224287Y-108207158D02*
X88152859Y-108016682D01*
X88152859Y-108016682D02*
X88093335Y-107921444D01*
X88093335Y-107921444D02*
X87986192Y-107826206D01*
X87986192Y-107826206D02*
X87837382Y-107778587D01*
X87837382Y-107778587D02*
X87742144Y-107778587D01*
X87742144Y-107778587D02*
X87605240Y-107826206D01*
X87605240Y-107826206D02*
X87563573Y-107873825D01*
X86819525Y-108778587D02*
X86754049Y-108254777D01*
X86754049Y-108254777D02*
X86789763Y-108159539D01*
X86789763Y-108159539D02*
X86879049Y-108111920D01*
X86879049Y-108111920D02*
X87069525Y-108111920D01*
X87069525Y-108111920D02*
X87170716Y-108159539D01*
X86813573Y-108730968D02*
X86914763Y-108778587D01*
X86914763Y-108778587D02*
X87152859Y-108778587D01*
X87152859Y-108778587D02*
X87242144Y-108730968D01*
X87242144Y-108730968D02*
X87277859Y-108635729D01*
X87277859Y-108635729D02*
X87265954Y-108540491D01*
X87265954Y-108540491D02*
X87206430Y-108445253D01*
X87206430Y-108445253D02*
X87105240Y-108397634D01*
X87105240Y-108397634D02*
X86867144Y-108397634D01*
X86867144Y-108397634D02*
X86765954Y-108350015D01*
X86200478Y-108778587D02*
X86289763Y-108730968D01*
X86289763Y-108730968D02*
X86325478Y-108635729D01*
X86325478Y-108635729D02*
X86218335Y-107778587D01*
X85819525Y-108778587D02*
X85736191Y-108111920D01*
X85694525Y-107778587D02*
X85748096Y-107826206D01*
X85748096Y-107826206D02*
X85706429Y-107873825D01*
X85706429Y-107873825D02*
X85652858Y-107826206D01*
X85652858Y-107826206D02*
X85694525Y-107778587D01*
X85694525Y-107778587D02*
X85706429Y-107873825D01*
X94200479Y-110388531D02*
X94075479Y-109388531D01*
X94075479Y-109388531D02*
X93837383Y-109388531D01*
X93837383Y-109388531D02*
X93700479Y-109436150D01*
X93700479Y-109436150D02*
X93617145Y-109531388D01*
X93617145Y-109531388D02*
X93581431Y-109626626D01*
X93581431Y-109626626D02*
X93557622Y-109817102D01*
X93557622Y-109817102D02*
X93575479Y-109959959D01*
X93575479Y-109959959D02*
X93646907Y-110150435D01*
X93646907Y-110150435D02*
X93706431Y-110245673D01*
X93706431Y-110245673D02*
X93813574Y-110340912D01*
X93813574Y-110340912D02*
X93962383Y-110388531D01*
X93962383Y-110388531D02*
X94200479Y-110388531D01*
X92771907Y-110388531D02*
X92706431Y-109864721D01*
X92706431Y-109864721D02*
X92742145Y-109769483D01*
X92742145Y-109769483D02*
X92831431Y-109721864D01*
X92831431Y-109721864D02*
X93021907Y-109721864D01*
X93021907Y-109721864D02*
X93123098Y-109769483D01*
X92765955Y-110340912D02*
X92867145Y-110388531D01*
X92867145Y-110388531D02*
X93105241Y-110388531D01*
X93105241Y-110388531D02*
X93194526Y-110340912D01*
X93194526Y-110340912D02*
X93230241Y-110245673D01*
X93230241Y-110245673D02*
X93218336Y-110150435D01*
X93218336Y-110150435D02*
X93158812Y-110055197D01*
X93158812Y-110055197D02*
X93057622Y-110007578D01*
X93057622Y-110007578D02*
X92819526Y-110007578D01*
X92819526Y-110007578D02*
X92718336Y-109959959D01*
X92307621Y-109721864D02*
X92152860Y-110388531D01*
X92152860Y-110388531D02*
X91831431Y-109721864D01*
X91533812Y-110388531D02*
X91450478Y-109721864D01*
X91408812Y-109388531D02*
X91462383Y-109436150D01*
X91462383Y-109436150D02*
X91420716Y-109483769D01*
X91420716Y-109483769D02*
X91367145Y-109436150D01*
X91367145Y-109436150D02*
X91408812Y-109388531D01*
X91408812Y-109388531D02*
X91420716Y-109483769D01*
X90629050Y-110388531D02*
X90504050Y-109388531D01*
X90623098Y-110340912D02*
X90724288Y-110388531D01*
X90724288Y-110388531D02*
X90914765Y-110388531D01*
X90914765Y-110388531D02*
X91004050Y-110340912D01*
X91004050Y-110340912D02*
X91045717Y-110293292D01*
X91045717Y-110293292D02*
X91081431Y-110198054D01*
X91081431Y-110198054D02*
X91045717Y-109912340D01*
X91045717Y-109912340D02*
X90986193Y-109817102D01*
X90986193Y-109817102D02*
X90932622Y-109769483D01*
X90932622Y-109769483D02*
X90831431Y-109721864D01*
X90831431Y-109721864D02*
X90640955Y-109721864D01*
X90640955Y-109721864D02*
X90551669Y-109769483D01*
X88992145Y-109864721D02*
X89325478Y-109864721D01*
X89390955Y-110388531D02*
X89265955Y-109388531D01*
X89265955Y-109388531D02*
X88789764Y-109388531D01*
X88105240Y-110388531D02*
X88039764Y-109864721D01*
X88039764Y-109864721D02*
X88075478Y-109769483D01*
X88075478Y-109769483D02*
X88164764Y-109721864D01*
X88164764Y-109721864D02*
X88355240Y-109721864D01*
X88355240Y-109721864D02*
X88456431Y-109769483D01*
X88099288Y-110340912D02*
X88200478Y-110388531D01*
X88200478Y-110388531D02*
X88438574Y-110388531D01*
X88438574Y-110388531D02*
X88527859Y-110340912D01*
X88527859Y-110340912D02*
X88563574Y-110245673D01*
X88563574Y-110245673D02*
X88551669Y-110150435D01*
X88551669Y-110150435D02*
X88492145Y-110055197D01*
X88492145Y-110055197D02*
X88390955Y-110007578D01*
X88390955Y-110007578D02*
X88152859Y-110007578D01*
X88152859Y-110007578D02*
X88051669Y-109959959D01*
X87486193Y-110388531D02*
X87575478Y-110340912D01*
X87575478Y-110340912D02*
X87611193Y-110245673D01*
X87611193Y-110245673D02*
X87504050Y-109388531D01*
X86962383Y-110388531D02*
X87051668Y-110340912D01*
X87051668Y-110340912D02*
X87087383Y-110245673D01*
X87087383Y-110245673D02*
X86980240Y-109388531D01*
X93789764Y-110998475D02*
X93879050Y-111712760D01*
X93879050Y-111712760D02*
X93944526Y-111855617D01*
X93944526Y-111855617D02*
X94051669Y-111950856D01*
X94051669Y-111950856D02*
X94200479Y-111998475D01*
X94200479Y-111998475D02*
X94295717Y-111998475D01*
X93051669Y-111950856D02*
X93152859Y-111998475D01*
X93152859Y-111998475D02*
X93343336Y-111998475D01*
X93343336Y-111998475D02*
X93432621Y-111950856D01*
X93432621Y-111950856D02*
X93468336Y-111855617D01*
X93468336Y-111855617D02*
X93420717Y-111474665D01*
X93420717Y-111474665D02*
X93361193Y-111379427D01*
X93361193Y-111379427D02*
X93260002Y-111331808D01*
X93260002Y-111331808D02*
X93069526Y-111331808D01*
X93069526Y-111331808D02*
X92980240Y-111379427D01*
X92980240Y-111379427D02*
X92944526Y-111474665D01*
X92944526Y-111474665D02*
X92956431Y-111569903D01*
X92956431Y-111569903D02*
X93444526Y-111665141D01*
X92498097Y-111331808D02*
X92581431Y-111998475D01*
X92510002Y-111427046D02*
X92456431Y-111379427D01*
X92456431Y-111379427D02*
X92355240Y-111331808D01*
X92355240Y-111331808D02*
X92212383Y-111331808D01*
X92212383Y-111331808D02*
X92123097Y-111379427D01*
X92123097Y-111379427D02*
X92087383Y-111474665D01*
X92087383Y-111474665D02*
X92152859Y-111998475D01*
X91593335Y-111331808D02*
X91676669Y-111998475D01*
X91605240Y-111427046D02*
X91551669Y-111379427D01*
X91551669Y-111379427D02*
X91450478Y-111331808D01*
X91450478Y-111331808D02*
X91307621Y-111331808D01*
X91307621Y-111331808D02*
X91218335Y-111379427D01*
X91218335Y-111379427D02*
X91182621Y-111474665D01*
X91182621Y-111474665D02*
X91248097Y-111998475D01*
X90771907Y-111998475D02*
X90688573Y-111331808D01*
X90646907Y-110998475D02*
X90700478Y-111046094D01*
X90700478Y-111046094D02*
X90658811Y-111093713D01*
X90658811Y-111093713D02*
X90605240Y-111046094D01*
X90605240Y-111046094D02*
X90646907Y-110998475D01*
X90646907Y-110998475D02*
X90658811Y-111093713D01*
X90355240Y-111331808D02*
X89974288Y-111331808D01*
X90295717Y-111998475D02*
X90188574Y-111141332D01*
X90188574Y-111141332D02*
X90129050Y-111046094D01*
X90129050Y-111046094D02*
X90027860Y-110998475D01*
X90027860Y-110998475D02*
X89932621Y-110998475D01*
X89337383Y-111950856D02*
X89438573Y-111998475D01*
X89438573Y-111998475D02*
X89629050Y-111998475D01*
X89629050Y-111998475D02*
X89718335Y-111950856D01*
X89718335Y-111950856D02*
X89754050Y-111855617D01*
X89754050Y-111855617D02*
X89706431Y-111474665D01*
X89706431Y-111474665D02*
X89646907Y-111379427D01*
X89646907Y-111379427D02*
X89545716Y-111331808D01*
X89545716Y-111331808D02*
X89355240Y-111331808D01*
X89355240Y-111331808D02*
X89265954Y-111379427D01*
X89265954Y-111379427D02*
X89230240Y-111474665D01*
X89230240Y-111474665D02*
X89242145Y-111569903D01*
X89242145Y-111569903D02*
X89730240Y-111665141D01*
X88867145Y-111998475D02*
X88783811Y-111331808D01*
X88807621Y-111522284D02*
X88748097Y-111427046D01*
X88748097Y-111427046D02*
X88694526Y-111379427D01*
X88694526Y-111379427D02*
X88593335Y-111331808D01*
X88593335Y-111331808D02*
X88498097Y-111331808D01*
X87087382Y-111474665D02*
X87420715Y-111474665D01*
X87486192Y-111998475D02*
X87361192Y-110998475D01*
X87361192Y-110998475D02*
X86885001Y-110998475D01*
X86242144Y-111950856D02*
X86343334Y-111998475D01*
X86343334Y-111998475D02*
X86533811Y-111998475D01*
X86533811Y-111998475D02*
X86623096Y-111950856D01*
X86623096Y-111950856D02*
X86658811Y-111855617D01*
X86658811Y-111855617D02*
X86611192Y-111474665D01*
X86611192Y-111474665D02*
X86551668Y-111379427D01*
X86551668Y-111379427D02*
X86450477Y-111331808D01*
X86450477Y-111331808D02*
X86260001Y-111331808D01*
X86260001Y-111331808D02*
X86170715Y-111379427D01*
X86170715Y-111379427D02*
X86135001Y-111474665D01*
X86135001Y-111474665D02*
X86146906Y-111569903D01*
X86146906Y-111569903D02*
X86635001Y-111665141D01*
X85771906Y-111998475D02*
X85688572Y-111331808D01*
X85712382Y-111522284D02*
X85652858Y-111427046D01*
X85652858Y-111427046D02*
X85599287Y-111379427D01*
X85599287Y-111379427D02*
X85498096Y-111331808D01*
X85498096Y-111331808D02*
X85402858Y-111331808D01*
X84640953Y-111331808D02*
X84742143Y-112141332D01*
X84742143Y-112141332D02*
X84801667Y-112236570D01*
X84801667Y-112236570D02*
X84855239Y-112284189D01*
X84855239Y-112284189D02*
X84956429Y-112331808D01*
X84956429Y-112331808D02*
X85099286Y-112331808D01*
X85099286Y-112331808D02*
X85188572Y-112284189D01*
X84718334Y-111950856D02*
X84819524Y-111998475D01*
X84819524Y-111998475D02*
X85010001Y-111998475D01*
X85010001Y-111998475D02*
X85099286Y-111950856D01*
X85099286Y-111950856D02*
X85140953Y-111903236D01*
X85140953Y-111903236D02*
X85176667Y-111807998D01*
X85176667Y-111807998D02*
X85140953Y-111522284D01*
X85140953Y-111522284D02*
X85081429Y-111427046D01*
X85081429Y-111427046D02*
X85027858Y-111379427D01*
X85027858Y-111379427D02*
X84926667Y-111331808D01*
X84926667Y-111331808D02*
X84736191Y-111331808D01*
X84736191Y-111331808D02*
X84646905Y-111379427D01*
X83736191Y-111331808D02*
X83819524Y-111998475D01*
X84164762Y-111331808D02*
X84230239Y-111855617D01*
X84230239Y-111855617D02*
X84194524Y-111950856D01*
X84194524Y-111950856D02*
X84105239Y-111998475D01*
X84105239Y-111998475D02*
X83962381Y-111998475D01*
X83962381Y-111998475D02*
X83861191Y-111950856D01*
X83861191Y-111950856D02*
X83807619Y-111903236D01*
X83385000Y-111950856D02*
X83295715Y-111998475D01*
X83295715Y-111998475D02*
X83105238Y-111998475D01*
X83105238Y-111998475D02*
X83004048Y-111950856D01*
X83004048Y-111950856D02*
X82944524Y-111855617D01*
X82944524Y-111855617D02*
X82938572Y-111807998D01*
X82938572Y-111807998D02*
X82974286Y-111712760D01*
X82974286Y-111712760D02*
X83063572Y-111665141D01*
X83063572Y-111665141D02*
X83206429Y-111665141D01*
X83206429Y-111665141D02*
X83295715Y-111617522D01*
X83295715Y-111617522D02*
X83331429Y-111522284D01*
X83331429Y-111522284D02*
X83325477Y-111474665D01*
X83325477Y-111474665D02*
X83265953Y-111379427D01*
X83265953Y-111379427D02*
X83164762Y-111331808D01*
X83164762Y-111331808D02*
X83021905Y-111331808D01*
X83021905Y-111331808D02*
X82932619Y-111379427D01*
X82390953Y-111998475D02*
X82480238Y-111950856D01*
X82480238Y-111950856D02*
X82521905Y-111903236D01*
X82521905Y-111903236D02*
X82557619Y-111807998D01*
X82557619Y-111807998D02*
X82521905Y-111522284D01*
X82521905Y-111522284D02*
X82462381Y-111427046D01*
X82462381Y-111427046D02*
X82408810Y-111379427D01*
X82408810Y-111379427D02*
X82307619Y-111331808D01*
X82307619Y-111331808D02*
X82164762Y-111331808D01*
X82164762Y-111331808D02*
X82075476Y-111379427D01*
X82075476Y-111379427D02*
X82033810Y-111427046D01*
X82033810Y-111427046D02*
X81998095Y-111522284D01*
X81998095Y-111522284D02*
X82033810Y-111807998D01*
X82033810Y-111807998D02*
X82093333Y-111903236D01*
X82093333Y-111903236D02*
X82146905Y-111950856D01*
X82146905Y-111950856D02*
X82248095Y-111998475D01*
X82248095Y-111998475D02*
X82390953Y-111998475D01*
X81545714Y-111331808D02*
X81629048Y-111998475D01*
X81557619Y-111427046D02*
X81504048Y-111379427D01*
X81504048Y-111379427D02*
X81402857Y-111331808D01*
X81402857Y-111331808D02*
X81260000Y-111331808D01*
X81260000Y-111331808D02*
X81170714Y-111379427D01*
X81170714Y-111379427D02*
X81135000Y-111474665D01*
X81135000Y-111474665D02*
X81200476Y-111998475D01*
X94200479Y-113608419D02*
X94075479Y-112608419D01*
X94075479Y-112608419D02*
X93831431Y-113322704D01*
X93831431Y-113322704D02*
X93408812Y-112608419D01*
X93408812Y-112608419D02*
X93533812Y-113608419D01*
X92629050Y-113608419D02*
X92563574Y-113084609D01*
X92563574Y-113084609D02*
X92599288Y-112989371D01*
X92599288Y-112989371D02*
X92688574Y-112941752D01*
X92688574Y-112941752D02*
X92879050Y-112941752D01*
X92879050Y-112941752D02*
X92980241Y-112989371D01*
X92623098Y-113560800D02*
X92724288Y-113608419D01*
X92724288Y-113608419D02*
X92962384Y-113608419D01*
X92962384Y-113608419D02*
X93051669Y-113560800D01*
X93051669Y-113560800D02*
X93087384Y-113465561D01*
X93087384Y-113465561D02*
X93075479Y-113370323D01*
X93075479Y-113370323D02*
X93015955Y-113275085D01*
X93015955Y-113275085D02*
X92914765Y-113227466D01*
X92914765Y-113227466D02*
X92676669Y-113227466D01*
X92676669Y-113227466D02*
X92575479Y-113179847D01*
X91724288Y-113608419D02*
X91599288Y-112608419D01*
X91718336Y-113560800D02*
X91819526Y-113608419D01*
X91819526Y-113608419D02*
X92010003Y-113608419D01*
X92010003Y-113608419D02*
X92099288Y-113560800D01*
X92099288Y-113560800D02*
X92140955Y-113513180D01*
X92140955Y-113513180D02*
X92176669Y-113417942D01*
X92176669Y-113417942D02*
X92140955Y-113132228D01*
X92140955Y-113132228D02*
X92081431Y-113036990D01*
X92081431Y-113036990D02*
X92027860Y-112989371D01*
X92027860Y-112989371D02*
X91926669Y-112941752D01*
X91926669Y-112941752D02*
X91736193Y-112941752D01*
X91736193Y-112941752D02*
X91646907Y-112989371D01*
X90861193Y-113560800D02*
X90962383Y-113608419D01*
X90962383Y-113608419D02*
X91152860Y-113608419D01*
X91152860Y-113608419D02*
X91242145Y-113560800D01*
X91242145Y-113560800D02*
X91277860Y-113465561D01*
X91277860Y-113465561D02*
X91230241Y-113084609D01*
X91230241Y-113084609D02*
X91170717Y-112989371D01*
X91170717Y-112989371D02*
X91069526Y-112941752D01*
X91069526Y-112941752D02*
X90879050Y-112941752D01*
X90879050Y-112941752D02*
X90789764Y-112989371D01*
X90789764Y-112989371D02*
X90754050Y-113084609D01*
X90754050Y-113084609D02*
X90765955Y-113179847D01*
X90765955Y-113179847D02*
X91254050Y-113275085D01*
X90248098Y-113608419D02*
X90337383Y-113560800D01*
X90337383Y-113560800D02*
X90373098Y-113465561D01*
X90373098Y-113465561D02*
X90265955Y-112608419D01*
X89867145Y-113608419D02*
X89783811Y-112941752D01*
X89742145Y-112608419D02*
X89795716Y-112656038D01*
X89795716Y-112656038D02*
X89754049Y-112703657D01*
X89754049Y-112703657D02*
X89700478Y-112656038D01*
X89700478Y-112656038D02*
X89742145Y-112608419D01*
X89742145Y-112608419D02*
X89754049Y-112703657D01*
X89307621Y-112941752D02*
X89390955Y-113608419D01*
X89319526Y-113036990D02*
X89265955Y-112989371D01*
X89265955Y-112989371D02*
X89164764Y-112941752D01*
X89164764Y-112941752D02*
X89021907Y-112941752D01*
X89021907Y-112941752D02*
X88932621Y-112989371D01*
X88932621Y-112989371D02*
X88896907Y-113084609D01*
X88896907Y-113084609D02*
X88962383Y-113608419D01*
X88099288Y-113560800D02*
X88200478Y-113608419D01*
X88200478Y-113608419D02*
X88390955Y-113608419D01*
X88390955Y-113608419D02*
X88480240Y-113560800D01*
X88480240Y-113560800D02*
X88515955Y-113465561D01*
X88515955Y-113465561D02*
X88468336Y-113084609D01*
X88468336Y-113084609D02*
X88408812Y-112989371D01*
X88408812Y-112989371D02*
X88307621Y-112941752D01*
X88307621Y-112941752D02*
X88117145Y-112941752D01*
X88117145Y-112941752D02*
X88027859Y-112989371D01*
X88027859Y-112989371D02*
X87992145Y-113084609D01*
X87992145Y-113084609D02*
X88004050Y-113179847D01*
X88004050Y-113179847D02*
X88492145Y-113275085D01*
X86468335Y-113084609D02*
X86801668Y-113084609D01*
X86867145Y-113608419D02*
X86742145Y-112608419D01*
X86742145Y-112608419D02*
X86265954Y-112608419D01*
X85867145Y-113608419D02*
X85956430Y-113560800D01*
X85956430Y-113560800D02*
X85992145Y-113465561D01*
X85992145Y-113465561D02*
X85885002Y-112608419D01*
X85057620Y-113608419D02*
X84992144Y-113084609D01*
X84992144Y-113084609D02*
X85027858Y-112989371D01*
X85027858Y-112989371D02*
X85117144Y-112941752D01*
X85117144Y-112941752D02*
X85307620Y-112941752D01*
X85307620Y-112941752D02*
X85408811Y-112989371D01*
X85051668Y-113560800D02*
X85152858Y-113608419D01*
X85152858Y-113608419D02*
X85390954Y-113608419D01*
X85390954Y-113608419D02*
X85480239Y-113560800D01*
X85480239Y-113560800D02*
X85515954Y-113465561D01*
X85515954Y-113465561D02*
X85504049Y-113370323D01*
X85504049Y-113370323D02*
X85444525Y-113275085D01*
X85444525Y-113275085D02*
X85343335Y-113227466D01*
X85343335Y-113227466D02*
X85105239Y-113227466D01*
X85105239Y-113227466D02*
X85004049Y-113179847D01*
X84498096Y-112941752D02*
X84581430Y-113608419D01*
X84510001Y-113036990D02*
X84456430Y-112989371D01*
X84456430Y-112989371D02*
X84355239Y-112941752D01*
X84355239Y-112941752D02*
X84212382Y-112941752D01*
X84212382Y-112941752D02*
X84123096Y-112989371D01*
X84123096Y-112989371D02*
X84087382Y-113084609D01*
X84087382Y-113084609D02*
X84152858Y-113608419D01*
X83248096Y-113608419D02*
X83182620Y-113084609D01*
X83182620Y-113084609D02*
X83218334Y-112989371D01*
X83218334Y-112989371D02*
X83307620Y-112941752D01*
X83307620Y-112941752D02*
X83498096Y-112941752D01*
X83498096Y-112941752D02*
X83599287Y-112989371D01*
X83242144Y-113560800D02*
X83343334Y-113608419D01*
X83343334Y-113608419D02*
X83581430Y-113608419D01*
X83581430Y-113608419D02*
X83670715Y-113560800D01*
X83670715Y-113560800D02*
X83706430Y-113465561D01*
X83706430Y-113465561D02*
X83694525Y-113370323D01*
X83694525Y-113370323D02*
X83635001Y-113275085D01*
X83635001Y-113275085D02*
X83533811Y-113227466D01*
X83533811Y-113227466D02*
X83295715Y-113227466D01*
X83295715Y-113227466D02*
X83194525Y-113179847D01*
X82260001Y-112941752D02*
X82361191Y-113751276D01*
X82361191Y-113751276D02*
X82420715Y-113846514D01*
X82420715Y-113846514D02*
X82474287Y-113894133D01*
X82474287Y-113894133D02*
X82575477Y-113941752D01*
X82575477Y-113941752D02*
X82718334Y-113941752D01*
X82718334Y-113941752D02*
X82807620Y-113894133D01*
X82337382Y-113560800D02*
X82438572Y-113608419D01*
X82438572Y-113608419D02*
X82629049Y-113608419D01*
X82629049Y-113608419D02*
X82718334Y-113560800D01*
X82718334Y-113560800D02*
X82760001Y-113513180D01*
X82760001Y-113513180D02*
X82795715Y-113417942D01*
X82795715Y-113417942D02*
X82760001Y-113132228D01*
X82760001Y-113132228D02*
X82700477Y-113036990D01*
X82700477Y-113036990D02*
X82646906Y-112989371D01*
X82646906Y-112989371D02*
X82545715Y-112941752D01*
X82545715Y-112941752D02*
X82355239Y-112941752D01*
X82355239Y-112941752D02*
X82265953Y-112989371D01*
X81438572Y-113608419D02*
X81373096Y-113084609D01*
X81373096Y-113084609D02*
X81408810Y-112989371D01*
X81408810Y-112989371D02*
X81498096Y-112941752D01*
X81498096Y-112941752D02*
X81688572Y-112941752D01*
X81688572Y-112941752D02*
X81789763Y-112989371D01*
X81432620Y-113560800D02*
X81533810Y-113608419D01*
X81533810Y-113608419D02*
X81771906Y-113608419D01*
X81771906Y-113608419D02*
X81861191Y-113560800D01*
X81861191Y-113560800D02*
X81896906Y-113465561D01*
X81896906Y-113465561D02*
X81885001Y-113370323D01*
X81885001Y-113370323D02*
X81825477Y-113275085D01*
X81825477Y-113275085D02*
X81724287Y-113227466D01*
X81724287Y-113227466D02*
X81486191Y-113227466D01*
X81486191Y-113227466D02*
X81385001Y-113179847D01*
X80879048Y-112941752D02*
X80962382Y-113608419D01*
X80890953Y-113036990D02*
X80837382Y-112989371D01*
X80837382Y-112989371D02*
X80736191Y-112941752D01*
X80736191Y-112941752D02*
X80593334Y-112941752D01*
X80593334Y-112941752D02*
X80504048Y-112989371D01*
X80504048Y-112989371D02*
X80468334Y-113084609D01*
X80468334Y-113084609D02*
X80533810Y-113608419D01*
D11*
X126626580Y-75324642D02*
X126674200Y-75277023D01*
X126674200Y-75277023D02*
X126721819Y-75134166D01*
X126721819Y-75134166D02*
X126721819Y-75038928D01*
X126721819Y-75038928D02*
X126674200Y-74896071D01*
X126674200Y-74896071D02*
X126578961Y-74800833D01*
X126578961Y-74800833D02*
X126483723Y-74753214D01*
X126483723Y-74753214D02*
X126293247Y-74705595D01*
X126293247Y-74705595D02*
X126150390Y-74705595D01*
X126150390Y-74705595D02*
X125959914Y-74753214D01*
X125959914Y-74753214D02*
X125864676Y-74800833D01*
X125864676Y-74800833D02*
X125769438Y-74896071D01*
X125769438Y-74896071D02*
X125721819Y-75038928D01*
X125721819Y-75038928D02*
X125721819Y-75134166D01*
X125721819Y-75134166D02*
X125769438Y-75277023D01*
X125769438Y-75277023D02*
X125817057Y-75324642D01*
X126721819Y-76277023D02*
X126721819Y-75705595D01*
X126721819Y-75991309D02*
X125721819Y-75991309D01*
X125721819Y-75991309D02*
X125864676Y-75896071D01*
X125864676Y-75896071D02*
X125959914Y-75800833D01*
X125959914Y-75800833D02*
X126007533Y-75705595D01*
X125721819Y-76610357D02*
X125721819Y-77277023D01*
X125721819Y-77277023D02*
X126721819Y-76848452D01*
X161261219Y-89784133D02*
X160785028Y-89450800D01*
X161261219Y-89212705D02*
X160261219Y-89212705D01*
X160261219Y-89212705D02*
X160261219Y-89593657D01*
X160261219Y-89593657D02*
X160308838Y-89688895D01*
X160308838Y-89688895D02*
X160356457Y-89736514D01*
X160356457Y-89736514D02*
X160451695Y-89784133D01*
X160451695Y-89784133D02*
X160594552Y-89784133D01*
X160594552Y-89784133D02*
X160689790Y-89736514D01*
X160689790Y-89736514D02*
X160737409Y-89688895D01*
X160737409Y-89688895D02*
X160785028Y-89593657D01*
X160785028Y-89593657D02*
X160785028Y-89212705D01*
X160356457Y-90165086D02*
X160308838Y-90212705D01*
X160308838Y-90212705D02*
X160261219Y-90307943D01*
X160261219Y-90307943D02*
X160261219Y-90546038D01*
X160261219Y-90546038D02*
X160308838Y-90641276D01*
X160308838Y-90641276D02*
X160356457Y-90688895D01*
X160356457Y-90688895D02*
X160451695Y-90736514D01*
X160451695Y-90736514D02*
X160546933Y-90736514D01*
X160546933Y-90736514D02*
X160689790Y-90688895D01*
X160689790Y-90688895D02*
X161261219Y-90117467D01*
X161261219Y-90117467D02*
X161261219Y-90736514D01*
X151431419Y-76753933D02*
X150955228Y-76420600D01*
X151431419Y-76182505D02*
X150431419Y-76182505D01*
X150431419Y-76182505D02*
X150431419Y-76563457D01*
X150431419Y-76563457D02*
X150479038Y-76658695D01*
X150479038Y-76658695D02*
X150526657Y-76706314D01*
X150526657Y-76706314D02*
X150621895Y-76753933D01*
X150621895Y-76753933D02*
X150764752Y-76753933D01*
X150764752Y-76753933D02*
X150859990Y-76706314D01*
X150859990Y-76706314D02*
X150907609Y-76658695D01*
X150907609Y-76658695D02*
X150955228Y-76563457D01*
X150955228Y-76563457D02*
X150955228Y-76182505D01*
X151431419Y-77706314D02*
X151431419Y-77134886D01*
X151431419Y-77420600D02*
X150431419Y-77420600D01*
X150431419Y-77420600D02*
X150574276Y-77325362D01*
X150574276Y-77325362D02*
X150669514Y-77230124D01*
X150669514Y-77230124D02*
X150717133Y-77134886D01*
X148006180Y-72375733D02*
X148053800Y-72328114D01*
X148053800Y-72328114D02*
X148101419Y-72185257D01*
X148101419Y-72185257D02*
X148101419Y-72090019D01*
X148101419Y-72090019D02*
X148053800Y-71947162D01*
X148053800Y-71947162D02*
X147958561Y-71851924D01*
X147958561Y-71851924D02*
X147863323Y-71804305D01*
X147863323Y-71804305D02*
X147672847Y-71756686D01*
X147672847Y-71756686D02*
X147529990Y-71756686D01*
X147529990Y-71756686D02*
X147339514Y-71804305D01*
X147339514Y-71804305D02*
X147244276Y-71851924D01*
X147244276Y-71851924D02*
X147149038Y-71947162D01*
X147149038Y-71947162D02*
X147101419Y-72090019D01*
X147101419Y-72090019D02*
X147101419Y-72185257D01*
X147101419Y-72185257D02*
X147149038Y-72328114D01*
X147149038Y-72328114D02*
X147196657Y-72375733D01*
X147101419Y-72709067D02*
X147101419Y-73328114D01*
X147101419Y-73328114D02*
X147482371Y-72994781D01*
X147482371Y-72994781D02*
X147482371Y-73137638D01*
X147482371Y-73137638D02*
X147529990Y-73232876D01*
X147529990Y-73232876D02*
X147577609Y-73280495D01*
X147577609Y-73280495D02*
X147672847Y-73328114D01*
X147672847Y-73328114D02*
X147910942Y-73328114D01*
X147910942Y-73328114D02*
X148006180Y-73280495D01*
X148006180Y-73280495D02*
X148053800Y-73232876D01*
X148053800Y-73232876D02*
X148101419Y-73137638D01*
X148101419Y-73137638D02*
X148101419Y-72851924D01*
X148101419Y-72851924D02*
X148053800Y-72756686D01*
X148053800Y-72756686D02*
X148006180Y-72709067D01*
X139751180Y-79113142D02*
X139798800Y-79065523D01*
X139798800Y-79065523D02*
X139846419Y-78922666D01*
X139846419Y-78922666D02*
X139846419Y-78827428D01*
X139846419Y-78827428D02*
X139798800Y-78684571D01*
X139798800Y-78684571D02*
X139703561Y-78589333D01*
X139703561Y-78589333D02*
X139608323Y-78541714D01*
X139608323Y-78541714D02*
X139417847Y-78494095D01*
X139417847Y-78494095D02*
X139274990Y-78494095D01*
X139274990Y-78494095D02*
X139084514Y-78541714D01*
X139084514Y-78541714D02*
X138989276Y-78589333D01*
X138989276Y-78589333D02*
X138894038Y-78684571D01*
X138894038Y-78684571D02*
X138846419Y-78827428D01*
X138846419Y-78827428D02*
X138846419Y-78922666D01*
X138846419Y-78922666D02*
X138894038Y-79065523D01*
X138894038Y-79065523D02*
X138941657Y-79113142D01*
X139846419Y-80065523D02*
X139846419Y-79494095D01*
X139846419Y-79779809D02*
X138846419Y-79779809D01*
X138846419Y-79779809D02*
X138989276Y-79684571D01*
X138989276Y-79684571D02*
X139084514Y-79589333D01*
X139084514Y-79589333D02*
X139132133Y-79494095D01*
X139179752Y-80922666D02*
X139846419Y-80922666D01*
X138798800Y-80684571D02*
X139513085Y-80446476D01*
X139513085Y-80446476D02*
X139513085Y-81065523D01*
X95292657Y-79828819D02*
X95625990Y-79352628D01*
X95864085Y-79828819D02*
X95864085Y-78828819D01*
X95864085Y-78828819D02*
X95483133Y-78828819D01*
X95483133Y-78828819D02*
X95387895Y-78876438D01*
X95387895Y-78876438D02*
X95340276Y-78924057D01*
X95340276Y-78924057D02*
X95292657Y-79019295D01*
X95292657Y-79019295D02*
X95292657Y-79162152D01*
X95292657Y-79162152D02*
X95340276Y-79257390D01*
X95340276Y-79257390D02*
X95387895Y-79305009D01*
X95387895Y-79305009D02*
X95483133Y-79352628D01*
X95483133Y-79352628D02*
X95864085Y-79352628D01*
X94340276Y-79828819D02*
X94911704Y-79828819D01*
X94625990Y-79828819D02*
X94625990Y-78828819D01*
X94625990Y-78828819D02*
X94721228Y-78971676D01*
X94721228Y-78971676D02*
X94816466Y-79066914D01*
X94816466Y-79066914D02*
X94911704Y-79114533D01*
X93721228Y-78828819D02*
X93625990Y-78828819D01*
X93625990Y-78828819D02*
X93530752Y-78876438D01*
X93530752Y-78876438D02*
X93483133Y-78924057D01*
X93483133Y-78924057D02*
X93435514Y-79019295D01*
X93435514Y-79019295D02*
X93387895Y-79209771D01*
X93387895Y-79209771D02*
X93387895Y-79447866D01*
X93387895Y-79447866D02*
X93435514Y-79638342D01*
X93435514Y-79638342D02*
X93483133Y-79733580D01*
X93483133Y-79733580D02*
X93530752Y-79781200D01*
X93530752Y-79781200D02*
X93625990Y-79828819D01*
X93625990Y-79828819D02*
X93721228Y-79828819D01*
X93721228Y-79828819D02*
X93816466Y-79781200D01*
X93816466Y-79781200D02*
X93864085Y-79733580D01*
X93864085Y-79733580D02*
X93911704Y-79638342D01*
X93911704Y-79638342D02*
X93959323Y-79447866D01*
X93959323Y-79447866D02*
X93959323Y-79209771D01*
X93959323Y-79209771D02*
X93911704Y-79019295D01*
X93911704Y-79019295D02*
X93864085Y-78924057D01*
X93864085Y-78924057D02*
X93816466Y-78876438D01*
X93816466Y-78876438D02*
X93721228Y-78828819D01*
X132341857Y-66428580D02*
X132389476Y-66476200D01*
X132389476Y-66476200D02*
X132532333Y-66523819D01*
X132532333Y-66523819D02*
X132627571Y-66523819D01*
X132627571Y-66523819D02*
X132770428Y-66476200D01*
X132770428Y-66476200D02*
X132865666Y-66380961D01*
X132865666Y-66380961D02*
X132913285Y-66285723D01*
X132913285Y-66285723D02*
X132960904Y-66095247D01*
X132960904Y-66095247D02*
X132960904Y-65952390D01*
X132960904Y-65952390D02*
X132913285Y-65761914D01*
X132913285Y-65761914D02*
X132865666Y-65666676D01*
X132865666Y-65666676D02*
X132770428Y-65571438D01*
X132770428Y-65571438D02*
X132627571Y-65523819D01*
X132627571Y-65523819D02*
X132532333Y-65523819D01*
X132532333Y-65523819D02*
X132389476Y-65571438D01*
X132389476Y-65571438D02*
X132341857Y-65619057D01*
X131389476Y-66523819D02*
X131960904Y-66523819D01*
X131675190Y-66523819D02*
X131675190Y-65523819D01*
X131675190Y-65523819D02*
X131770428Y-65666676D01*
X131770428Y-65666676D02*
X131865666Y-65761914D01*
X131865666Y-65761914D02*
X131960904Y-65809533D01*
X131008523Y-65619057D02*
X130960904Y-65571438D01*
X130960904Y-65571438D02*
X130865666Y-65523819D01*
X130865666Y-65523819D02*
X130627571Y-65523819D01*
X130627571Y-65523819D02*
X130532333Y-65571438D01*
X130532333Y-65571438D02*
X130484714Y-65619057D01*
X130484714Y-65619057D02*
X130437095Y-65714295D01*
X130437095Y-65714295D02*
X130437095Y-65809533D01*
X130437095Y-65809533D02*
X130484714Y-65952390D01*
X130484714Y-65952390D02*
X131056142Y-66523819D01*
X131056142Y-66523819D02*
X130437095Y-66523819D01*
X139039980Y-63165842D02*
X139087600Y-63118223D01*
X139087600Y-63118223D02*
X139135219Y-62975366D01*
X139135219Y-62975366D02*
X139135219Y-62880128D01*
X139135219Y-62880128D02*
X139087600Y-62737271D01*
X139087600Y-62737271D02*
X138992361Y-62642033D01*
X138992361Y-62642033D02*
X138897123Y-62594414D01*
X138897123Y-62594414D02*
X138706647Y-62546795D01*
X138706647Y-62546795D02*
X138563790Y-62546795D01*
X138563790Y-62546795D02*
X138373314Y-62594414D01*
X138373314Y-62594414D02*
X138278076Y-62642033D01*
X138278076Y-62642033D02*
X138182838Y-62737271D01*
X138182838Y-62737271D02*
X138135219Y-62880128D01*
X138135219Y-62880128D02*
X138135219Y-62975366D01*
X138135219Y-62975366D02*
X138182838Y-63118223D01*
X138182838Y-63118223D02*
X138230457Y-63165842D01*
X139135219Y-64118223D02*
X139135219Y-63546795D01*
X139135219Y-63832509D02*
X138135219Y-63832509D01*
X138135219Y-63832509D02*
X138278076Y-63737271D01*
X138278076Y-63737271D02*
X138373314Y-63642033D01*
X138373314Y-63642033D02*
X138420933Y-63546795D01*
X138135219Y-64737271D02*
X138135219Y-64832509D01*
X138135219Y-64832509D02*
X138182838Y-64927747D01*
X138182838Y-64927747D02*
X138230457Y-64975366D01*
X138230457Y-64975366D02*
X138325695Y-65022985D01*
X138325695Y-65022985D02*
X138516171Y-65070604D01*
X138516171Y-65070604D02*
X138754266Y-65070604D01*
X138754266Y-65070604D02*
X138944742Y-65022985D01*
X138944742Y-65022985D02*
X139039980Y-64975366D01*
X139039980Y-64975366D02*
X139087600Y-64927747D01*
X139087600Y-64927747D02*
X139135219Y-64832509D01*
X139135219Y-64832509D02*
X139135219Y-64737271D01*
X139135219Y-64737271D02*
X139087600Y-64642033D01*
X139087600Y-64642033D02*
X139039980Y-64594414D01*
X139039980Y-64594414D02*
X138944742Y-64546795D01*
X138944742Y-64546795D02*
X138754266Y-64499176D01*
X138754266Y-64499176D02*
X138516171Y-64499176D01*
X138516171Y-64499176D02*
X138325695Y-64546795D01*
X138325695Y-64546795D02*
X138230457Y-64594414D01*
X138230457Y-64594414D02*
X138182838Y-64642033D01*
X138182838Y-64642033D02*
X138135219Y-64737271D01*
X163097566Y-67386580D02*
X163145185Y-67434200D01*
X163145185Y-67434200D02*
X163288042Y-67481819D01*
X163288042Y-67481819D02*
X163383280Y-67481819D01*
X163383280Y-67481819D02*
X163526137Y-67434200D01*
X163526137Y-67434200D02*
X163621375Y-67338961D01*
X163621375Y-67338961D02*
X163668994Y-67243723D01*
X163668994Y-67243723D02*
X163716613Y-67053247D01*
X163716613Y-67053247D02*
X163716613Y-66910390D01*
X163716613Y-66910390D02*
X163668994Y-66719914D01*
X163668994Y-66719914D02*
X163621375Y-66624676D01*
X163621375Y-66624676D02*
X163526137Y-66529438D01*
X163526137Y-66529438D02*
X163383280Y-66481819D01*
X163383280Y-66481819D02*
X163288042Y-66481819D01*
X163288042Y-66481819D02*
X163145185Y-66529438D01*
X163145185Y-66529438D02*
X163097566Y-66577057D01*
X162764232Y-66481819D02*
X162097566Y-66481819D01*
X162097566Y-66481819D02*
X162526137Y-67481819D01*
X162132366Y-58478380D02*
X162179985Y-58526000D01*
X162179985Y-58526000D02*
X162322842Y-58573619D01*
X162322842Y-58573619D02*
X162418080Y-58573619D01*
X162418080Y-58573619D02*
X162560937Y-58526000D01*
X162560937Y-58526000D02*
X162656175Y-58430761D01*
X162656175Y-58430761D02*
X162703794Y-58335523D01*
X162703794Y-58335523D02*
X162751413Y-58145047D01*
X162751413Y-58145047D02*
X162751413Y-58002190D01*
X162751413Y-58002190D02*
X162703794Y-57811714D01*
X162703794Y-57811714D02*
X162656175Y-57716476D01*
X162656175Y-57716476D02*
X162560937Y-57621238D01*
X162560937Y-57621238D02*
X162418080Y-57573619D01*
X162418080Y-57573619D02*
X162322842Y-57573619D01*
X162322842Y-57573619D02*
X162179985Y-57621238D01*
X162179985Y-57621238D02*
X162132366Y-57668857D01*
X161275223Y-57573619D02*
X161465699Y-57573619D01*
X161465699Y-57573619D02*
X161560937Y-57621238D01*
X161560937Y-57621238D02*
X161608556Y-57668857D01*
X161608556Y-57668857D02*
X161703794Y-57811714D01*
X161703794Y-57811714D02*
X161751413Y-58002190D01*
X161751413Y-58002190D02*
X161751413Y-58383142D01*
X161751413Y-58383142D02*
X161703794Y-58478380D01*
X161703794Y-58478380D02*
X161656175Y-58526000D01*
X161656175Y-58526000D02*
X161560937Y-58573619D01*
X161560937Y-58573619D02*
X161370461Y-58573619D01*
X161370461Y-58573619D02*
X161275223Y-58526000D01*
X161275223Y-58526000D02*
X161227604Y-58478380D01*
X161227604Y-58478380D02*
X161179985Y-58383142D01*
X161179985Y-58383142D02*
X161179985Y-58145047D01*
X161179985Y-58145047D02*
X161227604Y-58049809D01*
X161227604Y-58049809D02*
X161275223Y-58002190D01*
X161275223Y-58002190D02*
X161370461Y-57954571D01*
X161370461Y-57954571D02*
X161560937Y-57954571D01*
X161560937Y-57954571D02*
X161656175Y-58002190D01*
X161656175Y-58002190D02*
X161703794Y-58049809D01*
X161703794Y-58049809D02*
X161751413Y-58145047D01*
X142151380Y-71080333D02*
X142199000Y-71032714D01*
X142199000Y-71032714D02*
X142246619Y-70889857D01*
X142246619Y-70889857D02*
X142246619Y-70794619D01*
X142246619Y-70794619D02*
X142199000Y-70651762D01*
X142199000Y-70651762D02*
X142103761Y-70556524D01*
X142103761Y-70556524D02*
X142008523Y-70508905D01*
X142008523Y-70508905D02*
X141818047Y-70461286D01*
X141818047Y-70461286D02*
X141675190Y-70461286D01*
X141675190Y-70461286D02*
X141484714Y-70508905D01*
X141484714Y-70508905D02*
X141389476Y-70556524D01*
X141389476Y-70556524D02*
X141294238Y-70651762D01*
X141294238Y-70651762D02*
X141246619Y-70794619D01*
X141246619Y-70794619D02*
X141246619Y-70889857D01*
X141246619Y-70889857D02*
X141294238Y-71032714D01*
X141294238Y-71032714D02*
X141341857Y-71080333D01*
X142246619Y-72032714D02*
X142246619Y-71461286D01*
X142246619Y-71747000D02*
X141246619Y-71747000D01*
X141246619Y-71747000D02*
X141389476Y-71651762D01*
X141389476Y-71651762D02*
X141484714Y-71556524D01*
X141484714Y-71556524D02*
X141532333Y-71461286D01*
X144145380Y-71080333D02*
X144193000Y-71032714D01*
X144193000Y-71032714D02*
X144240619Y-70889857D01*
X144240619Y-70889857D02*
X144240619Y-70794619D01*
X144240619Y-70794619D02*
X144193000Y-70651762D01*
X144193000Y-70651762D02*
X144097761Y-70556524D01*
X144097761Y-70556524D02*
X144002523Y-70508905D01*
X144002523Y-70508905D02*
X143812047Y-70461286D01*
X143812047Y-70461286D02*
X143669190Y-70461286D01*
X143669190Y-70461286D02*
X143478714Y-70508905D01*
X143478714Y-70508905D02*
X143383476Y-70556524D01*
X143383476Y-70556524D02*
X143288238Y-70651762D01*
X143288238Y-70651762D02*
X143240619Y-70794619D01*
X143240619Y-70794619D02*
X143240619Y-70889857D01*
X143240619Y-70889857D02*
X143288238Y-71032714D01*
X143288238Y-71032714D02*
X143335857Y-71080333D01*
X143335857Y-71461286D02*
X143288238Y-71508905D01*
X143288238Y-71508905D02*
X143240619Y-71604143D01*
X143240619Y-71604143D02*
X143240619Y-71842238D01*
X143240619Y-71842238D02*
X143288238Y-71937476D01*
X143288238Y-71937476D02*
X143335857Y-71985095D01*
X143335857Y-71985095D02*
X143431095Y-72032714D01*
X143431095Y-72032714D02*
X143526333Y-72032714D01*
X143526333Y-72032714D02*
X143669190Y-71985095D01*
X143669190Y-71985095D02*
X144240619Y-71413667D01*
X144240619Y-71413667D02*
X144240619Y-72032714D01*
X132320357Y-63126580D02*
X132367976Y-63174200D01*
X132367976Y-63174200D02*
X132510833Y-63221819D01*
X132510833Y-63221819D02*
X132606071Y-63221819D01*
X132606071Y-63221819D02*
X132748928Y-63174200D01*
X132748928Y-63174200D02*
X132844166Y-63078961D01*
X132844166Y-63078961D02*
X132891785Y-62983723D01*
X132891785Y-62983723D02*
X132939404Y-62793247D01*
X132939404Y-62793247D02*
X132939404Y-62650390D01*
X132939404Y-62650390D02*
X132891785Y-62459914D01*
X132891785Y-62459914D02*
X132844166Y-62364676D01*
X132844166Y-62364676D02*
X132748928Y-62269438D01*
X132748928Y-62269438D02*
X132606071Y-62221819D01*
X132606071Y-62221819D02*
X132510833Y-62221819D01*
X132510833Y-62221819D02*
X132367976Y-62269438D01*
X132367976Y-62269438D02*
X132320357Y-62317057D01*
X131367976Y-63221819D02*
X131939404Y-63221819D01*
X131653690Y-63221819D02*
X131653690Y-62221819D01*
X131653690Y-62221819D02*
X131748928Y-62364676D01*
X131748928Y-62364676D02*
X131844166Y-62459914D01*
X131844166Y-62459914D02*
X131939404Y-62507533D01*
X130415595Y-63221819D02*
X130987023Y-63221819D01*
X130701309Y-63221819D02*
X130701309Y-62221819D01*
X130701309Y-62221819D02*
X130796547Y-62364676D01*
X130796547Y-62364676D02*
X130891785Y-62459914D01*
X130891785Y-62459914D02*
X130987023Y-62507533D01*
X128683980Y-75303142D02*
X128731600Y-75255523D01*
X128731600Y-75255523D02*
X128779219Y-75112666D01*
X128779219Y-75112666D02*
X128779219Y-75017428D01*
X128779219Y-75017428D02*
X128731600Y-74874571D01*
X128731600Y-74874571D02*
X128636361Y-74779333D01*
X128636361Y-74779333D02*
X128541123Y-74731714D01*
X128541123Y-74731714D02*
X128350647Y-74684095D01*
X128350647Y-74684095D02*
X128207790Y-74684095D01*
X128207790Y-74684095D02*
X128017314Y-74731714D01*
X128017314Y-74731714D02*
X127922076Y-74779333D01*
X127922076Y-74779333D02*
X127826838Y-74874571D01*
X127826838Y-74874571D02*
X127779219Y-75017428D01*
X127779219Y-75017428D02*
X127779219Y-75112666D01*
X127779219Y-75112666D02*
X127826838Y-75255523D01*
X127826838Y-75255523D02*
X127874457Y-75303142D01*
X128779219Y-76255523D02*
X128779219Y-75684095D01*
X128779219Y-75969809D02*
X127779219Y-75969809D01*
X127779219Y-75969809D02*
X127922076Y-75874571D01*
X127922076Y-75874571D02*
X128017314Y-75779333D01*
X128017314Y-75779333D02*
X128064933Y-75684095D01*
X127779219Y-77112666D02*
X127779219Y-76922190D01*
X127779219Y-76922190D02*
X127826838Y-76826952D01*
X127826838Y-76826952D02*
X127874457Y-76779333D01*
X127874457Y-76779333D02*
X128017314Y-76684095D01*
X128017314Y-76684095D02*
X128207790Y-76636476D01*
X128207790Y-76636476D02*
X128588742Y-76636476D01*
X128588742Y-76636476D02*
X128683980Y-76684095D01*
X128683980Y-76684095D02*
X128731600Y-76731714D01*
X128731600Y-76731714D02*
X128779219Y-76826952D01*
X128779219Y-76826952D02*
X128779219Y-77017428D01*
X128779219Y-77017428D02*
X128731600Y-77112666D01*
X128731600Y-77112666D02*
X128683980Y-77160285D01*
X128683980Y-77160285D02*
X128588742Y-77207904D01*
X128588742Y-77207904D02*
X128350647Y-77207904D01*
X128350647Y-77207904D02*
X128255409Y-77160285D01*
X128255409Y-77160285D02*
X128207790Y-77112666D01*
X128207790Y-77112666D02*
X128160171Y-77017428D01*
X128160171Y-77017428D02*
X128160171Y-76826952D01*
X128160171Y-76826952D02*
X128207790Y-76731714D01*
X128207790Y-76731714D02*
X128255409Y-76684095D01*
X128255409Y-76684095D02*
X128350647Y-76636476D01*
D12*
%TO.C,C17*%
X123852000Y-75706248D02*
X123852000Y-76228752D01*
X125322000Y-75706248D02*
X125322000Y-76228752D01*
%TO.C,R2*%
X158421400Y-89723736D02*
X158421400Y-90177864D01*
X159891400Y-89723736D02*
X159891400Y-90177864D01*
%TO.C,R1*%
X148591600Y-76693536D02*
X148591600Y-77147664D01*
X150061600Y-76693536D02*
X150061600Y-77147664D01*
%TO.C,C3*%
X148591600Y-72803652D02*
X148591600Y-72281148D01*
X150061600Y-72803652D02*
X150061600Y-72281148D01*
%TO.C,C14*%
X140336600Y-80017252D02*
X140336600Y-79494748D01*
X141806600Y-80017252D02*
X141806600Y-79494748D01*
%TO.C,R10*%
X94422736Y-76989000D02*
X94876864Y-76989000D01*
X94422736Y-78459000D02*
X94876864Y-78459000D01*
%TO.C,C12*%
X131960252Y-63654000D02*
X131437748Y-63654000D01*
X131960252Y-65124000D02*
X131437748Y-65124000D01*
%TO.C,C10*%
X141095400Y-64069952D02*
X141095400Y-63547448D01*
X139625400Y-64069952D02*
X139625400Y-63547448D01*
%TO.C,C7*%
X162669648Y-67972000D02*
X163192152Y-67972000D01*
X162669648Y-69442000D02*
X163192152Y-69442000D01*
%TO.C,C6*%
X161704448Y-55703800D02*
X162226952Y-55703800D01*
X161704448Y-57173800D02*
X162226952Y-57173800D01*
%TO.C,C1*%
X142736800Y-71508252D02*
X142736800Y-70985748D01*
X144206800Y-71508252D02*
X144206800Y-70985748D01*
%TO.C,C2*%
X144730800Y-71508252D02*
X144730800Y-70985748D01*
X146200800Y-71508252D02*
X146200800Y-70985748D01*
%TO.C,C11*%
X131938752Y-60352000D02*
X131416248Y-60352000D01*
X131938752Y-61822000D02*
X131416248Y-61822000D01*
%TO.C,C16*%
X125909400Y-75684748D02*
X125909400Y-76207252D01*
X127379400Y-75684748D02*
X127379400Y-76207252D01*
%TD*%
M02*
