%TF.GenerationSoftware,KiCad,Pcbnew,8.0.7*%
%TF.CreationDate,2025-03-12T15:09:51-04:00*%
%TF.ProjectId,skee-ball,736b6565-2d62-4616-9c6c-2e6b69636164,2*%
%TF.SameCoordinates,Original*%
%TF.FileFunction,Soldermask,Top*%
%TF.FilePolarity,Negative*%
%FSLAX46Y46*%
G04 Gerber Fmt 4.6, Leading zero omitted, Abs format (unit mm)*
G04 Created by KiCad (PCBNEW 8.0.7) date 2025-03-12 15:09:51*
%MOMM*%
%LPD*%
G01*
G04 APERTURE LIST*
G04 Aperture macros list*
%AMRoundRect*
0 Rectangle with rounded corners*
0 $1 Rounding radius*
0 $2 $3 $4 $5 $6 $7 $8 $9 X,Y pos of 4 corners*
0 Add a 4 corners polygon primitive as box body*
4,1,4,$2,$3,$4,$5,$6,$7,$8,$9,$2,$3,0*
0 Add four circle primitives for the rounded corners*
1,1,$1+$1,$2,$3*
1,1,$1+$1,$4,$5*
1,1,$1+$1,$6,$7*
1,1,$1+$1,$8,$9*
0 Add four rect primitives between the rounded corners*
20,1,$1+$1,$2,$3,$4,$5,0*
20,1,$1+$1,$4,$5,$6,$7,0*
20,1,$1+$1,$6,$7,$8,$9,0*
20,1,$1+$1,$8,$9,$2,$3,0*%
G04 Aperture macros list end*
%ADD10RoundRect,0.250000X0.350000X0.450000X-0.350000X0.450000X-0.350000X-0.450000X0.350000X-0.450000X0*%
%ADD11R,1.700000X1.700000*%
%ADD12O,1.700000X1.700000*%
%ADD13C,2.000000*%
%ADD14RoundRect,0.250000X0.450000X-0.325000X0.450000X0.325000X-0.450000X0.325000X-0.450000X-0.325000X0*%
%ADD15RoundRect,0.112500X-0.237500X0.112500X-0.237500X-0.112500X0.237500X-0.112500X0.237500X0.112500X0*%
%ADD16C,1.600000*%
%ADD17R,2.000000X4.000000*%
%ADD18O,2.000000X3.300000*%
%ADD19O,3.500000X2.000000*%
%ADD20RoundRect,0.250000X0.337500X0.475000X-0.337500X0.475000X-0.337500X-0.475000X0.337500X-0.475000X0*%
%ADD21RoundRect,0.250000X-0.450000X0.350000X-0.450000X-0.350000X0.450000X-0.350000X0.450000X0.350000X0*%
%ADD22R,1.295400X1.295400*%
%ADD23C,1.295400*%
%ADD24C,3.200000*%
%ADD25RoundRect,0.250000X-0.450000X0.325000X-0.450000X-0.325000X0.450000X-0.325000X0.450000X0.325000X0*%
%ADD26RoundRect,0.250000X-0.325000X-0.450000X0.325000X-0.450000X0.325000X0.450000X-0.325000X0.450000X0*%
%ADD27RoundRect,0.250000X0.450000X-0.350000X0.450000X0.350000X-0.450000X0.350000X-0.450000X-0.350000X0*%
%ADD28R,1.600000X1.600000*%
%ADD29O,1.600000X1.600000*%
%ADD30C,1.260000*%
%ADD31RoundRect,0.375000X-0.375000X0.625000X-0.375000X-0.625000X0.375000X-0.625000X0.375000X0.625000X0*%
%ADD32RoundRect,0.500000X-1.400000X0.500000X-1.400000X-0.500000X1.400000X-0.500000X1.400000X0.500000X0*%
%ADD33RoundRect,0.075000X0.700000X0.075000X-0.700000X0.075000X-0.700000X-0.075000X0.700000X-0.075000X0*%
%ADD34RoundRect,0.075000X0.075000X0.700000X-0.075000X0.700000X-0.075000X-0.700000X0.075000X-0.700000X0*%
%ADD35C,2.180000*%
%ADD36RoundRect,0.102000X-0.765000X0.765000X-0.765000X-0.765000X0.765000X-0.765000X0.765000X0.765000X0*%
%ADD37C,1.734000*%
%ADD38C,0.600000*%
%ADD39C,1.000000*%
G04 APERTURE END LIST*
D10*
%TO.C,R12*%
X146491200Y-69672200D03*
X144491200Y-69672200D03*
%TD*%
D11*
%TO.C,J18*%
X149883400Y-100330000D03*
D12*
X147343400Y-100330000D03*
%TD*%
D13*
%TO.C,SW1*%
X151536400Y-70053200D03*
X158036400Y-70053200D03*
X151536400Y-74553200D03*
X158036400Y-74553200D03*
%TD*%
D14*
%TO.C,D9*%
X163040000Y-75075000D03*
X163040000Y-73025000D03*
%TD*%
D15*
%TO.C,U11*%
X143510000Y-73045800D03*
X143510000Y-74345800D03*
X145510000Y-73695800D03*
%TD*%
D16*
%TO.C,J4*%
X70000000Y-46228000D03*
D17*
X79000000Y-46228000D03*
D18*
X73000000Y-46228000D03*
D19*
X72000000Y-41728000D03*
X72000000Y-50728000D03*
%TD*%
D20*
%TO.C,FB1*%
X142437500Y-99010000D03*
X140362500Y-99010000D03*
%TD*%
D11*
%TO.C,J27*%
X105968800Y-104978200D03*
D12*
X103428800Y-104978200D03*
X100888800Y-104978200D03*
X98348800Y-104978200D03*
%TD*%
D21*
%TO.C,R4*%
X137395000Y-82688000D03*
X137395000Y-84688000D03*
%TD*%
D22*
%TO.C,U6*%
X153822400Y-57099200D03*
D23*
X153822400Y-54559200D03*
X153822400Y-52019200D03*
X153822400Y-49479200D03*
X153822400Y-46939200D03*
X153822400Y-44399200D03*
X153822400Y-41859200D03*
X153822400Y-39319200D03*
X146202400Y-39319200D03*
X146202400Y-41859200D03*
X146202400Y-44399200D03*
X146202400Y-46939200D03*
X146202400Y-49479200D03*
X146202400Y-52019200D03*
X146202400Y-54559200D03*
X146202400Y-57099200D03*
%TD*%
D21*
%TO.C,R3*%
X135495000Y-82672000D03*
X135495000Y-84672000D03*
%TD*%
D14*
%TO.C,D6*%
X138440000Y-97155000D03*
X138440000Y-95105000D03*
%TD*%
D24*
%TO.C,H1*%
X72670000Y-27740000D03*
%TD*%
D25*
%TO.C,D7*%
X113258600Y-49186700D03*
X113258600Y-51236700D03*
%TD*%
D11*
%TO.C,J2*%
X161950400Y-95580200D03*
D12*
X161950400Y-93040200D03*
%TD*%
D11*
%TO.C,J20*%
X84658200Y-81051400D03*
D12*
X87198200Y-81051400D03*
X89738200Y-81051400D03*
%TD*%
D26*
%TO.C,D8*%
X94925400Y-80654600D03*
X96975400Y-80654600D03*
%TD*%
D11*
%TO.C,J36*%
X161950400Y-80619600D03*
D12*
X161950400Y-83159600D03*
X161950400Y-85699600D03*
X161950400Y-88239600D03*
%TD*%
D27*
%TO.C,R8*%
X140430000Y-97130000D03*
X140430000Y-95130000D03*
%TD*%
D10*
%TO.C,R15*%
X157067000Y-96113600D03*
X155067000Y-96113600D03*
%TD*%
D24*
%TO.C,H2*%
X162540000Y-27740000D03*
%TD*%
D28*
%TO.C,U9*%
X146583400Y-80369600D03*
D29*
X146583400Y-82909600D03*
X146583400Y-85449600D03*
X146583400Y-87989600D03*
X146583400Y-90529600D03*
X146583400Y-93069600D03*
X156743400Y-93069600D03*
X156743400Y-90529600D03*
X156743400Y-87989600D03*
X156743400Y-85449600D03*
X156743400Y-82909600D03*
X156743400Y-80369600D03*
%TD*%
D30*
%TO.C,RV1*%
X113284000Y-41660000D03*
X115824000Y-44200000D03*
X113284000Y-46740000D03*
%TD*%
D21*
%TO.C,R6*%
X131645000Y-82688000D03*
X131645000Y-84688000D03*
%TD*%
D14*
%TO.C,D2*%
X137420000Y-88527500D03*
X137420000Y-86477500D03*
%TD*%
%TO.C,D1*%
X135520000Y-88527500D03*
X135520000Y-86477500D03*
%TD*%
D11*
%TO.C,U2*%
X135128000Y-99060000D03*
D12*
X132588000Y-99060000D03*
X130048000Y-99060000D03*
X127508000Y-99060000D03*
X124968000Y-99060000D03*
X122428000Y-99060000D03*
X119888000Y-99060000D03*
%TD*%
D11*
%TO.C,J22*%
X91922600Y-105181400D03*
D12*
X89382600Y-105181400D03*
X86842600Y-105181400D03*
X84302600Y-105181400D03*
%TD*%
D31*
%TO.C,U13*%
X165317200Y-59994800D03*
X163017200Y-59994800D03*
D32*
X163017200Y-66294800D03*
D31*
X160717200Y-59994800D03*
%TD*%
D24*
%TO.C,H3*%
X162540000Y-114720000D03*
%TD*%
D33*
%TO.C,U4*%
X140901500Y-76345000D03*
X140901500Y-75845000D03*
X140901500Y-75345000D03*
X140901500Y-74845000D03*
X140901500Y-74345000D03*
X140901500Y-73845000D03*
X140901500Y-73345000D03*
X140901500Y-72845000D03*
X140901500Y-72345000D03*
X140901500Y-71845000D03*
X140901500Y-71345000D03*
X140901500Y-70845000D03*
X140901500Y-70345000D03*
X140901500Y-69845000D03*
X140901500Y-69345000D03*
X140901500Y-68845000D03*
D34*
X138976500Y-66920000D03*
X138476500Y-66920000D03*
X137976500Y-66920000D03*
X137476500Y-66920000D03*
X136976500Y-66920000D03*
X136476500Y-66920000D03*
X135976500Y-66920000D03*
X135476500Y-66920000D03*
X134976500Y-66920000D03*
X134476500Y-66920000D03*
X133976500Y-66920000D03*
X133476500Y-66920000D03*
X132976500Y-66920000D03*
X132476500Y-66920000D03*
X131976500Y-66920000D03*
X131476500Y-66920000D03*
D33*
X129551500Y-68845000D03*
X129551500Y-69345000D03*
X129551500Y-69845000D03*
X129551500Y-70345000D03*
X129551500Y-70845000D03*
X129551500Y-71345000D03*
X129551500Y-71845000D03*
X129551500Y-72345000D03*
X129551500Y-72845000D03*
X129551500Y-73345000D03*
X129551500Y-73845000D03*
X129551500Y-74345000D03*
X129551500Y-74845000D03*
X129551500Y-75345000D03*
X129551500Y-75845000D03*
X129551500Y-76345000D03*
D34*
X131476500Y-78270000D03*
X131976500Y-78270000D03*
X132476500Y-78270000D03*
X132976500Y-78270000D03*
X133476500Y-78270000D03*
X133976500Y-78270000D03*
X134476500Y-78270000D03*
X134976500Y-78270000D03*
X135476500Y-78270000D03*
X135976500Y-78270000D03*
X136476500Y-78270000D03*
X136976500Y-78270000D03*
X137476500Y-78270000D03*
X137976500Y-78270000D03*
X138476500Y-78270000D03*
X138976500Y-78270000D03*
%TD*%
D21*
%TO.C,R5*%
X139320000Y-82690000D03*
X139320000Y-84690000D03*
%TD*%
D22*
%TO.C,U5*%
X132080000Y-39319200D03*
D23*
X132080000Y-41859200D03*
X132080000Y-44399200D03*
X132080000Y-46939200D03*
X132080000Y-49479200D03*
X132080000Y-52019200D03*
X132080000Y-54559200D03*
X132080000Y-57099200D03*
X139700000Y-57099200D03*
X139700000Y-54559200D03*
X139700000Y-52019200D03*
X139700000Y-49479200D03*
X139700000Y-46939200D03*
X139700000Y-44399200D03*
X139700000Y-41859200D03*
X139700000Y-39319200D03*
%TD*%
D11*
%TO.C,J26*%
X105892600Y-98552000D03*
D12*
X103352600Y-98552000D03*
X100812600Y-98552000D03*
X98272600Y-98552000D03*
%TD*%
D11*
%TO.C,J21*%
X92024200Y-98475800D03*
D12*
X89484200Y-98475800D03*
X86944200Y-98475800D03*
X84404200Y-98475800D03*
%TD*%
D24*
%TO.C,H4*%
X72670000Y-114660000D03*
%TD*%
D10*
%TO.C,R9*%
X116560000Y-53860000D03*
X114560000Y-53860000D03*
%TD*%
D11*
%TO.C,J19*%
X115540000Y-104630000D03*
D12*
X115540000Y-102090000D03*
X115540000Y-99550000D03*
%TD*%
D11*
%TO.C,J5*%
X161975800Y-39925000D03*
D12*
X161975800Y-42465000D03*
X161975800Y-45005000D03*
X161975800Y-47545000D03*
X161975800Y-50085000D03*
%TD*%
D35*
%TO.C,U1*%
X98388500Y-62750900D03*
X85188500Y-75950900D03*
D36*
X84158500Y-61720900D03*
D37*
X84158500Y-64260900D03*
X84158500Y-66800900D03*
X84158500Y-69340900D03*
X84158500Y-71880900D03*
X94848500Y-61720900D03*
%TD*%
D21*
%TO.C,R11*%
X163000000Y-69270000D03*
X163000000Y-71270000D03*
%TD*%
D14*
%TO.C,D4*%
X131668200Y-88527500D03*
X131668200Y-86477500D03*
%TD*%
D21*
%TO.C,R7*%
X133579000Y-82688000D03*
X133579000Y-84688000D03*
%TD*%
D28*
%TO.C,U10*%
X120650000Y-88900000D03*
D29*
X120650000Y-86360000D03*
X120650000Y-83820000D03*
X120650000Y-81280000D03*
X120650000Y-78740000D03*
X120650000Y-76200000D03*
X110490000Y-76200000D03*
X110490000Y-78740000D03*
X110490000Y-81280000D03*
X110490000Y-83820000D03*
X110490000Y-86360000D03*
X110490000Y-88900000D03*
%TD*%
D28*
%TO.C,U8*%
X120650000Y-72898000D03*
D29*
X120650000Y-70358000D03*
X120650000Y-67818000D03*
X120650000Y-65278000D03*
X120650000Y-62738000D03*
X120650000Y-60198000D03*
X110490000Y-60198000D03*
X110490000Y-62738000D03*
X110490000Y-65278000D03*
X110490000Y-67818000D03*
X110490000Y-70358000D03*
X110490000Y-72898000D03*
%TD*%
D14*
%TO.C,D5*%
X133620000Y-88527500D03*
X133620000Y-86477500D03*
%TD*%
D11*
%TO.C,J13*%
X126238000Y-88631000D03*
D12*
X126238000Y-86091000D03*
X126238000Y-83551000D03*
%TD*%
D22*
%TO.C,U7*%
X84861400Y-92532200D03*
D23*
X87401400Y-92532200D03*
X89941400Y-92532200D03*
X92481400Y-92532200D03*
X95021400Y-92532200D03*
X97561400Y-92532200D03*
X100101400Y-92532200D03*
X100101400Y-84912200D03*
X97561400Y-84912200D03*
X95021400Y-84912200D03*
X92481400Y-84912200D03*
X89941400Y-84912200D03*
X87401400Y-84912200D03*
X84861400Y-84912200D03*
%TD*%
D14*
%TO.C,D3*%
X139345000Y-88527500D03*
X139345000Y-86477500D03*
%TD*%
D11*
%TO.C,J3*%
X121920000Y-41910000D03*
D12*
X124460000Y-41910000D03*
X121920000Y-44450000D03*
X124460000Y-44450000D03*
X121920000Y-46990000D03*
X124460000Y-46990000D03*
X121920000Y-49530000D03*
X124460000Y-49530000D03*
X121920000Y-52070000D03*
X124460000Y-52070000D03*
X121920000Y-54610000D03*
X124460000Y-54610000D03*
%TD*%
D35*
%TO.C,U3*%
X104600000Y-42676000D03*
X91400000Y-55876000D03*
D36*
X90370000Y-41646000D03*
D37*
X90370000Y-44186000D03*
X90370000Y-46726000D03*
X90370000Y-49266000D03*
X90370000Y-51806000D03*
X101060000Y-41646000D03*
%TD*%
D38*
X127609600Y-66700400D03*
X133360000Y-92800000D03*
X141650000Y-77090000D03*
X145750000Y-77540000D03*
X127190000Y-78240000D03*
X138300000Y-65100000D03*
X150876000Y-77876400D03*
X134874000Y-64008000D03*
X139979400Y-78663800D03*
X154178000Y-66294000D03*
X149352000Y-63246000D03*
X149160000Y-97840000D03*
X143256000Y-63754000D03*
X142110000Y-89870000D03*
X142600000Y-92250000D03*
X145940000Y-97820000D03*
X124260000Y-65200000D03*
X143510000Y-72009000D03*
X127650000Y-65170000D03*
X166270000Y-68750000D03*
X130380000Y-66720000D03*
X142140000Y-87940000D03*
X140210000Y-66060000D03*
X132080000Y-65532000D03*
X135750000Y-90340000D03*
D39*
X150980000Y-28820000D03*
X72270000Y-105020000D03*
D38*
X139700000Y-79502000D03*
X113520000Y-48220000D03*
D39*
X86900000Y-28820000D03*
D38*
X95040000Y-79240000D03*
X139573000Y-71374000D03*
X146253200Y-72974200D03*
X128290000Y-76100000D03*
D39*
X166290000Y-105120000D03*
D38*
X138380000Y-98390000D03*
X165640000Y-58160000D03*
X163060000Y-76420000D03*
X127558800Y-68503800D03*
X131826000Y-92964000D03*
X130048000Y-93726000D03*
X127508000Y-69799200D03*
X141097000Y-52019200D03*
X138000000Y-62230000D03*
X140208000Y-61137800D03*
X144805400Y-46939200D03*
X142062200Y-49479200D03*
X144018000Y-59944000D03*
X109931200Y-91897200D03*
X89941400Y-83769200D03*
X90320000Y-53780000D03*
X118872000Y-55626000D03*
X160720000Y-58040000D03*
X168470000Y-80650000D03*
X97040000Y-79260000D03*
X126960000Y-80770000D03*
X139496800Y-70332600D03*
X113284000Y-102108000D03*
X140720000Y-93330000D03*
X118364000Y-102108000D03*
X148183600Y-74553200D03*
X159867600Y-93040200D03*
X136976500Y-77165200D03*
M02*
