%TF.GenerationSoftware,KiCad,Pcbnew,8.0.7*%
%TF.CreationDate,2025-03-12T15:09:51-04:00*%
%TF.ProjectId,skee-ball,736b6565-2d62-4616-9c6c-2e6b69636164,2*%
%TF.SameCoordinates,Original*%
%TF.FileFunction,Legend,Bot*%
%TF.FilePolarity,Positive*%
%FSLAX46Y46*%
G04 Gerber Fmt 4.6, Leading zero omitted, Abs format (unit mm)*
G04 Created by KiCad (PCBNEW 8.0.7) date 2025-03-12 15:09:51*
%MOMM*%
%LPD*%
G01*
G04 APERTURE LIST*
%ADD10C,0.300000*%
%ADD11C,0.200000*%
%ADD12C,0.187500*%
%ADD13C,0.150000*%
%ADD14C,0.120000*%
G04 APERTURE END LIST*
D10*
X107018346Y-115360828D02*
X107518346Y-114646542D01*
X107875489Y-115360828D02*
X107875489Y-113860828D01*
X107875489Y-113860828D02*
X107304060Y-113860828D01*
X107304060Y-113860828D02*
X107161203Y-113932257D01*
X107161203Y-113932257D02*
X107089774Y-114003685D01*
X107089774Y-114003685D02*
X107018346Y-114146542D01*
X107018346Y-114146542D02*
X107018346Y-114360828D01*
X107018346Y-114360828D02*
X107089774Y-114503685D01*
X107089774Y-114503685D02*
X107161203Y-114575114D01*
X107161203Y-114575114D02*
X107304060Y-114646542D01*
X107304060Y-114646542D02*
X107875489Y-114646542D01*
X105804060Y-115289400D02*
X105946917Y-115360828D01*
X105946917Y-115360828D02*
X106232632Y-115360828D01*
X106232632Y-115360828D02*
X106375489Y-115289400D01*
X106375489Y-115289400D02*
X106446917Y-115146542D01*
X106446917Y-115146542D02*
X106446917Y-114575114D01*
X106446917Y-114575114D02*
X106375489Y-114432257D01*
X106375489Y-114432257D02*
X106232632Y-114360828D01*
X106232632Y-114360828D02*
X105946917Y-114360828D01*
X105946917Y-114360828D02*
X105804060Y-114432257D01*
X105804060Y-114432257D02*
X105732632Y-114575114D01*
X105732632Y-114575114D02*
X105732632Y-114717971D01*
X105732632Y-114717971D02*
X106446917Y-114860828D01*
X105232632Y-114360828D02*
X104875489Y-115360828D01*
X104875489Y-115360828D02*
X104518346Y-114360828D01*
X103946918Y-115360828D02*
X103946918Y-114360828D01*
X103946918Y-113860828D02*
X104018346Y-113932257D01*
X104018346Y-113932257D02*
X103946918Y-114003685D01*
X103946918Y-114003685D02*
X103875489Y-113932257D01*
X103875489Y-113932257D02*
X103946918Y-113860828D01*
X103946918Y-113860828D02*
X103946918Y-114003685D01*
X103304060Y-115289400D02*
X103161203Y-115360828D01*
X103161203Y-115360828D02*
X102875489Y-115360828D01*
X102875489Y-115360828D02*
X102732632Y-115289400D01*
X102732632Y-115289400D02*
X102661203Y-115146542D01*
X102661203Y-115146542D02*
X102661203Y-115075114D01*
X102661203Y-115075114D02*
X102732632Y-114932257D01*
X102732632Y-114932257D02*
X102875489Y-114860828D01*
X102875489Y-114860828D02*
X103089775Y-114860828D01*
X103089775Y-114860828D02*
X103232632Y-114789400D01*
X103232632Y-114789400D02*
X103304060Y-114646542D01*
X103304060Y-114646542D02*
X103304060Y-114575114D01*
X103304060Y-114575114D02*
X103232632Y-114432257D01*
X103232632Y-114432257D02*
X103089775Y-114360828D01*
X103089775Y-114360828D02*
X102875489Y-114360828D01*
X102875489Y-114360828D02*
X102732632Y-114432257D01*
X102018346Y-115360828D02*
X102018346Y-114360828D01*
X102018346Y-113860828D02*
X102089774Y-113932257D01*
X102089774Y-113932257D02*
X102018346Y-114003685D01*
X102018346Y-114003685D02*
X101946917Y-113932257D01*
X101946917Y-113932257D02*
X102018346Y-113860828D01*
X102018346Y-113860828D02*
X102018346Y-114003685D01*
X101089774Y-115360828D02*
X101232631Y-115289400D01*
X101232631Y-115289400D02*
X101304060Y-115217971D01*
X101304060Y-115217971D02*
X101375488Y-115075114D01*
X101375488Y-115075114D02*
X101375488Y-114646542D01*
X101375488Y-114646542D02*
X101304060Y-114503685D01*
X101304060Y-114503685D02*
X101232631Y-114432257D01*
X101232631Y-114432257D02*
X101089774Y-114360828D01*
X101089774Y-114360828D02*
X100875488Y-114360828D01*
X100875488Y-114360828D02*
X100732631Y-114432257D01*
X100732631Y-114432257D02*
X100661203Y-114503685D01*
X100661203Y-114503685D02*
X100589774Y-114646542D01*
X100589774Y-114646542D02*
X100589774Y-115075114D01*
X100589774Y-115075114D02*
X100661203Y-115217971D01*
X100661203Y-115217971D02*
X100732631Y-115289400D01*
X100732631Y-115289400D02*
X100875488Y-115360828D01*
X100875488Y-115360828D02*
X101089774Y-115360828D01*
X99946917Y-114360828D02*
X99946917Y-115360828D01*
X99946917Y-114503685D02*
X99875488Y-114432257D01*
X99875488Y-114432257D02*
X99732631Y-114360828D01*
X99732631Y-114360828D02*
X99518345Y-114360828D01*
X99518345Y-114360828D02*
X99375488Y-114432257D01*
X99375488Y-114432257D02*
X99304060Y-114575114D01*
X99304060Y-114575114D02*
X99304060Y-115360828D01*
X97518345Y-114360828D02*
X96446917Y-114360828D01*
X97089774Y-113717971D02*
X97518345Y-115646542D01*
X96589774Y-115003685D02*
X97661202Y-115003685D01*
X97018345Y-115646542D02*
X96589774Y-113717971D01*
X96089774Y-113860828D02*
X95161202Y-113860828D01*
X95161202Y-113860828D02*
X95661202Y-114432257D01*
X95661202Y-114432257D02*
X95446917Y-114432257D01*
X95446917Y-114432257D02*
X95304060Y-114503685D01*
X95304060Y-114503685D02*
X95232631Y-114575114D01*
X95232631Y-114575114D02*
X95161202Y-114717971D01*
X95161202Y-114717971D02*
X95161202Y-115075114D01*
X95161202Y-115075114D02*
X95232631Y-115217971D01*
X95232631Y-115217971D02*
X95304060Y-115289400D01*
X95304060Y-115289400D02*
X95446917Y-115360828D01*
X95446917Y-115360828D02*
X95875488Y-115360828D01*
X95875488Y-115360828D02*
X96018345Y-115289400D01*
X96018345Y-115289400D02*
X96089774Y-115217971D01*
D11*
G36*
X104698898Y-111238641D02*
G01*
X104714045Y-111253788D01*
X104734326Y-111294348D01*
X104734326Y-111475707D01*
X104714046Y-111516266D01*
X104698897Y-111531415D01*
X104658338Y-111551695D01*
X104553373Y-111551695D01*
X104553373Y-111218361D01*
X104658338Y-111218361D01*
X104698898Y-111238641D01*
G37*
G36*
X107020040Y-111551695D02*
G01*
X106915076Y-111551695D01*
X106874514Y-111531414D01*
X106859368Y-111516268D01*
X106839088Y-111475707D01*
X106839088Y-111294349D01*
X106859368Y-111253788D01*
X106874514Y-111238641D01*
X106915077Y-111218361D01*
X107020040Y-111218361D01*
X107020040Y-111551695D01*
G37*
G36*
X102565564Y-110971975D02*
G01*
X102580710Y-110987120D01*
X102606639Y-111038979D01*
X102639087Y-111168767D01*
X102639087Y-111334622D01*
X102606639Y-111464409D01*
X102580710Y-111516267D01*
X102565563Y-111531415D01*
X102525003Y-111551695D01*
X102496027Y-111551695D01*
X102455465Y-111531414D01*
X102440319Y-111516268D01*
X102414390Y-111464409D01*
X102381944Y-111334624D01*
X102381944Y-111168765D01*
X102414390Y-111038980D01*
X102440319Y-110987121D01*
X102455464Y-110971975D01*
X102496027Y-110951695D01*
X102525003Y-110951695D01*
X102565564Y-110971975D01*
G37*
G36*
X97026456Y-110171608D02*
G01*
X97039088Y-110196871D01*
X97039088Y-110225846D01*
X97026456Y-110251109D01*
X97001195Y-110263740D01*
X96858135Y-110263740D01*
X96858135Y-110158978D01*
X97001195Y-110158978D01*
X97026456Y-110171608D01*
G37*
G36*
X97800992Y-110263740D02*
G01*
X97619837Y-110263740D01*
X97579276Y-110243459D01*
X97564130Y-110228312D01*
X97543849Y-110187752D01*
X97543849Y-110120679D01*
X97564130Y-110080119D01*
X97574059Y-110070189D01*
X97650553Y-110044692D01*
X97800992Y-110044692D01*
X97800992Y-110263740D01*
G37*
G36*
X97800992Y-109844692D02*
G01*
X97657933Y-109844692D01*
X97617370Y-109824411D01*
X97602225Y-109809265D01*
X97581945Y-109768704D01*
X97581945Y-109739727D01*
X97602225Y-109699166D01*
X97617370Y-109684020D01*
X97657933Y-109663740D01*
X97800992Y-109663740D01*
X97800992Y-109844692D01*
G37*
G36*
X99121695Y-109943037D02*
G01*
X99134326Y-109968298D01*
X99134326Y-109975092D01*
X98968301Y-109941888D01*
X98991267Y-109930406D01*
X99096433Y-109930406D01*
X99121695Y-109943037D01*
G37*
G36*
X99807409Y-109943037D02*
G01*
X99820040Y-109968298D01*
X99820040Y-109975092D01*
X99654015Y-109941888D01*
X99676981Y-109930406D01*
X99782147Y-109930406D01*
X99807409Y-109943037D01*
G37*
G36*
X104317946Y-109950686D02*
G01*
X104333093Y-109965833D01*
X104353374Y-110006393D01*
X104353374Y-110187752D01*
X104333094Y-110228311D01*
X104317945Y-110243460D01*
X104277386Y-110263740D01*
X104210314Y-110263740D01*
X104169752Y-110243459D01*
X104154606Y-110228313D01*
X104134326Y-110187752D01*
X104134326Y-110006394D01*
X104154606Y-109965833D01*
X104169752Y-109950686D01*
X104210315Y-109930406D01*
X104277386Y-109930406D01*
X104317946Y-109950686D01*
G37*
G36*
X106664552Y-109943037D02*
G01*
X106677183Y-109968298D01*
X106677183Y-109975092D01*
X106511158Y-109941888D01*
X106534124Y-109930406D01*
X106639290Y-109930406D01*
X106664552Y-109943037D01*
G37*
G36*
X96747756Y-108785309D02*
G01*
X96685969Y-108785309D01*
X96654223Y-108642451D01*
X96716010Y-108642451D01*
X96747756Y-108785309D01*
G37*
G36*
X99235978Y-108883653D02*
G01*
X99248610Y-108908916D01*
X99248610Y-108937891D01*
X99235978Y-108963154D01*
X99210717Y-108975785D01*
X99067657Y-108975785D01*
X99067657Y-108871023D01*
X99210717Y-108871023D01*
X99235978Y-108883653D01*
G37*
G36*
X99921693Y-108655082D02*
G01*
X99934324Y-108680343D01*
X99934324Y-108687137D01*
X99768299Y-108653933D01*
X99791265Y-108642451D01*
X99896431Y-108642451D01*
X99921693Y-108655082D01*
G37*
G36*
X101841754Y-108396065D02*
G01*
X101856900Y-108411210D01*
X101882829Y-108463069D01*
X101915277Y-108592857D01*
X101915277Y-108758712D01*
X101882829Y-108888499D01*
X101856900Y-108940357D01*
X101841753Y-108955505D01*
X101801193Y-108975785D01*
X101772217Y-108975785D01*
X101731655Y-108955504D01*
X101716509Y-108940358D01*
X101690580Y-108888499D01*
X101658134Y-108758714D01*
X101658134Y-108592855D01*
X101690580Y-108463070D01*
X101716509Y-108411211D01*
X101731654Y-108396065D01*
X101772217Y-108375785D01*
X101801193Y-108375785D01*
X101841754Y-108396065D01*
G37*
G36*
X102603659Y-108396065D02*
G01*
X102618805Y-108411210D01*
X102644734Y-108463069D01*
X102677182Y-108592857D01*
X102677182Y-108758712D01*
X102644734Y-108888499D01*
X102618805Y-108940357D01*
X102603658Y-108955505D01*
X102563098Y-108975785D01*
X102534122Y-108975785D01*
X102493560Y-108955504D01*
X102478414Y-108940358D01*
X102452485Y-108888499D01*
X102420039Y-108758714D01*
X102420039Y-108592855D01*
X102452485Y-108463070D01*
X102478414Y-108411211D01*
X102493559Y-108396065D01*
X102534122Y-108375785D01*
X102563098Y-108375785D01*
X102603659Y-108396065D01*
G37*
G36*
X108120041Y-112118361D02*
G01*
X95493387Y-112118361D01*
X95493387Y-111308838D01*
X100658134Y-111308838D01*
X100658134Y-111499314D01*
X100660055Y-111518823D01*
X100661430Y-111522143D01*
X100661685Y-111525727D01*
X100668691Y-111544035D01*
X100706786Y-111620225D01*
X100712070Y-111628621D01*
X100713081Y-111631060D01*
X100715334Y-111633805D01*
X100717229Y-111636816D01*
X100719225Y-111638547D01*
X100725517Y-111646214D01*
X100763612Y-111684310D01*
X100771283Y-111690606D01*
X100773013Y-111692600D01*
X100776018Y-111694491D01*
X100778765Y-111696746D01*
X100781205Y-111697756D01*
X100789603Y-111703043D01*
X100865794Y-111741138D01*
X100884103Y-111748144D01*
X100887685Y-111748398D01*
X100891006Y-111749774D01*
X100910515Y-111751695D01*
X101100991Y-111751695D01*
X101120500Y-111749774D01*
X101123820Y-111748398D01*
X101127404Y-111748144D01*
X101145712Y-111741138D01*
X101221902Y-111703043D01*
X101230300Y-111697756D01*
X101232738Y-111696747D01*
X101235481Y-111694495D01*
X101238493Y-111692600D01*
X101240225Y-111690602D01*
X101247892Y-111684311D01*
X101285988Y-111646215D01*
X101298424Y-111631061D01*
X101313356Y-111595013D01*
X101313356Y-111555995D01*
X101298424Y-111519947D01*
X101270834Y-111492357D01*
X101234786Y-111477425D01*
X101195768Y-111477425D01*
X101159720Y-111492357D01*
X101144566Y-111504793D01*
X101117944Y-111531415D01*
X101077384Y-111551695D01*
X100934122Y-111551695D01*
X100893560Y-111531414D01*
X100878414Y-111516268D01*
X100858134Y-111475707D01*
X100858134Y-111332444D01*
X100878414Y-111291883D01*
X100893559Y-111276737D01*
X100934122Y-111256457D01*
X101077384Y-111256457D01*
X101117945Y-111276737D01*
X101144567Y-111303358D01*
X101159721Y-111315795D01*
X101164374Y-111317722D01*
X101168269Y-111320909D01*
X101182258Y-111325130D01*
X101195769Y-111330726D01*
X101200804Y-111330725D01*
X101205624Y-111332180D01*
X101220172Y-111330725D01*
X101234787Y-111330725D01*
X101239436Y-111328799D01*
X101244449Y-111328298D01*
X101257336Y-111321384D01*
X101270835Y-111315793D01*
X101274394Y-111312233D01*
X101278832Y-111309853D01*
X101288089Y-111298538D01*
X101298425Y-111288203D01*
X101300351Y-111283552D01*
X101303540Y-111279655D01*
X101307762Y-111265659D01*
X101313356Y-111252155D01*
X101313355Y-111247119D01*
X101314810Y-111242300D01*
X101314781Y-111222696D01*
X101292919Y-111004076D01*
X101420039Y-111004076D01*
X101420039Y-111080266D01*
X101421011Y-111090139D01*
X101420824Y-111092773D01*
X101421611Y-111096236D01*
X101421960Y-111099775D01*
X101422971Y-111102217D01*
X101425171Y-111111889D01*
X101463266Y-111226175D01*
X101471257Y-111244075D01*
X101473612Y-111246790D01*
X101474987Y-111250109D01*
X101487423Y-111265263D01*
X101773855Y-111551695D01*
X101520039Y-111551695D01*
X101500530Y-111553616D01*
X101464482Y-111568548D01*
X101436892Y-111596138D01*
X101421960Y-111632186D01*
X101421960Y-111671204D01*
X101436892Y-111707252D01*
X101464482Y-111734842D01*
X101500530Y-111749774D01*
X101520039Y-111751695D01*
X102015277Y-111751695D01*
X102034786Y-111749774D01*
X102070834Y-111734842D01*
X102098424Y-111707252D01*
X102113356Y-111671204D01*
X102113356Y-111632186D01*
X102098424Y-111596138D01*
X102085988Y-111580984D01*
X101661461Y-111156457D01*
X102181944Y-111156457D01*
X102181944Y-111346933D01*
X102182279Y-111350335D01*
X102182062Y-111351794D01*
X102183141Y-111359090D01*
X102183865Y-111366442D01*
X102184430Y-111367806D01*
X102184930Y-111371186D01*
X102223025Y-111523568D01*
X102223538Y-111525006D01*
X102223590Y-111525727D01*
X102226696Y-111533845D01*
X102229620Y-111542028D01*
X102230050Y-111542608D01*
X102230596Y-111544035D01*
X102268691Y-111620225D01*
X102273975Y-111628621D01*
X102274986Y-111631060D01*
X102277239Y-111633805D01*
X102279134Y-111636816D01*
X102281130Y-111638547D01*
X102287422Y-111646214D01*
X102325517Y-111684310D01*
X102333188Y-111690606D01*
X102334918Y-111692600D01*
X102337923Y-111694491D01*
X102340670Y-111696746D01*
X102343110Y-111697756D01*
X102351508Y-111703043D01*
X102427699Y-111741138D01*
X102446008Y-111748144D01*
X102449590Y-111748398D01*
X102452911Y-111749774D01*
X102472420Y-111751695D01*
X102548610Y-111751695D01*
X102568119Y-111749774D01*
X102571439Y-111748398D01*
X102575022Y-111748144D01*
X102593331Y-111741138D01*
X102669522Y-111703043D01*
X102677917Y-111697758D01*
X102680359Y-111696747D01*
X102683107Y-111694491D01*
X102686112Y-111692600D01*
X102687841Y-111690606D01*
X102695513Y-111684310D01*
X102733607Y-111646214D01*
X102739897Y-111638549D01*
X102741896Y-111636816D01*
X102743791Y-111633804D01*
X102746044Y-111631060D01*
X102747054Y-111628621D01*
X102752339Y-111620225D01*
X102790434Y-111544035D01*
X102790979Y-111542610D01*
X102791410Y-111542029D01*
X102794336Y-111533837D01*
X102797440Y-111525727D01*
X102797491Y-111525006D01*
X102798005Y-111523568D01*
X102836101Y-111371187D01*
X102836601Y-111367805D01*
X102837166Y-111366442D01*
X102837889Y-111359093D01*
X102838969Y-111351795D01*
X102838751Y-111350336D01*
X102839087Y-111346933D01*
X102839087Y-111156457D01*
X102838751Y-111153053D01*
X102838969Y-111151595D01*
X102837889Y-111144296D01*
X102837166Y-111136948D01*
X102836601Y-111135584D01*
X102836101Y-111132203D01*
X102804069Y-111004076D01*
X102943849Y-111004076D01*
X102943849Y-111080266D01*
X102944821Y-111090139D01*
X102944634Y-111092773D01*
X102945421Y-111096236D01*
X102945770Y-111099775D01*
X102946781Y-111102217D01*
X102948981Y-111111889D01*
X102987076Y-111226175D01*
X102995067Y-111244075D01*
X102997422Y-111246790D01*
X102998797Y-111250109D01*
X103011233Y-111265263D01*
X103297665Y-111551695D01*
X103043849Y-111551695D01*
X103024340Y-111553616D01*
X102988292Y-111568548D01*
X102960702Y-111596138D01*
X102945770Y-111632186D01*
X102945770Y-111671204D01*
X102960702Y-111707252D01*
X102988292Y-111734842D01*
X103024340Y-111749774D01*
X103043849Y-111751695D01*
X103539087Y-111751695D01*
X103558596Y-111749774D01*
X103594644Y-111734842D01*
X103622234Y-111707252D01*
X103637166Y-111671204D01*
X103637166Y-111632186D01*
X103622234Y-111596138D01*
X103609798Y-111580984D01*
X103169346Y-111140532D01*
X103161956Y-111118361D01*
X104353373Y-111118361D01*
X104353373Y-111765980D01*
X104355294Y-111785489D01*
X104356669Y-111788809D01*
X104356924Y-111792392D01*
X104363930Y-111810701D01*
X104402025Y-111886892D01*
X104407309Y-111895287D01*
X104408321Y-111897729D01*
X104410576Y-111900477D01*
X104412468Y-111903482D01*
X104414461Y-111905211D01*
X104420758Y-111912883D01*
X104458854Y-111950977D01*
X104466518Y-111957267D01*
X104468252Y-111959266D01*
X104471263Y-111961161D01*
X104474008Y-111963414D01*
X104476446Y-111964424D01*
X104484843Y-111969709D01*
X104561033Y-112007804D01*
X104579341Y-112014810D01*
X104582924Y-112015064D01*
X104586245Y-112016440D01*
X104605754Y-112018361D01*
X104720040Y-112018361D01*
X104739549Y-112016440D01*
X104742869Y-112015064D01*
X104746453Y-112014810D01*
X104764761Y-112007804D01*
X104840951Y-111969709D01*
X104857542Y-111959266D01*
X104883106Y-111929789D01*
X104895445Y-111892773D01*
X104892679Y-111853853D01*
X104875230Y-111818954D01*
X104845753Y-111793390D01*
X104808737Y-111781051D01*
X104769817Y-111783817D01*
X104751509Y-111790823D01*
X104696433Y-111818361D01*
X104629361Y-111818361D01*
X104588800Y-111798080D01*
X104573652Y-111782933D01*
X104558034Y-111751695D01*
X104681945Y-111751695D01*
X104701454Y-111749774D01*
X104704774Y-111748398D01*
X104708358Y-111748144D01*
X104726666Y-111741138D01*
X104802856Y-111703043D01*
X104811252Y-111697757D01*
X104813693Y-111696747D01*
X104816438Y-111694493D01*
X104819447Y-111692600D01*
X104821178Y-111690603D01*
X104828847Y-111684310D01*
X104866941Y-111646214D01*
X104873233Y-111638546D01*
X104875229Y-111636816D01*
X104877121Y-111633809D01*
X104879378Y-111631060D01*
X104880389Y-111628617D01*
X104885672Y-111620226D01*
X104923768Y-111544037D01*
X104930775Y-111525728D01*
X104931029Y-111522142D01*
X104932405Y-111518823D01*
X104934326Y-111499314D01*
X104934326Y-111270742D01*
X104932405Y-111251233D01*
X104931029Y-111247913D01*
X104930775Y-111244328D01*
X104926305Y-111232647D01*
X105077183Y-111232647D01*
X105077183Y-111651695D01*
X105079104Y-111671204D01*
X105094036Y-111707252D01*
X105121626Y-111734842D01*
X105157674Y-111749774D01*
X105196692Y-111749774D01*
X105232740Y-111734842D01*
X105260330Y-111707252D01*
X105275262Y-111671204D01*
X105277183Y-111651695D01*
X105277183Y-111256254D01*
X105289813Y-111230992D01*
X105315077Y-111218361D01*
X105382148Y-111218361D01*
X105420040Y-111237307D01*
X105420040Y-111651695D01*
X105421961Y-111671204D01*
X105436893Y-111707252D01*
X105464483Y-111734842D01*
X105500531Y-111749774D01*
X105539549Y-111749774D01*
X105575597Y-111734842D01*
X105603187Y-111707252D01*
X105618119Y-111671204D01*
X105620040Y-111651695D01*
X105620040Y-111118361D01*
X105618119Y-111098852D01*
X105603187Y-111062804D01*
X105575597Y-111035214D01*
X105539549Y-111020282D01*
X105500531Y-111020282D01*
X105464483Y-111035214D01*
X105464010Y-111035686D01*
X105450477Y-111028919D01*
X105432169Y-111021912D01*
X105428583Y-111021657D01*
X105425264Y-111020282D01*
X105405755Y-111018361D01*
X105291469Y-111018361D01*
X105271960Y-111020282D01*
X105268640Y-111021657D01*
X105265055Y-111021912D01*
X105246747Y-111028919D01*
X105170556Y-111067015D01*
X105167294Y-111069067D01*
X105165755Y-111069581D01*
X105163838Y-111071243D01*
X105153966Y-111077457D01*
X105145750Y-111086929D01*
X105136278Y-111095145D01*
X105130063Y-111105018D01*
X105128402Y-111106934D01*
X105127889Y-111108472D01*
X105125835Y-111111736D01*
X105087740Y-111187926D01*
X105080734Y-111206234D01*
X105080479Y-111209817D01*
X105079104Y-111213138D01*
X105077183Y-111232647D01*
X104926305Y-111232647D01*
X104923768Y-111226019D01*
X104885672Y-111149830D01*
X104880388Y-111141437D01*
X104879377Y-111138994D01*
X104877120Y-111136244D01*
X104875229Y-111133240D01*
X104873234Y-111131510D01*
X104866940Y-111123841D01*
X104828846Y-111085746D01*
X104821176Y-111079451D01*
X104819447Y-111077458D01*
X104816440Y-111075565D01*
X104813692Y-111073310D01*
X104811251Y-111072298D01*
X104802857Y-111067015D01*
X104726667Y-111028919D01*
X104708359Y-111021912D01*
X104704773Y-111021657D01*
X104701454Y-111020282D01*
X104681945Y-111018361D01*
X104529564Y-111018361D01*
X104510055Y-111020282D01*
X104506735Y-111021657D01*
X104503150Y-111021912D01*
X104489463Y-111027150D01*
X104472882Y-111020282D01*
X104433864Y-111020282D01*
X104397816Y-111035214D01*
X104370226Y-111062804D01*
X104355294Y-111098852D01*
X104353373Y-111118361D01*
X103161956Y-111118361D01*
X103143849Y-111064039D01*
X103143849Y-111027682D01*
X103164129Y-110987121D01*
X103179274Y-110971975D01*
X103219837Y-110951695D01*
X103363099Y-110951695D01*
X103403660Y-110971975D01*
X103430282Y-110998596D01*
X103445436Y-111011033D01*
X103481484Y-111025964D01*
X103520502Y-111025963D01*
X103556550Y-111011031D01*
X103584140Y-110983441D01*
X103599071Y-110947393D01*
X103599070Y-110908375D01*
X103584138Y-110872326D01*
X103582460Y-110870281D01*
X105764818Y-110870281D01*
X105764818Y-110909299D01*
X105779750Y-110945347D01*
X105792186Y-110960501D01*
X105830281Y-110998595D01*
X105845433Y-111011031D01*
X105845434Y-111011032D01*
X105858833Y-111016582D01*
X105874624Y-111023123D01*
X105845435Y-111035214D01*
X105817845Y-111062804D01*
X105802913Y-111098852D01*
X105800992Y-111118361D01*
X105800992Y-111651695D01*
X105802913Y-111671204D01*
X105817845Y-111707252D01*
X105845435Y-111734842D01*
X105881483Y-111749774D01*
X105920501Y-111749774D01*
X105956549Y-111734842D01*
X105984139Y-111707252D01*
X105999071Y-111671204D01*
X106000992Y-111651695D01*
X106000992Y-111118361D01*
X105999071Y-111098852D01*
X106069580Y-111098852D01*
X106069580Y-111137870D01*
X106084512Y-111173918D01*
X106112102Y-111201508D01*
X106148150Y-111216440D01*
X106167659Y-111218361D01*
X106220243Y-111218361D01*
X106260802Y-111238641D01*
X106275949Y-111253787D01*
X106296230Y-111294349D01*
X106296230Y-111651695D01*
X106298151Y-111671204D01*
X106313083Y-111707252D01*
X106340673Y-111734842D01*
X106376721Y-111749774D01*
X106415739Y-111749774D01*
X106451787Y-111734842D01*
X106479377Y-111707252D01*
X106494309Y-111671204D01*
X106496230Y-111651695D01*
X106496230Y-111270742D01*
X106639088Y-111270742D01*
X106639088Y-111499314D01*
X106641009Y-111518823D01*
X106642384Y-111522143D01*
X106642639Y-111525727D01*
X106649645Y-111544035D01*
X106687740Y-111620225D01*
X106693024Y-111628621D01*
X106694035Y-111631060D01*
X106696288Y-111633805D01*
X106698183Y-111636816D01*
X106700179Y-111638547D01*
X106706471Y-111646214D01*
X106744566Y-111684310D01*
X106752237Y-111690606D01*
X106753967Y-111692600D01*
X106756972Y-111694491D01*
X106759719Y-111696746D01*
X106762159Y-111697756D01*
X106770557Y-111703043D01*
X106846748Y-111741138D01*
X106865057Y-111748144D01*
X106868639Y-111748398D01*
X106871960Y-111749774D01*
X106891469Y-111751695D01*
X107020040Y-111751695D01*
X107020040Y-111918361D01*
X107021961Y-111937870D01*
X107036893Y-111973918D01*
X107064483Y-112001508D01*
X107100531Y-112016440D01*
X107139549Y-112016440D01*
X107175597Y-112001508D01*
X107203187Y-111973918D01*
X107218119Y-111937870D01*
X107220040Y-111918361D01*
X107220040Y-111423123D01*
X107362898Y-111423123D01*
X107362898Y-111499314D01*
X107364819Y-111518823D01*
X107366194Y-111522143D01*
X107366449Y-111525727D01*
X107373455Y-111544035D01*
X107411550Y-111620225D01*
X107416834Y-111628621D01*
X107417845Y-111631060D01*
X107420098Y-111633805D01*
X107421993Y-111636816D01*
X107423989Y-111638547D01*
X107430281Y-111646214D01*
X107468376Y-111684310D01*
X107476047Y-111690606D01*
X107477777Y-111692600D01*
X107480782Y-111694491D01*
X107483529Y-111696746D01*
X107485969Y-111697756D01*
X107494367Y-111703043D01*
X107570558Y-111741138D01*
X107588867Y-111748144D01*
X107592449Y-111748398D01*
X107595770Y-111749774D01*
X107615279Y-111751695D01*
X107805755Y-111751695D01*
X107815628Y-111750722D01*
X107818262Y-111750910D01*
X107821725Y-111750122D01*
X107825264Y-111749774D01*
X107827706Y-111748762D01*
X107837378Y-111746563D01*
X107951664Y-111708468D01*
X107969564Y-111700477D01*
X107999040Y-111674912D01*
X108016490Y-111640013D01*
X108019256Y-111601093D01*
X108006918Y-111564077D01*
X107981353Y-111534601D01*
X107946454Y-111517151D01*
X107907534Y-111514385D01*
X107888419Y-111518732D01*
X107789528Y-111551695D01*
X107638886Y-111551695D01*
X107598324Y-111531414D01*
X107583178Y-111516268D01*
X107562898Y-111475707D01*
X107562898Y-111446730D01*
X107583178Y-111406169D01*
X107598324Y-111391022D01*
X107650185Y-111365092D01*
X107791914Y-111329661D01*
X107793352Y-111329147D01*
X107794073Y-111329096D01*
X107802191Y-111325989D01*
X107810374Y-111323066D01*
X107810954Y-111322635D01*
X107812381Y-111322090D01*
X107888571Y-111283995D01*
X107896969Y-111278708D01*
X107899407Y-111277699D01*
X107902150Y-111275447D01*
X107905162Y-111273552D01*
X107906894Y-111271554D01*
X107914561Y-111265263D01*
X107952655Y-111227168D01*
X107958947Y-111219501D01*
X107960945Y-111217769D01*
X107962838Y-111214760D01*
X107965092Y-111212015D01*
X107966102Y-111209574D01*
X107971387Y-111201179D01*
X108009483Y-111124988D01*
X108016490Y-111106680D01*
X108016744Y-111103094D01*
X108018120Y-111099775D01*
X108020041Y-111080266D01*
X108020041Y-111004076D01*
X108018120Y-110984567D01*
X108016744Y-110981247D01*
X108016490Y-110977662D01*
X108009483Y-110959354D01*
X107971387Y-110883163D01*
X107966102Y-110874767D01*
X107965092Y-110872327D01*
X107962838Y-110869581D01*
X107960945Y-110866573D01*
X107958947Y-110864840D01*
X107952655Y-110857174D01*
X107914561Y-110819079D01*
X107906894Y-110812787D01*
X107905162Y-110810790D01*
X107902150Y-110808894D01*
X107899407Y-110806643D01*
X107896969Y-110805633D01*
X107888571Y-110800347D01*
X107812381Y-110762252D01*
X107794073Y-110755246D01*
X107790489Y-110754991D01*
X107787169Y-110753616D01*
X107767660Y-110751695D01*
X107577183Y-110751695D01*
X107567309Y-110752667D01*
X107564676Y-110752480D01*
X107561212Y-110753267D01*
X107557674Y-110753616D01*
X107555231Y-110754627D01*
X107545560Y-110756827D01*
X107431275Y-110794922D01*
X107413375Y-110802913D01*
X107383899Y-110828478D01*
X107366449Y-110863377D01*
X107363683Y-110902297D01*
X107376021Y-110939313D01*
X107401586Y-110968789D01*
X107436485Y-110986239D01*
X107475405Y-110989005D01*
X107494521Y-110984658D01*
X107593410Y-110951695D01*
X107744053Y-110951695D01*
X107784613Y-110971975D01*
X107799760Y-110987121D01*
X107820041Y-111027683D01*
X107820041Y-111056658D01*
X107799760Y-111097220D01*
X107784613Y-111112366D01*
X107732755Y-111138295D01*
X107591026Y-111173728D01*
X107589588Y-111174241D01*
X107588865Y-111174293D01*
X107580744Y-111177401D01*
X107572565Y-111180323D01*
X107571983Y-111180754D01*
X107570557Y-111181300D01*
X107494366Y-111219396D01*
X107485970Y-111224680D01*
X107483530Y-111225691D01*
X107480784Y-111227944D01*
X107477776Y-111229838D01*
X107476043Y-111231835D01*
X107468377Y-111238128D01*
X107430282Y-111276222D01*
X107423990Y-111283888D01*
X107421993Y-111285621D01*
X107420097Y-111288632D01*
X107417846Y-111291376D01*
X107416836Y-111293813D01*
X107411550Y-111302212D01*
X107373455Y-111378402D01*
X107366449Y-111396710D01*
X107366194Y-111400293D01*
X107364819Y-111403614D01*
X107362898Y-111423123D01*
X107220040Y-111423123D01*
X107220040Y-111118361D01*
X107218119Y-111098852D01*
X107203187Y-111062804D01*
X107175597Y-111035214D01*
X107139549Y-111020282D01*
X107100531Y-111020282D01*
X107083950Y-111027150D01*
X107070264Y-111021912D01*
X107066678Y-111021657D01*
X107063359Y-111020282D01*
X107043850Y-111018361D01*
X106891469Y-111018361D01*
X106871960Y-111020282D01*
X106868640Y-111021657D01*
X106865055Y-111021912D01*
X106846747Y-111028919D01*
X106770556Y-111067015D01*
X106762160Y-111072299D01*
X106759720Y-111073310D01*
X106756974Y-111075563D01*
X106753966Y-111077457D01*
X106752233Y-111079454D01*
X106744567Y-111085747D01*
X106706472Y-111123841D01*
X106700180Y-111131507D01*
X106698183Y-111133240D01*
X106696287Y-111136251D01*
X106694036Y-111138995D01*
X106693026Y-111141432D01*
X106687740Y-111149831D01*
X106649645Y-111226021D01*
X106642639Y-111244329D01*
X106642384Y-111247912D01*
X106641009Y-111251233D01*
X106639088Y-111270742D01*
X106496230Y-111270742D01*
X106496230Y-111118361D01*
X106494309Y-111098852D01*
X106479377Y-111062804D01*
X106451787Y-111035214D01*
X106415739Y-111020282D01*
X106376721Y-111020282D01*
X106340673Y-111035214D01*
X106327502Y-111048384D01*
X106288571Y-111028919D01*
X106270262Y-111021912D01*
X106266678Y-111021657D01*
X106263358Y-111020282D01*
X106243849Y-111018361D01*
X106167659Y-111018361D01*
X106148150Y-111020282D01*
X106112102Y-111035214D01*
X106084512Y-111062804D01*
X106069580Y-111098852D01*
X105999071Y-111098852D01*
X105984139Y-111062804D01*
X105956549Y-111035214D01*
X105927359Y-111023123D01*
X105943151Y-111016582D01*
X105956548Y-111011033D01*
X105971702Y-110998597D01*
X106009798Y-110960502D01*
X106022234Y-110945349D01*
X106022234Y-110945347D01*
X106022236Y-110945346D01*
X106037167Y-110909298D01*
X106037166Y-110889790D01*
X106037167Y-110870282D01*
X106022236Y-110834234D01*
X106022234Y-110834232D01*
X106022234Y-110834231D01*
X106009798Y-110819078D01*
X105971702Y-110780983D01*
X105956548Y-110768547D01*
X105935432Y-110759800D01*
X105920501Y-110753616D01*
X105881483Y-110753616D01*
X105860634Y-110762252D01*
X105857786Y-110763432D01*
X105845434Y-110768548D01*
X105830281Y-110780985D01*
X105792186Y-110819079D01*
X105779752Y-110834231D01*
X105779750Y-110834233D01*
X105764818Y-110870281D01*
X103582460Y-110870281D01*
X103571702Y-110857173D01*
X103533606Y-110819078D01*
X103525939Y-110812786D01*
X103524208Y-110810790D01*
X103521197Y-110808895D01*
X103518452Y-110806642D01*
X103516013Y-110805631D01*
X103507617Y-110800347D01*
X103431427Y-110762252D01*
X103413119Y-110755246D01*
X103409535Y-110754991D01*
X103406215Y-110753616D01*
X103386706Y-110751695D01*
X103196230Y-110751695D01*
X103176721Y-110753616D01*
X103173400Y-110754991D01*
X103169818Y-110755246D01*
X103151509Y-110762252D01*
X103075318Y-110800347D01*
X103066922Y-110805631D01*
X103064481Y-110806643D01*
X103061733Y-110808898D01*
X103058728Y-110810790D01*
X103056997Y-110812785D01*
X103049328Y-110819080D01*
X103011233Y-110857174D01*
X103004938Y-110864843D01*
X103002944Y-110866574D01*
X103001050Y-110869581D01*
X102998797Y-110872328D01*
X102997786Y-110874767D01*
X102992501Y-110883164D01*
X102954406Y-110959355D01*
X102947400Y-110977664D01*
X102947145Y-110981246D01*
X102945770Y-110984567D01*
X102943849Y-111004076D01*
X102804069Y-111004076D01*
X102798005Y-110979822D01*
X102797491Y-110978383D01*
X102797440Y-110977664D01*
X102794339Y-110969561D01*
X102791410Y-110961361D01*
X102790979Y-110960779D01*
X102790434Y-110959355D01*
X102752339Y-110883164D01*
X102747054Y-110874768D01*
X102746043Y-110872327D01*
X102743787Y-110869579D01*
X102741896Y-110866574D01*
X102739900Y-110864843D01*
X102733606Y-110857174D01*
X102695512Y-110819079D01*
X102687842Y-110812784D01*
X102686112Y-110810790D01*
X102683104Y-110808896D01*
X102680358Y-110806643D01*
X102677918Y-110805632D01*
X102669522Y-110800347D01*
X102593331Y-110762252D01*
X102575022Y-110755246D01*
X102571439Y-110754991D01*
X102568119Y-110753616D01*
X102548610Y-110751695D01*
X102472420Y-110751695D01*
X102452911Y-110753616D01*
X102449590Y-110754991D01*
X102446008Y-110755246D01*
X102427699Y-110762252D01*
X102351508Y-110800347D01*
X102343112Y-110805631D01*
X102340671Y-110806643D01*
X102337923Y-110808898D01*
X102334918Y-110810790D01*
X102333187Y-110812785D01*
X102325518Y-110819080D01*
X102287423Y-110857174D01*
X102281128Y-110864843D01*
X102279134Y-110866574D01*
X102277240Y-110869581D01*
X102274987Y-110872328D01*
X102273976Y-110874767D01*
X102268691Y-110883164D01*
X102230596Y-110959355D01*
X102230050Y-110960781D01*
X102229620Y-110961362D01*
X102226693Y-110969553D01*
X102223590Y-110977664D01*
X102223538Y-110978383D01*
X102223025Y-110979822D01*
X102184930Y-111132204D01*
X102184430Y-111135583D01*
X102183865Y-111136948D01*
X102183141Y-111144299D01*
X102182062Y-111151596D01*
X102182279Y-111153054D01*
X102181944Y-111156457D01*
X101661461Y-111156457D01*
X101645536Y-111140532D01*
X101620039Y-111064039D01*
X101620039Y-111027682D01*
X101640319Y-110987121D01*
X101655464Y-110971975D01*
X101696027Y-110951695D01*
X101839289Y-110951695D01*
X101879850Y-110971975D01*
X101906472Y-110998596D01*
X101921626Y-111011033D01*
X101957674Y-111025964D01*
X101996692Y-111025963D01*
X102032740Y-111011031D01*
X102060330Y-110983441D01*
X102075261Y-110947393D01*
X102075260Y-110908375D01*
X102060328Y-110872326D01*
X102047892Y-110857173D01*
X102009796Y-110819078D01*
X102002129Y-110812786D01*
X102000398Y-110810790D01*
X101997387Y-110808895D01*
X101994642Y-110806642D01*
X101992203Y-110805631D01*
X101983807Y-110800347D01*
X101907617Y-110762252D01*
X101889309Y-110755246D01*
X101885725Y-110754991D01*
X101882405Y-110753616D01*
X101862896Y-110751695D01*
X101672420Y-110751695D01*
X101652911Y-110753616D01*
X101649590Y-110754991D01*
X101646008Y-110755246D01*
X101627699Y-110762252D01*
X101551508Y-110800347D01*
X101543112Y-110805631D01*
X101540671Y-110806643D01*
X101537923Y-110808898D01*
X101534918Y-110810790D01*
X101533187Y-110812785D01*
X101525518Y-110819080D01*
X101487423Y-110857174D01*
X101481128Y-110864843D01*
X101479134Y-110866574D01*
X101477240Y-110869581D01*
X101474987Y-110872328D01*
X101473976Y-110874767D01*
X101468691Y-110883164D01*
X101430596Y-110959355D01*
X101423590Y-110977664D01*
X101423335Y-110981246D01*
X101421960Y-110984567D01*
X101420039Y-111004076D01*
X101292919Y-111004076D01*
X101276685Y-110841744D01*
X101275260Y-110834635D01*
X101275260Y-110832186D01*
X101274308Y-110829889D01*
X101272832Y-110822523D01*
X101265921Y-110809640D01*
X101260328Y-110796138D01*
X101256767Y-110792577D01*
X101254387Y-110788140D01*
X101243072Y-110778882D01*
X101232738Y-110768548D01*
X101228087Y-110766621D01*
X101224189Y-110763432D01*
X101210194Y-110759209D01*
X101196690Y-110753616D01*
X101189213Y-110752879D01*
X101186834Y-110752162D01*
X101184397Y-110752405D01*
X101177181Y-110751695D01*
X100796229Y-110751695D01*
X100776720Y-110753616D01*
X100740672Y-110768548D01*
X100713082Y-110796138D01*
X100698150Y-110832186D01*
X100698150Y-110871204D01*
X100713082Y-110907252D01*
X100740672Y-110934842D01*
X100776720Y-110949774D01*
X100796229Y-110951695D01*
X101086682Y-110951695D01*
X101097159Y-111056457D01*
X100910515Y-111056457D01*
X100891006Y-111058378D01*
X100887685Y-111059753D01*
X100884103Y-111060008D01*
X100865794Y-111067014D01*
X100789603Y-111105109D01*
X100781207Y-111110393D01*
X100778766Y-111111405D01*
X100776018Y-111113660D01*
X100773013Y-111115552D01*
X100771282Y-111117547D01*
X100763613Y-111123842D01*
X100725518Y-111161936D01*
X100719223Y-111169605D01*
X100717229Y-111171336D01*
X100715335Y-111174343D01*
X100713082Y-111177090D01*
X100712071Y-111179529D01*
X100706786Y-111187926D01*
X100668691Y-111264117D01*
X100661685Y-111282426D01*
X100661430Y-111286008D01*
X100660055Y-111289329D01*
X100658134Y-111308838D01*
X95493387Y-111308838D01*
X95493387Y-110351233D01*
X95744634Y-110351233D01*
X95747400Y-110390153D01*
X95764849Y-110425052D01*
X95794326Y-110450616D01*
X95831342Y-110462955D01*
X95870262Y-110460189D01*
X95888570Y-110453183D01*
X95964760Y-110415088D01*
X95968022Y-110413034D01*
X95969563Y-110412521D01*
X95971480Y-110410857D01*
X95981351Y-110404645D01*
X95989567Y-110395170D01*
X95999039Y-110386956D01*
X96005252Y-110377084D01*
X96006915Y-110375168D01*
X96007428Y-110373629D01*
X96009482Y-110370366D01*
X96019048Y-110351233D01*
X96163682Y-110351233D01*
X96166448Y-110390153D01*
X96183897Y-110425052D01*
X96213374Y-110450616D01*
X96250390Y-110462955D01*
X96289310Y-110460189D01*
X96307618Y-110453183D01*
X96383808Y-110415088D01*
X96387070Y-110413034D01*
X96388611Y-110412521D01*
X96390528Y-110410857D01*
X96400399Y-110404645D01*
X96408615Y-110395170D01*
X96418087Y-110386956D01*
X96424300Y-110377084D01*
X96425963Y-110375168D01*
X96426476Y-110373629D01*
X96428530Y-110370366D01*
X96466625Y-110294175D01*
X96473631Y-110275866D01*
X96473885Y-110272283D01*
X96475261Y-110268963D01*
X96477182Y-110249454D01*
X96477182Y-109944692D01*
X96658135Y-109944692D01*
X96658135Y-110363740D01*
X96660056Y-110383249D01*
X96674988Y-110419297D01*
X96702578Y-110446887D01*
X96738626Y-110461819D01*
X96777644Y-110461819D01*
X96794224Y-110454950D01*
X96807914Y-110460189D01*
X96811496Y-110460443D01*
X96814817Y-110461819D01*
X96834326Y-110463740D01*
X97024802Y-110463740D01*
X97044311Y-110461819D01*
X97047631Y-110460443D01*
X97051215Y-110460189D01*
X97069523Y-110453183D01*
X97145713Y-110415088D01*
X97148976Y-110413033D01*
X97150515Y-110412521D01*
X97152430Y-110410859D01*
X97162304Y-110404645D01*
X97170519Y-110395172D01*
X97179992Y-110386957D01*
X97186205Y-110377084D01*
X97187868Y-110375168D01*
X97188381Y-110373628D01*
X97190434Y-110370367D01*
X97228530Y-110294176D01*
X97235537Y-110275868D01*
X97235791Y-110272282D01*
X97237167Y-110268963D01*
X97239088Y-110249454D01*
X97239088Y-110173264D01*
X97237167Y-110153755D01*
X97235791Y-110150435D01*
X97235537Y-110146850D01*
X97228530Y-110128542D01*
X97212795Y-110097073D01*
X97343849Y-110097073D01*
X97343849Y-110211359D01*
X97345770Y-110230868D01*
X97347145Y-110234187D01*
X97347400Y-110237773D01*
X97354407Y-110256081D01*
X97392503Y-110332271D01*
X97397785Y-110340662D01*
X97398797Y-110343105D01*
X97401053Y-110345855D01*
X97402946Y-110348861D01*
X97404939Y-110350589D01*
X97411233Y-110358259D01*
X97449328Y-110396355D01*
X97456996Y-110402648D01*
X97458728Y-110404645D01*
X97461736Y-110406538D01*
X97464481Y-110408791D01*
X97466919Y-110409801D01*
X97475319Y-110415088D01*
X97551509Y-110453183D01*
X97569817Y-110460189D01*
X97573400Y-110460443D01*
X97576721Y-110461819D01*
X97596230Y-110463740D01*
X97900992Y-110463740D01*
X97920501Y-110461819D01*
X97956549Y-110446887D01*
X97984139Y-110419297D01*
X97999071Y-110383249D01*
X98000992Y-110363740D01*
X98000992Y-109944692D01*
X98753373Y-109944692D01*
X98753373Y-110020883D01*
X98755294Y-110040392D01*
X98759043Y-110049444D01*
X98760945Y-110059055D01*
X98766436Y-110067292D01*
X98770226Y-110076440D01*
X98777154Y-110083368D01*
X98782589Y-110091520D01*
X98790814Y-110097028D01*
X98797816Y-110104030D01*
X98806867Y-110107779D01*
X98815008Y-110113231D01*
X98833762Y-110118941D01*
X98833861Y-110118960D01*
X98833864Y-110118962D01*
X98833867Y-110118962D01*
X99134326Y-110179053D01*
X99134326Y-110225846D01*
X99121694Y-110251109D01*
X99096433Y-110263740D01*
X98991266Y-110263740D01*
X98936189Y-110236202D01*
X98917880Y-110229196D01*
X98878960Y-110226430D01*
X98841944Y-110238769D01*
X98812468Y-110264334D01*
X98795019Y-110299233D01*
X98792253Y-110338153D01*
X98804592Y-110375169D01*
X98830157Y-110404645D01*
X98846747Y-110415088D01*
X98922938Y-110453183D01*
X98941247Y-110460189D01*
X98944829Y-110460443D01*
X98948150Y-110461819D01*
X98967659Y-110463740D01*
X99120040Y-110463740D01*
X99139549Y-110461819D01*
X99142869Y-110460443D01*
X99146453Y-110460189D01*
X99164761Y-110453183D01*
X99240951Y-110415088D01*
X99244214Y-110413033D01*
X99245753Y-110412521D01*
X99247668Y-110410859D01*
X99257542Y-110404645D01*
X99265757Y-110395172D01*
X99275230Y-110386957D01*
X99281443Y-110377084D01*
X99283106Y-110375168D01*
X99283619Y-110373628D01*
X99285672Y-110370367D01*
X99323768Y-110294176D01*
X99330775Y-110275868D01*
X99331029Y-110272282D01*
X99332405Y-110268963D01*
X99334326Y-110249454D01*
X99334326Y-109944692D01*
X99439087Y-109944692D01*
X99439087Y-110020883D01*
X99441008Y-110040392D01*
X99444757Y-110049444D01*
X99446659Y-110059055D01*
X99452150Y-110067292D01*
X99455940Y-110076440D01*
X99462868Y-110083368D01*
X99468303Y-110091520D01*
X99476528Y-110097028D01*
X99483530Y-110104030D01*
X99492581Y-110107779D01*
X99500722Y-110113231D01*
X99519476Y-110118941D01*
X99519575Y-110118960D01*
X99519578Y-110118962D01*
X99519581Y-110118962D01*
X99820040Y-110179053D01*
X99820040Y-110225846D01*
X99807408Y-110251109D01*
X99782147Y-110263740D01*
X99676980Y-110263740D01*
X99621903Y-110236202D01*
X99603594Y-110229196D01*
X99564674Y-110226430D01*
X99527658Y-110238769D01*
X99498182Y-110264334D01*
X99480733Y-110299233D01*
X99477967Y-110338153D01*
X99490306Y-110375169D01*
X99515871Y-110404645D01*
X99532461Y-110415088D01*
X99608652Y-110453183D01*
X99626961Y-110460189D01*
X99630543Y-110460443D01*
X99633864Y-110461819D01*
X99653373Y-110463740D01*
X99805754Y-110463740D01*
X99825263Y-110461819D01*
X99828583Y-110460443D01*
X99832167Y-110460189D01*
X99850475Y-110453183D01*
X99926665Y-110415088D01*
X99929928Y-110413033D01*
X99931467Y-110412521D01*
X99933382Y-110410859D01*
X99943256Y-110404645D01*
X99951471Y-110395172D01*
X99960944Y-110386957D01*
X99967157Y-110377084D01*
X99968820Y-110375168D01*
X99969333Y-110373628D01*
X99971386Y-110370367D01*
X99977421Y-110358297D01*
X100124949Y-110358297D01*
X100130467Y-110396923D01*
X100150346Y-110430498D01*
X100181561Y-110453909D01*
X100219358Y-110463592D01*
X100257984Y-110458074D01*
X100291559Y-110438195D01*
X100304801Y-110423740D01*
X100429563Y-110257391D01*
X100429563Y-110363740D01*
X100431484Y-110383249D01*
X100446416Y-110419297D01*
X100474006Y-110446887D01*
X100510054Y-110461819D01*
X100549072Y-110461819D01*
X100585120Y-110446887D01*
X100612710Y-110419297D01*
X100627642Y-110383249D01*
X100629563Y-110363740D01*
X100629563Y-110135168D01*
X100772421Y-110135168D01*
X100772421Y-110211359D01*
X100774342Y-110230868D01*
X100775717Y-110234188D01*
X100775972Y-110237772D01*
X100782978Y-110256080D01*
X100821073Y-110332270D01*
X100826357Y-110340666D01*
X100827368Y-110343105D01*
X100829621Y-110345850D01*
X100831516Y-110348861D01*
X100833512Y-110350592D01*
X100839804Y-110358259D01*
X100877899Y-110396355D01*
X100885570Y-110402651D01*
X100887300Y-110404645D01*
X100890305Y-110406536D01*
X100893052Y-110408791D01*
X100895492Y-110409801D01*
X100903890Y-110415088D01*
X100980081Y-110453183D01*
X100998390Y-110460189D01*
X101001972Y-110460443D01*
X101005293Y-110461819D01*
X101024802Y-110463740D01*
X101215278Y-110463740D01*
X101225151Y-110462767D01*
X101227785Y-110462955D01*
X101231248Y-110462167D01*
X101234787Y-110461819D01*
X101237229Y-110460807D01*
X101246901Y-110458608D01*
X101361187Y-110420513D01*
X101379087Y-110412522D01*
X101408563Y-110386957D01*
X101426013Y-110352058D01*
X101428779Y-110313138D01*
X101416441Y-110276122D01*
X101390876Y-110246646D01*
X101355977Y-110229196D01*
X101317057Y-110226430D01*
X101297942Y-110230777D01*
X101199051Y-110263740D01*
X101048409Y-110263740D01*
X101007847Y-110243459D01*
X100992701Y-110228313D01*
X100972421Y-110187752D01*
X100972421Y-110158775D01*
X100992701Y-110118214D01*
X101007847Y-110103067D01*
X101059708Y-110077137D01*
X101201437Y-110041706D01*
X101202875Y-110041192D01*
X101203596Y-110041141D01*
X101211714Y-110038034D01*
X101219897Y-110035111D01*
X101220477Y-110034680D01*
X101221904Y-110034135D01*
X101298094Y-109996040D01*
X101306492Y-109990753D01*
X101308930Y-109989744D01*
X101311673Y-109987492D01*
X101314685Y-109985597D01*
X101316417Y-109983599D01*
X101324084Y-109977308D01*
X101362178Y-109939213D01*
X101368470Y-109931546D01*
X101370468Y-109929814D01*
X101372361Y-109926805D01*
X101374615Y-109924060D01*
X101375625Y-109921619D01*
X101380910Y-109913224D01*
X101409525Y-109855995D01*
X102144634Y-109855995D01*
X102147400Y-109894915D01*
X102164849Y-109929814D01*
X102194326Y-109955378D01*
X102231342Y-109967717D01*
X102270262Y-109964951D01*
X102288571Y-109957944D01*
X102343648Y-109930406D01*
X102448814Y-109930406D01*
X102489374Y-109950686D01*
X102504521Y-109965833D01*
X102524802Y-110006393D01*
X102524802Y-110187752D01*
X102504522Y-110228311D01*
X102489373Y-110243460D01*
X102448814Y-110263740D01*
X102343647Y-110263740D01*
X102288570Y-110236202D01*
X102270261Y-110229196D01*
X102231341Y-110226430D01*
X102194325Y-110238769D01*
X102164849Y-110264334D01*
X102147400Y-110299233D01*
X102144634Y-110338153D01*
X102156973Y-110375169D01*
X102182538Y-110404645D01*
X102199128Y-110415088D01*
X102275319Y-110453183D01*
X102293628Y-110460189D01*
X102297210Y-110460443D01*
X102300531Y-110461819D01*
X102320040Y-110463740D01*
X102472421Y-110463740D01*
X102491930Y-110461819D01*
X102495250Y-110460443D01*
X102498834Y-110460189D01*
X102517142Y-110453183D01*
X102593332Y-110415088D01*
X102601728Y-110409802D01*
X102604169Y-110408792D01*
X102606914Y-110406538D01*
X102609923Y-110404645D01*
X102611654Y-110402648D01*
X102619323Y-110396355D01*
X102657417Y-110358259D01*
X102663709Y-110350591D01*
X102665705Y-110348861D01*
X102667597Y-110345854D01*
X102669854Y-110343105D01*
X102670865Y-110340662D01*
X102676148Y-110332271D01*
X102714244Y-110256082D01*
X102721251Y-110237773D01*
X102721505Y-110234187D01*
X102722881Y-110230868D01*
X102724802Y-110211359D01*
X102724802Y-109982787D01*
X102722881Y-109963278D01*
X102721505Y-109959958D01*
X102721251Y-109956373D01*
X102714244Y-109938064D01*
X102676148Y-109861875D01*
X102670864Y-109853482D01*
X102669853Y-109851039D01*
X102667596Y-109848289D01*
X102665705Y-109845285D01*
X102663710Y-109843555D01*
X102657416Y-109835886D01*
X102619322Y-109797791D01*
X102611652Y-109791496D01*
X102609923Y-109789503D01*
X102606916Y-109787610D01*
X102604168Y-109785355D01*
X102601727Y-109784343D01*
X102593333Y-109779060D01*
X102517143Y-109740964D01*
X102498835Y-109733957D01*
X102495249Y-109733702D01*
X102491930Y-109732327D01*
X102472421Y-109730406D01*
X102320040Y-109730406D01*
X102300531Y-109732327D01*
X102297211Y-109733702D01*
X102293626Y-109733957D01*
X102275318Y-109740964D01*
X102199127Y-109779060D01*
X102182537Y-109789502D01*
X102156973Y-109818979D01*
X102144634Y-109855995D01*
X101409525Y-109855995D01*
X101419006Y-109837033D01*
X101426013Y-109818725D01*
X101426267Y-109815139D01*
X101427643Y-109811820D01*
X101429564Y-109792311D01*
X101429564Y-109716121D01*
X101427643Y-109696612D01*
X101426267Y-109693292D01*
X101426013Y-109689707D01*
X101419006Y-109671399D01*
X101380910Y-109595208D01*
X101375625Y-109586812D01*
X101374615Y-109584372D01*
X101372936Y-109582326D01*
X102831484Y-109582326D01*
X102831484Y-109621344D01*
X102846416Y-109657392D01*
X102858852Y-109672546D01*
X102896947Y-109710640D01*
X102912100Y-109723077D01*
X102925499Y-109728627D01*
X102941290Y-109735168D01*
X102912101Y-109747259D01*
X102884511Y-109774849D01*
X102869579Y-109810897D01*
X102867658Y-109830406D01*
X102867658Y-110363740D01*
X102869579Y-110383249D01*
X102884511Y-110419297D01*
X102912101Y-110446887D01*
X102948149Y-110461819D01*
X102987167Y-110461819D01*
X103023215Y-110446887D01*
X103050805Y-110419297D01*
X103065737Y-110383249D01*
X103067658Y-110363740D01*
X103067658Y-109944692D01*
X103248611Y-109944692D01*
X103248611Y-110363740D01*
X103250532Y-110383249D01*
X103265464Y-110419297D01*
X103293054Y-110446887D01*
X103329102Y-110461819D01*
X103368120Y-110461819D01*
X103404168Y-110446887D01*
X103431758Y-110419297D01*
X103446690Y-110383249D01*
X103448611Y-110363740D01*
X103448611Y-109968299D01*
X103461241Y-109943037D01*
X103486505Y-109930406D01*
X103553576Y-109930406D01*
X103591468Y-109949352D01*
X103591468Y-110363740D01*
X103593389Y-110383249D01*
X103608321Y-110419297D01*
X103635911Y-110446887D01*
X103671959Y-110461819D01*
X103710977Y-110461819D01*
X103747025Y-110446887D01*
X103774615Y-110419297D01*
X103789547Y-110383249D01*
X103791468Y-110363740D01*
X103791468Y-109982787D01*
X103934326Y-109982787D01*
X103934326Y-110211359D01*
X103936247Y-110230868D01*
X103937622Y-110234188D01*
X103937877Y-110237772D01*
X103944883Y-110256080D01*
X103982978Y-110332270D01*
X103988262Y-110340666D01*
X103989273Y-110343105D01*
X103991526Y-110345850D01*
X103993421Y-110348861D01*
X103995417Y-110350592D01*
X104001709Y-110358259D01*
X104039804Y-110396355D01*
X104047475Y-110402651D01*
X104049205Y-110404645D01*
X104052210Y-110406536D01*
X104054957Y-110408791D01*
X104057397Y-110409801D01*
X104065795Y-110415088D01*
X104141986Y-110453183D01*
X104160295Y-110460189D01*
X104163877Y-110460443D01*
X104167198Y-110461819D01*
X104186707Y-110463740D01*
X104300993Y-110463740D01*
X104320502Y-110461819D01*
X104323822Y-110460443D01*
X104327406Y-110460189D01*
X104345714Y-110453183D01*
X104421904Y-110415088D01*
X104430300Y-110409802D01*
X104432741Y-110408792D01*
X104435486Y-110406538D01*
X104438495Y-110404645D01*
X104440226Y-110402648D01*
X104447895Y-110396355D01*
X104485989Y-110358259D01*
X104492281Y-110350591D01*
X104494277Y-110348861D01*
X104496169Y-110345854D01*
X104498426Y-110343105D01*
X104499437Y-110340662D01*
X104504720Y-110332271D01*
X104542816Y-110256082D01*
X104549823Y-110237773D01*
X104550077Y-110234187D01*
X104551453Y-110230868D01*
X104553374Y-110211359D01*
X104553374Y-109982787D01*
X104551453Y-109963278D01*
X104550077Y-109959958D01*
X104549823Y-109956373D01*
X104542816Y-109938064D01*
X104504720Y-109861875D01*
X104499436Y-109853482D01*
X104498425Y-109851039D01*
X104496168Y-109848289D01*
X104494277Y-109845285D01*
X104492282Y-109843555D01*
X104485988Y-109835886D01*
X104461000Y-109810897D01*
X104583866Y-109810897D01*
X104583866Y-109849915D01*
X104598798Y-109885963D01*
X104626388Y-109913553D01*
X104662436Y-109928485D01*
X104681945Y-109930406D01*
X104734529Y-109930406D01*
X104775088Y-109950686D01*
X104790235Y-109965832D01*
X104810516Y-110006394D01*
X104810516Y-110363740D01*
X104812437Y-110383249D01*
X104827369Y-110419297D01*
X104854959Y-110446887D01*
X104891007Y-110461819D01*
X104930025Y-110461819D01*
X104966073Y-110446887D01*
X104993663Y-110419297D01*
X105008595Y-110383249D01*
X105010516Y-110363740D01*
X105010516Y-109830406D01*
X105008595Y-109810897D01*
X105079104Y-109810897D01*
X105079104Y-109849915D01*
X105094036Y-109885963D01*
X105121626Y-109913553D01*
X105157674Y-109928485D01*
X105177183Y-109930406D01*
X105267659Y-109930406D01*
X105267659Y-110225847D01*
X105255028Y-110251109D01*
X105229767Y-110263740D01*
X105177183Y-110263740D01*
X105157674Y-110265661D01*
X105121626Y-110280593D01*
X105094036Y-110308183D01*
X105079104Y-110344231D01*
X105079104Y-110383249D01*
X105094036Y-110419297D01*
X105121626Y-110446887D01*
X105157674Y-110461819D01*
X105177183Y-110463740D01*
X105253374Y-110463740D01*
X105272883Y-110461819D01*
X105276203Y-110460443D01*
X105279787Y-110460189D01*
X105298095Y-110453183D01*
X105374285Y-110415088D01*
X105377547Y-110413034D01*
X105379088Y-110412521D01*
X105381005Y-110410857D01*
X105390876Y-110404645D01*
X105399092Y-110395170D01*
X105408564Y-110386956D01*
X105414777Y-110377084D01*
X105416440Y-110375168D01*
X105416953Y-110373629D01*
X105419007Y-110370366D01*
X105457102Y-110294175D01*
X105464108Y-110275866D01*
X105464362Y-110272283D01*
X105465738Y-110268963D01*
X105467659Y-110249454D01*
X105467659Y-109930406D01*
X105481945Y-109930406D01*
X105501454Y-109928485D01*
X105537502Y-109913553D01*
X105565092Y-109885963D01*
X105577506Y-109855995D01*
X105611301Y-109855995D01*
X105614067Y-109894915D01*
X105631516Y-109929814D01*
X105660993Y-109955378D01*
X105698009Y-109967717D01*
X105736929Y-109964951D01*
X105755238Y-109957944D01*
X105810315Y-109930406D01*
X105915481Y-109930406D01*
X105956041Y-109950686D01*
X105971188Y-109965833D01*
X105991469Y-110006393D01*
X105991469Y-110187752D01*
X105971189Y-110228311D01*
X105956040Y-110243460D01*
X105915481Y-110263740D01*
X105810314Y-110263740D01*
X105755237Y-110236202D01*
X105736928Y-110229196D01*
X105698008Y-110226430D01*
X105660992Y-110238769D01*
X105631516Y-110264334D01*
X105614067Y-110299233D01*
X105611301Y-110338153D01*
X105623640Y-110375169D01*
X105649205Y-110404645D01*
X105665795Y-110415088D01*
X105741986Y-110453183D01*
X105760295Y-110460189D01*
X105763877Y-110460443D01*
X105767198Y-110461819D01*
X105786707Y-110463740D01*
X105939088Y-110463740D01*
X105958597Y-110461819D01*
X105961917Y-110460443D01*
X105965501Y-110460189D01*
X105983809Y-110453183D01*
X106059999Y-110415088D01*
X106068395Y-110409802D01*
X106070836Y-110408792D01*
X106073581Y-110406538D01*
X106076590Y-110404645D01*
X106078321Y-110402648D01*
X106085990Y-110396355D01*
X106124084Y-110358259D01*
X106130376Y-110350591D01*
X106132372Y-110348861D01*
X106134264Y-110345854D01*
X106136521Y-110343105D01*
X106137532Y-110340662D01*
X106142815Y-110332271D01*
X106180911Y-110256082D01*
X106187918Y-110237773D01*
X106188172Y-110234187D01*
X106189548Y-110230868D01*
X106191469Y-110211359D01*
X106191469Y-109982787D01*
X106189548Y-109963278D01*
X106188172Y-109959958D01*
X106187918Y-109956373D01*
X106183448Y-109944692D01*
X106296230Y-109944692D01*
X106296230Y-110020883D01*
X106298151Y-110040392D01*
X106301900Y-110049444D01*
X106303802Y-110059055D01*
X106309293Y-110067292D01*
X106313083Y-110076440D01*
X106320011Y-110083368D01*
X106325446Y-110091520D01*
X106333671Y-110097028D01*
X106340673Y-110104030D01*
X106349724Y-110107779D01*
X106357865Y-110113231D01*
X106376619Y-110118941D01*
X106376718Y-110118960D01*
X106376721Y-110118962D01*
X106376724Y-110118962D01*
X106677183Y-110179053D01*
X106677183Y-110225846D01*
X106664551Y-110251109D01*
X106639290Y-110263740D01*
X106534123Y-110263740D01*
X106479046Y-110236202D01*
X106460737Y-110229196D01*
X106421817Y-110226430D01*
X106384801Y-110238769D01*
X106355325Y-110264334D01*
X106337876Y-110299233D01*
X106335110Y-110338153D01*
X106347449Y-110375169D01*
X106373014Y-110404645D01*
X106389604Y-110415088D01*
X106465795Y-110453183D01*
X106484104Y-110460189D01*
X106487686Y-110460443D01*
X106491007Y-110461819D01*
X106510516Y-110463740D01*
X106662897Y-110463740D01*
X106682406Y-110461819D01*
X106685726Y-110460443D01*
X106689310Y-110460189D01*
X106707618Y-110453183D01*
X106783808Y-110415088D01*
X106787071Y-110413033D01*
X106788610Y-110412521D01*
X106790525Y-110410859D01*
X106800399Y-110404645D01*
X106808614Y-110395172D01*
X106818087Y-110386957D01*
X106824300Y-110377084D01*
X106825963Y-110375168D01*
X106826476Y-110373628D01*
X106828529Y-110370367D01*
X106838096Y-110351233D01*
X106944635Y-110351233D01*
X106947401Y-110390153D01*
X106964850Y-110425052D01*
X106994327Y-110450616D01*
X107031343Y-110462955D01*
X107070263Y-110460189D01*
X107088571Y-110453183D01*
X107164761Y-110415088D01*
X107168023Y-110413034D01*
X107169564Y-110412521D01*
X107171481Y-110410857D01*
X107181352Y-110404645D01*
X107189568Y-110395170D01*
X107199040Y-110386956D01*
X107205253Y-110377084D01*
X107206916Y-110375168D01*
X107207429Y-110373629D01*
X107209483Y-110370366D01*
X107247578Y-110294175D01*
X107254584Y-110275866D01*
X107254838Y-110272283D01*
X107256214Y-110268963D01*
X107258135Y-110249454D01*
X107258135Y-109563740D01*
X107256214Y-109544231D01*
X107402914Y-109544231D01*
X107402914Y-109583249D01*
X107417846Y-109619297D01*
X107445436Y-109646887D01*
X107481484Y-109661819D01*
X107500993Y-109663740D01*
X107781945Y-109663740D01*
X107781945Y-109844692D01*
X107615279Y-109844692D01*
X107595770Y-109846613D01*
X107559722Y-109861545D01*
X107532132Y-109889135D01*
X107517200Y-109925183D01*
X107517200Y-109964201D01*
X107532132Y-110000249D01*
X107559722Y-110027839D01*
X107595770Y-110042771D01*
X107615279Y-110044692D01*
X107781945Y-110044692D01*
X107781945Y-110263740D01*
X107500993Y-110263740D01*
X107481484Y-110265661D01*
X107445436Y-110280593D01*
X107417846Y-110308183D01*
X107402914Y-110344231D01*
X107402914Y-110383249D01*
X107417846Y-110419297D01*
X107445436Y-110446887D01*
X107481484Y-110461819D01*
X107500993Y-110463740D01*
X107881945Y-110463740D01*
X107901454Y-110461819D01*
X107937502Y-110446887D01*
X107965092Y-110419297D01*
X107980024Y-110383249D01*
X107981945Y-110363740D01*
X107981945Y-109563740D01*
X107980024Y-109544231D01*
X107965092Y-109508183D01*
X107937502Y-109480593D01*
X107901454Y-109465661D01*
X107881945Y-109463740D01*
X107500993Y-109463740D01*
X107481484Y-109465661D01*
X107445436Y-109480593D01*
X107417846Y-109508183D01*
X107402914Y-109544231D01*
X107256214Y-109544231D01*
X107241282Y-109508183D01*
X107213692Y-109480593D01*
X107177644Y-109465661D01*
X107138626Y-109465661D01*
X107102578Y-109480593D01*
X107074988Y-109508183D01*
X107060056Y-109544231D01*
X107058135Y-109563740D01*
X107058135Y-110225847D01*
X107045504Y-110251109D01*
X106999129Y-110274297D01*
X106982538Y-110284740D01*
X106956974Y-110314217D01*
X106944635Y-110351233D01*
X106838096Y-110351233D01*
X106866625Y-110294176D01*
X106873632Y-110275868D01*
X106873886Y-110272282D01*
X106875262Y-110268963D01*
X106877183Y-110249454D01*
X106877183Y-109944692D01*
X106875262Y-109925183D01*
X106873886Y-109921863D01*
X106873632Y-109918278D01*
X106866625Y-109899969D01*
X106828529Y-109823780D01*
X106826475Y-109820518D01*
X106825963Y-109818980D01*
X106824301Y-109817064D01*
X106818086Y-109807190D01*
X106808612Y-109798973D01*
X106800399Y-109789503D01*
X106790528Y-109783289D01*
X106788609Y-109781625D01*
X106787067Y-109781111D01*
X106783809Y-109779060D01*
X106707619Y-109740964D01*
X106689311Y-109733957D01*
X106685725Y-109733702D01*
X106682406Y-109732327D01*
X106662897Y-109730406D01*
X106510516Y-109730406D01*
X106491007Y-109732327D01*
X106487687Y-109733702D01*
X106484102Y-109733957D01*
X106465794Y-109740964D01*
X106389603Y-109779060D01*
X106386341Y-109781112D01*
X106384802Y-109781626D01*
X106382885Y-109783288D01*
X106373013Y-109789502D01*
X106364797Y-109798974D01*
X106355325Y-109807190D01*
X106349110Y-109817063D01*
X106347449Y-109818979D01*
X106346936Y-109820517D01*
X106344882Y-109823781D01*
X106306787Y-109899971D01*
X106299781Y-109918279D01*
X106299526Y-109921862D01*
X106298151Y-109925183D01*
X106296230Y-109944692D01*
X106183448Y-109944692D01*
X106180911Y-109938064D01*
X106142815Y-109861875D01*
X106137531Y-109853482D01*
X106136520Y-109851039D01*
X106134263Y-109848289D01*
X106132372Y-109845285D01*
X106130377Y-109843555D01*
X106124083Y-109835886D01*
X106085989Y-109797791D01*
X106078319Y-109791496D01*
X106076590Y-109789503D01*
X106073583Y-109787610D01*
X106070835Y-109785355D01*
X106068394Y-109784343D01*
X106060000Y-109779060D01*
X105983810Y-109740964D01*
X105965502Y-109733957D01*
X105961916Y-109733702D01*
X105958597Y-109732327D01*
X105939088Y-109730406D01*
X105786707Y-109730406D01*
X105767198Y-109732327D01*
X105763878Y-109733702D01*
X105760293Y-109733957D01*
X105741985Y-109740964D01*
X105665794Y-109779060D01*
X105649204Y-109789502D01*
X105623640Y-109818979D01*
X105611301Y-109855995D01*
X105577506Y-109855995D01*
X105580024Y-109849915D01*
X105580024Y-109810897D01*
X105565092Y-109774849D01*
X105537502Y-109747259D01*
X105501454Y-109732327D01*
X105481945Y-109730406D01*
X105467659Y-109730406D01*
X105467659Y-109563740D01*
X105465738Y-109544231D01*
X105450806Y-109508183D01*
X105423216Y-109480593D01*
X105387168Y-109465661D01*
X105348150Y-109465661D01*
X105312102Y-109480593D01*
X105284512Y-109508183D01*
X105269580Y-109544231D01*
X105267659Y-109563740D01*
X105267659Y-109730406D01*
X105177183Y-109730406D01*
X105157674Y-109732327D01*
X105121626Y-109747259D01*
X105094036Y-109774849D01*
X105079104Y-109810897D01*
X105008595Y-109810897D01*
X104993663Y-109774849D01*
X104966073Y-109747259D01*
X104930025Y-109732327D01*
X104891007Y-109732327D01*
X104854959Y-109747259D01*
X104841788Y-109760429D01*
X104802857Y-109740964D01*
X104784548Y-109733957D01*
X104780964Y-109733702D01*
X104777644Y-109732327D01*
X104758135Y-109730406D01*
X104681945Y-109730406D01*
X104662436Y-109732327D01*
X104626388Y-109747259D01*
X104598798Y-109774849D01*
X104583866Y-109810897D01*
X104461000Y-109810897D01*
X104447894Y-109797791D01*
X104440224Y-109791496D01*
X104438495Y-109789503D01*
X104435488Y-109787610D01*
X104432740Y-109785355D01*
X104430299Y-109784343D01*
X104421905Y-109779060D01*
X104345715Y-109740964D01*
X104327407Y-109733957D01*
X104323821Y-109733702D01*
X104320502Y-109732327D01*
X104300993Y-109730406D01*
X104186707Y-109730406D01*
X104167198Y-109732327D01*
X104163878Y-109733702D01*
X104160293Y-109733957D01*
X104141985Y-109740964D01*
X104065794Y-109779060D01*
X104057398Y-109784344D01*
X104054958Y-109785355D01*
X104052212Y-109787608D01*
X104049204Y-109789502D01*
X104047471Y-109791499D01*
X104039805Y-109797792D01*
X104001710Y-109835886D01*
X103995418Y-109843552D01*
X103993421Y-109845285D01*
X103991525Y-109848296D01*
X103989274Y-109851040D01*
X103988264Y-109853477D01*
X103982978Y-109861876D01*
X103944883Y-109938066D01*
X103937877Y-109956374D01*
X103937622Y-109959957D01*
X103936247Y-109963278D01*
X103934326Y-109982787D01*
X103791468Y-109982787D01*
X103791468Y-109830406D01*
X103789547Y-109810897D01*
X103774615Y-109774849D01*
X103747025Y-109747259D01*
X103710977Y-109732327D01*
X103671959Y-109732327D01*
X103635911Y-109747259D01*
X103635438Y-109747731D01*
X103621905Y-109740964D01*
X103603597Y-109733957D01*
X103600011Y-109733702D01*
X103596692Y-109732327D01*
X103577183Y-109730406D01*
X103462897Y-109730406D01*
X103443388Y-109732327D01*
X103440068Y-109733702D01*
X103436483Y-109733957D01*
X103418175Y-109740964D01*
X103341984Y-109779060D01*
X103338722Y-109781112D01*
X103337183Y-109781626D01*
X103335266Y-109783288D01*
X103325394Y-109789502D01*
X103317178Y-109798974D01*
X103307706Y-109807190D01*
X103301491Y-109817063D01*
X103299830Y-109818979D01*
X103299317Y-109820517D01*
X103297263Y-109823781D01*
X103259168Y-109899971D01*
X103252162Y-109918279D01*
X103251907Y-109921862D01*
X103250532Y-109925183D01*
X103248611Y-109944692D01*
X103067658Y-109944692D01*
X103067658Y-109830406D01*
X103065737Y-109810897D01*
X103050805Y-109774849D01*
X103023215Y-109747259D01*
X102994025Y-109735168D01*
X103009817Y-109728627D01*
X103023214Y-109723078D01*
X103038368Y-109710642D01*
X103076464Y-109672547D01*
X103088900Y-109657394D01*
X103088900Y-109657392D01*
X103088902Y-109657391D01*
X103103833Y-109621343D01*
X103103832Y-109601835D01*
X103103833Y-109582327D01*
X103088902Y-109546279D01*
X103088900Y-109546277D01*
X103088900Y-109546276D01*
X103076464Y-109531123D01*
X103038368Y-109493028D01*
X103023214Y-109480592D01*
X103002098Y-109471845D01*
X102987167Y-109465661D01*
X102948149Y-109465661D01*
X102927300Y-109474297D01*
X102921103Y-109476864D01*
X102912100Y-109480593D01*
X102896947Y-109493030D01*
X102858852Y-109531124D01*
X102846418Y-109546276D01*
X102846416Y-109546278D01*
X102831484Y-109582326D01*
X101372936Y-109582326D01*
X101372361Y-109581626D01*
X101370468Y-109578618D01*
X101368470Y-109576885D01*
X101362178Y-109569219D01*
X101324084Y-109531124D01*
X101316417Y-109524832D01*
X101314685Y-109522835D01*
X101311673Y-109520939D01*
X101308930Y-109518688D01*
X101306492Y-109517678D01*
X101298094Y-109512392D01*
X101221904Y-109474297D01*
X101203596Y-109467291D01*
X101200012Y-109467036D01*
X101196692Y-109465661D01*
X101177183Y-109463740D01*
X100986706Y-109463740D01*
X100976832Y-109464712D01*
X100974199Y-109464525D01*
X100970735Y-109465312D01*
X100967197Y-109465661D01*
X100964754Y-109466672D01*
X100955083Y-109468872D01*
X100840798Y-109506967D01*
X100822898Y-109514958D01*
X100793422Y-109540523D01*
X100775972Y-109575422D01*
X100773206Y-109614342D01*
X100785544Y-109651358D01*
X100811109Y-109680834D01*
X100846008Y-109698284D01*
X100884928Y-109701050D01*
X100904044Y-109696703D01*
X101002933Y-109663740D01*
X101153576Y-109663740D01*
X101194136Y-109684020D01*
X101209283Y-109699166D01*
X101229564Y-109739728D01*
X101229564Y-109768703D01*
X101209283Y-109809265D01*
X101194136Y-109824411D01*
X101142278Y-109850340D01*
X101000549Y-109885773D01*
X100999111Y-109886286D01*
X100998388Y-109886338D01*
X100990267Y-109889446D01*
X100982088Y-109892368D01*
X100981506Y-109892799D01*
X100980080Y-109893345D01*
X100903889Y-109931441D01*
X100895493Y-109936725D01*
X100893053Y-109937736D01*
X100890307Y-109939989D01*
X100887299Y-109941883D01*
X100885566Y-109943880D01*
X100877900Y-109950173D01*
X100839805Y-109988267D01*
X100833513Y-109995933D01*
X100831516Y-109997666D01*
X100829620Y-110000677D01*
X100827369Y-110003421D01*
X100826359Y-110005858D01*
X100821073Y-110014257D01*
X100782978Y-110090447D01*
X100775972Y-110108755D01*
X100775717Y-110112338D01*
X100774342Y-110115659D01*
X100772421Y-110135168D01*
X100629563Y-110135168D01*
X100629563Y-109563740D01*
X100627642Y-109544231D01*
X100612710Y-109508183D01*
X100585120Y-109480593D01*
X100549072Y-109465661D01*
X100510054Y-109465661D01*
X100474006Y-109480593D01*
X100446416Y-109508183D01*
X100431484Y-109544231D01*
X100429563Y-109563740D01*
X100429563Y-109893746D01*
X100295512Y-109759695D01*
X100280358Y-109747259D01*
X100244310Y-109732327D01*
X100205292Y-109732327D01*
X100169244Y-109747259D01*
X100141654Y-109774849D01*
X100126722Y-109810897D01*
X100126722Y-109849915D01*
X100141654Y-109885963D01*
X100154090Y-109901117D01*
X100321335Y-110068361D01*
X100144801Y-110303740D01*
X100134632Y-110320500D01*
X100124949Y-110358297D01*
X99977421Y-110358297D01*
X100009482Y-110294176D01*
X100016489Y-110275868D01*
X100016743Y-110272282D01*
X100018119Y-110268963D01*
X100020040Y-110249454D01*
X100020040Y-109944692D01*
X100018119Y-109925183D01*
X100016743Y-109921863D01*
X100016489Y-109918278D01*
X100009482Y-109899969D01*
X99971386Y-109823780D01*
X99969332Y-109820518D01*
X99968820Y-109818980D01*
X99967158Y-109817064D01*
X99960943Y-109807190D01*
X99951469Y-109798973D01*
X99943256Y-109789503D01*
X99933385Y-109783289D01*
X99931466Y-109781625D01*
X99929924Y-109781111D01*
X99926666Y-109779060D01*
X99850476Y-109740964D01*
X99832168Y-109733957D01*
X99828582Y-109733702D01*
X99825263Y-109732327D01*
X99805754Y-109730406D01*
X99653373Y-109730406D01*
X99633864Y-109732327D01*
X99630544Y-109733702D01*
X99626959Y-109733957D01*
X99608651Y-109740964D01*
X99532460Y-109779060D01*
X99529198Y-109781112D01*
X99527659Y-109781626D01*
X99525742Y-109783288D01*
X99515870Y-109789502D01*
X99507654Y-109798974D01*
X99498182Y-109807190D01*
X99491967Y-109817063D01*
X99490306Y-109818979D01*
X99489793Y-109820517D01*
X99487739Y-109823781D01*
X99449644Y-109899971D01*
X99442638Y-109918279D01*
X99442383Y-109921862D01*
X99441008Y-109925183D01*
X99439087Y-109944692D01*
X99334326Y-109944692D01*
X99332405Y-109925183D01*
X99331029Y-109921863D01*
X99330775Y-109918278D01*
X99323768Y-109899969D01*
X99285672Y-109823780D01*
X99283618Y-109820518D01*
X99283106Y-109818980D01*
X99281444Y-109817064D01*
X99275229Y-109807190D01*
X99265755Y-109798973D01*
X99257542Y-109789503D01*
X99247671Y-109783289D01*
X99245752Y-109781625D01*
X99244210Y-109781111D01*
X99240952Y-109779060D01*
X99164762Y-109740964D01*
X99146454Y-109733957D01*
X99142868Y-109733702D01*
X99139549Y-109732327D01*
X99120040Y-109730406D01*
X98967659Y-109730406D01*
X98948150Y-109732327D01*
X98944830Y-109733702D01*
X98941245Y-109733957D01*
X98922937Y-109740964D01*
X98846746Y-109779060D01*
X98843484Y-109781112D01*
X98841945Y-109781626D01*
X98840028Y-109783288D01*
X98830156Y-109789502D01*
X98821940Y-109798974D01*
X98812468Y-109807190D01*
X98806253Y-109817063D01*
X98804592Y-109818979D01*
X98804079Y-109820517D01*
X98802025Y-109823781D01*
X98763930Y-109899971D01*
X98756924Y-109918279D01*
X98756669Y-109921862D01*
X98755294Y-109925183D01*
X98753373Y-109944692D01*
X98000992Y-109944692D01*
X98000992Y-109563740D01*
X97999071Y-109544231D01*
X97984139Y-109508183D01*
X97956549Y-109480593D01*
X97920501Y-109465661D01*
X97900992Y-109463740D01*
X97634326Y-109463740D01*
X97614817Y-109465661D01*
X97611496Y-109467036D01*
X97607914Y-109467291D01*
X97589605Y-109474297D01*
X97513414Y-109512392D01*
X97505018Y-109517676D01*
X97502577Y-109518688D01*
X97499829Y-109520943D01*
X97496824Y-109522835D01*
X97495093Y-109524830D01*
X97487424Y-109531125D01*
X97449329Y-109569219D01*
X97443034Y-109576888D01*
X97441040Y-109578619D01*
X97439146Y-109581626D01*
X97436893Y-109584373D01*
X97435882Y-109586812D01*
X97430597Y-109595209D01*
X97392502Y-109671400D01*
X97385496Y-109689709D01*
X97385241Y-109693291D01*
X97383866Y-109696612D01*
X97381945Y-109716121D01*
X97381945Y-109792311D01*
X97383866Y-109811820D01*
X97385241Y-109815140D01*
X97385496Y-109818723D01*
X97392502Y-109837032D01*
X97430597Y-109913223D01*
X97435882Y-109921619D01*
X97436893Y-109924059D01*
X97437097Y-109924307D01*
X97411233Y-109950173D01*
X97404939Y-109957842D01*
X97402946Y-109959571D01*
X97401053Y-109962576D01*
X97398797Y-109965327D01*
X97397785Y-109967769D01*
X97392503Y-109976161D01*
X97354407Y-110052351D01*
X97347400Y-110070659D01*
X97347145Y-110074244D01*
X97345770Y-110077564D01*
X97343849Y-110097073D01*
X97212795Y-110097073D01*
X97190434Y-110052351D01*
X97188381Y-110049089D01*
X97187868Y-110047550D01*
X97186205Y-110045633D01*
X97179992Y-110035761D01*
X97170519Y-110027545D01*
X97162304Y-110018073D01*
X97152430Y-110011858D01*
X97150515Y-110010197D01*
X97148976Y-110009684D01*
X97145713Y-110007630D01*
X97069523Y-109969535D01*
X97051215Y-109962529D01*
X97047631Y-109962274D01*
X97044311Y-109960899D01*
X97024802Y-109958978D01*
X96862796Y-109958978D01*
X96870765Y-109943037D01*
X96896029Y-109930406D01*
X97001195Y-109930406D01*
X97056269Y-109957944D01*
X97074578Y-109964951D01*
X97113498Y-109967717D01*
X97150514Y-109955378D01*
X97179991Y-109929814D01*
X97197441Y-109894916D01*
X97200207Y-109855996D01*
X97187868Y-109818980D01*
X97162304Y-109789503D01*
X97145714Y-109779060D01*
X97069524Y-109740964D01*
X97051216Y-109733957D01*
X97047630Y-109733702D01*
X97044311Y-109732327D01*
X97024802Y-109730406D01*
X96872421Y-109730406D01*
X96852912Y-109732327D01*
X96849592Y-109733702D01*
X96846007Y-109733957D01*
X96827699Y-109740964D01*
X96751508Y-109779060D01*
X96748246Y-109781112D01*
X96746707Y-109781626D01*
X96744790Y-109783288D01*
X96734918Y-109789502D01*
X96726702Y-109798974D01*
X96717230Y-109807190D01*
X96711015Y-109817063D01*
X96709354Y-109818979D01*
X96708841Y-109820517D01*
X96706787Y-109823781D01*
X96668692Y-109899971D01*
X96661686Y-109918279D01*
X96661431Y-109921862D01*
X96660056Y-109925183D01*
X96658135Y-109944692D01*
X96477182Y-109944692D01*
X96477182Y-109563740D01*
X96475261Y-109544231D01*
X96460329Y-109508183D01*
X96432739Y-109480593D01*
X96396691Y-109465661D01*
X96357673Y-109465661D01*
X96321625Y-109480593D01*
X96294035Y-109508183D01*
X96279103Y-109544231D01*
X96277182Y-109563740D01*
X96277182Y-110225847D01*
X96264551Y-110251109D01*
X96218176Y-110274297D01*
X96201585Y-110284740D01*
X96176021Y-110314217D01*
X96163682Y-110351233D01*
X96019048Y-110351233D01*
X96047577Y-110294175D01*
X96054583Y-110275866D01*
X96054837Y-110272283D01*
X96056213Y-110268963D01*
X96058134Y-110249454D01*
X96058134Y-109563740D01*
X96056213Y-109544231D01*
X96041281Y-109508183D01*
X96013691Y-109480593D01*
X95977643Y-109465661D01*
X95938625Y-109465661D01*
X95902577Y-109480593D01*
X95874987Y-109508183D01*
X95860055Y-109544231D01*
X95858134Y-109563740D01*
X95858134Y-110225847D01*
X95845503Y-110251109D01*
X95799128Y-110274297D01*
X95782537Y-110284740D01*
X95756973Y-110314217D01*
X95744634Y-110351233D01*
X95493387Y-110351233D01*
X95493387Y-109056276D01*
X95593387Y-109056276D01*
X95593387Y-109095294D01*
X95608319Y-109131342D01*
X95635909Y-109158932D01*
X95671957Y-109173864D01*
X95691466Y-109175785D01*
X96148609Y-109175785D01*
X96168118Y-109173864D01*
X96204166Y-109158932D01*
X96231756Y-109131342D01*
X96246688Y-109095294D01*
X96246688Y-109056276D01*
X96231756Y-109020228D01*
X96204166Y-108992638D01*
X96168118Y-108977706D01*
X96148609Y-108975785D01*
X96020037Y-108975785D01*
X96020037Y-108550882D01*
X96027697Y-108555704D01*
X96103888Y-108593799D01*
X96122197Y-108600805D01*
X96161117Y-108603571D01*
X96198133Y-108591232D01*
X96227609Y-108565667D01*
X96245058Y-108530768D01*
X96245614Y-108522942D01*
X96279101Y-108522942D01*
X96279101Y-108561960D01*
X96294033Y-108598008D01*
X96321623Y-108625598D01*
X96357671Y-108640530D01*
X96377180Y-108642451D01*
X96449343Y-108642451D01*
X96481089Y-108785309D01*
X96453370Y-108785309D01*
X96433861Y-108787230D01*
X96397813Y-108802162D01*
X96370223Y-108829752D01*
X96355291Y-108865800D01*
X96355291Y-108904818D01*
X96370223Y-108940866D01*
X96397813Y-108968456D01*
X96433861Y-108983388D01*
X96453370Y-108985309D01*
X96525534Y-108985309D01*
X96584323Y-109249859D01*
X96590431Y-109268487D01*
X96612827Y-109300437D01*
X96645745Y-109321385D01*
X96684174Y-109328142D01*
X96722263Y-109319677D01*
X96754213Y-109297281D01*
X96775161Y-109264363D01*
X96781918Y-109225934D01*
X96779561Y-109206473D01*
X96730413Y-108985309D01*
X96792201Y-108985309D01*
X96850990Y-109249859D01*
X96857098Y-109268487D01*
X96879494Y-109300437D01*
X96912412Y-109321385D01*
X96950841Y-109328142D01*
X96988930Y-109319677D01*
X97020880Y-109297281D01*
X97041828Y-109264363D01*
X97048585Y-109225934D01*
X97046228Y-109206473D01*
X96997080Y-108985309D01*
X97024799Y-108985309D01*
X97044308Y-108983388D01*
X97080356Y-108968456D01*
X97107946Y-108940866D01*
X97122878Y-108904818D01*
X97122878Y-108865800D01*
X97107946Y-108829752D01*
X97080356Y-108802162D01*
X97044308Y-108787230D01*
X97024799Y-108785309D01*
X96952636Y-108785309D01*
X96924065Y-108656737D01*
X97800990Y-108656737D01*
X97800990Y-109075785D01*
X97802911Y-109095294D01*
X97817843Y-109131342D01*
X97845433Y-109158932D01*
X97881481Y-109173864D01*
X97920499Y-109173864D01*
X97956547Y-109158932D01*
X97984137Y-109131342D01*
X97999069Y-109095294D01*
X98000990Y-109075785D01*
X98000990Y-108680344D01*
X98013620Y-108655082D01*
X98038884Y-108642451D01*
X98105955Y-108642451D01*
X98131215Y-108655081D01*
X98143847Y-108680344D01*
X98143847Y-109075785D01*
X98145768Y-109095294D01*
X98160700Y-109131342D01*
X98188290Y-109158932D01*
X98224338Y-109173864D01*
X98263356Y-109173864D01*
X98299404Y-109158932D01*
X98326994Y-109131342D01*
X98341926Y-109095294D01*
X98343847Y-109075785D01*
X98343847Y-108680344D01*
X98356477Y-108655082D01*
X98381741Y-108642451D01*
X98448812Y-108642451D01*
X98486704Y-108661397D01*
X98486704Y-109075785D01*
X98488625Y-109095294D01*
X98503557Y-109131342D01*
X98531147Y-109158932D01*
X98567195Y-109173864D01*
X98606213Y-109173864D01*
X98642261Y-109158932D01*
X98669851Y-109131342D01*
X98684783Y-109095294D01*
X98686704Y-109075785D01*
X98686704Y-108656737D01*
X98867657Y-108656737D01*
X98867657Y-109075785D01*
X98869578Y-109095294D01*
X98884510Y-109131342D01*
X98912100Y-109158932D01*
X98948148Y-109173864D01*
X98987166Y-109173864D01*
X99003746Y-109166995D01*
X99017436Y-109172234D01*
X99021018Y-109172488D01*
X99024339Y-109173864D01*
X99043848Y-109175785D01*
X99234324Y-109175785D01*
X99253833Y-109173864D01*
X99257153Y-109172488D01*
X99260737Y-109172234D01*
X99279045Y-109165228D01*
X99355235Y-109127133D01*
X99358498Y-109125078D01*
X99360037Y-109124566D01*
X99361952Y-109122904D01*
X99371826Y-109116690D01*
X99380041Y-109107217D01*
X99389514Y-109099002D01*
X99395727Y-109089129D01*
X99397390Y-109087213D01*
X99397903Y-109085673D01*
X99399956Y-109082412D01*
X99438052Y-109006221D01*
X99445059Y-108987913D01*
X99445313Y-108984327D01*
X99446689Y-108981008D01*
X99448610Y-108961499D01*
X99448610Y-108885309D01*
X99446689Y-108865800D01*
X99445313Y-108862480D01*
X99445059Y-108858895D01*
X99438052Y-108840587D01*
X99399956Y-108764396D01*
X99397903Y-108761134D01*
X99397390Y-108759595D01*
X99395727Y-108757678D01*
X99389514Y-108747806D01*
X99380041Y-108739590D01*
X99371826Y-108730118D01*
X99361952Y-108723903D01*
X99360037Y-108722242D01*
X99358498Y-108721729D01*
X99355235Y-108719675D01*
X99279045Y-108681580D01*
X99260737Y-108674574D01*
X99257153Y-108674319D01*
X99253833Y-108672944D01*
X99234324Y-108671023D01*
X99072318Y-108671023D01*
X99080287Y-108655082D01*
X99105551Y-108642451D01*
X99210717Y-108642451D01*
X99265791Y-108669989D01*
X99284100Y-108676996D01*
X99323020Y-108679762D01*
X99360036Y-108667423D01*
X99372358Y-108656737D01*
X99553371Y-108656737D01*
X99553371Y-108732928D01*
X99555292Y-108752437D01*
X99559041Y-108761489D01*
X99560943Y-108771100D01*
X99566434Y-108779337D01*
X99570224Y-108788485D01*
X99577152Y-108795413D01*
X99582587Y-108803565D01*
X99590812Y-108809073D01*
X99597814Y-108816075D01*
X99606865Y-108819824D01*
X99615006Y-108825276D01*
X99633760Y-108830986D01*
X99633859Y-108831005D01*
X99633862Y-108831007D01*
X99633865Y-108831007D01*
X99934324Y-108891098D01*
X99934324Y-108937891D01*
X99921692Y-108963154D01*
X99896431Y-108975785D01*
X99791264Y-108975785D01*
X99736187Y-108948247D01*
X99717878Y-108941241D01*
X99678958Y-108938475D01*
X99641942Y-108950814D01*
X99612466Y-108976379D01*
X99595017Y-109011278D01*
X99592251Y-109050198D01*
X99604590Y-109087214D01*
X99630155Y-109116690D01*
X99646745Y-109127133D01*
X99722936Y-109165228D01*
X99741245Y-109172234D01*
X99744827Y-109172488D01*
X99748148Y-109173864D01*
X99767657Y-109175785D01*
X99920038Y-109175785D01*
X99939547Y-109173864D01*
X99942867Y-109172488D01*
X99946451Y-109172234D01*
X99964759Y-109165228D01*
X100040949Y-109127133D01*
X100044212Y-109125078D01*
X100045751Y-109124566D01*
X100047666Y-109122904D01*
X100057540Y-109116690D01*
X100065755Y-109107217D01*
X100075228Y-109099002D01*
X100081441Y-109089129D01*
X100083104Y-109087213D01*
X100083617Y-109085673D01*
X100085670Y-109082412D01*
X100123766Y-109006221D01*
X100130773Y-108987913D01*
X100131027Y-108984327D01*
X100132403Y-108981008D01*
X100134324Y-108961499D01*
X100134324Y-108656737D01*
X100132403Y-108637228D01*
X100131027Y-108633908D01*
X100130773Y-108630323D01*
X100123766Y-108612014D01*
X100085670Y-108535825D01*
X100083616Y-108532563D01*
X100083104Y-108531025D01*
X100081442Y-108529109D01*
X100075227Y-108519235D01*
X100065753Y-108511018D01*
X100057540Y-108501548D01*
X100047669Y-108495334D01*
X100045750Y-108493670D01*
X100044208Y-108493156D01*
X100040950Y-108491105D01*
X99964760Y-108453009D01*
X99946452Y-108446002D01*
X99942866Y-108445747D01*
X99939547Y-108444372D01*
X99920038Y-108442451D01*
X99767657Y-108442451D01*
X99748148Y-108444372D01*
X99744828Y-108445747D01*
X99741243Y-108446002D01*
X99722935Y-108453009D01*
X99646744Y-108491105D01*
X99643482Y-108493157D01*
X99641943Y-108493671D01*
X99640026Y-108495333D01*
X99630154Y-108501547D01*
X99621938Y-108511019D01*
X99612466Y-108519235D01*
X99606251Y-108529108D01*
X99604590Y-108531024D01*
X99604077Y-108532562D01*
X99602023Y-108535826D01*
X99563928Y-108612016D01*
X99556922Y-108630324D01*
X99556667Y-108633907D01*
X99555292Y-108637228D01*
X99553371Y-108656737D01*
X99372358Y-108656737D01*
X99389513Y-108641859D01*
X99406963Y-108606961D01*
X99409729Y-108568041D01*
X99397390Y-108531025D01*
X99371826Y-108501548D01*
X99355236Y-108491105D01*
X99279046Y-108453009D01*
X99260738Y-108446002D01*
X99257152Y-108445747D01*
X99253833Y-108444372D01*
X99234324Y-108442451D01*
X99081943Y-108442451D01*
X99062434Y-108444372D01*
X99059114Y-108445747D01*
X99055529Y-108446002D01*
X99037221Y-108453009D01*
X98961030Y-108491105D01*
X98957768Y-108493157D01*
X98956229Y-108493671D01*
X98954312Y-108495333D01*
X98944440Y-108501547D01*
X98936224Y-108511019D01*
X98926752Y-108519235D01*
X98920537Y-108529108D01*
X98918876Y-108531024D01*
X98918363Y-108532562D01*
X98916309Y-108535826D01*
X98878214Y-108612016D01*
X98871208Y-108630324D01*
X98870953Y-108633907D01*
X98869578Y-108637228D01*
X98867657Y-108656737D01*
X98686704Y-108656737D01*
X98686704Y-108542451D01*
X98684783Y-108522942D01*
X98669851Y-108486894D01*
X98642261Y-108459304D01*
X98606213Y-108444372D01*
X98567195Y-108444372D01*
X98531147Y-108459304D01*
X98530674Y-108459776D01*
X98517141Y-108453009D01*
X98498833Y-108446002D01*
X98495247Y-108445747D01*
X98491928Y-108444372D01*
X98472419Y-108442451D01*
X98358133Y-108442451D01*
X98338624Y-108444372D01*
X98335304Y-108445747D01*
X98331719Y-108446002D01*
X98313411Y-108453009D01*
X98243847Y-108487790D01*
X98174283Y-108453009D01*
X98155974Y-108446002D01*
X98152390Y-108445747D01*
X98149070Y-108444372D01*
X98129561Y-108442451D01*
X98015276Y-108442451D01*
X97995767Y-108444372D01*
X97992447Y-108445747D01*
X97988862Y-108446002D01*
X97970554Y-108453009D01*
X97894363Y-108491105D01*
X97891101Y-108493157D01*
X97889562Y-108493671D01*
X97887645Y-108495333D01*
X97877773Y-108501547D01*
X97869557Y-108511019D01*
X97860085Y-108519235D01*
X97853870Y-108529108D01*
X97852209Y-108531024D01*
X97851696Y-108532562D01*
X97849642Y-108535826D01*
X97811547Y-108612016D01*
X97804541Y-108630324D01*
X97804286Y-108633907D01*
X97802911Y-108637228D01*
X97800990Y-108656737D01*
X96924065Y-108656737D01*
X96920890Y-108642451D01*
X96948609Y-108642451D01*
X96968118Y-108640530D01*
X97004166Y-108625598D01*
X97031756Y-108598008D01*
X97046688Y-108561960D01*
X97046688Y-108522942D01*
X97031756Y-108486894D01*
X97004166Y-108459304D01*
X96968118Y-108444372D01*
X96948609Y-108442451D01*
X96876445Y-108442451D01*
X96835073Y-108256276D01*
X100164816Y-108256276D01*
X100164816Y-108295294D01*
X100179748Y-108331342D01*
X100207338Y-108358932D01*
X100243386Y-108373864D01*
X100262895Y-108375785D01*
X100391467Y-108375785D01*
X100391467Y-109075785D01*
X100393388Y-109095294D01*
X100408320Y-109131342D01*
X100435910Y-109158932D01*
X100471958Y-109173864D01*
X100510976Y-109173864D01*
X100547024Y-109158932D01*
X100574614Y-109131342D01*
X100589546Y-109095294D01*
X100591467Y-109075785D01*
X100591467Y-108580547D01*
X101458134Y-108580547D01*
X101458134Y-108771023D01*
X101458469Y-108774425D01*
X101458252Y-108775884D01*
X101459331Y-108783180D01*
X101460055Y-108790532D01*
X101460620Y-108791896D01*
X101461120Y-108795276D01*
X101499215Y-108947658D01*
X101499728Y-108949096D01*
X101499780Y-108949817D01*
X101502886Y-108957935D01*
X101505810Y-108966118D01*
X101506240Y-108966698D01*
X101506786Y-108968125D01*
X101544881Y-109044315D01*
X101550165Y-109052711D01*
X101551176Y-109055150D01*
X101553429Y-109057895D01*
X101555324Y-109060906D01*
X101557320Y-109062637D01*
X101563612Y-109070304D01*
X101601707Y-109108400D01*
X101609378Y-109114696D01*
X101611108Y-109116690D01*
X101614113Y-109118581D01*
X101616860Y-109120836D01*
X101619300Y-109121846D01*
X101627698Y-109127133D01*
X101703889Y-109165228D01*
X101722198Y-109172234D01*
X101725780Y-109172488D01*
X101729101Y-109173864D01*
X101748610Y-109175785D01*
X101824800Y-109175785D01*
X101844309Y-109173864D01*
X101847629Y-109172488D01*
X101851212Y-109172234D01*
X101869521Y-109165228D01*
X101945712Y-109127133D01*
X101954107Y-109121848D01*
X101956549Y-109120837D01*
X101959297Y-109118581D01*
X101962302Y-109116690D01*
X101964031Y-109114696D01*
X101971703Y-109108400D01*
X102009797Y-109070304D01*
X102016087Y-109062639D01*
X102018086Y-109060906D01*
X102019981Y-109057894D01*
X102022234Y-109055150D01*
X102023244Y-109052711D01*
X102028529Y-109044315D01*
X102066624Y-108968125D01*
X102067169Y-108966700D01*
X102067600Y-108966119D01*
X102070526Y-108957927D01*
X102073630Y-108949817D01*
X102073681Y-108949096D01*
X102074195Y-108947658D01*
X102112291Y-108795277D01*
X102112791Y-108791895D01*
X102113356Y-108790532D01*
X102114079Y-108783183D01*
X102115159Y-108775885D01*
X102114941Y-108774426D01*
X102115277Y-108771023D01*
X102115277Y-108580547D01*
X102220039Y-108580547D01*
X102220039Y-108771023D01*
X102220374Y-108774425D01*
X102220157Y-108775884D01*
X102221236Y-108783180D01*
X102221960Y-108790532D01*
X102222525Y-108791896D01*
X102223025Y-108795276D01*
X102261120Y-108947658D01*
X102261633Y-108949096D01*
X102261685Y-108949817D01*
X102264791Y-108957935D01*
X102267715Y-108966118D01*
X102268145Y-108966698D01*
X102268691Y-108968125D01*
X102306786Y-109044315D01*
X102312070Y-109052711D01*
X102313081Y-109055150D01*
X102315334Y-109057895D01*
X102317229Y-109060906D01*
X102319225Y-109062637D01*
X102325517Y-109070304D01*
X102363612Y-109108400D01*
X102371283Y-109114696D01*
X102373013Y-109116690D01*
X102376018Y-109118581D01*
X102378765Y-109120836D01*
X102381205Y-109121846D01*
X102389603Y-109127133D01*
X102465794Y-109165228D01*
X102484103Y-109172234D01*
X102487685Y-109172488D01*
X102491006Y-109173864D01*
X102510515Y-109175785D01*
X102586705Y-109175785D01*
X102606214Y-109173864D01*
X102609534Y-109172488D01*
X102613117Y-109172234D01*
X102631426Y-109165228D01*
X102707617Y-109127133D01*
X102716012Y-109121848D01*
X102718454Y-109120837D01*
X102721202Y-109118581D01*
X102724207Y-109116690D01*
X102725936Y-109114696D01*
X102733608Y-109108400D01*
X102771702Y-109070304D01*
X102777992Y-109062639D01*
X102779991Y-109060906D01*
X102781886Y-109057894D01*
X102784139Y-109055150D01*
X102785149Y-109052711D01*
X102790434Y-109044315D01*
X102828529Y-108968125D01*
X102829074Y-108966700D01*
X102829505Y-108966119D01*
X102832431Y-108957927D01*
X102835535Y-108949817D01*
X102835586Y-108949096D01*
X102836100Y-108947658D01*
X102874196Y-108795277D01*
X102874696Y-108791895D01*
X102875261Y-108790532D01*
X102875984Y-108783183D01*
X102877064Y-108775885D01*
X102876846Y-108774426D01*
X102877182Y-108771023D01*
X102877182Y-108580547D01*
X102876846Y-108577143D01*
X102877064Y-108575685D01*
X102875984Y-108568386D01*
X102875261Y-108561038D01*
X102874696Y-108559674D01*
X102874196Y-108556293D01*
X102836100Y-108403912D01*
X102835586Y-108402473D01*
X102835535Y-108401754D01*
X102832434Y-108393651D01*
X102829505Y-108385451D01*
X102829074Y-108384869D01*
X102828529Y-108383445D01*
X102790434Y-108307254D01*
X102785149Y-108298858D01*
X102784138Y-108296417D01*
X102781882Y-108293669D01*
X102779991Y-108290664D01*
X102777995Y-108288933D01*
X102771701Y-108281264D01*
X102747911Y-108257473D01*
X102945539Y-108257473D01*
X102945769Y-108276364D01*
X102945769Y-108295294D01*
X102946006Y-108295867D01*
X102946014Y-108296489D01*
X102951934Y-108315177D01*
X103294791Y-109115177D01*
X103304242Y-109132352D01*
X103332167Y-109159603D01*
X103368394Y-109174094D01*
X103407410Y-109173618D01*
X103443273Y-109158248D01*
X103470524Y-109130324D01*
X103485015Y-109094096D01*
X103484540Y-109055081D01*
X103478620Y-109036393D01*
X103195502Y-108375785D01*
X103577182Y-108375785D01*
X103596691Y-108373864D01*
X103632739Y-108358932D01*
X103660329Y-108331342D01*
X103675261Y-108295294D01*
X103675261Y-108257473D01*
X103707444Y-108257473D01*
X103707674Y-108276364D01*
X103707674Y-108295294D01*
X103707911Y-108295867D01*
X103707919Y-108296489D01*
X103713839Y-108315177D01*
X104056696Y-109115177D01*
X104066147Y-109132352D01*
X104094072Y-109159603D01*
X104130299Y-109174094D01*
X104169315Y-109173618D01*
X104205178Y-109158248D01*
X104232429Y-109130324D01*
X104246920Y-109094096D01*
X104246445Y-109055081D01*
X104240525Y-109036393D01*
X104134760Y-108789609D01*
X104469579Y-108789609D01*
X104469579Y-108828627D01*
X104484511Y-108864675D01*
X104512101Y-108892265D01*
X104548149Y-108907197D01*
X104567658Y-108909118D01*
X104581944Y-108909118D01*
X104581944Y-109075785D01*
X104583865Y-109095294D01*
X104598797Y-109131342D01*
X104626387Y-109158932D01*
X104662435Y-109173864D01*
X104701453Y-109173864D01*
X104737501Y-109158932D01*
X104765091Y-109131342D01*
X104780023Y-109095294D01*
X104781944Y-109075785D01*
X104781944Y-108909118D01*
X105062897Y-108909118D01*
X105072770Y-108908145D01*
X105075404Y-108908333D01*
X105077305Y-108907699D01*
X105082406Y-108907197D01*
X105097218Y-108901061D01*
X105112420Y-108895994D01*
X105115133Y-108893640D01*
X105118454Y-108892265D01*
X105129792Y-108880926D01*
X105141896Y-108870429D01*
X105143502Y-108867216D01*
X105146044Y-108864675D01*
X105152180Y-108849860D01*
X105159346Y-108835530D01*
X105159600Y-108831947D01*
X105160976Y-108828627D01*
X105160976Y-108812594D01*
X105162112Y-108796610D01*
X105160976Y-108791614D01*
X105160976Y-108789609D01*
X105159964Y-108787167D01*
X105157765Y-108777495D01*
X104984024Y-108256276D01*
X105879104Y-108256276D01*
X105879104Y-108295294D01*
X105894036Y-108331342D01*
X105921626Y-108358932D01*
X105957674Y-108373864D01*
X105977183Y-108375785D01*
X106258135Y-108375785D01*
X106258135Y-108556737D01*
X106091469Y-108556737D01*
X106071960Y-108558658D01*
X106035912Y-108573590D01*
X106008322Y-108601180D01*
X105993390Y-108637228D01*
X105993390Y-108676246D01*
X106008322Y-108712294D01*
X106035912Y-108739884D01*
X106071960Y-108754816D01*
X106091469Y-108756737D01*
X106258135Y-108756737D01*
X106258135Y-108975785D01*
X105977183Y-108975785D01*
X105957674Y-108977706D01*
X105921626Y-108992638D01*
X105894036Y-109020228D01*
X105879104Y-109056276D01*
X105879104Y-109095294D01*
X105894036Y-109131342D01*
X105921626Y-109158932D01*
X105957674Y-109173864D01*
X105977183Y-109175785D01*
X106358135Y-109175785D01*
X106377644Y-109173864D01*
X106413692Y-109158932D01*
X106441282Y-109131342D01*
X106456214Y-109095294D01*
X106458135Y-109075785D01*
X106458135Y-108371483D01*
X106602913Y-108371483D01*
X106617844Y-108407531D01*
X106645434Y-108435122D01*
X106681482Y-108450053D01*
X106720500Y-108450054D01*
X106756548Y-108435123D01*
X106771702Y-108422687D01*
X106793106Y-108401282D01*
X106869600Y-108375785D01*
X106913337Y-108375785D01*
X106989830Y-108401282D01*
X107037854Y-108449306D01*
X107063783Y-108501164D01*
X107096231Y-108630952D01*
X107096231Y-108720617D01*
X107063783Y-108850404D01*
X107037853Y-108902264D01*
X106989831Y-108950287D01*
X106913337Y-108975785D01*
X106869600Y-108975785D01*
X106793107Y-108950287D01*
X106771703Y-108928883D01*
X106756549Y-108916447D01*
X106720501Y-108901515D01*
X106681483Y-108901515D01*
X106645435Y-108916447D01*
X106617845Y-108944037D01*
X106602913Y-108980085D01*
X106602913Y-109019103D01*
X106617845Y-109055151D01*
X106630281Y-109070305D01*
X106668377Y-109108401D01*
X106683531Y-109120837D01*
X106686849Y-109122211D01*
X106689565Y-109124567D01*
X106707465Y-109132558D01*
X106821750Y-109170653D01*
X106831421Y-109172852D01*
X106833864Y-109173864D01*
X106837402Y-109174212D01*
X106840866Y-109175000D01*
X106843499Y-109174812D01*
X106853373Y-109175785D01*
X106929564Y-109175785D01*
X106939437Y-109174812D01*
X106942071Y-109175000D01*
X106945534Y-109174212D01*
X106949073Y-109173864D01*
X106951515Y-109172852D01*
X106961187Y-109170653D01*
X107075473Y-109132558D01*
X107093373Y-109124567D01*
X107096088Y-109122212D01*
X107099408Y-109120837D01*
X107114561Y-109108400D01*
X107190751Y-109032209D01*
X107197043Y-109024542D01*
X107199040Y-109022811D01*
X107200933Y-109019803D01*
X107203188Y-109017056D01*
X107204199Y-109014614D01*
X107209483Y-109006220D01*
X107247578Y-108930030D01*
X107248123Y-108928605D01*
X107248554Y-108928024D01*
X107251480Y-108919832D01*
X107254584Y-108911722D01*
X107254635Y-108911001D01*
X107255149Y-108909563D01*
X107293245Y-108757182D01*
X107293745Y-108753800D01*
X107294310Y-108752437D01*
X107295033Y-108745088D01*
X107296113Y-108737790D01*
X107295895Y-108736331D01*
X107296231Y-108732928D01*
X107296231Y-108618642D01*
X107295895Y-108615238D01*
X107296113Y-108613780D01*
X107295033Y-108606481D01*
X107294310Y-108599133D01*
X107293745Y-108597769D01*
X107293245Y-108594388D01*
X107255149Y-108442007D01*
X107254635Y-108440568D01*
X107254584Y-108439849D01*
X107251483Y-108431746D01*
X107248554Y-108423546D01*
X107248123Y-108422964D01*
X107247578Y-108421540D01*
X107209483Y-108345349D01*
X107204197Y-108336952D01*
X107203187Y-108334513D01*
X107200933Y-108331766D01*
X107199040Y-108328759D01*
X107197045Y-108327028D01*
X107190751Y-108319359D01*
X107127668Y-108256276D01*
X107402914Y-108256276D01*
X107402914Y-108295294D01*
X107417846Y-108331342D01*
X107445436Y-108358932D01*
X107481484Y-108373864D01*
X107500993Y-108375785D01*
X107781945Y-108375785D01*
X107781945Y-108556737D01*
X107615279Y-108556737D01*
X107595770Y-108558658D01*
X107559722Y-108573590D01*
X107532132Y-108601180D01*
X107517200Y-108637228D01*
X107517200Y-108676246D01*
X107532132Y-108712294D01*
X107559722Y-108739884D01*
X107595770Y-108754816D01*
X107615279Y-108756737D01*
X107781945Y-108756737D01*
X107781945Y-108975785D01*
X107500993Y-108975785D01*
X107481484Y-108977706D01*
X107445436Y-108992638D01*
X107417846Y-109020228D01*
X107402914Y-109056276D01*
X107402914Y-109095294D01*
X107417846Y-109131342D01*
X107445436Y-109158932D01*
X107481484Y-109173864D01*
X107500993Y-109175785D01*
X107881945Y-109175785D01*
X107901454Y-109173864D01*
X107937502Y-109158932D01*
X107965092Y-109131342D01*
X107980024Y-109095294D01*
X107981945Y-109075785D01*
X107981945Y-108275785D01*
X107980024Y-108256276D01*
X107965092Y-108220228D01*
X107937502Y-108192638D01*
X107901454Y-108177706D01*
X107881945Y-108175785D01*
X107500993Y-108175785D01*
X107481484Y-108177706D01*
X107445436Y-108192638D01*
X107417846Y-108220228D01*
X107402914Y-108256276D01*
X107127668Y-108256276D01*
X107114561Y-108243169D01*
X107099407Y-108230733D01*
X107096088Y-108229358D01*
X107093373Y-108227003D01*
X107075473Y-108219012D01*
X106961187Y-108180917D01*
X106951515Y-108178717D01*
X106949073Y-108177706D01*
X106945534Y-108177357D01*
X106942071Y-108176570D01*
X106939437Y-108176757D01*
X106929564Y-108175785D01*
X106853373Y-108175785D01*
X106843499Y-108176757D01*
X106840866Y-108176570D01*
X106837402Y-108177357D01*
X106833864Y-108177706D01*
X106831421Y-108178717D01*
X106821750Y-108180917D01*
X106707465Y-108219012D01*
X106689565Y-108227003D01*
X106686850Y-108229357D01*
X106683532Y-108230732D01*
X106668378Y-108243169D01*
X106630282Y-108281263D01*
X106617845Y-108296417D01*
X106602914Y-108332465D01*
X106602913Y-108371483D01*
X106458135Y-108371483D01*
X106458135Y-108275785D01*
X106456214Y-108256276D01*
X106441282Y-108220228D01*
X106413692Y-108192638D01*
X106377644Y-108177706D01*
X106358135Y-108175785D01*
X105977183Y-108175785D01*
X105957674Y-108177706D01*
X105921626Y-108192638D01*
X105894036Y-108220228D01*
X105879104Y-108256276D01*
X104984024Y-108256276D01*
X104967288Y-108206067D01*
X104959297Y-108188167D01*
X104933731Y-108158691D01*
X104898832Y-108141241D01*
X104859912Y-108138475D01*
X104822897Y-108150813D01*
X104793421Y-108176379D01*
X104775971Y-108211278D01*
X104773205Y-108250198D01*
X104777552Y-108269313D01*
X104924154Y-108709118D01*
X104781944Y-108709118D01*
X104781944Y-108542451D01*
X104780023Y-108522942D01*
X104765091Y-108486894D01*
X104737501Y-108459304D01*
X104701453Y-108444372D01*
X104662435Y-108444372D01*
X104626387Y-108459304D01*
X104598797Y-108486894D01*
X104583865Y-108522942D01*
X104581944Y-108542451D01*
X104581944Y-108709118D01*
X104567658Y-108709118D01*
X104548149Y-108711039D01*
X104512101Y-108725971D01*
X104484511Y-108753561D01*
X104469579Y-108789609D01*
X104134760Y-108789609D01*
X103957407Y-108375785D01*
X104339087Y-108375785D01*
X104358596Y-108373864D01*
X104394644Y-108358932D01*
X104422234Y-108331342D01*
X104437166Y-108295294D01*
X104437166Y-108256276D01*
X104422234Y-108220228D01*
X104394644Y-108192638D01*
X104358596Y-108177706D01*
X104339087Y-108175785D01*
X103805753Y-108175785D01*
X103786244Y-108177706D01*
X103785670Y-108177943D01*
X103785049Y-108177951D01*
X103767627Y-108185417D01*
X103750196Y-108192638D01*
X103749758Y-108193075D01*
X103749186Y-108193321D01*
X103735964Y-108206869D01*
X103722606Y-108220228D01*
X103722368Y-108220802D01*
X103721935Y-108221246D01*
X103714921Y-108238778D01*
X103707674Y-108256276D01*
X103707674Y-108256898D01*
X103707444Y-108257473D01*
X103675261Y-108257473D01*
X103675261Y-108256276D01*
X103660329Y-108220228D01*
X103632739Y-108192638D01*
X103596691Y-108177706D01*
X103577182Y-108175785D01*
X103043848Y-108175785D01*
X103024339Y-108177706D01*
X103023765Y-108177943D01*
X103023144Y-108177951D01*
X103005722Y-108185417D01*
X102988291Y-108192638D01*
X102987853Y-108193075D01*
X102987281Y-108193321D01*
X102974059Y-108206869D01*
X102960701Y-108220228D01*
X102960463Y-108220802D01*
X102960030Y-108221246D01*
X102953016Y-108238778D01*
X102945769Y-108256276D01*
X102945769Y-108256898D01*
X102945539Y-108257473D01*
X102747911Y-108257473D01*
X102733607Y-108243169D01*
X102725937Y-108236874D01*
X102724207Y-108234880D01*
X102721199Y-108232986D01*
X102718453Y-108230733D01*
X102716013Y-108229722D01*
X102707617Y-108224437D01*
X102631426Y-108186342D01*
X102613117Y-108179336D01*
X102609534Y-108179081D01*
X102606214Y-108177706D01*
X102586705Y-108175785D01*
X102510515Y-108175785D01*
X102491006Y-108177706D01*
X102487685Y-108179081D01*
X102484103Y-108179336D01*
X102465794Y-108186342D01*
X102389603Y-108224437D01*
X102381207Y-108229721D01*
X102378766Y-108230733D01*
X102376018Y-108232988D01*
X102373013Y-108234880D01*
X102371282Y-108236875D01*
X102363613Y-108243170D01*
X102325518Y-108281264D01*
X102319223Y-108288933D01*
X102317229Y-108290664D01*
X102315335Y-108293671D01*
X102313082Y-108296418D01*
X102312071Y-108298857D01*
X102306786Y-108307254D01*
X102268691Y-108383445D01*
X102268145Y-108384871D01*
X102267715Y-108385452D01*
X102264788Y-108393643D01*
X102261685Y-108401754D01*
X102261633Y-108402473D01*
X102261120Y-108403912D01*
X102223025Y-108556294D01*
X102222525Y-108559673D01*
X102221960Y-108561038D01*
X102221236Y-108568389D01*
X102220157Y-108575686D01*
X102220374Y-108577144D01*
X102220039Y-108580547D01*
X102115277Y-108580547D01*
X102114941Y-108577143D01*
X102115159Y-108575685D01*
X102114079Y-108568386D01*
X102113356Y-108561038D01*
X102112791Y-108559674D01*
X102112291Y-108556293D01*
X102074195Y-108403912D01*
X102073681Y-108402473D01*
X102073630Y-108401754D01*
X102070529Y-108393651D01*
X102067600Y-108385451D01*
X102067169Y-108384869D01*
X102066624Y-108383445D01*
X102028529Y-108307254D01*
X102023244Y-108298858D01*
X102022233Y-108296417D01*
X102019977Y-108293669D01*
X102018086Y-108290664D01*
X102016090Y-108288933D01*
X102009796Y-108281264D01*
X101971702Y-108243169D01*
X101964032Y-108236874D01*
X101962302Y-108234880D01*
X101959294Y-108232986D01*
X101956548Y-108230733D01*
X101954108Y-108229722D01*
X101945712Y-108224437D01*
X101869521Y-108186342D01*
X101851212Y-108179336D01*
X101847629Y-108179081D01*
X101844309Y-108177706D01*
X101824800Y-108175785D01*
X101748610Y-108175785D01*
X101729101Y-108177706D01*
X101725780Y-108179081D01*
X101722198Y-108179336D01*
X101703889Y-108186342D01*
X101627698Y-108224437D01*
X101619302Y-108229721D01*
X101616861Y-108230733D01*
X101614113Y-108232988D01*
X101611108Y-108234880D01*
X101609377Y-108236875D01*
X101601708Y-108243170D01*
X101563613Y-108281264D01*
X101557318Y-108288933D01*
X101555324Y-108290664D01*
X101553430Y-108293671D01*
X101551177Y-108296418D01*
X101550166Y-108298857D01*
X101544881Y-108307254D01*
X101506786Y-108383445D01*
X101506240Y-108384871D01*
X101505810Y-108385452D01*
X101502883Y-108393643D01*
X101499780Y-108401754D01*
X101499728Y-108402473D01*
X101499215Y-108403912D01*
X101461120Y-108556294D01*
X101460620Y-108559673D01*
X101460055Y-108561038D01*
X101459331Y-108568389D01*
X101458252Y-108575686D01*
X101458469Y-108577144D01*
X101458134Y-108580547D01*
X100591467Y-108580547D01*
X100591467Y-108375785D01*
X100720038Y-108375785D01*
X100739547Y-108373864D01*
X100775595Y-108358932D01*
X100803185Y-108331342D01*
X100818117Y-108295294D01*
X100818117Y-108256276D01*
X100803185Y-108220228D01*
X100775595Y-108192638D01*
X100739547Y-108177706D01*
X100720038Y-108175785D01*
X100262895Y-108175785D01*
X100243386Y-108177706D01*
X100207338Y-108192638D01*
X100179748Y-108220228D01*
X100164816Y-108256276D01*
X96835073Y-108256276D01*
X96817656Y-108177901D01*
X96811548Y-108159273D01*
X96789152Y-108127323D01*
X96756234Y-108106375D01*
X96717805Y-108099618D01*
X96679716Y-108108083D01*
X96647766Y-108130479D01*
X96626818Y-108163397D01*
X96620061Y-108201826D01*
X96622418Y-108221287D01*
X96671566Y-108442451D01*
X96609778Y-108442451D01*
X96550989Y-108177901D01*
X96544881Y-108159273D01*
X96522485Y-108127323D01*
X96489567Y-108106375D01*
X96451138Y-108099618D01*
X96413049Y-108108083D01*
X96381099Y-108130479D01*
X96360151Y-108163397D01*
X96353394Y-108201826D01*
X96355751Y-108221287D01*
X96404899Y-108442451D01*
X96377180Y-108442451D01*
X96357671Y-108444372D01*
X96321623Y-108459304D01*
X96294033Y-108486894D01*
X96279101Y-108522942D01*
X96245614Y-108522942D01*
X96247824Y-108491848D01*
X96235485Y-108454832D01*
X96209920Y-108425356D01*
X96193330Y-108414913D01*
X96131653Y-108384074D01*
X96073942Y-108326364D01*
X96003242Y-108220314D01*
X96003196Y-108220258D01*
X96003184Y-108220228D01*
X96003115Y-108220159D01*
X95990822Y-108205148D01*
X95982594Y-108199638D01*
X95975594Y-108192638D01*
X95966540Y-108188888D01*
X95958401Y-108183437D01*
X95948695Y-108181495D01*
X95939546Y-108177706D01*
X95929746Y-108177706D01*
X95920141Y-108175785D01*
X95910430Y-108177706D01*
X95900528Y-108177706D01*
X95891476Y-108181455D01*
X95881864Y-108183357D01*
X95873624Y-108188850D01*
X95864480Y-108192638D01*
X95857554Y-108199563D01*
X95849400Y-108205000D01*
X95843890Y-108213227D01*
X95836890Y-108220228D01*
X95833140Y-108229281D01*
X95827689Y-108237421D01*
X95825747Y-108247126D01*
X95821958Y-108256276D01*
X95820057Y-108275580D01*
X95820037Y-108275681D01*
X95820043Y-108275715D01*
X95820037Y-108275785D01*
X95820037Y-108975785D01*
X95691466Y-108975785D01*
X95671957Y-108977706D01*
X95635909Y-108992638D01*
X95608319Y-109020228D01*
X95593387Y-109056276D01*
X95493387Y-109056276D01*
X95493387Y-107999618D01*
X108120041Y-107999618D01*
X108120041Y-112118361D01*
G37*
D12*
X93416930Y-109058480D02*
X93316930Y-108258480D01*
X93316930Y-108258480D02*
X93126454Y-108258480D01*
X93126454Y-108258480D02*
X93016930Y-108296575D01*
X93016930Y-108296575D02*
X92950264Y-108372765D01*
X92950264Y-108372765D02*
X92921692Y-108448956D01*
X92921692Y-108448956D02*
X92902645Y-108601337D01*
X92902645Y-108601337D02*
X92916930Y-108715623D01*
X92916930Y-108715623D02*
X92974073Y-108868004D01*
X92974073Y-108868004D02*
X93021692Y-108944194D01*
X93021692Y-108944194D02*
X93107406Y-109020385D01*
X93107406Y-109020385D02*
X93226454Y-109058480D01*
X93226454Y-109058480D02*
X93416930Y-109058480D01*
X92274073Y-109058480D02*
X92221692Y-108639432D01*
X92221692Y-108639432D02*
X92250264Y-108563242D01*
X92250264Y-108563242D02*
X92321692Y-108525146D01*
X92321692Y-108525146D02*
X92474073Y-108525146D01*
X92474073Y-108525146D02*
X92555025Y-108563242D01*
X92269311Y-109020385D02*
X92350264Y-109058480D01*
X92350264Y-109058480D02*
X92540740Y-109058480D01*
X92540740Y-109058480D02*
X92612168Y-109020385D01*
X92612168Y-109020385D02*
X92640740Y-108944194D01*
X92640740Y-108944194D02*
X92631216Y-108868004D01*
X92631216Y-108868004D02*
X92583597Y-108791813D01*
X92583597Y-108791813D02*
X92502645Y-108753718D01*
X92502645Y-108753718D02*
X92312168Y-108753718D01*
X92312168Y-108753718D02*
X92231216Y-108715623D01*
X91902644Y-108525146D02*
X91778835Y-109058480D01*
X91778835Y-109058480D02*
X91521692Y-108525146D01*
X91283596Y-109058480D02*
X91216930Y-108525146D01*
X91183596Y-108258480D02*
X91226453Y-108296575D01*
X91226453Y-108296575D02*
X91193120Y-108334670D01*
X91193120Y-108334670D02*
X91150263Y-108296575D01*
X91150263Y-108296575D02*
X91183596Y-108258480D01*
X91183596Y-108258480D02*
X91193120Y-108334670D01*
X90559787Y-109058480D02*
X90459787Y-108258480D01*
X90555025Y-109020385D02*
X90635978Y-109058480D01*
X90635978Y-109058480D02*
X90788359Y-109058480D01*
X90788359Y-109058480D02*
X90859787Y-109020385D01*
X90859787Y-109020385D02*
X90893120Y-108982289D01*
X90893120Y-108982289D02*
X90921692Y-108906099D01*
X90921692Y-108906099D02*
X90893120Y-108677527D01*
X90893120Y-108677527D02*
X90845501Y-108601337D01*
X90845501Y-108601337D02*
X90802644Y-108563242D01*
X90802644Y-108563242D02*
X90721692Y-108525146D01*
X90721692Y-108525146D02*
X90569311Y-108525146D01*
X90569311Y-108525146D02*
X90497882Y-108563242D01*
X89250263Y-108639432D02*
X89516929Y-108639432D01*
X89569310Y-109058480D02*
X89469310Y-108258480D01*
X89469310Y-108258480D02*
X89088358Y-108258480D01*
X88540739Y-109058480D02*
X88488358Y-108639432D01*
X88488358Y-108639432D02*
X88516930Y-108563242D01*
X88516930Y-108563242D02*
X88588358Y-108525146D01*
X88588358Y-108525146D02*
X88740739Y-108525146D01*
X88740739Y-108525146D02*
X88821691Y-108563242D01*
X88535977Y-109020385D02*
X88616930Y-109058480D01*
X88616930Y-109058480D02*
X88807406Y-109058480D01*
X88807406Y-109058480D02*
X88878834Y-109020385D01*
X88878834Y-109020385D02*
X88907406Y-108944194D01*
X88907406Y-108944194D02*
X88897882Y-108868004D01*
X88897882Y-108868004D02*
X88850263Y-108791813D01*
X88850263Y-108791813D02*
X88769311Y-108753718D01*
X88769311Y-108753718D02*
X88578834Y-108753718D01*
X88578834Y-108753718D02*
X88497882Y-108715623D01*
X88045501Y-109058480D02*
X88116929Y-109020385D01*
X88116929Y-109020385D02*
X88145501Y-108944194D01*
X88145501Y-108944194D02*
X88059786Y-108258480D01*
X87626453Y-109058480D02*
X87697881Y-109020385D01*
X87697881Y-109020385D02*
X87726453Y-108944194D01*
X87726453Y-108944194D02*
X87640738Y-108258480D01*
X93426454Y-110117863D02*
X93045502Y-110117863D01*
X93531216Y-110346435D02*
X93164549Y-109546435D01*
X93164549Y-109546435D02*
X92997883Y-110346435D01*
X92664550Y-109813101D02*
X92731216Y-110346435D01*
X92674073Y-109889292D02*
X92631216Y-109851197D01*
X92631216Y-109851197D02*
X92550264Y-109813101D01*
X92550264Y-109813101D02*
X92435978Y-109813101D01*
X92435978Y-109813101D02*
X92364550Y-109851197D01*
X92364550Y-109851197D02*
X92335978Y-109927387D01*
X92335978Y-109927387D02*
X92388359Y-110346435D01*
X91664549Y-110346435D02*
X91564549Y-109546435D01*
X91659787Y-110308340D02*
X91740740Y-110346435D01*
X91740740Y-110346435D02*
X91893121Y-110346435D01*
X91893121Y-110346435D02*
X91964549Y-110308340D01*
X91964549Y-110308340D02*
X91997882Y-110270244D01*
X91997882Y-110270244D02*
X92026454Y-110194054D01*
X92026454Y-110194054D02*
X91997882Y-109965482D01*
X91997882Y-109965482D02*
X91950263Y-109889292D01*
X91950263Y-109889292D02*
X91907406Y-109851197D01*
X91907406Y-109851197D02*
X91826454Y-109813101D01*
X91826454Y-109813101D02*
X91674073Y-109813101D01*
X91674073Y-109813101D02*
X91602644Y-109851197D01*
X91283596Y-110346435D02*
X91216930Y-109813101D01*
X91235977Y-109965482D02*
X91188358Y-109889292D01*
X91188358Y-109889292D02*
X91145501Y-109851197D01*
X91145501Y-109851197D02*
X91064549Y-109813101D01*
X91064549Y-109813101D02*
X90988358Y-109813101D01*
X90478834Y-110308340D02*
X90559787Y-110346435D01*
X90559787Y-110346435D02*
X90712168Y-110346435D01*
X90712168Y-110346435D02*
X90783596Y-110308340D01*
X90783596Y-110308340D02*
X90812168Y-110232149D01*
X90812168Y-110232149D02*
X90774073Y-109927387D01*
X90774073Y-109927387D02*
X90726453Y-109851197D01*
X90726453Y-109851197D02*
X90645501Y-109813101D01*
X90645501Y-109813101D02*
X90493120Y-109813101D01*
X90493120Y-109813101D02*
X90421692Y-109851197D01*
X90421692Y-109851197D02*
X90393120Y-109927387D01*
X90393120Y-109927387D02*
X90402644Y-110003578D01*
X90402644Y-110003578D02*
X90793120Y-110079768D01*
X90112168Y-109813101D02*
X90026454Y-110346435D01*
X90026454Y-110346435D02*
X89826454Y-109965482D01*
X89826454Y-109965482D02*
X89721692Y-110346435D01*
X89721692Y-110346435D02*
X89502644Y-109813101D01*
X88188359Y-110270244D02*
X88231216Y-110308340D01*
X88231216Y-110308340D02*
X88350263Y-110346435D01*
X88350263Y-110346435D02*
X88426454Y-110346435D01*
X88426454Y-110346435D02*
X88535978Y-110308340D01*
X88535978Y-110308340D02*
X88602644Y-110232149D01*
X88602644Y-110232149D02*
X88631216Y-110155959D01*
X88631216Y-110155959D02*
X88650263Y-110003578D01*
X88650263Y-110003578D02*
X88635978Y-109889292D01*
X88635978Y-109889292D02*
X88578835Y-109736911D01*
X88578835Y-109736911D02*
X88531216Y-109660720D01*
X88531216Y-109660720D02*
X88445501Y-109584530D01*
X88445501Y-109584530D02*
X88326454Y-109546435D01*
X88326454Y-109546435D02*
X88250263Y-109546435D01*
X88250263Y-109546435D02*
X88140740Y-109584530D01*
X88140740Y-109584530D02*
X88107406Y-109622625D01*
X87512168Y-110346435D02*
X87459787Y-109927387D01*
X87459787Y-109927387D02*
X87488359Y-109851197D01*
X87488359Y-109851197D02*
X87559787Y-109813101D01*
X87559787Y-109813101D02*
X87712168Y-109813101D01*
X87712168Y-109813101D02*
X87793120Y-109851197D01*
X87507406Y-110308340D02*
X87588359Y-110346435D01*
X87588359Y-110346435D02*
X87778835Y-110346435D01*
X87778835Y-110346435D02*
X87850263Y-110308340D01*
X87850263Y-110308340D02*
X87878835Y-110232149D01*
X87878835Y-110232149D02*
X87869311Y-110155959D01*
X87869311Y-110155959D02*
X87821692Y-110079768D01*
X87821692Y-110079768D02*
X87740740Y-110041673D01*
X87740740Y-110041673D02*
X87550263Y-110041673D01*
X87550263Y-110041673D02*
X87469311Y-110003578D01*
X87016930Y-110346435D02*
X87088358Y-110308340D01*
X87088358Y-110308340D02*
X87116930Y-110232149D01*
X87116930Y-110232149D02*
X87031215Y-109546435D01*
X86712167Y-110346435D02*
X86645501Y-109813101D01*
X86612167Y-109546435D02*
X86655024Y-109584530D01*
X86655024Y-109584530D02*
X86621691Y-109622625D01*
X86621691Y-109622625D02*
X86578834Y-109584530D01*
X86578834Y-109584530D02*
X86612167Y-109546435D01*
X86612167Y-109546435D02*
X86621691Y-109622625D01*
X93088359Y-110834390D02*
X93159787Y-111405818D01*
X93159787Y-111405818D02*
X93212168Y-111520104D01*
X93212168Y-111520104D02*
X93297883Y-111596295D01*
X93297883Y-111596295D02*
X93416930Y-111634390D01*
X93416930Y-111634390D02*
X93493121Y-111634390D01*
X92497882Y-111596295D02*
X92578835Y-111634390D01*
X92578835Y-111634390D02*
X92731216Y-111634390D01*
X92731216Y-111634390D02*
X92802644Y-111596295D01*
X92802644Y-111596295D02*
X92831216Y-111520104D01*
X92831216Y-111520104D02*
X92793121Y-111215342D01*
X92793121Y-111215342D02*
X92745501Y-111139152D01*
X92745501Y-111139152D02*
X92664549Y-111101056D01*
X92664549Y-111101056D02*
X92512168Y-111101056D01*
X92512168Y-111101056D02*
X92440740Y-111139152D01*
X92440740Y-111139152D02*
X92412168Y-111215342D01*
X92412168Y-111215342D02*
X92421692Y-111291533D01*
X92421692Y-111291533D02*
X92812168Y-111367723D01*
X92055026Y-111101056D02*
X92121692Y-111634390D01*
X92064549Y-111177247D02*
X92021692Y-111139152D01*
X92021692Y-111139152D02*
X91940740Y-111101056D01*
X91940740Y-111101056D02*
X91826454Y-111101056D01*
X91826454Y-111101056D02*
X91755026Y-111139152D01*
X91755026Y-111139152D02*
X91726454Y-111215342D01*
X91726454Y-111215342D02*
X91778835Y-111634390D01*
X91331216Y-111101056D02*
X91397882Y-111634390D01*
X91340739Y-111177247D02*
X91297882Y-111139152D01*
X91297882Y-111139152D02*
X91216930Y-111101056D01*
X91216930Y-111101056D02*
X91102644Y-111101056D01*
X91102644Y-111101056D02*
X91031216Y-111139152D01*
X91031216Y-111139152D02*
X91002644Y-111215342D01*
X91002644Y-111215342D02*
X91055025Y-111634390D01*
X90674072Y-111634390D02*
X90607406Y-111101056D01*
X90574072Y-110834390D02*
X90616929Y-110872485D01*
X90616929Y-110872485D02*
X90583596Y-110910580D01*
X90583596Y-110910580D02*
X90540739Y-110872485D01*
X90540739Y-110872485D02*
X90574072Y-110834390D01*
X90574072Y-110834390D02*
X90583596Y-110910580D01*
X90340739Y-111101056D02*
X90035977Y-111101056D01*
X90293120Y-111634390D02*
X90207406Y-110948675D01*
X90207406Y-110948675D02*
X90159787Y-110872485D01*
X90159787Y-110872485D02*
X90078835Y-110834390D01*
X90078835Y-110834390D02*
X90002644Y-110834390D01*
X89526453Y-111596295D02*
X89607406Y-111634390D01*
X89607406Y-111634390D02*
X89759787Y-111634390D01*
X89759787Y-111634390D02*
X89831215Y-111596295D01*
X89831215Y-111596295D02*
X89859787Y-111520104D01*
X89859787Y-111520104D02*
X89821692Y-111215342D01*
X89821692Y-111215342D02*
X89774072Y-111139152D01*
X89774072Y-111139152D02*
X89693120Y-111101056D01*
X89693120Y-111101056D02*
X89540739Y-111101056D01*
X89540739Y-111101056D02*
X89469311Y-111139152D01*
X89469311Y-111139152D02*
X89440739Y-111215342D01*
X89440739Y-111215342D02*
X89450263Y-111291533D01*
X89450263Y-111291533D02*
X89840739Y-111367723D01*
X89150263Y-111634390D02*
X89083597Y-111101056D01*
X89102644Y-111253437D02*
X89055025Y-111177247D01*
X89055025Y-111177247D02*
X89012168Y-111139152D01*
X89012168Y-111139152D02*
X88931216Y-111101056D01*
X88931216Y-111101056D02*
X88855025Y-111101056D01*
X87726454Y-111215342D02*
X87993120Y-111215342D01*
X88045501Y-111634390D02*
X87945501Y-110834390D01*
X87945501Y-110834390D02*
X87564549Y-110834390D01*
X87050263Y-111596295D02*
X87131216Y-111634390D01*
X87131216Y-111634390D02*
X87283597Y-111634390D01*
X87283597Y-111634390D02*
X87355025Y-111596295D01*
X87355025Y-111596295D02*
X87383597Y-111520104D01*
X87383597Y-111520104D02*
X87345502Y-111215342D01*
X87345502Y-111215342D02*
X87297882Y-111139152D01*
X87297882Y-111139152D02*
X87216930Y-111101056D01*
X87216930Y-111101056D02*
X87064549Y-111101056D01*
X87064549Y-111101056D02*
X86993121Y-111139152D01*
X86993121Y-111139152D02*
X86964549Y-111215342D01*
X86964549Y-111215342D02*
X86974073Y-111291533D01*
X86974073Y-111291533D02*
X87364549Y-111367723D01*
X86674073Y-111634390D02*
X86607407Y-111101056D01*
X86626454Y-111253437D02*
X86578835Y-111177247D01*
X86578835Y-111177247D02*
X86535978Y-111139152D01*
X86535978Y-111139152D02*
X86455026Y-111101056D01*
X86455026Y-111101056D02*
X86378835Y-111101056D01*
X85769311Y-111101056D02*
X85850264Y-111748675D01*
X85850264Y-111748675D02*
X85897883Y-111824866D01*
X85897883Y-111824866D02*
X85940740Y-111862961D01*
X85940740Y-111862961D02*
X86021692Y-111901056D01*
X86021692Y-111901056D02*
X86135978Y-111901056D01*
X86135978Y-111901056D02*
X86207407Y-111862961D01*
X85831216Y-111596295D02*
X85912169Y-111634390D01*
X85912169Y-111634390D02*
X86064550Y-111634390D01*
X86064550Y-111634390D02*
X86135978Y-111596295D01*
X86135978Y-111596295D02*
X86169311Y-111558199D01*
X86169311Y-111558199D02*
X86197883Y-111482009D01*
X86197883Y-111482009D02*
X86169311Y-111253437D01*
X86169311Y-111253437D02*
X86121692Y-111177247D01*
X86121692Y-111177247D02*
X86078835Y-111139152D01*
X86078835Y-111139152D02*
X85997883Y-111101056D01*
X85997883Y-111101056D02*
X85845502Y-111101056D01*
X85845502Y-111101056D02*
X85774073Y-111139152D01*
X85045501Y-111101056D02*
X85112168Y-111634390D01*
X85388359Y-111101056D02*
X85440740Y-111520104D01*
X85440740Y-111520104D02*
X85412168Y-111596295D01*
X85412168Y-111596295D02*
X85340740Y-111634390D01*
X85340740Y-111634390D02*
X85226454Y-111634390D01*
X85226454Y-111634390D02*
X85145501Y-111596295D01*
X85145501Y-111596295D02*
X85102644Y-111558199D01*
X84764549Y-111596295D02*
X84693120Y-111634390D01*
X84693120Y-111634390D02*
X84540739Y-111634390D01*
X84540739Y-111634390D02*
X84459787Y-111596295D01*
X84459787Y-111596295D02*
X84412168Y-111520104D01*
X84412168Y-111520104D02*
X84407406Y-111482009D01*
X84407406Y-111482009D02*
X84435977Y-111405818D01*
X84435977Y-111405818D02*
X84507406Y-111367723D01*
X84507406Y-111367723D02*
X84621691Y-111367723D01*
X84621691Y-111367723D02*
X84693120Y-111329628D01*
X84693120Y-111329628D02*
X84721691Y-111253437D01*
X84721691Y-111253437D02*
X84716930Y-111215342D01*
X84716930Y-111215342D02*
X84669310Y-111139152D01*
X84669310Y-111139152D02*
X84588358Y-111101056D01*
X84588358Y-111101056D02*
X84474072Y-111101056D01*
X84474072Y-111101056D02*
X84402644Y-111139152D01*
X83969311Y-111634390D02*
X84040739Y-111596295D01*
X84040739Y-111596295D02*
X84074072Y-111558199D01*
X84074072Y-111558199D02*
X84102644Y-111482009D01*
X84102644Y-111482009D02*
X84074072Y-111253437D01*
X84074072Y-111253437D02*
X84026453Y-111177247D01*
X84026453Y-111177247D02*
X83983596Y-111139152D01*
X83983596Y-111139152D02*
X83902644Y-111101056D01*
X83902644Y-111101056D02*
X83788358Y-111101056D01*
X83788358Y-111101056D02*
X83716930Y-111139152D01*
X83716930Y-111139152D02*
X83683596Y-111177247D01*
X83683596Y-111177247D02*
X83655025Y-111253437D01*
X83655025Y-111253437D02*
X83683596Y-111482009D01*
X83683596Y-111482009D02*
X83731215Y-111558199D01*
X83731215Y-111558199D02*
X83774072Y-111596295D01*
X83774072Y-111596295D02*
X83855025Y-111634390D01*
X83855025Y-111634390D02*
X83969311Y-111634390D01*
X83293120Y-111101056D02*
X83359786Y-111634390D01*
X83302643Y-111177247D02*
X83259786Y-111139152D01*
X83259786Y-111139152D02*
X83178834Y-111101056D01*
X83178834Y-111101056D02*
X83064548Y-111101056D01*
X83064548Y-111101056D02*
X82993120Y-111139152D01*
X82993120Y-111139152D02*
X82964548Y-111215342D01*
X82964548Y-111215342D02*
X83016929Y-111634390D01*
X93416930Y-112922345D02*
X93316930Y-112122345D01*
X93316930Y-112122345D02*
X93121692Y-112693773D01*
X93121692Y-112693773D02*
X92783597Y-112122345D01*
X92783597Y-112122345D02*
X92883597Y-112922345D01*
X92159787Y-112922345D02*
X92107406Y-112503297D01*
X92107406Y-112503297D02*
X92135978Y-112427107D01*
X92135978Y-112427107D02*
X92207406Y-112389011D01*
X92207406Y-112389011D02*
X92359787Y-112389011D01*
X92359787Y-112389011D02*
X92440739Y-112427107D01*
X92155025Y-112884250D02*
X92235978Y-112922345D01*
X92235978Y-112922345D02*
X92426454Y-112922345D01*
X92426454Y-112922345D02*
X92497882Y-112884250D01*
X92497882Y-112884250D02*
X92526454Y-112808059D01*
X92526454Y-112808059D02*
X92516930Y-112731869D01*
X92516930Y-112731869D02*
X92469311Y-112655678D01*
X92469311Y-112655678D02*
X92388359Y-112617583D01*
X92388359Y-112617583D02*
X92197882Y-112617583D01*
X92197882Y-112617583D02*
X92116930Y-112579488D01*
X91435977Y-112922345D02*
X91335977Y-112122345D01*
X91431215Y-112884250D02*
X91512168Y-112922345D01*
X91512168Y-112922345D02*
X91664549Y-112922345D01*
X91664549Y-112922345D02*
X91735977Y-112884250D01*
X91735977Y-112884250D02*
X91769310Y-112846154D01*
X91769310Y-112846154D02*
X91797882Y-112769964D01*
X91797882Y-112769964D02*
X91769310Y-112541392D01*
X91769310Y-112541392D02*
X91721691Y-112465202D01*
X91721691Y-112465202D02*
X91678834Y-112427107D01*
X91678834Y-112427107D02*
X91597882Y-112389011D01*
X91597882Y-112389011D02*
X91445501Y-112389011D01*
X91445501Y-112389011D02*
X91374072Y-112427107D01*
X90745500Y-112884250D02*
X90826453Y-112922345D01*
X90826453Y-112922345D02*
X90978834Y-112922345D01*
X90978834Y-112922345D02*
X91050262Y-112884250D01*
X91050262Y-112884250D02*
X91078834Y-112808059D01*
X91078834Y-112808059D02*
X91040739Y-112503297D01*
X91040739Y-112503297D02*
X90993119Y-112427107D01*
X90993119Y-112427107D02*
X90912167Y-112389011D01*
X90912167Y-112389011D02*
X90759786Y-112389011D01*
X90759786Y-112389011D02*
X90688358Y-112427107D01*
X90688358Y-112427107D02*
X90659786Y-112503297D01*
X90659786Y-112503297D02*
X90669310Y-112579488D01*
X90669310Y-112579488D02*
X91059786Y-112655678D01*
X90255025Y-112922345D02*
X90326453Y-112884250D01*
X90326453Y-112884250D02*
X90355025Y-112808059D01*
X90355025Y-112808059D02*
X90269310Y-112122345D01*
X89950262Y-112922345D02*
X89883596Y-112389011D01*
X89850262Y-112122345D02*
X89893119Y-112160440D01*
X89893119Y-112160440D02*
X89859786Y-112198535D01*
X89859786Y-112198535D02*
X89816929Y-112160440D01*
X89816929Y-112160440D02*
X89850262Y-112122345D01*
X89850262Y-112122345D02*
X89859786Y-112198535D01*
X89502644Y-112389011D02*
X89569310Y-112922345D01*
X89512167Y-112465202D02*
X89469310Y-112427107D01*
X89469310Y-112427107D02*
X89388358Y-112389011D01*
X89388358Y-112389011D02*
X89274072Y-112389011D01*
X89274072Y-112389011D02*
X89202644Y-112427107D01*
X89202644Y-112427107D02*
X89174072Y-112503297D01*
X89174072Y-112503297D02*
X89226453Y-112922345D01*
X88535976Y-112884250D02*
X88616929Y-112922345D01*
X88616929Y-112922345D02*
X88769310Y-112922345D01*
X88769310Y-112922345D02*
X88840738Y-112884250D01*
X88840738Y-112884250D02*
X88869310Y-112808059D01*
X88869310Y-112808059D02*
X88831215Y-112503297D01*
X88831215Y-112503297D02*
X88783595Y-112427107D01*
X88783595Y-112427107D02*
X88702643Y-112389011D01*
X88702643Y-112389011D02*
X88550262Y-112389011D01*
X88550262Y-112389011D02*
X88478834Y-112427107D01*
X88478834Y-112427107D02*
X88450262Y-112503297D01*
X88450262Y-112503297D02*
X88459786Y-112579488D01*
X88459786Y-112579488D02*
X88850262Y-112655678D01*
X87231215Y-112503297D02*
X87497881Y-112503297D01*
X87550262Y-112922345D02*
X87450262Y-112122345D01*
X87450262Y-112122345D02*
X87069310Y-112122345D01*
X86750263Y-112922345D02*
X86821691Y-112884250D01*
X86821691Y-112884250D02*
X86850263Y-112808059D01*
X86850263Y-112808059D02*
X86764548Y-112122345D01*
X86102643Y-112922345D02*
X86050262Y-112503297D01*
X86050262Y-112503297D02*
X86078834Y-112427107D01*
X86078834Y-112427107D02*
X86150262Y-112389011D01*
X86150262Y-112389011D02*
X86302643Y-112389011D01*
X86302643Y-112389011D02*
X86383595Y-112427107D01*
X86097881Y-112884250D02*
X86178834Y-112922345D01*
X86178834Y-112922345D02*
X86369310Y-112922345D01*
X86369310Y-112922345D02*
X86440738Y-112884250D01*
X86440738Y-112884250D02*
X86469310Y-112808059D01*
X86469310Y-112808059D02*
X86459786Y-112731869D01*
X86459786Y-112731869D02*
X86412167Y-112655678D01*
X86412167Y-112655678D02*
X86331215Y-112617583D01*
X86331215Y-112617583D02*
X86140738Y-112617583D01*
X86140738Y-112617583D02*
X86059786Y-112579488D01*
X85655024Y-112389011D02*
X85721690Y-112922345D01*
X85664547Y-112465202D02*
X85621690Y-112427107D01*
X85621690Y-112427107D02*
X85540738Y-112389011D01*
X85540738Y-112389011D02*
X85426452Y-112389011D01*
X85426452Y-112389011D02*
X85355024Y-112427107D01*
X85355024Y-112427107D02*
X85326452Y-112503297D01*
X85326452Y-112503297D02*
X85378833Y-112922345D01*
X84655023Y-112922345D02*
X84602642Y-112503297D01*
X84602642Y-112503297D02*
X84631214Y-112427107D01*
X84631214Y-112427107D02*
X84702642Y-112389011D01*
X84702642Y-112389011D02*
X84855023Y-112389011D01*
X84855023Y-112389011D02*
X84935975Y-112427107D01*
X84650261Y-112884250D02*
X84731214Y-112922345D01*
X84731214Y-112922345D02*
X84921690Y-112922345D01*
X84921690Y-112922345D02*
X84993118Y-112884250D01*
X84993118Y-112884250D02*
X85021690Y-112808059D01*
X85021690Y-112808059D02*
X85012166Y-112731869D01*
X85012166Y-112731869D02*
X84964547Y-112655678D01*
X84964547Y-112655678D02*
X84883595Y-112617583D01*
X84883595Y-112617583D02*
X84693118Y-112617583D01*
X84693118Y-112617583D02*
X84612166Y-112579488D01*
X83864546Y-112389011D02*
X83945499Y-113036630D01*
X83945499Y-113036630D02*
X83993118Y-113112821D01*
X83993118Y-113112821D02*
X84035975Y-113150916D01*
X84035975Y-113150916D02*
X84116927Y-113189011D01*
X84116927Y-113189011D02*
X84231213Y-113189011D01*
X84231213Y-113189011D02*
X84302642Y-113150916D01*
X83926451Y-112884250D02*
X84007404Y-112922345D01*
X84007404Y-112922345D02*
X84159785Y-112922345D01*
X84159785Y-112922345D02*
X84231213Y-112884250D01*
X84231213Y-112884250D02*
X84264546Y-112846154D01*
X84264546Y-112846154D02*
X84293118Y-112769964D01*
X84293118Y-112769964D02*
X84264546Y-112541392D01*
X84264546Y-112541392D02*
X84216927Y-112465202D01*
X84216927Y-112465202D02*
X84174070Y-112427107D01*
X84174070Y-112427107D02*
X84093118Y-112389011D01*
X84093118Y-112389011D02*
X83940737Y-112389011D01*
X83940737Y-112389011D02*
X83869308Y-112427107D01*
X83207403Y-112922345D02*
X83155022Y-112503297D01*
X83155022Y-112503297D02*
X83183594Y-112427107D01*
X83183594Y-112427107D02*
X83255022Y-112389011D01*
X83255022Y-112389011D02*
X83407403Y-112389011D01*
X83407403Y-112389011D02*
X83488355Y-112427107D01*
X83202641Y-112884250D02*
X83283594Y-112922345D01*
X83283594Y-112922345D02*
X83474070Y-112922345D01*
X83474070Y-112922345D02*
X83545498Y-112884250D01*
X83545498Y-112884250D02*
X83574070Y-112808059D01*
X83574070Y-112808059D02*
X83564546Y-112731869D01*
X83564546Y-112731869D02*
X83516927Y-112655678D01*
X83516927Y-112655678D02*
X83435975Y-112617583D01*
X83435975Y-112617583D02*
X83245498Y-112617583D01*
X83245498Y-112617583D02*
X83164546Y-112579488D01*
X82759784Y-112389011D02*
X82826450Y-112922345D01*
X82769307Y-112465202D02*
X82726450Y-112427107D01*
X82726450Y-112427107D02*
X82645498Y-112389011D01*
X82645498Y-112389011D02*
X82531212Y-112389011D01*
X82531212Y-112389011D02*
X82459784Y-112427107D01*
X82459784Y-112427107D02*
X82431212Y-112503297D01*
X82431212Y-112503297D02*
X82483593Y-112922345D01*
D13*
X125048180Y-72178942D02*
X125095800Y-72131323D01*
X125095800Y-72131323D02*
X125143419Y-71988466D01*
X125143419Y-71988466D02*
X125143419Y-71893228D01*
X125143419Y-71893228D02*
X125095800Y-71750371D01*
X125095800Y-71750371D02*
X125000561Y-71655133D01*
X125000561Y-71655133D02*
X124905323Y-71607514D01*
X124905323Y-71607514D02*
X124714847Y-71559895D01*
X124714847Y-71559895D02*
X124571990Y-71559895D01*
X124571990Y-71559895D02*
X124381514Y-71607514D01*
X124381514Y-71607514D02*
X124286276Y-71655133D01*
X124286276Y-71655133D02*
X124191038Y-71750371D01*
X124191038Y-71750371D02*
X124143419Y-71893228D01*
X124143419Y-71893228D02*
X124143419Y-71988466D01*
X124143419Y-71988466D02*
X124191038Y-72131323D01*
X124191038Y-72131323D02*
X124238657Y-72178942D01*
X125143419Y-73131323D02*
X125143419Y-72559895D01*
X125143419Y-72845609D02*
X124143419Y-72845609D01*
X124143419Y-72845609D02*
X124286276Y-72750371D01*
X124286276Y-72750371D02*
X124381514Y-72655133D01*
X124381514Y-72655133D02*
X124429133Y-72559895D01*
X124143419Y-73464657D02*
X124143419Y-74131323D01*
X124143419Y-74131323D02*
X125143419Y-73702752D01*
X161261219Y-89784133D02*
X160785028Y-89450800D01*
X161261219Y-89212705D02*
X160261219Y-89212705D01*
X160261219Y-89212705D02*
X160261219Y-89593657D01*
X160261219Y-89593657D02*
X160308838Y-89688895D01*
X160308838Y-89688895D02*
X160356457Y-89736514D01*
X160356457Y-89736514D02*
X160451695Y-89784133D01*
X160451695Y-89784133D02*
X160594552Y-89784133D01*
X160594552Y-89784133D02*
X160689790Y-89736514D01*
X160689790Y-89736514D02*
X160737409Y-89688895D01*
X160737409Y-89688895D02*
X160785028Y-89593657D01*
X160785028Y-89593657D02*
X160785028Y-89212705D01*
X160356457Y-90165086D02*
X160308838Y-90212705D01*
X160308838Y-90212705D02*
X160261219Y-90307943D01*
X160261219Y-90307943D02*
X160261219Y-90546038D01*
X160261219Y-90546038D02*
X160308838Y-90641276D01*
X160308838Y-90641276D02*
X160356457Y-90688895D01*
X160356457Y-90688895D02*
X160451695Y-90736514D01*
X160451695Y-90736514D02*
X160546933Y-90736514D01*
X160546933Y-90736514D02*
X160689790Y-90688895D01*
X160689790Y-90688895D02*
X161261219Y-90117467D01*
X161261219Y-90117467D02*
X161261219Y-90736514D01*
X151431419Y-76753933D02*
X150955228Y-76420600D01*
X151431419Y-76182505D02*
X150431419Y-76182505D01*
X150431419Y-76182505D02*
X150431419Y-76563457D01*
X150431419Y-76563457D02*
X150479038Y-76658695D01*
X150479038Y-76658695D02*
X150526657Y-76706314D01*
X150526657Y-76706314D02*
X150621895Y-76753933D01*
X150621895Y-76753933D02*
X150764752Y-76753933D01*
X150764752Y-76753933D02*
X150859990Y-76706314D01*
X150859990Y-76706314D02*
X150907609Y-76658695D01*
X150907609Y-76658695D02*
X150955228Y-76563457D01*
X150955228Y-76563457D02*
X150955228Y-76182505D01*
X151431419Y-77706314D02*
X151431419Y-77134886D01*
X151431419Y-77420600D02*
X150431419Y-77420600D01*
X150431419Y-77420600D02*
X150574276Y-77325362D01*
X150574276Y-77325362D02*
X150669514Y-77230124D01*
X150669514Y-77230124D02*
X150717133Y-77134886D01*
X148006180Y-72375733D02*
X148053800Y-72328114D01*
X148053800Y-72328114D02*
X148101419Y-72185257D01*
X148101419Y-72185257D02*
X148101419Y-72090019D01*
X148101419Y-72090019D02*
X148053800Y-71947162D01*
X148053800Y-71947162D02*
X147958561Y-71851924D01*
X147958561Y-71851924D02*
X147863323Y-71804305D01*
X147863323Y-71804305D02*
X147672847Y-71756686D01*
X147672847Y-71756686D02*
X147529990Y-71756686D01*
X147529990Y-71756686D02*
X147339514Y-71804305D01*
X147339514Y-71804305D02*
X147244276Y-71851924D01*
X147244276Y-71851924D02*
X147149038Y-71947162D01*
X147149038Y-71947162D02*
X147101419Y-72090019D01*
X147101419Y-72090019D02*
X147101419Y-72185257D01*
X147101419Y-72185257D02*
X147149038Y-72328114D01*
X147149038Y-72328114D02*
X147196657Y-72375733D01*
X147101419Y-72709067D02*
X147101419Y-73328114D01*
X147101419Y-73328114D02*
X147482371Y-72994781D01*
X147482371Y-72994781D02*
X147482371Y-73137638D01*
X147482371Y-73137638D02*
X147529990Y-73232876D01*
X147529990Y-73232876D02*
X147577609Y-73280495D01*
X147577609Y-73280495D02*
X147672847Y-73328114D01*
X147672847Y-73328114D02*
X147910942Y-73328114D01*
X147910942Y-73328114D02*
X148006180Y-73280495D01*
X148006180Y-73280495D02*
X148053800Y-73232876D01*
X148053800Y-73232876D02*
X148101419Y-73137638D01*
X148101419Y-73137638D02*
X148101419Y-72851924D01*
X148101419Y-72851924D02*
X148053800Y-72756686D01*
X148053800Y-72756686D02*
X148006180Y-72709067D01*
X139751180Y-79113142D02*
X139798800Y-79065523D01*
X139798800Y-79065523D02*
X139846419Y-78922666D01*
X139846419Y-78922666D02*
X139846419Y-78827428D01*
X139846419Y-78827428D02*
X139798800Y-78684571D01*
X139798800Y-78684571D02*
X139703561Y-78589333D01*
X139703561Y-78589333D02*
X139608323Y-78541714D01*
X139608323Y-78541714D02*
X139417847Y-78494095D01*
X139417847Y-78494095D02*
X139274990Y-78494095D01*
X139274990Y-78494095D02*
X139084514Y-78541714D01*
X139084514Y-78541714D02*
X138989276Y-78589333D01*
X138989276Y-78589333D02*
X138894038Y-78684571D01*
X138894038Y-78684571D02*
X138846419Y-78827428D01*
X138846419Y-78827428D02*
X138846419Y-78922666D01*
X138846419Y-78922666D02*
X138894038Y-79065523D01*
X138894038Y-79065523D02*
X138941657Y-79113142D01*
X139846419Y-80065523D02*
X139846419Y-79494095D01*
X139846419Y-79779809D02*
X138846419Y-79779809D01*
X138846419Y-79779809D02*
X138989276Y-79684571D01*
X138989276Y-79684571D02*
X139084514Y-79589333D01*
X139084514Y-79589333D02*
X139132133Y-79494095D01*
X139179752Y-80922666D02*
X139846419Y-80922666D01*
X138798800Y-80684571D02*
X139513085Y-80446476D01*
X139513085Y-80446476D02*
X139513085Y-81065523D01*
X136609057Y-77644419D02*
X136942390Y-77168228D01*
X137180485Y-77644419D02*
X137180485Y-76644419D01*
X137180485Y-76644419D02*
X136799533Y-76644419D01*
X136799533Y-76644419D02*
X136704295Y-76692038D01*
X136704295Y-76692038D02*
X136656676Y-76739657D01*
X136656676Y-76739657D02*
X136609057Y-76834895D01*
X136609057Y-76834895D02*
X136609057Y-76977752D01*
X136609057Y-76977752D02*
X136656676Y-77072990D01*
X136656676Y-77072990D02*
X136704295Y-77120609D01*
X136704295Y-77120609D02*
X136799533Y-77168228D01*
X136799533Y-77168228D02*
X137180485Y-77168228D01*
X135656676Y-77644419D02*
X136228104Y-77644419D01*
X135942390Y-77644419D02*
X135942390Y-76644419D01*
X135942390Y-76644419D02*
X136037628Y-76787276D01*
X136037628Y-76787276D02*
X136132866Y-76882514D01*
X136132866Y-76882514D02*
X136228104Y-76930133D01*
X134799533Y-76644419D02*
X134990009Y-76644419D01*
X134990009Y-76644419D02*
X135085247Y-76692038D01*
X135085247Y-76692038D02*
X135132866Y-76739657D01*
X135132866Y-76739657D02*
X135228104Y-76882514D01*
X135228104Y-76882514D02*
X135275723Y-77072990D01*
X135275723Y-77072990D02*
X135275723Y-77453942D01*
X135275723Y-77453942D02*
X135228104Y-77549180D01*
X135228104Y-77549180D02*
X135180485Y-77596800D01*
X135180485Y-77596800D02*
X135085247Y-77644419D01*
X135085247Y-77644419D02*
X134894771Y-77644419D01*
X134894771Y-77644419D02*
X134799533Y-77596800D01*
X134799533Y-77596800D02*
X134751914Y-77549180D01*
X134751914Y-77549180D02*
X134704295Y-77453942D01*
X134704295Y-77453942D02*
X134704295Y-77215847D01*
X134704295Y-77215847D02*
X134751914Y-77120609D01*
X134751914Y-77120609D02*
X134799533Y-77072990D01*
X134799533Y-77072990D02*
X134894771Y-77025371D01*
X134894771Y-77025371D02*
X135085247Y-77025371D01*
X135085247Y-77025371D02*
X135180485Y-77072990D01*
X135180485Y-77072990D02*
X135228104Y-77120609D01*
X135228104Y-77120609D02*
X135275723Y-77215847D01*
X96582857Y-79664819D02*
X96916190Y-79188628D01*
X97154285Y-79664819D02*
X97154285Y-78664819D01*
X97154285Y-78664819D02*
X96773333Y-78664819D01*
X96773333Y-78664819D02*
X96678095Y-78712438D01*
X96678095Y-78712438D02*
X96630476Y-78760057D01*
X96630476Y-78760057D02*
X96582857Y-78855295D01*
X96582857Y-78855295D02*
X96582857Y-78998152D01*
X96582857Y-78998152D02*
X96630476Y-79093390D01*
X96630476Y-79093390D02*
X96678095Y-79141009D01*
X96678095Y-79141009D02*
X96773333Y-79188628D01*
X96773333Y-79188628D02*
X97154285Y-79188628D01*
X95630476Y-79664819D02*
X96201904Y-79664819D01*
X95916190Y-79664819D02*
X95916190Y-78664819D01*
X95916190Y-78664819D02*
X96011428Y-78807676D01*
X96011428Y-78807676D02*
X96106666Y-78902914D01*
X96106666Y-78902914D02*
X96201904Y-78950533D01*
X95011428Y-78664819D02*
X94916190Y-78664819D01*
X94916190Y-78664819D02*
X94820952Y-78712438D01*
X94820952Y-78712438D02*
X94773333Y-78760057D01*
X94773333Y-78760057D02*
X94725714Y-78855295D01*
X94725714Y-78855295D02*
X94678095Y-79045771D01*
X94678095Y-79045771D02*
X94678095Y-79283866D01*
X94678095Y-79283866D02*
X94725714Y-79474342D01*
X94725714Y-79474342D02*
X94773333Y-79569580D01*
X94773333Y-79569580D02*
X94820952Y-79617200D01*
X94820952Y-79617200D02*
X94916190Y-79664819D01*
X94916190Y-79664819D02*
X95011428Y-79664819D01*
X95011428Y-79664819D02*
X95106666Y-79617200D01*
X95106666Y-79617200D02*
X95154285Y-79569580D01*
X95154285Y-79569580D02*
X95201904Y-79474342D01*
X95201904Y-79474342D02*
X95249523Y-79283866D01*
X95249523Y-79283866D02*
X95249523Y-79045771D01*
X95249523Y-79045771D02*
X95201904Y-78855295D01*
X95201904Y-78855295D02*
X95154285Y-78760057D01*
X95154285Y-78760057D02*
X95106666Y-78712438D01*
X95106666Y-78712438D02*
X95011428Y-78664819D01*
X132341857Y-66428580D02*
X132389476Y-66476200D01*
X132389476Y-66476200D02*
X132532333Y-66523819D01*
X132532333Y-66523819D02*
X132627571Y-66523819D01*
X132627571Y-66523819D02*
X132770428Y-66476200D01*
X132770428Y-66476200D02*
X132865666Y-66380961D01*
X132865666Y-66380961D02*
X132913285Y-66285723D01*
X132913285Y-66285723D02*
X132960904Y-66095247D01*
X132960904Y-66095247D02*
X132960904Y-65952390D01*
X132960904Y-65952390D02*
X132913285Y-65761914D01*
X132913285Y-65761914D02*
X132865666Y-65666676D01*
X132865666Y-65666676D02*
X132770428Y-65571438D01*
X132770428Y-65571438D02*
X132627571Y-65523819D01*
X132627571Y-65523819D02*
X132532333Y-65523819D01*
X132532333Y-65523819D02*
X132389476Y-65571438D01*
X132389476Y-65571438D02*
X132341857Y-65619057D01*
X131389476Y-66523819D02*
X131960904Y-66523819D01*
X131675190Y-66523819D02*
X131675190Y-65523819D01*
X131675190Y-65523819D02*
X131770428Y-65666676D01*
X131770428Y-65666676D02*
X131865666Y-65761914D01*
X131865666Y-65761914D02*
X131960904Y-65809533D01*
X131008523Y-65619057D02*
X130960904Y-65571438D01*
X130960904Y-65571438D02*
X130865666Y-65523819D01*
X130865666Y-65523819D02*
X130627571Y-65523819D01*
X130627571Y-65523819D02*
X130532333Y-65571438D01*
X130532333Y-65571438D02*
X130484714Y-65619057D01*
X130484714Y-65619057D02*
X130437095Y-65714295D01*
X130437095Y-65714295D02*
X130437095Y-65809533D01*
X130437095Y-65809533D02*
X130484714Y-65952390D01*
X130484714Y-65952390D02*
X131056142Y-66523819D01*
X131056142Y-66523819D02*
X130437095Y-66523819D01*
X139049580Y-63187142D02*
X139097200Y-63139523D01*
X139097200Y-63139523D02*
X139144819Y-62996666D01*
X139144819Y-62996666D02*
X139144819Y-62901428D01*
X139144819Y-62901428D02*
X139097200Y-62758571D01*
X139097200Y-62758571D02*
X139001961Y-62663333D01*
X139001961Y-62663333D02*
X138906723Y-62615714D01*
X138906723Y-62615714D02*
X138716247Y-62568095D01*
X138716247Y-62568095D02*
X138573390Y-62568095D01*
X138573390Y-62568095D02*
X138382914Y-62615714D01*
X138382914Y-62615714D02*
X138287676Y-62663333D01*
X138287676Y-62663333D02*
X138192438Y-62758571D01*
X138192438Y-62758571D02*
X138144819Y-62901428D01*
X138144819Y-62901428D02*
X138144819Y-62996666D01*
X138144819Y-62996666D02*
X138192438Y-63139523D01*
X138192438Y-63139523D02*
X138240057Y-63187142D01*
X139144819Y-64139523D02*
X139144819Y-63568095D01*
X139144819Y-63853809D02*
X138144819Y-63853809D01*
X138144819Y-63853809D02*
X138287676Y-63758571D01*
X138287676Y-63758571D02*
X138382914Y-63663333D01*
X138382914Y-63663333D02*
X138430533Y-63568095D01*
X138144819Y-64758571D02*
X138144819Y-64853809D01*
X138144819Y-64853809D02*
X138192438Y-64949047D01*
X138192438Y-64949047D02*
X138240057Y-64996666D01*
X138240057Y-64996666D02*
X138335295Y-65044285D01*
X138335295Y-65044285D02*
X138525771Y-65091904D01*
X138525771Y-65091904D02*
X138763866Y-65091904D01*
X138763866Y-65091904D02*
X138954342Y-65044285D01*
X138954342Y-65044285D02*
X139049580Y-64996666D01*
X139049580Y-64996666D02*
X139097200Y-64949047D01*
X139097200Y-64949047D02*
X139144819Y-64853809D01*
X139144819Y-64853809D02*
X139144819Y-64758571D01*
X139144819Y-64758571D02*
X139097200Y-64663333D01*
X139097200Y-64663333D02*
X139049580Y-64615714D01*
X139049580Y-64615714D02*
X138954342Y-64568095D01*
X138954342Y-64568095D02*
X138763866Y-64520476D01*
X138763866Y-64520476D02*
X138525771Y-64520476D01*
X138525771Y-64520476D02*
X138335295Y-64568095D01*
X138335295Y-64568095D02*
X138240057Y-64615714D01*
X138240057Y-64615714D02*
X138192438Y-64663333D01*
X138192438Y-64663333D02*
X138144819Y-64758571D01*
X163097566Y-67386580D02*
X163145185Y-67434200D01*
X163145185Y-67434200D02*
X163288042Y-67481819D01*
X163288042Y-67481819D02*
X163383280Y-67481819D01*
X163383280Y-67481819D02*
X163526137Y-67434200D01*
X163526137Y-67434200D02*
X163621375Y-67338961D01*
X163621375Y-67338961D02*
X163668994Y-67243723D01*
X163668994Y-67243723D02*
X163716613Y-67053247D01*
X163716613Y-67053247D02*
X163716613Y-66910390D01*
X163716613Y-66910390D02*
X163668994Y-66719914D01*
X163668994Y-66719914D02*
X163621375Y-66624676D01*
X163621375Y-66624676D02*
X163526137Y-66529438D01*
X163526137Y-66529438D02*
X163383280Y-66481819D01*
X163383280Y-66481819D02*
X163288042Y-66481819D01*
X163288042Y-66481819D02*
X163145185Y-66529438D01*
X163145185Y-66529438D02*
X163097566Y-66577057D01*
X162764232Y-66481819D02*
X162097566Y-66481819D01*
X162097566Y-66481819D02*
X162526137Y-67481819D01*
X117624019Y-94953342D02*
X117147828Y-94620009D01*
X117624019Y-94381914D02*
X116624019Y-94381914D01*
X116624019Y-94381914D02*
X116624019Y-94762866D01*
X116624019Y-94762866D02*
X116671638Y-94858104D01*
X116671638Y-94858104D02*
X116719257Y-94905723D01*
X116719257Y-94905723D02*
X116814495Y-94953342D01*
X116814495Y-94953342D02*
X116957352Y-94953342D01*
X116957352Y-94953342D02*
X117052590Y-94905723D01*
X117052590Y-94905723D02*
X117100209Y-94858104D01*
X117100209Y-94858104D02*
X117147828Y-94762866D01*
X117147828Y-94762866D02*
X117147828Y-94381914D01*
X117624019Y-95905723D02*
X117624019Y-95334295D01*
X117624019Y-95620009D02*
X116624019Y-95620009D01*
X116624019Y-95620009D02*
X116766876Y-95524771D01*
X116766876Y-95524771D02*
X116862114Y-95429533D01*
X116862114Y-95429533D02*
X116909733Y-95334295D01*
X116957352Y-96762866D02*
X117624019Y-96762866D01*
X116576400Y-96524771D02*
X117290685Y-96286676D01*
X117290685Y-96286676D02*
X117290685Y-96905723D01*
X120900619Y-43807142D02*
X120424428Y-43473809D01*
X120900619Y-43235714D02*
X119900619Y-43235714D01*
X119900619Y-43235714D02*
X119900619Y-43616666D01*
X119900619Y-43616666D02*
X119948238Y-43711904D01*
X119948238Y-43711904D02*
X119995857Y-43759523D01*
X119995857Y-43759523D02*
X120091095Y-43807142D01*
X120091095Y-43807142D02*
X120233952Y-43807142D01*
X120233952Y-43807142D02*
X120329190Y-43759523D01*
X120329190Y-43759523D02*
X120376809Y-43711904D01*
X120376809Y-43711904D02*
X120424428Y-43616666D01*
X120424428Y-43616666D02*
X120424428Y-43235714D01*
X120900619Y-44759523D02*
X120900619Y-44188095D01*
X120900619Y-44473809D02*
X119900619Y-44473809D01*
X119900619Y-44473809D02*
X120043476Y-44378571D01*
X120043476Y-44378571D02*
X120138714Y-44283333D01*
X120138714Y-44283333D02*
X120186333Y-44188095D01*
X119900619Y-45092857D02*
X119900619Y-45711904D01*
X119900619Y-45711904D02*
X120281571Y-45378571D01*
X120281571Y-45378571D02*
X120281571Y-45521428D01*
X120281571Y-45521428D02*
X120329190Y-45616666D01*
X120329190Y-45616666D02*
X120376809Y-45664285D01*
X120376809Y-45664285D02*
X120472047Y-45711904D01*
X120472047Y-45711904D02*
X120710142Y-45711904D01*
X120710142Y-45711904D02*
X120805380Y-45664285D01*
X120805380Y-45664285D02*
X120853000Y-45616666D01*
X120853000Y-45616666D02*
X120900619Y-45521428D01*
X120900619Y-45521428D02*
X120900619Y-45235714D01*
X120900619Y-45235714D02*
X120853000Y-45140476D01*
X120853000Y-45140476D02*
X120805380Y-45092857D01*
X162132366Y-58478380D02*
X162179985Y-58526000D01*
X162179985Y-58526000D02*
X162322842Y-58573619D01*
X162322842Y-58573619D02*
X162418080Y-58573619D01*
X162418080Y-58573619D02*
X162560937Y-58526000D01*
X162560937Y-58526000D02*
X162656175Y-58430761D01*
X162656175Y-58430761D02*
X162703794Y-58335523D01*
X162703794Y-58335523D02*
X162751413Y-58145047D01*
X162751413Y-58145047D02*
X162751413Y-58002190D01*
X162751413Y-58002190D02*
X162703794Y-57811714D01*
X162703794Y-57811714D02*
X162656175Y-57716476D01*
X162656175Y-57716476D02*
X162560937Y-57621238D01*
X162560937Y-57621238D02*
X162418080Y-57573619D01*
X162418080Y-57573619D02*
X162322842Y-57573619D01*
X162322842Y-57573619D02*
X162179985Y-57621238D01*
X162179985Y-57621238D02*
X162132366Y-57668857D01*
X161275223Y-57573619D02*
X161465699Y-57573619D01*
X161465699Y-57573619D02*
X161560937Y-57621238D01*
X161560937Y-57621238D02*
X161608556Y-57668857D01*
X161608556Y-57668857D02*
X161703794Y-57811714D01*
X161703794Y-57811714D02*
X161751413Y-58002190D01*
X161751413Y-58002190D02*
X161751413Y-58383142D01*
X161751413Y-58383142D02*
X161703794Y-58478380D01*
X161703794Y-58478380D02*
X161656175Y-58526000D01*
X161656175Y-58526000D02*
X161560937Y-58573619D01*
X161560937Y-58573619D02*
X161370461Y-58573619D01*
X161370461Y-58573619D02*
X161275223Y-58526000D01*
X161275223Y-58526000D02*
X161227604Y-58478380D01*
X161227604Y-58478380D02*
X161179985Y-58383142D01*
X161179985Y-58383142D02*
X161179985Y-58145047D01*
X161179985Y-58145047D02*
X161227604Y-58049809D01*
X161227604Y-58049809D02*
X161275223Y-58002190D01*
X161275223Y-58002190D02*
X161370461Y-57954571D01*
X161370461Y-57954571D02*
X161560937Y-57954571D01*
X161560937Y-57954571D02*
X161656175Y-58002190D01*
X161656175Y-58002190D02*
X161703794Y-58049809D01*
X161703794Y-58049809D02*
X161751413Y-58145047D01*
X136753980Y-71185833D02*
X136801600Y-71138214D01*
X136801600Y-71138214D02*
X136849219Y-70995357D01*
X136849219Y-70995357D02*
X136849219Y-70900119D01*
X136849219Y-70900119D02*
X136801600Y-70757262D01*
X136801600Y-70757262D02*
X136706361Y-70662024D01*
X136706361Y-70662024D02*
X136611123Y-70614405D01*
X136611123Y-70614405D02*
X136420647Y-70566786D01*
X136420647Y-70566786D02*
X136277790Y-70566786D01*
X136277790Y-70566786D02*
X136087314Y-70614405D01*
X136087314Y-70614405D02*
X135992076Y-70662024D01*
X135992076Y-70662024D02*
X135896838Y-70757262D01*
X135896838Y-70757262D02*
X135849219Y-70900119D01*
X135849219Y-70900119D02*
X135849219Y-70995357D01*
X135849219Y-70995357D02*
X135896838Y-71138214D01*
X135896838Y-71138214D02*
X135944457Y-71185833D01*
X136849219Y-72138214D02*
X136849219Y-71566786D01*
X136849219Y-71852500D02*
X135849219Y-71852500D01*
X135849219Y-71852500D02*
X135992076Y-71757262D01*
X135992076Y-71757262D02*
X136087314Y-71662024D01*
X136087314Y-71662024D02*
X136134933Y-71566786D01*
X137824380Y-70068233D02*
X137872000Y-70020614D01*
X137872000Y-70020614D02*
X137919619Y-69877757D01*
X137919619Y-69877757D02*
X137919619Y-69782519D01*
X137919619Y-69782519D02*
X137872000Y-69639662D01*
X137872000Y-69639662D02*
X137776761Y-69544424D01*
X137776761Y-69544424D02*
X137681523Y-69496805D01*
X137681523Y-69496805D02*
X137491047Y-69449186D01*
X137491047Y-69449186D02*
X137348190Y-69449186D01*
X137348190Y-69449186D02*
X137157714Y-69496805D01*
X137157714Y-69496805D02*
X137062476Y-69544424D01*
X137062476Y-69544424D02*
X136967238Y-69639662D01*
X136967238Y-69639662D02*
X136919619Y-69782519D01*
X136919619Y-69782519D02*
X136919619Y-69877757D01*
X136919619Y-69877757D02*
X136967238Y-70020614D01*
X136967238Y-70020614D02*
X137014857Y-70068233D01*
X137014857Y-70449186D02*
X136967238Y-70496805D01*
X136967238Y-70496805D02*
X136919619Y-70592043D01*
X136919619Y-70592043D02*
X136919619Y-70830138D01*
X136919619Y-70830138D02*
X136967238Y-70925376D01*
X136967238Y-70925376D02*
X137014857Y-70972995D01*
X137014857Y-70972995D02*
X137110095Y-71020614D01*
X137110095Y-71020614D02*
X137205333Y-71020614D01*
X137205333Y-71020614D02*
X137348190Y-70972995D01*
X137348190Y-70972995D02*
X137919619Y-70401567D01*
X137919619Y-70401567D02*
X137919619Y-71020614D01*
X132320357Y-63126580D02*
X132367976Y-63174200D01*
X132367976Y-63174200D02*
X132510833Y-63221819D01*
X132510833Y-63221819D02*
X132606071Y-63221819D01*
X132606071Y-63221819D02*
X132748928Y-63174200D01*
X132748928Y-63174200D02*
X132844166Y-63078961D01*
X132844166Y-63078961D02*
X132891785Y-62983723D01*
X132891785Y-62983723D02*
X132939404Y-62793247D01*
X132939404Y-62793247D02*
X132939404Y-62650390D01*
X132939404Y-62650390D02*
X132891785Y-62459914D01*
X132891785Y-62459914D02*
X132844166Y-62364676D01*
X132844166Y-62364676D02*
X132748928Y-62269438D01*
X132748928Y-62269438D02*
X132606071Y-62221819D01*
X132606071Y-62221819D02*
X132510833Y-62221819D01*
X132510833Y-62221819D02*
X132367976Y-62269438D01*
X132367976Y-62269438D02*
X132320357Y-62317057D01*
X131367976Y-63221819D02*
X131939404Y-63221819D01*
X131653690Y-63221819D02*
X131653690Y-62221819D01*
X131653690Y-62221819D02*
X131748928Y-62364676D01*
X131748928Y-62364676D02*
X131844166Y-62459914D01*
X131844166Y-62459914D02*
X131939404Y-62507533D01*
X130415595Y-63221819D02*
X130987023Y-63221819D01*
X130701309Y-63221819D02*
X130701309Y-62221819D01*
X130701309Y-62221819D02*
X130796547Y-62364676D01*
X130796547Y-62364676D02*
X130891785Y-62459914D01*
X130891785Y-62459914D02*
X130987023Y-62507533D01*
X126978580Y-72128142D02*
X127026200Y-72080523D01*
X127026200Y-72080523D02*
X127073819Y-71937666D01*
X127073819Y-71937666D02*
X127073819Y-71842428D01*
X127073819Y-71842428D02*
X127026200Y-71699571D01*
X127026200Y-71699571D02*
X126930961Y-71604333D01*
X126930961Y-71604333D02*
X126835723Y-71556714D01*
X126835723Y-71556714D02*
X126645247Y-71509095D01*
X126645247Y-71509095D02*
X126502390Y-71509095D01*
X126502390Y-71509095D02*
X126311914Y-71556714D01*
X126311914Y-71556714D02*
X126216676Y-71604333D01*
X126216676Y-71604333D02*
X126121438Y-71699571D01*
X126121438Y-71699571D02*
X126073819Y-71842428D01*
X126073819Y-71842428D02*
X126073819Y-71937666D01*
X126073819Y-71937666D02*
X126121438Y-72080523D01*
X126121438Y-72080523D02*
X126169057Y-72128142D01*
X127073819Y-73080523D02*
X127073819Y-72509095D01*
X127073819Y-72794809D02*
X126073819Y-72794809D01*
X126073819Y-72794809D02*
X126216676Y-72699571D01*
X126216676Y-72699571D02*
X126311914Y-72604333D01*
X126311914Y-72604333D02*
X126359533Y-72509095D01*
X126073819Y-73937666D02*
X126073819Y-73747190D01*
X126073819Y-73747190D02*
X126121438Y-73651952D01*
X126121438Y-73651952D02*
X126169057Y-73604333D01*
X126169057Y-73604333D02*
X126311914Y-73509095D01*
X126311914Y-73509095D02*
X126502390Y-73461476D01*
X126502390Y-73461476D02*
X126883342Y-73461476D01*
X126883342Y-73461476D02*
X126978580Y-73509095D01*
X126978580Y-73509095D02*
X127026200Y-73556714D01*
X127026200Y-73556714D02*
X127073819Y-73651952D01*
X127073819Y-73651952D02*
X127073819Y-73842428D01*
X127073819Y-73842428D02*
X127026200Y-73937666D01*
X127026200Y-73937666D02*
X126978580Y-73985285D01*
X126978580Y-73985285D02*
X126883342Y-74032904D01*
X126883342Y-74032904D02*
X126645247Y-74032904D01*
X126645247Y-74032904D02*
X126550009Y-73985285D01*
X126550009Y-73985285D02*
X126502390Y-73937666D01*
X126502390Y-73937666D02*
X126454771Y-73842428D01*
X126454771Y-73842428D02*
X126454771Y-73651952D01*
X126454771Y-73651952D02*
X126502390Y-73556714D01*
X126502390Y-73556714D02*
X126550009Y-73509095D01*
X126550009Y-73509095D02*
X126645247Y-73461476D01*
D14*
%TO.C,C17*%
X123852000Y-75706248D02*
X123852000Y-76228752D01*
X125322000Y-75706248D02*
X125322000Y-76228752D01*
%TO.C,R2*%
X158421400Y-89723736D02*
X158421400Y-90177864D01*
X159891400Y-89723736D02*
X159891400Y-90177864D01*
%TO.C,R1*%
X148591600Y-76693536D02*
X148591600Y-77147664D01*
X150061600Y-76693536D02*
X150061600Y-77147664D01*
%TO.C,C3*%
X148591600Y-72803652D02*
X148591600Y-72281148D01*
X150061600Y-72803652D02*
X150061600Y-72281148D01*
%TO.C,C14*%
X140336600Y-80017252D02*
X140336600Y-79494748D01*
X141806600Y-80017252D02*
X141806600Y-79494748D01*
%TO.C,R16*%
X136193264Y-74804600D02*
X135739136Y-74804600D01*
X136193264Y-76274600D02*
X135739136Y-76274600D01*
%TO.C,R10*%
X96167064Y-76825000D02*
X95712936Y-76825000D01*
X96167064Y-78295000D02*
X95712936Y-78295000D01*
%TO.C,C12*%
X131960252Y-63654000D02*
X131437748Y-63654000D01*
X131960252Y-65124000D02*
X131437748Y-65124000D01*
%TO.C,C10*%
X139635000Y-64091252D02*
X139635000Y-63568748D01*
X141105000Y-64091252D02*
X141105000Y-63568748D01*
%TO.C,C7*%
X162669648Y-67972000D02*
X163192152Y-67972000D01*
X162669648Y-69442000D02*
X163192152Y-69442000D01*
%TO.C,R14*%
X114784200Y-95369136D02*
X114784200Y-95823264D01*
X116254200Y-95369136D02*
X116254200Y-95823264D01*
%TO.C,R13*%
X118060800Y-44222936D02*
X118060800Y-44677064D01*
X119530800Y-44222936D02*
X119530800Y-44677064D01*
%TO.C,C6*%
X162226952Y-55703800D02*
X161704448Y-55703800D01*
X162226952Y-57173800D02*
X161704448Y-57173800D01*
%TO.C,C1*%
X137339400Y-71613752D02*
X137339400Y-71091248D01*
X138809400Y-71613752D02*
X138809400Y-71091248D01*
%TO.C,C2*%
X134977200Y-71588352D02*
X134977200Y-71065848D01*
X136447200Y-71588352D02*
X136447200Y-71065848D01*
%TO.C,C11*%
X131938752Y-60352000D02*
X131416248Y-60352000D01*
X131938752Y-61822000D02*
X131416248Y-61822000D01*
%TO.C,C16*%
X125865000Y-75684748D02*
X125865000Y-76207252D01*
X127335000Y-75684748D02*
X127335000Y-76207252D01*
%TD*%
M02*
