%TF.GenerationSoftware,KiCad,Pcbnew,8.0.7*%
%TF.CreationDate,2025-03-12T15:09:51-04:00*%
%TF.ProjectId,skee-ball,736b6565-2d62-4616-9c6c-2e6b69636164,2*%
%TF.SameCoordinates,Original*%
%TF.FileFunction,Paste,Top*%
%TF.FilePolarity,Positive*%
%FSLAX46Y46*%
G04 Gerber Fmt 4.6, Leading zero omitted, Abs format (unit mm)*
G04 Created by KiCad (PCBNEW 8.0.7) date 2025-03-12 15:09:51*
%MOMM*%
%LPD*%
G01*
G04 APERTURE LIST*
G04 Aperture macros list*
%AMRoundRect*
0 Rectangle with rounded corners*
0 $1 Rounding radius*
0 $2 $3 $4 $5 $6 $7 $8 $9 X,Y pos of 4 corners*
0 Add a 4 corners polygon primitive as box body*
4,1,4,$2,$3,$4,$5,$6,$7,$8,$9,$2,$3,0*
0 Add four circle primitives for the rounded corners*
1,1,$1+$1,$2,$3*
1,1,$1+$1,$4,$5*
1,1,$1+$1,$6,$7*
1,1,$1+$1,$8,$9*
0 Add four rect primitives between the rounded corners*
20,1,$1+$1,$2,$3,$4,$5,0*
20,1,$1+$1,$4,$5,$6,$7,0*
20,1,$1+$1,$6,$7,$8,$9,0*
20,1,$1+$1,$8,$9,$2,$3,0*%
G04 Aperture macros list end*
%ADD10RoundRect,0.250000X0.350000X0.450000X-0.350000X0.450000X-0.350000X-0.450000X0.350000X-0.450000X0*%
%ADD11RoundRect,0.250000X0.450000X-0.325000X0.450000X0.325000X-0.450000X0.325000X-0.450000X-0.325000X0*%
%ADD12RoundRect,0.112500X-0.237500X0.112500X-0.237500X-0.112500X0.237500X-0.112500X0.237500X0.112500X0*%
%ADD13RoundRect,0.250000X0.337500X0.475000X-0.337500X0.475000X-0.337500X-0.475000X0.337500X-0.475000X0*%
%ADD14RoundRect,0.250000X-0.450000X0.350000X-0.450000X-0.350000X0.450000X-0.350000X0.450000X0.350000X0*%
%ADD15RoundRect,0.250000X-0.450000X0.325000X-0.450000X-0.325000X0.450000X-0.325000X0.450000X0.325000X0*%
%ADD16RoundRect,0.250000X-0.325000X-0.450000X0.325000X-0.450000X0.325000X0.450000X-0.325000X0.450000X0*%
%ADD17RoundRect,0.250000X0.450000X-0.350000X0.450000X0.350000X-0.450000X0.350000X-0.450000X-0.350000X0*%
%ADD18RoundRect,0.375000X-0.375000X0.625000X-0.375000X-0.625000X0.375000X-0.625000X0.375000X0.625000X0*%
%ADD19RoundRect,0.500000X-1.400000X0.500000X-1.400000X-0.500000X1.400000X-0.500000X1.400000X0.500000X0*%
%ADD20RoundRect,0.075000X0.700000X0.075000X-0.700000X0.075000X-0.700000X-0.075000X0.700000X-0.075000X0*%
%ADD21RoundRect,0.075000X0.075000X0.700000X-0.075000X0.700000X-0.075000X-0.700000X0.075000X-0.700000X0*%
G04 APERTURE END LIST*
D10*
%TO.C,R12*%
X146491200Y-69672200D03*
X144491200Y-69672200D03*
%TD*%
D11*
%TO.C,D9*%
X163040000Y-75075000D03*
X163040000Y-73025000D03*
%TD*%
D12*
%TO.C,U11*%
X143510000Y-73045800D03*
X143510000Y-74345800D03*
X145510000Y-73695800D03*
%TD*%
D13*
%TO.C,FB1*%
X142437500Y-99010000D03*
X140362500Y-99010000D03*
%TD*%
D14*
%TO.C,R4*%
X137395000Y-82688000D03*
X137395000Y-84688000D03*
%TD*%
%TO.C,R3*%
X135495000Y-82672000D03*
X135495000Y-84672000D03*
%TD*%
D11*
%TO.C,D6*%
X138440000Y-97155000D03*
X138440000Y-95105000D03*
%TD*%
D15*
%TO.C,D7*%
X113258600Y-49186700D03*
X113258600Y-51236700D03*
%TD*%
D16*
%TO.C,D8*%
X94925400Y-80654600D03*
X96975400Y-80654600D03*
%TD*%
D17*
%TO.C,R8*%
X140430000Y-97130000D03*
X140430000Y-95130000D03*
%TD*%
D10*
%TO.C,R15*%
X157067000Y-96113600D03*
X155067000Y-96113600D03*
%TD*%
D14*
%TO.C,R6*%
X131645000Y-82688000D03*
X131645000Y-84688000D03*
%TD*%
D11*
%TO.C,D2*%
X137420000Y-88527500D03*
X137420000Y-86477500D03*
%TD*%
%TO.C,D1*%
X135520000Y-88527500D03*
X135520000Y-86477500D03*
%TD*%
D18*
%TO.C,U13*%
X165317200Y-59994800D03*
X163017200Y-59994800D03*
D19*
X163017200Y-66294800D03*
D18*
X160717200Y-59994800D03*
%TD*%
D20*
%TO.C,U4*%
X140901500Y-76345000D03*
X140901500Y-75845000D03*
X140901500Y-75345000D03*
X140901500Y-74845000D03*
X140901500Y-74345000D03*
X140901500Y-73845000D03*
X140901500Y-73345000D03*
X140901500Y-72845000D03*
X140901500Y-72345000D03*
X140901500Y-71845000D03*
X140901500Y-71345000D03*
X140901500Y-70845000D03*
X140901500Y-70345000D03*
X140901500Y-69845000D03*
X140901500Y-69345000D03*
X140901500Y-68845000D03*
D21*
X138976500Y-66920000D03*
X138476500Y-66920000D03*
X137976500Y-66920000D03*
X137476500Y-66920000D03*
X136976500Y-66920000D03*
X136476500Y-66920000D03*
X135976500Y-66920000D03*
X135476500Y-66920000D03*
X134976500Y-66920000D03*
X134476500Y-66920000D03*
X133976500Y-66920000D03*
X133476500Y-66920000D03*
X132976500Y-66920000D03*
X132476500Y-66920000D03*
X131976500Y-66920000D03*
X131476500Y-66920000D03*
D20*
X129551500Y-68845000D03*
X129551500Y-69345000D03*
X129551500Y-69845000D03*
X129551500Y-70345000D03*
X129551500Y-70845000D03*
X129551500Y-71345000D03*
X129551500Y-71845000D03*
X129551500Y-72345000D03*
X129551500Y-72845000D03*
X129551500Y-73345000D03*
X129551500Y-73845000D03*
X129551500Y-74345000D03*
X129551500Y-74845000D03*
X129551500Y-75345000D03*
X129551500Y-75845000D03*
X129551500Y-76345000D03*
D21*
X131476500Y-78270000D03*
X131976500Y-78270000D03*
X132476500Y-78270000D03*
X132976500Y-78270000D03*
X133476500Y-78270000D03*
X133976500Y-78270000D03*
X134476500Y-78270000D03*
X134976500Y-78270000D03*
X135476500Y-78270000D03*
X135976500Y-78270000D03*
X136476500Y-78270000D03*
X136976500Y-78270000D03*
X137476500Y-78270000D03*
X137976500Y-78270000D03*
X138476500Y-78270000D03*
X138976500Y-78270000D03*
%TD*%
D14*
%TO.C,R5*%
X139320000Y-82690000D03*
X139320000Y-84690000D03*
%TD*%
D10*
%TO.C,R9*%
X116560000Y-53860000D03*
X114560000Y-53860000D03*
%TD*%
D14*
%TO.C,R11*%
X163000000Y-69270000D03*
X163000000Y-71270000D03*
%TD*%
D11*
%TO.C,D4*%
X131668200Y-88527500D03*
X131668200Y-86477500D03*
%TD*%
D14*
%TO.C,R7*%
X133579000Y-82688000D03*
X133579000Y-84688000D03*
%TD*%
D11*
%TO.C,D5*%
X133620000Y-88527500D03*
X133620000Y-86477500D03*
%TD*%
%TO.C,D3*%
X139345000Y-88527500D03*
X139345000Y-86477500D03*
%TD*%
M02*
